<?xml version="1.0" encoding="UTF-8" standalone="no"?>
<!DOCTYPE svg PUBLIC "-//W3C//DTD SVG 1.1//EN" "http://www.w3.org/Graphics/SVG/1.1/DTD/svg11.dtd">
<svg width="100%" height="100%" viewBox="0 0 1000 525" version="1.1" xmlns="http://www.w3.org/2000/svg" xmlns:xlink="http://www.w3.org/1999/xlink" xml:space="preserve" xmlns:serif="http://www.serif.com/" style="fill-rule:evenodd;clip-rule:evenodd;stroke-linejoin:round;stroke-miterlimit:1.41421;">
    <g transform="matrix(1,0,0,1,-457.892,0)">
        <g id="Artboard1" transform="matrix(2.17141,0,0,1.13996,-532.475,452.231)">
            <rect x="456.094" y="-396.708" width="460.366" height="460.366" style="fill:rgb(255,36,64);"/>
            <clipPath id="_clip1">
                <rect x="456.094" y="-396.708" width="460.366" height="460.366"/>
            </clipPath>
            <g clip-path="url(#_clip1)">
                <g transform="matrix(0.836893,0,0,1.20211,19.4179,-428.056)">
                    <rect x="521.782" y="26.077" width="275.036" height="382.965" style="fill:rgb(0,179,255);"/>
                </g>
                <g transform="matrix(0.485659,0,0,0.925089,-19.1184,-351.219)">
                    <path d="M1212.28,267.607L1212.28,336.017C1212.28,338.88 1211.7,341.364 1210.72,343.496C1213.87,343.761 1217.06,343.927 1220.29,343.927C1239.63,343.927 1257.84,339.085 1273.79,330.564L1212.28,267.607ZM1183.29,336.018L1183.29,122.631C1138.64,137.988 1106.54,180.323 1106.54,230.185C1106.54,280.098 1138.7,322.469 1183.42,337.787C1183.37,337.199 1183.29,336.638 1183.29,336.018ZM1212.28,236.302L1275.54,184.348C1281.47,179.186 1287.07,175.636 1292.01,175.636C1299.59,175.636 1304.2,181.121 1304.2,188.221C1304.2,192.415 1302.55,196.289 1296.96,200.482L1231.06,251.466L1296.43,314.667C1319.51,293.849 1334.03,263.715 1334.03,230.186C1334.03,167.368 1283.1,116.439 1220.29,116.439C1217.59,116.439 1214.93,116.57 1212.28,116.755L1212.28,236.302Z" style="fill:white;fill-rule:nonzero;"/>
                </g>
                <g transform="matrix(1.15004,0,0,2.11935,1555.62,-1363.05)">
                    <g transform="matrix(0.9424,0,0,0.974089,-773.737,-502.559)">
                        <path d="M163.23,1140.41C153.902,1152.44 139.312,1160.18 122.927,1160.18C106.542,1160.18 91.952,1152.44 82.624,1140.41L163.23,1140.41Z" style="fill:rgb(255,224,0);"/>
                    </g>
                    <g transform="matrix(0.9424,0,0,0.974089,-773.737,-502.559)">
                        <path d="M173.903,1109.15L173.904,1109.21C173.904,1116 172.573,1122.48 170.158,1128.41L137.099,1128.41L117.841,1109.15L173.903,1109.15Z" style="fill:rgb(81,205,210);"/>
                    </g>
                    <g transform="matrix(0.9424,0,0,0.974089,-773.737,-502.559)">
                        <path d="M71.951,1109.15L100.87,1109.15L120.129,1128.41L75.696,1128.41C73.281,1122.48 71.95,1116 71.95,1109.21L71.951,1109.15Z" style="fill:rgb(81,205,210);"/>
                    </g>
                    <g transform="matrix(0.9424,0,0,0.974089,-773.737,-502.559)">
                        <path d="M149.367,1065.62C160.764,1072.56 169.233,1083.84 172.467,1097.15L117.841,1097.15L149.367,1065.62Z" style="fill:white;"/>
                    </g>
                    <g transform="matrix(0.9424,0,0,0.974089,-773.737,-502.559)">
                        <path d="M73.387,1097.15C78.809,1074.83 98.945,1058.23 122.927,1058.23C128.039,1058.23 132.976,1058.99 137.633,1060.39L100.87,1097.15L73.387,1097.15Z" style="fill:white;"/>
                    </g>
                </g>
                <g transform="matrix(0.46053,0,0,0.877224,267.181,-396.708)">
                    <g transform="matrix(0.9,0,0,1,62.3362,0)">
                        <path d="M640.061,74.909C640.976,75.033 641.521,75.528 641.694,76.394L641.694,78.323C641.521,79.264 640.964,79.783 640.024,79.882L626.961,79.882C626.021,79.783 625.502,79.264 625.403,78.323L625.403,76.394C625.403,76.122 625.477,75.874 625.625,75.652C629.312,71.001 632.899,66.213 636.387,61.29C636.387,60.746 636.399,60.214 636.424,59.695C636.053,58.012 635.026,57.109 633.344,56.986C631.39,57.159 630.338,58.223 630.19,60.177L630.19,61.587C630.066,62.527 629.534,63.047 628.594,63.146L626.702,63.146C625.737,63.022 625.242,62.49 625.217,61.55L625.217,59.991C625.613,54.994 628.322,52.248 633.344,51.753C638.317,52.273 641.038,55.019 641.508,59.991C641.483,60.684 641.434,61.364 641.36,62.032C641.013,62.973 640.519,63.814 639.875,64.556C637.377,68.019 634.853,71.471 632.305,74.909L640.061,74.909Z" style="fill:white;fill-rule:nonzero;"/>
                    </g>
                    <g transform="matrix(0.9,0,0,1,62.3362,0)">
                        <path d="M655.469,51.753C660.441,52.273 663.175,55.019 663.67,59.991L663.67,72.052C663.175,77.025 660.441,79.721 655.469,80.142C650.471,79.696 647.75,77 647.305,72.052L647.305,59.991C647.75,55.019 650.471,52.273 655.469,51.753ZM658.66,72.089L658.66,60.214C658.462,58.26 657.398,57.183 655.469,56.986C653.514,57.208 652.451,58.284 652.277,60.214L652.277,72.089C652.475,74.019 653.539,75.07 655.469,75.243C657.398,75.07 658.462,74.019 658.66,72.089Z" style="fill:white;fill-rule:nonzero;"/>
                    </g>
                    <g transform="matrix(0.9,0,0,1,62.3362,0)">
                        <path d="M680.302,53.386L680.302,54.907C680.253,58.965 680.228,63.022 680.228,67.079C680.228,70.84 680.228,74.588 680.228,78.323C680.129,79.239 679.634,79.758 678.744,79.882L676.777,79.882C675.886,79.783 675.379,79.301 675.255,78.435L675.255,58.507C674.068,59.274 672.856,60.016 671.619,60.734C671.248,61.03 670.852,61.204 670.431,61.253C669.763,61.08 669.429,60.635 669.429,59.917L669.429,57.542C669.33,56.553 669.751,55.823 670.691,55.353C671.136,55.081 671.582,54.796 672.027,54.499C672.942,53.955 673.845,53.386 674.736,52.792C675.082,52.57 675.429,52.372 675.775,52.198C676.072,51.926 676.443,51.79 676.888,51.79L678.744,51.79C679.634,51.939 680.154,52.471 680.302,53.386Z" style="fill:white;fill-rule:nonzero;"/>
                    </g>
                    <g transform="matrix(0.9,0,0,1,62.3362,0)">
                        <path d="M703.169,53.683L703.169,55.575C703.169,55.823 703.095,56.045 702.947,56.243C702.6,57.183 702.254,58.124 701.907,59.064C701.042,61.315 700.188,63.566 699.347,65.818C697.739,70.172 696.106,74.526 694.448,78.88C694.003,79.795 693.286,80.204 692.296,80.105L691.925,80.105L690.441,80.105L689.921,80.105C688.758,80.03 688.387,79.474 688.808,78.435C689.797,75.713 690.787,72.98 691.777,70.234C693.36,65.904 694.956,61.538 696.564,57.134L690.7,57.134L688.4,57.134C687.46,57.06 686.94,56.54 686.841,55.575L686.841,53.683C686.94,52.767 687.46,52.236 688.4,52.087L701.722,52.087C701.796,52.137 701.858,52.174 701.907,52.198C702.65,52.421 703.07,52.916 703.169,53.683Z" style="fill:white;fill-rule:nonzero;"/>
                    </g>
                </g>
                <g transform="matrix(0.46053,0,0,0.877224,495.022,-396.708)">
                    <g transform="matrix(0.9,0,0,1,62.3362,0)">
                        <path d="M640.061,74.909C640.976,75.033 641.521,75.528 641.694,76.394L641.694,78.323C641.521,79.264 640.964,79.783 640.024,79.882L626.961,79.882C626.021,79.783 625.502,79.264 625.403,78.323L625.403,76.394C625.403,76.122 625.477,75.874 625.625,75.652C629.312,71.001 632.899,66.213 636.387,61.29C636.387,60.746 636.399,60.214 636.424,59.695C636.053,58.012 635.026,57.109 633.344,56.986C631.39,57.159 630.338,58.223 630.19,60.177L630.19,61.587C630.066,62.527 629.534,63.047 628.594,63.146L626.702,63.146C625.737,63.022 625.242,62.49 625.217,61.55L625.217,59.991C625.613,54.994 628.322,52.248 633.344,51.753C638.317,52.273 641.038,55.019 641.508,59.991C641.483,60.684 641.434,61.364 641.36,62.032C641.013,62.973 640.519,63.814 639.875,64.556C637.377,68.019 634.853,71.471 632.305,74.909L640.061,74.909Z" style="fill:white;fill-rule:nonzero;"/>
                    </g>
                    <g transform="matrix(0.9,0,0,1,62.3362,0)">
                        <path d="M655.469,51.753C660.441,52.273 663.175,55.019 663.67,59.991L663.67,72.052C663.175,77.025 660.441,79.721 655.469,80.142C650.471,79.696 647.75,77 647.305,72.052L647.305,59.991C647.75,55.019 650.471,52.273 655.469,51.753ZM658.66,72.089L658.66,60.214C658.462,58.26 657.398,57.183 655.469,56.986C653.514,57.208 652.451,58.284 652.277,60.214L652.277,72.089C652.475,74.019 653.539,75.07 655.469,75.243C657.398,75.07 658.462,74.019 658.66,72.089Z" style="fill:white;fill-rule:nonzero;"/>
                    </g>
                    <g transform="matrix(0.9,0,0,1,62.3362,0)">
                        <path d="M680.302,53.386L680.302,54.907C680.253,58.965 680.228,63.022 680.228,67.079C680.228,70.84 680.228,74.588 680.228,78.323C680.129,79.239 679.634,79.758 678.744,79.882L676.777,79.882C675.886,79.783 675.379,79.301 675.255,78.435L675.255,58.507C674.068,59.274 672.856,60.016 671.619,60.734C671.248,61.03 670.852,61.204 670.431,61.253C669.763,61.08 669.429,60.635 669.429,59.917L669.429,57.542C669.33,56.553 669.751,55.823 670.691,55.353C671.136,55.081 671.582,54.796 672.027,54.499C672.942,53.955 673.845,53.386 674.736,52.792C675.082,52.57 675.429,52.372 675.775,52.198C676.072,51.926 676.443,51.79 676.888,51.79L678.744,51.79C679.634,51.939 680.154,52.471 680.302,53.386Z" style="fill:white;fill-rule:nonzero;"/>
                    </g>
                    <g transform="matrix(0.9,0,0,1,62.3362,0)">
                        <path d="M703.095,59.954L703.095,59.991C703.021,62.416 702.254,64.543 700.794,66.374C702.279,67.958 703.045,69.85 703.095,72.052C702.6,77 699.891,79.709 694.968,80.179C689.971,79.709 687.262,77 686.841,72.052C686.841,69.85 687.596,67.958 689.105,66.374C687.596,64.543 686.841,62.416 686.841,59.991L686.841,59.954C687.237,55.006 689.946,52.26 694.968,51.716C699.916,52.26 702.625,55.006 703.095,59.954ZM694.968,56.8C693.162,57.122 692.185,58.173 692.036,59.954C692.185,61.785 693.162,62.836 694.968,63.109C696.774,62.861 697.739,61.81 697.863,59.954C697.689,58.148 696.724,57.097 694.968,56.8ZM692.036,72.052C692.185,73.858 693.162,74.897 694.968,75.169C696.724,74.897 697.689,73.858 697.863,72.052C697.739,70.221 696.774,69.17 694.968,68.898C693.162,69.195 692.185,70.246 692.036,72.052Z" style="fill:white;fill-rule:nonzero;"/>
                    </g>
                </g>
            </g>
        </g>
    </g>
</svg>
