<?xml version="1.0" encoding="UTF-8" standalone="no"?>
<!DOCTYPE svg PUBLIC "-//W3C//DTD SVG 1.1//EN" "http://www.w3.org/Graphics/SVG/1.1/DTD/svg11.dtd">
<svg width="100%" height="100%" viewBox="0 0 331 267" version="1.1" xmlns="http://www.w3.org/2000/svg" xmlns:xlink="http://www.w3.org/1999/xlink" xml:space="preserve" xmlns:serif="http://www.serif.com/" style="fill-rule:evenodd;clip-rule:evenodd;stroke-linejoin:round;stroke-miterlimit:1.41421;">
    <g transform="matrix(1,0,0,1,-265.041,-1.04103)">
        <g id="Artboard1" transform="matrix(1.43127,0,0,0.988533,265.041,1.04103)">
            <rect x="0" y="0" width="231" height="270" style="fill:none;"/>
            <g transform="matrix(0.655293,0,0,2.35222,-163.78,-327.917)">
                <path d="M296.805,226.143C304.321,223.798 555.881,225.083 556.108,225.127C567.13,227.287 540.063,228.645 540.935,228.729C554.831,230.07 592.51,230.448 588.725,233.097C588.145,233.502 561.867,235.954 562.216,236.308C562.901,236.999 593.882,238.321 593.413,239.502C593.136,240.201 570.055,242.101 569.19,242.595C568.949,242.733 587.533,246.207 587.13,246.561C586.067,247.496 292.337,246.792 279.216,246.803C267.629,246.812 311.795,240.215 313.58,239.426C313.948,239.263 268.451,240.478 266.979,238.403C265.852,236.813 299.872,233.816 296.283,233.477C295.068,233.362 276.352,232.983 281.074,231.359C287.587,229.118 325.773,229.592 326.061,229.602L326.076,229.627C326.218,229.613 326.186,229.606 326.061,229.602C318.961,229.616 289.289,228.488 296.805,226.143Z" style="fill:rgb(237,237,237);"/>
            </g>
            <g id="standing" transform="matrix(0.698681,0,0,1.0116,89.5787,9.99896)">
                <g transform="matrix(1,0,0,1,122.395,173.733)">
                    <path d="M0,-97.476C12.408,-79.808 43.897,-53.032 43.793,-26.904C51.059,-24.331 50.969,-20.144 48.253,-12.473C47.208,-18.452 46.398,-21.424 42.319,-20.823C46.526,-16.542 47.242,-8.47 38.749,-0.942C39.443,-8.013 41.024,-17.525 35.464,-19.457C38.701,-8.915 32.737,-0.391 27.415,3.07C30.729,-5.985 27.807,-17.93 27.807,-17.93C23.534,-19.279 19.333,-14.573 19.679,-4.927C10.574,-9.94 15.965,-24.208 28.696,-31.597C31.029,-49.7 1.945,-76.809 -7.298,-72.809C-12.015,-83.924 0,-97.476 0,-97.476" style="fill-rule:nonzero;"/>
                </g>
                <g transform="matrix(0.497226,0.867621,-0.867621,0.497226,2.17134,149.097)">
                    <path d="M0,-97.476C12.408,-79.808 43.897,-53.032 43.793,-26.904C51.059,-24.331 50.969,-20.144 48.253,-12.473C47.208,-18.452 46.398,-21.424 42.319,-20.823C46.526,-16.542 47.242,-8.47 38.749,-0.942C39.443,-8.013 41.024,-17.525 35.464,-19.457C38.701,-8.915 32.737,-0.391 27.415,3.07C30.729,-5.985 27.807,-17.93 27.807,-17.93C23.534,-19.279 19.333,-14.573 19.679,-4.927C10.574,-9.94 15.965,-24.208 28.696,-31.597C31.029,-49.7 1.945,-76.809 -7.298,-72.809C-12.015,-83.924 0,-97.476 0,-97.476" style="fill-rule:nonzero;"/>
                </g>
                <g transform="matrix(0.8584,0.0908494,-0.0912352,0.862045,64.6913,221.62)">
                    <path d="M0,-89.23C-0.879,-82.625 1.172,-83.245 -2.635,-63.842C-3.751,-58.158 -9.614,-51.205 -9.457,-46.114C-9.078,-33.827 -1.659,-25.126 -10.771,-18.705C-23.657,-9.623 -48.622,-5.779 -44.814,0C-42.764,-4.953 9.934,-4.231 12.301,-9.971C14.669,-15.711 1.357,-36.102 3.406,-45.39C5.457,-54.678 15.791,-63.171 15.791,-67.712C15.791,-72.252 28.137,-88.662 28.137,-88.662L0,-89.23Z" style="fill-rule:nonzero;"/>
                </g>
                <g transform="matrix(-0.65511,0.639974,0.674897,0.690859,148.209,217.677)">
                    <path d="M0,-96.458C2.034,-90.112 -2.876,-90.946 4.308,-72.525C6.578,-66.704 22.499,-53.202 22.846,-46.533C23.597,-32.101 7.375,-24.688 16.362,-20.339C20.238,-18.463 51.154,-30.678 48.119,-26.311C44.815,-21.559 34.376,-3.696 20.043,-6.816C6.795,-9.7 -5.437,-13.104 -4.48,-16.457C-2.487,-23.437 9.772,-38.67 6.11,-47.447C2.447,-56.226 -11.86,-69.026 -12.664,-73.495C-13.469,-77.965 -15.713,-95.387 -15.713,-95.387L0,-96.458Z" style="fill-rule:nonzero;"/>
                </g>
                <g transform="matrix(0.95699,-0.290122,0.290122,0.95699,-49.5339,26.7476)">
                    <g transform="matrix(1,0,0,1,164.655,153.978)">
                        <path d="M-2.079,-35.278C0.636,-52.603 12.232,-74.851 0,-109.799C-12.232,-144.747 -58.841,-144.046 -72.607,-144.046C-86.414,-144.046 -98.623,-133.726 -118.264,-107.539C-128.958,-93.279 -94.047,-52.626 -98.763,-36.101C-116.987,27.76 -73.322,28.645 -47.886,28.994C-20.575,29.368 -7.107,-3.179 -2.079,-35.278Z" style="fill-rule:nonzero;"/>
                    </g>
                    <g transform="matrix(1,0,0,1,82.5235,118.203)">
                        <path d="M0,-0.001C0,2.34 -2.093,4.237 -4.676,4.237C-7.258,4.237 -9.353,2.34 -9.353,-0.001C-9.353,-2.341 -7.258,-4.238 -4.676,-4.238C-2.093,-4.238 0,-2.341 0,-0.001" style="fill:rgb(236,28,36);fill-rule:nonzero;"/>
                    </g>
                    <g transform="matrix(1,0,0,1,102.095,118.203)">
                        <path d="M0,-0.001C0,2.34 -2.093,4.237 -4.676,4.237C-7.258,4.237 -9.353,2.34 -9.353,-0.001C-9.353,-2.341 -7.258,-4.238 -4.676,-4.238C-2.093,-4.238 0,-2.341 0,-0.001" style="fill:rgb(236,28,36);fill-rule:nonzero;"/>
                    </g>
                    <g transform="matrix(0.741838,-0.670579,0.670579,0.741838,48.0047,20.1834)">
                        <path d="M0,21.312C2.243,20.19 17.198,5.982 10.095,1.122C2.991,-3.739 -0.748,4.861 0.374,8.974C1.495,13.086 5.607,7.478 5.607,5.235C7.852,10.095 1.121,17.573 -2.618,14.583C-6.356,11.591 -1.122,-2.617 2.617,-3.365C6.355,-4.113 14.581,-4.486 14.581,-0.374C14.581,3.739 11.964,13.086 10.095,14.583C8.226,16.078 5.607,22.807 5.607,25.798C2.243,24.303 0,21.312 0,21.312" style="fill-rule:nonzero;"/>
                    </g>
                    <g transform="matrix(1,0,0,1,-263.307,0)">
                        <path d="M334.965,141.223C335.17,135.045 333.357,132.172 335.775,132.109C350.451,131.729 358.243,130.588 364.95,130.281C381.826,129.51 386.394,117.947 387.38,119.41C391.912,126.133 376.516,146.568 358.324,147.381C331.002,148.602 334.81,145.916 334.965,141.223Z" style="fill:rgb(132,132,132);"/>
                        <clipPath id="_clip1">
                            <path d="M334.965,141.223C335.17,135.045 333.357,132.172 335.775,132.109C350.451,131.729 358.243,130.588 364.95,130.281C381.826,129.51 386.394,117.947 387.38,119.41C391.912,126.133 376.516,146.568 358.324,147.381C331.002,148.602 334.81,145.916 334.965,141.223Z"/>
                        </clipPath>
                        <g clip-path="url(#_clip1)">
                            <g>
                                <g transform="matrix(1,0,0,1,-9.30013,-0.047526)">
                                    <path d="M348.806,131.298C348.806,130.777 348.774,131.986 348.774,132.119C348.774,132.773 348.736,133.441 348.79,134.093C348.947,135.973 350.728,137.39 352.643,137.124C354.716,136.836 355.679,133.721 355.027,132.024C354.75,131.304 353.953,130.421 353.953,129.624" style="fill:white;"/>
                                </g>
                                <g transform="matrix(1,0,0,1,-1.02669,0.014974)">
                                    <path d="M348.806,131.298C348.806,130.777 348.774,131.986 348.774,132.119C348.774,132.773 348.736,133.441 348.79,134.093C348.947,135.973 350.728,137.39 352.643,137.124C354.716,136.836 355.679,133.721 355.027,132.024C354.75,131.304 353.953,130.421 353.953,129.624" style="fill:white;"/>
                                </g>
                                <g transform="matrix(1,0,0,1,6.59961,-2.21094)">
                                    <path d="M348.806,131.298C348.806,130.777 348.774,131.986 348.774,132.119C348.774,132.773 348.736,133.441 348.79,134.093C348.947,135.973 350.728,137.39 352.643,137.124C354.716,136.836 355.679,133.721 355.027,132.024C354.75,131.304 353.953,130.421 353.953,129.624" style="fill:white;"/>
                                </g>
                            </g>
                            <g transform="matrix(1,0,0,1,-9.03564,1.68164)">
                                <g transform="matrix(1,0,0,-1,0.66276,278.428)">
                                    <path d="M348.806,131.298C348.806,130.777 348.774,131.986 348.774,132.119C348.774,132.773 348.736,133.441 348.79,134.093C348.947,135.973 350.728,137.39 352.643,137.124C354.716,136.836 355.679,133.721 355.027,132.024C354.75,131.304 353.953,130.421 353.953,129.624" style="fill:white;"/>
                                </g>
                                <g transform="matrix(1,0,0,-1,7.4445,281.361)">
                                    <path d="M348.806,131.298C348.806,130.777 348.774,131.986 348.774,132.119C348.774,132.773 348.736,133.441 348.79,134.093C348.947,135.973 350.728,137.39 352.643,137.124C354.716,136.836 355.679,133.721 355.027,132.024C354.75,131.304 353.953,130.421 353.953,129.624" style="fill:white;"/>
                                </g>
                                <g transform="matrix(1,0,0,-1,14.6527,278.214)">
                                    <path d="M348.806,131.298C348.806,130.777 348.774,131.986 348.774,132.119C348.774,132.773 348.736,133.441 348.79,134.093C348.947,135.973 350.728,137.39 352.643,137.124C354.716,136.836 355.679,133.721 355.027,132.024C354.75,131.304 353.953,130.421 353.953,129.624" style="fill:white;"/>
                                </g>
                            </g>
                        </g>
                    </g>
                </g>
            </g>
            <g transform="matrix(0.698681,0,0,1.0116,-145.368,12.6977)">
                <path d="M319.559,204.526L319.651,204.647L319.746,204.776L319.838,204.906L319.928,205.038L320.015,205.171L320.1,205.305L320.183,205.441L320.264,205.578L320.342,205.716L320.419,205.855L320.492,205.996L320.564,206.138L320.634,206.281L320.701,206.425L320.766,206.57L320.829,206.716L320.891,206.863L320.95,207.012L321.007,207.161L321.062,207.311L321.115,207.462L321.167,207.614L321.216,207.767L321.263,207.921L321.309,208.076L321.353,208.232L321.394,208.389L321.434,208.546L321.473,208.705L321.509,208.864L321.543,209.024L321.576,209.185L321.607,209.347L321.636,209.509L321.664,209.672L321.69,209.836L321.699,209.899L321.713,210.001L321.735,210.167L321.755,210.333L321.773,210.5L321.789,210.668L321.804,210.836L321.818,211.006L321.829,211.175L321.839,211.346L321.848,211.517L321.854,211.689L321.86,211.861L321.863,212.034L321.866,212.207L321.866,212.275L321.866,212.381L321.864,212.556L321.86,212.731L321.855,212.907L321.848,213.083L321.84,213.259L321.831,213.437L321.82,213.614L321.808,213.792L321.794,213.971L321.779,214.15L321.762,214.329L321.744,214.509L321.733,214.611L321.724,214.689L321.701,214.869L321.676,215.05L321.65,215.231L321.623,215.412L321.594,215.593L321.564,215.775L321.533,215.957L321.5,216.139L321.466,216.322L321.43,216.505L321.394,216.688L321.393,216.691L321.351,216.87L321.306,217.052L321.26,217.234L321.213,217.416L321.165,217.598L321.115,217.78L321.064,217.962L321.011,218.145L320.96,218.32L320.957,218.327L320.893,218.506L320.828,218.685L320.761,218.864L320.693,219.043L320.624,219.221L320.554,219.399L320.482,219.577L320.46,219.634L320.405,219.753L320.323,219.928L320.241,220.103L320.158,220.277L320.074,220.451L319.989,220.624L319.903,220.797L319.866,220.87L319.813,220.969L319.72,221.139L319.626,221.309L319.531,221.478L319.436,221.648L319.34,221.817L319.244,221.985L319.23,222.01L319.144,222.152L319.043,222.318L318.941,222.484L318.839,222.649L318.737,222.815L318.635,222.98L318.598,223.038L318.53,223.143L318.423,223.306L318.317,223.469L318.211,223.631L318.105,223.793L317.999,223.955L317.893,224.117L317.788,224.279L317.682,224.441L317.577,224.603L317.511,224.706L317.472,224.765L317.367,224.927L317.262,225.088L317.157,225.25L317.053,225.411L316.948,225.572L316.872,225.689L316.844,225.73L315.491,226.032L315.189,224.679L315.214,224.638L315.285,224.522L315.379,224.367L315.471,224.211L315.562,224.053L315.651,223.895L315.738,223.735L315.769,223.676L315.823,223.574L315.907,223.412L315.988,223.25L316.068,223.086L316.146,222.921L316.221,222.756L316.295,222.589L316.367,222.422L316.437,222.254L316.505,222.085L316.548,221.976L316.573,221.917L316.641,221.749L316.707,221.58L316.772,221.411L316.836,221.241L316.897,221.072L316.948,220.927L316.958,220.902L317.02,220.733L317.081,220.564L317.14,220.395L317.198,220.226L317.254,220.056L317.309,219.886L317.34,219.788L317.365,219.718L317.423,219.55L317.479,219.383L317.535,219.215L317.588,219.048L317.641,218.88L317.692,218.713L317.727,218.598L317.745,218.546L317.801,218.382L317.856,218.218L317.91,218.053L317.963,217.889L318.015,217.725L318.065,217.561L318.114,217.397L318.116,217.392L318.171,217.237L318.227,217.076L318.281,216.916L318.335,216.756L318.387,216.596L318.438,216.436L318.487,216.276L318.535,216.116L318.582,215.96L318.583,215.957L318.633,215.799L318.682,215.641L318.73,215.483L318.777,215.326L318.822,215.168L318.865,215.011L318.907,214.855L318.948,214.698L318.987,214.542L319.025,214.386L319.061,214.23L319.076,214.162L319.097,214.075L319.132,213.92L319.166,213.766L319.199,213.612L319.229,213.458L319.258,213.305L319.286,213.152L319.312,213L319.336,212.848L319.358,212.697L319.379,212.546L319.399,212.395L319.416,212.245L319.426,212.154L319.433,212.096L319.448,211.947L319.462,211.799L319.473,211.651L319.484,211.504L319.492,211.358L319.499,211.212L319.504,211.067L319.507,210.923L319.508,210.779L319.508,210.636L319.506,210.494L319.502,210.353L319.496,210.212L319.492,210.125L319.489,210.072L319.48,209.933L319.47,209.795L319.458,209.657L319.444,209.521L319.428,209.385L319.41,209.25L319.391,209.116L319.369,208.984L319.346,208.852L319.32,208.721L319.293,208.591L319.264,208.462L319.233,208.334L319.201,208.207L319.166,208.082L319.129,207.957L319.091,207.833L319.05,207.711L319.008,207.59L318.963,207.47L318.917,207.351L318.869,207.233L318.819,207.117L318.767,207.001L318.715,206.891L318.713,206.887L318.657,206.774L318.6,206.662L318.54,206.552L318.479,206.442L318.416,206.334L318.351,206.227L318.284,206.122L318.215,206.017L318.144,205.914L318.071,205.812L318.036,205.764L317.992,205.704L318.186,204.331L319.559,204.526Z" style="fill:rgb(77,123,104);"/>
            </g>
            <g transform="matrix(0.698681,0,0,1.0116,-145.368,12.6977)">
                <path d="M295.641,214.683L295.712,214.691L295.858,214.709L296.004,214.728L296.151,214.747L296.299,214.768L296.447,214.79L296.595,214.812L296.743,214.835L296.892,214.859L297.042,214.884L297.191,214.91L297.341,214.937L297.491,214.965L297.642,214.993L297.793,215.022L297.944,215.052L298.096,215.082L298.247,215.113L298.399,215.145L298.551,215.178L298.704,215.212L298.857,215.246L299.009,215.281L299.162,215.317L299.316,215.353L299.469,215.391L299.622,215.429L299.776,215.468L299.93,215.508L300.083,215.548L300.237,215.59L300.391,215.632L300.409,215.637L300.545,215.676L300.699,215.721L300.852,215.767L301.006,215.813L301.16,215.861L301.313,215.91L301.467,215.959L301.62,216.009L301.773,216.061L301.927,216.113L302.08,216.166L302.233,216.22L302.386,216.276L302.538,216.333L302.69,216.391L302.841,216.45L302.993,216.51L303.144,216.572L303.295,216.634L303.446,216.697L303.596,216.762L303.746,216.827L303.896,216.894L304.045,216.962L304.194,217.03L304.305,217.082L304.342,217.101L304.489,217.174L304.636,217.248L304.781,217.323L304.927,217.4L305.072,217.478L305.216,217.556L305.36,217.637L305.503,217.718L305.646,217.8L305.788,217.884L305.929,217.969L305.985,218.003L306.068,218.058L306.205,218.15L306.341,218.243L306.476,218.337L306.611,218.432L306.744,218.529L306.877,218.627L307.009,218.727L307.139,218.827L307.251,218.915L307.268,218.93L307.391,219.041L307.513,219.152L307.633,219.265L307.753,219.379L307.871,219.494L307.988,219.61L308.103,219.728L308.203,219.831L308.217,219.847L308.325,219.972L308.431,220.099L308.536,220.226L308.639,220.354L308.742,220.483L308.842,220.614L308.941,220.745L309.017,220.848L309.038,220.878L309.13,221.015L309.221,221.153L309.31,221.291L309.397,221.43L309.483,221.571L309.567,221.712L309.65,221.853L309.68,221.906L309.729,221.997L309.806,222.143L309.881,222.289L309.954,222.436L310.026,222.583L310.096,222.732L310.165,222.881L310.192,222.942L310.23,223.031L310.293,223.183L310.354,223.336L310.414,223.488L310.473,223.642L310.53,223.796L310.585,223.951L310.639,224.106L310.692,224.262L310.744,224.418L310.794,224.575L310.843,224.733L310.89,224.892L310.936,225.051L310.981,225.211L311.024,225.372L311.066,225.534L311.106,225.697L311.132,225.808L311.142,225.854L310.426,227.041L309.239,226.324L309.228,226.284L309.201,226.183L309.163,226.05L309.123,225.919L309.08,225.789L309.035,225.66L308.987,225.532L308.935,225.407L308.935,225.405L308.883,225.282L308.827,225.159L308.769,225.038L308.708,224.918L308.645,224.799L308.58,224.683L308.512,224.568L308.442,224.454L308.37,224.342L308.295,224.232L308.219,224.123L308.173,224.06L308.142,224.016L308.065,223.909L307.985,223.803L307.905,223.699L307.822,223.596L307.738,223.495L307.651,223.395L307.596,223.332L307.565,223.296L307.478,223.197L307.391,223.099L307.301,223.002L307.211,222.907L307.118,222.813L307.025,222.721L306.93,222.63L306.908,222.609L306.836,222.537L306.743,222.445L306.648,222.353L306.551,222.263L306.454,222.174L306.355,222.086L306.255,221.999L306.154,221.913L306.141,221.902L306.056,221.824L305.958,221.735L305.858,221.646L305.757,221.559L305.655,221.473L305.552,221.387L305.448,221.302L305.343,221.219L305.328,221.207L305.241,221.13L305.139,221.04L305.036,220.952L304.932,220.865L304.827,220.778L304.72,220.692L304.613,220.607L304.504,220.523L304.394,220.439L304.327,220.389L304.284,220.355L304.175,220.269L304.065,220.184L303.954,220.099L303.841,220.016L303.728,219.933L303.613,219.852L303.497,219.771L303.381,219.691L303.263,219.612L303.145,219.534L303.025,219.457L302.995,219.437L302.906,219.379L302.786,219.301L302.665,219.225L302.543,219.149L302.42,219.075L302.296,219.001L302.172,218.929L302.047,218.857L301.921,218.787L301.794,218.717L301.667,218.649L301.538,218.581L301.41,218.515L301.409,218.515L301.281,218.449L301.151,218.383L301.021,218.319L300.89,218.255L300.758,218.193L300.626,218.132L300.494,218.072L300.361,218.013L300.227,217.955L300.093,217.899L299.959,217.843L299.824,217.788L299.705,217.741L299.689,217.735L299.554,217.682L299.419,217.63L299.283,217.579L299.147,217.53L299.01,217.481L298.874,217.434L298.737,217.388L298.6,217.343L298.463,217.299L298.326,217.257L298.189,217.216L298.051,217.176L297.914,217.137L297.776,217.099L297.639,217.063L297.502,217.028L297.364,216.994L297.227,216.961L297.09,216.929L296.953,216.899L296.816,216.87L296.679,216.842L296.656,216.838L296.543,216.815L296.407,216.789L296.271,216.765L296.136,216.741L296.001,216.718L295.866,216.697L295.732,216.676L295.598,216.657L295.465,216.638L295.397,216.63L295.328,216.62L294.475,215.527L295.569,214.674L295.641,214.683Z" style="fill:rgb(77,123,104);"/>
            </g>
            <g transform="matrix(0.610148,0.126813,-0.0638279,0.643785,-104.132,47.9407)">
                <path d="M322.917,226.374C323.84,224.168 324.536,222.05 325.953,220.147C326.67,219.183 327.531,218.292 328.454,217.524C330.559,215.773 335.677,213.977 334.494,219.16C334.046,221.119 332.509,222.677 330.94,223.818C328.711,225.44 326.173,226.306 323.46,226.623" style="fill:rgb(77,123,104);"/>
            </g>
            <g transform="matrix(0.680219,-0.231016,0.159556,0.984868,-172.856,91.9841)">
                <path d="M315.884,198.71C313.917,198.798 312.379,200.019 314.997,202.583C317.104,204.647 322.285,205.239 324.754,203.673C327.146,202.156 326.121,198.908 319.827,198.252C318.78,198.143 316.69,198.001 315.884,198.71Z" style="fill:rgb(255,239,0);"/>
            </g>
            <g transform="matrix(0.680219,-0.231016,0.159556,0.984868,-172.856,91.9841)">
                <path d="M315.905,199.206C313.261,198.482 305.271,195.501 309.305,199.867C310.996,201.697 313.539,202.889 315.106,203.38C317.163,203.161 317.001,202.12 315.905,199.206Z" style="fill:rgb(255,0,153);"/>
            </g>
            <g transform="matrix(0.680219,-0.231016,0.159556,0.984868,-172.856,91.9841)">
                <path d="M314.72,199.683C313.412,196.143 318.231,194.975 320.685,196.047C323.459,197.26 324.282,199.272 323.092,199.671C322.418,197.886 317.135,198.791 314.72,199.683Z" style="fill:rgb(255,0,153);"/>
            </g>
            <g transform="matrix(0.680219,-0.231016,0.159556,0.984868,-172.856,91.9841)">
                <path d="M323.513,199.54C329.718,197.732 337.705,203.681 324.492,204.004C326.316,201.829 323.513,199.54 323.513,199.54Z" style="fill:rgb(255,0,153);"/>
            </g>
            <g transform="matrix(0.680219,-0.231016,0.159556,0.984868,-173.416,89.2223)">
                <path d="M313.965,205.217C313.965,205.217 317.01,208.728 319.894,208.011C321.144,207.7 325.858,207.615 324.251,206.066C322.493,204.372 318.124,203.667 316.079,204.281C315.892,204.337 313.937,204.836 313.965,205.217Z" style="fill:rgb(255,0,153);"/>
            </g>
            <g transform="matrix(0.698681,0,0,1.0116,-145.478,9.82358)">
                <path d="M313.155,219.82L313.122,219.757L313.136,219.778L313.102,219.717L313.067,219.656L313.083,219.678L313.046,219.619L313.034,219.601L313.008,219.562L313.026,219.583L312.987,219.527L312.947,219.472L312.966,219.493L312.925,219.439L312.883,219.387L312.903,219.408L312.859,219.357L312.814,219.308L312.836,219.328L312.789,219.28L312.741,219.234L312.764,219.252L312.714,219.208L312.663,219.164L312.688,219.182L312.635,219.14L312.58,219.1L312.606,219.115L312.549,219.077L312.491,219.04L312.518,219.054L312.458,219.018L312.396,218.984L312.423,218.997L312.359,218.964L312.294,218.934L312.321,218.944L312.253,218.916L312.184,218.888L312.211,218.897L312.139,218.872L312.066,218.848L312.092,218.856L312.016,218.834L311.982,218.825L311.938,218.814L311.964,218.819L311.884,218.801L311.802,218.785L311.827,218.789L311.742,218.775L311.668,218.765L311.59,218.756L311.511,218.749L311.428,218.743L311.371,218.741L311.332,218.74L310.375,217.736L311.38,216.779L311.498,216.781L311.626,216.785L311.752,216.793L311.877,216.803L312.001,216.816L312.123,216.832L312.244,216.851L312.363,216.872L312.481,216.896L312.597,216.923L312.712,216.953L312.825,216.986L312.937,217.021L313.047,217.059L313.155,217.1L313.262,217.144L313.367,217.19L313.471,217.238L313.572,217.29L313.672,217.343L313.77,217.4L313.866,217.458L313.96,217.519L314.053,217.583L314.143,217.648L314.231,217.716L314.317,217.786L314.401,217.857L314.483,217.931L314.564,218.006L314.642,218.084L314.718,218.162L314.769,218.218L314.792,218.243L314.863,218.325L314.933,218.409L315.001,218.494L315.067,218.581L315.131,218.668L315.193,218.757L315.254,218.847L315.313,218.938L315.37,219.03L315.426,219.123L315.48,219.217L315.533,219.311L315.585,219.407L315.631,219.495L315.634,219.503L315.682,219.6L315.728,219.698L315.773,219.797L315.817,219.897L315.86,219.997L315.901,220.097L315.941,220.198L315.98,220.3L316.019,220.402L316.056,220.505L316.092,220.608L316.128,220.712L316.161,220.811L316.162,220.816L316.193,220.921L316.224,221.026L316.253,221.131L316.282,221.237L316.31,221.343L316.337,221.449L316.364,221.556L316.39,221.665L316.439,221.876L316.464,221.993L316.481,222.091L316.515,222.307L316.546,222.522L316.575,222.738L316.599,222.929L316.599,222.952L316.604,223.168L316.608,223.381L316.609,223.594L316.61,223.7L316.602,223.805L316.585,224.015L316.569,224.223L316.55,224.441L316.524,224.63L316.472,225.028L316.459,225.134L316.415,225.414L316.367,225.767L316.364,225.788L316.337,225.968L316.315,226.145L316.297,226.318L316.283,226.486L316.275,226.649L316.272,226.784L316.271,226.807L316.271,226.959L316.276,227.105L316.285,227.244L316.298,227.386L315.442,228.476L314.351,227.62L314.347,227.592L314.328,227.464L314.305,227.295L314.282,227.124L314.257,226.951L314.253,226.925L314.231,226.775L314.203,226.596L314.173,226.415L314.139,226.232L314.103,226.047L314.064,225.859L314.06,225.838L313.992,225.48L313.934,225.202L313.915,225.096L313.841,224.708L313.804,224.528L313.772,224.319L313.741,224.126L313.707,223.933L313.69,223.837L313.681,223.74L313.661,223.549L313.64,223.358L313.618,223.17L313.615,223.149L313.611,222.982L313.605,222.795L313.597,222.611L313.587,222.429L313.581,222.347L313.58,222.249L313.575,222.068L313.572,221.983L313.568,221.896L313.564,221.81L313.558,221.724L313.552,221.639L313.545,221.556L313.537,221.473L313.529,221.391L313.528,221.388L313.522,221.31L313.514,221.229L313.505,221.15L313.496,221.072L313.485,220.995L313.474,220.918L313.461,220.844L313.448,220.77L313.434,220.697L313.419,220.626L313.403,220.556L313.387,220.488L313.369,220.42L313.368,220.415L313.352,220.354L313.333,220.289L313.314,220.225L313.294,220.163L313.273,220.102L313.251,220.043L313.228,219.985L313.205,219.928L313.174,219.863L313.187,219.884L313.155,219.82Z" style="fill:rgb(77,123,104);"/>
            </g>
            <g transform="matrix(0.698681,0,0,1.0116,-155.886,22.762)">
                <path d="M302.025,213.137L302.149,213.172L302.296,213.217L302.335,213.229L302.443,213.261L302.588,213.305L302.734,213.346L302.88,213.387L303.026,213.426L303.143,213.457L303.173,213.465L303.318,213.505L303.463,213.546L303.608,213.586L303.629,213.592L303.752,213.629L303.895,213.673L304.039,213.717L304.107,213.737L304.18,213.764L304.318,213.815L304.456,213.867L304.524,213.892L304.588,213.926L304.713,213.994L304.826,214.056L304.835,214.064L304.936,214.162L305.029,214.252L305.035,214.26L305.116,214.38L305.189,214.485L305.197,214.5L305.316,214.726L305.331,214.761L305.426,214.953L305.46,215.026L305.627,215.297L305.779,215.459L305.786,215.465L305.936,216.844L304.557,216.994L304.549,216.988L304.36,216.875L304.06,216.771L303.984,216.757L303.782,216.712L303.747,216.706L303.511,216.653L303.497,216.65L303.389,216.616L303.267,216.579L303.259,216.577L303.163,216.524L303.06,216.469L303.051,216.465L302.978,216.39L302.897,216.31L302.856,216.271L302.822,216.225L302.752,216.134L302.681,216.045L302.643,216L302.61,215.956L302.54,215.865L302.469,215.778L302.405,215.706L302.395,215.694L302.32,215.61L302.243,215.53L302.163,215.453L302.146,215.439L302.08,215.379L301.995,215.309L301.906,215.244L301.814,215.184L301.718,215.131L301.645,215.096L301.618,215.083L301.516,215.04L301.414,215.001L301.401,214.997L300.773,213.76L302.009,213.132L302.025,213.137Z" style="fill:rgb(77,123,104);"/>
            </g>
            <g transform="matrix(0.698681,0,0,1.0116,-145.478,9.82358)">
                <path d="M336.512,221.731L336.342,223.107L336.319,223.126L336.247,223.185L336.156,223.26L336.066,223.337L335.976,223.415L335.914,223.47L335.888,223.494L335.8,223.574L335.714,223.656L335.628,223.74L335.544,223.825L335.462,223.911L335.38,223.999L335.301,224.087L335.142,224.271L335.001,224.444L334.989,224.459L334.838,224.648L334.69,224.842L334.546,225.04L334.514,225.085L334.402,225.239L334.26,225.441L334.121,225.646L334.054,225.747L333.98,225.851L333.838,226.055L333.697,226.262L333.635,226.354L333.55,226.463L333.268,226.823L333.235,226.855L332.905,227.174L332.509,227.482L332.457,227.517L332.107,227.76L332.023,227.814L331.803,227.962L331.727,228.015L331.582,228.109L331.367,228.261L331.161,228.423L331.117,228.46L330.964,228.593L330.791,228.755L330.778,228.768L329.391,228.793L329.366,227.407L329.378,227.393L329.53,227.219L329.649,227.067L329.681,227.023L329.822,226.816L329.951,226.598L330.029,226.451L330.073,226.373L330.195,226.148L330.24,226.06L330.442,225.695L330.471,225.639L330.737,225.214L331.021,224.852L331.049,224.816L331.387,224.494L331.491,224.394L331.581,224.321L331.783,224.155L331.985,223.988L332.089,223.903L332.191,223.825L332.4,223.663L332.608,223.501L332.77,223.374L332.817,223.339L333.028,223.178L333.238,223.017L333.449,222.856L333.465,222.843L333.661,222.696L333.871,222.537L333.978,222.455L334.083,222.374L334.188,222.293L334.293,222.212L334.398,222.13L334.503,222.048L334.608,221.966L334.64,221.942L334.713,221.884L334.819,221.803L334.925,221.721L335.031,221.64L335.111,221.58L335.135,221.562L336.512,221.731Z" style="fill:rgb(77,123,104);"/>
            </g>
        </g>
    </g>
</svg>
