<?xml version="1.0" encoding="UTF-8" standalone="no"?>
<!DOCTYPE svg PUBLIC "-//W3C//DTD SVG 1.1//EN" "http://www.w3.org/Graphics/SVG/1.1/DTD/svg11.dtd">
<svg width="100%" height="100%" viewBox="0 0 1000 525" version="1.1" xmlns="http://www.w3.org/2000/svg" xmlns:xlink="http://www.w3.org/1999/xlink" xml:space="preserve" xmlns:serif="http://www.serif.com/" style="fill-rule:evenodd;clip-rule:evenodd;stroke-linejoin:round;stroke-miterlimit:1.41421;">
    <g transform="matrix(1,0,0,1,-457.892,0)">
        <g id="Artboard1" transform="matrix(2.17141,0,0,1.13996,-532.475,452.231)">
            <rect x="456.094" y="-396.708" width="460.366" height="460.366" style="fill:rgb(255,36,64);"/>
            <clipPath id="_clip1">
                <rect x="456.094" y="-396.708" width="460.366" height="460.366"/>
            </clipPath>
            <g clip-path="url(#_clip1)">
                <g transform="matrix(0.836893,0,0,1.20211,19.4179,-428.056)">
                    <rect x="521.782" y="26.077" width="275.036" height="382.965" style="fill:rgb(0,179,255);"/>
                </g>
                <g transform="matrix(0.485659,0,0,0.925089,-19.1184,-351.219)">
                    <path d="M1212.28,267.607L1212.28,336.017C1212.28,338.88 1211.7,341.364 1210.72,343.496C1213.87,343.761 1217.06,343.927 1220.29,343.927C1239.63,343.927 1257.84,339.085 1273.79,330.564L1212.28,267.607ZM1183.29,336.018L1183.29,122.631C1138.64,137.988 1106.54,180.323 1106.54,230.185C1106.54,280.098 1138.7,322.469 1183.42,337.787C1183.37,337.199 1183.29,336.638 1183.29,336.018ZM1212.28,236.302L1275.54,184.348C1281.47,179.186 1287.07,175.636 1292.01,175.636C1299.59,175.636 1304.2,181.121 1304.2,188.221C1304.2,192.415 1302.55,196.289 1296.96,200.482L1231.06,251.466L1296.43,314.667C1319.51,293.849 1334.03,263.715 1334.03,230.186C1334.03,167.368 1283.1,116.439 1220.29,116.439C1217.59,116.439 1214.93,116.57 1212.28,116.755L1212.28,236.302Z" style="fill:white;fill-rule:nonzero;"/>
                </g>
                <g transform="matrix(1.15004,0,0,2.11935,1555.62,-1363.05)">
                    <g transform="matrix(0.9424,0,0,0.974089,-773.737,-502.559)">
                        <path d="M163.23,1140.41C153.902,1152.44 139.312,1160.18 122.927,1160.18C106.542,1160.18 91.952,1152.44 82.624,1140.41L163.23,1140.41Z" style="fill:rgb(255,224,0);"/>
                    </g>
                    <g transform="matrix(0.9424,0,0,0.974089,-773.737,-502.559)">
                        <path d="M173.903,1109.15L173.904,1109.21C173.904,1116 172.573,1122.48 170.158,1128.41L137.099,1128.41L117.841,1109.15L173.903,1109.15Z" style="fill:rgb(81,205,210);"/>
                    </g>
                    <g transform="matrix(0.9424,0,0,0.974089,-773.737,-502.559)">
                        <path d="M71.951,1109.15L100.87,1109.15L120.129,1128.41L75.696,1128.41C73.281,1122.48 71.95,1116 71.95,1109.21L71.951,1109.15Z" style="fill:rgb(81,205,210);"/>
                    </g>
                    <g transform="matrix(0.9424,0,0,0.974089,-773.737,-502.559)">
                        <path d="M149.367,1065.62C160.764,1072.56 169.233,1083.84 172.467,1097.15L117.841,1097.15L149.367,1065.62Z" style="fill:white;"/>
                    </g>
                    <g transform="matrix(0.9424,0,0,0.974089,-773.737,-502.559)">
                        <path d="M73.387,1097.15C78.809,1074.83 98.945,1058.23 122.927,1058.23C128.039,1058.23 132.976,1058.99 137.633,1060.39L100.87,1097.15L73.387,1097.15Z" style="fill:white;"/>
                    </g>
                </g>
                <g transform="matrix(0.414477,0,0,0.877224,295.888,-396.708)">
                    <text x="623.362px" y="79.882px" style="font-family:'PTF-NORDIC-Round', 'PTF NORDIC Rnd', sans-serif;font-size:38px;fill:white;">2<tspan x="645.449px 667.425px 684.986px " y="79.882px 79.882px 79.882px ">017</tspan></text>
                </g>
                <g transform="matrix(0.414477,0,0,0.877224,523.729,-396.708)">
                    <text x="623.362px" y="79.882px" style="font-family:'PTF-NORDIC-Round', 'PTF NORDIC Rnd', sans-serif;font-size:38px;fill:white;">2<tspan x="645.449px 667.425px 684.986px " y="79.882px 79.882px 79.882px ">018</tspan></text>
                </g>
            </g>
        </g>
    </g>
</svg>
