<?xml version="1.0" encoding="UTF-8" standalone="no"?>
<!DOCTYPE svg PUBLIC "-//W3C//DTD SVG 1.1//EN" "http://www.w3.org/Graphics/SVG/1.1/DTD/svg11.dtd">
<svg width="100%" height="100%" viewBox="0 0 2261 2261" version="1.1" xmlns="http://www.w3.org/2000/svg" xmlns:xlink="http://www.w3.org/1999/xlink" xml:space="preserve" xmlns:serif="http://www.serif.com/" style="fill-rule:evenodd;clip-rule:evenodd;stroke-linejoin:round;stroke-miterlimit:1.41421;">
    <g transform="matrix(1,0,0,1,0,-1094)">
        <g id="Site-thumb" serif:id="Site thumb" transform="matrix(1,0,0,1,2886.9,-0.453912)">
            <rect x="-2886.9" y="1094.45" width="2260.55" height="2260.55" style="fill:rgb(1,182,237);"/>
            <g transform="matrix(17.0846,0,0,17.0846,-33063.3,-22321.7)">
                <path d="M1799.58,1453.81L1794.89,1453.81L1793.94,1457.58L1790.44,1457.58L1795.44,1439.8L1799.06,1439.8L1804.05,1457.58L1800.54,1457.58L1799.58,1453.81ZM1795.6,1451.01L1798.87,1451.01L1797.27,1444.72L1797.2,1444.72L1795.6,1451.01Z" style="fill:white;fill-rule:nonzero;"/>
                <path d="M1808.83,1452.6L1808.99,1453.6L1809.06,1453.6L1809.24,1452.6L1810.76,1444.37L1814.39,1444.37L1810.73,1457.58L1807.33,1457.58L1803.66,1444.37L1807.28,1444.37L1808.83,1452.6Z" style="fill:white;fill-rule:nonzero;"/>
                <path d="M1820.36,1439.8L1823.54,1452.85L1823.62,1452.85L1826.84,1439.8L1831.37,1439.8L1831.37,1457.58L1827.91,1457.58L1827.91,1452.41L1828.2,1445.5L1828.13,1445.49L1824.74,1457.58L1822.43,1457.58L1819.07,1445.59L1819,1445.6L1819.31,1452.41L1819.31,1457.58L1815.85,1457.58L1815.85,1439.8L1820.36,1439.8Z" style="fill:white;fill-rule:nonzero;"/>
                <path d="M1840.2,1457.58C1840.11,1457.36 1840.02,1457.12 1839.94,1456.86C1839.87,1456.6 1839.81,1456.33 1839.77,1456.06C1839.44,1456.6 1839.04,1457.03 1838.58,1457.35C1838.11,1457.67 1837.56,1457.83 1836.94,1457.83C1835.86,1457.83 1834.98,1457.48 1834.33,1456.76C1833.67,1456.04 1833.34,1455.09 1833.34,1453.89C1833.34,1452.6 1833.76,1451.59 1834.6,1450.88C1835.43,1450.16 1836.67,1449.8 1838.31,1449.8L1839.62,1449.8L1839.62,1448.73C1839.62,1448.08 1839.5,1447.59 1839.27,1447.24C1839.04,1446.9 1838.69,1446.73 1838.23,1446.73C1837.84,1446.73 1837.54,1446.86 1837.35,1447.14C1837.15,1447.42 1837.06,1447.82 1837.06,1448.35L1833.7,1448.34L1833.66,1448.26C1833.62,1447.12 1834.05,1446.14 1834.94,1445.33C1835.83,1444.53 1837,1444.12 1838.46,1444.12C1839.83,1444.12 1840.95,1444.53 1841.81,1445.33C1842.67,1446.13 1843.1,1447.27 1843.1,1448.75L1843.1,1454.1C1843.1,1454.75 1843.14,1455.36 1843.23,1455.92C1843.32,1456.48 1843.46,1457.03 1843.65,1457.58L1840.2,1457.58ZM1837.95,1455.22C1838.3,1455.22 1838.62,1455.13 1838.92,1454.94C1839.21,1454.75 1839.45,1454.51 1839.62,1454.22L1839.62,1451.79L1838.31,1451.79C1837.78,1451.79 1837.4,1451.97 1837.16,1452.34C1836.93,1452.71 1836.81,1453.17 1836.81,1453.73C1836.81,1454.17 1836.91,1454.53 1837.12,1454.81C1837.32,1455.08 1837.6,1455.22 1837.95,1455.22Z" style="fill:white;fill-rule:nonzero;"/>
                <path d="M1849.42,1441.09L1849.42,1444.37L1851.25,1444.37L1851.25,1446.88L1849.42,1446.88L1849.42,1453.51C1849.42,1454.05 1849.5,1454.43 1849.65,1454.67C1849.81,1454.9 1850.02,1455.01 1850.29,1455.01C1850.5,1455.01 1850.68,1455 1850.83,1454.98C1850.97,1454.96 1851.13,1454.93 1851.31,1454.88L1851.58,1457.52C1851.22,1457.63 1850.87,1457.71 1850.53,1457.76C1850.2,1457.81 1849.82,1457.83 1849.4,1457.83C1848.28,1457.83 1847.43,1457.49 1846.84,1456.8C1846.25,1456.11 1845.95,1455.02 1845.95,1453.52L1845.95,1446.88L1844.39,1446.88L1844.39,1444.37L1845.95,1444.37L1845.95,1441.09L1849.42,1441.09Z" style="fill:white;fill-rule:nonzero;"/>
                <path d="M1856.57,1445.94C1856.92,1445.37 1857.33,1444.92 1857.81,1444.6C1858.29,1444.28 1858.82,1444.12 1859.39,1444.12C1860.57,1444.12 1861.49,1444.59 1862.15,1445.52C1862.82,1446.45 1863.15,1447.89 1863.15,1449.84L1863.15,1457.58L1859.67,1457.58L1859.67,1449.81C1859.67,1448.72 1859.55,1447.97 1859.29,1447.54C1859.03,1447.12 1858.63,1446.91 1858.09,1446.91C1857.76,1446.91 1857.47,1446.98 1857.22,1447.12C1856.97,1447.26 1856.75,1447.46 1856.57,1447.71L1856.57,1457.58L1853.11,1457.58L1853.11,1438.53L1856.57,1438.53L1856.57,1445.94Z" style="fill:white;fill-rule:nonzero;"/>
                <path d="M1871.1,1454.12C1871.1,1453.75 1870.95,1453.42 1870.66,1453.15C1870.37,1452.88 1869.81,1452.54 1868.98,1452.14C1867.65,1451.65 1866.65,1451.09 1865.99,1450.46C1865.33,1449.83 1865,1449.02 1865,1448.02C1865,1446.94 1865.42,1446.03 1866.27,1445.27C1867.12,1444.51 1868.25,1444.12 1869.65,1444.12C1871.11,1444.12 1872.28,1444.52 1873.15,1445.3C1874.02,1446.08 1874.44,1447.08 1874.41,1448.29L1874.37,1448.36L1871.03,1448.36C1871.03,1447.81 1870.91,1447.37 1870.68,1447.04C1870.46,1446.72 1870.11,1446.55 1869.64,1446.55C1869.26,1446.55 1868.94,1446.68 1868.68,1446.93C1868.42,1447.18 1868.29,1447.49 1868.29,1447.85C1868.29,1448.24 1868.42,1448.55 1868.68,1448.79C1868.94,1449.03 1869.51,1449.36 1870.38,1449.78C1871.76,1450.25 1872.79,1450.81 1873.46,1451.45C1874.12,1452.1 1874.46,1452.95 1874.46,1454C1874.46,1455.12 1874.01,1456.04 1873.12,1456.76C1872.22,1457.48 1871.04,1457.83 1869.59,1457.83C1868.07,1457.83 1866.86,1457.39 1865.97,1456.5C1865.09,1455.62 1864.66,1454.62 1864.7,1453.5L1864.73,1453.43L1867.9,1453.43C1867.92,1454.13 1868.08,1454.63 1868.39,1454.94C1868.7,1455.25 1869.13,1455.4 1869.67,1455.4C1870.14,1455.4 1870.49,1455.29 1870.73,1455.06C1870.98,1454.84 1871.1,1454.52 1871.1,1454.12Z" style="fill:white;fill-rule:nonzero;"/>
            </g>
            <g transform="matrix(1,0,0,1,-2886.9,0.453912)">
                <path d="M1405.66,2025.51L1405.66,2025.51L1375.25,1998.6C1373.61,1996.67 1372.92,1996.27 1372.21,1993.75C1371.17,1990.09 1372.45,1985.77 1375.41,1983.26C1377.4,1981.57 1378.2,1981.62 1380.63,1980.93C1381.6,1980.94 1382.56,1980.95 1383.52,1980.96C1386.28,1981.8 1386.3,1981.81 1388.7,1983.39L1402.11,1995.25L1402.11,1995.26L1531.52,2109.77C1532.96,2111.14 1533.51,2111.93 1533.92,2112.86C1534.2,2113.41 1534.44,2114.07 1534.66,2115C1535.18,2117.18 1534.84,2119.52 1533.87,2121.58C1532.7,2124.1 1530.57,2126.2 1527.82,2127.06L1527.77,2127.07L1527.71,2127.09L1527.67,2127.1L1527.67,2127.1L1527.66,2127.1L1527.59,2127.13L1527.52,2127.15L1527.52,2127.15L1527.52,2127.15C1526.2,2127.52 1525.35,2127.59 1524.51,2127.51C1523.96,2127.5 1523.41,2127.44 1522.87,2127.34C1522.24,2127.22 1522.09,2127.15 1521.49,2126.97L1521.49,2126.97L1506,2121.64L1506,2121.64L1465.68,2107.77L1465.68,2107.77L1427.29,2094.56C1425.03,2093.4 1424.24,2093.3 1422.62,2091.25C1419.05,2086.72 1420.41,2079.13 1425.5,2076.18C1427.76,2074.87 1428.53,2075.07 1431.05,2074.82C1432,2075 1432.94,2075.18 1433.89,2075.36L1434.87,2075.7L1434.87,2075.7L1479.88,2091.18L1467.99,2080.67L1467.99,2080.67L1437.59,2053.76L1437.58,2053.76L1405.66,2025.51ZM775.518,2028.81L788.625,2001.04C790.259,1998.57 792.292,1996.38 795.068,1995.6C796.912,1995.09 798.873,1995.37 800.787,1995.67C803.443,1996.93 805.947,1998.68 807.091,2001.28C808.256,2003.91 807.855,2006.88 806.985,2009.71L789.653,2046.43L789.653,2046.43L771.455,2084.98L771.454,2084.98L765.788,2096.99L818.55,2073.52L818.551,2073.52L843.469,2062.44L846.249,2061.65C847.212,2061.66 848.175,2061.67 849.138,2061.68C851.561,2062.42 852.359,2062.38 854.317,2064.11C857.982,2067.35 858.735,2073.24 856.078,2077.29C854.644,2079.47 853.863,2079.64 851.719,2080.99L814.619,2097.49L814.618,2097.49L775.664,2114.82L775.663,2114.82L749.068,2126.64L749.067,2126.64C746.896,2127.54 746.066,2127.56 744.601,2127.51C743.471,2127.48 742.375,2127.22 741.351,2126.78L740.635,2126.56L738.815,2125.37L737.188,2123.92L736.049,2122.1L735.175,2120.13L734.887,2117.97L734.888,2117.88C734.835,2117.26 734.841,2116.63 734.912,2116.01L734.914,2115.8L734.958,2115.66C735.064,2114.95 735.253,2114.25 735.533,2113.56C735.605,2113.39 735.686,2113.21 735.763,2113.04L775.518,2028.81L775.518,2028.81ZM1355.18,2048.28L1393.58,2061.49L1396.15,2062.81C1397.98,2064.55 1398.71,2064.88 1399.69,2067.3C1401.8,2072.54 1398.53,2079.52 1392.68,2080.95C1390.15,2081.57 1389.46,2081.16 1386.97,2080.69L1348.58,2067.48C1346.32,2066.32 1345.53,2066.22 1343.91,2064.17C1340.34,2059.64 1341.7,2052.05 1346.79,2049.1C1349.05,2047.79 1349.82,2047.99 1352.34,2047.74C1353.29,2047.92 1354.24,2048.1 1355.18,2048.28ZM925.193,2027.86C927.616,2028.6 928.415,2028.56 930.372,2030.29C933.929,2033.43 934.817,2039.38 932.134,2043.46C930.699,2045.65 929.918,2045.82 927.774,2047.16L890.674,2063.67C888.237,2064.36 887.587,2064.82 885.005,2064.42C879.345,2063.55 875.096,2057.16 876.838,2051.43C877.677,2048.68 879.915,2046.69 882.424,2045.12L919.524,2028.62L922.304,2027.83C923.267,2027.84 924.23,2027.85 925.193,2027.86ZM1276.47,2021.2L1314.87,2034.41L1317.44,2035.73C1319.27,2037.47 1320.01,2037.8 1320.98,2040.22C1323.09,2045.46 1319.82,2052.44 1313.98,2053.87C1311.44,2054.49 1310.75,2054.08 1308.26,2053.61L1269.87,2040.4C1267.61,2039.24 1266.82,2039.14 1265.2,2037.09C1261.68,2032.63 1262.87,2025.04 1268.08,2022.02C1270.34,2020.71 1271.11,2020.9 1273.63,2020.66C1274.58,2020.84 1275.53,2021.02 1276.47,2021.2ZM1001.25,1994.03C1003.67,1994.77 1004.47,1994.73 1006.43,1996.46C1009.98,1999.6 1010.87,2005.55 1008.19,2009.64C1006.75,2011.82 1005.97,2011.99 1003.83,2013.34L966.729,2029.84C961.134,2031.42 954.506,2029.23 952.836,2023.33C952.039,2020.51 952.546,2017.39 954.119,2014.99C955.554,2012.81 956.335,2012.64 958.479,2011.29L995.579,1994.79L998.359,1994C999.322,1994.01 1000.28,1994.02 1001.25,1994.03ZM1197.76,1994.12L1236.16,2007.33L1238.73,2008.65C1240.56,2010.39 1241.3,2010.72 1242.27,2013.14C1244.41,2018.45 1241.08,2025.37 1235.27,2026.79C1232.73,2027.41 1232.04,2027 1229.55,2026.53L1191.16,2013.32C1188.9,2012.16 1188.11,2012.06 1186.49,2010.01C1182.97,2005.55 1184.16,1997.96 1189.37,1994.94C1191.63,1993.63 1192.4,1993.82 1194.92,1993.58C1195.87,1993.76 1196.82,1993.94 1197.76,1994.12ZM1119.05,1967.04L1157.45,1980.25L1160.02,1981.57C1161.85,1983.31 1162.59,1983.63 1163.56,1986.06C1165.74,1991.47 1162.33,1998.3 1156.56,1999.71C1154.02,2000.33 1153.33,1999.92 1150.84,1999.45L1112.45,1986.24C1110.19,1985.08 1109.4,1984.98 1107.78,1982.93C1104.23,1978.43 1105.48,1970.86 1110.66,1967.86C1112.92,1966.55 1113.69,1966.74 1116.21,1966.5C1117.16,1966.68 1118.11,1966.86 1119.05,1967.04ZM1077.3,1960.21C1079.73,1960.94 1080.53,1960.9 1082.48,1962.63C1086.06,1965.8 1086.94,1971.71 1084.24,1975.81C1082.81,1978 1082.03,1978.17 1079.88,1979.51L1042.79,1996.02C1040.35,1996.7 1039.7,1997.17 1037.12,1996.77C1031.35,1995.88 1027.22,1989.47 1028.95,1983.78C1029.79,1981.03 1032.03,1979.04 1034.53,1977.46L1071.63,1960.96L1074.41,1960.18C1075.38,1960.19 1076.34,1960.2 1077.3,1960.21ZM836.318,1920.4C840.751,1922.49 844.128,1926.79 843.364,1931.67C843.215,1932.62 842.798,1933.52 842.515,1934.44L825.183,1971.15C821.978,1976.01 815.527,1978.67 810.408,1975.29C807.963,1973.68 806.311,1970.98 805.938,1968.14C805.599,1965.55 806.08,1964.91 806.824,1962.49L824.156,1925.77C825.789,1923.3 827.822,1921.11 830.599,1920.33C832.442,1919.81 834.403,1920.1 836.318,1920.4ZM1321.19,1925.8C1323.94,1926.64 1323.96,1926.65 1326.37,1928.23L1356.77,1955.14C1358.41,1957.07 1359.11,1957.47 1359.82,1959.99C1361.36,1965.45 1357.35,1972.01 1351.39,1972.81C1348.53,1973.19 1345.8,1971.97 1343.32,1970.35L1312.91,1943.44C1311.27,1941.51 1310.58,1941.11 1309.87,1938.59C1308.83,1934.92 1310.11,1930.61 1313.07,1928.1C1315.06,1926.4 1315.86,1926.46 1318.3,1925.77C1319.26,1925.78 1320.22,1925.79 1321.19,1925.8ZM1258.85,1870.64C1261.6,1871.48 1261.62,1871.49 1264.03,1873.07L1294.44,1899.98C1297.61,1903.72 1298.9,1909.03 1296.19,1913.16C1294.04,1916.43 1289.94,1918.2 1286.16,1917.61C1283.58,1917.22 1283.1,1916.58 1280.98,1915.18L1250.58,1888.28C1248.94,1886.35 1248.24,1885.95 1247.53,1883.43C1246.49,1879.74 1247.76,1875.46 1250.73,1872.93C1252.73,1871.24 1253.52,1871.3 1255.96,1870.61C1256.92,1870.62 1257.89,1870.63 1258.85,1870.64ZM871.848,1845.13C873.601,1845.95 875.385,1846.82 876.621,1848.28C878.512,1850.52 879.338,1853.57 878.894,1856.4C878.745,1857.35 878.328,1858.24 878.045,1859.16L860.714,1895.88C859.318,1897.99 859.129,1898.77 856.914,1900.16C852.058,1903.19 844.664,1901.12 842.248,1895.65C841.083,1893.01 841.483,1890.05 842.354,1887.22L859.686,1850.5C861.319,1848.02 863.353,1845.83 866.129,1845.05C867.973,1844.54 869.934,1844.83 871.848,1845.13ZM1196.51,1815.48C1199.27,1816.32 1199.29,1816.33 1201.69,1817.91L1232.1,1844.82C1233.74,1846.75 1234.43,1847.15 1235.14,1849.66C1236.7,1855.17 1232.64,1861.69 1226.71,1862.48C1223.86,1862.86 1221.12,1861.65 1218.65,1860.02L1188.24,1833.12C1186.6,1831.18 1185.91,1830.79 1185.2,1828.27C1184.16,1824.6 1185.44,1820.29 1188.4,1817.77C1190.39,1816.08 1191.19,1816.14 1193.62,1815.45C1194.59,1815.46 1195.55,1815.47 1196.51,1815.48ZM907.378,1769.85C910.034,1771.11 912.538,1772.86 913.682,1775.45C914.847,1778.09 914.446,1781.06 913.576,1783.89L896.244,1820.61C894.848,1822.72 894.66,1823.5 892.444,1824.88C887.588,1827.92 880.194,1825.85 877.778,1820.37C876.614,1817.74 877.014,1814.77 877.884,1811.94L895.216,1775.22C896.85,1772.75 898.883,1770.56 901.659,1769.78C903.503,1769.26 905.464,1769.55 907.378,1769.85ZM1134.18,1760.32C1136.93,1761.16 1136.95,1761.17 1139.36,1762.75L1169.76,1789.66C1174.07,1794.74 1174.09,1803.46 1167.16,1806.54C1165.38,1807.33 1163.41,1807.59 1161.49,1807.29C1158.9,1806.89 1158.43,1806.25 1156.31,1804.86L1125.9,1777.95C1124.26,1776.02 1123.57,1775.63 1122.86,1773.11C1121.82,1769.44 1123.1,1765.12 1126.06,1762.61C1128.05,1760.92 1128.85,1760.98 1131.29,1760.29C1132.25,1760.3 1133.21,1760.31 1134.18,1760.32ZM974.237,1620.51C974.742,1620.48 975.257,1620.48 975.779,1620.51C976.782,1620.66 977.77,1620.91 978.698,1621.29L978.798,1621.32L978.874,1621.37C979.326,1621.56 979.763,1621.79 980.179,1622.06C980.766,1622.44 980.89,1622.56 981.429,1623L981.429,1623C981.811,1623.28 982.283,1623.7 982.751,1624.17L1014.68,1652.43L1014.68,1652.43L1045.09,1679.34L1045.09,1679.34L1077.02,1707.59L1077.02,1707.59L1107.43,1734.5C1109.07,1736.43 1109.76,1736.83 1110.47,1739.34C1112.01,1744.81 1108.01,1751.37 1102.04,1752.16C1099.18,1752.54 1096.45,1751.33 1093.97,1749.7L1082.71,1739.74L1082.71,1739.74L978.107,1647.17L967.305,1670.06L967.304,1670.06L949.106,1708.61L949.106,1708.61L931.774,1745.33C930.378,1747.45 930.19,1748.22 927.974,1749.61C923.157,1752.62 915.74,1750.61 913.308,1745.1C912.144,1742.46 912.544,1739.5 913.415,1736.67L917.97,1727.02L917.971,1727.02L965.522,1626.27C965.792,1625.75 966.1,1625.26 966.44,1624.8C966.691,1624.41 966.958,1624.03 967.275,1623.69C968.712,1622.14 970.593,1621.09 972.658,1620.66C973.181,1620.56 973.708,1620.51 974.237,1620.51Z" style="fill:white;fill-rule:nonzero;"/>
            </g>
            <g transform="matrix(2.63192,-7.48543e-17,0.866004,2.63192,-5498.73,-499.251)">
                <path d="M1022.31,940.922L1099.63,908.61L1159.1,932.973L1092.14,855.367C1081,868.642 1022.31,940.922 1022.31,940.922Z" style="fill:white;"/>
            </g>
        </g>
    </g>
</svg>
