<?xml version="1.0" encoding="UTF-8" standalone="no"?>
<!DOCTYPE svg PUBLIC "-//W3C//DTD SVG 1.1//EN" "http://www.w3.org/Graphics/SVG/1.1/DTD/svg11.dtd">
<svg width="100%" height="100%" viewBox="0 0 281 281" version="1.1" xmlns="http://www.w3.org/2000/svg" xmlns:xlink="http://www.w3.org/1999/xlink" xml:space="preserve" xmlns:serif="http://www.serif.com/" style="fill-rule:evenodd;clip-rule:evenodd;stroke-linejoin:round;stroke-miterlimit:1.41421;">
    <g id="Artboard1" transform="matrix(1,0,0,1.67835,0,0)">
        <rect x="0" y="0" width="280.486" height="167.128"/>
        <g transform="matrix(1,0,0,0.595822,2.06457,35.2326)">
            <g transform="matrix(1,0,0,1,60.344,69.6508)">
                <path d="M0,-5.292C-0.608,-1.584 -0.658,0.013 2.837,-1.194C6.333,-2.402 8.222,-7.663 11.191,-7.824C14.161,-7.984 17.376,-8.136 19.062,-6.744C20.749,-5.351 24.178,-4.429 20.651,-2.157C17.122,0.115 9.343,4.101 8.934,9.415C8.524,14.729 12.422,16.467 16.371,16.609C20.318,16.749 20.736,11.168 27.414,10.874C34.092,10.58 38.146,7.26 42.866,6.363C47.586,5.466 47.85,4.942 44.436,3.488C41.023,2.034 41.516,2.051 34.814,3.145C28.111,4.237 22.116,6.421 22.659,4.842C23.201,3.263 25.175,3.333 28.233,0.245C31.292,-2.843 31.013,-1.787 29.49,-8.503C27.967,-15.218 26.996,-15.786 26.535,-16.868C26.075,-17.951 23.483,-22.041 18.426,-18.224C13.37,-14.408 9.899,-13.998 7.662,-13.545C5.425,-13.092 0,-5.292 0,-5.292" style="fill:white;fill-rule:nonzero;"/>
            </g>
            <g transform="matrix(1,0,0,1,114.341,79.5013)">
                <path d="M0,-31.766C-1.954,-26.071 -3.871,-23.847 -4.066,-21.46C-4.263,-19.073 -4.421,-20.157 -4.479,-16.42C-4.538,-12.682 -4.437,-7.861 -2.558,-6.612C-0.678,-5.364 1.499,-1.681 1.016,-7.875C0.532,-14.071 0.314,-11.418 0.619,-15.132C0.924,-18.845 -0.941,-23.301 1.857,-21.162C4.655,-19.024 4.388,-18.783 4.438,-16.371C4.488,-13.96 1.298,-11.324 4.893,-12.852C8.488,-14.381 8.697,-10.886 8.488,-14.381C8.278,-17.876 7.924,-16.574 8.142,-19.226C8.359,-21.879 5.532,-26.693 9.407,-22.581C13.283,-18.468 13.834,-22.159 12.777,-15.309C11.72,-8.458 10.331,-9.66 11.524,-6.071C12.717,-2.482 12.21,0.678 15.219,-2.778C18.229,-6.233 18.105,-1.7 18.692,-8.862C19.278,-16.025 18.996,-12.576 18.715,-18.218C18.434,-23.859 18.947,-24.077 16.641,-26.168C14.334,-28.26 16.323,-28.338 11.405,-28.807C6.487,-29.276 6.979,-29.229 5.257,-29.393C3.536,-29.557 2.105,-30.228 1.7,-31.337C1.295,-32.444 0,-31.766 0,-31.766" style="fill:white;fill-rule:nonzero;"/>
            </g>
            <g transform="matrix(1,0,0,1,163.998,56.5605)">
                <path d="M0,-8.396C-2.405,-5.926 -4.886,-5.866 -2.35,-3.25C0.186,-0.635 2.022,1.388 4.162,-0.837C6.303,-3.062 7.703,-1.877 6.909,-4.614C6.115,-7.352 6.513,-9.455 4.544,-9.62C2.575,-9.784 0,-8.396 0,-8.396" style="fill:white;fill-rule:nonzero;"/>
            </g>
            <g transform="matrix(1,0,0,1,102.621,55.5402)">
                <path d="M0,5.99C-0.15,8.072 -2.016,7.019 -3.639,6.435C-5.26,5.85 -4.454,6.217 -5.165,4.512C-5.874,2.807 -5.068,3.174 -2.745,1.721L-0.317,2.673C2.111,3.623 0.149,3.908 0,5.99M2.393,-0.73C0.557,-2.753 -1.922,-6.165 -2.737,-5.165C-6.743,-0.243 -10.502,3.002 -9.197,5.515C-7.892,8.028 -6.813,10.255 -6.113,10.847C-5.413,11.44 -3.236,12.155 -0.737,11.83C1.763,11.505 3.846,10.075 4.093,6.624C4.341,3.173 4.229,1.293 2.393,-0.73" style="fill:white;fill-rule:nonzero;"/>
            </g>
            <g transform="matrix(1,0,0,1,154.747,49.8188)">
                <path d="M0,13.397C-0.956,14.855 -1.763,15.262 -3.17,16.377C-4.576,17.491 -4.686,18.281 -7.39,19.722C-10.091,21.162 -10.863,17.801 -10.863,17.801C-10.863,17.801 -10.229,13.326 -10.851,8.913C-10.851,8.913 -8.207,6.116 -5.506,4.676C-2.805,3.236 -2.015,4.713 -1.057,6.758C-0.098,8.801 0.956,11.939 0,13.397M5.289,7.804C3.672,5.113 2.748,-0.697 -0.817,-0.208C-4.384,0.281 -7.104,0.102 -8.942,2.492C-10.779,4.883 -13.556,6.85 -12.958,2.638C-12.361,-1.574 -12.083,-5.3 -11.97,-6.089C-11.858,-6.879 -11.635,-8.458 -11.862,-10.382C-12.088,-12.305 -12.431,-16.941 -15.263,-16.331C-18.098,-15.721 -18.829,7.058 -18.487,11.694C-18.145,16.33 -18.354,16.026 -18.105,19.569C-17.859,23.113 -18.7,27.284 -17.518,27.748C-16.335,28.213 -14.888,30.338 -13.932,28.879C-12.976,27.421 -12.62,26.671 -11.532,26.042C-10.443,25.414 -8.868,24.866 -8.268,24.156C-7.668,23.447 -4.644,25.023 -1.23,22.084C2.183,19.145 5.091,18.008 6.026,14.931C6.963,11.852 6.905,10.496 5.289,7.804" style="fill:white;fill-rule:nonzero;"/>
            </g>
            <g transform="matrix(1,0,0,1,179.425,77.0813)">
                <path d="M0,-19.616C0,-19.616 4.013,-20.35 6.967,-20.104C9.92,-19.857 9.409,-19.632 9.768,-17.733C10.126,-15.833 9.199,-16.712 6.851,-15.038C4.503,-13.364 5.014,-13.589 2.307,-13.815C-0.401,-14.041 1.152,-14.979 0,-19.616M11.79,-7.948C11.145,-5.865 13.322,-5.149 10.047,-4.354C6.77,-3.56 7.944,-2.66 5.294,-3.683C2.644,-4.705 2.151,-4.746 1.982,-5.829C1.811,-6.911 4.652,-8.544 4.652,-8.544C8.061,-11.198 9.519,-10.809 12.229,-14.055C14.936,-17.302 17.343,-19.771 15.979,-21.488C14.616,-23.204 10.131,-26.25 4.621,-25.374C-0.889,-24.498 -4.638,-24.01 -5.207,-19.517C-5.777,-15.023 -5.946,-16.106 -5.91,-13.165C-5.874,-10.224 -5.556,-0.848 -3.209,0.95C-0.861,2.749 0.463,4.995 3.87,5.814C7.277,6.634 9.02,6.511 10.895,4.531C12.77,2.551 13.907,0.509 14.021,-1.084C14.135,-2.677 14.876,-6.089 13.985,-7.498C13.097,-8.908 12.434,-10.031 11.79,-7.948" style="fill:white;fill-rule:nonzero;"/>
            </g>
            <g transform="matrix(1,0,0,1,80.3308,122.535)">
                <path d="M0,-21.069C-1.039,-25.108 -3.051,-26.783 -4.712,-28.28C-6.374,-29.778 -16.095,-41.864 -18.563,-38.715C-21.031,-35.565 -27.379,-34.964 -24.868,-25.566C-22.356,-16.169 -17.172,-5.83 -14.388,0.848C-11.603,7.525 -9.048,6.448 -4.416,11.642C0.216,16.835 3.273,20.795 5.468,20.363C7.663,19.932 9.697,15.465 6.984,13.437C4.272,11.41 1.999,8.945 -0.714,6.917C-3.427,4.89 -9.189,-2.851 -3.656,-4.673C1.878,-6.497 2.663,-5.002 2.933,-6.843C3.202,-8.686 8.03,-9.108 2.682,-10.266C-2.667,-11.426 0.143,-11.767 -2.667,-11.426C-5.476,-11.086 -10.063,-8.28 -12.338,-14.856C-16.007,-25.466 -9.328,-28.045 -8.46,-25.41C-7.592,-22.775 -4.046,-18.276 -3.699,-17.221C-3.352,-16.167 -5.463,-14.595 -3.352,-16.167C-1.24,-17.739 0,-21.069 0,-21.069" style="fill:white;fill-rule:nonzero;"/>
            </g>
            <g transform="matrix(1,0,0,1,88.0124,110.084)">
                <path d="M0,-11.199C-0.089,-2.857 0.079,2.166 -0.092,4.379C-0.264,6.593 -0.86,7.102 1.609,7.572C4.077,8.041 6.27,8.488 6.547,4.892C6.826,1.296 6.401,-0.407 5.677,-1.854C4.954,-3.301 4.146,-3.643 4.084,-6.43C4.021,-9.218 3.043,-10.964 5.021,-11.367C7.002,-11.77 9.577,-12.684 10.598,-11.492C11.618,-10.3 11.342,-10.321 12.277,-8.023C13.212,-5.724 14.851,-5.319 14.851,-5.319C14.851,-5.319 18.128,-4.509 18.108,-7.85C18.087,-11.191 19.152,-10.552 16.876,-13.511C14.6,-16.47 15.601,-18.619 11.665,-18.089C7.727,-17.558 8.132,-19.197 6.322,-17.389C4.512,-15.58 4.427,-14.474 3.449,-16.219C2.471,-17.965 5.387,-19.687 2.003,-19.114C-1.381,-18.541 -1.402,-18.264 -1.552,-16.328C-1.702,-14.392 0,-11.199 0,-11.199" style="fill:white;fill-rule:nonzero;"/>
            </g>
            <g transform="matrix(1,0,0,1,110.498,110.39)">
                <path d="M0,-15.625C-0.449,-9.815 -1.173,-7.645 -0.111,-3.389C0.951,0.868 1.738,1.485 2.185,2.911C2.631,4.337 5.078,5.083 5.334,1.764C5.592,-1.556 5.06,-1.876 4.699,-4.408C4.338,-6.941 4.828,-9.685 4.638,-10.813C4.446,-11.942 8.533,-14.408 7.386,-17.559C6.238,-20.708 0,-15.625 0,-15.625" style="fill:white;fill-rule:nonzero;"/>
            </g>
            <g transform="matrix(1,0,0,1,110.121,85.9387)">
                <path d="M0,-4.283C0,-4.283 -3.407,0.184 -0.663,0.675C2.082,1.166 1.253,1.101 3.743,1.294C6.232,1.487 10.275,3.191 8.85,0.019C7.426,-3.153 8.108,-4.769 5.915,-5.218C3.724,-5.665 1.916,-7.474 0.957,-5.879L0,-4.283Z" style="fill:white;fill-rule:nonzero;"/>
            </g>
            <g transform="matrix(1,0,0,1,148.974,110.82)">
                <path d="M0,-23.284C-0.044,-22.89 -1.386,-12.804 -2.34,-7.242C-3.33,-1.474 -4.13,1.472 -1.77,1.249C0.591,1.027 1.693,6.503 1.685,0.174C1.676,-6.153 3.701,-9.415 3.992,-10.486C4.283,-11.557 3.054,-14.405 3.685,-15.671C4.314,-16.937 9.157,-18.271 9.285,-13.001C9.397,-8.399 9.517,-9.684 9.693,-5.036C9.869,-0.388 7.354,-0.588 9.156,0.189C10.958,0.966 11.298,0.77 13.391,0.475C15.482,0.181 17.407,1.566 18.084,-1.989C18.761,-5.542 19.369,-5.665 19.074,-7.757C18.78,-9.85 19.556,-11.651 17.946,-15.251C16.335,-18.851 16.112,-21.211 14.238,-21.72C12.364,-22.228 14.941,-23.254 10.49,-22.737C6.037,-22.22 5.796,-20.273 5.038,-22.778C4.279,-25.284 3.817,-25.698 3.768,-26.573C3.718,-27.449 4.64,-29.787 2.524,-28.348C0.409,-26.91 0.286,-27.518 -0.367,-25.108C-1.021,-22.698 -0.044,-22.89 -0.044,-22.89L0,-23.284Z" style="fill:white;fill-rule:nonzero;"/>
            </g>
            <g transform="matrix(1,0,0,1,217.809,121.52)">
                <path d="M0,-24.113C-3.899,-25.382 -2.372,-25.747 -7.451,-24.689C-12.532,-23.632 -14.619,-25.728 -14.935,-21.642C-15.252,-17.556 -14.735,-17.758 -13.605,-16.22C-12.475,-14.681 -10.065,-13.529 -7.922,-12.153C-5.779,-10.778 -4.289,-10.662 -5.734,-8.116C-7.182,-5.567 -6.299,-4.048 -9.032,-4.259C-11.765,-4.471 -13.199,-5.308 -14.561,-7.106C-15.921,-8.904 -15.909,-12.287 -18.237,-11.259C-20.566,-10.23 -21.789,-10.566 -20.827,-6.866C-19.863,-3.164 -20.994,-4.701 -18.732,-1.626C-16.473,1.45 -17.234,1.634 -14.484,1.605C-11.732,1.575 -0.635,0.258 -0.797,-4.107C-0.959,-8.471 -0.692,-8.693 -2.015,-10.97C-3.339,-13.249 -3.742,-14.49 -4.661,-15.528C-5.581,-16.566 -7.816,-16.739 -6.463,-18.085C-5.109,-19.43 -4.52,-20.595 -2.855,-19.498C-1.191,-18.403 -2.706,-21.421 -1.191,-18.403C0.325,-15.384 0.767,-14.625 2.139,-16.211C3.511,-17.797 3.74,-17.537 3.642,-19.479C3.541,-21.422 0,-24.113 0,-24.113" style="fill:white;fill-rule:nonzero;"/>
            </g>
            <g transform="matrix(1,0,0,1,186.414,85.7452)">
                <path d="M0,20.745C-1.023,23.828 -1.228,21.533 -3.469,22.46C-5.709,23.389 -5.156,22.694 -6.877,22.543C-8.6,22.393 -8.106,23.331 -8.673,23.1C-9.24,22.868 -9.417,22.428 -8.53,17.815C-7.644,13.203 -6.755,12.461 -6.755,12.461C-6.755,12.461 -5.864,11.72 -4.799,11.418C-3.731,11.116 -4.799,11.418 -3.874,11.059C-2.949,10.699 -3.308,11.29 -0.24,12.726C2.826,14.162 0.431,14.105 1.222,16.086C2.014,18.067 1.022,17.662 0,20.745M14.453,1.406C14.209,-2.548 14.76,-4.991 13.737,-6.595C12.713,-8.199 15.012,-12.004 11.887,-8.833C8.762,-5.661 9.344,-8.982 8.1,-4.448C6.856,0.084 7.006,-1.93 6.51,1.129C6.014,4.188 6.187,3.666 5.666,5.233C5.148,6.799 4.801,7.845 3.258,7.807C1.715,7.771 3.541,8.516 -0.797,6.746C-5.134,4.975 -3.363,5.105 -5.134,4.975C-6.906,4.845 -7.11,6.244 -7.11,6.244C-7.11,6.244 -10.709,5.368 -12.323,9.453C-13.936,13.539 -15.936,13.315 -15.322,17.717C-14.708,22.119 -14.457,23.705 -11.606,26.053C-8.757,28.403 -6.765,30.995 -3.963,30.36C-1.16,29.725 1.754,30.321 2.044,28.66C2.336,27.001 5.17,25.489 4.392,27.839L3.611,30.189C3.611,30.189 4.06,32.749 5.405,31.815C6.753,30.88 7.099,29.834 7.704,28.006C8.312,26.178 8.83,24.611 10.304,20.172C11.775,15.731 12.178,15.303 13.074,11.815C13.973,8.326 14.697,5.36 14.453,1.406" style="fill:white;fill-rule:nonzero;"/>
            </g>
            <g transform="matrix(1,0,0,1,131.047,104.425)">
                <path d="M0,-15.225L2.25,-16.897L5.196,-15.776C5.196,-15.776 6.855,-14.463 7.285,-12.744C7.713,-11.024 6.416,-11.946 5.131,-11.754C3.846,-11.562 0.342,-11.71 0.342,-11.71L-0.439,-12.707C-0.439,-12.707 -0.558,-14.25 0,-15.225M-0.002,-7.723C5.422,-8.417 14.054,-7.193 14.288,-10.236C14.524,-13.279 14.631,-14.663 11.466,-17.133C8.302,-19.605 10.312,-23.902 3.694,-20.796C-2.923,-17.69 -3.234,-17.992 -5.558,-13.998C-7.88,-10.002 -8.257,-9.475 -8.428,-7.262C-8.599,-5.048 -8.468,1.918 -6.615,4.01C-4.764,6.101 -0.264,8.677 1.469,7.975C3.201,7.275 4.955,6.296 6.062,4.991C7.171,3.684 9.301,2.179 9.408,0.797C9.515,-0.586 11.547,-5.16 8.061,-3.482C4.574,-1.804 5.597,-2.003 2.886,-1.656L0.174,-1.309L-2.971,-4.057L-4.446,-6.676C-4.446,-6.676 -5.426,-7.03 -0.002,-7.723" style="fill:white;fill-rule:nonzero;"/>
            </g>
            <g transform="matrix(1,0,0,1,163.614,84.7985)">
                <path d="M0,-24.532C-0.042,-13.585 -2.485,-10.583 -1.976,-7.335C-1.466,-4.087 -8.168,-3.845 -1.466,-4.087C5.237,-4.329 6.011,2.145 6.619,-6.351C7.228,-14.847 6.017,-11.743 5.734,-18.178C5.453,-24.611 8.767,-25.938 4.337,-26.307C-0.094,-26.677 0,-24.532 0,-24.532" style="fill:white;fill-rule:nonzero;"/>
            </g>
            <g transform="matrix(1,0,0,1,160.733,18.8963)">
                <path d="M0,32.048C-0.516,28.889 3.275,20.902 4.1,19.092C4.922,17.281 4.966,16.258 4.716,15.139C4.465,14.021 4.33,13.501 4.064,12.722C3.799,11.945 3.63,11.977 2.74,9.699C1.849,7.422 1.691,8.712 2.843,5.58C3.993,2.449 3.548,2.175 4.703,1.77C5.858,1.365 6.719,0 8.215,0.527C9.713,1.055 11.722,3.348 11.324,3.912C10.928,4.475 10,4.349 9.173,4.297C8.345,4.246 7.984,3.523 7.451,4.432C6.918,5.341 6.52,6.769 6.52,6.769C6.52,6.769 8.559,7.515 8.988,7.265C9.419,7.015 8.757,7.666 11.229,5.697C13.701,3.729 11.457,2.571 15.312,3.125C19.167,3.68 20.531,3.819 21.197,5.029C21.863,6.239 22.36,8.346 21.662,8.552C20.962,8.759 20.355,7.914 19.395,7.473C18.435,7.033 17.928,6.264 16.924,6.847C15.92,7.431 15.864,6.332 14.702,8.205C13.54,10.078 13.356,11.316 13.356,11.316C13.356,11.316 12.926,12.431 14.065,11.502C15.207,10.573 15.545,10.51 15.972,10.13C16.398,9.748 16.074,9.47 17.02,9.386C17.964,9.303 17.686,8.867 19.112,9.501C20.539,10.136 21.632,10.1 22.28,11.521C22.928,12.942 24.612,14.957 23.027,14.746C21.441,14.536 21.188,14.152 20.136,13.898C19.084,13.644 20.173,12.612 18.521,13.506C16.869,14.399 17.13,13.315 16.248,14.76C15.365,16.205 15.182,15.713 15.405,15.915C15.63,16.117 15.068,16.843 16.054,16.47C17.04,16.097 15.59,16.407 18.047,15.645C20.504,14.882 20.81,15.37 21.062,15.756C21.317,16.14 22.877,17.164 23.064,17.786C23.253,18.409 23.132,19.279 22.348,19.068C21.564,18.858 21.689,17.255 20.324,17.981C18.959,18.707 17.554,17.993 16.757,18.99C15.958,19.987 17.274,20.153 18.011,20.39C18.746,20.629 19.107,21.351 19.519,21.311C19.931,21.271 21.023,22.965 20.973,24.592C20.921,26.219 20.145,26.271 19.365,26.192C18.586,26.112 19.093,24.287 18.916,24.057C18.74,23.827 17.434,23.188 16.845,22.998C16.257,22.807 14.635,23.018 13.998,23.721C13.362,24.423 11.92,24.13 10.647,23.804C9.374,23.48 9.261,22.881 8.731,23.055C8.2,23.23 7.649,24.349 7.227,24.861C6.804,25.372 9.827,28.64 9.19,29.342C8.555,30.045 4.752,30.655 4.406,30.457C4.061,30.258 0.929,31.77 0.929,31.77L0,32.048Z" style="fill:white;fill-rule:nonzero;"/>
            </g>
        </g>
    </g>
</svg>
