<svg viewBox="0 0 136 136" xmlns="http://www.w3.org/2000/svg" fill-rule="evenodd" clip-rule="evenodd" stroke-linejoin="round" stroke-miterlimit="1.414"><g transform="scale(.9315 1)"><path fill="#fff" d="M0 0h146v136H0z"/><clipPath id="a"><path d="M0 0h146v136H0z"/></clipPath><g clip-path="url(#a)"><circle cx="397.099" cy="227.757" r="64.221" transform="matrix(1.13671 0 0 1.05885 -378.385 -173.161)"/><path d="M111.184 64.305c.656.627.785.852 1.031 1.29 1.082 1.93.918 4.102-.982 5.968l-34.437 32.078c-2.138 1.992-5.604 1.992-7.743 0-1.028-.956-1.605-2.254-1.605-3.607 0-1.352.577-2.65 1.603-3.606l30.517-28.427-4.776-4.34 7.647-7.303 8.745 7.947zM97.443 52.082L58.91 87.83c-2.103 1.95-5.553 1.942-7.647-.014l-3.913-3.66S75.46 58.082 85.883 48.41c1.013-.94 2.386-1.468 3.816-1.468 1.437 0 2.817.534 3.83 1.483l3.914 3.659v-.002zM76.782 32.145c2.137 1.991 2.137 5.22 0 7.21L46.249 67.798l4.894 4.479-7.676 7.277-8.834-8.086c-.738-.714-.887-.996-1.15-1.532-.919-1.893-.7-3.929 1.116-5.714l34.437-32.078c2.139-1.992 5.606-1.991 7.745.001z" fill="#fff"/></g></g></svg>