<svg viewBox="0 0 28 28" xmlns="http://www.w3.org/2000/svg" fill-rule="evenodd" clip-rule="evenodd" stroke-linejoin="round" stroke-miterlimit="1.414"><path d="M26.148 20.579c-2.34 4.308-6.905 7.236-12.148 7.236-.776 0-1.536-.065-2.277-.188l10.736-10.736 3.689 3.688z" fill="#33ccb1"/><path d="M.63 10.513l9.371 9.371 7.758-7.693 2.373 2.372L8.169 26.526C3.455 24.325.185 19.541.185 14c0-1.204.155-2.373.445-3.487z" fill="#0063c7"/><path d="M19.346 1.26c4.973 2.091 8.469 7.01 8.469 12.74 0 1.107-.131 2.183-.377 3.215l-9.669-9.67-7.759 7.694-2.398-2.398L19.346 1.26z" fill="#0063c7"/><path d="M1.973 7.202C4.347 3.014 8.846.185 14 .185c.558 0 1.108.034 1.649.098L5.284 10.513 1.973 7.202z" fill="#33ccb1"/></svg>