<?xml version="1.0" encoding="UTF-8" standalone="no"?><!DOCTYPE svg PUBLIC "-//W3C//DTD SVG 1.1//EN" "http://www.w3.org/Graphics/SVG/1.1/DTD/svg11.dtd"><svg width="100%" height="100%" viewBox="0 0 28 28" version="1.1" xmlns="http://www.w3.org/2000/svg" xmlns:xlink="http://www.w3.org/1999/xlink" xml:space="preserve" xmlns:serif="http://www.serif.com/" style="fill-rule:evenodd;clip-rule:evenodd;stroke-linejoin:round;stroke-miterlimit:1.41421;"><g><path d="M26.148,20.579c-2.34,4.308 -6.905,7.236 -12.148,7.236c-0.776,0 -1.536,-0.065 -2.277,-0.188l10.736,-10.736l3.689,3.688Z" style="fill:#33ccb1;"/><path d="M0.63,10.513l9.371,9.371l7.758,-7.693l2.373,2.372l-11.963,11.963c-4.714,-2.201 -7.984,-6.985 -7.984,-12.526c0,-1.204 0.155,-2.373 0.445,-3.487Z" style="fill:#0063c7;"/><path d="M19.346,1.26c4.973,2.091 8.469,7.01 8.469,12.74c0,1.107 -0.131,2.183 -0.377,3.215l-9.669,-9.67l-7.759,7.694l-2.398,-2.398l11.734,-11.581Z" style="fill:#0063c7;"/><path d="M1.973,7.202c2.374,-4.188 6.873,-7.017 12.027,-7.017c0.558,0 1.108,0.034 1.649,0.098l-10.365,10.23l-3.311,-3.311Z" style="fill:#33ccb1;"/></g></svg>