<?xml version="1.0" encoding="UTF-8" standalone="no"?>
<!DOCTYPE svg PUBLIC "-//W3C//DTD SVG 1.1//EN" "http://www.w3.org/Graphics/SVG/1.1/DTD/svg11.dtd">
<svg width="100%" height="100%" viewBox="0 0 3013 688" version="1.1" xmlns="http://www.w3.org/2000/svg" xmlns:xlink="http://www.w3.org/1999/xlink" xml:space="preserve" xmlns:serif="http://www.serif.com/" style="fill-rule:evenodd;clip-rule:evenodd;stroke-linejoin:round;stroke-miterlimit:1.41421;">
    <g transform="matrix(1,0,0,1,-12.4532,7.10543e-15)">
        <g id="Artboard5" transform="matrix(2.70025,0,0,0.616081,4072.16,-62.9658)">
            <rect x="-1503.46" y="102.204" width="1115.71" height="1115.71" style="fill:white;"/>
            <g transform="matrix(0.717092,0,0,1.6773,-1807.5,-2156.32)">
                <g transform="matrix(1.56327,0,0,2.92931,-1116.89,273.003)">
                    <path d="M1192.5,435.916C1198.64,444.587 1203.63,454.121 1208.33,463.528C1217.19,481.228 1224.31,500.343 1237.92,514.658C1239.82,516.652 1241.92,518.48 1244.24,520.012C1244.64,524.889 1244.88,529.779 1245.02,534.649C1245.1,537.276 1244.87,539.909 1245.31,542.489C1246.48,549.37 1252.96,554.851 1259.9,554.897L1261,554.851C1258.82,555.046 1256.6,554.845 1254.38,554.638C1243.07,553.579 1232.24,548.909 1223.41,541.756C1210.15,531.015 1201.36,515.949 1193.71,501.122C1185.92,486.028 1179.64,470.153 1170.02,455.865C1174.61,448.836 1180.04,441.866 1187.59,437.88C1189.16,437.05 1190.82,436.395 1192.5,435.916Z" style="fill:rgb(0,224,255);"/>
                </g>
                <g transform="matrix(1.56327,0,0,2.92931,-1116.89,273.003)">
                    <path d="M1067.88,548.497C1066.63,546.779 1065.74,544.806 1065.35,542.695C1064.84,539.953 1065.1,537.201 1065.18,534.447C1065.9,507.331 1069.44,480.128 1079.33,454.865C1085.47,439.164 1094.4,424.251 1108.57,414.64C1117.72,408.439 1128.74,405.168 1139.77,405.103C1139.92,405.103 1140.08,405.103 1140.24,405.103C1150.7,405.164 1160.99,408.238 1169.94,413.708C1160.97,419.352 1153.6,427.333 1147.54,435.932C1146.47,435.613 1145.36,435.366 1144.21,435.197C1136.48,434.056 1128.42,436.279 1122.37,441.56C1114.87,448.104 1110.2,457.422 1106.62,466.904C1100.23,483.798 1097.05,501.806 1095.71,519.963C1091.91,522.604 1087.67,524.483 1083.06,524.951C1081.17,525.143 1079.25,525.001 1077.38,525.334C1072.25,526.25 1067.76,530.032 1065.99,534.932C1064.36,539.429 1065.23,544.583 1067.88,548.497Z" style="fill:rgb(0,224,255);"/>
                </g>
                <g transform="matrix(-1.56327,0,0,2.92931,2541.16,273.003)">
                    <path d="M1192.45,435.932C1184.59,438.237 1178.54,444.233 1173.63,450.719C1172.35,452.406 1171.13,454.122 1169.98,455.865L1170.41,456.526C1184.99,479.068 1193.39,505.6 1209.15,526.641C1218.34,538.901 1230.77,549.386 1245.86,553.181C1250.41,554.327 1255.11,554.875 1259.8,554.892C1252.86,554.804 1246.46,549.295 1245.31,542.479C1245.16,541.625 1245.17,540.753 1245.1,539.89L1245.1,539.833C1245.11,538.663 1245.09,537.493 1245.06,536.324C1244.95,530.874 1244.71,525.411 1244.28,519.963C1239.45,516.611 1235.33,512.03 1232.11,507.57C1216.04,485.313 1207.97,457.993 1192.51,436.005L1192.45,435.932Z" style="fill:rgb(255,0,86);"/>
                </g>
                <g transform="matrix(-1.56327,0,0,2.92931,2541.16,273.003)">
                    <path d="M1170.06,413.708C1167.88,412.328 1165.59,411.089 1163.21,410.014C1156.02,406.765 1148.17,405.149 1140.24,405.103C1140.08,405.103 1139.92,405.103 1139.77,405.103C1124.67,405.191 1110.1,411.344 1099.04,422.652C1087.76,434.182 1080.8,449.199 1076,464.295C1068.79,486.973 1065.77,511.014 1065.17,534.77C1065.12,536.509 1065.1,538.248 1065.1,539.988L1065.1,540.002C1065.11,533.025 1070.57,526.55 1077.38,525.334C1078.5,525.134 1080.13,525.102 1080.13,525.102C1085.99,525.072 1091.26,523.093 1095.76,520.012C1097.1,501.869 1100.23,483.783 1106.62,466.904C1110.66,456.227 1116.06,445.456 1125.46,439.189C1131.8,434.961 1140.07,433.794 1147.5,435.916C1151.65,430.018 1156.34,424.518 1161.82,419.738C1164.4,417.49 1167.16,415.472 1170.06,413.708Z" style="fill:rgb(255,0,86);"/>
                </g>
                <g transform="matrix(-1.56327,0,0,2.92931,2541.16,273.003)">
                    <path d="M1095.76,520.012C1091.26,523.093 1085.99,525.072 1080.13,525.102C1080.13,525.102 1078.5,525.134 1077.38,525.334C1070.57,526.55 1065.11,533.025 1065.1,540.002L1065.1,540.061L1065.11,540.177L1065.2,541.396L1065.27,542.057C1065.74,545.15 1067.25,548.056 1069.44,550.317L1069.61,550.497L1069.63,550.515C1071.96,552.791 1075.01,554.359 1078.24,554.766L1079,554.851L1080.1,554.897C1087.04,554.851 1093.52,549.37 1094.69,542.489C1095.12,539.909 1094.9,537.276 1094.98,534.649C1095.12,529.779 1095.36,524.889 1095.76,520.012Z" style="fill:rgb(0,119,135);"/>
                </g>
                <g transform="matrix(-1.56327,0,0,2.92931,2541.16,273.003)">
                    <path d="M1244.28,519.963C1244.71,525.411 1244.95,530.874 1245.06,536.324C1245.09,537.493 1245.11,538.663 1245.1,539.833L1245.1,539.89C1245.17,540.753 1245.16,541.625 1245.31,542.479C1246.46,549.295 1252.86,554.804 1259.8,554.892L1259.92,554.896L1260.06,554.89L1262.16,554.71L1262.46,554.669L1263.06,554.531L1264.75,554.041C1267.65,553.001 1270.23,551.063 1272.05,548.594L1272.07,548.562L1272.12,548.497C1274.77,544.583 1275.64,539.429 1274.01,534.932C1272.24,530.032 1267.75,526.25 1262.62,525.334C1260.75,525.001 1258.83,525.143 1256.94,524.951C1252.33,524.483 1248.09,522.604 1244.28,519.963Z" style="fill:rgb(0,119,135);"/>
                </g>
                <g transform="matrix(-1.56327,0,0,2.92931,2541.16,273.003)">
                    <path d="M1170.06,413.708C1167.16,415.472 1164.4,417.49 1161.82,419.738C1156.34,424.518 1151.65,430.018 1147.5,435.916C1149.18,436.395 1150.83,437.05 1152.4,437.88C1159.96,441.866 1165.39,448.836 1169.98,455.865C1171.13,454.122 1172.35,452.406 1173.63,450.719C1178.54,444.233 1184.59,438.237 1192.45,435.932C1186.4,427.33 1179.02,419.345 1170.06,413.708Z" style="fill:rgb(0,119,135);"/>
                </g>
            </g>
            <g transform="matrix(0.370336,0,0,1.62316,-1580.39,-245.432)">
                <path d="M1686.56,356.75C1692.97,352.728 1699.67,349.112 1706.65,345.96C1728.42,336.124 1752.19,331.234 1776.21,331.093C1776.68,331.092 1777.15,331.092 1777.63,331.093C1823.32,331.361 1867.42,349.984 1900.91,384.213C1935.06,419.115 1956.12,464.572 1970.65,510.267C1992.48,578.914 2001.61,651.686 2003.43,723.596C2003.56,728.86 2003.65,734.125 2003.63,739.391L2003.63,739.435L2003.63,739.611L2003.61,739.962L2003.35,743.653L2003.11,745.653C2001.7,755.016 1997.13,763.812 1990.51,770.656L1989.99,771.203L1989.93,771.257C1982.87,778.145 1973.65,782.89 1963.86,784.124L1961.57,784.381C1954.98,784.971 1948.24,784.363 1941.54,783.736C1907.31,780.529 1874.52,766.396 1847.78,744.742C1807.65,712.23 1781.05,666.625 1757.89,621.744C1734.31,576.052 1715.3,527.999 1686.18,484.751L1684.85,486.751C1640.74,554.986 1615.3,635.297 1567.59,698.99C1539.8,736.099 1502.16,767.838 1456.48,779.326C1442.7,782.794 1428.48,784.454 1414.27,784.506C1414.35,784.505 1414.43,784.504 1414.52,784.502L1414.76,784.497C1414.6,784.501 1414.43,784.504 1414.27,784.506L1413.92,784.517L1413.51,784.5L1407.12,783.954L1406.22,783.83L1404.41,783.412L1399.3,781.93C1390.53,778.781 1382.71,772.916 1377.2,765.441L1377.13,765.345L1376.99,765.148C1368.98,753.3 1366.35,737.698 1371.27,724.086C1375.99,711.036 1387.06,700.607 1400.25,696.4C1387.06,700.607 1375.99,711.036 1371.27,724.086C1366.35,737.698 1368.98,753.3 1376.99,765.148C1373.2,759.946 1370.51,753.976 1369.33,747.584C1367.8,739.284 1368.59,730.954 1368.81,722.619C1371,640.538 1381.73,558.193 1411.64,481.722C1430.23,434.195 1457.26,389.053 1500.17,359.962C1527.85,341.192 1561.22,331.288 1594.59,331.093C1595.06,331.092 1595.54,331.092 1596.01,331.093C1627.69,331.279 1658.84,340.584 1685.94,357.14L1686.56,356.75ZM1957.1,784.497C1957.48,784.51 1957.86,784.518 1958.24,784.521L1957.99,784.518C1957.69,784.514 1957.39,784.507 1957.1,784.497ZM1955.78,784.43C1956.16,784.455 1956.54,784.475 1956.91,784.49C1956.54,784.475 1956.16,784.455 1955.78,784.43ZM1415.99,784.448C1415.74,784.461 1415.5,784.472 1415.25,784.482L1415.5,784.472C1415.74,784.461 1415.99,784.448 1416.23,784.433L1415.99,784.448ZM1910.74,677.636C1906.62,623.148 1897.14,568.859 1877.97,518.164C1865.74,485.845 1849.37,453.242 1820.93,434.271C1801.74,421.474 1776.7,417.941 1754.22,424.363C1753.88,423.884 1753.55,423.405 1753.21,422.928C1753.55,423.405 1753.88,423.884 1754.22,424.363C1772.8,450.611 1787.9,479.472 1802.15,507.945C1828.96,561.523 1850.51,619.386 1891.72,662.716C1897.46,668.752 1903.82,674.287 1910.84,678.923C1912.04,693.687 1912.77,708.487 1913.2,723.229C1913.43,731.18 1912.75,739.152 1914.08,746.961C1917.47,766.976 1935.72,783.078 1955.78,784.43L1955.54,784.412C1935.58,782.946 1917.45,766.895 1914.08,746.961C1912.75,739.152 1913.43,731.18 1913.2,723.229C1912.77,708.487 1912.04,693.687 1910.84,678.923L1910.74,677.636ZM1419.69,784.074L1419.64,784.082L1419.69,784.074ZM1424.42,783.105L1424.14,783.177L1424.42,783.105L1424.61,783.052L1424.42,783.105ZM1425.23,782.88L1425.36,782.845L1425.82,782.707L1425.36,782.845L1425.23,782.88ZM1445.98,770.348L1445.64,770.696L1445.98,770.348L1446.18,770.142L1445.98,770.348ZM1446.66,769.641L1446.62,769.681L1446.66,769.641L1446.82,769.468L1446.66,769.641ZM1449.5,766.3C1449.11,766.808 1448.7,767.309 1448.29,767.802C1448.81,767.185 1449.31,766.555 1449.8,765.913L1449.5,766.3ZM1450.27,765.27C1450.4,765.092 1450.53,764.914 1450.66,764.735L1450.38,765.13L1450.27,765.27ZM1457.18,751.22L1457.16,751.277C1457.19,751.18 1457.22,751.083 1457.25,750.985L1457.18,751.22ZM1457.97,747.895C1457.91,748.204 1457.85,748.512 1457.78,748.818C1457.83,748.591 1457.88,748.363 1457.92,748.135L1457.97,747.895ZM1458.11,747.172C1458.08,747.333 1458.05,747.494 1458.02,747.655L1458.06,747.414L1458.11,747.172ZM1458.22,746.446C1458.22,746.446 1458.22,746.445 1458.22,746.446ZM1458.57,742.533C1458.52,743.433 1458.47,744.333 1458.37,745.228L1458.4,744.984C1458.49,744.006 1458.55,743.024 1458.6,742.041L1458.57,742.533ZM1458.77,739.095C1458.73,739.585 1458.7,740.076 1458.67,740.567L1458.7,740.076C1458.71,739.912 1458.73,739.749 1458.74,739.585L1458.77,739.095ZM2003.62,738.446C2003.62,738.61 2003.63,738.775 2003.63,738.94L2003.62,738.693L2003.62,738.446ZM2003.59,737.706L2003.6,737.781L2003.59,737.706L2003.59,737.587L2003.59,737.706ZM2003.39,735.007C2003.4,735.093 2003.41,735.178 2003.41,735.264L2003.41,735.251L2003.39,735.007ZM1458.8,733.61L1458.79,734.445C1458.8,733.724 1458.81,733.003 1458.82,732.283L1458.8,733.61ZM2003.24,733.789C2003.21,733.627 2003.19,733.466 2003.17,733.304L2003.2,733.547L2003.24,733.789ZM1458.86,729.627C1458.85,730.07 1458.85,730.512 1458.84,730.955L1458.86,729.627C1458.87,729.185 1458.88,728.742 1458.89,728.3L1458.86,729.627ZM1983.83,702.423C1985.18,703.383 1986.48,704.417 1987.73,705.516C1986.48,704.417 1985.18,703.384 1983.83,702.423ZM1981.91,701.138C1982.42,701.463 1982.93,701.799 1983.43,702.144C1982.93,701.799 1982.42,701.463 1981.91,701.138ZM1978.61,699.224C1978.88,699.366 1979.15,699.51 1979.42,699.658C1979.15,699.51 1978.88,699.366 1978.61,699.224ZM1973.85,697.081C1975.19,697.592 1976.52,698.17 1977.8,698.812C1976.51,698.17 1975.19,697.592 1973.85,697.081ZM1460.02,697.494L1460.03,697.343L1460.12,695.795L1460.03,697.343L1460.02,697.494ZM1973.3,696.875C1973.4,696.912 1973.5,696.949 1973.6,696.987L1973.52,696.959L1973.3,696.875ZM1971.08,696.141C1971.67,696.318 1972.26,696.509 1972.84,696.712L1973.07,696.793C1972.41,696.559 1971.75,696.342 1971.08,696.141ZM1410.97,694.442C1409.23,694.551 1407.49,694.725 1405.76,695.033C1404.07,695.334 1402.41,695.737 1400.77,696.236C1402.41,695.737 1404.07,695.334 1405.76,695.033C1407.49,694.725 1409.23,694.551 1410.97,694.442ZM1967.9,695.318C1968.02,695.344 1968.14,695.37 1968.26,695.397L1968.14,695.37L1967.9,695.318ZM1966.7,695.077C1967.02,695.136 1967.34,695.199 1967.66,695.267L1967.42,695.217C1967.1,695.152 1966.78,695.09 1966.46,695.033L1966.7,695.077ZM1962.01,694.52L1961.9,694.513L1962.01,694.52ZM1421.39,694.007C1418.15,694.244 1414.9,694.229 1411.67,694.402C1414.9,694.229 1418.15,694.244 1421.39,694.007ZM1957.62,694.327C1957.8,694.329 1957.98,694.331 1958.16,694.332C1958.16,694.332 1958.31,694.335 1958.58,694.343C1958.31,694.335 1958.16,694.332 1958.16,694.332C1957.98,694.331 1957.8,694.329 1957.62,694.327ZM1423.21,693.846L1422.95,693.873C1422.68,693.901 1422.4,693.926 1422.13,693.949C1422.4,693.926 1422.68,693.901 1422.95,693.873L1423.21,693.846ZM1423.6,693.803L1423.35,693.831L1423.6,693.803L1423.92,693.767L1423.6,693.803ZM1618.14,424.413C1614.9,423.448 1611.53,422.7 1608.05,422.187C1584.63,418.733 1560.26,425.463 1541.94,441.448C1519.24,461.258 1505.11,489.462 1494.25,518.164C1474.91,569.304 1465.29,623.815 1461.25,678.777C1450.17,686.472 1437.84,692.034 1424.49,693.698C1437.84,692.034 1450.17,686.472 1461.25,678.777C1461.15,680.003 1461.06,681.23 1460.97,682.457C1461.06,681.23 1461.15,680.003 1461.25,678.777C1475.89,668.629 1488.35,654.761 1498.1,641.262C1546.75,573.89 1571.18,491.19 1617.98,424.634L1618.14,424.413L1618.14,424.413ZM1945.15,693.19C1945.69,693.283 1946.23,693.37 1946.77,693.452L1946.38,693.391C1945.97,693.327 1945.56,693.26 1945.15,693.19ZM1944.01,692.986L1944.24,693.028C1944.03,692.99 1943.83,692.951 1943.62,692.912L1944.01,692.986ZM1942.45,692.678C1942.58,692.705 1942.71,692.731 1942.84,692.758L1942.45,692.678C1942.32,692.651 1942.19,692.623 1942.06,692.596L1942.45,692.678ZM1940.9,692.339C1941.11,692.388 1941.32,692.436 1941.54,692.482L1941.28,692.427L1940.9,692.339ZM1939.36,691.972L1939.43,691.99L1939.36,691.972L1939.31,691.96L1939.36,691.972ZM1937.83,691.575C1938,691.62 1938.16,691.665 1938.33,691.709C1938.04,691.631 1937.74,691.552 1937.45,691.471L1937.83,691.575ZM1933.69,690.338C1933.82,690.379 1933.94,690.419 1934.07,690.459L1934.44,690.579C1934.31,690.539 1934.19,690.499 1934.07,690.459L1933.69,690.338ZM1929.92,689.002C1930.74,689.313 1931.56,689.612 1932.39,689.898C1931.56,689.612 1930.74,689.313 1929.92,689.002ZM1928.19,688.321L1928.38,688.396L1928.19,688.321L1928.11,688.285L1928.19,688.321ZM1922.87,685.944C1923.45,686.227 1924.04,686.504 1924.63,686.775C1923.92,686.45 1923.22,686.116 1922.52,685.773L1922.87,685.944ZM1460.79,684.962L1460.7,686.281L1460.79,684.962L1460.85,684.172L1460.79,684.962ZM1914.56,681.349C1916.77,682.723 1919.05,684.009 1921.37,685.196C1919.04,684.009 1916.77,682.723 1914.56,681.349ZM1681.02,477.236C1682.55,479.397 1684.05,481.572 1685.52,483.762C1684.05,481.572 1682.55,479.396 1681.02,477.236ZM1673.36,466.879L1673.4,466.926L1673.36,466.879L1673.29,466.783L1673.36,466.879ZM1670.85,463.698L1671.09,464.003L1670.85,463.698L1670.74,463.567L1670.85,463.698ZM1663.99,455.637C1664.23,455.907 1664.47,456.178 1664.72,456.45C1664.47,456.178 1664.23,455.907 1663.99,455.637ZM1651.3,443.163L1651.48,443.321L1651.3,443.163L1651.04,442.941L1651.3,443.163ZM1645.49,438.481L1645.93,438.82L1645.49,438.481L1645.25,438.307L1645.49,438.481ZM1636.47,432.444L1636.58,432.505C1636.38,432.388 1636.18,432.272 1635.98,432.156L1636.47,432.444ZM1624.15,426.453L1624.15,426.453C1623.97,426.384 1623.8,426.316 1623.62,426.248L1624.15,426.453ZM1621.99,425.656L1622.54,425.85L1621.99,425.656L1621.45,425.467L1621.99,425.656ZM1750.41,419.059C1750.8,419.592 1751.19,420.126 1751.58,420.661C1751.19,420.126 1750.8,419.592 1750.41,419.059ZM1746.98,414.455C1746.61,413.97 1746.24,413.485 1745.87,413.002L1746.36,413.642L1746.98,414.455ZM1744.48,411.216C1744.48,411.215 1744.48,411.215 1744.48,411.216ZM1742.58,408.808C1742.97,409.294 1743.36,409.782 1743.74,410.27L1743.22,409.608L1742.58,408.808ZM1740.66,406.42C1740.23,405.892 1739.8,405.365 1739.36,404.84L1740.01,405.629L1740.66,406.42ZM1737.39,402.486C1737.7,402.849 1738.01,403.214 1738.31,403.58C1738.01,403.214 1737.7,402.85 1737.39,402.486ZM1731.34,395.555C1731.87,396.147 1732.4,396.741 1732.93,397.338C1732.18,396.487 1731.41,395.639 1730.65,394.797L1731.34,395.555ZM1727.16,391.048C1727.56,391.464 1727.95,391.88 1728.34,392.298C1727.95,391.88 1727.55,391.464 1727.16,391.048ZM1719.95,383.756C1720.29,384.087 1720.63,384.42 1720.97,384.753C1720.63,384.42 1720.29,384.088 1719.95,383.756ZM1718.27,382.142C1717.84,381.733 1717.41,381.326 1716.98,380.92L1717.73,381.624L1718.27,382.142ZM1710.86,375.393C1711.28,375.753 1711.69,376.115 1712.1,376.478L1711.64,376.073L1710.86,375.393ZM1704.83,370.358C1704.35,369.976 1703.87,369.597 1703.39,369.22L1704.15,369.819L1704.83,370.358ZM1701.09,367.45C1700.58,367.061 1700.06,366.674 1699.54,366.291L1700.32,366.868L1701.09,367.45ZM1694.83,362.916C1695.62,363.466 1696.41,364.022 1697.2,364.584L1697.98,365.149C1697.2,364.582 1696.41,364.021 1695.62,363.468L1694.83,362.916ZM1692.44,361.288C1692.7,361.467 1692.97,361.646 1693.24,361.826L1694.03,362.369C1693.77,362.187 1693.5,362.006 1693.24,361.826L1692.44,361.288ZM1458.25,746.274C1458.26,746.169 1458.28,746.064 1458.29,745.96L1458.26,746.203L1458.25,746.274Z" style="fill:rgb(255,0,86);"/>
            </g>
            <g transform="matrix(1,0,0,1.62316,0,-411.326)">
                <g transform="matrix(0.370336,0,0,1,-1508.07,102.204)">
                    <path d="M2771.57,729.749L2772.21,730.177L2772.64,730.815L2772.8,731.569L2772.8,732.258L2772.81,732.948L2772.82,733.639L2772.83,734.328L2772.67,735.119L2772.22,735.785L2720.22,785.964L2719.54,786.397L2718.74,786.522L2718.39,786.505L2718.05,786.488L2717.7,786.469L2717.36,786.449L2717.01,786.428L2716.67,786.407L2716.32,786.384L2715.98,786.361L2715.24,786.165L2714.63,785.707L2714.24,785.052L2714.12,784.297L2714.29,783.553L2714.73,782.927L2769.41,730.156L2770.05,729.738L2770.81,729.595L2771.57,729.749ZM2418.39,546.265L2419.03,546.737L2419.43,547.421L2419.54,548.209L2419.33,548.977L2418.66,550.317L2417.99,551.657L2417.32,552.998L2416.65,554.341L2416.25,554.889L2177.19,785.61L2176.48,786.049L2175.66,786.166L2174.7,786.102L2174.44,786.066L2174.25,786.028L2174.06,785.991L2173.69,785.918L2173.31,785.847L2172.93,785.776L2172.13,785.436L2171.55,784.789L2171.3,783.956L2171.42,783.096L2171.9,782.371L2416.16,546.641L2416.83,546.213L2417.61,546.081L2418.39,546.265ZM2394.17,595.85L2394.81,596.315L2395.22,596.994L2395.33,597.778L2395.13,598.545L2394.49,599.861L2393.85,601.178L2393.2,602.494L2392.56,603.809L2392.15,604.369L2205.6,784.408L2205.08,784.771L2204.47,784.952L2204.06,785.007L2203.64,785.06L2203.22,785.113L2202.81,785.164L2202.39,785.215L2201.97,785.265L2201.55,785.314L2201.14,785.361L2200.32,785.284L2199.6,784.884L2199.1,784.227L2198.91,783.426L2199.06,782.616L2199.52,781.935L2391.95,596.229L2392.61,595.803L2393.39,595.669L2394.17,595.85ZM2716.12,784.366L2716.46,784.389L2716.8,784.411L2717.14,784.432L2717.47,784.452L2717.81,784.472L2718.15,784.49L2718.49,784.508L2718.83,784.525L2770.83,734.345L2770.82,733.658L2770.81,732.97L2770.8,732.283L2770.8,731.595L2716.12,784.366ZM2173.29,783.81L2173.68,783.881L2174.06,783.954L2174.45,784.029L2174.64,784.067L2174.84,784.107L2175.8,784.171L2414.86,553.45L2415.53,552.106L2416.2,550.763L2416.87,549.421L2417.55,548.08L2173.29,783.81ZM2770.79,704.24L2771.43,704.652L2771.87,705.273L2772.04,706.014L2772.1,707.352L2772.15,708.69L2772.01,709.515L2771.54,710.21L2695.91,783.2L2695.4,783.561L2694.79,783.743L2694.16,783.727L2693.55,783.615L2692.95,783.5L2692.34,783.382L2691.74,783.263L2690.94,782.917L2690.37,782.268L2690.13,781.438L2690.26,780.583L2690.73,779.862L2768.66,704.658L2769.3,704.243L2770.04,704.097L2770.79,704.24ZM2200.91,783.374L2201.33,783.327L2201.74,783.279L2202.15,783.23L2202.56,783.179L2202.98,783.128L2203.39,783.076L2203.8,783.023L2204.21,782.969L2390.76,602.93L2391.41,601.615L2392.05,600.3L2392.69,598.984L2393.33,597.668L2200.91,783.374ZM2692.12,781.301L2692.72,781.419L2693.32,781.536L2693.92,781.649L2694.53,781.761L2770.16,708.771L2770.1,707.434L2770.05,706.097L2692.12,781.301ZM2449.93,489.712L2450.57,490.231L2450.94,490.964L2450.99,491.786L2450.7,492.557L2450.16,493.418L2449.62,494.278L2449.08,495.139L2448.55,496.001L2448.01,496.864L2447.48,497.728L2446.95,498.593L2446.42,499.461L2446.1,499.859L2157.5,778.387L2156.94,778.769L2156.28,778.94L2155.6,778.882L2154.99,778.6L2154.77,778.454L2154.55,778.303L2154.33,778.151L2154.12,777.998L2153.9,777.843L2153.69,777.687L2153.47,777.53L2153.26,777.376L2152.7,776.726L2152.46,775.898L2152.59,775.047L2153.06,774.329L2447.62,490.051L2448.32,489.613L2449.14,489.493L2449.93,489.712ZM2769.4,679.328L2770.04,679.726L2770.49,680.332L2770.68,681.06L2770.76,682.367L2770.85,683.675L2770.72,684.527L2770.24,685.245L2674.4,777.746L2673.8,778.144L2673.1,778.305L2672.39,778.208L2671.85,778.032L2671.3,777.853L2670.76,777.672L2670.22,777.49L2669.52,777.078L2669.04,776.421L2668.86,775.628L2669.02,774.828L2669.47,774.156L2767.29,679.754L2767.92,679.343L2768.66,679.194L2769.4,679.328ZM2762.2,765.34L2762.84,765.914L2763.17,766.699L2763.15,767.552L2762.77,768.318L2762.63,768.495L2762.48,768.675L2762.34,768.854L2762.19,769.032L2762.05,769.209L2761.9,769.387L2761.75,769.562L2761.6,769.738L2761.45,769.913L2761.3,770.087L2761.15,770.26L2760.99,770.432L2760.84,770.605L2760.68,770.776L2760.53,770.946L2760.38,771.106L2760.18,771.327L2759.97,771.558L2759.76,771.787L2759.54,772.016L2759.33,772.243L2759.11,772.469L2758.89,772.693L2758.67,772.916L2758.44,773.137L2758.22,773.357L2757.99,773.576L2757.77,773.793L2757.54,774.008L2757.31,774.223L2757.08,774.435L2756.85,774.646L2756.61,774.856L2756.38,775.064L2756.14,775.271L2755.9,775.476L2755.66,775.68L2755.42,775.882L2755.18,776.082L2754.93,776.281L2754.69,776.478L2754.44,776.673L2754.19,776.867L2753.94,777.06L2753.69,777.251L2753.44,777.439L2753.18,777.627L2752.93,777.809L2752.15,778.152L2751.3,778.139L2750.53,777.774L2749.99,777.121L2749.76,776.301L2749.89,775.46L2750.37,774.752L2759.82,765.634L2760.54,765.186L2761.39,765.081L2762.2,765.34ZM2367.23,648.137L2367.87,648.631L2368.26,649.339L2368.34,650.144L2368.09,650.915L2367.66,651.691L2367.22,652.468L2366.78,653.244L2366.34,654.019L2365.89,654.793L2365.45,655.567L2365,656.341L2364.56,657.112L2364.22,657.552L2241.97,775.527L2241.27,775.968L2240.7,776.173L2240.13,776.377L2239.56,776.579L2238.99,776.779L2238.42,776.977L2237.85,777.173L2237.28,777.367L2236.71,777.558L2235.95,777.658L2235.21,777.464L2234.6,777.007L2234.2,776.352L2234.08,775.596L2234.25,774.85L2234.69,774.222L2364.96,648.495L2365.64,648.062L2366.44,647.936L2367.23,648.137ZM2154.45,775.769L2154.66,775.92L2154.86,776.07L2155.07,776.22L2155.28,776.368L2155.48,776.514L2155.69,776.66L2155.9,776.804L2156.11,776.948L2444.71,498.419L2445.24,497.55L2445.78,496.681L2446.31,495.813L2446.85,494.946L2447.39,494.08L2447.93,493.216L2448.47,492.352L2449.01,491.49L2154.45,775.769ZM2670.86,775.595L2671.4,775.776L2671.93,775.955L2672.47,776.132L2673.01,776.307L2768.85,683.806L2768.77,682.5L2768.68,681.194L2670.86,775.595ZM2751.76,776.191L2752,776.014L2752.24,775.834L2752.49,775.653L2752.73,775.471L2752.97,775.287L2753.2,775.101L2753.44,774.914L2753.67,774.725L2753.91,774.535L2754.14,774.343L2754.37,774.15L2754.6,773.955L2754.83,773.759L2755.06,773.561L2755.28,773.361L2755.51,773.161L2755.73,772.958L2755.95,772.755L2756.17,772.55L2756.39,772.343L2756.61,772.135L2756.82,771.926L2757.04,771.715L2757.25,771.503L2757.46,771.289L2757.67,771.074L2757.88,770.858L2758.09,770.641L2758.3,770.422L2758.5,770.202L2758.7,769.98L2758.91,769.757L2759.05,769.595L2759.2,769.431L2759.35,769.267L2759.5,769.102L2759.65,768.937L2759.79,768.771L2759.94,768.604L2760.08,768.437L2760.22,768.268L2760.37,768.1L2760.51,767.93L2760.65,767.76L2760.79,767.589L2760.93,767.418L2761.07,767.246L2761.2,767.073L2751.76,776.191ZM2236.08,775.661L2236.64,775.472L2237.21,775.28L2237.77,775.087L2238.34,774.891L2238.9,774.693L2239.46,774.493L2240.02,774.292L2240.59,774.088L2362.83,656.113L2363.27,655.343L2363.71,654.572L2364.16,653.8L2364.6,653.028L2365.04,652.256L2365.48,651.482L2365.91,650.708L2366.35,649.934L2236.08,775.661ZM2767.4,655.004L2768.03,655.387L2768.49,655.977L2768.69,656.692L2768.82,657.967L2768.93,659.243L2768.9,659.837L2768.69,660.395L2768.33,660.868L2655.07,770.173L2654.4,770.601L2653.62,770.733L2652.84,770.549L2652.36,770.323L2651.86,770.094L2651.38,769.864L2650.89,769.634L2650.27,769.178L2649.87,768.523L2649.74,767.765L2649.91,767.017L2650.36,766.387L2765.31,655.44L2765.94,655.032L2766.66,654.88L2767.4,655.004ZM2651.74,767.826L2652.23,768.055L2652.71,768.283L2653.2,768.509L2653.68,768.734L2766.94,659.429L2766.82,658.154L2766.7,656.88L2651.74,767.826ZM2235.8,673.353L2236.37,674.003L2236.61,674.831L2236.48,675.684L2236,676.403L2144.34,764.867L2143.59,765.323L2142.72,765.414L2141.89,765.123L2141.27,764.505L2141.11,764.254L2140.95,764.003L2140.75,763.689L2140.65,763.526L2140.55,763.363L2140.45,763.199L2140.35,763.035L2140.25,762.872L2140.15,762.711L2139.91,762.089L2139.89,761.423L2140.09,760.786L2140.48,760.249L2227.32,676.448L2227.99,676.018L2228.79,675.889L2229.57,676.082L2229.7,676.185L2230.07,675.915L2230.44,675.642L2230.81,675.367L2231.18,675.09L2231.55,674.812L2231.92,674.532L2232.28,674.251L2232.64,673.968L2233.01,673.684L2233.37,673.395L2234.15,673.018L2235.01,673.004L2235.8,673.353ZM2234.25,675.255L2233.88,675.545L2233.51,675.833L2233.13,676.119L2232.76,676.404L2232.39,676.688L2232.01,676.97L2231.63,677.25L2231.26,677.528L2230.88,677.805L2230.49,678.081L2230.11,678.354L2229.73,678.626L2229.34,678.897L2228.96,679.165L2228.57,679.432L2228.64,678.66L2228.7,677.887L2141.87,761.688L2141.97,761.846L2142.06,762.003L2142.16,762.16L2142.25,762.316L2142.35,762.472L2142.44,762.627L2142.64,762.937L2142.79,763.183L2142.95,763.428L2234.61,674.964L2234.25,675.255ZM2764.78,631.273L2765.41,631.641L2765.88,632.214L2766.1,632.914L2766.25,634.158L2766.4,635.403L2766.38,636.016L2766.18,636.594L2765.8,637.083L2637.52,760.887L2636.79,761.339L2635.93,761.437L2635.1,761.161L2634.66,760.893L2634.21,760.622L2633.76,760.35L2633.32,760.077L2632.78,759.592L2632.45,758.946L2632.37,758.225L2632.56,757.524L2632.98,756.934L2762.72,631.719L2763.34,631.315L2764.05,631.159L2764.78,631.273ZM2634.37,758.373L2634.81,758.644L2635.25,758.913L2635.69,759.181L2636.14,759.448L2764.42,635.644L2764.26,634.401L2764.11,633.158L2634.37,758.373ZM2761.94,608.321L2762.57,608.921L2762.88,609.73L2763.07,610.942L2763.25,612.156L2763.24,612.789L2763.04,613.389L2762.66,613.895L2621.51,750.119L2620.93,750.511L2620.25,750.676L2619.55,750.596L2618.92,750.279L2618.51,749.974L2618.11,749.666L2617.7,749.357L2617.3,749.048L2616.74,748.397L2616.51,747.574L2616.65,746.73L2617.12,746.019L2759.51,608.593L2760.26,608.141L2761.12,608.044L2761.94,608.321ZM2618.51,747.458L2618.91,747.766L2619.31,748.072L2619.72,748.376L2620.12,748.68L2761.27,612.456L2761.09,611.244L2760.9,610.033L2618.51,747.458ZM2232.7,646.881L2233.34,647.386L2233.72,648.103L2233.79,648.915L2233.6,650.488L2233.41,652.061L2233.21,652.712L2232.81,653.26L2137.41,745.336L2136.79,745.743L2136.06,745.896L2135.33,745.776L2134.7,745.397L2134.24,744.813L2134.03,744.103L2133.99,743.777L2133.96,743.446L2133.93,743.114L2133.9,742.782L2133.88,742.451L2133.85,742.119L2133.83,741.788L2133.8,741.461L2133.93,740.608L2134.41,739.889L2230.42,647.232L2231.11,646.798L2231.91,646.674L2232.7,646.881ZM2135.8,741.328L2135.82,741.65L2135.84,741.971L2135.87,742.293L2135.89,742.614L2135.92,742.935L2135.95,743.256L2135.98,743.576L2136.02,743.897L2231.42,651.821L2231.61,650.246L2231.81,648.671L2135.8,741.328ZM2669.56,670.711L2670.19,671.072L2670.57,671.394L2670.95,671.711L2671.33,672.027L2671.72,672.343L2672.24,672.998L2672.45,673.808L2672.3,674.633L2671.84,675.327L2606.89,738.008L2606.26,738.418L2605.53,738.569L2604.79,738.438L2604.15,738.045L2603.78,737.706L2603.41,737.364L2603.04,737.022L2602.67,736.68L2602.2,736.023L2602.03,735.233L2602.18,734.44L2602.64,733.773L2667.51,671.162L2668.12,670.759L2668.84,670.602L2669.56,670.711ZM2604.03,735.212L2604.39,735.553L2604.76,735.892L2605.13,736.231L2605.5,736.569L2670.45,673.888L2670.06,673.569L2669.67,673.248L2669.29,672.925L2668.9,672.601L2604.03,735.212ZM2656.3,657.552L2656.94,658.03L2657.27,658.401L2657.61,658.769L2657.94,659.135L2658.27,659.502L2658.67,660.157L2658.79,660.913L2658.62,661.66L2658.18,662.287L2593.46,724.746L2592.8,725.171L2592.02,725.306L2591.25,725.131L2590.61,724.673L2590.27,724.307L2589.93,723.938L2589.58,723.569L2589.24,723.2L2588.84,722.545L2588.71,721.786L2588.88,721.034L2589.32,720.403L2654.06,657.922L2654.74,657.493L2655.53,657.363L2656.3,657.552ZM2590.71,721.842L2591.05,722.209L2591.39,722.576L2591.73,722.942L2592.07,723.307L2656.79,660.848L2656.45,660.478L2656.12,660.107L2655.78,659.735L2655.45,659.362L2590.71,721.842ZM2236.99,616.569L2237.62,617.092L2237.99,617.829L2238.04,618.654L2237.91,619.47L2237.78,620.285L2237.66,621.1L2237.53,621.917L2237.33,622.533L2236.94,623.052L2137.56,718.963L2136.9,719.387L2136.13,719.523L2135.36,719.352L2134.72,718.899L2134.3,718.234L2134.18,717.459L2134.23,715.767L2134.27,714.586L2134.44,713.84L2134.88,713.214L2234.67,616.904L2235.37,616.465L2236.19,616.347L2236.99,616.569ZM2136.27,714.653L2136.23,715.833L2136.17,717.524L2235.55,621.613L2235.68,620.795L2235.81,619.978L2235.93,619.16L2236.06,618.343L2136.27,714.653ZM2644.58,642.835L2645.21,643.396L2645.51,643.801L2645.8,644.204L2646.1,644.606L2646.4,645.009L2646.72,645.652L2646.79,646.366L2646.6,647.059L2646.18,647.641L2581.03,710.519L2580.34,710.956L2579.53,711.076L2578.73,710.86L2578.09,710.343L2577.78,709.953L2577.46,709.56L2577.14,709.167L2576.82,708.775L2576.47,708.126L2576.39,707.395L2576.57,706.681L2576.99,706.081L2642.21,643.139L2642.93,642.694L2643.77,642.586L2644.58,642.835ZM2578.38,707.52L2578.7,707.911L2579.01,708.301L2579.33,708.691L2579.64,709.08L2644.8,646.202L2644.5,645.797L2644.2,645.392L2643.9,644.985L2643.6,644.578L2578.38,707.52ZM2633.85,627.081L2634.47,627.693L2635.03,628.545L2635.58,629.397L2635.85,630.029L2635.89,630.714L2635.7,631.373L2635.3,631.928L2569.48,695.447L2568.76,695.894L2567.91,696L2567.1,695.745L2566.47,695.176L2565.88,694.354L2565.29,693.529L2564.98,692.889L2564.92,692.184L2565.11,691.501L2565.52,690.927L2631.41,627.342L2632.16,626.887L2633.02,626.794L2633.85,627.081ZM2566.91,692.366L2567.5,693.188L2568.09,694.008L2633.91,630.489L2633.35,629.636L2632.8,628.781L2566.91,692.366ZM2242.77,584.827L2243.4,585.378L2243.76,586.141L2243.76,586.982L2243.59,587.845L2243.41,588.707L2243.24,589.569L2243.06,590.433L2242.86,590.998L2242.49,591.477L2138.79,691.556L2138.12,691.983L2137.34,692.116L2136.57,691.934L2135.93,691.466L2135.52,690.785L2135.41,689.999L2135.49,688.618L2135.58,687.045L2135.76,686.329L2136.19,685.727L2240.42,585.14L2241.13,584.696L2241.96,584.585L2242.77,584.827ZM2137.58,687.167L2137.48,688.737L2137.4,690.117L2241.1,590.038L2241.28,589.173L2241.45,588.308L2241.63,587.443L2241.8,586.579L2137.58,687.167ZM2623.26,610.46L2623.89,610.8L2624.36,611.342L2624.88,612.223L2625.41,613.104L2625.65,613.726L2625.67,614.393L2625.47,615.03L2625.08,615.567L2558.68,679.649L2557.93,680.104L2557.06,680.197L2556.24,679.909L2555.61,679.297L2555.06,678.439L2554.5,677.581L2554.24,676.95L2554.2,676.267L2554.39,675.611L2554.8,675.058L2621.25,610.923L2621.85,610.525L2622.55,610.364L2623.26,610.46ZM2556.18,676.498L2556.74,677.354L2557.29,678.21L2623.69,614.128L2623.16,613.246L2622.64,612.362L2556.18,676.498ZM2758.08,585.773L2758.71,586.35L2759.04,587.138L2759.25,588.258L2759.48,589.503L2759.49,590.156L2759.29,590.778L2758.9,591.303L2678.46,668.939L2677.84,669.347L2677.11,669.5L2676.37,669.376L2675.74,668.992L2675.28,668.403L2675.08,667.688L2674.96,666.417L2674.84,665.147L2674.87,664.55L2675.07,663.99L2675.44,663.516L2755.69,586.065L2756.42,585.616L2757.27,585.513L2758.08,585.773ZM2676.83,664.955L2676.95,666.227L2677.07,667.5L2757.51,589.863L2757.28,588.62L2757.08,587.504L2676.83,664.955ZM2251.1,550.654L2251.73,551.247L2252.05,552.049L2252.01,552.911L2251.74,553.855L2251.48,554.798L2251.22,555.742L2250.96,556.689L2250.75,557.182L2250.42,557.602L2140.87,663.328L2140.19,663.759L2139.4,663.887L2138.62,663.693L2137.98,663.207L2137.58,662.508L2137.49,661.709L2137.63,660.184L2137.77,658.659L2137.95,657.976L2138.37,657.403L2248.69,550.933L2249.43,550.481L2250.28,550.382L2251.1,550.654ZM2613.67,593.545L2614.3,593.907L2614.76,594.472L2615.24,595.344L2615.76,596.284L2616,597.113L2615.88,597.968L2615.4,598.689L2548.51,663.242L2547.91,663.64L2547.21,663.801L2546.5,663.705L2545.87,663.364L2545.4,662.822L2544.88,661.936L2544.35,661.049L2544.11,660.428L2544.09,659.764L2544.29,659.129L2544.69,658.594L2611.62,593.995L2612.23,593.593L2612.94,593.435L2613.67,593.545ZM2139.76,658.842L2139.62,660.365L2139.48,661.889L2249.03,556.162L2249.29,555.214L2249.55,554.266L2249.81,553.318L2250.08,552.372L2139.76,658.842ZM2546.08,660.033L2546.6,660.919L2547.12,661.803L2614.01,597.25L2613.49,596.308L2613.01,595.434L2546.08,660.033ZM2583.66,333.83L2584.24,333.97L2584.82,334.112L2585.4,334.257L2585.97,334.403L2586.73,334.778L2587.26,335.431L2587.48,336.247L2587.34,337.079L2586.87,337.781L2253.58,659.443L2252.84,659.896L2251.98,659.993L2251.15,659.717L2250.53,659.12L2250.21,658.314L2250.26,657.449L2250.68,656.688L2251.01,656.314L2251.33,655.942L2251.65,655.567L2251.98,655.193L2252.3,654.817L2252.62,654.44L2252.93,654.062L2253.25,653.684L2253.57,653.304L2253.89,652.924L2254.2,652.542L2254.51,652.16L2254.83,651.778L2255.14,651.394L2255.45,651.009L2255.76,650.624L2256.07,650.238L2256.38,649.851L2256.69,649.463L2256.99,649.074L2257.3,648.685L2257.6,648.296L2257.91,647.905L2258.21,647.514L2258.51,647.122L2258.81,646.729L2259.11,646.336L2259.41,645.943L2259.71,645.548L2260.01,645.153L2260.3,644.758L2260.6,644.36L2260.82,644.118L2581.8,334.335L2582.35,333.958L2582.99,333.783L2583.66,333.83ZM2262.2,645.557L2261.91,645.956L2261.61,646.355L2261.31,646.753L2261.01,647.151L2260.7,647.548L2260.4,647.945L2260.1,648.341L2259.79,648.736L2259.49,649.131L2259.18,649.525L2258.87,649.919L2258.56,650.312L2258.25,650.704L2257.94,651.095L2257.63,651.486L2257.32,651.876L2257.01,652.265L2256.69,652.654L2256.38,653.041L2256.06,653.428L2255.74,653.814L2255.43,654.2L2255.11,654.584L2254.79,654.968L2254.47,655.35L2254.14,655.732L2253.82,656.113L2253.49,656.493L2253.17,656.872L2252.84,657.251L2252.51,657.628L2252.19,658.004L2585.48,336.341L2584.91,336.197L2584.34,336.054L2583.76,335.913L2583.19,335.774L2262.2,645.557ZM2604.49,576.221L2605.12,576.598L2605.58,577.182L2606.06,578.108L2606.54,579.034L2606.76,579.852L2606.62,580.688L2606.15,581.393L2538.85,646.348L2538.24,646.75L2537.52,646.908L2536.8,646.799L2536.17,646.439L2535.7,645.876L2535.01,644.61L2534.7,644.058L2534.46,643.229L2534.59,642.375L2535.07,641.656L2602.41,576.661L2603.03,576.254L2603.76,576.101L2604.49,576.221ZM2753.6,563.822L2754.24,564.377L2754.59,565.144L2754.9,566.57L2755.09,567.445L2755.12,568.119L2754.92,568.764L2754.52,569.307L2675.86,645.224L2675.25,645.628L2674.53,645.784L2673.81,645.671L2673.17,645.304L2672.71,644.733L2672.49,644.034L2672.38,643.138L2672.17,641.564L2672.19,640.946L2672.39,640.363L2672.77,639.87L2751.24,564.132L2751.96,563.688L2752.8,563.578L2753.6,563.822ZM2536.46,643.095L2536.76,643.645L2537.46,644.909L2604.76,579.954L2604.28,579.027L2603.8,578.1L2536.46,643.095ZM2674.16,641.309L2674.36,642.886L2674.47,643.785L2753.13,567.868L2752.95,566.996L2752.63,565.571L2674.16,641.309ZM2263.97,511.644L2264.61,512.074L2265.04,512.716L2265.2,513.472L2265.06,514.231L2264.83,514.787L2264.61,515.343L2264.39,515.898L2264.17,516.455L2263.95,517.012L2263.74,517.569L2263.52,518.126L2263.3,518.686L2262.83,519.405L2143.98,634.103L2143.29,634.538L2142.49,634.661L2141.7,634.453L2141.06,633.947L2140.67,633.229L2140.61,632.416L2140.71,631.624L2140.81,630.831L2140.91,630.037L2141.01,629.246L2141.2,628.602L2141.6,628.06L2261.81,512.048L2262.46,511.63L2263.22,511.488L2263.97,511.644ZM2142.99,629.499L2142.89,630.29L2142.79,631.081L2142.69,631.872L2142.59,632.664L2261.44,517.965L2261.66,517.404L2261.87,516.844L2262.09,516.283L2262.31,515.723L2262.53,515.164L2262.75,514.605L2262.98,514.046L2263.2,513.487L2142.99,629.499ZM2595.6,558.597L2596.24,558.986L2596.69,559.581L2597.53,561.285L2597.62,561.457L2597.83,562.268L2597.69,563.094L2597.22,563.788L2529.56,629.084L2528.95,629.49L2528.22,629.645L2527.49,629.526L2526.86,629.151L2526.4,628.571L2525.92,627.646L2525.44,626.72L2525.21,625.901L2525.35,625.063L2525.82,624.357L2593.51,559.031L2594.13,558.622L2594.87,558.47L2595.6,558.597ZM2527.21,625.796L2527.69,626.721L2528.17,627.645L2595.83,562.349L2595.74,562.175L2594.9,560.47L2527.21,625.796ZM2748.51,542.466L2749.14,542.997L2749.51,543.741L2749.84,545.048L2750.08,545.98L2750.13,546.674L2749.93,547.344L2749.53,547.907L2672.58,622.171L2671.84,622.622L2670.98,622.721L2670.16,622.447L2669.53,621.853L2669.21,621.049L2669.02,619.848L2668.83,618.648L2668.83,618.008L2669.03,617.4L2669.41,616.888L2746.18,542.795L2746.89,542.355L2747.71,542.239L2748.51,542.466ZM2670.8,618.327L2670.99,619.529L2671.19,620.731L2748.14,546.468L2747.9,545.538L2747.57,544.234L2670.8,618.327ZM2586.89,540.793L2587.53,541.187L2587.98,541.789L2588.2,542.232L2588.9,543.68L2589.1,544.486L2588.95,545.304L2588.49,545.993L2520.59,611.52L2519.97,611.929L2519.24,612.081L2518.5,611.955L2517.87,611.568L2517.41,610.975L2516.58,609.299L2516.48,609.096L2516.27,608.286L2516.41,607.461L2516.88,606.767L2584.79,541.222L2585.42,540.811L2586.16,540.661L2586.89,540.793ZM2518.27,608.206L2518.37,608.407L2519.2,610.081L2587.1,544.554L2586.4,543.105L2586.18,542.661L2518.27,608.206ZM2294.27,456.498L2294.9,457.066L2295.24,457.845L2295.23,458.696L2294.86,459.463L2294.65,459.735L2294.44,460.006L2294.23,460.279L2294.02,460.552L2293.81,460.825L2293.6,461.099L2293.4,461.374L2293.19,461.65L2292.99,461.925L2292.78,462.202L2292.58,462.479L2292.37,462.757L2292.17,463.036L2291.96,463.315L2291.76,463.594L2291.56,463.874L2291.36,464.156L2291.16,464.437L2290.96,464.719L2290.76,465.001L2290.56,465.285L2290.36,465.569L2290.16,465.853L2289.96,466.137L2289.77,466.423L2289.57,466.709L2289.38,466.996L2289.18,467.283L2288.99,467.57L2288.79,467.858L2288.4,468.44L2288.13,468.766L2148.37,603.643L2147.67,604.082L2146.85,604.199L2146.05,603.974L2145.42,603.446L2145.05,602.705L2145.01,601.877L2145.15,601.047L2145.29,600.216L2145.43,599.386L2145.57,598.557L2145.77,597.957L2146.15,597.451L2291.89,456.797L2292.61,456.35L2293.46,456.244L2294.27,456.498ZM2147.54,598.89L2147.4,599.718L2147.26,600.546L2147.12,601.375L2146.99,602.204L2286.74,467.327L2287.13,466.742L2287.33,466.45L2287.53,466.159L2287.72,465.868L2287.92,465.578L2288.12,465.289L2288.32,465L2288.52,464.711L2288.72,464.423L2288.92,464.136L2289.12,463.849L2289.33,463.563L2289.53,463.277L2289.73,462.992L2289.94,462.707L2290.14,462.423L2290.35,462.14L2290.55,461.857L2290.76,461.575L2290.97,461.293L2291.17,461.012L2291.38,460.732L2291.59,460.452L2291.8,460.173L2292.01,459.894L2292.22,459.616L2292.43,459.339L2292.64,459.062L2292.85,458.786L2293.07,458.51L2293.28,458.236L2147.54,598.89ZM2742.79,521.702L2743.43,522.209L2743.82,522.929L2744.05,523.719L2744.45,525.105L2744.52,525.821L2744.34,526.516L2743.91,527.1L2668.61,599.782L2667.88,600.229L2667.04,600.335L2666.22,600.08L2665.59,599.51L2665.25,598.729L2665.02,597.563L2664.79,596.399L2664.77,595.736L2664.97,595.103L2665.37,594.57L2740.51,522.051L2741.2,521.616L2742,521.493L2742.79,521.702ZM2666.76,596.009L2666.99,597.176L2667.22,598.343L2742.53,525.661L2742.13,524.278L2741.9,523.49L2666.76,596.009ZM2578.24,522.927L2578.87,523.321L2579.32,523.922L2580.24,525.815L2580.44,526.622L2580.3,527.439L2579.83,528.128L2511.83,593.76L2511.2,594.17L2510.46,594.321L2509.73,594.19L2509.09,593.798L2508.64,593.198L2507.87,591.613L2507.72,591.308L2507.51,590.501L2507.66,589.682L2508.12,588.992L2576.13,523.356L2576.76,522.946L2577.5,522.796L2578.24,522.927ZM2509.51,590.431L2509.66,590.736L2510.44,592.321L2578.44,526.688L2577.52,524.795L2509.51,590.431ZM2560.91,329.953L2561.57,330.021L2562.22,330.092L2562.87,330.164L2563.59,330.386L2564.18,330.855L2564.55,331.507L2564.65,332.25L2564.47,332.979L2564.04,333.591L2299.41,588.989L2298.73,589.419L2297.94,589.548L2297.16,589.356L2296.52,588.873L2296.12,588.177L2296.03,587.38L2296.25,586.61L2296.63,585.904L2297.01,585.198L2297.38,584.491L2297.75,583.785L2298.12,583.078L2298.5,582.37L2298.87,581.662L2299.24,580.953L2299.62,580.442L2558.67,330.439L2559.4,329.989L2560.25,329.888L2560.91,329.953ZM2301.01,581.881L2300.64,582.591L2300.27,583.301L2299.89,584.01L2299.52,584.719L2299.15,585.427L2298.77,586.135L2298.39,586.843L2298.02,587.55L2562.65,332.152L2562,332.08L2561.36,332.01L2560.71,331.943L2560.06,331.878L2301.01,581.881ZM2736.46,501.533L2737.1,502.014L2737.5,502.709L2737.85,503.764L2738.2,504.82L2738.3,505.557L2738.12,506.279L2737.69,506.885L2663.95,578.057L2663.24,578.5L2662.41,578.612L2661.6,578.376L2660.97,577.832L2660.61,577.075L2660.34,575.945L2660.08,574.816L2660.03,574.13L2660.23,573.47L2660.63,572.915L2734.22,501.901L2734.89,501.471L2735.68,501.341L2736.46,501.533ZM2662.02,574.354L2662.29,575.486L2662.56,576.618L2736.3,505.446L2735.95,504.393L2735.61,503.34L2662.02,574.354ZM2569.5,505.122L2570.14,505.51L2570.59,506.104L2570.75,506.425L2571.52,507.988L2571.73,508.798L2571.59,509.621L2571.12,510.314L2503.14,575.919L2502.51,576.329L2501.78,576.479L2501.04,576.349L2500.4,575.956L2499.95,575.355L2499.03,573.464L2498.83,572.657L2498.98,571.839L2499.44,571.149L2567.41,505.556L2568.03,505.147L2568.76,504.995L2569.5,505.122ZM2500.83,572.589L2501.75,574.48L2569.73,508.875L2568.96,507.314L2568.8,506.995L2500.83,572.589ZM2394.97,332.279L2395.57,332.398L2396.18,332.519L2396.78,332.642L2397.38,332.767L2398.16,333.119L2398.72,333.769L2398.96,334.596L2398.83,335.447L2398.36,336.164L2154.4,571.604L2153.68,572.049L2152.85,572.159L2152.04,571.914L2151.41,571.359L2151.06,570.592L2151.05,569.749L2151.24,568.87L2151.43,567.991L2151.62,567.111L2151.81,566.234L2152.02,565.684L2152.38,565.219L2393.2,332.802L2393.72,332.438L2394.34,332.257L2394.97,332.279ZM2153.77,566.658L2153.58,567.534L2153.39,568.411L2153.2,569.288L2153.01,570.165L2396.97,334.725L2396.37,334.601L2395.78,334.479L2395.18,334.359L2394.59,334.242L2153.77,566.658ZM2560.56,487.502L2561.2,487.879L2561.65,488.462L2562.13,489.39L2562.61,490.319L2562.83,491.136L2562.7,491.972L2562.22,492.675L2494.42,558.113L2493.8,558.522L2493.06,558.673L2492.33,558.546L2491.69,558.157L2491.24,557.561L2490.57,556.215L2490.31,555.682L2490.1,554.872L2490.24,554.048L2490.71,553.354L2558.49,487.942L2559.11,487.536L2559.83,487.382L2560.56,487.502ZM2729.45,482.012L2730.09,482.464L2730.51,483.128L2730.9,484.147L2731.28,485.166L2731.41,485.927L2731.24,486.68L2730.8,487.313L2658.6,556.995L2657.9,557.432L2657.09,557.552L2656.3,557.335L2655.66,556.818L2655.28,556.087L2654.98,554.992L2654.68,553.898L2654.61,553.188L2654.8,552.501L2655.22,551.923L2727.25,482.402L2727.91,481.978L2728.68,481.841L2729.45,482.012ZM2492.1,554.793L2492.37,555.327L2493.03,556.674L2560.84,491.236L2560.36,490.308L2559.88,489.381L2492.1,554.793ZM2656.6,553.362L2656.91,554.459L2657.21,555.556L2729.41,485.874L2729.03,484.857L2728.64,483.841L2656.6,553.362ZM2551.3,470.181L2551.94,470.543L2552.4,471.108L2553.1,472.39L2553.4,472.931L2553.64,473.759L2553.51,474.61L2553.03,475.328L2485.54,540.458L2484.92,540.865L2484.2,541.019L2483.47,540.897L2482.83,540.518L2482.38,539.932L2481.72,538.654L2481.42,538.077L2481.2,537.26L2481.34,536.425L2481.81,535.722L2549.26,470.631L2549.87,470.228L2550.58,470.071L2551.3,470.181ZM2483.2,537.161L2483.5,537.74L2484.16,539.019L2551.64,473.889L2551.35,473.35L2550.64,472.07L2483.2,537.161ZM2537.09,329.398L2537.77,329.823L2538.23,330.48L2538.39,331.265L2538.24,332.051L2537.78,332.712L2324.82,538.238L2324.16,538.664L2323.38,538.798L2322.61,538.619L2321.97,538.154L2321.55,537.478L2321.44,536.695L2321.64,535.928L2322.37,534.417L2324.16,530.717L2324.57,530.148L2531.95,330L2532.53,329.609L2533.22,329.443L2533.6,329.419L2533.99,329.396L2534.37,329.374L2534.76,329.352L2535.14,329.331L2535.53,329.312L2535.92,329.293L2536.3,329.275L2537.09,329.398ZM2371.26,329.331L2371.95,329.369L2372.63,329.41L2373.32,329.454L2374.06,329.648L2374.67,330.106L2375.07,330.76L2375.19,331.516L2375.02,332.262L2374.58,332.889L2162.61,537.461L2161.88,537.912L2161.02,538.012L2160.2,537.744L2159.57,537.157L2159.25,536.36L2159.29,535.5L2159.54,534.555L2159.8,533.608L2160.06,532.662L2160.32,531.718L2160.53,531.228L2160.86,530.81L2369.08,329.854L2369.77,329.42L2370.58,329.296L2371.26,329.331ZM2721.67,463.219L2722.31,463.637L2722.75,464.264L2722.96,464.753L2723.18,465.244L2723.39,465.735L2723.61,466.225L2723.77,467.012L2723.62,467.8L2723.16,468.464L2652.57,536.597L2651.89,537.028L2651.09,537.156L2650.31,536.959L2649.67,536.471L2649.27,535.769L2648.93,534.711L2648.76,534.184L2648.59,533.655L2648.5,532.921L2648.68,532.203L2649.1,531.599L2719.53,463.632L2720.17,463.216L2720.92,463.072L2721.67,463.219ZM2536.01,331.29L2535.63,331.309L2535.25,331.329L2534.87,331.349L2534.49,331.37L2534.1,331.392L2533.72,331.415L2533.34,331.439L2325.95,531.587L2324.17,535.288L2323.43,536.799L2536.39,331.272L2536.01,331.29ZM2162.25,532.249L2161.99,533.192L2161.73,534.135L2161.47,535.078L2161.22,536.022L2373.19,331.45L2372.51,331.407L2371.83,331.366L2371.15,331.328L2370.47,331.293L2162.25,532.249ZM2650.49,533.038L2650.66,533.568L2650.84,534.097L2651.18,535.158L2721.77,467.024L2721.56,466.536L2721.35,466.047L2721.13,465.559L2720.92,465.072L2650.49,533.038ZM2541.66,453.225L2542.29,453.568L2542.76,454.113L2543.28,455.002L2543.8,455.892L2544.03,456.512L2544.05,457.174L2543.86,457.807L2543.46,458.34L2476.39,523.067L2475.78,523.471L2475.07,523.627L2474.34,523.515L2473.71,523.15L2473.25,522.581L2472.75,521.671L2472.26,520.761L2472.02,519.934L2472.15,519.083L2472.62,518.365L2539.64,453.686L2540.24,453.288L2540.94,453.127L2541.66,453.225ZM2474.01,519.804L2474.51,520.716L2475.01,521.628L2542.07,456.901L2541.55,456.012L2541.03,455.125L2474.01,519.804ZM2713.06,445.223L2713.69,445.604L2714.15,446.19L2714.39,446.657L2714.63,447.127L2714.86,447.596L2715.1,448.064L2715.31,448.878L2715.17,449.707L2714.7,450.405L2645.72,516.981L2645.06,517.404L2644.29,517.541L2643.52,517.371L2642.88,516.92L2642.46,516.257L2642.27,515.752L2642.08,515.248L2641.88,514.745L2641.69,514.241L2641.55,513.475L2641.72,512.716L2642.16,512.077L2710.98,445.662L2711.6,445.254L2712.33,445.101L2713.06,445.223ZM2643.55,513.516L2643.75,514.022L2643.94,514.528L2644.14,515.035L2644.33,515.542L2713.32,448.966L2713.08,448.499L2712.84,448.032L2712.61,447.566L2712.37,447.101L2643.55,513.516ZM2531.99,436.957L2532.62,437.575L2533.17,438.436L2533.72,439.298L2533.98,439.927L2534.01,440.608L2533.82,441.261L2533.42,441.812L2466.86,506.047L2466.26,506.446L2465.56,506.606L2464.84,506.507L2464.21,506.161L2463.74,505.614L2463.22,504.726L2462.71,503.839L2462.47,503.219L2462.45,502.556L2462.65,501.923L2463.04,501.39L2529.54,437.213L2530.29,436.757L2531.16,436.666L2531.99,436.957ZM2464.43,502.829L2464.95,503.718L2465.47,504.608L2532.03,440.372L2531.48,439.512L2530.93,438.652L2464.43,502.829ZM2346.11,330.049L2346.82,330.454L2347.31,331.111L2347.5,331.909L2347.35,332.714L2346.89,333.392L2173.92,500.323L2173.28,500.737L2172.54,500.884L2171.8,500.744L2171.16,500.337L2170.71,499.721L2170.53,498.985L2170.64,498.235L2171,497.188L2171.36,496.139L2171.72,495.091L2172.09,494.045L2172.3,493.627L2172.59,493.268L2340.86,330.868L2341.39,330.5L2342.02,330.321L2342.43,330.273L2342.84,330.226L2343.25,330.18L2343.66,330.134L2344.07,330.09L2344.48,330.046L2344.89,330.004L2345.3,329.963L2346.11,330.049ZM2703.54,428.094L2704.17,428.434L2704.64,428.974L2704.9,429.418L2705.17,429.863L2705.43,430.309L2705.69,430.754L2705.93,431.374L2705.95,432.038L2705.75,432.672L2705.36,433.206L2637.86,498.342L2637.23,498.755L2636.49,498.903L2635.74,498.765L2635.11,498.361L2634.66,497.749L2634.44,497.273L2634.22,496.798L2633.99,496.325L2633.77,495.85L2633.58,495.048L2633.72,494.236L2634.19,493.553L2701.53,428.558L2702.13,428.16L2702.83,427.999L2703.54,428.094ZM2345.09,331.993L2344.69,332.035L2344.28,332.078L2343.87,332.122L2343.47,332.167L2343.06,332.213L2342.66,332.26L2342.25,332.308L2173.98,494.707L2173.61,495.75L2173.25,496.794L2172.89,497.839L2172.53,498.884L2345.5,331.952L2345.09,331.993ZM2635.57,494.992L2635.8,495.469L2636.03,495.946L2636.25,496.424L2636.47,496.903L2703.97,431.766L2703.71,431.323L2703.45,430.881L2703.18,430.438L2702.92,429.997L2635.57,494.992ZM2604.5,340.244L2605.02,340.441L2605.54,340.641L2606.06,340.842L2606.58,341.043L2607.24,341.474L2607.69,342.131L2607.85,342.911L2607.69,343.69L2607.24,344.346L2522.82,425.817L2522.79,425.842L2522.77,425.866L2456.83,489.503L2456.25,489.895L2455.56,490.06L2454.86,489.978L2454.23,489.658L2453.76,489.14L2453.21,488.281L2452.94,487.855L2452.66,487.427L2452.39,486.797L2452.36,486.115L2452.55,485.459L2452.95,484.907L2602.4,340.675L2603.03,340.265L2603.76,340.115L2604.5,340.244ZM2505.85,334.07L2506.41,334.72L2506.66,335.548L2506.52,336.4L2506.05,337.117L2349.66,488.048L2348.98,488.477L2348.19,488.608L2347.42,488.418L2346.78,487.939L2346.38,487.247L2346.28,486.454L2346.5,485.685L2347.23,484.273L2347.97,482.862L2348.34,482.156L2348.71,481.45L2349.09,480.745L2349.46,480.041L2349.84,479.538L2499.4,335.192L2499.82,334.886L2500.29,334.695L2500.78,334.57L2501.27,334.446L2501.76,334.323L2502.24,334.202L2502.73,334.082L2503.22,333.964L2503.71,333.847L2504.2,333.732L2505.06,333.719L2505.85,334.07ZM2454.34,486.346L2454.62,486.775L2454.89,487.204L2455.44,488.064L2521.38,424.426L2521.36,424.397L2521.43,424.377L2605.85,342.906L2605.34,342.706L2604.82,342.507L2604.31,342.31L2603.79,342.114L2454.34,486.346ZM2504.17,335.793L2503.69,335.908L2503.21,336.025L2502.72,336.144L2502.24,336.264L2501.76,336.385L2501.27,336.508L2500.79,336.632L2351.23,480.977L2350.85,481.68L2350.48,482.383L2350.11,483.087L2349.74,483.791L2349.01,485.199L2348.27,486.609L2504.66,335.678L2504.17,335.793ZM2693.52,412.102L2694.15,412.685L2694.44,413.103L2694.73,413.523L2695.02,413.943L2695.3,414.362L2695.59,414.998L2695.65,415.695L2695.46,416.368L2695.05,416.934L2628.81,480.861L2628.2,481.26L2627.5,481.42L2626.79,481.32L2626.15,480.973L2625.69,480.424L2625.43,479.98L2625.17,479.54L2624.92,479.1L2624.66,478.659L2624.42,478.038L2624.4,477.374L2624.6,476.74L2624.99,476.205L2691.12,412.388L2691.85,411.938L2692.7,411.837L2693.52,412.102ZM2626.38,477.644L2626.64,478.088L2626.9,478.532L2627.16,478.977L2627.42,479.422L2693.66,415.494L2693.37,415.077L2693.08,414.66L2692.79,414.243L2692.5,413.827L2626.38,477.644ZM2681.96,396.881L2682.6,397.396L2682.91,397.786L2683.23,398.178L2683.55,398.571L2683.87,398.963L2684.22,399.612L2684.31,400.343L2684.13,401.058L2683.7,401.659L2618.37,464.709L2617.65,465.156L2616.81,465.263L2616,465.011L2615.37,464.446L2615.07,464.04L2614.78,463.638L2614.48,463.237L2614.18,462.834L2613.87,462.191L2613.8,461.478L2613.98,460.786L2614.4,460.204L2679.66,397.224L2680.35,396.787L2681.16,396.666L2681.96,396.881ZM2615.79,461.643L2616.09,462.048L2616.39,462.455L2616.69,462.862L2616.98,463.27L2682.31,400.22L2682,399.83L2681.68,399.44L2681.37,399.051L2681.05,398.663L2615.79,461.643ZM2311.94,337.184L2312.55,337.645L2312.93,338.299L2313.05,339.051L2312.88,339.792L2312.44,340.415L2190.99,457.625L2190.33,458.049L2189.55,458.185L2188.78,458.009L2188.14,457.55L2187.73,456.879L2187.61,456.1L2187.79,455.334L2188.1,454.683L2188.41,454.031L2188.72,453.38L2189.03,452.729L2189.34,452.079L2189.66,451.43L2189.97,450.782L2190.28,450.136L2190.69,449.575L2305.3,338.966L2306.05,338.512L2306.59,338.326L2307.14,338.141L2307.69,337.957L2308.24,337.775L2308.8,337.595L2309.35,337.417L2309.9,337.241L2310.45,337.068L2311.21,336.982L2311.94,337.184ZM2310.5,339.148L2309.96,339.322L2309.41,339.498L2308.87,339.676L2308.32,339.855L2307.78,340.037L2307.23,340.22L2306.69,340.405L2192.08,451.014L2191.77,451.657L2191.45,452.302L2191.14,452.947L2190.83,453.594L2190.52,454.24L2190.22,454.888L2189.91,455.536L2189.6,456.185L2311.05,338.976L2310.5,339.148ZM2669.27,382.74L2669.91,383.182L2670.17,383.449L2670.43,383.718L2670.87,384.176L2671.31,384.633L2671.72,385.289L2671.86,386.055L2671.69,386.816L2671.25,387.455L2606.32,450.121L2605.66,450.542L2604.9,450.681L2604.14,450.517L2603.49,450.074L2603.15,449.718L2602.8,449.367L2602.46,449.017L2602.11,448.666L2601.68,448.009L2601.53,447.235L2601.69,446.464L2602.14,445.816L2667.08,383.137L2667.74,382.716L2668.51,382.577L2669.27,382.74ZM2603.53,447.255L2603.88,447.609L2604.23,447.965L2604.58,448.323L2604.93,448.682L2669.86,386.016L2669.43,385.561L2668.99,385.108L2668.73,384.842L2668.47,384.576L2603.53,447.255ZM2655.24,369.857L2655.87,370.214L2656.26,370.537L2656.65,370.864L2657.04,371.191L2657.43,371.518L2657.93,372.174L2658.13,372.979L2657.99,373.796L2657.52,374.483L2591.98,437.735L2591.41,438.12L2590.75,438.29L2590.06,438.224L2589.44,437.93L2589.03,437.64L2588.62,437.355L2588.21,437.072L2587.79,436.788L2587.29,436.293L2586.99,435.654L2586.93,434.95L2587.11,434.268L2587.53,433.695L2653.2,370.311L2653.81,369.909L2654.52,369.751L2655.24,369.857ZM2416.57,337.959L2417.11,338.138L2417.65,338.32L2418.19,338.503L2418.72,338.687L2419.42,339.102L2419.9,339.759L2420.07,340.551L2419.92,341.348L2419.46,342.018L2326.45,431.787L2326,432.113L2325.71,432.263L2325.44,432.412L2325.16,432.563L2324.88,432.714L2324.61,432.867L2324.33,433.021L2324.06,433.176L2323.79,433.333L2323.51,433.491L2323.24,433.65L2322.97,433.81L2322.7,433.971L2322.43,434.134L2322.16,434.298L2321.89,434.463L2321.63,434.63L2321.21,434.892L2320.8,435.156L2320.38,435.422L2319.97,435.691L2319.56,435.962L2319.16,436.235L2318.75,436.51L2318.34,436.791L2317.56,437.111L2316.72,437.08L2315.96,436.705L2315.43,436.051L2315.21,435.236L2315.35,434.403L2315.82,433.703L2414.55,338.417L2415.15,338.017L2415.86,337.858L2416.57,337.959ZM2588.92,435.135L2589.34,435.421L2589.76,435.711L2590.18,436.002L2590.59,436.296L2656.13,373.044L2655.75,372.719L2655.36,372.395L2654.98,372.072L2654.59,371.75L2588.92,435.135ZM2317.21,435.142L2317.62,434.858L2318.04,434.576L2318.45,434.297L2318.87,434.02L2319.29,433.745L2319.72,433.472L2320.14,433.202L2320.57,432.934L2320.84,432.763L2321.12,432.593L2321.39,432.424L2321.67,432.257L2321.95,432.091L2322.23,431.926L2322.51,431.762L2322.79,431.6L2323.07,431.439L2323.35,431.279L2323.63,431.121L2323.92,430.964L2324.2,430.808L2324.49,430.653L2324.77,430.5L2325.06,430.348L2418.07,340.578L2417.54,340.395L2417.01,340.214L2416.47,340.034L2415.94,339.856L2317.21,435.142ZM2639.75,358.389L2640.37,358.663L2640.8,358.948L2641.23,359.236L2641.65,359.526L2642.08,359.815L2642.59,360.309L2642.89,360.949L2642.95,361.653L2642.76,362.335L2642.35,362.908L2574.7,428.197L2574.05,428.612L2573.31,428.758L2572.56,428.613L2572.31,428.512L2572.06,428.412L2571.81,428.314L2571.56,428.216L2571.31,428.12L2571.06,428.024L2570.81,427.929L2570.55,427.834L2569.87,427.409L2569.41,426.751L2569.25,425.967L2569.41,425.182L2569.86,424.521L2637.87,358.888L2638.43,358.508L2639.08,358.335L2639.75,358.389ZM2459.47,351.738L2460.19,352.141L2460.68,352.798L2460.87,353.597L2460.72,354.405L2460.26,355.085L2386.28,426.478L2385.58,426.92L2384.75,427.033L2383.94,426.797L2383.31,426.253L2383.13,425.87L2383,425.836L2382.75,425.768L2382,425.386L2381.47,424.731L2381.26,423.919L2381.41,423.093L2381.87,422.397L2451.27,355.42L2452.01,354.967L2452.88,354.871L2452.9,354.877L2453.04,354.788L2453.38,354.577L2453.94,354.236L2454.5,353.897L2455.06,353.56L2455.62,353.226L2456.18,352.894L2456.75,352.563L2457.31,352.236L2457.87,351.912L2458.66,351.657L2459.47,351.738ZM2571.25,425.96L2571.51,426.057L2571.77,426.154L2572.03,426.253L2572.28,426.352L2572.54,426.452L2572.8,426.553L2573.05,426.655L2573.31,426.758L2640.96,361.469L2640.53,361.182L2640.11,360.895L2639.68,360.61L2639.26,360.327L2571.25,425.96ZM2458.31,353.967L2457.75,354.291L2457.2,354.617L2456.64,354.946L2456.09,355.276L2455.53,355.609L2454.98,355.944L2454.43,356.281L2454.09,356.489L2453.76,356.698L2453.42,356.907L2453.09,357.116L2452.66,356.859L2383.26,423.836L2383.52,423.905L2383.78,423.976L2384.04,424.047L2384.3,424.119L2384.56,424.193L2384.82,424.267L2385.07,424.343L2385.33,424.419L2384.9,425.039L2458.87,353.646L2458.31,353.967ZM2623.3,348.618L2623.77,348.862L2624.24,349.108L2624.72,349.356L2625.18,349.604L2625.77,350.074L2626.14,350.726L2626.25,351.469L2626.07,352.198L2625.64,352.811L2552.9,423.012L2552.18,423.456L2551.35,423.567L2551.01,423.54L2550.69,423.515L2550.36,423.491L2550.03,423.468L2549.7,423.446L2549.37,423.426L2549.04,423.407L2548.71,423.389L2547.96,423.201L2547.34,422.745L2546.94,422.09L2546.82,421.332L2546.99,420.583L2547.43,419.953L2620.99,348.955L2621.69,348.517L2622.51,348.398L2623.3,348.618ZM2436.03,345.699L2436.51,345.927L2437,346.158L2437.49,346.39L2437.97,346.622L2438.59,347.079L2438.99,347.734L2439.11,348.49L2438.94,349.237L2438.5,349.865L2363.02,422.707L2362.4,423.117L2361.66,423.268L2361.3,423.273L2360.93,423.28L2360.57,423.289L2360.21,423.299L2359.84,423.31L2359.48,423.323L2359.12,423.338L2358.75,423.355L2357.96,423.23L2357.28,422.805L2356.83,422.147L2356.66,421.363L2356.82,420.578L2357.27,419.918L2433.79,346.071L2434.46,345.643L2435.25,345.512L2436.03,345.699ZM2548.82,421.392L2549.15,421.41L2549.49,421.43L2549.83,421.45L2550.16,421.472L2550.5,421.496L2550.84,421.52L2551.17,421.546L2551.51,421.573L2624.25,351.372L2623.78,351.125L2623.32,350.88L2622.85,350.636L2622.38,350.394L2548.82,421.392ZM2358.66,421.357L2359.03,421.34L2359.4,421.325L2359.78,421.311L2360.15,421.3L2360.52,421.289L2360.89,421.281L2361.26,421.274L2361.63,421.268L2437.11,348.426L2436.63,348.195L2436.15,347.965L2435.66,347.737L2435.18,347.511L2358.66,421.357Z" style="fill:rgb(0,224,255);"/>
                </g>
                <g transform="matrix(0.317665,0,0,0.857774,-796.231,213)">
                    <path d="M514.254,250.412C550.821,250.665 586.973,261.068 618.49,279.402L618.942,279.666C658.976,255.601 708.542,245.736 754.626,252.632C804.06,260.028 850.035,286.25 883.465,324.19C924.913,371.229 949.024,431.646 965.618,492.722C985.406,565.557 993.926,641.611 995.654,716.494C995.785,722.157 995.864,727.821 995.833,733.485C995.833,733.485 995.276,740.859 995.276,740.859C991.579,766.642 969.291,788.875 942.416,791.584C928.946,792.942 915.234,791.243 901.965,788.994C854.612,780.969 811.251,755.119 777.953,720.161C728.969,668.735 698.915,602.823 667.872,539.09C652.793,508.174 637.423,477.347 619.373,448.124L619.238,447.907C568.001,529.232 539.504,623.7 478.512,699.483C453.658,730.364 423.169,757.519 386.677,773.92C360.024,785.898 330.726,791.739 301.557,791.84C301.557,791.84 298.475,791.778 295.598,791.454C295.598,791.454 293.32,791.234 293.32,791.234C293.051,791.18 292.782,791.127 292.512,791.074C287.891,790.201 283.31,789.114 279,787.279C259.347,778.915 244.964,759.31 242.899,738.068C241.462,723.28 242.983,708.445 243.635,693.233C247.237,609.237 259.604,524.984 287.518,445.536C305.281,394.983 329.993,346.297 369.438,308.897C407.725,272.594 459.392,250.78 512.536,250.412C513.109,250.412 513.681,250.412 514.254,250.412ZM512.561,256.824C471.68,257.106 431.065,269.889 397.701,293.822C346.908,330.257 314.271,389.012 293.845,446.875C264.614,529.68 252.494,617.563 249.592,705.357C248.99,723.57 246.497,742.515 256.204,758.87C263.7,771.501 276.205,781.367 290.63,784.204C291.659,784.4 292.69,784.583 293.72,784.777C294.139,784.859 294.6,784.951 294.6,784.951L295.993,785.044C298.346,785.325 301.759,785.427 301.759,785.427C343.269,785.282 384.766,772.323 419.138,747.812C461.939,717.291 492.953,672.959 518.239,627.872C553.554,564.902 579.347,496.78 619.278,436.007C666.589,508.806 695.371,593.809 743.572,666.217C769.658,705.402 802.431,741.155 844.132,762.766C867.336,774.791 892.773,782.222 918.832,784.685C935.201,786.232 952.585,785.782 966.222,776.4C978.009,768.289 985.86,755.594 988.7,741.256C988.786,740.837 988.883,740.377 988.883,740.377L988.954,739.43C989.055,738.669 989.055,738.67 989.139,737.907C989.332,736.018 989.422,733.223 989.422,733.223C989.568,706.891 988.174,680.513 986.124,654.213C981.151,590.403 970.446,526.996 951.065,465.976C932.876,408.709 906.763,352.798 862.421,311.698C820.223,272.586 761.422,251.858 703.986,257.954C674.117,261.124 644.973,270.983 619.376,286.918L618.985,287.163C618.368,286.787 617.749,286.413 617.128,286.042C586.336,267.716 550.742,257.157 514.662,256.827C513.962,256.823 513.262,256.824 512.561,256.824ZM725.831,361.957C737.653,362.061 749.4,364.238 760.337,368.845C794.887,383.397 817.852,417.251 833.944,452.65C847.185,481.777 856.165,512.797 863.445,544.155C872.527,583.28 878.163,623.159 881.32,663.117C858.716,647.759 841.762,624.631 826.844,601.305C779.351,527.044 751.081,442.176 701.772,370.193C700.718,368.655 699.653,367.125 698.582,365.599C707.461,363.092 716.733,361.929 725.831,361.957ZM514.345,361.946C522.899,362.031 531.463,363.136 539.662,365.525L539.998,365.624C539.617,366.168 539.235,366.713 538.855,367.257C487.059,441.763 458.831,529.925 408.866,605.645C394.559,627.326 378.592,648.213 357.244,662.921C363.966,585.618 375.935,507.199 412.136,437.674C426.607,409.881 445.61,383.234 474.629,370.135C487.046,364.53 500.86,361.882 514.345,361.946ZM724.693,368.369C719.568,368.411 714.45,368.843 709.4,369.707C709.4,369.707 710.373,371.467 711.491,373.155C760.929,448.192 789.485,534.573 838.627,607.592C848.747,622.63 859.894,637.123 873.51,649.015L873.681,649.163C868.003,589.043 857.126,528.958 835.466,472.876C824.055,443.331 809.624,414.428 785.518,392.677C769.285,378.03 748.169,368.567 725.793,368.369C725.426,368.368 725.06,368.368 724.693,368.369ZM513.314,368.356C493.855,368.469 474.745,374.89 459.13,387.154C437.575,404.083 423.153,428.493 411.562,453.364C383.302,514.005 371.96,581.901 365.103,647.928L365.018,648.756C383.452,632.628 397.495,612.086 410.535,591.161C455.019,519.776 482.742,439.019 529.41,369.699C524.108,368.766 518.723,368.353 513.314,368.356Z" style="fill:rgb(0,224,255);fill-rule:nonzero;"/>
                </g>
            </g>
        </g>
    </g>
</svg>
