<?xml version="1.0" encoding="UTF-8" standalone="no"?>
<!DOCTYPE svg PUBLIC "-//W3C//DTD SVG 1.1//EN" "http://www.w3.org/Graphics/SVG/1.1/DTD/svg11.dtd">
<svg width="100%" height="100%" viewBox="0 0 1116 1116" version="1.1" xmlns="http://www.w3.org/2000/svg" xmlns:xlink="http://www.w3.org/1999/xlink" xml:space="preserve" xmlns:serif="http://www.serif.com/" style="fill-rule:evenodd;clip-rule:evenodd;stroke-linejoin:round;stroke-miterlimit:1.41421;">
    <g transform="matrix(1,0,0,1,0,-102)">
        <g id="Artboard5" transform="matrix(1,0,0,1,1503.46,-0.203794)">
            <rect x="-1503.46" y="102.204" width="1115.71" height="1115.71" style="fill:rgb(72,0,107);"/>
            <g transform="matrix(1.93633,0,0,1.03335,-2324.44,-1075.06)">
                <g transform="matrix(1.56327,0,0,2.92931,-1116.89,273.003)">
                    <path d="M1192.5,435.916C1198.64,444.587 1203.63,454.121 1208.33,463.528C1217.19,481.228 1224.31,500.343 1237.92,514.658C1239.82,516.652 1241.92,518.48 1244.24,520.012C1244.64,524.889 1244.88,529.779 1245.02,534.649C1245.1,537.276 1244.87,539.909 1245.31,542.489C1246.48,549.37 1252.96,554.851 1259.9,554.897L1261,554.851C1258.82,555.046 1256.6,554.845 1254.38,554.638C1243.07,553.579 1232.24,548.909 1223.41,541.756C1210.15,531.015 1201.36,515.949 1193.71,501.122C1185.92,486.028 1179.64,470.153 1170.02,455.865C1174.61,448.836 1180.04,441.866 1187.59,437.88C1189.16,437.05 1190.82,436.395 1192.5,435.916Z" style="fill:rgb(0,224,255);"/>
                </g>
                <g transform="matrix(1.56327,0,0,2.92931,-1116.89,273.003)">
                    <path d="M1067.88,548.497C1066.63,546.779 1065.74,544.806 1065.35,542.695C1064.84,539.953 1065.1,537.201 1065.18,534.447C1065.9,507.331 1069.44,480.128 1079.33,454.865C1085.47,439.164 1094.4,424.251 1108.57,414.64C1117.72,408.439 1128.74,405.168 1139.77,405.103C1139.92,405.103 1140.08,405.103 1140.24,405.103C1150.7,405.164 1160.99,408.238 1169.94,413.708C1160.97,419.352 1153.6,427.333 1147.54,435.932C1146.47,435.613 1145.36,435.366 1144.21,435.197C1136.48,434.056 1128.42,436.279 1122.37,441.56C1114.87,448.104 1110.2,457.422 1106.62,466.904C1100.23,483.798 1097.05,501.806 1095.71,519.963C1091.91,522.604 1087.67,524.483 1083.06,524.951C1081.17,525.143 1079.25,525.001 1077.38,525.334C1072.25,526.25 1067.76,530.032 1065.99,534.932C1064.36,539.429 1065.23,544.583 1067.88,548.497Z" style="fill:rgb(0,224,255);"/>
                </g>
                <g transform="matrix(-1.56327,0,0,2.92931,2541.16,273.003)">
                    <path d="M1192.45,435.932C1184.59,438.237 1178.54,444.233 1173.63,450.719C1172.35,452.406 1171.13,454.122 1169.98,455.865L1170.41,456.526C1184.99,479.068 1193.39,505.6 1209.15,526.641C1218.34,538.901 1230.77,549.386 1245.86,553.181C1250.41,554.327 1255.11,554.875 1259.8,554.892C1252.86,554.804 1246.46,549.295 1245.31,542.479C1245.16,541.625 1245.17,540.753 1245.1,539.89L1245.1,539.833C1245.11,538.663 1245.09,537.493 1245.06,536.324C1244.95,530.874 1244.71,525.411 1244.28,519.963C1239.45,516.611 1235.33,512.03 1232.11,507.57C1216.04,485.313 1207.97,457.993 1192.51,436.005L1192.45,435.932Z" style="fill:rgb(255,0,86);"/>
                </g>
                <g transform="matrix(-1.56327,0,0,2.92931,2541.16,273.003)">
                    <path d="M1170.06,413.708C1167.88,412.328 1165.59,411.089 1163.21,410.014C1156.02,406.765 1148.17,405.149 1140.24,405.103C1140.08,405.103 1139.92,405.103 1139.77,405.103C1124.67,405.191 1110.1,411.344 1099.04,422.652C1087.76,434.182 1080.8,449.199 1076,464.295C1068.79,486.973 1065.77,511.014 1065.17,534.77C1065.12,536.509 1065.1,538.248 1065.1,539.988L1065.1,540.002C1065.11,533.025 1070.57,526.55 1077.38,525.334C1078.5,525.134 1080.13,525.102 1080.13,525.102C1085.99,525.072 1091.26,523.093 1095.76,520.012C1097.1,501.869 1100.23,483.783 1106.62,466.904C1110.66,456.227 1116.06,445.456 1125.46,439.189C1131.8,434.961 1140.07,433.794 1147.5,435.916C1151.65,430.018 1156.34,424.518 1161.82,419.738C1164.4,417.49 1167.16,415.472 1170.06,413.708Z" style="fill:rgb(255,0,86);"/>
                </g>
                <g transform="matrix(-1.56327,0,0,2.92931,2541.16,273.003)">
                    <path d="M1095.76,520.012C1091.26,523.093 1085.99,525.072 1080.13,525.102C1080.13,525.102 1078.5,525.134 1077.38,525.334C1070.57,526.55 1065.11,533.025 1065.1,540.002L1065.1,540.061L1065.11,540.177L1065.2,541.396L1065.27,542.057C1065.74,545.15 1067.25,548.056 1069.44,550.317L1069.61,550.497L1069.63,550.515C1071.96,552.791 1075.01,554.359 1078.24,554.766L1079,554.851L1080.1,554.897C1087.04,554.851 1093.52,549.37 1094.69,542.489C1095.12,539.909 1094.9,537.276 1094.98,534.649C1095.12,529.779 1095.36,524.889 1095.76,520.012Z" style="fill:rgb(0,119,135);"/>
                </g>
                <g transform="matrix(-1.56327,0,0,2.92931,2541.16,273.003)">
                    <path d="M1244.28,519.963C1244.71,525.411 1244.95,530.874 1245.06,536.324C1245.09,537.493 1245.11,538.663 1245.1,539.833L1245.1,539.89C1245.17,540.753 1245.16,541.625 1245.31,542.479C1246.46,549.295 1252.86,554.804 1259.8,554.892L1259.92,554.896L1260.06,554.89L1262.16,554.71L1262.46,554.669L1263.06,554.531L1264.75,554.041C1267.65,553.001 1270.23,551.063 1272.05,548.594L1272.07,548.562L1272.12,548.497C1274.77,544.583 1275.64,539.429 1274.01,534.932C1272.24,530.032 1267.75,526.25 1262.62,525.334C1260.75,525.001 1258.83,525.143 1256.94,524.951C1252.33,524.483 1248.09,522.604 1244.28,519.963Z" style="fill:rgb(0,119,135);"/>
                </g>
                <g transform="matrix(-1.56327,0,0,2.92931,2541.16,273.003)">
                    <path d="M1170.06,413.708C1167.16,415.472 1164.4,417.49 1161.82,419.738C1156.34,424.518 1151.65,430.018 1147.5,435.916C1149.18,436.395 1150.83,437.05 1152.4,437.88C1159.96,441.866 1165.39,448.836 1169.98,455.865C1171.13,454.122 1172.35,452.406 1173.63,450.719C1178.54,444.233 1184.59,438.237 1192.45,435.932C1186.4,427.33 1179.02,419.345 1170.06,413.708Z" style="fill:rgb(0,119,135);"/>
                </g>
            </g>
        </g>
    </g>
</svg>
