<?xml version="1.0" encoding="UTF-8" standalone="no"?>
<!DOCTYPE svg PUBLIC "-//W3C//DTD SVG 1.1//EN" "http://www.w3.org/Graphics/SVG/1.1/DTD/svg11.dtd">
<svg width="100%" height="100%" viewBox="0 0 321 321" version="1.1" xmlns="http://www.w3.org/2000/svg" xmlns:xlink="http://www.w3.org/1999/xlink" xml:space="preserve" xmlns:serif="http://www.serif.com/" style="fill-rule:evenodd;clip-rule:evenodd;stroke-linejoin:round;stroke-miterlimit:1.41421;">
    <g id="Artboard1" transform="matrix(1.60094,0,0,6.72689,0,0)">
        <rect x="0" y="0" width="200" height="47.6" style="fill:rgb(99,0,255);"/>
        <g transform="matrix(0.624633,0,0,0.148657,37.5367,20.1653)">
            <g>
                <g>
                    <path d="M21.1,2.7L21.1,5.7C21.1,6.5 20.4,7.2 19.6,7.2L15.4,7.2L15.4,46.1C15.4,46.9 14.7,47.6 13.9,47.6L10.9,47.6C10.1,47.6 9.4,46.8 9.4,46.1L9.4,7.2L5.1,7.2C4.3,7.2 3.6,6.5 3.6,5.7L3.6,2.7C3.6,1.9 4.3,1.2 5.1,1.2L19.5,1.2C20.4,1.2 21.1,1.8 21.1,2.7ZM18.5,4.1C18.5,3.8 18.3,3.7 18.1,3.7L6.5,3.7C6.3,3.7 6.1,3.8 6.1,4.1L6.1,4.3C6.1,4.5 6.3,4.7 6.5,4.7L11.8,4.7L11.8,44.7C11.8,44.9 12,45.1 12.2,45.1L12.4,45.1C12.7,45.1 12.8,44.9 12.8,44.7L12.8,4.7L18.1,4.7C18.3,4.7 18.5,4.5 18.5,4.3L18.5,4.1Z" style="fill:rgb(0,255,168);fill-rule:nonzero;"/>
                    <path d="M48.6,2.7L48.6,16.5C48.6,21.5 45.3,25.6 40.8,26.9L40.8,46.1C40.8,46.9 40,47.6 39.3,47.6L36.3,47.6C35.5,47.6 34.8,46.8 34.8,46.1L34.8,26.9C30.2,25.6 26.9,21.5 26.9,16.5L26.9,2.7C26.9,1.9 27.6,1.2 28.4,1.2L31.4,1.2C32.2,1.2 32.9,1.9 32.9,2.7L32.9,16.5C32.9,19.2 35.1,21.4 37.8,21.4C40.4,21.4 42.6,19.2 42.6,16.5L42.6,2.7C42.6,1.9 43.3,1.2 44.1,1.2L47.1,1.2C48,1.2 48.6,1.8 48.6,2.7ZM46.1,4.1C46.1,3.8 45.9,3.7 45.7,3.7L45.5,3.7C45.2,3.7 45,3.8 45,4.1L45,16.5C45,20.5 41.8,23.8 37.8,23.8C33.8,23.8 30.5,20.5 30.5,16.5L30.5,4.1C30.5,3.8 30.3,3.7 30,3.7L29.8,3.7C29.6,3.7 29.4,3.8 29.4,4.1L29.4,16.5C29.4,21 32.9,24.6 37.2,24.8L37.2,44.7C37.2,44.9 37.4,45.1 37.6,45.1L37.9,45.1C38.1,45.1 38.3,44.9 38.3,44.7L38.3,24.8C42.6,24.5 46.1,21 46.1,16.5L46.1,4.1Z" style="fill:rgb(0,255,168);fill-rule:nonzero;"/>
                    <path d="M77.1,12L77.1,16.5C77.1,22.5 72.2,27.4 66.3,27.4L61.4,27.4L61.4,46.2C61.4,47 60.7,47.7 59.9,47.7L56.9,47.7C56.1,47.7 55.4,46.9 55.4,46.2L55.4,27.3L55.4,21.3L55.4,2.7C55.4,1.9 56.2,1.2 56.9,1.2L66.3,1.2C72.3,1.2 77.1,6.1 77.1,12ZM74.7,12C74.7,7.4 70.9,3.7 66.4,3.7L58.4,3.7C58.2,3.7 58,3.8 58,4.1L58,44.7C58,44.9 58.2,45.1 58.4,45.1L58.7,45.1C58.9,45.1 59.1,44.9 59.1,44.7L59.1,24.8L66.4,24.8C71,24.8 74.7,21 74.7,16.5L74.7,12ZM73.7,12L73.7,16.5C73.7,20.5 70.4,23.8 66.4,23.8L59,23.8L59,4.6L66.3,4.6C70.4,4.6 73.7,7.9 73.7,12ZM71.1,12C71.1,9.4 68.9,7.2 66.3,7.2L61.4,7.2L61.4,21.4L66.3,21.4C68.9,21.4 71.1,19.2 71.1,16.5L71.1,12Z" style="fill:rgb(0,255,168);fill-rule:nonzero;"/>
                    <path d="M89,7.2L89,21.4L97.2,21.4C98,21.4 98.7,22.1 98.7,22.9L98.7,25.9C98.7,26.7 98,27.4 97.2,27.4L89,27.4L89,41.7L97.2,41.7C98,41.7 98.7,42.4 98.7,43.2L98.7,46.2C98.7,47 98,47.7 97.2,47.7L86,47.7C84.3,47.7 83,46.3 83,44.7L83,4.2C83,2.5 84.3,1.2 86,1.2L97.2,1.2C98,1.2 98.7,1.9 98.7,2.7L98.7,5.7C98.7,6.5 98,7.2 97.2,7.2L89,7.2ZM86.4,23.9L86.4,4.6L95.7,4.6C95.9,4.6 96.1,4.5 96.1,4.2L96.1,4.1C96.1,3.9 95.9,3.7 95.7,3.7L86,3.7C85.7,3.7 85.5,3.9 85.5,4.2L85.5,44.6C85.5,44.9 85.7,45.1 86,45.1L95.8,45.1C96,45.1 96.2,44.9 96.2,44.7L96.2,44.5C96.2,44.2 96,44 95.8,44L86.5,44L86.5,24.8L95.8,24.8C96,24.8 96.2,24.7 96.2,24.4L96.2,24.2C96.2,24 96,23.8 95.8,23.8L86.4,23.8L86.4,23.9Z" style="fill:rgb(0,255,168);fill-rule:nonzero;"/>
                    <path d="M127.5,16.5C127.5,19.6 126.3,22.4 124.2,24.4C126.3,26.4 127.5,29.1 127.5,32.2L127.5,46.2C127.5,47 126.8,47.7 126,47.7L123,47.7C122.2,47.7 121.5,46.9 121.5,46.2L121.5,32.2C121.5,29.6 119.3,27.4 116.7,27.4L111.9,27.4L111.9,46.2C111.9,47 111.1,47.7 110.4,47.7L107.4,47.7C106.6,47.7 105.9,46.9 105.9,46.2L105.9,4.2C105.9,2.5 107.2,1.2 108.9,1.2L116.7,1.2C122.7,1.2 127.5,6.1 127.5,12L127.5,16.5ZM125.1,12C125.1,7.4 121.3,3.7 116.8,3.7L109,3.7C108.7,3.7 108.4,3.9 108.4,4.2L108.4,44.7C108.4,44.9 108.6,45.1 108.8,45.1L109.1,45.1C109.3,45.1 109.5,44.9 109.5,44.7L109.5,24.8L116.8,24.8C120.8,24.8 124.1,28.1 124.1,32.1L124.1,44.7C124.1,44.9 124.3,45.1 124.5,45.1L124.7,45.1C125,45.1 125.2,44.9 125.2,44.7L125.2,32.1C125.2,28.5 122.9,25.4 119.7,24.3C122.9,23.1 125.2,20.1 125.2,16.4L125.2,12L125.1,12ZM124,12L124,16.5C124,20.5 120.7,23.8 116.7,23.8L109.4,23.8L109.4,4.6L116.7,4.6C120.7,4.6 124,7.9 124,12ZM121.5,12C121.5,9.4 119.3,7.2 116.7,7.2L111.9,7.2L111.9,21.4L116.7,21.4C119.3,21.4 121.5,19.2 121.5,16.5L121.5,12Z" style="fill:white;fill-rule:nonzero;"/>
                    <path d="M141.3,7.2L141.3,21.4L149.5,21.4C150.3,21.4 151,22.1 151,22.9L151,25.9C151,26.7 150.3,27.4 149.5,27.4L141.3,27.4L141.3,41.7L149.5,41.7C150.3,41.7 151,42.4 151,43.2L151,46.2C151,47 150.3,47.7 149.5,47.7L138.3,47.7C136.6,47.7 135.3,46.3 135.3,44.7L135.3,4.2C135.3,2.5 136.6,1.2 138.3,1.2L149.5,1.2C150.3,1.2 151,1.9 151,2.7L151,5.7C151,6.5 150.3,7.2 149.5,7.2L141.3,7.2ZM138.7,23.9L138.7,4.6L148,4.6C148.2,4.6 148.4,4.5 148.4,4.2L148.4,4.1C148.4,3.9 148.2,3.7 148,3.7L138.2,3.7C137.9,3.7 137.7,3.9 137.7,4.2L137.7,44.6C137.7,44.9 137.9,45.1 138.2,45.1L148,45.1C148.2,45.1 148.4,44.9 148.4,44.7L148.4,44.5C148.4,44.2 148.2,44 148,44L138.7,44L138.7,24.8L148,24.8C148.2,24.8 148.4,24.7 148.4,24.4L148.4,24.2C148.4,24 148.2,23.8 148,23.8L138.7,23.8L138.7,23.9Z" style="fill:white;fill-rule:nonzero;"/>
                    <path d="M164.7,7.2L164.7,21.4L172.9,21.4C173.7,21.4 174.4,22.1 174.4,22.9L174.4,25.9C174.4,26.7 173.7,27.4 172.9,27.4L164.7,27.4L164.7,41.7L172.9,41.7C173.7,41.7 174.4,42.4 174.4,43.2L174.4,46.2C174.4,47 173.7,47.7 172.9,47.7L161.7,47.7C160,47.7 158.7,46.3 158.7,44.7L158.7,4.2C158.7,2.5 160,1.2 161.7,1.2L172.9,1.2C173.7,1.2 174.4,1.9 174.4,2.7L174.4,5.7C174.4,6.5 173.7,7.2 172.9,7.2L164.7,7.2ZM162.2,23.9L162.2,4.6L171.5,4.6C171.7,4.6 171.9,4.5 171.9,4.2L171.9,4.1C171.9,3.9 171.7,3.7 171.5,3.7L161.7,3.7C161.4,3.7 161.2,3.9 161.2,4.2L161.2,44.6C161.2,44.9 161.4,45.1 161.7,45.1L171.5,45.1C171.7,45.1 171.9,44.9 171.9,44.7L171.9,44.5C171.9,44.2 171.7,44 171.5,44L162.2,44L162.2,24.8L171.5,24.8C171.7,24.8 171.9,24.7 171.9,24.4L171.9,24.2C171.9,24 171.7,23.8 171.5,23.8L162.2,23.8L162.2,23.9Z" style="fill:white;fill-rule:nonzero;"/>
                    <path d="M197.7,43.1L197.7,46.1C197.7,46.9 197,47.6 196.2,47.6L185.1,47.6C183.4,47.6 182.1,46.2 182.1,44.6L182.1,2.7C182.1,1.9 182.8,1.2 183.6,1.2L186.6,1.2C187.4,1.2 188.1,1.9 188.1,2.7L188.1,41.6L196.2,41.6C197.1,41.6 197.7,42.2 197.7,43.1ZM195.3,44.4C195.3,44.2 195.1,44 194.8,44L185.6,44L185.6,4.1C185.6,3.8 185.4,3.7 185.2,3.7L185,3.7C184.8,3.7 184.6,3.8 184.6,4.1L184.6,44.6C184.6,44.9 184.9,45.1 185.2,45.1L194.9,45.1C195.2,45.1 195.4,44.9 195.4,44.7L195.4,44.4L195.3,44.4Z" style="fill:white;fill-rule:nonzero;"/>
                </g>
            </g>
        </g>
    </g>
</svg>
