<?xml version="1.0" encoding="UTF-8" standalone="no"?><!DOCTYPE svg PUBLIC "-//W3C//DTD SVG 1.1//EN" "http://www.w3.org/Graphics/SVG/1.1/DTD/svg11.dtd"><svg width="100%" height="100%" viewBox="0 0 800 800" version="1.1" xmlns="http://www.w3.org/2000/svg" xmlns:xlink="http://www.w3.org/1999/xlink" xml:space="preserve" xmlns:serif="http://www.serif.com/" style="fill-rule:evenodd;clip-rule:evenodd;stroke-linejoin:round;stroke-miterlimit:2;"><rect id="Artboard1" x="0" y="0" width="800" height="800" style="fill:#ffe6fb;"/><path d="M470.132,533.529c-6.024,0 -10.385,-1.843 -13.083,-5.53c-2.697,-3.686 -4.046,-8.901 -4.046,-15.644l0,-75.257l18.342,0l0,76.066c0,1.888 0.36,3.259 1.079,4.113c0.72,0.854 1.529,1.282 2.428,1.282c0.899,0 1.708,-0.09 2.428,-0.27l2.292,13.756c-2.607,0.989 -5.754,1.484 -9.44,1.484Zm33.987,-29.671c0.899,5.305 3.079,9.216 6.541,11.733c3.461,2.518 7.485,3.777 12.07,3.777c4.766,0 9.711,-1.484 14.836,-4.451l6.069,11.194c-3.327,2.338 -7.036,4.159 -11.127,5.462c-4.091,1.304 -8.159,1.956 -12.205,1.956c-6.294,0 -11.981,-1.394 -17.061,-4.181c-5.08,-2.787 -9.081,-6.833 -12.003,-12.138c-2.923,-5.305 -4.384,-11.509 -4.384,-18.612c0,-7.013 1.461,-13.172 4.384,-18.477c2.922,-5.305 6.765,-9.396 11.531,-12.273c4.765,-2.877 9.845,-4.316 15.24,-4.316c9.081,0 16.049,2.945 20.905,8.834c4.855,5.889 7.282,13.599 7.282,23.13c0,3.417 -0.269,6.204 -0.809,8.362l-41.269,0Zm-199.876,29.671c-5.754,0 -11.081,-1.394 -15.982,-4.181c-4.9,-2.787 -8.833,-6.833 -11.801,-12.138c-2.967,-5.305 -4.45,-11.509 -4.45,-18.612c0,-7.193 1.483,-13.442 4.45,-18.747c2.968,-5.305 6.901,-9.351 11.801,-12.138c4.901,-2.787 10.228,-4.181 15.982,-4.181c5.665,0 10.97,1.394 15.915,4.181c4.945,2.787 8.901,6.856 11.868,12.206c2.967,5.349 4.451,11.576 4.451,18.679c0,7.103 -1.484,13.307 -4.451,18.612c-2.967,5.305 -6.923,9.351 -11.868,12.138c-4.945,2.787 -10.25,4.181 -15.915,4.181Zm-76.066,-1.618l-31.963,0l0,-88.07l29.536,0c21.399,0 32.099,7.283 32.099,21.849c0,4.136 -1.079,8.002 -3.237,11.599c-2.158,3.596 -5.035,6.069 -8.632,7.418l0,0.539c4.945,1.259 8.901,3.619 11.869,7.081c2.967,3.461 4.45,8.024 4.45,13.689c0,8.541 -3.147,14.993 -9.441,19.353c-6.293,4.361 -14.52,6.541 -24.681,6.542Zm350.389,0l-18.342,0l0,-66.76l14.97,0l1.349,11.733l0.539,0c2.338,-4.316 5.193,-7.62 8.565,-9.913c3.371,-2.292 6.81,-3.439 10.317,-3.439c3.147,0 5.754,0.45 7.822,1.349l-3.102,15.914c-0.269,-0.09 -1.079,-0.292 -2.427,-0.607c-1.349,-0.314 -2.877,-0.472 -4.586,-0.472c-2.877,0 -5.664,1.034 -8.362,3.102c-2.697,2.068 -4.945,5.305 -6.743,9.711l0,39.382Zm-196.773,0l-21.175,0l-16.993,-66.76l18.342,0l7.013,32.098c0.09,0.45 0.764,4.586 2.023,12.408c0.18,1.619 0.54,4.046 1.079,7.283l0.54,0c1.528,-8.721 2.877,-15.285 4.046,-19.691l7.822,-32.098l16.184,0l7.958,32.098c1.438,6.114 2.652,11.779 3.641,16.994l0.54,2.697l0.539,0l1.618,-9.576c0.18,-1.079 0.383,-2.472 0.607,-4.18c0.225,-1.709 0.562,-3.687 1.012,-5.935l6.878,-32.098l17.128,0l-16.319,66.76l-21.579,0l-6.743,-28.188c-1.708,-8.901 -2.922,-15.375 -3.642,-19.421l-0.539,0c-1.439,8.542 -2.652,15.06 -3.641,19.556l-6.339,28.053Zm-77.55,-13.352c4.226,0 7.508,-1.776 9.846,-5.328c2.337,-3.551 3.506,-8.429 3.506,-14.633c0,-6.204 -1.169,-11.104 -3.506,-14.701c-2.338,-3.596 -5.62,-5.394 -9.846,-5.394c-4.315,0 -7.62,1.798 -9.913,5.394c-2.292,3.597 -3.439,8.497 -3.439,14.701c0,6.204 1.147,11.082 3.439,14.633c2.293,3.552 5.598,5.328 9.913,5.328Zm-77.684,-25.356l-11.868,0l0,24.411l11.868,0c11.779,0 17.668,-4.27 17.668,-12.812c0,-4.046 -1.461,-6.991 -4.383,-8.834c-2.923,-1.843 -7.351,-2.765 -13.285,-2.765Zm303.859,-1.618c0,-4.316 -0.989,-7.71 -2.967,-10.183c-1.978,-2.472 -4.99,-3.709 -9.036,-3.709c-3.327,0 -6.272,1.147 -8.834,3.44c-2.563,2.292 -4.294,5.776 -5.193,10.452l26.03,0Zm-305.612,-33.448l-10.115,0l0,21.31l9.98,0c5.125,0 8.924,-0.967 11.396,-2.9c2.473,-1.933 3.709,-4.653 3.709,-8.16c0,-3.596 -1.214,-6.204 -3.641,-7.822c-2.428,-1.618 -6.204,-2.428 -11.329,-2.428Z" style="fill:#1f2b6c;fill-rule:nonzero;"/><path d="M298.958,316.058c-0.02,-0.836 -0.03,-1.674 -0.03,-2.514c0,-55.784 45.288,-101.073 101.072,-101.073c55.783,0 101.073,45.289 101.073,101.073c0,0.84 -0.01,1.678 -0.032,2.514c8.769,-1.376 14.851,-1.913 19.327,0.79c14.702,8.877 38.044,57.07 -120.368,55.501l-0.926,0.009c-157.396,1.371 -134.115,-46.651 -119.442,-55.51c4.476,-2.703 10.558,-2.166 19.326,-0.79Zm0.015,-0.104c0.566,-0.076 0.851,-0.009 1.18,0.002c3.43,0.444 6.826,1.152 10.254,1.675c54.042,8.24 110.007,8.237 163.375,2.101c8.038,-0.924 16.05,-2.048 24.034,-3.453l1.225,-0.22l0.805,-0.103l1.182,0.005c-0.125,5.748 -0.737,11.378 -1.863,16.861c-43.761,7.599 -88.023,8.601 -132.122,6.651c-22.176,-0.979 -44.406,-2.89 -66.21,-6.66c-1.116,-5.467 -1.739,-11.091 -1.86,-16.859Z" style="fill:#1f2b6c;"/></svg>