<?xml version="1.0" encoding="UTF-8" standalone="no"?><!DOCTYPE svg PUBLIC "-//W3C//DTD SVG 1.1//EN" "http://www.w3.org/Graphics/SVG/1.1/DTD/svg11.dtd"><svg width="100%" height="100%" viewBox="0 0 759 758" version="1.1" xmlns="http://www.w3.org/2000/svg" xmlns:xlink="http://www.w3.org/1999/xlink" xml:space="preserve" xmlns:serif="http://www.serif.com/" style="fill-rule:evenodd;clip-rule:evenodd;stroke-linejoin:round;stroke-miterlimit:2;"><rect id="Artboard1" x="0" y="0" width="758.04" height="758" style="fill:#0facb4;"/><g><g><path d="M541.484,299.573c21.561,-0.037 40.062,1.911 57.604,9.271c18.348,7.698 31.414,20.424 35.322,40.476c5.513,28.295 -4.152,71.593 -41.377,92.017c-15.693,8.61 -32.653,12.817 -50.212,15.163c-11.667,1.559 -23.38,2.334 -35.141,1.799c-10.998,-0.499 -21.794,-2.252 -32.042,-6.487c-21.386,-8.834 -30.782,-26.613 -25.931,-49.295c2.138,-9.996 4.029,-19.963 3.461,-30.276c-1.103,-20.008 -10.711,-32.792 -29.737,-39.183c-2.775,-0.932 -5.602,-1.715 -8.418,-2.521c-1.366,-0.392 -2.895,-0.721 -3.056,-2.385c-0.182,-1.889 1.448,-2.576 2.83,-3.24c0.967,-0.464 2.035,-0.716 3.058,-1.067c27.817,-9.52 56.199,-16.843 85.29,-21.15c13.594,-2.012 27.293,-3.423 38.349,-3.122Z" style="fill:#fbdb09;"/><path d="M158.042,402.748c-8.351,-0.178 -14.39,-4.743 -16.356,-12.363c-1.756,-6.804 1.226,-11.112 8.288,-11.852c1.523,-0.159 3.076,-0.023 4.615,-0.023l0,-0.029c1.231,0 2.467,-0.073 3.693,0.011c9.309,0.636 11.802,3.375 11.68,12.779c-0.097,7.527 -4.37,11.641 -11.92,11.477Zm-12.937,-42.906c-15.947,5.552 -25.605,23.747 -22.243,40.884c3.694,18.818 15.067,28.965 32.362,28.871c16.707,-0.092 27.05,-7.667 30.736,-22.619c0.551,-2.236 0.91,-4.556 1.042,-6.855c0.513,-9.026 -0.077,-17.984 -3.613,-26.402c-7.033,-16.745 -25.256,-18.414 -38.284,-13.879Z" style="fill:#fff;fill-rule:nonzero;"/><path d="M365.567,358.588c-5.756,1.135 -9.75,6.533 -10.054,13.894c-0.165,4.011 -0.029,8.035 -0.029,12.054l-0.022,0c0,3.245 -0.017,6.49 0.007,9.736c0.024,3.431 -0.468,6.773 -1.762,9.955c-1.393,3.421 -4.13,4.992 -7.687,4.803c-3.738,-0.197 -5.086,-2.784 -5.726,-6.168c-0.991,-5.235 -0.797,-10.449 -0.27,-15.685c0.68,-6.773 1.166,-13.561 0.505,-20.35c-0.492,-5.037 -2.201,-6.807 -6.971,-7.924c-10.364,-2.423 -16.187,1.598 -17.988,12.322c-1.445,8.593 -1.399,17.25 -0.95,25.884c0.955,18.317 13.114,31.537 31.231,32.927c14.65,1.123 26.009,-4.187 27.296,-20.131c1.204,-14.9 1.35,-29.896 1.635,-44.855c0.09,-4.668 -4.346,-7.421 -9.215,-6.462Z" style="fill:#fff;fill-rule:nonzero;"/><path d="M231.952,382.809c-0.373,3.495 -2.955,4.48 -5.73,5.009c-11.632,2.224 -9.939,2.257 -10.998,-8.744c0,-1.382 0.011,-2.765 -0.004,-4.148c-0.014,-1.29 0.583,-2.052 1.888,-2.076c3.52,-0.066 7.099,-0.461 10.414,1.163c3.452,1.695 4.867,4.712 4.43,8.796Zm9.919,-17.275c-11.058,-8.565 -24.172,-9.481 -37.53,-7.963c-3.986,0.453 -6.573,3.011 -7.714,7.05c-1.343,4.761 -2.259,9.555 -2.914,14.471c-1.302,9.762 0.386,19.443 0.2,29.161c0,1.7 0.002,3.401 -0.001,5.101c-0.003,1.856 -0.039,3.71 -0.012,5.565c0.066,4.351 1.895,7.049 5.87,8.431c4.671,1.622 9.404,1.597 14.119,0.154c2.06,-0.631 3.337,-1.766 3.589,-4.217c0.444,-4.327 0.409,-8.647 0.346,-12.968c-0.033,-2.386 0.712,-3.362 3.21,-3.158c2.455,0.202 4.951,0.166 7.412,-0.005c12.742,-0.883 20.147,-6.037 22.365,-16.403c2.145,-10.03 -0.855,-18.957 -8.94,-25.219Z" style="fill:#fff;fill-rule:nonzero;"/><path d="M414.616,390.837c-3.402,-1.799 -7.181,-2.955 -10.159,-5.482c-3.094,-2.625 -2.556,-6.101 1.124,-7.653c1.554,-0.654 3.21,-1.005 4.943,-1.103c3.542,-0.199 7.08,-0.514 10.61,-0.892c5.586,-0.598 7.523,-4.204 4.854,-9.142c-2.09,-3.869 -5.499,-6.248 -9.62,-7.51c-8.505,-2.605 -16.819,-2.07 -24.657,2.266c-6.893,3.813 -10.743,9.874 -10.832,17.711c-0.087,7.608 4.97,11.938 11.278,15.04c3.462,1.702 7.014,3.232 10.402,5.064c2.041,1.102 4.116,2.603 3.373,5.415c-0.748,2.84 -3.154,3.571 -5.76,3.761c-4.074,0.298 -8.018,-0.268 -11.748,-1.982c-1.765,-0.812 -3.455,-1.212 -5.267,-0.097c-5.647,3.475 -6.338,13.805 -0.972,17.634c5.515,3.937 11.851,5.818 18.63,6.488c6.13,-0.581 12.244,-1.438 17.631,-4.829c5.485,-3.451 8.526,-8.385 8.468,-14.985c-0.08,-9.058 -4.361,-15.503 -12.298,-19.704Z" style="fill:#fff;fill-rule:nonzero;"/><path d="M301.576,359.207c-6.173,-0.131 -34.555,-0.955 -42.585,-0.472c-3.2,0.192 -4.992,1.441 -5.354,4.49c-0.494,4.144 -0.55,8.334 -0.079,12.476c0.293,2.579 1.792,4.11 4.716,3.959c2.927,-0.151 5.872,0.077 8.801,-0.044c2.953,-0.122 4.139,0.948 3.953,4.063c-0.441,7.393 -0.12,14.809 -0.642,22.216c-0.412,5.84 -0.482,11.721 0.461,17.56c0.491,3.034 1.865,5.47 5.008,5.877c3.803,0.491 7.679,0.668 11.459,-0.614c3.111,-1.056 4.891,-2.936 5.052,-6.363c0.516,-10.942 1.146,-21.878 1.693,-32.818c0.139,-2.772 -0.761,-6.049 0.428,-8.201c1.463,-2.65 5.267,-1.352 8.027,-1.897c5.099,-1.004 9.166,-6.21 8.883,-11.488c-0.294,-5.491 -3.673,-8.614 -9.821,-8.744Z" style="fill:#fff;fill-rule:nonzero;"/><path d="M503.979,420.619c-1.208,1.69 -2.861,2.832 -4.89,3.226c-2.444,0.475 -4.591,-0.223 -6.17,-2.219c-1.419,-1.794 -1.138,-3.684 -0.247,-5.638c0.908,-1.992 2.197,-3.69 3.678,-5.263c4.852,-5.156 10.102,-9.818 17.138,-13.978c-1.858,9.301 -4.61,17.013 -9.509,23.872Zm50.741,-71.337c1.154,-0.962 2.567,-2.176 4.132,-1.042c1.486,1.079 1.027,2.864 0.559,4.287c-2.569,7.814 -8.581,12.466 -15.445,16.24c1.402,-7.867 4.723,-14.458 10.754,-19.485Zm47.216,22.57c-2.406,-3.446 -5.488,-6.281 -8.294,-9.368c-1.763,-1.94 -3.644,-3.861 -4.971,-6.089c-3.51,-5.9 -0.907,-11.593 5.764,-13.042c1.656,-0.36 3.334,-0.635 5.008,-0.909c1.877,-0.309 3.902,-0.558 3.866,-3.071c-0.039,-2.684 -2.33,-3.067 -4.255,-3.41c-7.419,-1.317 -16.003,3.214 -19.272,10.051c-1.413,2.959 -1.97,6.152 -2.558,9.342c-1.572,8.507 -4.824,16.256 -10.606,22.793c-3.848,4.35 -8.268,7.916 -14.122,9.19c-3.605,0.785 -6.045,-0.969 -7.978,-4.715c-1.81,-3.511 0.626,-4.607 2.751,-6.168c4.116,-3.026 8.037,-6.303 11.585,-9.985c3.454,-3.587 6.515,-7.466 7.879,-12.386c1.468,-5.295 -0.192,-10.702 -4.024,-13.329c-3.735,-2.561 -8.499,-2.32 -12.47,0.801c-1.449,1.137 -2.749,2.499 -3.951,3.902c-6.168,7.19 -8.767,15.814 -9.902,25.008c-0.203,1.652 0.121,3.561 -1.642,4.582c-4.093,2.368 -8.039,5.023 -12.811,6.96c0.578,-7.624 0.88,-14.875 0.427,-22.11c-0.462,-7.387 -0.683,-14.862 -3.667,-21.822c-1.116,-2.601 -2.679,-5.519 -5.968,-4.816c-3.206,0.684 -2.353,3.968 -2.239,6.274c0.563,11.531 -3.815,21.433 -10.029,30.686c-2.424,3.609 -5.626,6.608 -9.47,8.749c-4.238,2.362 -6.741,1.123 -7.488,-3.669c-0.675,-4.331 -0.123,-8.632 0.605,-12.916c0.931,-5.486 1.972,-10.972 1.437,-16.58c-0.529,-5.516 -4.962,-9.924 -9.888,-9.938c-2.238,-0.005 -3.847,0.904 -4.697,3.047c-0.712,1.799 0.142,3.568 1.518,3.886c5.719,1.322 4.843,5.538 4.587,9.525c-0.522,8.161 -1.741,16.29 -0.114,24.49c2.128,10.729 9.583,14.022 18.689,8.067c0.903,-0.591 1.753,-1.27 2.603,-1.936c6.861,-5.375 12.386,-11.885 16.592,-20.457c1.324,7.458 0.832,14.02 0.493,20.606c-0.127,2.482 -1.089,3.883 -3.168,5.094c-5.615,3.269 -11.017,6.884 -16.057,10.993c-4.203,3.426 -8.343,6.976 -11.042,11.784c-4.693,8.357 -0.102,17.842 9.326,19.431c7.251,1.223 13.079,-0.973 17.318,-7.147c3.751,-5.463 6.629,-11.594 6.939,-17.994c0.506,-10.464 5.59,-16.379 14.898,-20.022c2.712,-1.062 3.453,-0.924 4.663,1.605c3.565,7.445 9.469,9.822 17.262,7.142c5.044,-1.733 9.402,-4.652 13.241,-8.35c6.584,-6.347 11.02,-14.041 14.219,-23.312c4.053,3.592 7.25,7.137 10.282,10.829c8.484,10.337 5.182,21.031 -7.69,25.029c-1.767,0.549 -3.623,0.916 -5.282,1.696c-2.516,1.184 -2.854,3.521 -2.29,5.929c0.617,2.632 2.715,2.05 4.508,1.666c7.101,-1.522 13.524,-4.329 18.334,-10.043c6.627,-7.869 7.027,-17.156 1.151,-25.573Z" style="fill:#fff;fill-rule:nonzero;"/></g></g></svg>