<?xml version="1.0" encoding="UTF-8" standalone="no"?>
<!DOCTYPE svg PUBLIC "-//W3C//DTD SVG 1.1//EN" "http://www.w3.org/Graphics/SVG/1.1/DTD/svg11.dtd">
<svg width="100%" height="100%" viewBox="0 0 947 947" version="1.1" xmlns="http://www.w3.org/2000/svg" xmlns:xlink="http://www.w3.org/1999/xlink" xml:space="preserve" xmlns:serif="http://www.serif.com/" style="fill-rule:evenodd;clip-rule:evenodd;stroke-linejoin:round;stroke-miterlimit:2;">
    <g transform="matrix(1,0,0,1,-2814.08,-2264.37)">
        <g id="Artboard1" transform="matrix(0.739844,0,0,1.18375,2814.08,2264.37)">
            <rect x="0" y="0" width="1280" height="800" style="fill:rgb(18,0,74);"/>
            <g transform="matrix(1,0,0,1,-5.40655,0)">
                <g transform="matrix(0.869085,0,0,0.869085,48.6219,119.766)">
                    <g transform="matrix(1.76187,0,0,0.513341,-484.875,228.566)">
                        <g transform="matrix(107.271,0,0,230.107,385.56,479.717)">
                            <path d="M0.125,-0C0.146,-0 0.16,-0.003 0.167,-0.01C0.173,-0.016 0.177,-0.031 0.177,-0.053L0.177,-0.233C0.177,-0.268 0.181,-0.289 0.19,-0.298C0.197,-0.304 0.207,-0.308 0.221,-0.309L0.253,-0.312C0.274,-0.315 0.285,-0.329 0.285,-0.353L0.285,-0.36C0.284,-0.387 0.27,-0.4 0.24,-0.4L0.236,-0.4C0.215,-0.4 0.199,-0.404 0.19,-0.413C0.183,-0.419 0.179,-0.431 0.178,-0.447C0.177,-0.463 0.176,-0.479 0.176,-0.496C0.176,-0.512 0.177,-0.528 0.178,-0.544C0.179,-0.561 0.183,-0.572 0.19,-0.579C0.198,-0.585 0.21,-0.589 0.226,-0.589C0.243,-0.59 0.26,-0.59 0.276,-0.59C0.294,-0.59 0.311,-0.59 0.329,-0.589C0.354,-0.589 0.37,-0.594 0.377,-0.604C0.383,-0.612 0.386,-0.627 0.386,-0.647C0.386,-0.665 0.386,-0.674 0.384,-0.676C0.381,-0.695 0.37,-0.706 0.35,-0.708C0.344,-0.708 0.263,-0.708 0.108,-0.708C0.102,-0.708 0.095,-0.708 0.089,-0.707C0.071,-0.704 0.062,-0.694 0.06,-0.676C0.059,-0.665 0.059,-0.654 0.059,-0.643L0.059,-0.054C0.059,-0.031 0.062,-0.017 0.069,-0.01C0.075,-0.003 0.089,-0 0.11,-0L0.125,-0Z" style="fill:white;fill-rule:nonzero;"/>
                        </g>
                        <g transform="matrix(107.271,0,0,230.107,424.511,479.717)">
                            <path d="M0.334,-0C0.36,-0 0.377,-0.004 0.385,-0.013C0.391,-0.02 0.395,-0.032 0.395,-0.049C0.395,-0.074 0.391,-0.09 0.383,-0.098C0.376,-0.105 0.365,-0.108 0.35,-0.108C0.337,-0.109 0.315,-0.109 0.284,-0.109C0.25,-0.109 0.228,-0.11 0.215,-0.111C0.195,-0.113 0.184,-0.124 0.181,-0.144C0.18,-0.156 0.179,-0.167 0.179,-0.179L0.179,-0.652L0.179,-0.67C0.178,-0.694 0.165,-0.707 0.141,-0.708C0.134,-0.708 0.125,-0.708 0.113,-0.708C0.091,-0.708 0.077,-0.705 0.07,-0.698C0.063,-0.691 0.059,-0.676 0.059,-0.653L0.059,-0.053L0.06,-0.037C0.061,-0.015 0.073,-0.003 0.094,-0.001C0.102,-0 0.111,-0 0.123,-0L0.334,-0Z" style="fill:white;fill-rule:nonzero;"/>
                        </g>
                        <g transform="matrix(107.271,0,0,230.107,465.32,479.717)">
                            <path d="M0.193,0.016C0.213,0.016 0.233,0.014 0.254,0.01C0.298,0.002 0.327,-0.023 0.341,-0.065C0.35,-0.092 0.355,-0.119 0.356,-0.147C0.357,-0.213 0.357,-0.279 0.357,-0.345C0.357,-0.411 0.357,-0.477 0.356,-0.543C0.355,-0.569 0.351,-0.595 0.343,-0.621C0.331,-0.665 0.302,-0.692 0.256,-0.702C0.235,-0.706 0.214,-0.708 0.192,-0.708C0.17,-0.708 0.148,-0.706 0.126,-0.701C0.065,-0.687 0.033,-0.638 0.03,-0.555C0.03,-0.535 0.03,-0.496 0.03,-0.438C0.03,-0.359 0.03,-0.304 0.029,-0.271C0.029,-0.221 0.03,-0.177 0.03,-0.14C0.033,-0.053 0.065,-0.003 0.129,0.01C0.15,0.014 0.171,0.016 0.193,0.016ZM0.191,-0.107C0.17,-0.108 0.157,-0.119 0.151,-0.14C0.148,-0.155 0.146,-0.171 0.146,-0.187L0.146,-0.345L0.146,-0.504C0.146,-0.52 0.148,-0.535 0.151,-0.55C0.158,-0.574 0.172,-0.586 0.193,-0.586C0.203,-0.586 0.212,-0.582 0.22,-0.575C0.227,-0.568 0.232,-0.559 0.234,-0.548C0.236,-0.538 0.237,-0.528 0.237,-0.518L0.237,-0.174C0.237,-0.164 0.236,-0.153 0.234,-0.143C0.228,-0.119 0.213,-0.108 0.191,-0.107Z" style="fill:white;fill-rule:nonzero;"/>
                        </g>
                        <g transform="matrix(107.271,0,0,230.107,505.18,479.717)">
                            <path d="M0.445,-0C0.454,-0 0.464,-0 0.473,-0.001C0.494,-0.003 0.507,-0.014 0.511,-0.036C0.512,-0.041 0.513,-0.046 0.515,-0.051C0.526,-0.114 0.561,-0.313 0.62,-0.646C0.622,-0.659 0.623,-0.671 0.623,-0.684C0.622,-0.689 0.62,-0.694 0.617,-0.698C0.613,-0.702 0.608,-0.705 0.603,-0.706C0.59,-0.707 0.576,-0.708 0.563,-0.708C0.542,-0.708 0.528,-0.705 0.521,-0.699C0.514,-0.693 0.509,-0.681 0.506,-0.665C0.502,-0.646 0.499,-0.628 0.497,-0.609C0.494,-0.594 0.491,-0.575 0.488,-0.554C0.473,-0.459 0.465,-0.411 0.464,-0.41C0.463,-0.4 0.461,-0.391 0.458,-0.381C0.455,-0.372 0.449,-0.363 0.439,-0.355L0.433,-0.362C0.424,-0.372 0.416,-0.398 0.409,-0.44L0.379,-0.653C0.376,-0.676 0.37,-0.692 0.361,-0.699C0.354,-0.705 0.341,-0.708 0.324,-0.708C0.299,-0.708 0.283,-0.705 0.275,-0.699C0.268,-0.693 0.263,-0.681 0.261,-0.665C0.258,-0.649 0.255,-0.634 0.253,-0.618C0.251,-0.6 0.241,-0.53 0.222,-0.407C0.22,-0.385 0.212,-0.367 0.198,-0.355C0.185,-0.368 0.177,-0.386 0.173,-0.408C0.148,-0.563 0.133,-0.651 0.13,-0.67C0.127,-0.684 0.123,-0.694 0.116,-0.699C0.109,-0.704 0.099,-0.707 0.084,-0.708L0.068,-0.708C0.059,-0.708 0.051,-0.708 0.043,-0.707C0.024,-0.706 0.015,-0.696 0.015,-0.679C0.015,-0.667 0.016,-0.653 0.02,-0.636C0.082,-0.278 0.118,-0.077 0.126,-0.034C0.131,-0.013 0.145,-0.002 0.166,-0.001C0.173,-0 0.187,-0 0.208,-0C0.222,-0 0.233,-0.003 0.242,-0.01C0.252,-0.016 0.258,-0.028 0.261,-0.047C0.265,-0.075 0.274,-0.126 0.287,-0.2C0.293,-0.236 0.301,-0.259 0.311,-0.271L0.317,-0.278C0.326,-0.273 0.332,-0.267 0.335,-0.26C0.34,-0.25 0.342,-0.243 0.342,-0.238C0.345,-0.224 0.358,-0.156 0.379,-0.036C0.384,-0.014 0.396,-0.003 0.417,-0.001C0.427,-0 0.436,-0 0.445,-0Z" style="fill:white;fill-rule:nonzero;"/>
                        </g>
                        <g transform="matrix(107.271,0,0,230.107,571.66,479.717)">
                            <path d="M0.109,-0L0.125,-0C0.15,-0.001 0.162,-0.014 0.163,-0.039C0.163,-0.046 0.164,-0.07 0.164,-0.108C0.164,-0.155 0.164,-0.189 0.165,-0.21C0.165,-0.232 0.167,-0.253 0.17,-0.273C0.171,-0.277 0.172,-0.281 0.172,-0.285C0.173,-0.288 0.174,-0.292 0.177,-0.295L0.181,-0.301C0.193,-0.289 0.201,-0.272 0.206,-0.249C0.211,-0.222 0.217,-0.192 0.222,-0.159C0.228,-0.123 0.236,-0.082 0.245,-0.034C0.249,-0.013 0.262,-0.002 0.284,-0.001L0.322,-0C0.339,-0 0.356,-0.001 0.373,-0.001C0.393,-0.003 0.404,-0.014 0.405,-0.034C0.406,-0.042 0.406,-0.053 0.406,-0.066C0.406,-0.374 0.406,-0.572 0.406,-0.66C0.406,-0.679 0.402,-0.692 0.396,-0.698C0.389,-0.705 0.377,-0.708 0.358,-0.708L0.348,-0.708C0.319,-0.708 0.305,-0.696 0.304,-0.67L0.303,-0.655L0.303,-0.638C0.303,-0.564 0.303,-0.508 0.303,-0.47C0.303,-0.438 0.298,-0.41 0.289,-0.388C0.276,-0.397 0.268,-0.411 0.266,-0.428C0.266,-0.429 0.266,-0.43 0.266,-0.431C0.252,-0.499 0.241,-0.561 0.231,-0.618C0.229,-0.632 0.227,-0.646 0.225,-0.66C0.222,-0.679 0.216,-0.692 0.208,-0.698C0.201,-0.705 0.187,-0.708 0.168,-0.708L0.111,-0.708C0.09,-0.708 0.075,-0.705 0.069,-0.698C0.062,-0.692 0.059,-0.678 0.059,-0.657L0.059,-0.648C0.059,-0.273 0.059,-0.075 0.059,-0.054C0.059,-0.033 0.062,-0.018 0.069,-0.011C0.076,-0.004 0.09,-0 0.109,-0Z" style="fill:white;fill-rule:nonzero;"/>
                        </g>
                    </g>
                    <g transform="matrix(1.76187,0,0,0.513341,-491.479,228.566)">
                        <g transform="matrix(107.271,0,0,230.107,637.174,479.717)">
                            <path d="M0.187,-0C0.196,-0 0.205,-0 0.214,-0.001C0.232,-0.003 0.241,-0.014 0.243,-0.033C0.244,-0.042 0.245,-0.052 0.245,-0.061L0.245,-0.526C0.245,-0.558 0.248,-0.578 0.255,-0.585C0.26,-0.591 0.268,-0.595 0.279,-0.596C0.29,-0.598 0.306,-0.6 0.326,-0.601C0.342,-0.603 0.352,-0.612 0.354,-0.628C0.356,-0.636 0.356,-0.646 0.356,-0.658C0.356,-0.676 0.353,-0.689 0.346,-0.696C0.339,-0.703 0.326,-0.707 0.305,-0.707L0.062,-0.707C0.057,-0.707 0.052,-0.706 0.046,-0.706C0.028,-0.703 0.018,-0.694 0.016,-0.676C0.015,-0.668 0.015,-0.661 0.015,-0.653C0.015,-0.645 0.015,-0.638 0.016,-0.63C0.018,-0.613 0.028,-0.603 0.047,-0.601C0.052,-0.6 0.057,-0.6 0.062,-0.6C0.089,-0.6 0.106,-0.595 0.115,-0.585C0.122,-0.577 0.126,-0.563 0.126,-0.543C0.126,-0.213 0.127,-0.042 0.128,-0.03C0.13,-0.014 0.139,-0.005 0.154,-0.002C0.165,-0.001 0.176,-0 0.187,-0Z" style="fill:white;fill-rule:nonzero;"/>
                        </g>
                        <g transform="matrix(107.271,0,0,230.107,676.044,479.717)">
                            <path d="M0.333,-0C0.354,-0 0.369,-0.003 0.375,-0.01C0.382,-0.016 0.385,-0.03 0.385,-0.051L0.385,-0.381C0.385,-0.554 0.385,-0.643 0.386,-0.646L0.385,-0.669C0.385,-0.694 0.372,-0.707 0.348,-0.708C0.342,-0.708 0.333,-0.708 0.321,-0.708C0.299,-0.708 0.284,-0.705 0.277,-0.698C0.27,-0.691 0.266,-0.676 0.266,-0.653L0.266,-0.647C0.266,-0.614 0.266,-0.555 0.266,-0.47C0.266,-0.458 0.265,-0.447 0.264,-0.438C0.26,-0.413 0.246,-0.401 0.221,-0.401C0.196,-0.401 0.182,-0.413 0.178,-0.438C0.177,-0.447 0.177,-0.456 0.177,-0.466L0.177,-0.642C0.177,-0.655 0.176,-0.667 0.174,-0.679C0.171,-0.695 0.162,-0.704 0.146,-0.707C0.137,-0.708 0.128,-0.708 0.119,-0.708C0.11,-0.708 0.1,-0.708 0.091,-0.707C0.073,-0.705 0.062,-0.695 0.06,-0.677C0.059,-0.67 0.059,-0.662 0.059,-0.655L0.059,-0.052C0.059,-0.044 0.059,-0.037 0.06,-0.03C0.063,-0.014 0.072,-0.005 0.087,-0.002C0.098,-0.001 0.108,-0 0.119,-0C0.143,-0 0.159,-0.004 0.166,-0.011C0.172,-0.018 0.176,-0.031 0.176,-0.049L0.177,-0.068L0.177,-0.245C0.177,-0.257 0.178,-0.269 0.18,-0.281C0.185,-0.299 0.199,-0.309 0.222,-0.309C0.244,-0.309 0.257,-0.3 0.262,-0.282C0.264,-0.27 0.266,-0.258 0.266,-0.246L0.266,-0.153C0.266,-0.122 0.266,-0.09 0.266,-0.059L0.266,-0.053C0.266,-0.031 0.27,-0.017 0.277,-0.01C0.284,-0.003 0.299,-0 0.32,-0L0.333,-0Z" style="fill:white;fill-rule:nonzero;"/>
                        </g>
                        <g transform="matrix(107.271,0,0,230.107,719.96,479.717)">
                            <path d="M0.161,-0L0.337,-0C0.355,-0 0.368,-0.004 0.375,-0.011C0.382,-0.018 0.386,-0.033 0.386,-0.056L0.386,-0.066C0.386,-0.088 0.382,-0.102 0.375,-0.109C0.367,-0.117 0.352,-0.12 0.329,-0.12L0.273,-0.12C0.256,-0.12 0.238,-0.12 0.221,-0.121C0.195,-0.121 0.181,-0.133 0.18,-0.157C0.179,-0.177 0.178,-0.196 0.178,-0.215C0.178,-0.235 0.179,-0.254 0.18,-0.273C0.181,-0.296 0.195,-0.308 0.221,-0.309C0.225,-0.309 0.241,-0.31 0.267,-0.31C0.298,-0.311 0.313,-0.325 0.313,-0.352L0.313,-0.36C0.312,-0.385 0.3,-0.398 0.276,-0.399C0.268,-0.4 0.259,-0.4 0.25,-0.4L0.24,-0.4C0.216,-0.4 0.2,-0.404 0.192,-0.411C0.184,-0.418 0.179,-0.43 0.178,-0.446C0.177,-0.463 0.176,-0.479 0.176,-0.496C0.176,-0.512 0.177,-0.528 0.178,-0.544C0.179,-0.561 0.183,-0.572 0.19,-0.579C0.198,-0.585 0.209,-0.589 0.226,-0.589C0.245,-0.59 0.263,-0.59 0.282,-0.59L0.331,-0.59C0.353,-0.59 0.368,-0.594 0.375,-0.603C0.382,-0.611 0.386,-0.625 0.386,-0.643C0.386,-0.671 0.382,-0.689 0.375,-0.697C0.368,-0.704 0.354,-0.708 0.334,-0.708L0.108,-0.708C0.1,-0.708 0.092,-0.707 0.085,-0.706C0.071,-0.703 0.063,-0.695 0.061,-0.681C0.059,-0.667 0.059,-0.653 0.059,-0.639L0.059,-0.063C0.059,-0.052 0.059,-0.04 0.061,-0.029C0.063,-0.013 0.071,-0.004 0.087,-0.001C0.095,-0 0.12,-0 0.161,-0Z" style="fill:white;fill-rule:nonzero;"/>
                        </g>
                    </g>
                    <g transform="matrix(1.76187,0,0,0.513341,-503.036,228.566)">
                        <g transform="matrix(107.271,0,0,230.107,784.515,479.717)">
                            <path d="M0.193,0.016C0.215,0.016 0.237,0.014 0.259,0.009C0.288,0.003 0.311,-0.012 0.328,-0.036C0.346,-0.064 0.355,-0.095 0.355,-0.129L0.355,-0.137C0.354,-0.156 0.344,-0.166 0.326,-0.168C0.316,-0.169 0.306,-0.169 0.295,-0.169L0.271,-0.168C0.254,-0.168 0.243,-0.159 0.237,-0.142C0.225,-0.119 0.211,-0.107 0.193,-0.107C0.168,-0.109 0.154,-0.122 0.151,-0.146C0.149,-0.158 0.148,-0.171 0.148,-0.183L0.147,-0.5C0.147,-0.514 0.148,-0.526 0.149,-0.537C0.15,-0.547 0.153,-0.555 0.157,-0.563C0.166,-0.578 0.179,-0.586 0.194,-0.586C0.208,-0.586 0.22,-0.579 0.229,-0.564C0.232,-0.559 0.235,-0.554 0.236,-0.547C0.244,-0.527 0.258,-0.516 0.28,-0.516L0.3,-0.516C0.308,-0.516 0.316,-0.517 0.325,-0.518C0.345,-0.52 0.355,-0.531 0.355,-0.552L0.355,-0.557C0.355,-0.582 0.351,-0.606 0.342,-0.629C0.328,-0.667 0.302,-0.691 0.262,-0.701C0.239,-0.706 0.216,-0.709 0.193,-0.709C0.174,-0.709 0.156,-0.707 0.137,-0.704C0.082,-0.693 0.049,-0.661 0.038,-0.606C0.033,-0.58 0.03,-0.554 0.03,-0.528L0.029,-0.441L0.03,-0.346L0.029,-0.289L0.03,-0.153C0.03,-0.059 0.063,-0.005 0.129,0.009C0.151,0.014 0.172,0.016 0.193,0.016Z" style="fill:white;fill-rule:nonzero;"/>
                        </g>
                        <g transform="matrix(107.271,0,0,230.107,825.789,479.717)">
                            <path d="M0.193,0.016C0.213,0.016 0.233,0.014 0.254,0.01C0.298,0.002 0.327,-0.023 0.341,-0.065C0.35,-0.092 0.355,-0.119 0.356,-0.147C0.357,-0.213 0.357,-0.279 0.357,-0.345C0.357,-0.411 0.357,-0.477 0.356,-0.543C0.355,-0.569 0.351,-0.595 0.343,-0.621C0.331,-0.665 0.302,-0.692 0.256,-0.702C0.235,-0.706 0.214,-0.708 0.192,-0.708C0.17,-0.708 0.148,-0.706 0.126,-0.701C0.065,-0.687 0.033,-0.638 0.03,-0.555C0.03,-0.535 0.03,-0.496 0.03,-0.438C0.03,-0.359 0.03,-0.304 0.029,-0.271C0.029,-0.221 0.03,-0.177 0.03,-0.14C0.033,-0.053 0.065,-0.003 0.129,0.01C0.15,0.014 0.171,0.016 0.193,0.016ZM0.191,-0.107C0.17,-0.108 0.157,-0.119 0.151,-0.14C0.148,-0.155 0.146,-0.171 0.146,-0.187L0.146,-0.345L0.146,-0.504C0.146,-0.52 0.148,-0.535 0.151,-0.55C0.158,-0.574 0.172,-0.586 0.193,-0.586C0.203,-0.586 0.212,-0.582 0.22,-0.575C0.227,-0.568 0.232,-0.559 0.234,-0.548C0.236,-0.538 0.237,-0.528 0.237,-0.518L0.237,-0.174C0.237,-0.164 0.236,-0.153 0.234,-0.143C0.228,-0.119 0.213,-0.108 0.191,-0.107Z" style="fill:white;fill-rule:nonzero;"/>
                        </g>
                        <g transform="matrix(107.271,0,0,230.107,867.22,479.717)">
                            <path d="M0.193,0.016C0.213,0.016 0.233,0.014 0.254,0.01C0.298,0.002 0.327,-0.023 0.341,-0.065C0.35,-0.092 0.355,-0.119 0.356,-0.147C0.357,-0.213 0.357,-0.279 0.357,-0.345C0.357,-0.411 0.357,-0.477 0.356,-0.543C0.355,-0.569 0.351,-0.595 0.343,-0.621C0.331,-0.665 0.302,-0.692 0.256,-0.702C0.235,-0.706 0.214,-0.708 0.192,-0.708C0.17,-0.708 0.148,-0.706 0.126,-0.701C0.065,-0.687 0.033,-0.638 0.03,-0.555C0.03,-0.535 0.03,-0.496 0.03,-0.438C0.03,-0.359 0.03,-0.304 0.029,-0.271C0.029,-0.221 0.03,-0.177 0.03,-0.14C0.033,-0.053 0.065,-0.003 0.129,0.01C0.15,0.014 0.171,0.016 0.193,0.016ZM0.191,-0.107C0.17,-0.108 0.157,-0.119 0.151,-0.14C0.148,-0.155 0.146,-0.171 0.146,-0.187L0.146,-0.345L0.146,-0.504C0.146,-0.52 0.148,-0.535 0.151,-0.55C0.158,-0.574 0.172,-0.586 0.193,-0.586C0.203,-0.586 0.212,-0.582 0.22,-0.575C0.227,-0.568 0.232,-0.559 0.234,-0.548C0.236,-0.538 0.237,-0.528 0.237,-0.518L0.237,-0.174C0.237,-0.164 0.236,-0.153 0.234,-0.143C0.228,-0.119 0.213,-0.108 0.191,-0.107Z" style="fill:white;fill-rule:nonzero;"/>
                        </g>
                        <g transform="matrix(107.271,0,0,230.107,906.777,479.717)">
                            <path d="M0.122,-0C0.13,-0 0.139,-0 0.147,-0.001C0.166,-0.003 0.177,-0.015 0.178,-0.036L0.179,-0.052L0.179,-0.229C0.179,-0.237 0.179,-0.244 0.18,-0.25C0.181,-0.272 0.192,-0.285 0.213,-0.289C0.224,-0.291 0.234,-0.293 0.245,-0.294C0.317,-0.298 0.361,-0.332 0.375,-0.398C0.384,-0.434 0.388,-0.469 0.388,-0.505C0.388,-0.534 0.385,-0.564 0.379,-0.593C0.378,-0.602 0.376,-0.611 0.373,-0.62C0.36,-0.662 0.331,-0.689 0.288,-0.699C0.27,-0.703 0.251,-0.705 0.233,-0.706C0.208,-0.707 0.183,-0.707 0.157,-0.707L0.115,-0.707C0.091,-0.707 0.076,-0.704 0.069,-0.697C0.062,-0.69 0.059,-0.675 0.059,-0.652C0.059,-0.249 0.059,-0.042 0.06,-0.03C0.062,-0.014 0.071,-0.005 0.087,-0.002C0.098,-0.001 0.11,-0 0.122,-0ZM0.219,-0.412C0.215,-0.412 0.212,-0.412 0.208,-0.413C0.191,-0.418 0.181,-0.429 0.18,-0.446L0.18,-0.472L0.18,-0.502L0.179,-0.502L0.179,-0.527L0.18,-0.548C0.182,-0.574 0.195,-0.586 0.219,-0.586C0.236,-0.586 0.25,-0.578 0.258,-0.561C0.261,-0.556 0.262,-0.552 0.263,-0.548C0.267,-0.532 0.269,-0.515 0.269,-0.499C0.269,-0.465 0.263,-0.441 0.25,-0.426C0.242,-0.417 0.231,-0.412 0.219,-0.412Z" style="fill:white;fill-rule:nonzero;"/>
                        </g>
                    </g>
                </g>
                <g transform="matrix(1.96502,0,0,1.22814,-3675.29,-2905.51)">
                    <path d="M2263.63,2639.75C2254.91,2667.24 2229.16,2687.18 2198.8,2687.18C2161.27,2687.18 2130.8,2656.71 2130.8,2619.18C2130.8,2581.65 2161.27,2551.18 2198.8,2551.18C2236.33,2551.18 2266.8,2581.65 2266.8,2619.18C2266.8,2623.38 2266.42,2627.49 2265.69,2631.47C2264.8,2629.63 2263.76,2627.88 2262.54,2626.23C2259,2621.41 2253.94,2618.07 2247.2,2615.61C2241.36,2613.47 2234.12,2612.56 2225.12,2613.1C2221.87,2613.3 2218.4,2613.84 2214.7,2614.63C2213.21,2614.96 2211.68,2615.35 2210.12,2615.79C2208.02,2613.69 2205.89,2611.82 2203.66,2610.24C2192.59,2602.35 2181.01,2599.4 2169.98,2600.68C2154.24,2602.51 2140.19,2612.11 2131.85,2625.17C2141.94,2615.68 2155.95,2610.11 2170.04,2611.65C2174.88,2612.18 2179.51,2613.88 2184.14,2616.43C2189.93,2619.62 2195.22,2624.69 2199.96,2631.89L2203.77,2636.86L2209.79,2635.16C2213.61,2634.18 2217.19,2633.51 2220.49,2632.8C2224.28,2631.99 2227.7,2631.24 2230.87,2630.74C2234.6,2630.15 2237.84,2629.62 2240.85,2629.62C2244.4,2629.62 2247.42,2629.74 2250.18,2630.61C2255.72,2632.35 2259.98,2635.47 2263.63,2639.75Z" style="fill:rgb(255,177,198);"/>
                </g>
            </g>
        </g>
    </g>
</svg>
