<?xml version="1.0" encoding="UTF-8" standalone="no"?>
<!DOCTYPE svg PUBLIC "-//W3C//DTD SVG 1.1//EN" "http://www.w3.org/Graphics/SVG/1.1/DTD/svg11.dtd">
<svg width="100%" height="100%" viewBox="0 0 769 769" version="1.1" xmlns="http://www.w3.org/2000/svg" xmlns:xlink="http://www.w3.org/1999/xlink" xml:space="preserve" xmlns:serif="http://www.serif.com/" style="fill-rule:evenodd;clip-rule:evenodd;stroke-linejoin:round;stroke-miterlimit:1.41421;">
    <g transform="matrix(1,0,0,1,-854.156,-607.531)">
        <g id="Brighter-Shadow" serif:id="Brighter/Shadow" transform="matrix(1.2295,0,0,1.70692,854.156,-162.398)">
            <rect x="0" y="451.064" width="625.034" height="450.227" style="fill:rgb(39,209,182);"/>
            <g transform="matrix(1,0,0,1,-22.5504,-0.294794)">
                <g transform="matrix(1.08222,0,0,0.779529,-1093.29,36.1827)">
                    <path d="M1387.83,924.405L1384.01,924.405C1383.86,924.405 1383.71,924.401 1383.56,924.393C1383.41,924.384 1383.26,924.372 1383.11,924.355C1382.64,924.306 1382.18,924.277 1381.71,924.268C1381.25,924.26 1380.79,924.297 1380.32,924.38C1380.07,924.414 1379.83,924.414 1379.6,924.38C1379.5,924.364 1379.4,924.335 1379.31,924.293C1379.22,924.252 1379.13,924.214 1379.05,924.181C1378.93,924.115 1378.87,924.011 1378.86,923.87C1378.86,923.729 1378.9,923.625 1379,923.558C1379.07,923.525 1379.13,923.488 1379.19,923.446C1379.25,923.405 1379.32,923.367 1379.4,923.334C1379.73,923.251 1379.95,923.11 1380.07,922.911C1380.19,922.712 1380.24,922.454 1380.22,922.139L1380.22,910.632C1380.22,910.001 1380.2,909.362 1380.15,908.714C1380.15,908.531 1380.08,908.386 1379.93,908.278C1379.79,908.17 1379.63,908.124 1379.45,908.141C1379.35,908.141 1379.25,908.153 1379.15,908.178L1379.15,908.179C1379.05,908.204 1378.95,908.216 1378.85,908.216C1378.77,908.232 1378.69,908.237 1378.63,908.228C1378.56,908.22 1378.49,908.216 1378.4,908.216C1378.32,908.199 1378.24,908.154 1378.15,908.079C1378.07,908.004 1378.01,907.925 1377.98,907.842C1377.93,907.643 1377.98,907.469 1378.13,907.319C1378.41,907.053 1378.72,906.912 1379.05,906.896C1379.45,906.846 1379.84,906.821 1380.22,906.821C1381.4,906.821 1382.56,906.825 1383.71,906.833L1383.83,906.834C1384.98,906.842 1386.14,906.846 1387.32,906.846C1387.88,906.846 1388.43,906.842 1388.99,906.834L1389.04,906.833C1389.6,906.825 1390.15,906.821 1390.71,906.821C1390.89,906.821 1391.06,906.821 1391.23,906.821C1391.39,906.821 1391.56,906.829 1391.73,906.846C1391.91,906.846 1392.08,906.925 1392.24,907.083C1392.4,907.24 1392.48,907.419 1392.5,907.618C1392.52,907.867 1392.52,908.116 1392.5,908.365C1392.48,908.448 1392.47,908.54 1392.45,908.639C1392.43,908.739 1392.41,908.838 1392.38,908.938C1392.24,909.337 1392.28,909.71 1392.48,910.059C1392.51,910.109 1392.53,910.159 1392.53,910.208C1392.53,910.258 1392.53,910.308 1392.55,910.358C1392.57,910.474 1392.54,910.59 1392.48,910.706C1392.41,910.823 1392.33,910.906 1392.23,910.956C1391.99,911.088 1391.75,911.138 1391.5,911.105C1391.32,911.072 1391.16,911.005 1391.02,910.906C1390.88,910.806 1390.79,910.665 1390.76,910.482C1390.72,910.399 1390.7,910.308 1390.68,910.208C1390.66,910.109 1390.65,910.009 1390.63,909.909C1390.62,909.727 1390.61,909.536 1390.62,909.337C1390.63,909.137 1390.62,908.938 1390.58,908.739C1390.58,908.672 1390.57,908.61 1390.53,908.552C1390.5,908.494 1390.47,908.44 1390.43,908.39C1390.35,908.357 1390.29,908.328 1390.25,908.303C1390.2,908.278 1390.16,908.266 1390.11,908.266C1389.06,908.266 1388.02,908.27 1386.99,908.278L1386.9,908.278C1385.87,908.286 1384.83,908.291 1383.78,908.291C1383.73,908.291 1383.68,908.303 1383.63,908.328C1383.58,908.353 1383.53,908.382 1383.48,908.415C1383.4,908.531 1383.33,908.648 1383.28,908.764C1383.25,908.863 1383.23,908.963 1383.23,909.063L1383.23,913.496C1383.23,913.579 1383.24,913.67 1383.26,913.77C1383.28,913.87 1383.29,913.969 1383.31,914.069C1383.33,914.152 1383.38,914.235 1383.46,914.318C1383.54,914.401 1383.62,914.442 1383.71,914.442C1384.26,914.476 1384.8,914.496 1385.34,914.505C1385.88,914.513 1386.41,914.492 1386.94,914.442C1386.98,914.442 1387,914.434 1387.02,914.418C1387.04,914.401 1387.06,914.384 1387.1,914.368C1387.19,914.335 1387.27,914.272 1387.31,914.181C1387.35,914.09 1387.38,914.002 1387.42,913.919C1387.57,913.67 1387.76,913.521 1387.99,913.471C1388.09,913.438 1388.18,913.434 1388.25,913.459C1388.33,913.484 1388.46,913.562 1388.64,913.695C1388.71,913.812 1388.74,913.928 1388.75,914.044C1388.76,914.16 1388.76,914.285 1388.76,914.418C1388.75,914.744 1388.73,915.068 1388.72,915.387L1388.71,915.515C1388.69,915.835 1388.68,916.158 1388.66,916.485C1388.65,916.701 1388.57,916.871 1388.43,916.995C1388.29,917.12 1388.1,917.174 1387.87,917.157C1387.78,917.157 1387.69,917.145 1387.59,917.12C1387.49,917.095 1387.39,917.074 1387.29,917.058C1387.23,916.875 1387.16,916.709 1387.11,916.56C1387.05,916.41 1386.99,916.261 1386.92,916.111C1386.85,916.078 1386.8,916.049 1386.76,916.024C1386.72,915.999 1386.67,915.987 1386.62,915.987C1386.14,915.97 1385.66,915.962 1385.16,915.962L1385.14,915.962C1384.65,915.962 1384.16,915.953 1383.68,915.937C1383.57,915.937 1383.46,915.987 1383.37,916.086C1383.28,916.186 1383.23,916.302 1383.21,916.435C1383.19,916.518 1383.18,916.593 1383.18,916.659C1383.18,916.726 1383.18,916.8 1383.18,916.883C1383.17,917.448 1383.16,918.012 1383.16,918.577C1383.16,919.142 1383.16,919.706 1383.16,920.271C1383.16,920.653 1383.18,921.022 1383.22,921.379C1383.26,921.736 1383.33,922.097 1383.41,922.462C1383.44,922.562 1383.49,922.658 1383.55,922.749C1383.6,922.84 1383.7,922.927 1383.83,923.01C1383.91,923.01 1384.03,923.023 1384.17,923.048C1384.31,923.073 1384.45,923.085 1384.58,923.085L1388.56,923.085C1388.71,923.085 1388.86,923.081 1389.01,923.073C1389.16,923.064 1389.31,923.052 1389.46,923.035C1389.94,922.952 1390.31,922.803 1390.56,922.587C1390.81,922.371 1390.99,922.031 1391.11,921.566C1391.14,921.45 1391.16,921.333 1391.17,921.217C1391.17,921.101 1391.2,920.976 1391.23,920.844C1391.31,920.478 1391.46,920.179 1391.68,919.947C1391.91,919.665 1392.22,919.54 1392.6,919.573C1392.91,919.573 1393.16,919.756 1393.32,920.121C1393.26,920.42 1393.19,920.702 1393.13,920.968C1393.08,921.234 1393.03,921.499 1393,921.765C1392.96,922.014 1392.95,922.263 1392.96,922.512C1392.97,922.761 1392.96,923.002 1392.95,923.235C1392.95,923.384 1392.92,923.533 1392.87,923.683C1392.79,923.949 1392.63,924.115 1392.4,924.181C1392.27,924.214 1392.14,924.239 1392.03,924.256C1391.91,924.272 1391.79,924.281 1391.68,924.281C1390.38,924.364 1389.1,924.405 1387.83,924.405Z" style="fill:white;"/>
                </g>
                <g transform="matrix(1.08222,0,0,0.779529,-1094.1,36.1827)">
                    <path d="M1285.08,910.208L1284.33,910.208C1284.21,910.192 1284.11,910.134 1284.02,910.034C1283.93,909.934 1283.88,909.818 1283.88,909.685C1283.9,909.403 1283.91,909.112 1283.92,908.814C1283.93,908.515 1283.95,908.224 1283.98,907.942C1284.01,907.776 1284.06,907.635 1284.13,907.518C1284.25,907.269 1284.43,907.12 1284.68,907.07C1284.89,907.02 1285.13,906.995 1285.4,906.995C1285.91,906.979 1286.41,906.967 1286.92,906.958L1286.97,906.958C1287.48,906.949 1287.98,906.937 1288.49,906.921C1288.74,906.921 1288.98,906.912 1289.22,906.896C1289.46,906.879 1289.71,906.863 1289.96,906.846C1290.16,906.829 1290.36,906.813 1290.56,906.796C1290.76,906.78 1290.95,906.78 1291.13,906.796C1291.76,906.846 1292.38,906.854 1292.99,906.821C1293.59,906.788 1294.2,906.755 1294.82,906.721C1295.06,906.705 1295.31,906.701 1295.55,906.709C1295.79,906.717 1296.04,906.73 1296.29,906.746C1296.37,906.746 1296.45,906.788 1296.53,906.871C1296.62,906.954 1296.67,907.037 1296.71,907.12C1296.71,907.153 1296.71,907.178 1296.72,907.195C1296.73,907.211 1296.73,907.228 1296.73,907.244C1296.73,907.593 1296.77,907.938 1296.85,908.278C1296.92,908.618 1297,908.955 1297.08,909.287C1297.1,909.353 1297.09,909.445 1297.06,909.561C1297.02,909.677 1296.97,909.76 1296.91,909.81C1296.67,909.959 1296.42,909.988 1296.13,909.897C1295.85,909.806 1295.66,909.627 1295.56,909.362C1295.53,909.245 1295.5,909.129 1295.46,909.013C1295.43,908.897 1295.4,908.772 1295.36,908.639C1295.25,908.324 1295.04,908.141 1294.74,908.091C1294.39,908.058 1294.01,908.037 1293.58,908.029C1293.16,908.021 1292.77,908.058 1292.42,908.141C1292.39,908.158 1292.35,908.178 1292.31,908.203C1292.27,908.228 1292.23,908.257 1292.2,908.291C1292.07,908.54 1291.98,908.797 1291.95,909.063C1291.92,909.328 1291.9,909.602 1291.9,909.885C1291.9,910.25 1291.9,910.615 1291.91,910.98C1291.92,911.346 1291.93,911.711 1291.95,912.076C1291.98,912.525 1292.01,912.969 1292.03,913.409C1292.04,913.849 1292.06,914.293 1292.08,914.741C1292.09,915.771 1292.1,916.796 1292.1,917.817C1292.1,918.839 1292.11,919.872 1292.12,920.918C1292.12,921.151 1292.13,921.375 1292.14,921.591C1292.15,921.807 1292.16,922.022 1292.17,922.238C1292.19,922.653 1292.38,922.977 1292.75,923.21C1292.9,923.293 1293.06,923.401 1293.25,923.533C1293.33,923.6 1293.35,923.691 1293.32,923.807C1293.29,923.924 1293.23,923.998 1293.15,924.032C1292.73,924.214 1292.31,924.281 1291.88,924.231C1291.73,924.198 1291.58,924.173 1291.43,924.156C1291.28,924.14 1291.13,924.123 1290.98,924.106C1290.8,924.09 1290.65,924.077 1290.54,924.069C1290.44,924.061 1290.34,924.061 1290.26,924.069C1290.17,924.077 1290.08,924.09 1289.97,924.106C1289.86,924.123 1289.72,924.156 1289.54,924.206C1289.3,924.272 1289.06,924.314 1288.81,924.33C1288.56,924.347 1288.32,924.33 1288.09,924.281C1288.01,924.264 1287.86,924.235 1287.64,924.193C1287.43,924.152 1287.3,924.09 1287.27,924.007C1287.25,923.973 1287.27,923.936 1287.32,923.895C1287.37,923.853 1287.43,923.816 1287.49,923.783L1287.84,923.608C1287.96,923.509 1288.09,923.438 1288.23,923.396C1288.37,923.355 1288.51,923.309 1288.64,923.259C1288.95,923.143 1289.17,922.894 1289.29,922.512C1289.32,922.413 1289.34,922.313 1289.35,922.213C1289.36,922.114 1289.37,922.022 1289.39,921.939L1289.39,920.893C1289.37,919.714 1289.36,918.54 1289.36,917.369C1289.36,916.198 1289.34,915.015 1289.31,913.82C1289.29,913.073 1289.27,912.338 1289.24,911.616C1289.2,910.893 1289.17,910.159 1289.14,909.411C1289.14,909.278 1289.12,909.158 1289.1,909.05C1289.07,908.942 1289.05,908.822 1289.01,908.689C1289,908.589 1288.93,908.49 1288.81,908.39C1288.7,908.291 1288.59,908.232 1288.49,908.216C1288.19,908.183 1287.81,908.17 1287.36,908.178C1286.9,908.187 1286.52,908.207 1286.22,908.241C1286.14,908.257 1286.04,908.32 1285.92,908.427C1285.81,908.535 1285.74,908.631 1285.72,908.714C1285.69,908.897 1285.67,909.071 1285.65,909.237C1285.63,909.403 1285.61,909.569 1285.58,909.735C1285.56,909.851 1285.5,909.955 1285.4,910.046C1285.3,910.138 1285.19,910.192 1285.08,910.208Z" style="fill:white;"/>
                </g>
                <g transform="matrix(1.08222,0,0,0.779529,-1094.1,36.1827)">
                    <path d="M1248.19,908.116L1247.62,908.116C1247.47,908.1 1247.34,908.033 1247.24,907.917C1247.14,907.801 1247.09,907.66 1247.09,907.493C1247.09,907.327 1247.14,907.182 1247.23,907.058C1247.32,906.933 1247.43,906.854 1247.57,906.821C1247.8,906.788 1248.02,906.767 1248.24,906.759C1248.45,906.75 1248.67,906.771 1248.89,906.821C1249.35,906.921 1249.81,906.97 1250.27,906.97C1250.73,906.97 1251.19,906.929 1251.68,906.846C1252.26,906.746 1252.84,906.746 1253.42,906.846C1253.64,906.896 1253.77,907.037 1253.82,907.269C1253.84,907.352 1253.82,907.448 1253.77,907.556C1253.72,907.664 1253.65,907.734 1253.57,907.767C1253.51,907.799 1253.44,907.819 1253.38,907.828L1253.36,907.831C1253.3,907.841 1253.23,907.861 1253.17,907.892C1253.12,907.909 1253.08,907.929 1253.03,907.954C1252.99,907.979 1252.95,908.008 1252.92,908.041C1252.9,908.041 1252.88,908.083 1252.85,908.166C1252.81,908.299 1252.81,908.398 1252.82,908.465C1252.92,908.963 1253.05,909.457 1253.2,909.947C1253.35,910.437 1253.54,910.914 1253.77,911.379C1253.97,911.811 1254.15,912.247 1254.3,912.687C1254.46,913.127 1254.62,913.562 1254.77,913.994C1255,914.642 1255.23,915.289 1255.48,915.937C1255.72,916.584 1255.95,917.232 1256.18,917.88C1256.27,918.145 1256.41,918.311 1256.61,918.378C1256.73,918.328 1256.81,918.257 1256.86,918.166C1256.91,918.075 1256.95,917.988 1256.98,917.905C1257.18,917.456 1257.38,916.995 1257.57,916.522C1257.76,916.049 1257.94,915.588 1258.1,915.14C1258.27,914.692 1258.42,914.264 1258.56,913.857C1258.7,913.45 1258.82,913.081 1258.9,912.749C1258.87,912.666 1258.84,912.566 1258.81,912.45C1258.79,912.334 1258.75,912.217 1258.7,912.101L1257.31,909.013C1257.17,908.714 1257.02,908.432 1256.86,908.166C1256.69,907.9 1256.44,907.701 1256.11,907.568C1256.06,907.552 1256,907.477 1255.94,907.344C1255.87,907.261 1255.87,907.145 1255.94,906.995C1256,906.846 1256.09,906.763 1256.18,906.746C1256.35,906.713 1256.49,906.696 1256.61,906.696L1261.49,906.696C1261.57,906.696 1261.66,906.705 1261.76,906.721C1261.86,906.738 1261.96,906.763 1262.06,906.796C1262.1,906.813 1262.14,906.858 1262.19,906.933C1262.24,907.008 1262.25,907.087 1262.24,907.17C1262.24,907.253 1262.2,907.336 1262.11,907.419C1262,907.518 1261.86,907.572 1261.71,907.581C1261.57,907.589 1261.42,907.618 1261.29,907.668C1261.08,907.718 1260.93,907.875 1260.87,908.141C1260.95,908.573 1261.05,909.025 1261.18,909.498C1261.3,909.972 1261.46,910.432 1261.64,910.881C1261.89,911.445 1262.12,912.014 1262.35,912.587C1262.57,913.16 1262.78,913.737 1262.96,914.318C1263.14,914.849 1263.33,915.381 1263.53,915.912C1263.73,916.443 1263.93,916.975 1264.13,917.506C1264.16,917.589 1264.2,917.676 1264.26,917.768C1264.3,917.859 1264.35,917.946 1264.4,918.029C1264.44,918.095 1264.5,918.133 1264.59,918.141C1264.68,918.149 1264.74,918.12 1264.78,918.054C1264.84,917.954 1264.91,917.855 1264.96,917.755C1265.02,917.655 1265.08,917.548 1265.13,917.431C1265.36,916.793 1265.6,916.166 1265.84,915.549L1265.93,915.303C1266.17,914.687 1266.41,914.06 1266.65,913.421C1266.91,912.757 1267.17,912.097 1267.43,911.441C1267.69,910.785 1267.94,910.117 1268.19,909.436C1268.32,909.071 1268.44,908.722 1268.54,908.39C1268.47,908.124 1268.33,907.975 1268.12,907.942C1267.95,907.913 1267.81,907.887 1267.66,907.864L1267.55,907.845C1267.4,907.822 1267.25,907.797 1267.09,907.767C1266.94,907.734 1266.85,907.635 1266.82,907.469C1266.79,907.386 1266.79,907.29 1266.83,907.182C1266.87,907.074 1266.94,907.004 1267.02,906.97C1267.07,906.937 1267.12,906.912 1267.16,906.896C1267.2,906.879 1267.24,906.863 1267.29,906.846C1267.43,906.813 1267.53,906.796 1267.59,906.796C1268.22,906.796 1268.86,906.796 1269.5,906.796C1270.14,906.796 1270.78,906.804 1271.43,906.821C1271.59,906.821 1271.76,906.842 1271.93,906.883C1272.09,906.925 1272.26,906.962 1272.42,906.995C1272.51,907.012 1272.59,907.066 1272.67,907.157C1272.76,907.249 1272.8,907.336 1272.8,907.419C1272.81,907.518 1272.78,907.626 1272.7,907.743C1272.62,907.859 1272.52,907.934 1272.4,907.967C1272.33,908 1272.27,908.021 1272.2,908.029C1272.13,908.037 1272.06,908.05 1271.98,908.066L1271.68,908.066C1271.63,908.083 1271.58,908.091 1271.54,908.091L1271.54,908.091C1271.5,908.091 1271.45,908.1 1271.4,908.116C1271.27,908.166 1271.17,908.237 1271.1,908.328C1271.04,908.419 1270.97,908.523 1270.9,908.639C1270.54,909.386 1270.2,910.142 1269.88,910.906C1269.57,911.67 1269.27,912.45 1268.99,913.247C1268.56,914.442 1268.11,915.621 1267.65,916.784C1267.2,917.946 1266.74,919.108 1266.27,920.271C1266.11,920.702 1265.93,921.13 1265.74,921.553C1265.55,921.977 1265.38,922.413 1265.23,922.861C1265.18,923.044 1265.1,923.222 1265,923.396C1264.9,923.571 1264.8,923.741 1264.7,923.907C1264.55,924.173 1264.31,924.314 1263.97,924.33C1263.63,924.347 1263.36,924.239 1263.16,924.007C1263.08,923.924 1263,923.832 1262.93,923.733C1262.87,923.633 1262.81,923.525 1262.76,923.409C1262.68,923.243 1262.61,923.081 1262.56,922.923C1262.51,922.766 1262.46,922.604 1262.41,922.438C1262.28,922.006 1262.15,921.582 1262.01,921.167C1261.88,920.752 1261.75,920.329 1261.62,919.897C1261.43,919.266 1261.22,918.643 1260.98,918.029C1260.74,917.415 1260.5,916.792 1260.27,916.161C1260.24,916.078 1260.2,916.012 1260.16,915.962C1260.12,915.912 1260.08,915.854 1260.05,915.787C1260.03,915.754 1259.99,915.721 1259.92,915.688C1259.82,915.655 1259.75,915.688 1259.7,915.787L1259.4,916.46C1259.25,916.842 1259.1,917.232 1258.96,917.631C1258.82,918.029 1258.67,918.419 1258.5,918.801C1257.87,920.262 1257.3,921.773 1256.78,923.334C1256.75,923.417 1256.73,923.492 1256.71,923.558C1256.69,923.625 1256.67,923.691 1256.63,923.758C1256.55,924.007 1256.39,924.177 1256.15,924.268C1255.91,924.36 1255.66,924.355 1255.41,924.256C1255.3,924.206 1255.19,924.144 1255.09,924.069C1254.99,923.994 1254.91,923.899 1254.87,923.783C1254.68,923.467 1254.54,923.152 1254.44,922.836C1254.29,922.404 1254.15,921.964 1254.01,921.516C1253.86,921.068 1253.73,920.619 1253.6,920.171C1253.41,919.557 1253.21,918.951 1252.98,918.353C1252.76,917.755 1252.53,917.157 1252.3,916.56C1252.08,916.012 1251.87,915.464 1251.66,914.916C1251.46,914.368 1251.26,913.812 1251.08,913.247C1250.78,912.4 1250.46,911.574 1250.12,910.769C1249.78,909.963 1249.39,909.171 1248.96,908.39C1248.94,908.34 1248.92,908.303 1248.89,908.278C1248.85,908.253 1248.83,908.232 1248.81,908.216C1248.7,908.133 1248.59,908.095 1248.49,908.104C1248.39,908.112 1248.29,908.116 1248.19,908.116Z" style="fill:white;"/>
                </g>
                <g transform="matrix(1.08222,0,0,0.779529,-1091.92,36.1827)">
                    <path d="M1361.57,906.682C1361.71,906.682 1361.86,906.683 1362,906.684C1362.92,906.692 1363.86,906.713 1364.8,906.746C1364.92,906.746 1365.06,906.78 1365.23,906.846C1365.29,906.863 1365.35,906.904 1365.39,906.97C1365.43,907.037 1365.44,907.112 1365.43,907.195C1365.41,907.244 1365.39,907.294 1365.36,907.344C1365.34,907.394 1365.31,907.427 1365.28,907.444C1365.11,907.493 1364.95,907.539 1364.79,907.581C1364.63,907.622 1364.46,907.668 1364.28,907.718C1364.2,907.751 1364.11,907.792 1364.03,907.842C1363.95,907.892 1363.87,907.983 1363.81,908.116C1363.87,908.531 1363.96,908.951 1364.07,909.374C1364.18,909.797 1364.32,910.208 1364.5,910.607C1364.99,911.719 1365.43,912.84 1365.83,913.969C1366.22,915.098 1366.63,916.236 1367.05,917.381C1367.08,917.498 1367.12,917.61 1367.18,917.718C1367.24,917.826 1367.3,917.929 1367.37,918.029C1367.4,918.112 1367.48,918.154 1367.59,918.154C1367.69,918.154 1367.78,918.104 1367.84,918.004C1367.96,917.805 1368.06,917.581 1368.14,917.332L1371.13,909.486C1371.2,909.303 1371.27,909.121 1371.34,908.938C1371.42,908.755 1371.44,908.548 1371.4,908.315L1371.23,908.141C1370.85,908.124 1370.5,908.1 1370.18,908.066C1370.05,908.05 1369.94,908 1369.85,907.917C1369.76,907.834 1369.7,907.726 1369.68,907.593C1369.65,907.327 1369.75,907.12 1369.98,906.97C1370.03,906.937 1370.08,906.912 1370.12,906.896C1370.16,906.879 1370.21,906.863 1370.26,906.846C1370.41,906.796 1370.55,906.771 1370.68,906.771C1371.26,906.771 1371.83,906.771 1372.39,906.771C1372.94,906.771 1373.51,906.763 1374.09,906.746C1374.53,906.746 1374.88,906.879 1375.16,907.145C1375.28,907.261 1375.36,907.377 1375.41,907.493C1375.46,907.593 1375.45,907.714 1375.39,907.855C1375.32,907.996 1375.24,908.075 1375.14,908.091C1374.99,908.108 1374.84,908.116 1374.69,908.116C1374.54,908.116 1374.4,908.124 1374.27,908.141C1373.99,908.174 1373.78,908.291 1373.64,908.49C1373.46,908.755 1373.31,909.034 1373.18,909.324C1373.06,909.615 1372.94,909.909 1372.82,910.208L1370.13,917.381C1370.05,917.614 1369.96,917.842 1369.87,918.066C1369.78,918.291 1369.68,918.519 1369.59,918.751C1369.3,919.366 1369.05,919.984 1368.83,920.607C1368.6,921.23 1368.38,921.856 1368.17,922.487C1368.08,922.72 1368,922.948 1367.92,923.172C1367.83,923.396 1367.74,923.625 1367.64,923.857C1367.56,924.04 1367.43,924.173 1367.26,924.256C1367.08,924.339 1366.89,924.355 1366.67,924.306C1366.34,924.223 1366.1,924.057 1365.95,923.807C1365.87,923.658 1365.79,923.504 1365.73,923.347C1365.66,923.189 1365.6,923.027 1365.55,922.861C1365.39,922.367 1365.23,921.876 1365.07,921.389L1364.93,920.971C1364.77,920.483 1364.61,919.993 1364.45,919.499C1364.42,919.432 1364.4,919.391 1364.4,919.374C1363.92,917.963 1363.42,916.572 1362.9,915.202C1362.38,913.832 1361.85,912.458 1361.32,911.08C1361.13,910.615 1360.93,910.167 1360.72,909.735C1360.44,909.137 1360.15,908.598 1359.87,908.116C1359.74,907.967 1359.59,907.875 1359.44,907.842C1359.28,907.809 1359.13,907.776 1359,907.743C1358.78,907.66 1358.65,907.527 1358.6,907.344C1358.54,907.161 1358.6,906.987 1358.8,906.821C1358.87,906.788 1358.93,906.763 1358.99,906.746C1359.05,906.73 1359.12,906.721 1359.2,906.721C1359.97,906.694 1360.73,906.681 1361.48,906.682L1361.57,906.682Z" style="fill:white;"/>
                </g>
                <g transform="matrix(1.08222,0,0,0.779529,-1094.1,36.1827)">
                    <path d="M1280.32,924.281L1278.27,924.281C1277.71,924.281 1277.15,924.272 1276.58,924.256C1276.45,924.256 1276.33,924.252 1276.21,924.243C1276.09,924.235 1275.97,924.223 1275.84,924.206C1275.8,924.189 1275.75,924.148 1275.69,924.081C1275.62,924.015 1275.59,923.949 1275.59,923.882C1275.59,923.832 1275.59,923.783 1275.6,923.733C1275.61,923.683 1275.62,923.625 1275.64,923.558C1275.8,923.475 1275.97,923.392 1276.15,923.309C1276.32,923.226 1276.5,923.143 1276.68,923.06C1276.72,922.944 1276.74,922.84 1276.76,922.749C1276.77,922.658 1276.79,922.562 1276.81,922.462L1276.81,920.694C1276.82,920.213 1276.83,919.723 1276.83,919.225C1276.83,918.726 1276.87,918.237 1276.93,917.755C1276.96,917.622 1276.98,917.498 1276.98,917.381L1276.98,913.708C1276.98,912.604 1276.99,911.495 1277.01,910.383C1277.04,909.602 1276.96,908.88 1276.76,908.216C1276.67,908.083 1276.58,907.987 1276.48,907.929C1276.38,907.871 1276.28,907.826 1276.16,907.792C1276.07,907.763 1275.99,907.741 1275.91,907.724L1275.84,907.711C1275.76,907.695 1275.67,907.672 1275.59,907.643C1275.4,907.593 1275.31,907.435 1275.31,907.17C1275.33,907.07 1275.37,906.975 1275.42,906.883C1275.48,906.792 1275.55,906.738 1275.64,906.721C1275.72,906.705 1275.79,906.688 1275.85,906.672C1275.91,906.655 1275.98,906.647 1276.06,906.647C1276.77,906.63 1277.49,906.622 1278.2,906.622C1278.92,906.622 1279.63,906.622 1280.34,906.622C1280.54,906.622 1280.78,906.663 1281.07,906.746C1281.13,906.763 1281.19,906.8 1281.24,906.858C1281.29,906.916 1281.33,906.97 1281.37,907.02C1281.38,907.053 1281.38,907.095 1281.37,907.145C1281.35,907.195 1281.34,907.253 1281.34,907.319C1281.17,907.469 1280.98,907.552 1280.74,907.568C1280.51,907.585 1280.3,907.668 1280.12,907.817C1280.09,907.867 1280.05,907.921 1280.02,907.979C1279.99,908.037 1279.97,908.108 1279.97,908.191C1279.94,908.374 1279.92,908.544 1279.92,908.701L1279.92,921.74C1279.92,921.89 1279.92,922.039 1279.93,922.188C1279.94,922.338 1279.95,922.487 1279.97,922.637C1279.97,922.703 1279.98,922.774 1280.01,922.849C1280.03,922.923 1280.06,923.002 1280.1,923.085L1280.99,923.484C1281.09,923.567 1281.14,923.654 1281.13,923.745C1281.12,923.836 1281.1,923.94 1281.07,924.057C1281,924.09 1280.94,924.123 1280.88,924.156C1280.82,924.189 1280.76,924.214 1280.69,924.231C1280.56,924.264 1280.44,924.281 1280.32,924.281Z" style="fill:white;"/>
                </g>
                <g transform="matrix(1.08222,0,0,0.779529,-1089.19,36.1827)">
                    <path d="M1327.02,924.206L1324.5,924.206C1324.2,924.206 1324.08,923.998 1324.13,923.583C1324.26,923.401 1324.43,923.289 1324.63,923.247C1324.83,923.206 1325.02,923.118 1325.2,922.986C1325.24,922.952 1325.27,922.911 1325.3,922.861C1325.33,922.811 1325.36,922.745 1325.38,922.662C1325.44,922.462 1325.48,922.222 1325.48,921.939C1325.51,919.963 1325.53,917.996 1325.54,916.037C1325.55,914.077 1325.56,912.118 1325.58,910.159C1325.58,909.876 1325.57,909.602 1325.55,909.337C1325.53,909.071 1325.51,908.805 1325.48,908.54C1325.46,908.357 1325.38,908.207 1325.25,908.091C1325.12,907.975 1324.96,907.9 1324.78,907.867C1324.68,907.852 1324.59,907.847 1324.5,907.853L1324.46,907.856C1324.37,907.862 1324.27,907.858 1324.18,907.842C1324.06,907.826 1323.96,907.772 1323.88,907.68C1323.8,907.589 1323.75,907.477 1323.73,907.344C1323.71,907.195 1323.76,907.058 1323.86,906.933C1323.96,906.809 1324.07,906.73 1324.2,906.696C1324.27,906.663 1324.32,906.647 1324.36,906.647C1324.39,906.647 1324.41,906.643 1324.43,906.636L1324.43,906.633C1324.45,906.625 1324.47,906.622 1324.5,906.622C1325.35,906.638 1326.18,906.647 1327.01,906.647L1329.51,906.647C1329.58,906.647 1329.63,906.655 1329.66,906.672C1329.74,906.705 1329.83,906.742 1329.91,906.784C1329.99,906.825 1330.07,906.887 1330.13,906.97C1330.2,907.053 1330.23,907.145 1330.22,907.244C1330.21,907.344 1330.19,907.435 1330.16,907.518C1329.99,907.718 1329.8,907.805 1329.57,907.78C1329.35,907.755 1329.14,907.792 1328.96,907.892C1328.8,907.975 1328.68,908.083 1328.63,908.216C1328.57,908.349 1328.52,908.49 1328.49,908.639C1328.47,908.755 1328.46,908.872 1328.46,908.988C1328.46,909.104 1328.46,909.229 1328.46,909.362C1328.46,909.694 1328.46,910.017 1328.45,910.333C1328.44,910.648 1328.45,910.964 1328.46,911.279C1328.51,912.89 1328.54,914.488 1328.53,916.074C1328.52,917.66 1328.51,919.258 1328.51,920.868C1328.5,921.101 1328.49,921.321 1328.5,921.528C1328.51,921.736 1328.52,921.956 1328.54,922.188C1328.56,922.371 1328.63,922.521 1328.75,922.637C1328.88,922.753 1329.03,922.828 1329.21,922.861C1329.26,922.861 1329.31,922.865 1329.35,922.872L1329.37,922.875C1329.42,922.882 1329.46,922.886 1329.51,922.886C1330.09,922.886 1330.68,922.89 1331.27,922.898C1331.86,922.907 1332.45,922.902 1333.05,922.886C1333.3,922.886 1333.54,922.865 1333.77,922.824C1334,922.782 1334.23,922.703 1334.47,922.587C1334.68,922.471 1334.86,922.334 1335,922.176C1335.14,922.018 1335.24,921.823 1335.29,921.591C1335.32,921.458 1335.34,921.333 1335.35,921.217C1335.36,921.101 1335.38,920.985 1335.41,920.868C1335.5,920.619 1335.61,920.354 1335.76,920.071C1335.96,919.739 1336.25,919.573 1336.63,919.573C1336.7,919.573 1336.77,919.577 1336.83,919.586C1336.9,919.594 1336.97,919.606 1337.06,919.623C1337.19,919.64 1337.31,919.719 1337.42,919.86C1337.53,920.001 1337.56,920.138 1337.53,920.271C1337.5,920.503 1337.45,920.74 1337.39,920.981C1337.34,921.221 1337.29,921.466 1337.26,921.715C1337.22,921.948 1337.21,922.188 1337.22,922.438C1337.23,922.687 1337.22,922.936 1337.21,923.185L1337.21,923.334C1337.17,923.517 1337.08,923.687 1336.93,923.845C1336.78,924.003 1336.62,924.098 1336.43,924.131C1336.32,924.164 1336.2,924.189 1336.09,924.206C1335.97,924.223 1335.85,924.231 1335.71,924.231C1335.15,924.247 1334.58,924.26 1334.02,924.268C1333.45,924.277 1332.89,924.272 1332.33,924.256C1331.79,924.256 1331.28,924.247 1330.77,924.231C1330.26,924.214 1329.75,924.206 1329.24,924.206C1328.86,924.189 1328.48,924.185 1328.12,924.193C1327.75,924.202 1327.38,924.206 1327.02,924.206Z" style="fill:white;"/>
                </g>
                <g transform="matrix(1.08222,0,0,0.779529,-1094.79,36.1827)">
                    <path d="M1304.75,915.414C1304.69,915.414 1304.62,915.422 1304.55,915.439C1304.49,915.455 1304.41,915.472 1304.33,915.489C1304.28,915.505 1304.22,915.547 1304.15,915.613C1304.09,915.68 1304.05,915.738 1304.03,915.787C1304.01,915.87 1304,915.945 1303.99,916.012C1303.99,916.078 1303.98,916.153 1303.98,916.236C1303.96,917.182 1303.95,918.116 1303.94,919.038C1303.93,919.959 1303.93,920.893 1303.93,921.84C1303.91,922.022 1303.92,922.188 1303.94,922.338C1303.97,922.487 1303.98,922.62 1303.98,922.736C1304.06,922.919 1304.16,923.035 1304.28,923.085C1304.4,923.135 1304.51,923.193 1304.63,923.259C1304.75,923.326 1304.84,923.401 1304.93,923.484C1305.01,923.567 1305.04,923.683 1305,923.832C1304.97,924.115 1304.75,924.256 1304.33,924.256C1304.08,924.256 1303.83,924.247 1303.58,924.231C1303.33,924.214 1303.09,924.189 1302.86,924.156C1302.58,924.123 1302.31,924.102 1302.05,924.094C1301.79,924.086 1301.52,924.106 1301.24,924.156C1301.08,924.189 1300.91,924.202 1300.74,924.193C1300.58,924.185 1300.4,924.173 1300.22,924.156C1300.02,924.123 1299.86,924.032 1299.72,923.882C1299.61,923.733 1299.59,923.542 1299.67,923.309C1299.81,923.127 1299.99,923.015 1300.23,922.973C1300.47,922.932 1300.68,922.819 1300.87,922.637C1300.9,922.57 1300.93,922.496 1300.95,922.413C1300.98,922.33 1301,922.247 1301.02,922.164C1301.05,922.014 1301.07,921.865 1301.07,921.715L1301.07,910.806C1301.07,910.607 1301.06,910.408 1301.05,910.208C1301.05,910.009 1301.03,909.81 1301.02,909.611C1300.98,909.378 1300.94,909.137 1300.88,908.888C1300.82,908.639 1300.71,908.398 1300.54,908.166C1300.48,908.133 1300.4,908.1 1300.32,908.066C1300.24,908.033 1300.15,907.992 1300.07,907.942C1300,907.909 1299.94,907.875 1299.88,907.842C1299.83,907.809 1299.76,907.776 1299.7,907.743L1299.62,907.593C1299.59,907.41 1299.61,907.257 1299.7,907.132C1299.78,907.008 1299.89,906.937 1300.02,906.921C1300.2,906.904 1300.38,906.892 1300.54,906.883C1300.71,906.875 1300.88,906.879 1301.04,906.896C1301.49,906.929 1301.93,906.941 1302.37,906.933C1302.82,906.925 1303.26,906.896 1303.71,906.846C1303.92,906.813 1304.14,906.792 1304.36,906.784C1304.57,906.775 1304.8,906.804 1305.03,906.871C1305.13,906.904 1305.2,906.962 1305.25,907.045C1305.33,907.128 1305.36,907.244 1305.34,907.394C1305.31,907.543 1305.25,907.635 1305.15,907.668C1305.02,907.718 1304.88,907.763 1304.74,907.805C1304.6,907.846 1304.46,907.9 1304.33,907.967C1304.11,908.05 1304,908.199 1303.98,908.415C1303.96,908.531 1303.95,908.648 1303.93,908.764C1303.91,908.88 1303.91,909.005 1303.91,909.137C1303.92,909.791 1303.93,910.438 1303.94,911.077L1303.94,911.332C1303.95,911.972 1303.96,912.618 1303.98,913.272C1303.98,913.355 1303.99,913.43 1304.01,913.496C1304.02,913.562 1304.04,913.637 1304.06,913.72C1304.12,913.753 1304.18,913.791 1304.23,913.832C1304.28,913.874 1304.34,913.911 1304.4,913.944C1304.49,913.978 1304.56,913.994 1304.63,913.994C1304.69,913.994 1304.77,913.994 1304.85,913.994C1305.8,913.978 1306.73,913.969 1307.65,913.969C1308.58,913.969 1309.51,913.969 1310.46,913.969C1310.54,913.953 1310.61,913.944 1310.68,913.944C1310.75,913.944 1310.81,913.936 1310.88,913.919C1310.96,913.903 1311.05,913.857 1311.14,913.782C1311.23,913.708 1311.29,913.629 1311.3,913.546C1311.3,913.463 1311.31,913.389 1311.33,913.323L1311.33,913.32C1311.35,913.254 1311.35,913.18 1311.35,913.098L1311.35,909.038C1311.35,908.971 1311.35,908.897 1311.33,908.814C1311.3,908.564 1311.23,908.332 1311.13,908.116C1311.03,907.9 1310.86,907.726 1310.63,907.593C1310.58,907.577 1310.54,907.552 1310.51,907.518C1310.47,907.485 1310.44,907.452 1310.41,907.419C1310.34,907.336 1310.32,907.24 1310.35,907.132C1310.37,907.024 1310.42,906.954 1310.51,906.921C1310.56,906.887 1310.6,906.863 1310.64,906.846C1310.68,906.829 1310.73,906.821 1310.78,906.821C1310.98,906.804 1311.18,906.804 1311.38,906.821C1311.81,906.871 1312.25,906.887 1312.69,906.871C1313.13,906.854 1313.57,906.796 1314.02,906.696C1314.53,906.58 1315.06,906.572 1315.61,906.672C1315.85,906.721 1316.04,906.863 1316.18,907.095C1316.22,907.178 1316.22,907.278 1316.18,907.394C1316.15,907.51 1316.09,907.585 1316.01,907.618C1315.85,907.684 1315.7,907.718 1315.59,907.718C1315.44,907.734 1315.29,907.743 1315.15,907.743L1314.72,907.743C1314.63,907.743 1314.55,907.784 1314.47,907.867C1314.38,907.95 1314.33,908.033 1314.29,908.116C1314.29,908.166 1314.28,908.215 1314.27,908.264L1314.27,908.267C1314.25,908.316 1314.24,908.366 1314.24,908.415C1314.23,908.498 1314.22,908.573 1314.22,908.639L1314.22,921.989C1314.22,922.122 1314.23,922.263 1314.24,922.413C1314.26,922.562 1314.28,922.728 1314.29,922.911C1314.49,923.01 1314.66,923.089 1314.8,923.147C1314.94,923.206 1315.08,923.276 1315.21,923.359C1315.3,923.392 1315.36,923.459 1315.39,923.558C1315.42,923.658 1315.42,923.758 1315.39,923.857C1315.37,923.94 1315.34,924.007 1315.29,924.057C1315.24,924.106 1315.18,924.148 1315.11,924.181C1314.98,924.231 1314.84,924.256 1314.69,924.256L1314.32,924.256C1314.2,924.256 1314.08,924.247 1313.94,924.231C1313.71,924.198 1313.47,924.164 1313.22,924.131C1312.97,924.098 1312.72,924.081 1312.47,924.081C1312.26,924.081 1312.04,924.098 1311.83,924.131C1311.61,924.164 1311.39,924.189 1311.15,924.206C1310.97,924.206 1310.78,924.181 1310.58,924.131C1310.43,924.115 1310.33,924.023 1310.28,923.857C1310.22,923.675 1310.24,923.542 1310.36,923.459C1310.47,923.359 1310.59,923.268 1310.72,923.185C1310.84,923.102 1310.97,923.01 1311.1,922.911C1311.14,922.778 1311.18,922.645 1311.24,922.512C1311.3,922.379 1311.33,922.238 1311.33,922.089C1311.35,921.076 1311.35,920.067 1311.34,919.063C1311.33,918.058 1311.33,917.049 1311.33,916.037C1311.33,916.003 1311.32,915.962 1311.3,915.912C1311.29,915.862 1311.27,915.812 1311.25,915.763C1311.25,915.713 1311.22,915.655 1311.14,915.588C1311.07,915.522 1311.01,915.489 1310.95,915.489C1310.87,915.472 1310.8,915.455 1310.73,915.439C1310.66,915.422 1310.59,915.414 1310.51,915.414L1304.75,915.414Z" style="fill:white;"/>
                </g>
                <g transform="matrix(0.681924,0,0,0.491191,-587.048,280.825)">
                    <path d="M1388.32,954.758C1388.37,953.915 1388.42,953.091 1388.46,952.287C1388.5,951.484 1388.61,950.673 1388.79,949.857C1389.08,948.618 1389.53,947.459 1390.14,946.378C1390.56,945.667 1391.03,944.955 1391.56,944.244C1392.04,943.532 1392.64,942.952 1393.38,942.504C1394.14,942.004 1394.94,941.602 1395.77,941.299C1396.6,940.996 1397.48,940.818 1398.4,940.765C1401.67,940.528 1404.74,941.226 1407.61,942.86C1408.16,943.15 1408.68,943.486 1409.17,943.868C1409.66,944.25 1410.13,944.665 1410.57,945.113C1411.05,945.509 1411.4,946.009 1411.64,946.615C1412.59,948.592 1413.22,950.66 1413.54,952.821C1413.75,954.007 1413.78,955.173 1413.64,956.319C1413.49,957.466 1413.26,958.605 1412.94,959.738C1412.44,961.583 1411.55,963.204 1410.26,964.6C1409.1,965.839 1407.77,966.906 1406.27,967.802C1405.45,968.303 1404.57,968.593 1403.62,968.672C1402.43,968.777 1401.27,968.817 1400.12,968.79C1398.97,968.764 1397.82,968.566 1396.66,968.197C1394.82,967.67 1393.25,966.834 1391.98,965.687C1390.7,964.541 1389.76,963.046 1389.15,961.201C1388.89,960.463 1388.68,959.712 1388.54,958.948C1388.39,958.184 1388.32,957.406 1388.32,956.616L1388.32,954.758ZM1393.78,955.311C1393.83,955.786 1393.85,956.26 1393.85,956.734C1393.85,957.209 1393.91,957.67 1394.01,958.118C1394.09,958.645 1394.2,959.172 1394.35,959.699C1394.49,960.226 1394.64,960.753 1394.8,961.28C1395.14,962.413 1395.65,963.421 1396.32,964.304C1397,965.187 1397.79,965.971 1398.71,966.656C1399.03,966.893 1399.4,967.011 1399.82,967.011C1401.96,967.091 1403.72,966.287 1405.12,964.6C1405.43,964.231 1405.71,963.856 1405.95,963.474C1406.19,963.092 1406.41,962.677 1406.62,962.229C1407.02,961.412 1407.33,960.575 1407.55,959.719C1407.77,958.862 1407.99,957.999 1408.2,957.13C1408.33,956.55 1408.41,955.97 1408.44,955.39C1408.47,954.811 1408.45,954.231 1408.4,953.651C1408.29,952.992 1408.18,952.34 1408.06,951.695C1407.94,951.049 1407.78,950.41 1407.57,949.777C1407.12,948.407 1406.48,947.215 1405.65,946.2C1404.82,945.186 1403.74,944.375 1402.39,943.769C1401.68,943.427 1400.89,943.321 1400.02,943.453C1399.15,943.585 1398.41,943.914 1397.81,944.441C1396.91,945.258 1396.21,946.18 1395.71,947.208C1395.11,948.499 1394.64,949.817 1394.31,951.161C1393.98,952.505 1393.8,953.888 1393.78,955.311Z" style="fill:white;"/>
                </g>
            </g>
            <g transform="matrix(1,0,0,1,-0.72909,0)">
                <g transform="matrix(0.813341,0,0,0.585851,-694.72,175.563)">
                    <path d="M1131.37,897.584C1128.31,899.33 1125.69,901.293 1121.77,902.165C1122.2,902.601 1122.86,902.601 1123.08,902.165C1123.51,902.383 1121.11,903.474 1121.55,903.256C1121.99,902.819 1120.68,903.037 1121.11,902.383C1118.71,901.511 1116.97,901.729 1114.35,901.511C1113.92,900.638 1112.83,900.202 1112.61,898.893C1109.34,898.239 1107.59,896.057 1103.88,896.712C1098.87,894.094 1097.56,885.369 1099.52,878.389C1101.05,875.771 1101.26,872.499 1102.57,869.664C1110.21,853.304 1125.48,844.797 1127.44,842.179C1135.07,841.307 1135.95,839.562 1145.55,843.488C1159.07,849.159 1156.45,858.757 1148.16,867.046C1146.42,868.791 1145.55,869.882 1143.58,870.972C1130.71,879.479 1126.79,875.335 1123.08,873.372C1119.15,879.698 1118.5,891.477 1119.59,895.403C1120.46,894.967 1120.68,894.967 1121.77,894.53C1124.39,893.222 1126.79,891.695 1129.18,890.386L1150.34,878.607C1151.87,877.953 1153.4,877.298 1154.92,876.644C1167.45,870.014 1180.43,863.074 1193.37,856.741C1192.61,856.337 1191.91,855.873 1191.13,855.485C1189.39,854.831 1187.42,854.613 1186.12,853.522C1185.68,852.431 1184.59,851.559 1183.93,850.468C1183.06,849.378 1182.41,848.287 1181.75,847.196C1181.54,843.488 1180.44,840.216 1181.32,836.508C1182.41,831.709 1186.12,827.565 1188.3,823.638C1188.95,822.766 1188.95,821.675 1189.83,821.021C1201.82,819.93 1204.22,820.148 1191.35,841.743C1190.92,845.451 1192.44,847.633 1195.06,849.159C1196.59,850.032 1198.11,850.686 1200.51,851.123C1202.91,851.341 1212.29,849.378 1213.16,848.505C1216.65,848.941 1219.05,847.633 1222.11,848.069C1222.98,848.287 1222.33,848.941 1222.54,849.596C1222.98,851.123 1224.07,852.213 1223.63,854.395C1216.22,858.975 1204.22,877.516 1198.99,893.44L1198.99,893.658C1199.64,893.44 1200.3,893.003 1201.17,893.003C1201.39,893.003 1201.17,892.785 1201.39,892.567C1202.92,891.61 1235.37,873.511 1263.64,859.365C1264.24,856.58 1266.45,854.678 1267.48,851.995C1267.59,851.889 1267.69,851.835 1267.8,851.782L1267.82,851.772C1267.92,851.719 1268.03,851.665 1268.13,851.559C1269.01,849.596 1269.01,849.378 1269.01,847.633C1269.44,847.633 1269.66,847.851 1269.66,847.414C1271.62,848.723 1274.68,847.196 1276.42,848.941C1276.15,851.092 1276.96,851.255 1276.86,852.952C1277.36,852.806 1277.91,852.79 1278.6,853.086C1278.13,854.041 1277.31,854.62 1276.42,855.115C1276.15,856.043 1275.74,857.223 1275.11,858.757C1274.24,860.938 1273.37,863.774 1273.15,866.392C1272.93,871.845 1277.95,875.117 1273.81,888.641C1275.28,887.901 1276.81,887.162 1278.35,886.422L1278.64,886.279C1280.17,885.539 1281.7,884.8 1283.18,884.06C1295.18,877.298 1296.27,877.298 1296.27,877.298C1306.43,871.772 1316.89,866.144 1327.38,860.834C1334.7,842.042 1345.7,823.51 1348.19,821.021C1352.11,821.457 1354.51,822.548 1356.91,825.165C1358.22,826.256 1359.53,829.092 1359.09,831.055C1359.22,830.167 1350.79,840.2 1342.94,853.215C1343.6,852.884 1344.27,852.656 1345.13,853.086C1345.06,853.276 1343.67,854.266 1341.42,855.773C1336.36,864.523 1331.8,874.332 1330.3,882.97C1329.86,885.369 1329.65,887.332 1330.08,889.95L1330.3,889.732C1330.3,889.626 1330.35,889.571 1330.4,889.519L1330.41,889.508C1330.47,889.455 1330.52,889.401 1330.52,889.295C1330.74,889.295 1330.95,889.295 1331.17,889.077C1332.05,888.859 1332.7,888.205 1333.79,888.205C1334.01,888.205 1334.01,887.987 1334.01,887.768C1338.81,885.151 1344.04,882.533 1348.62,879.698C1348.62,879.698 1365.16,871.173 1380.12,863.556C1383.3,859.48 1386.55,855.797 1388.11,855.485C1391.6,851.777 1395.96,850.032 1400.54,847.414C1413.63,843.924 1411.66,846.978 1419.08,857.012C1440.02,850.032 1437.4,861.375 1435.66,863.992C1434.13,868.355 1431.08,872.717 1428.02,875.989C1428.02,877.08 1427.15,877.08 1427.37,878.171C1426.93,878.171 1426.71,878.389 1426.5,878.825C1429.99,876.984 1457.57,862.249 1476.32,852.844C1479.01,849.122 1482.25,845.829 1485.9,843.194C1485.9,843.194 1490.59,839.976 1490.59,839.976C1492.69,843.102 1494.8,846.228 1496.91,849.354C1495.35,850.384 1493.79,851.416 1492.23,852.446C1485.77,856.719 1480.09,864.228 1477.95,872.488C1486.36,872.162 1494.36,868.855 1502.61,866.354C1531.08,858.828 1546.13,853.918 1589.38,847.83L1589.72,850.502C1546.48,858.691 1543.37,860.016 1503.92,874.07C1495.96,876.905 1488.07,880.209 1479.74,881.38C1475.64,881.956 1470.82,881.333 1468.91,877.392C1467.62,874.732 1468.27,871.59 1469.02,868.537C1469.9,864.956 1471.25,861.467 1472.99,858.189C1467.15,861.767 1461.93,864.865 1461.83,864.865C1461.61,865.301 1461.4,865.737 1460.96,865.955C1459.87,866.174 1417.99,891.695 1416.9,892.567L1416.9,892.785L1416.68,892.785L1414.72,894.094C1413.63,893.658 1413.41,893.658 1412.1,893.44C1411.66,892.567 1410.57,892.567 1410.57,891.695C1409.26,890.822 1407.95,890.386 1406.86,889.513C1402.5,885.587 1405.56,876.644 1408.61,872.936C1407.08,873.59 1406.65,875.117 1405.12,875.553C1404.68,875.771 1404.68,876.208 1404.68,876.426C1401.19,878.389 1399.01,881.661 1395.74,883.624C1393.99,886.241 1390.72,887.114 1389.19,889.95C1387.67,891.04 1385.92,892.131 1385.27,894.094C1382.43,894.967 1380.91,897.584 1378.29,898.675C1376.98,898.02 1375.02,897.802 1374.36,896.275C1371.96,894.53 1369.78,893.222 1369.56,889.95C1369.35,887.55 1371.09,885.369 1370.22,883.188C1370.87,880.57 1370.65,877.08 1372.18,875.117L1372.18,874.462C1372.51,873.994 1373.07,873.179 1373.8,872.143C1364.42,877.598 1336.24,895.1 1335.32,895.839C1335.1,895.839 1335.1,896.057 1335.1,896.275C1335,896.275 1334.91,896.317 1334.81,896.364L1334.73,896.405C1334.64,896.452 1334.54,896.494 1334.44,896.494C1333.79,896.712 1333.14,896.494 1332.48,897.366C1330.74,897.148 1329.87,897.584 1328.77,897.584L1328.34,897.584C1325.5,896.712 1322.67,894.312 1321.58,892.567C1321.58,891.913 1321.36,891.695 1321.58,891.477C1321.36,891.258 1320.92,890.822 1320.7,890.604C1320.24,883.926 1322.26,875.182 1325.41,866.152C1313.64,873.658 1300.89,881.644 1300.42,881.879C1287.98,888.641 1285.15,890.168 1280.35,893.44C1280.13,893.658 1279.91,893.876 1279.69,893.876C1279.69,894.094 1280.13,894.094 1280.35,894.094C1278.39,894.967 1276.2,895.185 1275.33,897.148C1274.46,897.584 1273.59,897.366 1272.93,898.239L1270.97,898.239C1268.13,899.548 1265.08,900.638 1262.24,902.165C1259.19,902.165 1256.79,903.692 1254.61,904.782C1252.65,903.91 1252.21,901.511 1250.25,900.42C1250.03,898.02 1249.59,895.839 1250.9,893.44C1253.08,892.131 1255.7,892.785 1257.66,891.477C1259.63,890.168 1260.72,886.241 1261.81,883.624C1262.9,880.788 1264.21,877.516 1264.64,874.462C1264.99,870.363 1263.59,866.397 1263.49,862.67C1243.96,875.25 1201.43,905.053 1190.04,901.947C1188.3,901.292 1187.21,901.292 1186.12,899.984C1183.72,892.131 1188.3,884.715 1191.35,879.261C1194.62,871.191 1199.42,864.865 1203.35,857.667C1201.5,857.851 1198.39,858.036 1196.16,857.689C1184.25,863.531 1134.76,895.994 1131.58,897.584L1131.37,897.584ZM1414.72,860.284C1414.5,861.375 1381.56,884.715 1380.69,885.369C1381.56,883.406 1385.49,877.953 1385.7,877.734C1392.47,873.154 1406.65,857.885 1413.19,859.193C1414.5,858.975 1415.15,859.63 1415.59,859.63C1415.81,860.284 1415.37,860.284 1414.72,860.284ZM1151.42,853.305C1148.16,853.744 1145.11,855.486 1142.93,856.576C1142.93,856.361 1143.03,856.305 1143.14,856.251L1143.15,856.246C1143.26,856.192 1143.36,856.136 1143.36,855.921C1135.95,858.321 1132.67,864.865 1127.22,869.227C1127.22,869.664 1127.88,869.664 1128.09,870.318C1137.69,867.919 1142.49,860.938 1149.91,856.576C1150.34,855.485 1151.22,854.613 1151.43,853.304L1151.42,853.305Z" style="fill:white;"/>
                </g>
                <g transform="matrix(1.29079,0,0,0.929755,-1295.25,-116.225)">
                    <path d="M1331.02,802.443C1331.46,802.443 1332.51,802.456 1333.18,802.855C1333.45,802.993 1333.59,803.405 1333.86,803.68C1334.69,804.23 1336.06,804.779 1336.34,805.742C1336.75,806.841 1336.34,807.941 1336.34,809.178C1335.51,810.14 1328.64,822.235 1321.63,826.908C1321.36,827.046 1321.22,827.458 1320.94,827.733C1320.81,827.87 1320.12,828.008 1319.71,828.283C1319.16,828.833 1319.29,828.97 1318.61,828.833C1316.82,824.847 1322.18,818.112 1326.85,809.315C1327.21,808.654 1327.58,808.019 1327.93,807.387L1328.25,806.845C1328.61,806.214 1328.97,805.578 1329.33,804.917C1329.88,803.955 1330.01,802.993 1330.98,802.443L1331.02,802.443Z" style="fill:white;"/>
                </g>
                <g transform="matrix(0.813341,0,0,0.585851,-694.72,175.563)">
                    <path d="M973.598,834.726C972.977,833.985 973.26,833.453 973.267,832.321C973.37,815.685 919.869,809.133 888.861,804.873C897.784,805.638 905.714,806.377 913.103,807.29L911.665,805.574C911.665,805.574 921.14,804.884 944.465,809.15C951.044,811.138 966.849,813.187 976.316,819.951C977.281,820.641 979.262,823.948 979.88,824.225C982.054,825.201 980.995,828.573 981.698,828.27C983.009,827.367 986.353,826.123 993.974,821.873C1004.29,816.117 1005.88,814.519 1006.88,814.015C1012.7,811.082 1018.37,809.42 1025.51,806.574C1026.88,806.025 1028.31,805.5 1029.77,805.001C1031.12,801.52 1032.36,799.749 1035.06,799.234C1039.69,798.35 1045.63,798.014 1045.63,798.014L1044.2,802.124C1051.03,800.739 1057.79,799.968 1063.47,799.968C1063.69,799.968 1071.16,800.215 1071.16,800.215C1071.27,800.215 1071.32,800.113 1071.38,800.007L1071.39,799.987C1071.44,799.881 1071.49,799.779 1071.6,799.779L1071.61,799.779C1072.26,799.786 1072.47,800.217 1072.91,800.433C1074.43,800.651 1087.53,800.849 1089.93,803.466C1090.15,803.466 1096.46,804.225 1098.87,808.369C1100.83,808.151 1101.05,810.551 1102.79,811.205L1102.79,812.514C1102.79,813.168 1103.23,812.296 1103.45,812.514C1103.66,814.259 1105.63,815.349 1105.63,817.531C1105.63,817.749 1105.41,817.967 1105.63,818.185C1105.63,818.839 1106.06,819.276 1106.28,819.93C1106.5,821.893 1106.06,824.729 1105.63,826.692C1105.19,829.528 1096.9,843.052 1090.14,846.542C1089.92,846.978 1089.49,846.978 1089.49,847.633C1087.74,848.723 1085.78,849.596 1085.12,851.777C1082.51,853.74 1079.67,855.703 1077.05,857.667C1076.83,857.885 1076.83,857.667 1076.62,857.667C1075.53,858.539 1073.78,858.975 1072.69,860.066C1072.69,860.066 1076.83,859.412 1037.79,874.026C1032.99,875.989 1032.77,876.862 1027.97,879.479L1017.07,882.751C1017.07,881.006 1015.98,882.315 1015.54,883.188C1015.23,883.188 1015.02,883.236 1014.82,883.287L1014.74,883.307C1014.53,883.358 1014.32,883.406 1014.01,883.406C1012.49,884.715 1012.92,889.077 1011.18,890.822C1011.18,892.785 998.743,926.595 997.871,928.122C998.962,930.74 997.435,933.357 995.035,934.666C995.471,936.411 993.945,938.374 992.418,938.374C991.327,939.247 989.8,941.646 987.619,940.338C986.092,940.992 985.219,939.901 984.347,939.029C981.511,938.593 979.766,938.374 978.457,936.411C972.35,928.122 991.763,892.785 992.418,891.258C993.062,889.326 993.864,887.816 994.67,886.313L994.746,886.17C995.552,884.667 996.354,883.157 996.998,881.224C994.599,877.298 991.327,876.426 992.636,874.899C992.418,875.553 993.508,875.335 993.726,875.771C994.381,875.771 994.163,875.117 994.599,874.899C994.817,875.117 994.163,875.553 994.817,875.553C995.471,875.553 996.126,875.117 996.562,874.899C997.435,875.117 998.307,874.681 999.398,874.899C1000.27,874.681 1000.05,873.59 1000.49,874.026C1003.32,869.446 1004.85,862.247 1007.03,856.576C1007.24,856.048 1007.56,855.519 1007.87,854.991L1007.94,854.889C1008.25,854.36 1008.57,853.832 1008.78,853.304C1009.21,851.995 1009,850.25 1009.65,848.941L1024.05,818.93C1022.83,817.227 997.209,831.308 983.718,839.108C983.078,839.473 982.081,840.031 981.106,840.448C980.91,840.592 980.765,840.666 980.516,840.683C979.342,841.11 978.319,841.22 978.158,840.382C976.069,839.773 979.889,839.615 974.573,837.196C972.347,836.182 972.739,835.603 973.598,834.726ZM1067.89,809.797C1058.69,809.832 1047.28,812.268 1040.19,815.529C1040.41,816.402 1035.61,824.473 1033.43,827.091C1029.94,835.816 1027.1,844.579 1027.1,844.579C1026.88,845.233 1027.54,845.015 1027.54,845.451C1027.1,845.669 1026.88,846.106 1026.66,846.324C1026.56,846.528 1026.6,846.637 1026.65,846.74L1026.67,846.781C1026.72,846.883 1026.77,846.992 1026.66,847.196C1025.14,850.904 1024.92,855.485 1022.52,858.757C1021.65,862.029 1020.56,866.392 1018.59,869.664C1018.81,869.664 1025.14,867.046 1025.14,867.046C1031.9,865.737 1068.76,848.505 1075.74,844.797C1077.27,842.179 1080.32,842.179 1082.72,840.216C1085.12,838.253 1088.61,835.854 1091.23,833.672C1092.1,832.8 1094.43,831.901 1094.43,830.374C1097.05,828.41 1100.51,825.726 1100.08,820.709C1099.64,817.655 1096.85,814.285 1094.24,813.412C1092.71,811.885 1090.58,811.483 1089.05,810.174C1088.61,810.829 1084.47,809.084 1083.38,808.429C1083.38,808.429 1076.74,809.785 1068.3,809.796L1067.89,809.797Z" style="fill:white;"/>
                </g>
            </g>
            <g transform="matrix(1,0,0,1,-8.64451,10.792)">
                <g transform="matrix(1.09141,0,0,0.786146,-909.831,-13.349)">
                    <path d="M1106.08,780.386C1106.3,780.386 1106.52,780.403 1106.75,780.436C1107,780.436 1107.18,780.577 1107.3,780.859C1107.37,780.975 1107.41,781.108 1107.45,781.257C1107.46,781.456 1107.46,781.655 1107.45,781.854C1107.41,782.069 1107.37,782.281 1107.3,782.488C1107.23,782.696 1107.22,782.915 1107.25,783.147C1107.27,783.346 1107.29,783.537 1107.32,783.72C1107.36,783.902 1107.39,784.085 1107.42,784.267C1107.36,784.549 1107.18,784.706 1106.9,784.74C1106.64,784.773 1106.39,784.752 1106.17,784.677C1105.94,784.603 1105.76,784.425 1105.61,784.143C1105.59,784.01 1105.58,783.861 1105.57,783.695C1105.56,783.529 1105.56,783.363 1105.56,783.197C1105.54,783.049 1105.53,782.901 1105.53,782.753L1105.53,782.746C1105.53,782.598 1105.52,782.45 1105.51,782.302C1105.49,782.186 1105.43,782.078 1105.33,781.978C1105.23,781.879 1105.13,781.821 1105.04,781.804C1105,781.804 1104.98,781.8 1104.96,781.792C1104.94,781.783 1104.92,781.779 1104.89,781.779C1103.9,781.796 1102.92,781.804 1101.96,781.804L1101.91,781.804C1100.95,781.804 1099.98,781.813 1098.99,781.829C1098.94,781.829 1098.89,781.837 1098.85,781.854C1098.81,781.87 1098.77,781.887 1098.72,781.904C1098.68,781.937 1098.65,781.974 1098.62,782.016C1098.58,782.057 1098.56,782.103 1098.54,782.152C1098.49,782.285 1098.47,782.426 1098.47,782.575C1098.45,783.322 1098.44,784.06 1098.44,784.789C1098.44,785.519 1098.44,786.257 1098.44,787.003C1098.44,787.136 1098.45,787.261 1098.48,787.377C1098.51,787.493 1098.58,787.592 1098.72,787.675C1098.93,787.708 1099.14,787.737 1099.35,787.762C1099.56,787.787 1099.78,787.8 1100.02,787.8C1100.26,787.8 1100.53,787.795 1100.83,787.787C1101.13,787.779 1101.49,787.758 1101.9,787.725C1102.08,787.659 1102.2,787.538 1102.25,787.364C1102.3,787.19 1102.4,787.037 1102.55,786.904C1102.71,786.788 1102.88,786.717 1103.05,786.692C1103.21,786.668 1103.38,786.738 1103.57,786.904C1103.63,787.103 1103.68,787.265 1103.72,787.389C1103.75,787.513 1103.77,787.675 1103.77,787.874C1103.77,788.073 1103.75,788.343 1103.73,788.683C1103.7,789.023 1103.67,789.491 1103.62,790.088C1103.38,790.37 1103.2,790.528 1103.07,790.561C1102.94,790.594 1102.7,790.519 1102.37,790.337C1102.31,790.204 1102.24,790.076 1102.17,789.951C1102.11,789.827 1102.03,789.698 1101.95,789.566C1101.88,789.533 1101.82,789.499 1101.76,789.466C1101.71,789.433 1101.63,789.408 1101.55,789.392C1101.3,789.342 1101.06,789.325 1100.83,789.342C1100.52,789.342 1100.2,789.35 1099.89,789.367C1099.57,789.383 1099.25,789.4 1098.91,789.417C1098.8,789.433 1098.7,789.491 1098.6,789.591C1098.51,789.69 1098.46,789.798 1098.44,789.914C1098.44,789.996 1098.44,790.069 1098.43,790.135L1098.43,790.141C1098.42,790.207 1098.42,790.28 1098.42,790.362C1098.4,791.208 1098.39,792.041 1098.38,792.862C1098.37,793.683 1098.37,794.516 1098.37,795.362L1098.37,795.81C1098.38,796.175 1098.44,796.424 1098.54,796.556C1098.64,796.689 1098.88,796.813 1099.26,796.929C1099.3,796.946 1099.32,796.954 1099.34,796.954C1099.36,796.954 1099.37,796.963 1099.39,796.979C1099.49,797.012 1099.57,797.075 1099.64,797.166C1099.7,797.257 1099.72,797.344 1099.69,797.427C1099.65,797.527 1099.61,797.614 1099.56,797.688C1099.51,797.763 1099.43,797.808 1099.31,797.825C1099.2,797.858 1099.08,797.883 1098.95,797.9C1098.83,797.916 1098.71,797.908 1098.59,797.875C1098.06,797.759 1097.53,797.692 1096.99,797.676C1096.45,797.659 1095.91,797.676 1095.38,797.726C1095.12,797.759 1094.88,797.726 1094.66,797.626C1094.58,797.593 1094.52,797.514 1094.49,797.39C1094.45,797.265 1094.47,797.178 1094.54,797.128C1094.62,797.046 1094.71,796.971 1094.81,796.905C1094.91,796.838 1095.01,796.764 1095.11,796.681C1095.38,796.515 1095.51,796.266 1095.51,795.934L1095.51,783.123C1095.51,782.924 1095.5,782.733 1095.48,782.55C1095.48,782.467 1095.47,782.393 1095.46,782.327C1095.44,782.26 1095.42,782.186 1095.41,782.103C1095.38,781.97 1095.29,781.854 1095.16,781.754C1095.03,781.655 1094.88,781.622 1094.74,781.655C1094.64,781.671 1094.54,781.688 1094.44,781.705C1094.34,781.721 1094.24,781.729 1094.14,781.729C1094.06,781.746 1093.98,781.75 1093.91,781.742C1093.85,781.734 1093.78,781.729 1093.72,781.729C1093.6,781.713 1093.49,781.659 1093.38,781.568C1093.27,781.477 1093.2,781.373 1093.17,781.257C1093.14,781.124 1093.15,780.983 1093.22,780.834C1093.29,780.685 1093.38,780.585 1093.52,780.535C1093.77,780.419 1094.01,780.353 1094.24,780.336C1095.12,780.303 1096,780.303 1096.88,780.336C1098.32,780.336 1099.75,780.34 1101.15,780.349C1102.56,780.357 1103.98,780.37 1105.41,780.386L1106.08,780.386Z" style="fill:white;"/>
                </g>
                <g transform="matrix(1.09141,0,0,0.786146,-913.957,-13.349)">
                    <path d="M1162.71,797.775C1161.96,797.775 1161.2,797.784 1160.44,797.8C1160.35,797.8 1160.3,797.792 1160.29,797.775C1160.22,797.742 1160.15,797.713 1160.08,797.688C1160,797.663 1159.95,797.618 1159.91,797.551C1159.88,797.502 1159.87,797.439 1159.87,797.365C1159.87,797.29 1159.86,797.211 1159.84,797.128C1160.19,796.929 1160.51,796.755 1160.81,796.606C1160.84,796.523 1160.88,796.461 1160.91,796.419C1160.94,796.378 1160.96,796.332 1160.96,796.283C1161.09,795.42 1161.18,794.566 1161.22,793.72C1161.26,792.874 1161.29,792.012 1161.31,791.133C1161.31,790.524 1161.31,789.924 1161.32,789.333L1161.32,788.828C1161.33,788.238 1161.33,787.638 1161.33,787.028C1161.33,786.73 1161.31,786.431 1161.26,786.133C1161.26,786.1 1161.24,786.071 1161.2,786.046C1161.15,786.021 1161.11,785.983 1161.06,785.934L1160.84,786.307C1160.41,787.294 1159.99,788.277 1159.55,789.258L1159.18,790.098C1158.75,791.078 1158.32,792.062 1157.9,793.049C1157.67,793.579 1157.41,794.106 1157.14,794.628C1156.87,795.151 1156.56,795.652 1156.21,796.133C1156.04,796.216 1155.9,796.266 1155.79,796.283C1155.45,796.332 1155.2,796.225 1155.04,795.959C1154.99,795.876 1154.93,795.793 1154.88,795.71C1154.82,795.628 1154.77,795.536 1154.74,795.437C1154.46,794.84 1154.18,794.247 1153.89,793.658C1153.61,793.069 1153.33,792.468 1153.05,791.855C1152.62,790.893 1152.19,789.931 1151.77,788.969C1151.34,788.007 1150.89,787.053 1150.41,786.108C1150.33,785.975 1150.25,785.843 1150.17,785.71C1150.1,785.577 1149.97,785.444 1149.79,785.312C1149.77,785.444 1149.76,785.552 1149.74,785.635C1149.72,785.718 1149.71,785.793 1149.71,785.859C1149.73,786.34 1149.74,786.809 1149.75,787.265C1149.76,787.721 1149.78,788.189 1149.81,788.67C1149.9,789.649 1149.95,790.623 1149.96,791.593C1149.98,792.564 1149.97,793.546 1149.94,794.541C1149.92,794.773 1149.91,794.997 1149.91,795.213C1149.91,795.429 1149.91,795.644 1149.91,795.86C1149.91,795.959 1149.92,796.055 1149.94,796.146C1149.95,796.237 1149.97,796.308 1149.99,796.357C1150.07,796.523 1150.17,796.627 1150.3,796.668C1150.42,796.71 1150.54,796.755 1150.63,796.805C1150.72,796.855 1150.8,796.905 1150.88,796.954C1150.97,797.004 1151.05,797.046 1151.13,797.079C1151.13,797.162 1151.14,797.228 1151.16,797.278C1151.17,797.328 1151.17,797.369 1151.16,797.402C1151.14,797.468 1151.08,797.551 1150.98,797.651C1150.92,797.717 1150.83,797.75 1150.74,797.75C1150.12,797.784 1149.51,797.804 1148.89,797.813C1148.28,797.821 1147.67,797.833 1147.05,797.85C1146.97,797.85 1146.88,797.833 1146.78,797.8C1146.68,797.767 1146.59,797.734 1146.51,797.701C1146.47,797.684 1146.44,797.651 1146.41,797.601C1146.37,797.551 1146.35,797.51 1146.33,797.477C1146.3,797.41 1146.3,797.336 1146.34,797.253C1146.38,797.17 1146.43,797.112 1146.48,797.079C1146.63,797.012 1146.78,796.954 1146.94,796.905C1147.1,796.855 1147.26,796.789 1147.43,796.706C1147.71,796.573 1147.9,796.357 1148,796.059C1148.08,795.777 1148.14,795.491 1148.18,795.201C1148.23,794.91 1148.25,794.616 1148.25,794.317C1148.25,793.123 1148.25,791.925 1148.26,790.723C1148.27,789.52 1148.27,788.314 1148.27,787.103C1148.27,786.44 1148.27,785.78 1148.26,785.125C1148.25,784.47 1148.24,783.803 1148.22,783.123C1148.21,782.99 1148.2,782.849 1148.2,782.7C1148.2,782.55 1148.19,782.401 1148.17,782.252C1148.14,782.103 1148.07,781.97 1147.97,781.854C1147.87,781.738 1147.76,781.663 1147.62,781.63C1147.48,781.597 1147.33,781.576 1147.18,781.568C1147.03,781.559 1146.89,781.539 1146.75,781.506C1146.64,781.472 1146.56,781.385 1146.52,781.244C1146.48,781.103 1146.49,780.983 1146.56,780.884C1146.69,780.718 1146.85,780.61 1147.03,780.56C1147.16,780.527 1147.37,780.502 1147.66,780.486C1147.95,780.469 1148.26,780.461 1148.57,780.461C1148.89,780.461 1149.19,780.469 1149.48,780.486C1149.77,780.502 1149.98,780.527 1150.11,780.56C1150.78,780.743 1151.28,781.116 1151.63,781.68C1151.86,782.045 1152.09,782.418 1152.3,782.799C1152.52,783.181 1152.73,783.57 1152.95,783.968C1153.38,784.798 1153.8,785.627 1154.2,786.456C1154.61,787.285 1155.02,788.123 1155.44,788.969L1156.48,790.909C1156.51,790.94 1156.55,790.968 1156.59,790.992L1156.6,791.001C1156.64,791.025 1156.67,791.052 1156.7,791.083C1156.74,791.116 1156.79,791.104 1156.87,791.046C1156.94,790.988 1157,790.926 1157.03,790.859C1157.11,790.704 1157.18,790.556 1157.24,790.415L1157.27,790.359C1157.33,790.218 1157.4,790.07 1157.48,789.914C1158.06,788.637 1158.63,787.364 1159.2,786.095C1159.78,784.827 1160.35,783.554 1160.93,782.277C1161.02,782.094 1161.1,781.916 1161.18,781.742C1161.27,781.568 1161.35,781.389 1161.43,781.207C1161.65,780.726 1162.03,780.461 1162.58,780.411C1162.91,780.378 1163.23,780.353 1163.53,780.336C1163.84,780.32 1164.16,780.311 1164.49,780.311C1164.74,780.311 1164.99,780.32 1165.23,780.336C1165.47,780.353 1165.71,780.378 1165.96,780.411C1166.11,780.444 1166.23,780.519 1166.31,780.635C1166.34,780.685 1166.36,780.747 1166.37,780.821C1166.38,780.896 1166.39,780.958 1166.41,781.008C1166.31,781.257 1166.16,781.389 1165.96,781.406C1165.83,781.439 1165.7,781.456 1165.59,781.456C1165.47,781.456 1165.35,781.472 1165.24,781.506C1165.15,781.522 1165.07,781.572 1164.99,781.655C1164.91,781.738 1164.86,781.821 1164.84,781.904C1164.82,782.053 1164.81,782.202 1164.79,782.351C1164.77,782.501 1164.77,782.65 1164.77,782.799L1164.69,787.949C1164.67,788.795 1164.66,789.628 1164.65,790.449C1164.64,791.27 1164.61,792.103 1164.54,792.949C1164.51,793.48 1164.49,794.019 1164.49,794.566C1164.49,795.113 1164.49,795.652 1164.49,796.183C1164.49,796.449 1164.62,796.639 1164.87,796.755C1164.98,796.805 1165.1,796.842 1165.21,796.867C1165.33,796.892 1165.43,796.954 1165.51,797.054C1165.56,797.104 1165.6,797.195 1165.64,797.328C1165.64,797.394 1165.61,797.464 1165.56,797.539C1165.51,797.614 1165.46,797.659 1165.41,797.676C1165.33,797.692 1165.26,797.713 1165.2,797.738C1165.14,797.763 1165.07,797.775 1164.99,797.775L1162.71,797.775Z" style="fill:white;"/>
                </g>
                <g transform="matrix(0.687713,0,0,0.495361,-404.805,233.37)">
                    <path d="M1051.52,754.048C1051.57,753.206 1051.62,752.383 1051.66,751.58C1051.7,750.778 1051.81,749.968 1051.99,749.152C1052.28,747.915 1052.73,746.757 1053.33,745.678C1053.76,744.967 1054.23,744.257 1054.76,743.546C1055.23,742.835 1055.84,742.256 1056.57,741.809C1057.34,741.309 1058.13,740.908 1058.96,740.605C1059.79,740.302 1060.66,740.124 1061.59,740.072C1064.85,739.835 1067.92,740.532 1070.79,742.164C1071.34,742.454 1071.86,742.789 1072.34,743.171C1072.83,743.553 1073.3,743.967 1073.75,744.415C1074.22,744.81 1074.58,745.31 1074.81,745.915C1075.76,747.889 1076.39,749.955 1076.71,752.113C1076.92,753.298 1076.95,754.463 1076.81,755.607C1076.66,756.752 1076.43,757.891 1076.11,759.023C1075.61,760.865 1074.72,762.484 1073.43,763.879C1072.27,765.116 1070.94,766.182 1069.44,767.077C1068.63,767.577 1067.75,767.866 1066.8,767.945C1065.61,768.05 1064.45,768.09 1063.3,768.064C1062.16,768.037 1061.01,767.84 1059.85,767.471C1058.01,766.945 1056.45,766.109 1055.17,764.964C1053.89,763.819 1052.95,762.326 1052.35,760.483C1052.08,759.746 1051.88,758.996 1051.74,758.233C1051.59,757.47 1051.52,756.693 1051.52,755.904L1051.52,754.048ZM1056.97,754.601C1057.02,755.074 1057.05,755.548 1057.05,756.022C1057.05,756.496 1057.1,756.956 1057.2,757.404C1057.28,757.93 1057.39,758.457 1057.54,758.983C1057.68,759.509 1057.84,760.036 1057.99,760.562C1058.34,761.694 1058.84,762.701 1059.51,763.583C1060.18,764.464 1060.98,765.247 1061.9,765.932C1062.22,766.169 1062.59,766.287 1063.01,766.287C1065.14,766.366 1066.9,765.563 1068.3,763.879C1068.61,763.51 1068.89,763.135 1069.13,762.753C1069.36,762.372 1069.59,761.957 1069.8,761.51C1070.19,760.694 1070.5,759.858 1070.72,759.003C1070.95,758.147 1071.17,757.285 1071.38,756.417C1071.51,755.838 1071.59,755.259 1071.61,754.68C1071.64,754.101 1071.63,753.522 1071.57,752.943C1071.47,752.285 1071.36,751.633 1071.24,750.988C1071.12,750.343 1070.96,749.705 1070.75,749.073C1070.3,747.705 1069.66,746.514 1068.83,745.5C1068,744.487 1066.91,743.678 1065.57,743.072C1064.86,742.73 1064.07,742.625 1063.2,742.757C1062.34,742.888 1061.6,743.217 1060.99,743.744C1060.1,744.559 1059.4,745.481 1058.9,746.507C1058.3,747.797 1057.83,749.113 1057.5,750.455C1057.17,751.798 1056.99,753.179 1056.97,754.601Z" style="fill:white;"/>
                </g>
                <g transform="matrix(0.687713,0,0,0.495361,-402.742,233.37)">
                    <path d="M1036.96,760.448C1036.31,759.304 1035.64,758.144 1034.98,756.97C1034.42,755.943 1033.61,755.509 1032.53,755.667C1032.29,755.719 1032.05,755.752 1031.82,755.765C1031.58,755.779 1031.36,755.89 1031.15,756.101C1031.12,756.18 1031.09,756.272 1031.05,756.377C1031.01,756.483 1030.99,756.588 1030.99,756.693C1030.86,758.062 1030.78,759.424 1030.77,760.779C1030.76,762.135 1030.76,763.51 1030.79,764.905C1030.79,765.116 1030.83,765.339 1030.91,765.576C1031.04,765.918 1031.25,766.129 1031.54,766.208C1031.75,766.287 1031.97,766.353 1032.21,766.405C1032.45,766.458 1032.67,766.524 1032.88,766.603C1033.02,766.655 1033.13,766.761 1033.22,766.919C1033.31,767.077 1033.34,767.221 1033.32,767.353C1033.32,767.511 1033.27,767.662 1033.16,767.807C1033.05,767.952 1032.94,768.037 1032.8,768.064C1032.68,768.064 1032.58,768.075 1032.49,768.098L1032.45,768.108C1032.36,768.131 1032.26,768.143 1032.13,768.143C1030.96,768.116 1029.8,768.103 1028.65,768.103L1028.59,768.103C1027.44,768.103 1026.28,768.09 1025.11,768.064C1024.97,768.064 1024.86,768.057 1024.75,768.044C1024.64,768.031 1024.53,768.011 1024.39,767.985C1023.95,767.932 1023.7,767.682 1023.64,767.234C1023.59,766.787 1023.75,766.458 1024.12,766.247C1024.25,766.169 1024.39,766.103 1024.55,766.05C1024.71,765.997 1024.86,765.945 1024.99,765.892C1025.09,765.84 1025.18,765.774 1025.26,765.695C1025.34,765.616 1025.42,765.55 1025.5,765.497C1025.53,765.392 1025.55,765.3 1025.58,765.221C1025.61,765.142 1025.63,765.063 1025.66,764.984C1025.71,763.352 1025.79,761.727 1025.89,760.108C1026,758.49 1026.01,756.851 1025.93,755.193C1025.91,754.606 1025.88,754.039 1025.86,753.489L1025.85,753.383C1025.83,752.834 1025.8,752.266 1025.78,751.679C1025.72,750.626 1025.69,749.58 1025.68,748.54C1025.66,747.501 1025.63,746.441 1025.58,745.362C1025.55,744.994 1025.53,744.612 1025.52,744.217C1025.51,743.822 1025.47,743.428 1025.42,743.033C1025.37,742.691 1025.17,742.414 1024.83,742.204C1024.67,742.151 1024.48,742.112 1024.26,742.085C1024.03,742.059 1023.82,742.02 1023.61,741.967C1023.32,741.756 1023.17,741.493 1023.17,741.177C1023.2,740.967 1023.27,740.776 1023.39,740.605C1023.51,740.434 1023.64,740.335 1023.8,740.309L1024.75,740.19C1026.04,740.138 1027.32,740.131 1028.6,740.171C1029.88,740.21 1031.16,740.256 1032.45,740.309C1033.16,740.361 1033.86,740.421 1034.56,740.486C1035.26,740.552 1035.95,740.611 1036.63,740.664C1037.08,740.69 1037.51,740.776 1037.92,740.921C1038.33,741.065 1038.71,741.243 1039.08,741.454C1039.48,741.717 1039.86,741.987 1040.23,742.263C1040.6,742.539 1040.96,742.822 1041.33,743.112C1041.67,743.375 1041.92,743.678 1042.08,744.02C1042.79,745.389 1043.16,746.757 1043.19,748.126C1043.21,749.495 1042.79,750.863 1041.92,752.232C1041.56,752.837 1041.08,753.337 1040.5,753.732C1040.35,753.864 1040.18,753.976 1040.01,754.068C1039.84,754.16 1039.69,754.272 1039.56,754.403C1039.45,754.482 1039.37,754.568 1039.32,754.66C1039.27,754.752 1039.2,754.864 1039.12,754.996C1039.38,755.496 1039.65,755.983 1039.91,756.456C1040.17,756.93 1040.41,757.417 1040.62,757.917C1041.02,758.733 1041.42,759.536 1041.85,760.325C1042.27,761.115 1042.7,761.891 1043.15,762.655C1043.46,763.207 1043.79,763.74 1044.13,764.254C1044.48,764.767 1044.86,765.26 1045.28,765.734C1045.62,765.866 1045.95,765.984 1046.27,766.09C1046.58,766.195 1046.9,766.313 1047.21,766.445C1047.27,766.55 1047.32,766.636 1047.37,766.702C1047.42,766.767 1047.46,766.827 1047.49,766.879C1047.57,767.142 1047.55,767.379 1047.43,767.59C1047.31,767.8 1047.14,767.932 1046.9,767.985C1046.77,768.011 1046.65,768.031 1046.56,768.044C1046.47,768.057 1046.36,768.064 1046.23,768.064C1045.2,768.09 1044.18,768.11 1043.17,768.123C1042.15,768.136 1041.15,768.143 1040.15,768.143L1039.67,768.143C1039.52,768.143 1039.36,768.116 1039.2,768.064C1038.86,768.011 1038.61,767.853 1038.45,767.59C1038.32,767.353 1038.32,767.063 1038.45,766.721C1038.53,766.59 1038.63,766.498 1038.77,766.445C1038.9,766.392 1039.03,766.346 1039.16,766.307C1039.29,766.267 1039.43,766.215 1039.58,766.149C1039.72,766.083 1039.85,765.958 1039.95,765.774C1039.87,765.616 1039.8,765.464 1039.73,765.32C1039.67,765.175 1039.6,765.037 1039.52,764.905C1038.85,763.731 1038.18,762.571 1037.53,761.427L1036.96,760.448ZM1032.01,741.954C1031.87,741.955 1031.72,741.959 1031.58,741.967C1031.26,741.967 1031,742.138 1030.79,742.48C1030.79,742.579 1030.78,742.678 1030.76,742.776L1030.75,742.816C1030.72,742.914 1030.71,743.013 1030.71,743.112C1030.74,744.691 1030.76,746.251 1030.77,747.79C1030.78,749.33 1030.8,750.876 1030.83,752.429C1030.83,752.535 1030.86,752.692 1030.91,752.903C1030.91,753.008 1030.93,753.166 1030.99,753.377C1031.01,753.508 1031.09,753.633 1031.22,753.752C1031.36,753.87 1031.5,753.93 1031.66,753.93C1031.87,753.93 1032.09,753.923 1032.33,753.91C1032.57,753.897 1032.8,753.864 1033.04,753.811C1034.73,753.522 1035.86,752.587 1036.44,751.008C1036.67,750.297 1036.86,749.587 1036.99,748.876C1037.12,748.165 1037.2,747.428 1037.23,746.665C1037.25,745.77 1037.08,744.862 1036.71,743.941C1036.5,743.415 1036.15,743.033 1035.65,742.796C1034.5,742.233 1033.3,741.953 1032.04,741.954L1032.01,741.954Z" style="fill:white;"/>
                </g>
            </g>
        </g>
    </g>
</svg>
