<?xml version="1.0" encoding="UTF-8" standalone="no"?>
<!DOCTYPE svg PUBLIC "-//W3C//DTD SVG 1.1//EN" "http://www.w3.org/Graphics/SVG/1.1/DTD/svg11.dtd">
<svg width="100%" height="100%" viewBox="0 0 13232 13232" version="1.1" xmlns="http://www.w3.org/2000/svg" xmlns:xlink="http://www.w3.org/1999/xlink" xml:space="preserve" xmlns:serif="http://www.serif.com/" style="fill-rule:evenodd;clip-rule:evenodd;stroke-linejoin:round;stroke-miterlimit:2;">
    <g transform="matrix(1,0,0,1,-1112.05,-31901.4)">
        <g id="Artboard3" transform="matrix(1.28849,0,0,2.68901,-103119,-165338)">
            <rect x="80893.7" y="73350.3" width="10269.3" height="4920.72" style="fill:white;"/>
            <clipPath id="_clip1">
                <rect x="80893.7" y="73350.3" width="10269.3" height="4920.72"/>
            </clipPath>
            <g clip-path="url(#_clip1)">
                <g transform="matrix(1.41854,0,0,0.765456,77690.3,47254)">
                    <rect x="2258.24" y="34092.4" width="7239.32" height="6428.48" style="fill:rgb(240,240,240);"/>
                    <path d="M9497.56,34092.4L2258.24,34092.4L2258.24,40520.9L9497.56,40520.9L9497.56,34092.4ZM2287.32,34118.3L2287.32,40495.1L9468.48,40495.1L9468.48,34118.3L2287.32,34118.3Z" style="fill:rgb(222,222,222);"/>
                </g>
                <g transform="matrix(40.0557,2.95162e-30,-9.23979e-30,19.1935,-34258.4,-53894.9)">
                    <g transform="matrix(50,0,0,50,2921.89,6753.5)">
                        <path d="M0.209,-0.701L0.431,-0.701C0.443,-0.7 0.453,-0.699 0.462,-0.697C0.483,-0.693 0.493,-0.68 0.494,-0.659C0.494,-0.642 0.49,-0.626 0.482,-0.61C0.477,-0.601 0.468,-0.593 0.456,-0.588C0.445,-0.583 0.433,-0.58 0.418,-0.58L0.319,-0.58C0.306,-0.58 0.293,-0.578 0.279,-0.575C0.26,-0.572 0.245,-0.56 0.234,-0.538C0.23,-0.531 0.227,-0.522 0.225,-0.511C0.218,-0.482 0.213,-0.456 0.208,-0.433C0.207,-0.425 0.207,-0.415 0.207,-0.403C0.207,-0.379 0.219,-0.366 0.243,-0.362C0.244,-0.362 0.254,-0.362 0.272,-0.361C0.306,-0.36 0.328,-0.359 0.336,-0.358C0.342,-0.358 0.347,-0.357 0.352,-0.355C0.37,-0.35 0.38,-0.338 0.381,-0.32C0.382,-0.298 0.377,-0.279 0.366,-0.263C0.356,-0.25 0.344,-0.243 0.329,-0.242C0.304,-0.24 0.285,-0.239 0.274,-0.238C0.27,-0.238 0.263,-0.238 0.254,-0.238L0.233,-0.238C0.225,-0.237 0.217,-0.237 0.21,-0.235C0.185,-0.23 0.167,-0.215 0.158,-0.188C0.155,-0.182 0.152,-0.17 0.148,-0.153L0.126,-0.052C0.124,-0.046 0.122,-0.04 0.119,-0.034C0.109,-0.016 0.096,-0.006 0.079,-0.003C0.057,0.001 0.038,0 0.023,-0.005C0.008,-0.012 0,-0.022 0,-0.038C0,-0.054 0.001,-0.067 0.003,-0.077C0.001,-0.069 0.011,-0.117 0.033,-0.219C0.036,-0.235 0.041,-0.258 0.048,-0.289C0.054,-0.32 0.059,-0.343 0.062,-0.358C0.081,-0.448 0.1,-0.538 0.119,-0.628C0.121,-0.638 0.123,-0.646 0.126,-0.653C0.135,-0.682 0.155,-0.697 0.184,-0.7C0.191,-0.7 0.199,-0.701 0.209,-0.701Z" style="fill:rgb(234,44,26);fill-rule:nonzero;"/>
                    </g>
                    <g transform="matrix(50,0,0,50,2943.16,6753.5)">
                        <path d="M0.253,-0L0.059,-0C0.052,-0 0.044,-0 0.036,-0.001C0.027,-0.002 0.018,-0.006 0.011,-0.014C0.003,-0.022 -0.001,-0.031 0,-0.041C0.001,-0.053 0.002,-0.062 0.003,-0.068C0.006,-0.081 0.016,-0.129 0.033,-0.212C0.053,-0.307 0.064,-0.357 0.064,-0.36C0.07,-0.386 0.077,-0.421 0.087,-0.467C0.098,-0.517 0.105,-0.553 0.11,-0.574C0.111,-0.577 0.112,-0.586 0.115,-0.6C0.117,-0.611 0.119,-0.619 0.121,-0.625C0.124,-0.638 0.127,-0.648 0.13,-0.657C0.139,-0.681 0.157,-0.694 0.182,-0.695C0.196,-0.696 0.208,-0.696 0.218,-0.694C0.24,-0.691 0.252,-0.679 0.252,-0.656C0.252,-0.644 0.251,-0.632 0.249,-0.622C0.248,-0.618 0.236,-0.563 0.214,-0.455C0.211,-0.441 0.205,-0.415 0.197,-0.376C0.19,-0.343 0.185,-0.317 0.181,-0.297L0.163,-0.216C0.16,-0.202 0.158,-0.188 0.156,-0.173C0.154,-0.156 0.159,-0.142 0.172,-0.132C0.178,-0.128 0.183,-0.125 0.188,-0.125C0.196,-0.122 0.205,-0.121 0.214,-0.121C0.22,-0.12 0.227,-0.12 0.237,-0.12C0.248,-0.12 0.256,-0.12 0.261,-0.12C0.275,-0.119 0.287,-0.118 0.297,-0.117C0.322,-0.112 0.333,-0.098 0.333,-0.073C0.332,-0.056 0.327,-0.04 0.318,-0.025C0.309,-0.011 0.296,-0.003 0.28,-0.001C0.272,-0 0.263,-0 0.253,-0Z" style="fill:rgb(234,44,26);fill-rule:nonzero;"/>
                    </g>
                    <g transform="matrix(50,0,0,50,2961.56,6753.5)">
                        <path d="M0.055,-0C0.041,-0.002 0.034,-0.003 0.034,-0.003C0.01,-0.008 -0.002,-0.024 0,-0.048C0.001,-0.056 0.002,-0.066 0.004,-0.077C0.01,-0.101 0.017,-0.137 0.028,-0.187C0.038,-0.235 0.046,-0.271 0.051,-0.296C0.054,-0.308 0.058,-0.327 0.063,-0.351C0.067,-0.376 0.071,-0.394 0.074,-0.407C0.084,-0.456 0.097,-0.516 0.112,-0.585C0.114,-0.597 0.119,-0.619 0.127,-0.652C0.13,-0.665 0.137,-0.677 0.148,-0.686C0.149,-0.686 0.149,-0.687 0.15,-0.687C0.151,-0.688 0.151,-0.688 0.151,-0.688C0.161,-0.696 0.175,-0.701 0.194,-0.701C0.214,-0.702 0.228,-0.699 0.239,-0.692C0.247,-0.686 0.252,-0.679 0.254,-0.668C0.256,-0.659 0.256,-0.649 0.253,-0.638C0.241,-0.577 0.233,-0.54 0.23,-0.527C0.226,-0.507 0.221,-0.481 0.214,-0.45C0.205,-0.406 0.2,-0.381 0.198,-0.373C0.164,-0.212 0.148,-0.135 0.149,-0.142C0.147,-0.131 0.142,-0.108 0.134,-0.072C0.135,-0.074 0.133,-0.069 0.13,-0.055C0.121,-0.02 0.099,-0.001 0.063,-0L0.055,-0C0.055,-0 0.055,-0 0.055,-0Z" style="fill:rgb(234,44,26);fill-rule:nonzero;"/>
                    </g>
                    <g transform="matrix(50,0,0,50,2973.4,6753.5)">
                        <path d="M0.384,-0.503C0.383,-0.523 0.376,-0.541 0.362,-0.557C0.347,-0.574 0.327,-0.583 0.302,-0.585C0.287,-0.586 0.273,-0.583 0.261,-0.574C0.248,-0.565 0.239,-0.554 0.235,-0.541L0.228,-0.514C0.217,-0.467 0.21,-0.433 0.206,-0.412C0.205,-0.407 0.203,-0.393 0.201,-0.369C0.2,-0.357 0.204,-0.346 0.214,-0.336C0.224,-0.328 0.234,-0.324 0.245,-0.325C0.258,-0.326 0.265,-0.327 0.268,-0.328C0.292,-0.333 0.313,-0.345 0.331,-0.362C0.366,-0.396 0.383,-0.438 0.384,-0.486L0.384,-0.503ZM0.056,-0L0.04,-0C0.013,-0.003 0,-0.018 0,-0.044C0,-0.051 0.001,-0.058 0.002,-0.064C0.007,-0.09 0.014,-0.122 0.021,-0.159C0.025,-0.177 0.036,-0.226 0.052,-0.306C0.077,-0.423 0.089,-0.478 0.087,-0.471C0.09,-0.483 0.095,-0.507 0.103,-0.544C0.109,-0.575 0.114,-0.599 0.118,-0.618C0.12,-0.625 0.123,-0.64 0.129,-0.662C0.132,-0.673 0.138,-0.684 0.148,-0.693C0.158,-0.701 0.169,-0.707 0.182,-0.708C0.208,-0.712 0.247,-0.712 0.296,-0.708C0.343,-0.704 0.375,-0.698 0.392,-0.688C0.435,-0.677 0.465,-0.655 0.481,-0.623C0.481,-0.622 0.482,-0.621 0.484,-0.619C0.509,-0.591 0.52,-0.546 0.517,-0.485C0.515,-0.451 0.508,-0.419 0.498,-0.388C0.474,-0.32 0.431,-0.268 0.371,-0.232C0.347,-0.218 0.317,-0.208 0.281,-0.203C0.275,-0.202 0.266,-0.201 0.256,-0.2C0.243,-0.199 0.235,-0.198 0.232,-0.198C0.223,-0.197 0.213,-0.195 0.203,-0.193C0.177,-0.189 0.16,-0.173 0.151,-0.146C0.151,-0.145 0.146,-0.128 0.138,-0.095C0.131,-0.065 0.126,-0.048 0.125,-0.043C0.123,-0.037 0.12,-0.03 0.114,-0.022C0.105,-0.01 0.092,-0.003 0.076,-0.001C0.075,-0.001 0.068,-0.001 0.056,-0L0.056,-0Z" style="fill:rgb(234,44,26);fill-rule:nonzero;"/>
                    </g>
                    <g transform="matrix(50,0,0,50,2998.62,6753.5)">
                        <path d="M0.273,-0.695C0.294,-0.696 0.314,-0.693 0.335,-0.687C0.377,-0.675 0.408,-0.653 0.428,-0.623C0.434,-0.613 0.44,-0.604 0.444,-0.593C0.452,-0.574 0.448,-0.557 0.433,-0.542C0.419,-0.528 0.402,-0.518 0.383,-0.512C0.362,-0.506 0.346,-0.51 0.333,-0.525C0.329,-0.531 0.324,-0.537 0.317,-0.543C0.306,-0.556 0.295,-0.564 0.286,-0.569C0.265,-0.578 0.245,-0.577 0.226,-0.566C0.207,-0.555 0.196,-0.537 0.194,-0.512C0.193,-0.493 0.2,-0.474 0.215,-0.456C0.226,-0.443 0.241,-0.429 0.26,-0.415C0.289,-0.394 0.312,-0.376 0.329,-0.362C0.347,-0.347 0.362,-0.33 0.375,-0.312C0.391,-0.286 0.399,-0.258 0.4,-0.227C0.401,-0.202 0.399,-0.178 0.392,-0.154C0.386,-0.129 0.375,-0.106 0.358,-0.084C0.331,-0.048 0.293,-0.023 0.245,-0.009C0.224,-0.003 0.204,-0 0.184,-0C0.151,0.001 0.121,-0.007 0.093,-0.022C0.065,-0.037 0.04,-0.058 0.016,-0.085C0.004,-0.098 -0.001,-0.111 0,-0.125C0.001,-0.134 0.003,-0.14 0.007,-0.146C0.02,-0.162 0.036,-0.173 0.057,-0.18C0.067,-0.183 0.076,-0.182 0.083,-0.176C0.096,-0.165 0.105,-0.158 0.109,-0.153C0.127,-0.135 0.148,-0.124 0.173,-0.12C0.203,-0.115 0.229,-0.123 0.25,-0.143C0.266,-0.158 0.275,-0.176 0.276,-0.196C0.278,-0.216 0.272,-0.236 0.257,-0.254C0.248,-0.265 0.236,-0.276 0.221,-0.289C0.213,-0.295 0.201,-0.304 0.186,-0.316C0.17,-0.329 0.158,-0.338 0.15,-0.344C0.124,-0.366 0.105,-0.388 0.092,-0.411C0.078,-0.434 0.071,-0.461 0.069,-0.489C0.067,-0.527 0.076,-0.564 0.095,-0.599C0.114,-0.633 0.143,-0.659 0.182,-0.677C0.209,-0.69 0.24,-0.696 0.273,-0.695Z" style="fill:rgb(234,44,26);fill-rule:nonzero;"/>
                    </g>
                    <g transform="matrix(50,0,0,50,3021.43,6753.5)">
                        <path d="M0.055,-0C0.041,-0.002 0.034,-0.003 0.034,-0.003C0.01,-0.008 -0.002,-0.024 0,-0.048C0.001,-0.056 0.002,-0.066 0.004,-0.077C0.01,-0.101 0.017,-0.137 0.028,-0.187C0.038,-0.235 0.046,-0.271 0.051,-0.296C0.054,-0.308 0.058,-0.327 0.063,-0.351C0.067,-0.376 0.071,-0.394 0.074,-0.407C0.084,-0.456 0.097,-0.516 0.112,-0.585C0.114,-0.597 0.119,-0.619 0.127,-0.652C0.13,-0.665 0.137,-0.677 0.148,-0.686C0.149,-0.686 0.149,-0.687 0.15,-0.687C0.151,-0.688 0.151,-0.688 0.151,-0.688C0.161,-0.696 0.175,-0.701 0.194,-0.701C0.214,-0.702 0.228,-0.699 0.239,-0.692C0.247,-0.686 0.252,-0.679 0.254,-0.668C0.256,-0.659 0.256,-0.649 0.253,-0.638C0.241,-0.577 0.233,-0.54 0.23,-0.527C0.226,-0.507 0.221,-0.481 0.214,-0.45C0.205,-0.406 0.2,-0.381 0.198,-0.373C0.164,-0.212 0.148,-0.135 0.149,-0.142C0.147,-0.131 0.142,-0.108 0.134,-0.072C0.135,-0.074 0.133,-0.069 0.13,-0.055C0.121,-0.02 0.099,-0.001 0.063,-0L0.055,-0C0.055,-0 0.055,-0 0.055,-0Z" style="fill:rgb(234,44,26);fill-rule:nonzero;"/>
                    </g>
                    <g transform="matrix(50,0,0,50,3033.27,6753.5)">
                        <path d="M0.392,-0.442C0.391,-0.445 0.391,-0.451 0.391,-0.458C0.39,-0.466 0.389,-0.472 0.389,-0.476C0.387,-0.504 0.379,-0.528 0.365,-0.547C0.352,-0.568 0.335,-0.581 0.314,-0.586C0.288,-0.593 0.267,-0.587 0.25,-0.569C0.242,-0.56 0.236,-0.551 0.234,-0.542C0.227,-0.517 0.223,-0.5 0.221,-0.49C0.197,-0.379 0.177,-0.289 0.163,-0.22C0.159,-0.199 0.156,-0.182 0.157,-0.169C0.157,-0.155 0.164,-0.144 0.175,-0.136C0.184,-0.129 0.194,-0.126 0.208,-0.127C0.226,-0.129 0.244,-0.134 0.26,-0.144C0.295,-0.165 0.325,-0.198 0.348,-0.245C0.374,-0.298 0.389,-0.364 0.392,-0.442ZM0.093,-0C0.068,-0 0.054,-0 0.052,-0C0.042,-0.001 0.033,-0.003 0.024,-0.005C0.01,-0.01 0.002,-0.02 0.001,-0.035C-0,-0.044 -0,-0.052 0.001,-0.058C0.006,-0.086 0.013,-0.118 0.02,-0.154C0.028,-0.189 0.037,-0.236 0.049,-0.294C0.064,-0.365 0.074,-0.412 0.079,-0.434C0.083,-0.452 0.09,-0.484 0.099,-0.528C0.107,-0.568 0.114,-0.6 0.119,-0.623C0.122,-0.637 0.125,-0.649 0.127,-0.659C0.13,-0.669 0.134,-0.677 0.137,-0.683C0.147,-0.7 0.16,-0.71 0.177,-0.713C0.188,-0.714 0.192,-0.715 0.189,-0.715C0.226,-0.717 0.257,-0.717 0.28,-0.713C0.336,-0.706 0.369,-0.699 0.379,-0.692C0.401,-0.686 0.421,-0.674 0.439,-0.658C0.464,-0.637 0.48,-0.618 0.488,-0.601C0.509,-0.567 0.52,-0.537 0.52,-0.512C0.531,-0.469 0.535,-0.438 0.531,-0.418C0.531,-0.389 0.526,-0.353 0.517,-0.311C0.506,-0.256 0.491,-0.215 0.472,-0.186C0.431,-0.099 0.37,-0.045 0.287,-0.024C0.255,-0.013 0.231,-0.007 0.216,-0.007C0.203,-0.003 0.175,-0.001 0.131,-0L0.093,-0Z" style="fill:rgb(234,44,26);fill-rule:nonzero;"/>
                    </g>
                    <g transform="matrix(50,0,0,50,3059.46,6753.5)">
                        <path d="M0.29,-0L0.06,-0C0.048,-0 0.039,-0.001 0.031,-0.003C0.011,-0.009 0.001,-0.022 0,-0.043C0,-0.05 0.001,-0.057 0.002,-0.066C0.012,-0.115 0.022,-0.164 0.033,-0.214C0.031,-0.206 0.043,-0.263 0.069,-0.385C0.1,-0.532 0.118,-0.613 0.121,-0.629C0.123,-0.638 0.126,-0.648 0.129,-0.657C0.136,-0.677 0.15,-0.69 0.17,-0.694C0.181,-0.697 0.19,-0.698 0.197,-0.698C0.284,-0.698 0.364,-0.698 0.436,-0.698C0.445,-0.698 0.455,-0.696 0.466,-0.693C0.482,-0.688 0.491,-0.678 0.492,-0.661C0.493,-0.641 0.489,-0.623 0.48,-0.607C0.472,-0.594 0.461,-0.586 0.448,-0.583C0.436,-0.58 0.424,-0.579 0.414,-0.579C0.404,-0.578 0.388,-0.578 0.366,-0.578C0.345,-0.578 0.33,-0.578 0.319,-0.578C0.307,-0.578 0.294,-0.576 0.278,-0.573C0.257,-0.569 0.243,-0.557 0.235,-0.536C0.23,-0.524 0.226,-0.511 0.223,-0.495C0.219,-0.481 0.216,-0.466 0.214,-0.452C0.211,-0.434 0.216,-0.42 0.228,-0.409C0.234,-0.403 0.24,-0.4 0.246,-0.399C0.259,-0.397 0.268,-0.396 0.273,-0.396L0.3,-0.396C0.312,-0.396 0.321,-0.395 0.327,-0.395C0.338,-0.395 0.348,-0.394 0.356,-0.392C0.383,-0.385 0.394,-0.369 0.39,-0.341C0.388,-0.332 0.385,-0.322 0.381,-0.31C0.375,-0.293 0.363,-0.282 0.345,-0.277C0.336,-0.274 0.326,-0.272 0.317,-0.272C0.311,-0.272 0.302,-0.271 0.291,-0.271C0.279,-0.271 0.27,-0.271 0.265,-0.271C0.249,-0.271 0.233,-0.27 0.216,-0.268C0.197,-0.266 0.183,-0.256 0.173,-0.238C0.162,-0.219 0.156,-0.196 0.156,-0.169C0.155,-0.144 0.168,-0.129 0.193,-0.123C0.202,-0.121 0.211,-0.121 0.222,-0.121C0.232,-0.12 0.248,-0.12 0.268,-0.12L0.313,-0.12C0.324,-0.12 0.333,-0.119 0.34,-0.117C0.362,-0.111 0.372,-0.098 0.371,-0.076C0.37,-0.059 0.366,-0.044 0.358,-0.031C0.35,-0.016 0.338,-0.007 0.323,-0.004C0.313,-0.002 0.302,-0 0.29,-0Z" style="fill:rgb(234,44,26);fill-rule:nonzero;"/>
                    </g>
                </g>
                <g transform="matrix(0.879979,8.83948e-32,-4.81239e-32,0.338381,78755.1,73691)">
                    <path d="M6963,7043.25L9254,7043.25C9267.94,7043.25 9279.27,7029.14 9279.27,7011.77C9279.27,6994.39 9267.94,6980.28 9254,6980.28L6963,6980.28C6949.06,6980.28 6937.73,6994.39 6937.73,7011.77C6937.73,7029.14 6949.06,7043.25 6963,7043.25Z" style="fill:rgb(166,166,166);"/>
                </g>
                <g transform="matrix(0.650416,2.69028e-32,-8.02065e-32,0.31166,82105,73732.5)">
                    <g transform="matrix(724.109,0,0,724.109,1643.82,9029.47)">
                        <path d="M0.227,-0.564C0.227,-0.56 0.227,-0.558 0.227,-0.559C0.225,-0.457 0.224,-0.398 0.224,-0.382C0.224,-0.376 0.225,-0.363 0.227,-0.344C0.228,-0.325 0.229,-0.313 0.229,-0.306C0.23,-0.302 0.231,-0.298 0.234,-0.294C0.238,-0.287 0.244,-0.286 0.25,-0.292C0.257,-0.299 0.263,-0.305 0.266,-0.31C0.276,-0.328 0.284,-0.345 0.291,-0.361C0.302,-0.387 0.324,-0.442 0.357,-0.524C0.36,-0.531 0.366,-0.546 0.375,-0.569C0.383,-0.588 0.389,-0.603 0.394,-0.614C0.401,-0.631 0.408,-0.645 0.414,-0.657C0.429,-0.684 0.452,-0.699 0.481,-0.699C0.493,-0.7 0.502,-0.7 0.508,-0.699C0.514,-0.699 0.52,-0.698 0.525,-0.696C0.543,-0.689 0.551,-0.677 0.548,-0.66C0.547,-0.653 0.544,-0.644 0.54,-0.634C0.536,-0.626 0.531,-0.615 0.524,-0.6C0.516,-0.584 0.511,-0.572 0.508,-0.565C0.501,-0.549 0.491,-0.527 0.479,-0.498C0.465,-0.467 0.455,-0.444 0.449,-0.43C0.44,-0.411 0.427,-0.382 0.409,-0.341C0.392,-0.303 0.379,-0.273 0.37,-0.253L0.312,-0.121C0.305,-0.104 0.296,-0.086 0.287,-0.064C0.286,-0.063 0.284,-0.06 0.283,-0.057C0.281,-0.053 0.28,-0.05 0.279,-0.048C0.265,-0.018 0.241,-0.002 0.207,-0C0.183,0.001 0.165,-0 0.151,-0.003C0.129,-0.008 0.117,-0.021 0.113,-0.043C0.113,-0.049 0.112,-0.055 0.112,-0.062C0.113,-0.089 0.111,-0.134 0.109,-0.198C0.105,-0.311 0.103,-0.389 0.104,-0.431C0.102,-0.457 0.102,-0.493 0.102,-0.537C0.102,-0.589 0.102,-0.624 0.101,-0.643C0.1,-0.678 0.118,-0.697 0.154,-0.699C0.166,-0.7 0.178,-0.699 0.189,-0.696C0.209,-0.691 0.221,-0.678 0.225,-0.657C0.225,-0.656 0.225,-0.649 0.226,-0.636L0.226,-0.564L0.227,-0.564Z" style="fill:rgb(112,112,112);fill-rule:nonzero;"/>
                    </g>
                    <g transform="matrix(724.109,0,0,724.109,2007.09,9029.47)">
                        <path d="M0.055,-0C0.041,-0.002 0.034,-0.003 0.034,-0.003C0.01,-0.008 -0.002,-0.024 0,-0.048C0.001,-0.056 0.002,-0.066 0.004,-0.077C0.01,-0.101 0.017,-0.137 0.028,-0.187C0.038,-0.235 0.046,-0.271 0.051,-0.296C0.054,-0.308 0.058,-0.327 0.063,-0.351C0.067,-0.376 0.071,-0.394 0.074,-0.407C0.084,-0.456 0.097,-0.516 0.112,-0.585C0.114,-0.597 0.119,-0.619 0.127,-0.652C0.13,-0.665 0.137,-0.677 0.148,-0.686C0.149,-0.686 0.149,-0.687 0.15,-0.687C0.151,-0.688 0.151,-0.688 0.151,-0.688C0.161,-0.696 0.175,-0.701 0.194,-0.701C0.214,-0.702 0.228,-0.699 0.239,-0.692C0.247,-0.686 0.252,-0.679 0.254,-0.668C0.256,-0.659 0.256,-0.649 0.253,-0.638C0.241,-0.577 0.233,-0.54 0.23,-0.527C0.226,-0.507 0.221,-0.481 0.214,-0.45C0.205,-0.406 0.2,-0.381 0.198,-0.373C0.164,-0.212 0.148,-0.135 0.149,-0.142C0.147,-0.131 0.142,-0.108 0.134,-0.072C0.135,-0.074 0.133,-0.069 0.13,-0.055C0.121,-0.02 0.099,-0.001 0.063,-0L0.055,-0C0.055,-0 0.055,-0 0.055,-0Z" style="fill:rgb(112,112,112);fill-rule:nonzero;"/>
                    </g>
                    <g transform="matrix(724.109,0,0,724.109,2200.3,9029.47)">
                        <path d="M0.566,-0.65C0.564,-0.633 0.563,-0.624 0.563,-0.623C0.556,-0.59 0.546,-0.545 0.534,-0.488C0.52,-0.423 0.511,-0.378 0.505,-0.352C0.5,-0.325 0.491,-0.283 0.479,-0.227C0.467,-0.171 0.458,-0.129 0.452,-0.101C0.45,-0.09 0.446,-0.074 0.441,-0.053C0.44,-0.047 0.438,-0.041 0.436,-0.036C0.431,-0.025 0.424,-0.016 0.413,-0.01C0.397,0 0.379,0.003 0.359,-0.003C0.339,-0.008 0.324,-0.02 0.316,-0.037C0.311,-0.046 0.307,-0.058 0.303,-0.071C0.298,-0.089 0.29,-0.115 0.28,-0.15C0.27,-0.185 0.262,-0.211 0.257,-0.229C0.249,-0.254 0.24,-0.284 0.229,-0.317C0.227,-0.324 0.224,-0.33 0.219,-0.336C0.215,-0.341 0.21,-0.344 0.206,-0.344C0.201,-0.343 0.197,-0.341 0.193,-0.335C0.188,-0.327 0.183,-0.317 0.18,-0.305C0.176,-0.295 0.173,-0.281 0.169,-0.264C0.165,-0.246 0.16,-0.222 0.154,-0.191C0.147,-0.157 0.142,-0.133 0.139,-0.119C0.136,-0.102 0.131,-0.08 0.125,-0.052C0.121,-0.038 0.114,-0.026 0.103,-0.016C0.094,-0.007 0.084,-0.003 0.074,-0.002C0.064,-0.001 0.051,-0.001 0.035,-0.001C0.031,-0.002 0.026,-0.003 0.021,-0.005C0.007,-0.012 0,-0.022 0,-0.035C0,-0.052 0.001,-0.064 0.002,-0.071C0.004,-0.079 0.016,-0.139 0.04,-0.249C0.043,-0.268 0.049,-0.293 0.055,-0.323C0.063,-0.362 0.068,-0.387 0.071,-0.398C0.075,-0.419 0.08,-0.441 0.084,-0.462C0.101,-0.543 0.112,-0.594 0.117,-0.615C0.118,-0.617 0.121,-0.63 0.127,-0.655C0.131,-0.667 0.139,-0.678 0.152,-0.689C0.155,-0.692 0.159,-0.694 0.162,-0.695C0.184,-0.702 0.205,-0.701 0.223,-0.693C0.239,-0.687 0.25,-0.674 0.257,-0.655C0.263,-0.638 0.269,-0.618 0.276,-0.596C0.282,-0.574 0.291,-0.545 0.302,-0.509C0.314,-0.466 0.323,-0.437 0.327,-0.422C0.328,-0.417 0.332,-0.408 0.336,-0.394C0.34,-0.385 0.345,-0.378 0.352,-0.372C0.36,-0.366 0.367,-0.367 0.373,-0.374C0.379,-0.381 0.383,-0.389 0.386,-0.398C0.391,-0.417 0.393,-0.428 0.394,-0.43C0.396,-0.442 0.403,-0.474 0.414,-0.524C0.423,-0.563 0.429,-0.595 0.435,-0.619C0.438,-0.636 0.442,-0.649 0.446,-0.66C0.456,-0.685 0.475,-0.699 0.501,-0.699C0.513,-0.7 0.522,-0.699 0.528,-0.699C0.552,-0.697 0.565,-0.684 0.566,-0.66L0.566,-0.65L0.566,-0.65Z" style="fill:rgb(112,112,112);fill-rule:nonzero;"/>
                    </g>
                    <g transform="matrix(724.109,0,0,724.109,2623.68,9029.47)">
                        <path d="M0.129,-0.696L0.363,-0.696C0.373,-0.696 0.382,-0.695 0.391,-0.693C0.41,-0.689 0.42,-0.677 0.421,-0.659C0.423,-0.631 0.416,-0.609 0.4,-0.593C0.392,-0.586 0.384,-0.581 0.375,-0.58C0.373,-0.579 0.365,-0.578 0.35,-0.576C0.332,-0.573 0.319,-0.57 0.313,-0.567C0.295,-0.557 0.283,-0.542 0.277,-0.519C0.272,-0.5 0.267,-0.479 0.262,-0.455C0.251,-0.406 0.231,-0.31 0.201,-0.167C0.188,-0.103 0.181,-0.073 0.182,-0.079C0.179,-0.064 0.176,-0.052 0.173,-0.043C0.164,-0.019 0.148,-0.005 0.124,-0.002C0.103,0.001 0.087,0 0.074,-0.003C0.057,-0.008 0.049,-0.019 0.048,-0.035C0.048,-0.049 0.048,-0.062 0.05,-0.074C0.053,-0.085 0.059,-0.116 0.069,-0.165C0.084,-0.235 0.097,-0.297 0.109,-0.352C0.111,-0.36 0.115,-0.379 0.122,-0.41C0.127,-0.434 0.131,-0.454 0.134,-0.469C0.138,-0.486 0.14,-0.501 0.142,-0.515C0.143,-0.521 0.142,-0.53 0.141,-0.54C0.139,-0.556 0.129,-0.567 0.111,-0.572C0.112,-0.571 0.105,-0.573 0.089,-0.576C0.08,-0.578 0.075,-0.579 0.074,-0.58C0.059,-0.586 0.05,-0.596 0.049,-0.609C0.045,-0.637 0.053,-0.66 0.071,-0.679C0.079,-0.686 0.086,-0.691 0.094,-0.692C0.109,-0.694 0.121,-0.696 0.129,-0.696Z" style="fill:rgb(112,112,112);fill-rule:nonzero;"/>
                    </g>
                    <g transform="matrix(724.109,0,0,724.109,2915.17,9029.47)">
                        <path d="M0.332,-0.335C0.332,-0.335 0.332,-0.335 0.333,-0.335L0.334,-0.335C0.331,-0.366 0.329,-0.388 0.328,-0.403C0.327,-0.41 0.325,-0.415 0.322,-0.419C0.316,-0.426 0.31,-0.426 0.305,-0.421C0.297,-0.413 0.291,-0.406 0.289,-0.402C0.27,-0.368 0.254,-0.332 0.241,-0.292C0.239,-0.289 0.239,-0.281 0.238,-0.27C0.238,-0.264 0.241,-0.258 0.246,-0.252C0.254,-0.244 0.264,-0.239 0.276,-0.239C0.289,-0.238 0.299,-0.241 0.309,-0.249C0.323,-0.26 0.331,-0.275 0.332,-0.294L0.332,-0.335ZM0.458,-0.101L0.458,-0.059C0.457,-0.052 0.456,-0.044 0.454,-0.034C0.451,-0.021 0.442,-0.012 0.429,-0.006C0.41,0.001 0.391,0.002 0.371,-0.004C0.354,-0.008 0.342,-0.019 0.337,-0.036C0.336,-0.038 0.335,-0.042 0.334,-0.047C0.333,-0.052 0.332,-0.056 0.331,-0.059C0.327,-0.071 0.323,-0.079 0.321,-0.083C0.311,-0.099 0.296,-0.108 0.276,-0.109C0.253,-0.11 0.23,-0.11 0.21,-0.109C0.186,-0.107 0.167,-0.097 0.154,-0.077C0.147,-0.066 0.141,-0.056 0.137,-0.048C0.132,-0.04 0.126,-0.031 0.119,-0.023C0.11,-0.013 0.099,-0.007 0.085,-0.004C0.065,0.001 0.045,0.001 0.025,-0.003C0.006,-0.008 -0.002,-0.021 0,-0.04C0.002,-0.048 0.005,-0.056 0.009,-0.066C0.017,-0.084 0.033,-0.121 0.059,-0.179C0.064,-0.189 0.073,-0.21 0.087,-0.24C0.098,-0.266 0.107,-0.287 0.114,-0.302C0.121,-0.316 0.131,-0.339 0.144,-0.369C0.157,-0.398 0.167,-0.421 0.174,-0.436C0.209,-0.515 0.237,-0.577 0.257,-0.622C0.262,-0.631 0.268,-0.644 0.277,-0.662C0.288,-0.684 0.305,-0.697 0.328,-0.701C0.355,-0.707 0.38,-0.707 0.404,-0.701C0.42,-0.698 0.431,-0.687 0.438,-0.669C0.439,-0.664 0.441,-0.658 0.441,-0.652C0.443,-0.623 0.444,-0.598 0.446,-0.576L0.446,-0.537C0.446,-0.5 0.447,-0.474 0.448,-0.458C0.449,-0.453 0.449,-0.428 0.45,-0.386C0.45,-0.347 0.451,-0.32 0.452,-0.306C0.452,-0.299 0.453,-0.271 0.454,-0.22C0.454,-0.182 0.455,-0.157 0.456,-0.146C0.456,-0.144 0.457,-0.129 0.457,-0.101L0.458,-0.101Z" style="fill:rgb(112,112,112);fill-rule:nonzero;"/>
                    </g>
                    <g transform="matrix(724.109,0,0,724.109,3315.92,9029.47)">
                        <path d="M0,-0.237C0,-0.323 0.014,-0.405 0.042,-0.485C0.055,-0.524 0.07,-0.557 0.087,-0.583C0.109,-0.618 0.134,-0.646 0.164,-0.668C0.193,-0.691 0.228,-0.705 0.269,-0.709C0.302,-0.713 0.335,-0.709 0.366,-0.7C0.389,-0.692 0.41,-0.679 0.429,-0.66C0.444,-0.644 0.456,-0.625 0.464,-0.605C0.471,-0.586 0.473,-0.571 0.469,-0.56C0.465,-0.55 0.455,-0.54 0.439,-0.53C0.434,-0.526 0.424,-0.521 0.412,-0.516C0.407,-0.513 0.401,-0.512 0.396,-0.51C0.377,-0.507 0.363,-0.512 0.354,-0.526C0.349,-0.532 0.346,-0.537 0.342,-0.542C0.332,-0.556 0.326,-0.564 0.323,-0.566C0.299,-0.59 0.272,-0.594 0.242,-0.576C0.229,-0.568 0.217,-0.556 0.206,-0.542C0.189,-0.518 0.175,-0.488 0.162,-0.452C0.149,-0.414 0.138,-0.365 0.13,-0.305C0.127,-0.283 0.126,-0.255 0.126,-0.221C0.126,-0.201 0.131,-0.182 0.139,-0.165C0.15,-0.143 0.165,-0.13 0.185,-0.125C0.203,-0.12 0.221,-0.124 0.238,-0.135C0.267,-0.155 0.288,-0.181 0.301,-0.214C0.308,-0.23 0.305,-0.245 0.292,-0.256C0.287,-0.262 0.281,-0.267 0.277,-0.271C0.264,-0.281 0.257,-0.294 0.258,-0.311C0.258,-0.337 0.267,-0.357 0.283,-0.371C0.29,-0.377 0.297,-0.38 0.304,-0.381C0.316,-0.383 0.323,-0.384 0.325,-0.384C0.371,-0.386 0.404,-0.385 0.423,-0.382C0.437,-0.38 0.447,-0.376 0.452,-0.37C0.457,-0.363 0.459,-0.353 0.458,-0.338C0.458,-0.33 0.456,-0.32 0.453,-0.31C0.449,-0.298 0.445,-0.283 0.44,-0.266C0.435,-0.241 0.431,-0.226 0.43,-0.221C0.42,-0.185 0.408,-0.153 0.392,-0.125C0.377,-0.091 0.351,-0.062 0.313,-0.037C0.285,-0.019 0.251,-0.007 0.21,-0.002C0.175,0.003 0.141,-0.001 0.11,-0.014C0.067,-0.032 0.037,-0.065 0.018,-0.112C0.006,-0.143 0,-0.177 0,-0.214L0,-0.237Z" style="fill:rgb(112,112,112);fill-rule:nonzero;"/>
                    </g>
                    <g transform="matrix(724.109,0,0,724.109,3684.85,9029.47)">
                        <path d="M0.29,-0L0.06,-0C0.048,-0 0.039,-0.001 0.031,-0.003C0.011,-0.009 0.001,-0.022 0,-0.043C0,-0.05 0.001,-0.057 0.002,-0.066C0.012,-0.115 0.022,-0.164 0.033,-0.214C0.031,-0.206 0.043,-0.263 0.069,-0.385C0.1,-0.532 0.118,-0.613 0.121,-0.629C0.123,-0.638 0.126,-0.648 0.129,-0.657C0.136,-0.677 0.15,-0.69 0.17,-0.694C0.181,-0.697 0.19,-0.698 0.197,-0.698C0.284,-0.698 0.364,-0.698 0.436,-0.698C0.445,-0.698 0.455,-0.696 0.466,-0.693C0.482,-0.688 0.491,-0.678 0.492,-0.661C0.493,-0.641 0.489,-0.623 0.48,-0.607C0.472,-0.594 0.461,-0.586 0.448,-0.583C0.436,-0.58 0.424,-0.579 0.414,-0.579C0.404,-0.578 0.388,-0.578 0.366,-0.578C0.345,-0.578 0.33,-0.578 0.319,-0.578C0.307,-0.578 0.294,-0.576 0.278,-0.573C0.257,-0.569 0.243,-0.557 0.235,-0.536C0.23,-0.524 0.226,-0.511 0.223,-0.495C0.219,-0.481 0.216,-0.466 0.214,-0.452C0.211,-0.434 0.216,-0.42 0.228,-0.409C0.234,-0.403 0.24,-0.4 0.246,-0.399C0.259,-0.397 0.268,-0.396 0.273,-0.396L0.3,-0.396C0.312,-0.396 0.321,-0.395 0.327,-0.395C0.338,-0.395 0.348,-0.394 0.356,-0.392C0.383,-0.385 0.394,-0.369 0.39,-0.341C0.388,-0.332 0.385,-0.322 0.381,-0.31C0.375,-0.293 0.363,-0.282 0.345,-0.277C0.336,-0.274 0.326,-0.272 0.317,-0.272C0.311,-0.272 0.302,-0.271 0.291,-0.271C0.279,-0.271 0.27,-0.271 0.265,-0.271C0.249,-0.271 0.233,-0.27 0.216,-0.268C0.197,-0.266 0.183,-0.256 0.173,-0.238C0.162,-0.219 0.156,-0.196 0.156,-0.169C0.155,-0.144 0.168,-0.129 0.193,-0.123C0.202,-0.121 0.211,-0.121 0.222,-0.121C0.232,-0.12 0.248,-0.12 0.268,-0.12L0.313,-0.12C0.324,-0.12 0.333,-0.119 0.34,-0.117C0.362,-0.111 0.372,-0.098 0.371,-0.076C0.37,-0.059 0.366,-0.044 0.358,-0.031C0.35,-0.016 0.338,-0.007 0.323,-0.004C0.313,-0.002 0.302,-0 0.29,-0Z" style="fill:rgb(112,112,112);fill-rule:nonzero;"/>
                    </g>
                    <g transform="matrix(724.109,0,0,724.109,4229.3,9029.47)">
                        <path d="M0.041,-0.204C0.039,-0.314 0.039,-0.382 0.041,-0.408C0.041,-0.41 0.041,-0.416 0.041,-0.425C0.041,-0.454 0.041,-0.468 0.041,-0.467C0.041,-0.473 0.042,-0.499 0.043,-0.543C0.045,-0.577 0.045,-0.603 0.044,-0.619C0.044,-0.628 0.044,-0.636 0.044,-0.643C0.045,-0.668 0.058,-0.685 0.081,-0.692C0.098,-0.698 0.115,-0.698 0.132,-0.693C0.153,-0.687 0.164,-0.673 0.166,-0.65C0.165,-0.61 0.164,-0.566 0.163,-0.517C0.162,-0.465 0.162,-0.408 0.162,-0.346C0.162,-0.335 0.164,-0.326 0.167,-0.32C0.169,-0.315 0.171,-0.313 0.175,-0.312C0.178,-0.311 0.181,-0.313 0.185,-0.316C0.191,-0.322 0.195,-0.327 0.198,-0.332C0.208,-0.351 0.216,-0.367 0.222,-0.38C0.231,-0.401 0.252,-0.453 0.286,-0.536C0.313,-0.601 0.326,-0.633 0.325,-0.63C0.33,-0.642 0.336,-0.654 0.343,-0.666C0.352,-0.68 0.365,-0.689 0.384,-0.693C0.401,-0.698 0.416,-0.697 0.429,-0.691C0.443,-0.685 0.452,-0.676 0.455,-0.663C0.458,-0.65 0.459,-0.638 0.46,-0.626C0.46,-0.622 0.461,-0.599 0.462,-0.558C0.463,-0.519 0.464,-0.494 0.464,-0.481C0.464,-0.413 0.464,-0.377 0.464,-0.375C0.464,-0.373 0.466,-0.359 0.468,-0.334C0.469,-0.332 0.469,-0.33 0.469,-0.329C0.473,-0.319 0.477,-0.314 0.481,-0.313C0.485,-0.312 0.491,-0.315 0.497,-0.323C0.506,-0.335 0.513,-0.35 0.521,-0.369C0.526,-0.383 0.548,-0.444 0.588,-0.551C0.6,-0.583 0.611,-0.612 0.622,-0.641C0.624,-0.646 0.625,-0.65 0.626,-0.652C0.639,-0.679 0.659,-0.693 0.685,-0.695C0.693,-0.696 0.704,-0.696 0.718,-0.695C0.723,-0.695 0.728,-0.694 0.732,-0.691C0.746,-0.685 0.753,-0.674 0.752,-0.66C0.752,-0.65 0.75,-0.641 0.746,-0.632C0.732,-0.596 0.721,-0.566 0.711,-0.542C0.706,-0.528 0.697,-0.507 0.686,-0.479C0.675,-0.45 0.667,-0.429 0.661,-0.416C0.657,-0.403 0.641,-0.363 0.614,-0.295C0.562,-0.163 0.531,-0.085 0.522,-0.062C0.515,-0.044 0.506,-0.03 0.496,-0.02C0.488,-0.011 0.479,-0.006 0.469,-0.004C0.444,0.001 0.419,0.001 0.394,-0.003C0.376,-0.007 0.365,-0.018 0.36,-0.038C0.359,-0.044 0.358,-0.052 0.357,-0.061C0.357,-0.07 0.356,-0.101 0.354,-0.152C0.353,-0.189 0.353,-0.22 0.353,-0.244C0.353,-0.256 0.352,-0.273 0.35,-0.296C0.349,-0.302 0.346,-0.309 0.342,-0.317C0.338,-0.325 0.333,-0.326 0.326,-0.32C0.321,-0.316 0.317,-0.311 0.314,-0.306C0.308,-0.297 0.303,-0.289 0.3,-0.281C0.29,-0.257 0.275,-0.222 0.254,-0.173C0.25,-0.163 0.242,-0.145 0.231,-0.119C0.222,-0.095 0.214,-0.077 0.208,-0.063C0.201,-0.045 0.191,-0.031 0.179,-0.02C0.172,-0.012 0.164,-0.008 0.156,-0.005C0.132,0.001 0.107,0.002 0.081,-0.003C0.071,-0.005 0.062,-0.009 0.055,-0.017C0.048,-0.025 0.044,-0.035 0.044,-0.045L0.041,-0.095L0.041,-0.204Z" style="fill:rgb(112,112,112);fill-rule:nonzero;"/>
                    </g>
                    <g transform="matrix(724.109,0,0,724.109,4767.24,9029.47)">
                        <path d="M0.332,-0.335C0.332,-0.335 0.332,-0.335 0.333,-0.335L0.334,-0.335C0.331,-0.366 0.329,-0.388 0.328,-0.403C0.327,-0.41 0.325,-0.415 0.322,-0.419C0.316,-0.426 0.31,-0.426 0.305,-0.421C0.297,-0.413 0.291,-0.406 0.289,-0.402C0.27,-0.368 0.254,-0.332 0.241,-0.292C0.239,-0.289 0.239,-0.281 0.238,-0.27C0.238,-0.264 0.241,-0.258 0.246,-0.252C0.254,-0.244 0.264,-0.239 0.276,-0.239C0.289,-0.238 0.299,-0.241 0.309,-0.249C0.323,-0.26 0.331,-0.275 0.332,-0.294L0.332,-0.335ZM0.458,-0.101L0.458,-0.059C0.457,-0.052 0.456,-0.044 0.454,-0.034C0.451,-0.021 0.442,-0.012 0.429,-0.006C0.41,0.001 0.391,0.002 0.371,-0.004C0.354,-0.008 0.342,-0.019 0.337,-0.036C0.336,-0.038 0.335,-0.042 0.334,-0.047C0.333,-0.052 0.332,-0.056 0.331,-0.059C0.327,-0.071 0.323,-0.079 0.321,-0.083C0.311,-0.099 0.296,-0.108 0.276,-0.109C0.253,-0.11 0.23,-0.11 0.21,-0.109C0.186,-0.107 0.167,-0.097 0.154,-0.077C0.147,-0.066 0.141,-0.056 0.137,-0.048C0.132,-0.04 0.126,-0.031 0.119,-0.023C0.11,-0.013 0.099,-0.007 0.085,-0.004C0.065,0.001 0.045,0.001 0.025,-0.003C0.006,-0.008 -0.002,-0.021 0,-0.04C0.002,-0.048 0.005,-0.056 0.009,-0.066C0.017,-0.084 0.033,-0.121 0.059,-0.179C0.064,-0.189 0.073,-0.21 0.087,-0.24C0.098,-0.266 0.107,-0.287 0.114,-0.302C0.121,-0.316 0.131,-0.339 0.144,-0.369C0.157,-0.398 0.167,-0.421 0.174,-0.436C0.209,-0.515 0.237,-0.577 0.257,-0.622C0.262,-0.631 0.268,-0.644 0.277,-0.662C0.288,-0.684 0.305,-0.697 0.328,-0.701C0.355,-0.707 0.38,-0.707 0.404,-0.701C0.42,-0.698 0.431,-0.687 0.438,-0.669C0.439,-0.664 0.441,-0.658 0.441,-0.652C0.443,-0.623 0.444,-0.598 0.446,-0.576L0.446,-0.537C0.446,-0.5 0.447,-0.474 0.448,-0.458C0.449,-0.453 0.449,-0.428 0.45,-0.386C0.45,-0.347 0.451,-0.32 0.452,-0.306C0.452,-0.299 0.453,-0.271 0.454,-0.22C0.454,-0.182 0.455,-0.157 0.456,-0.146C0.456,-0.144 0.457,-0.129 0.457,-0.101L0.458,-0.101Z" style="fill:rgb(112,112,112);fill-rule:nonzero;"/>
                    </g>
                    <g transform="matrix(724.109,0,0,724.109,5167.99,9029.47)">
                        <path d="M0.379,-0.486C0.376,-0.505 0.374,-0.515 0.374,-0.516C0.37,-0.532 0.36,-0.546 0.346,-0.558C0.33,-0.57 0.313,-0.576 0.294,-0.577C0.267,-0.578 0.246,-0.566 0.233,-0.541C0.231,-0.536 0.229,-0.53 0.227,-0.522C0.219,-0.487 0.213,-0.461 0.209,-0.444C0.206,-0.426 0.203,-0.409 0.201,-0.393C0.198,-0.376 0.203,-0.362 0.214,-0.352C0.224,-0.343 0.237,-0.339 0.251,-0.34C0.27,-0.341 0.288,-0.346 0.303,-0.354C0.351,-0.381 0.376,-0.424 0.379,-0.486ZM0.232,-0.701C0.258,-0.701 0.281,-0.7 0.302,-0.698C0.34,-0.695 0.371,-0.687 0.396,-0.672C0.436,-0.653 0.465,-0.626 0.481,-0.593C0.492,-0.574 0.5,-0.55 0.504,-0.521C0.508,-0.505 0.509,-0.486 0.506,-0.465C0.502,-0.428 0.492,-0.395 0.478,-0.366C0.461,-0.332 0.436,-0.301 0.404,-0.274C0.396,-0.267 0.391,-0.263 0.388,-0.26C0.376,-0.248 0.37,-0.235 0.371,-0.218C0.371,-0.205 0.372,-0.195 0.374,-0.188C0.375,-0.181 0.382,-0.149 0.396,-0.092C0.401,-0.069 0.403,-0.052 0.402,-0.041C0.402,-0.02 0.392,-0.008 0.373,-0.003C0.353,0.002 0.333,0.001 0.313,-0.007C0.298,-0.012 0.288,-0.024 0.281,-0.042C0.278,-0.05 0.275,-0.063 0.27,-0.083C0.269,-0.088 0.267,-0.096 0.264,-0.107C0.262,-0.118 0.26,-0.126 0.259,-0.132C0.257,-0.139 0.253,-0.152 0.247,-0.173C0.244,-0.181 0.239,-0.189 0.231,-0.196C0.222,-0.204 0.212,-0.208 0.2,-0.208C0.188,-0.207 0.178,-0.203 0.17,-0.194C0.162,-0.187 0.157,-0.179 0.155,-0.172C0.149,-0.153 0.145,-0.136 0.141,-0.122C0.139,-0.115 0.137,-0.102 0.132,-0.083C0.128,-0.068 0.125,-0.055 0.123,-0.045C0.121,-0.039 0.118,-0.033 0.114,-0.026C0.106,-0.014 0.095,-0.007 0.081,-0.004C0.063,0 0.047,0.001 0.033,-0.002C0.011,-0.007 0,-0.021 0,-0.042C-0,-0.056 0.001,-0.069 0.004,-0.083C0.003,-0.078 0.017,-0.146 0.047,-0.287C0.05,-0.299 0.054,-0.317 0.059,-0.341C0.064,-0.366 0.068,-0.384 0.07,-0.396C0.075,-0.419 0.082,-0.45 0.09,-0.488C0.1,-0.536 0.107,-0.567 0.109,-0.58C0.114,-0.603 0.118,-0.623 0.122,-0.639C0.123,-0.643 0.124,-0.647 0.126,-0.652C0.135,-0.682 0.156,-0.698 0.188,-0.701L0.232,-0.701Z" style="fill:rgb(112,112,112);fill-rule:nonzero;"/>
                    </g>
                    <g transform="matrix(724.109,0,0,724.109,5563.08,9029.47)">
                        <path d="M0.29,-0L0.06,-0C0.048,-0 0.039,-0.001 0.031,-0.003C0.011,-0.009 0.001,-0.022 0,-0.043C0,-0.05 0.001,-0.057 0.002,-0.066C0.012,-0.115 0.022,-0.164 0.033,-0.214C0.031,-0.206 0.043,-0.263 0.069,-0.385C0.1,-0.532 0.118,-0.613 0.121,-0.629C0.123,-0.638 0.126,-0.648 0.129,-0.657C0.136,-0.677 0.15,-0.69 0.17,-0.694C0.181,-0.697 0.19,-0.698 0.197,-0.698C0.284,-0.698 0.364,-0.698 0.436,-0.698C0.445,-0.698 0.455,-0.696 0.466,-0.693C0.482,-0.688 0.491,-0.678 0.492,-0.661C0.493,-0.641 0.489,-0.623 0.48,-0.607C0.472,-0.594 0.461,-0.586 0.448,-0.583C0.436,-0.58 0.424,-0.579 0.414,-0.579C0.404,-0.578 0.388,-0.578 0.366,-0.578C0.345,-0.578 0.33,-0.578 0.319,-0.578C0.307,-0.578 0.294,-0.576 0.278,-0.573C0.257,-0.569 0.243,-0.557 0.235,-0.536C0.23,-0.524 0.226,-0.511 0.223,-0.495C0.219,-0.481 0.216,-0.466 0.214,-0.452C0.211,-0.434 0.216,-0.42 0.228,-0.409C0.234,-0.403 0.24,-0.4 0.246,-0.399C0.259,-0.397 0.268,-0.396 0.273,-0.396L0.3,-0.396C0.312,-0.396 0.321,-0.395 0.327,-0.395C0.338,-0.395 0.348,-0.394 0.356,-0.392C0.383,-0.385 0.394,-0.369 0.39,-0.341C0.388,-0.332 0.385,-0.322 0.381,-0.31C0.375,-0.293 0.363,-0.282 0.345,-0.277C0.336,-0.274 0.326,-0.272 0.317,-0.272C0.311,-0.272 0.302,-0.271 0.291,-0.271C0.279,-0.271 0.27,-0.271 0.265,-0.271C0.249,-0.271 0.233,-0.27 0.216,-0.268C0.197,-0.266 0.183,-0.256 0.173,-0.238C0.162,-0.219 0.156,-0.196 0.156,-0.169C0.155,-0.144 0.168,-0.129 0.193,-0.123C0.202,-0.121 0.211,-0.121 0.222,-0.121C0.232,-0.12 0.248,-0.12 0.268,-0.12L0.313,-0.12C0.324,-0.12 0.333,-0.119 0.34,-0.117C0.362,-0.111 0.372,-0.098 0.371,-0.076C0.37,-0.059 0.366,-0.044 0.358,-0.031C0.35,-0.016 0.338,-0.007 0.323,-0.004C0.313,-0.002 0.302,-0 0.29,-0Z" style="fill:rgb(112,112,112);fill-rule:nonzero;"/>
                    </g>
                    <g transform="matrix(724.109,0,0,724.109,5906.19,9029.47)">
                        <path d="M0.273,-0.695C0.294,-0.696 0.314,-0.693 0.335,-0.687C0.377,-0.675 0.408,-0.653 0.428,-0.623C0.434,-0.613 0.44,-0.604 0.444,-0.593C0.452,-0.574 0.448,-0.557 0.433,-0.542C0.419,-0.528 0.402,-0.518 0.383,-0.512C0.362,-0.506 0.346,-0.51 0.333,-0.525C0.329,-0.531 0.324,-0.537 0.317,-0.543C0.306,-0.556 0.295,-0.564 0.286,-0.569C0.265,-0.578 0.245,-0.577 0.226,-0.566C0.207,-0.555 0.196,-0.537 0.194,-0.512C0.193,-0.493 0.2,-0.474 0.215,-0.456C0.226,-0.443 0.241,-0.429 0.26,-0.415C0.289,-0.394 0.312,-0.376 0.329,-0.362C0.347,-0.347 0.362,-0.33 0.375,-0.312C0.391,-0.286 0.399,-0.258 0.4,-0.227C0.401,-0.202 0.399,-0.178 0.392,-0.154C0.386,-0.129 0.375,-0.106 0.358,-0.084C0.331,-0.048 0.293,-0.023 0.245,-0.009C0.224,-0.003 0.204,-0 0.184,-0C0.151,0.001 0.121,-0.007 0.093,-0.022C0.065,-0.037 0.04,-0.058 0.016,-0.085C0.004,-0.098 -0.001,-0.111 0,-0.125C0.001,-0.134 0.003,-0.14 0.007,-0.146C0.02,-0.162 0.036,-0.173 0.057,-0.18C0.067,-0.183 0.076,-0.182 0.083,-0.176C0.096,-0.165 0.105,-0.158 0.109,-0.153C0.127,-0.135 0.148,-0.124 0.173,-0.12C0.203,-0.115 0.229,-0.123 0.25,-0.143C0.266,-0.158 0.275,-0.176 0.276,-0.196C0.278,-0.216 0.272,-0.236 0.257,-0.254C0.248,-0.265 0.236,-0.276 0.221,-0.289C0.213,-0.295 0.201,-0.304 0.186,-0.316C0.17,-0.329 0.158,-0.338 0.15,-0.344C0.124,-0.366 0.105,-0.388 0.092,-0.411C0.078,-0.434 0.071,-0.461 0.069,-0.489C0.067,-0.527 0.076,-0.564 0.095,-0.599C0.114,-0.633 0.143,-0.659 0.182,-0.677C0.209,-0.69 0.24,-0.696 0.273,-0.695Z" style="fill:rgb(112,112,112);fill-rule:nonzero;"/>
                    </g>
                    <g transform="matrix(724.109,0,0,724.109,6459.49,9029.47)">
                        <path d="M0.332,-0.335C0.332,-0.335 0.332,-0.335 0.333,-0.335L0.334,-0.335C0.331,-0.366 0.329,-0.388 0.328,-0.403C0.327,-0.41 0.325,-0.415 0.322,-0.419C0.316,-0.426 0.31,-0.426 0.305,-0.421C0.297,-0.413 0.291,-0.406 0.289,-0.402C0.27,-0.368 0.254,-0.332 0.241,-0.292C0.239,-0.289 0.239,-0.281 0.238,-0.27C0.238,-0.264 0.241,-0.258 0.246,-0.252C0.254,-0.244 0.264,-0.239 0.276,-0.239C0.289,-0.238 0.299,-0.241 0.309,-0.249C0.323,-0.26 0.331,-0.275 0.332,-0.294L0.332,-0.335ZM0.458,-0.101L0.458,-0.059C0.457,-0.052 0.456,-0.044 0.454,-0.034C0.451,-0.021 0.442,-0.012 0.429,-0.006C0.41,0.001 0.391,0.002 0.371,-0.004C0.354,-0.008 0.342,-0.019 0.337,-0.036C0.336,-0.038 0.335,-0.042 0.334,-0.047C0.333,-0.052 0.332,-0.056 0.331,-0.059C0.327,-0.071 0.323,-0.079 0.321,-0.083C0.311,-0.099 0.296,-0.108 0.276,-0.109C0.253,-0.11 0.23,-0.11 0.21,-0.109C0.186,-0.107 0.167,-0.097 0.154,-0.077C0.147,-0.066 0.141,-0.056 0.137,-0.048C0.132,-0.04 0.126,-0.031 0.119,-0.023C0.11,-0.013 0.099,-0.007 0.085,-0.004C0.065,0.001 0.045,0.001 0.025,-0.003C0.006,-0.008 -0.002,-0.021 0,-0.04C0.002,-0.048 0.005,-0.056 0.009,-0.066C0.017,-0.084 0.033,-0.121 0.059,-0.179C0.064,-0.189 0.073,-0.21 0.087,-0.24C0.098,-0.266 0.107,-0.287 0.114,-0.302C0.121,-0.316 0.131,-0.339 0.144,-0.369C0.157,-0.398 0.167,-0.421 0.174,-0.436C0.209,-0.515 0.237,-0.577 0.257,-0.622C0.262,-0.631 0.268,-0.644 0.277,-0.662C0.288,-0.684 0.305,-0.697 0.328,-0.701C0.355,-0.707 0.38,-0.707 0.404,-0.701C0.42,-0.698 0.431,-0.687 0.438,-0.669C0.439,-0.664 0.441,-0.658 0.441,-0.652C0.443,-0.623 0.444,-0.598 0.446,-0.576L0.446,-0.537C0.446,-0.5 0.447,-0.474 0.448,-0.458C0.449,-0.453 0.449,-0.428 0.45,-0.386C0.45,-0.347 0.451,-0.32 0.452,-0.306C0.452,-0.299 0.453,-0.271 0.454,-0.22C0.454,-0.182 0.455,-0.157 0.456,-0.146C0.456,-0.144 0.457,-0.129 0.457,-0.101L0.458,-0.101Z" style="fill:rgb(112,112,112);fill-rule:nonzero;"/>
                    </g>
                    <g transform="matrix(724.109,0,0,724.109,6860.24,9029.47)">
                        <path d="M0.566,-0.65C0.564,-0.633 0.563,-0.624 0.563,-0.623C0.556,-0.59 0.546,-0.545 0.534,-0.488C0.52,-0.423 0.511,-0.378 0.505,-0.352C0.5,-0.325 0.491,-0.283 0.479,-0.227C0.467,-0.171 0.458,-0.129 0.452,-0.101C0.45,-0.09 0.446,-0.074 0.441,-0.053C0.44,-0.047 0.438,-0.041 0.436,-0.036C0.431,-0.025 0.424,-0.016 0.413,-0.01C0.397,0 0.379,0.003 0.359,-0.003C0.339,-0.008 0.324,-0.02 0.316,-0.037C0.311,-0.046 0.307,-0.058 0.303,-0.071C0.298,-0.089 0.29,-0.115 0.28,-0.15C0.27,-0.185 0.262,-0.211 0.257,-0.229C0.249,-0.254 0.24,-0.284 0.229,-0.317C0.227,-0.324 0.224,-0.33 0.219,-0.336C0.215,-0.341 0.21,-0.344 0.206,-0.344C0.201,-0.343 0.197,-0.341 0.193,-0.335C0.188,-0.327 0.183,-0.317 0.18,-0.305C0.176,-0.295 0.173,-0.281 0.169,-0.264C0.165,-0.246 0.16,-0.222 0.154,-0.191C0.147,-0.157 0.142,-0.133 0.139,-0.119C0.136,-0.102 0.131,-0.08 0.125,-0.052C0.121,-0.038 0.114,-0.026 0.103,-0.016C0.094,-0.007 0.084,-0.003 0.074,-0.002C0.064,-0.001 0.051,-0.001 0.035,-0.001C0.031,-0.002 0.026,-0.003 0.021,-0.005C0.007,-0.012 0,-0.022 0,-0.035C0,-0.052 0.001,-0.064 0.002,-0.071C0.004,-0.079 0.016,-0.139 0.04,-0.249C0.043,-0.268 0.049,-0.293 0.055,-0.323C0.063,-0.362 0.068,-0.387 0.071,-0.398C0.075,-0.419 0.08,-0.441 0.084,-0.462C0.101,-0.543 0.112,-0.594 0.117,-0.615C0.118,-0.617 0.121,-0.63 0.127,-0.655C0.131,-0.667 0.139,-0.678 0.152,-0.689C0.155,-0.692 0.159,-0.694 0.162,-0.695C0.184,-0.702 0.205,-0.701 0.223,-0.693C0.239,-0.687 0.25,-0.674 0.257,-0.655C0.263,-0.638 0.269,-0.618 0.276,-0.596C0.282,-0.574 0.291,-0.545 0.302,-0.509C0.314,-0.466 0.323,-0.437 0.327,-0.422C0.328,-0.417 0.332,-0.408 0.336,-0.394C0.34,-0.385 0.345,-0.378 0.352,-0.372C0.36,-0.366 0.367,-0.367 0.373,-0.374C0.379,-0.381 0.383,-0.389 0.386,-0.398C0.391,-0.417 0.393,-0.428 0.394,-0.43C0.396,-0.442 0.403,-0.474 0.414,-0.524C0.423,-0.563 0.429,-0.595 0.435,-0.619C0.438,-0.636 0.442,-0.649 0.446,-0.66C0.456,-0.685 0.475,-0.699 0.501,-0.699C0.513,-0.7 0.522,-0.699 0.528,-0.699C0.552,-0.697 0.565,-0.684 0.566,-0.66L0.566,-0.65L0.566,-0.65Z" style="fill:rgb(112,112,112);fill-rule:nonzero;"/>
                    </g>
                    <g transform="matrix(724.109,0,0,724.109,7283.61,9029.47)">
                        <path d="M0.392,-0.442C0.391,-0.445 0.391,-0.451 0.391,-0.458C0.39,-0.466 0.389,-0.472 0.389,-0.476C0.387,-0.504 0.379,-0.528 0.365,-0.547C0.352,-0.568 0.335,-0.581 0.314,-0.586C0.288,-0.593 0.267,-0.587 0.25,-0.569C0.242,-0.56 0.236,-0.551 0.234,-0.542C0.227,-0.517 0.223,-0.5 0.221,-0.49C0.197,-0.379 0.177,-0.289 0.163,-0.22C0.159,-0.199 0.156,-0.182 0.157,-0.169C0.157,-0.155 0.164,-0.144 0.175,-0.136C0.184,-0.129 0.194,-0.126 0.208,-0.127C0.226,-0.129 0.244,-0.134 0.26,-0.144C0.295,-0.165 0.325,-0.198 0.348,-0.245C0.374,-0.298 0.389,-0.364 0.392,-0.442ZM0.093,-0C0.068,-0 0.054,-0 0.052,-0C0.042,-0.001 0.033,-0.003 0.024,-0.005C0.01,-0.01 0.002,-0.02 0.001,-0.035C-0,-0.044 -0,-0.052 0.001,-0.058C0.006,-0.086 0.013,-0.118 0.02,-0.154C0.028,-0.189 0.037,-0.236 0.049,-0.294C0.064,-0.365 0.074,-0.412 0.079,-0.434C0.083,-0.452 0.09,-0.484 0.099,-0.528C0.107,-0.568 0.114,-0.6 0.119,-0.623C0.122,-0.637 0.125,-0.649 0.127,-0.659C0.13,-0.669 0.134,-0.677 0.137,-0.683C0.147,-0.7 0.16,-0.71 0.177,-0.713C0.188,-0.714 0.192,-0.715 0.189,-0.715C0.226,-0.717 0.257,-0.717 0.28,-0.713C0.336,-0.706 0.369,-0.699 0.379,-0.692C0.401,-0.686 0.421,-0.674 0.439,-0.658C0.464,-0.637 0.48,-0.618 0.488,-0.601C0.509,-0.567 0.52,-0.537 0.52,-0.512C0.531,-0.469 0.535,-0.438 0.531,-0.418C0.531,-0.389 0.526,-0.353 0.517,-0.311C0.506,-0.256 0.491,-0.215 0.472,-0.186C0.431,-0.099 0.37,-0.045 0.287,-0.024C0.255,-0.013 0.231,-0.007 0.216,-0.007C0.203,-0.003 0.175,-0.001 0.131,-0L0.093,-0Z" style="fill:rgb(112,112,112);fill-rule:nonzero;"/>
                    </g>
                    <g transform="matrix(724.109,0,0,724.109,7886.05,9029.47)">
                        <path d="M0,-0.239C0.004,-0.334 0.019,-0.418 0.046,-0.492C0.064,-0.542 0.086,-0.583 0.112,-0.615C0.144,-0.654 0.179,-0.681 0.218,-0.694C0.239,-0.702 0.26,-0.706 0.28,-0.707C0.315,-0.708 0.344,-0.705 0.367,-0.696C0.394,-0.686 0.417,-0.67 0.435,-0.648C0.448,-0.632 0.457,-0.617 0.463,-0.603C0.466,-0.595 0.469,-0.585 0.469,-0.573C0.47,-0.558 0.464,-0.546 0.452,-0.537C0.437,-0.525 0.421,-0.517 0.403,-0.511C0.381,-0.504 0.363,-0.51 0.35,-0.53C0.34,-0.545 0.334,-0.554 0.333,-0.555C0.327,-0.562 0.321,-0.568 0.315,-0.572C0.297,-0.586 0.277,-0.587 0.255,-0.578C0.244,-0.573 0.235,-0.566 0.227,-0.559C0.212,-0.544 0.2,-0.527 0.189,-0.507C0.168,-0.467 0.151,-0.413 0.138,-0.347C0.129,-0.302 0.126,-0.263 0.127,-0.229C0.128,-0.206 0.131,-0.185 0.138,-0.167C0.147,-0.146 0.161,-0.133 0.18,-0.126C0.2,-0.12 0.219,-0.123 0.238,-0.136C0.243,-0.139 0.25,-0.145 0.258,-0.153C0.261,-0.155 0.265,-0.159 0.271,-0.166C0.277,-0.171 0.281,-0.175 0.285,-0.178C0.3,-0.192 0.317,-0.194 0.334,-0.187C0.351,-0.18 0.366,-0.167 0.38,-0.15C0.389,-0.14 0.39,-0.127 0.385,-0.112C0.383,-0.106 0.38,-0.1 0.376,-0.095C0.361,-0.075 0.344,-0.058 0.325,-0.043C0.286,-0.015 0.243,-0 0.194,-0C0.161,0 0.133,-0.005 0.11,-0.015C0.07,-0.032 0.041,-0.062 0.023,-0.103C0.007,-0.14 -0.001,-0.185 0,-0.239Z" style="fill:rgb(112,112,112);fill-rule:nonzero;"/>
                    </g>
                    <g transform="matrix(724.109,0,0,724.109,8239.78,9029.47)">
                        <path d="M0.187,-0.001C0.15,-0 0.116,-0.009 0.085,-0.026C0.04,-0.052 0.013,-0.091 0.003,-0.145C-0.002,-0.172 -0.001,-0.201 0.005,-0.232C0.024,-0.32 0.035,-0.374 0.04,-0.396C0.055,-0.467 0.066,-0.519 0.072,-0.549C0.079,-0.58 0.085,-0.611 0.092,-0.64C0.097,-0.659 0.105,-0.673 0.117,-0.683C0.122,-0.687 0.126,-0.69 0.129,-0.691C0.153,-0.7 0.175,-0.7 0.197,-0.693C0.208,-0.689 0.216,-0.68 0.219,-0.667C0.222,-0.657 0.221,-0.646 0.219,-0.634C0.206,-0.574 0.2,-0.544 0.2,-0.544C0.197,-0.527 0.19,-0.495 0.179,-0.447C0.17,-0.406 0.164,-0.374 0.159,-0.35C0.151,-0.314 0.143,-0.276 0.135,-0.235C0.131,-0.214 0.13,-0.195 0.133,-0.18C0.136,-0.159 0.147,-0.142 0.166,-0.131C0.172,-0.127 0.18,-0.125 0.189,-0.124C0.214,-0.12 0.236,-0.128 0.255,-0.146C0.269,-0.161 0.279,-0.178 0.286,-0.197C0.294,-0.221 0.3,-0.243 0.305,-0.263C0.305,-0.267 0.315,-0.314 0.335,-0.405C0.358,-0.515 0.374,-0.59 0.383,-0.629C0.385,-0.639 0.388,-0.649 0.393,-0.66C0.4,-0.679 0.413,-0.69 0.433,-0.695C0.446,-0.698 0.462,-0.699 0.479,-0.696C0.48,-0.696 0.484,-0.695 0.488,-0.693C0.504,-0.688 0.512,-0.677 0.512,-0.661C0.512,-0.645 0.511,-0.632 0.509,-0.623C0.51,-0.624 0.496,-0.559 0.469,-0.428C0.465,-0.414 0.46,-0.389 0.454,-0.355C0.447,-0.324 0.442,-0.299 0.438,-0.282C0.42,-0.196 0.401,-0.139 0.383,-0.111C0.367,-0.088 0.351,-0.069 0.335,-0.054C0.323,-0.043 0.314,-0.035 0.308,-0.031C0.276,-0.007 0.235,0.003 0.187,-0.001Z" style="fill:rgb(112,112,112);fill-rule:nonzero;"/>
                    </g>
                    <g transform="matrix(724.109,0,0,724.109,8624.26,9029.47)">
                        <path d="M0.379,-0.486C0.376,-0.505 0.374,-0.515 0.374,-0.516C0.37,-0.532 0.36,-0.546 0.346,-0.558C0.33,-0.57 0.313,-0.576 0.294,-0.577C0.267,-0.578 0.246,-0.566 0.233,-0.541C0.231,-0.536 0.229,-0.53 0.227,-0.522C0.219,-0.487 0.213,-0.461 0.209,-0.444C0.206,-0.426 0.203,-0.409 0.201,-0.393C0.198,-0.376 0.203,-0.362 0.214,-0.352C0.224,-0.343 0.237,-0.339 0.251,-0.34C0.27,-0.341 0.288,-0.346 0.303,-0.354C0.351,-0.381 0.376,-0.424 0.379,-0.486ZM0.232,-0.701C0.258,-0.701 0.281,-0.7 0.302,-0.698C0.34,-0.695 0.371,-0.687 0.396,-0.672C0.436,-0.653 0.465,-0.626 0.481,-0.593C0.492,-0.574 0.5,-0.55 0.504,-0.521C0.508,-0.505 0.509,-0.486 0.506,-0.465C0.502,-0.428 0.492,-0.395 0.478,-0.366C0.461,-0.332 0.436,-0.301 0.404,-0.274C0.396,-0.267 0.391,-0.263 0.388,-0.26C0.376,-0.248 0.37,-0.235 0.371,-0.218C0.371,-0.205 0.372,-0.195 0.374,-0.188C0.375,-0.181 0.382,-0.149 0.396,-0.092C0.401,-0.069 0.403,-0.052 0.402,-0.041C0.402,-0.02 0.392,-0.008 0.373,-0.003C0.353,0.002 0.333,0.001 0.313,-0.007C0.298,-0.012 0.288,-0.024 0.281,-0.042C0.278,-0.05 0.275,-0.063 0.27,-0.083C0.269,-0.088 0.267,-0.096 0.264,-0.107C0.262,-0.118 0.26,-0.126 0.259,-0.132C0.257,-0.139 0.253,-0.152 0.247,-0.173C0.244,-0.181 0.239,-0.189 0.231,-0.196C0.222,-0.204 0.212,-0.208 0.2,-0.208C0.188,-0.207 0.178,-0.203 0.17,-0.194C0.162,-0.187 0.157,-0.179 0.155,-0.172C0.149,-0.153 0.145,-0.136 0.141,-0.122C0.139,-0.115 0.137,-0.102 0.132,-0.083C0.128,-0.068 0.125,-0.055 0.123,-0.045C0.121,-0.039 0.118,-0.033 0.114,-0.026C0.106,-0.014 0.095,-0.007 0.081,-0.004C0.063,0 0.047,0.001 0.033,-0.002C0.011,-0.007 0,-0.021 0,-0.042C-0,-0.056 0.001,-0.069 0.004,-0.083C0.003,-0.078 0.017,-0.146 0.047,-0.287C0.05,-0.299 0.054,-0.317 0.059,-0.341C0.064,-0.366 0.068,-0.384 0.07,-0.396C0.075,-0.419 0.082,-0.45 0.09,-0.488C0.1,-0.536 0.107,-0.567 0.109,-0.58C0.114,-0.603 0.118,-0.623 0.122,-0.639C0.123,-0.643 0.124,-0.647 0.126,-0.652C0.135,-0.682 0.156,-0.698 0.188,-0.701L0.232,-0.701Z" style="fill:rgb(112,112,112);fill-rule:nonzero;"/>
                    </g>
                    <g transform="matrix(724.109,0,0,724.109,9019.35,9029.47)">
                        <path d="M0.055,-0C0.041,-0.002 0.034,-0.003 0.034,-0.003C0.01,-0.008 -0.002,-0.024 0,-0.048C0.001,-0.056 0.002,-0.066 0.004,-0.077C0.01,-0.101 0.017,-0.137 0.028,-0.187C0.038,-0.235 0.046,-0.271 0.051,-0.296C0.054,-0.308 0.058,-0.327 0.063,-0.351C0.067,-0.376 0.071,-0.394 0.074,-0.407C0.084,-0.456 0.097,-0.516 0.112,-0.585C0.114,-0.597 0.119,-0.619 0.127,-0.652C0.13,-0.665 0.137,-0.677 0.148,-0.686C0.149,-0.686 0.149,-0.687 0.15,-0.687C0.151,-0.688 0.151,-0.688 0.151,-0.688C0.161,-0.696 0.175,-0.701 0.194,-0.701C0.214,-0.702 0.228,-0.699 0.239,-0.692C0.247,-0.686 0.252,-0.679 0.254,-0.668C0.256,-0.659 0.256,-0.649 0.253,-0.638C0.241,-0.577 0.233,-0.54 0.23,-0.527C0.226,-0.507 0.221,-0.481 0.214,-0.45C0.205,-0.406 0.2,-0.381 0.198,-0.373C0.164,-0.212 0.148,-0.135 0.149,-0.142C0.147,-0.131 0.142,-0.108 0.134,-0.072C0.135,-0.074 0.133,-0.069 0.13,-0.055C0.121,-0.02 0.099,-0.001 0.063,-0L0.055,-0C0.055,-0 0.055,-0 0.055,-0Z" style="fill:rgb(112,112,112);fill-rule:nonzero;"/>
                    </g>
                    <g transform="matrix(724.109,0,0,724.109,9212.56,9029.47)">
                        <path d="M0.126,-0.213C0.126,-0.2 0.129,-0.185 0.135,-0.168C0.14,-0.156 0.147,-0.145 0.158,-0.137C0.173,-0.125 0.188,-0.12 0.204,-0.123C0.227,-0.125 0.245,-0.134 0.259,-0.149C0.276,-0.168 0.289,-0.187 0.299,-0.208C0.31,-0.233 0.319,-0.258 0.327,-0.283C0.347,-0.354 0.356,-0.42 0.354,-0.481C0.353,-0.498 0.35,-0.514 0.345,-0.529C0.338,-0.549 0.325,-0.564 0.307,-0.572C0.284,-0.582 0.261,-0.579 0.238,-0.563C0.22,-0.549 0.206,-0.534 0.194,-0.515C0.176,-0.485 0.161,-0.447 0.149,-0.401C0.133,-0.342 0.126,-0.291 0.126,-0.247L0.126,-0.213ZM0.479,-0.466C0.477,-0.37 0.46,-0.28 0.428,-0.196C0.412,-0.155 0.39,-0.118 0.362,-0.084C0.329,-0.044 0.289,-0.018 0.242,-0.007C0.199,0.003 0.159,0.002 0.123,-0.01C0.075,-0.027 0.042,-0.058 0.022,-0.104C0.011,-0.13 0.004,-0.16 0.001,-0.194C-0,-0.21 0.001,-0.245 0.004,-0.298C0.007,-0.335 0.015,-0.38 0.029,-0.434C0.042,-0.489 0.063,-0.538 0.092,-0.581C0.122,-0.628 0.158,-0.66 0.199,-0.679C0.219,-0.688 0.241,-0.694 0.265,-0.697C0.284,-0.699 0.304,-0.699 0.327,-0.696C0.369,-0.69 0.404,-0.671 0.432,-0.638C0.452,-0.613 0.466,-0.579 0.475,-0.536C0.477,-0.522 0.479,-0.499 0.479,-0.466Z" style="fill:rgb(112,112,112);fill-rule:nonzero;"/>
                    </g>
                    <g transform="matrix(724.109,0,0,724.109,9598.46,9029.47)">
                        <path d="M0.273,-0.695C0.294,-0.696 0.314,-0.693 0.335,-0.687C0.377,-0.675 0.408,-0.653 0.428,-0.623C0.434,-0.613 0.44,-0.604 0.444,-0.593C0.452,-0.574 0.448,-0.557 0.433,-0.542C0.419,-0.528 0.402,-0.518 0.383,-0.512C0.362,-0.506 0.346,-0.51 0.333,-0.525C0.329,-0.531 0.324,-0.537 0.317,-0.543C0.306,-0.556 0.295,-0.564 0.286,-0.569C0.265,-0.578 0.245,-0.577 0.226,-0.566C0.207,-0.555 0.196,-0.537 0.194,-0.512C0.193,-0.493 0.2,-0.474 0.215,-0.456C0.226,-0.443 0.241,-0.429 0.26,-0.415C0.289,-0.394 0.312,-0.376 0.329,-0.362C0.347,-0.347 0.362,-0.33 0.375,-0.312C0.391,-0.286 0.399,-0.258 0.4,-0.227C0.401,-0.202 0.399,-0.178 0.392,-0.154C0.386,-0.129 0.375,-0.106 0.358,-0.084C0.331,-0.048 0.293,-0.023 0.245,-0.009C0.224,-0.003 0.204,-0 0.184,-0C0.151,0.001 0.121,-0.007 0.093,-0.022C0.065,-0.037 0.04,-0.058 0.016,-0.085C0.004,-0.098 -0.001,-0.111 0,-0.125C0.001,-0.134 0.003,-0.14 0.007,-0.146C0.02,-0.162 0.036,-0.173 0.057,-0.18C0.067,-0.183 0.076,-0.182 0.083,-0.176C0.096,-0.165 0.105,-0.158 0.109,-0.153C0.127,-0.135 0.148,-0.124 0.173,-0.12C0.203,-0.115 0.229,-0.123 0.25,-0.143C0.266,-0.158 0.275,-0.176 0.276,-0.196C0.278,-0.216 0.272,-0.236 0.257,-0.254C0.248,-0.265 0.236,-0.276 0.221,-0.289C0.213,-0.295 0.201,-0.304 0.186,-0.316C0.17,-0.329 0.158,-0.338 0.15,-0.344C0.124,-0.366 0.105,-0.388 0.092,-0.411C0.078,-0.434 0.071,-0.461 0.069,-0.489C0.067,-0.527 0.076,-0.564 0.095,-0.599C0.114,-0.633 0.143,-0.659 0.182,-0.677C0.209,-0.69 0.24,-0.696 0.273,-0.695Z" style="fill:rgb(112,112,112);fill-rule:nonzero;"/>
                    </g>
                </g>
            </g>
        </g>
    </g>
</svg>
