<?xml version="1.0" encoding="UTF-8" standalone="no"?>
<!DOCTYPE svg PUBLIC "-//W3C//DTD SVG 1.1//EN" "http://www.w3.org/Graphics/SVG/1.1/DTD/svg11.dtd">
<svg width="100%" height="100%" viewBox="0 0 920 397" version="1.1" xmlns="http://www.w3.org/2000/svg" xmlns:xlink="http://www.w3.org/1999/xlink" xml:space="preserve" xmlns:serif="http://www.serif.com/" style="fill-rule:evenodd;clip-rule:evenodd;stroke-linejoin:round;stroke-miterlimit:1.41421;">
    <g transform="matrix(1,0,0,1,-1892,0)">
        <g id="Artboard2" transform="matrix(1,0,0,0.494528,-0.328085,85.1362)">
            <rect x="1892.33" y="-172.156" width="919.437" height="802.422" style="fill:none;"/>
            <g transform="matrix(1.04147,0,0,2.10598,2538.81,480.792)">
                <path d="M0,-9.174C-9.673,-14.527 -22.281,-17.418 -31.567,-23.149C-53.668,-36.79 -79.652,-38.83 -104.925,-40.823C-136.085,-43.281 -165.647,-45.238 -196.868,-45.837C-224.655,-46.371 -252.779,-42.067 -279.857,-35.912C-293.937,-32.711 -308.067,-27.109 -321.501,-21.75C-328.88,-18.806 -354.569,-13.194 -356.034,-4.038C-356.634,-0.287 -352.884,-0.241 -350.401,-0.525C-347.155,-0.897 -336.82,-3.497 -334.521,-0.263C-331.87,3.483 -356.327,21.851 -346.19,21.499C-341.675,21.342 -309.307,10.648 -313.577,20.655C-316.262,26.945 -328.723,27.729 -330.368,37.197C-323.703,36.636 -308.471,32.12 -301.905,30.672C-292.192,28.53 -291.716,26.66 -281.749,24.535C-267.531,21.503 -252.876,18.93 -238.593,16.498C-218.486,13.076 -198.457,14.288 -177.975,14.53C-166.128,14.67 -153.635,15.611 -141.792,13.985C-130.442,12.426 -119.141,15.098 -107.516,16.612C-78.168,20.437 -51.506,29.82 -21.943,33.224C-21.258,33.303 -27.342,26.956 -27.759,26.492C-30.051,23.935 -34.309,21.635 -32.199,17.431C-29.985,13.022 -17.743,14.224 -13.593,13.875C-10.44,13.609 -21.978,4.451 -21.965,4.477C-24.723,-0.977 -18.389,-3.524 -14.222,-4.567C-13.077,-4.854 1.786,-8.186 0.853,-8.702C0.569,-8.859 0.285,-9.016 0,-9.174" style="fill:rgb(212,27,27);fill-rule:nonzero;"/>
            </g>
            <g transform="matrix(1.04147,0,0,2.10598,2041.1,-1107.77)">
                <g transform="matrix(0.955906,-0.293674,0.293674,0.955906,0,0)">
                    <text x="-55.062px" y="779.692px" style="font-family:'Haakke-Slanted', 'Haakke';font-size:21.607px;fill:white;">T</text>
                </g>
                <g transform="matrix(0.961394,-0.275176,0.275176,0.961394,0,0)">
                    <path d="M-19.827,765.163C-20.216,765.832 -20.54,766.502 -20.864,767.172C-23.025,771.796 -23.976,776.506 -24.127,778.667C-23.976,778.689 -23.889,778.71 -23.781,778.71C-21.858,778.71 -21.405,775.167 -19.309,774.691C-18.272,775.685 -19.914,779.164 -17.645,779.661C-17.191,778.667 -16.435,779.164 -15.722,777.673C-15.808,775.253 -17.213,772.163 -19.309,772.163C-19.784,772.163 -20.843,773.417 -21.361,773.784C-20.951,771.796 -18.769,767.15 -18.336,765.163C-18.66,765.163 -19.114,764.947 -19.438,764.947C-19.611,764.947 -19.741,764.99 -19.827,765.163Z" style="fill:white;"/>
                </g>
                <g transform="matrix(0.966865,-0.255289,0.255289,0.966865,0,0)">
                    <path d="M3.5,778.053C4.083,779.112 4.796,779.5 5.617,779.5C7.519,779.5 9.55,777.469 10.652,775.093C11.689,772.867 11.711,770.685 9.485,770.685C6.892,770.685 3.349,773.386 1.62,777.102C0.151,780.278 1.685,782.439 4.883,782.439C7.108,782.439 9.55,780.948 9.917,780.3C10.004,780.127 9.896,780.084 9.744,780.062C8.902,780.062 7.324,780.84 5.682,780.84C3.673,780.84 2.311,779.673 3.543,777.059C4.256,775.503 6.806,772.176 8.75,772.176C10.047,772.176 10.068,773.386 9.334,774.985C8.318,777.124 7.648,777.167 6.806,777.167C6.244,777.167 5.769,776.972 5.25,776.972C4.688,776.972 4.148,777.189 3.5,778.053Z" style="fill:white;"/>
                </g>
                <g transform="matrix(0.972907,-0.231196,0.231196,0.972907,0,0)">
                    <path d="M37.764,774.216C36.705,775.642 36.943,775.815 34.998,777.436C34.588,777.997 33.788,778.17 33.594,778.17C30.828,778.17 34.415,773.438 32.405,773.266C31.973,773.266 31.606,774.022 31.433,774.389C30.288,776.874 30.396,779.791 32.34,779.985C29.337,783.075 27.198,783.939 25.577,786.143C25.448,786.295 25.361,786.619 25.469,786.619C26.982,786.619 31.995,781.779 34.199,779.812C36.554,777.976 38.347,776.528 39.32,774.195C39.579,773.503 39.147,773.525 38.952,773.525C38.758,773.525 37.937,773.979 37.764,774.216Z" style="fill:white;"/>
                </g>
                <g transform="matrix(0.977267,-0.212012,0.212012,0.977267,0,0)">
                    <text x="54.843px" y="779.055px" style="font-family:'Haakke-Slanted', 'Haakke';font-size:21.607px;fill:white;">’</text>
                </g>
                <g transform="matrix(0.981177,-0.193111,0.193111,0.981177,0,0)">
                    <text x="74.627px" y="777.742px" style="font-family:'Haakke-Slanted', 'Haakke';font-size:21.607px;fill:white;">r</text>
                </g>
                <g transform="matrix(0.986743,-0.162288,0.162288,0.986743,0,0)">
                    <path d="M118.741,766.112C119.497,764.492 117.596,764.232 116.515,764.232C113.577,764.232 109.191,767.517 107.656,770.779C106.598,773.113 110.033,775.252 112.799,775.252C114.095,775.252 116.796,774.885 117.207,773.977C118.179,771.881 108.996,774.453 109.688,770.585C110.228,769.764 109.882,769.785 111.286,768.662C111.589,769.224 112.518,769.418 113.274,769.418C115.154,769.418 117.92,767.884 118.741,766.112ZM112.669,767.884C112.691,767.733 112.734,767.603 112.799,767.452C113.296,766.371 114.398,765.896 115.413,765.896C115.975,765.896 116.71,766.026 116.515,766.609C116.127,767.776 114.182,768.078 113.253,768.078C112.95,768.078 112.734,768.014 112.669,767.884Z" style="fill:white;"/>
                </g>
                <g transform="matrix(0.993403,-0.114675,0.114675,0.993403,0,0)">
                    <path d="M169.62,751.175C168.064,754.503 163.98,761.374 162.338,764.939C161.387,766.97 161.258,767.921 162.187,767.921C162.662,767.921 162.965,767.467 163.267,766.841C163.505,766.301 163.548,766.02 163.851,765.35C164.369,764.248 165.039,763.319 166.271,763.319C166.487,763.319 166.789,763.362 167.048,763.448C168.669,763.989 165.147,768.937 166.659,769.045C167.005,769.045 168.345,766.906 168.885,765.717C169.922,763.492 169.187,761.893 167.372,761.893C166.876,761.893 166.033,762.217 165.406,762.217C165.233,762.217 165.169,762.13 165.169,761.914C165.752,760.942 168.604,756.102 169.187,755C169.36,754.676 170.052,753.271 170.181,752.969C170.808,751.651 171.219,751.132 169.965,750.959C169.792,750.959 169.706,750.981 169.62,751.175Z" style="fill:white;"/>
                </g>
                <g transform="matrix(0.996373,-0.0850917,0.0850917,0.996373,0,0)">
                    <path d="M203.444,754.261C203.38,752.705 202.623,752.187 201.543,752.187C199.145,752.187 194.715,755.212 193.246,758.366C191.993,761.024 195.277,763.25 197.61,763.25C198.82,763.25 200.592,762.969 200.938,762.169C201.5,760.894 194.305,761.629 195.061,758.626C195.169,758.172 195.039,757.653 196.206,756.854C196.4,757.545 197.762,757.48 198.54,757.48C200.138,757.48 202.494,755.925 203.444,754.261ZM197.697,755.817C197.74,755.665 197.805,755.536 197.87,755.384C198.432,754.369 199.62,753.786 200.484,753.786C201.046,753.786 201.435,754.066 201.457,754.628C200.592,755.622 199.145,756.076 198.323,756.076C197.956,756.076 197.762,755.989 197.697,755.817Z" style="fill:white;"/>
                </g>
                <g transform="matrix(0.998404,-0.0564671,0.0564671,0.998404,0,0)">
                    <text x="225.304px" y="756.491px" style="font-family:'Haakke-Slanted', 'Haakke';font-size:21.607px;fill:white;">r</text>
                </g>
                <g transform="matrix(0.999614,-0.0277777,0.0277777,0.999614,0,0)">
                    <path d="M266.737,740.826C267.494,739.206 265.592,738.946 264.512,738.946C261.573,738.946 257.187,742.231 255.653,745.493C254.594,747.827 258.03,749.966 260.795,749.966C262.092,749.966 264.793,749.599 265.203,748.691C266.176,746.595 256.993,749.167 257.684,745.299C258.224,744.478 257.878,744.499 259.283,743.376C259.585,743.938 260.515,744.132 261.271,744.132C263.151,744.132 265.916,742.598 266.737,740.826ZM260.666,742.598C260.687,742.447 260.731,742.317 260.795,742.166C261.292,741.085 262.394,740.61 263.41,740.61C263.972,740.61 264.706,740.74 264.512,741.323C264.123,742.49 262.178,742.792 261.249,742.792C260.947,742.792 260.731,742.728 260.666,742.598Z" style="fill:white;"/>
                </g>
                <g transform="matrix(0.999921,0.0125699,-0.0125699,0.999921,0,0)">
                    <path d="M307.98,729.438C308.153,729.049 308.326,728.638 308.52,728.185C308.931,727.342 310.011,725.116 310.4,724.274C311.264,722.394 311.783,720.968 310.897,720.968C310.033,720.968 309.406,722.156 309.104,722.783C308.607,723.863 307.958,726.153 307.289,727.623C307.008,728.185 306.77,728.53 306.403,729.092C306.057,729.049 305.603,728.898 305.236,728.898C304.761,728.898 304.523,729.027 304.22,729.675C304.069,730.064 303.918,730.54 304.458,730.54C304.696,730.54 304.977,730.518 305.236,730.518C305.69,730.518 305.992,730.583 305.776,731.015C305.171,732.117 304.458,733.392 303.94,734.559C302.773,737.065 302.578,738.362 304.264,738.362C304.674,738.362 305.106,738.102 305.517,737.238C306.143,735.877 305.668,734.494 306.468,732.808C306.727,732.225 307.159,731.598 307.613,730.95C307.937,731.361 308.693,731.815 309.341,731.815C310.054,731.815 310.638,731.058 310.703,730.972C310.854,730.648 310.659,730 309.298,730C308.542,730 307.894,729.978 307.98,729.438Z" style="fill:white;"/>
                </g>
                <g transform="matrix(0.999505,0.0314662,-0.0314662,0.999505,0,0)">
                    <path d="M331.691,726.678C330.999,726.008 330.113,725.814 329.271,725.9C327.175,726.181 324.949,728.32 324.56,730.2C324.279,731.324 324.668,732.469 326.03,732.296C326.289,732.296 326.764,732.123 327.196,731.95C329.811,730.783 330.999,729.811 331.691,726.678ZM325.792,730.394C326.354,729.206 326.959,727.974 328.882,727.305C329.379,727.153 329.422,727.65 329.444,727.931C329.573,728.99 328.277,730.459 327.175,730.827C326.635,730.999 326.051,730.935 325.792,730.394Z" style="fill:white;"/>
                </g>
                <g transform="matrix(0.998136,0.0610211,-0.0610211,0.998136,0,0)">
                    <text x="358.606px" y="721.766px" style="font-family:'Haakke-Slanted', 'Haakke';font-size:21.607px;fill:white;">h</text>
                </g>
                <g transform="matrix(0.996596,0.0824399,-0.0824399,0.996596,0,0)">
                    <path d="M394.534,705.072C395.29,703.451 393.389,703.192 392.308,703.192C389.37,703.192 384.984,706.476 383.449,709.739C382.391,712.073 385.826,714.212 388.592,714.212C389.888,714.212 392.589,713.844 393,712.937C393.972,710.841 384.789,713.412 385.48,709.544C386.021,708.723 385.675,708.745 387.079,707.621C387.382,708.183 388.311,708.378 389.067,708.378C390.947,708.378 393.713,706.844 394.534,705.072ZM388.462,706.844C388.484,706.692 388.527,706.563 388.592,706.411C389.089,705.331 390.191,704.856 391.206,704.856C391.768,704.856 392.503,704.985 392.308,705.569C391.919,706.736 389.975,707.038 389.046,707.038C388.743,707.038 388.527,706.973 388.462,706.844Z" style="fill:white;"/>
                </g>
                <g transform="matrix(0.994641,0.103386,-0.103386,0.994641,0,0)">
                    <path d="M412.822,702.815C413.406,703.874 414.119,704.263 414.94,704.263C416.841,704.263 418.872,702.232 419.974,699.855C421.011,697.629 421.033,695.447 418.808,695.447C416.215,695.447 412.671,698.148 410.942,701.864C409.473,705.041 411.007,707.201 414.205,707.201C416.431,707.201 418.872,705.71 419.24,705.062C419.326,704.889 419.218,704.846 419.067,704.825C418.224,704.825 416.647,705.602 415.005,705.602C412.995,705.602 411.634,704.436 412.866,701.821C413.579,700.265 416.128,696.938 418.073,696.938C419.369,696.938 419.391,698.148 418.656,699.747C417.641,701.886 416.971,701.929 416.128,701.929C415.566,701.929 415.091,701.735 414.573,701.735C414.011,701.735 413.471,701.951 412.822,702.815Z" style="fill:white;"/>
                </g>
                <g transform="matrix(0.992571,0.121668,-0.121668,0.992571,0,0)">
                    <path d="M444.164,689.019C444.099,687.463 443.343,686.945 442.262,686.945C439.864,686.945 435.434,689.97 433.965,693.124C432.712,695.782 435.996,698.008 438.33,698.008C439.54,698.008 441.312,697.727 441.657,696.927C442.219,695.652 435.024,696.387 435.78,693.384C435.888,692.93 435.759,692.411 436.925,691.612C437.12,692.303 438.481,692.238 439.259,692.238C440.858,692.238 443.213,690.683 444.164,689.019ZM438.416,690.575C438.459,690.423 438.524,690.294 438.589,690.142C439.151,689.127 440.339,688.544 441.204,688.544C441.765,688.544 442.154,688.824 442.176,689.386C441.312,690.38 439.864,690.834 439.043,690.834C438.676,690.834 438.481,690.747 438.416,690.575Z" style="fill:white;"/>
                </g>
                <g transform="matrix(0.990266,0.139185,-0.139185,0.990266,0,0)">
                    <text x="456.502px" y="689.424px" style="font-family:'Haakke-Slanted', 'Haakke';font-size:21.607px;fill:white;">e</text>
                </g>
                <g transform="matrix(0.987727,0.156188,-0.156188,0.987727,0,0)">
                    <path d="M490.558,665.351C488.721,665.351 481.634,678.725 481.007,679.957C480.208,681.686 479.797,683.133 481.115,683.522C482.174,682.55 482.909,681.405 483.471,680.152C484.054,678.898 484.529,677.537 485.221,676.089C485.588,675.29 486.02,674.469 486.56,673.605C487.554,671.617 488.786,670.407 489.715,668.548C489.845,668.289 490.623,667.252 491.033,666.409C491.314,665.804 491.379,665.329 490.839,665.329C490.752,665.329 490.666,665.329 490.558,665.351ZM496.262,665.999C496.197,665.912 496.132,665.869 496.024,665.869C494.728,665.869 489.931,673.842 488.505,676.565C487.77,677.624 486.971,678.898 486.409,680.087C485.653,681.729 485.329,683.198 486.647,683.522C487.641,682.615 488.311,681.534 488.872,680.346C489.391,679.201 489.801,677.904 490.406,676.608C490.925,675.506 491.746,674.015 492.416,672.956C493.431,670.904 494.901,669.197 495.808,667.252C496.003,666.863 496.154,666.474 496.262,665.999Z" style="fill:white;"/>
                </g>
                <g transform="matrix(0.984933,0.172937,-0.172937,0.984933,0,0)">
                    <path d="M515.489,655.796C516.202,654.197 515.208,654.5 514.97,654.5C513.911,654.5 509.568,662.883 507.667,666.168C506.976,667.183 505.917,668.89 505.377,670.057C504.577,671.764 504.08,673.039 505.701,673.341C506.068,673.039 506.306,672.715 506.457,672.369C506.759,671.742 507.17,671.267 507.494,670.554C508.207,669.02 509.612,666.859 510.476,665.001C510.757,664.417 511.686,662.516 512.053,661.889C512.982,659.901 512.982,660.463 513.847,658.605C514.084,658.13 515.402,656.293 515.489,655.796ZM521.755,654.889C517.844,658.562 513.566,665.671 511.232,670.683C510.584,672.066 510.217,673.255 511.47,673.557C512.874,672.455 513.285,671.116 513.998,669.581C514.365,668.804 514.711,667.983 515.121,667.118C515.618,666.016 517.433,663.164 518.298,661.954C519.529,659.75 521.409,657.978 522.403,655.839C522.533,655.558 522.835,654.889 522.598,654.889C522.403,654.889 522.014,655.061 521.82,655.061C521.733,655.061 521.712,655.018 521.755,654.889Z" style="fill:white;"/>
                </g>
                <g transform="matrix(0.982707,0.185165,-0.185165,0.982707,0,0)">
                    <path d="M531.739,663.04C532.56,660.814 531.285,659.712 528.714,659.712C528.411,659.712 528.13,659.777 527.72,659.842C527.18,660.058 527.201,660.058 527.072,660.339C527.028,660.447 526.985,660.576 526.985,660.684C527.093,662.024 526.92,662.089 526.553,663.601C526.186,665.546 526.251,665.524 525.991,666.281C525.537,667.555 523.204,672.115 524.003,673.238C524.673,672.957 525.019,672.525 525.278,671.985C525.775,670.883 526.488,667.793 527.093,666.518C527.201,666.259 527.374,666.021 527.547,665.762C527.655,665.784 527.763,665.784 527.893,665.784C529.384,665.784 530.853,664.984 531.588,663.385C531.652,663.277 531.674,663.169 531.739,663.04ZM527.633,664.185C527.72,663.601 528.022,662.478 528.303,661.873C528.498,661.462 528.606,661.16 529.146,661.16C530.053,661.16 530.658,662.11 530.161,663.169C529.621,664.336 528.39,664.293 527.633,664.185Z" style="fill:white;"/>
                </g>
                <g transform="matrix(0.980805,0.19499,-0.19499,0.980805,0,0)">
                    <text x="539.029px" y="660.998px" style="font-family:'Haakke-Slanted', 'Haakke';font-size:21.607px;fill:white;">p</text>
                </g>
                <g transform="matrix(0.97877,0.204959,-0.204959,0.97877,0,0)">
                    <path d="M564.577,651.165C565.16,648.94 563.432,647.751 560.644,647.751C560.126,647.751 559.78,647.816 559.175,647.967C559.024,648.291 558.765,648.572 558.635,648.832C558.57,648.983 558.549,649.113 558.57,649.242C558.916,650.517 558.786,651.23 558.57,652.721C558.246,652.721 557.922,652.57 557.598,652.57C557.058,652.57 556.539,653.153 556.474,653.304C556.107,654.061 558.527,654.061 558.181,655.703C558.721,656.697 556.021,661.256 557.771,661.753C558.419,661.493 558.765,661.105 558.981,660.651C559.543,659.441 559.175,656.61 559.845,655.184C559.91,655.033 560.018,654.86 560.126,654.709C561.876,654.709 563.561,653.909 564.274,652.354C564.361,652.159 564.512,651.381 564.577,651.165ZM559.975,652.937C559.953,652.159 560.234,650.625 560.493,650.042C560.644,649.739 561.012,649.718 561.271,649.718C562.265,649.718 563.151,651.036 562.632,652.116C562.308,652.851 561.487,652.959 560.709,652.959C560.45,652.959 560.212,652.937 559.975,652.937Z" style="fill:white;"/>
                </g>
                <g transform="matrix(0.977299,0.211864,-0.211864,0.977299,0,0)">
                    <text x="569.557px" y="651.381px" style="font-family:'Haakke-Slanted', 'Haakke';font-size:21.607px;fill:white;">!</text>
                </g>
            </g>
            <g transform="matrix(1.04147,0,0,2.10598,2041.1,-1107.77)">
                <g transform="matrix(1,0,0,1,130.583,582.377)">
                    <path d="M0,-12.086C-1.378,-3.857 -1.501,-0.313 6.268,-2.966C14.037,-5.621 18.272,-17.287 24.866,-17.622C31.459,-17.955 38.599,-18.266 42.331,-15.163C46.065,-12.058 53.671,-9.985 45.824,-4.967C37.972,0.05 20.671,8.838 19.722,20.634C18.772,32.429 27.413,36.317 36.177,36.662C44.939,37.004 45.911,24.617 60.738,24.014C75.567,23.412 84.593,16.073 95.078,14.117C105.564,12.162 106.154,11.001 98.586,7.748C91.02,4.492 92.114,4.535 77.227,6.911C62.338,9.285 49.011,14.089 50.229,10.587C51.444,7.084 55.825,7.256 62.638,0.423C69.454,-6.41 68.825,-4.067 65.495,-18.989C62.167,-33.909 60.015,-35.178 59,-37.583C57.987,-39.99 52.264,-49.09 41.007,-40.656C29.752,-32.222 22.043,-31.339 17.074,-30.351C12.105,-29.362 0,-12.086 0,-12.086" style="fill-rule:nonzero;"/>
                </g>
                <g transform="matrix(1,0,0,1,247.596,602.415)">
                    <path d="M0,-70.627C-4.382,-57.998 -8.655,-53.077 -9.107,-47.778C-9.561,-42.479 -9.904,-44.887 -10.063,-36.591C-10.22,-28.294 -10.035,-17.589 -5.871,-14.802C-1.707,-12.016 3.098,-3.822 2.072,-17.579C1.046,-31.337 0.542,-25.449 1.247,-33.692C1.952,-41.934 -2.155,-51.841 4.042,-47.072C10.238,-42.302 9.642,-41.769 9.736,-36.415C9.828,-31.062 2.725,-25.232 10.717,-28.599C18.712,-31.966 19.149,-24.203 18.712,-31.966C18.273,-39.727 17.476,-36.837 17.979,-42.725C18.483,-48.612 12.243,-59.322 20.815,-50.163C29.389,-41.002 30.639,-49.191 28.241,-33.993C25.841,-18.791 22.767,-21.47 25.389,-13.492C28.009,-5.515 26.859,1.496 33.566,-6.153C40.274,-13.802 39.964,-3.738 41.324,-19.635C42.68,-35.532 42.027,-27.878 41.445,-40.405C40.866,-52.931 42.006,-53.411 36.901,-58.072C31.796,-62.733 36.213,-62.891 25.298,-63.97C14.384,-65.05 15.474,-64.942 11.653,-65.319C7.834,-65.697 4.66,-67.197 3.771,-69.661C2.88,-72.123 0,-70.627 0,-70.627" style="fill-rule:nonzero;"/>
                </g>
                <g transform="matrix(1,0,0,1,220.478,546.985)">
                    <path d="M0,13.337C-0.35,17.959 -4.484,15.607 -8.082,14.297C-11.677,12.987 -9.89,13.807 -11.456,10.016C-13.018,6.225 -11.23,7.045 -6.062,3.839L-0.679,5.97C4.706,8.099 0.347,8.717 0,13.337M5.363,-1.563C1.303,-6.069 -4.174,-13.663 -5.991,-11.449C-14.923,-0.552 -23.293,6.623 -20.415,12.213C-17.538,17.801 -15.159,22.753 -13.609,24.074C-12.059,25.396 -7.232,27 -1.68,26.298C3.871,25.594 8.507,22.437 9.083,14.777C9.66,7.115 9.424,2.942 5.363,-1.563" style="fill-rule:nonzero;"/>
                </g>
                <g transform="matrix(1,0,0,1,339.192,534.52)">
                    <path d="M0,29.953C-2.134,33.184 -3.928,34.079 -7.06,36.544C-10.191,39.008 -10.442,40.761 -16.454,43.938C-22.462,47.114 -24.152,39.648 -24.152,39.648C-24.152,39.648 -22.708,29.716 -24.055,19.914C-24.055,19.914 -18.165,13.726 -12.157,10.55C-6.149,7.372 -4.406,10.659 -2.295,15.205C-0.181,19.749 2.134,26.723 0,29.953M11.785,17.577C8.215,11.589 6.209,-1.316 -1.711,-0.258C-9.632,0.801 -15.671,0.381 -19.77,5.675C-23.866,10.968 -30.045,15.313 -28.686,5.968C-27.329,-3.378 -26.683,-11.649 -26.425,-13.401C-26.172,-15.154 -25.663,-18.657 -26.154,-22.93C-26.64,-27.202 -27.365,-37.497 -33.658,-36.164C-39.956,-34.832 -41.754,15.735 -41.031,26.03C-40.308,36.326 -40.767,35.65 -40.244,43.518C-39.724,51.387 -41.623,60.641 -39.001,61.681C-36.379,62.722 -33.182,67.45 -31.048,64.219C-28.915,60.988 -28.12,59.327 -25.7,57.939C-23.278,56.551 -19.776,55.348 -18.437,53.776C-17.101,52.207 -10.4,55.73 -2.798,49.231C4.802,42.731 11.267,40.23 13.368,33.404C15.47,26.576 15.353,23.564 11.785,17.577" style="fill-rule:nonzero;"/>
                </g>
                <g transform="matrix(1,0,0,1,406.837,605.558)">
                    <path d="M0,-49.136C0,-49.136 9.03,-48.437 15.231,-46.233C21.43,-44.03 20.206,-43.836 19.899,-39.556C19.591,-35.275 18.1,-37.687 12.11,-35.426C6.121,-33.163 7.345,-33.357 1.662,-35.376C-4.022,-37.396 -0.155,-38.53 0,-49.136M18.693,-17.407C16.128,-13.301 20.395,-10.529 12.913,-10.68C5.43,-10.833 7.44,-8.236 2.33,-11.934C-2.779,-15.631 -3.812,-15.998 -3.563,-18.418C-3.315,-20.838 3.709,-22.732 3.709,-22.732C12.531,-26.495 15.439,-24.836 23.096,-30.267C30.747,-35.7 37.315,-39.637 35.362,-44.095C33.409,-48.552 25.507,-57.632 13.184,-58.876C0.86,-60.12 -7.464,-61.196 -11.233,-51.875C-15.005,-42.553 -14.754,-44.974 -16.344,-38.639C-17.933,-32.307 -22.566,-12.001 -18.548,-6.81C-14.529,-1.618 -12.96,3.955 -6.111,7.645C0.739,11.335 4.548,12.06 9.697,8.873C14.845,5.685 18.442,1.947 19.591,-1.408C20.737,-4.763 24.262,-11.665 23.15,-15.195C22.041,-18.726 21.255,-21.513 18.693,-17.407" style="fill-rule:nonzero;"/>
                </g>
                <g transform="matrix(1,0,0,1,157.129,616.027)">
                    <path d="M0,85.537C-0.312,84.121 -0.244,82.707 0.205,81.294L0.329,81.003C-1.709,75.924 -1.515,71.054 4.315,69.156C16.616,65.15 18.347,68.474 18.959,64.388C19.572,60.299 30.293,59.4 18.428,56.787C6.561,54.17 12.803,53.435 6.561,54.17C0.324,54.906 -9.883,61.099 -14.883,46.482C-22.946,22.899 -8.099,17.224 -6.193,23.081C-4.285,28.938 3.554,38.954 4.316,41.297C5.079,43.641 0.378,47.115 5.079,43.641C9.778,40.167 12.557,32.783 12.557,32.783C10.282,23.808 5.828,20.074 2.152,16.737C-1.527,13.399 -23.017,-13.509 -28.521,-6.534C-34.024,0.44 -48.121,1.726 -42.618,22.609C-37.114,43.491 -25.683,66.485 -19.554,81.33C-14.888,92.627 -10.481,93.959 -4.127,99.046C-3.911,98.554 -3.699,98.061 -3.479,97.57C-3.379,97.326 -3.285,97.075 -3.179,96.835C-3.101,96.658 -3.009,96.5 -2.924,96.333C-1.662,93.521 -0.416,90.705 0.503,87.791C0.174,87.083 0,86.333 0,85.537" style="fill-rule:nonzero;"/>
                </g>
                <g transform="matrix(1,0,0,1,189.746,672.098)">
                    <path d="M0,-24.95C-0.262,-6.431 0.073,4.722 -0.323,9.634C-0.721,14.547 -2.049,15.675 3.428,16.735C8.905,17.796 13.769,18.804 14.413,10.824C15.058,2.842 14.128,-0.941 12.533,-4.16C10.938,-7.378 9.148,-8.143 9.03,-14.331C8.912,-20.521 6.753,-24.404 11.15,-25.285C15.549,-26.165 21.273,-28.174 23.53,-25.52C25.787,-22.864 25.173,-22.915 27.232,-17.804C29.291,-12.695 32.926,-11.781 32.926,-11.781C32.926,-11.781 40.195,-9.958 40.177,-17.377C40.156,-24.794 42.515,-23.367 37.485,-29.954C32.454,-36.541 34.693,-41.304 25.95,-40.156C17.204,-39.01 18.115,-42.644 14.084,-38.644C10.051,-34.643 9.853,-32.187 7.695,-36.07C5.538,-39.953 12.025,-43.754 4.507,-42.507C-3.009,-41.261 -3.059,-40.647 -3.406,-36.35C-3.754,-32.052 0,-24.95 0,-24.95" style="fill-rule:nonzero;"/>
                </g>
                <g transform="matrix(1,0,0,1,239.697,673.21)">
                    <path d="M0,-34.775C-1.041,-21.879 -2.666,-17.067 -0.341,-7.61C1.986,1.849 3.728,3.225 4.708,6.394C5.688,9.563 11.115,11.238 11.709,3.871C12.307,-3.498 11.128,-4.211 10.347,-9.836C9.564,-15.462 10.674,-21.551 10.259,-24.057C9.843,-26.564 18.935,-32.008 16.412,-39.011C13.889,-46.013 0,-34.775 0,-34.775" style="fill-rule:nonzero;"/>
                </g>
                <g transform="matrix(1,0,0,1,238.962,618.93)">
                    <path d="M0,-9.601C0,-9.601 -7.599,0.291 -1.509,1.401C4.582,2.512 2.741,2.362 8.267,2.809C13.792,3.256 22.754,7.071 19.615,0.018C16.479,-7.035 18.004,-10.619 13.14,-11.631C8.279,-12.64 4.279,-16.672 2.138,-13.136L0,-9.601Z" style="fill-rule:nonzero;"/>
                </g>
                <g transform="matrix(1,0,0,1,323.183,672.152)">
                    <path d="M0,-51.741C-0.1,-50.868 -3.157,-28.484 -5.317,-16.145C-7.56,-3.346 -9.358,3.189 -4.116,2.711C1.126,2.236 3.532,14.402 3.56,0.352C3.589,-13.695 8.111,-20.923 8.765,-23.298C9.42,-25.674 6.712,-32.004 8.122,-34.81C9.53,-37.618 20.292,-40.542 20.536,-28.841C20.75,-18.622 21.024,-21.475 21.381,-11.155C21.736,-0.833 16.152,-1.297 20.148,0.441C24.143,2.181 24.899,1.749 29.547,1.11C34.193,0.472 38.456,3.563 39.986,-4.324C41.515,-12.209 42.867,-12.476 42.228,-17.124C41.592,-21.772 43.327,-25.765 39.782,-33.77C36.232,-41.774 35.756,-47.016 31.599,-48.159C27.442,-49.303 33.172,-51.559 23.286,-50.447C13.395,-49.333 12.845,-45.011 11.181,-50.579C9.516,-56.148 8.494,-57.07 8.39,-59.014C8.286,-60.959 10.35,-66.143 5.643,-62.965C0.936,-59.788 0.668,-61.139 -0.801,-55.793C-2.272,-50.448 -0.1,-50.868 -0.1,-50.868L0,-51.741Z" style="fill-rule:nonzero;"/>
                </g>
                <g transform="matrix(1,0,0,1,480.918,699.527)">
                    <path d="M0,-53.332C-8.647,-56.179 -5.254,-56.978 -16.538,-54.668C-27.827,-52.359 -32.444,-57.029 -33.176,-47.96C-33.911,-38.892 -32.763,-39.336 -30.266,-35.912C-27.767,-32.488 -22.427,-29.91 -17.679,-26.84C-12.933,-23.77 -9.625,-23.503 -12.854,-17.859C-16.086,-12.213 -14.138,-8.834 -20.205,-9.324C-26.269,-9.814 -29.448,-11.683 -32.456,-15.685C-35.463,-19.687 -35.411,-27.199 -40.588,-24.933C-45.766,-22.667 -48.478,-23.423 -46.371,-15.2C-44.259,-6.974 -46.758,-10.397 -41.76,-3.551C-36.767,3.296 -38.46,3.697 -32.354,3.655C-26.244,3.61 -1.596,0.77 -1.922,-8.923C-2.249,-18.613 -1.655,-19.103 -4.573,-24.169C-7.496,-29.239 -8.382,-31.996 -10.414,-34.308C-12.448,-36.619 -17.41,-37.02 -14.395,-39.998C-11.379,-42.975 -10.061,-45.555 -6.373,-43.109C-2.689,-40.663 -6.028,-47.375 -2.689,-40.663C0.655,-33.949 1.629,-32.261 4.688,-35.772C7.746,-39.282 8.253,-38.704 8.049,-43.017C7.841,-47.33 0,-53.332 0,-53.332" style="fill-rule:nonzero;"/>
                </g>
                <g transform="matrix(1,0,0,1,406.141,621.89)">
                    <path d="M0,45.89C-2.296,52.727 -2.733,47.63 -7.714,49.672C-12.695,51.715 -11.462,50.177 -15.282,49.83C-19.105,49.484 -18.017,51.57 -19.273,51.053C-20.531,50.533 -20.92,49.555 -18.916,39.32C-16.914,29.087 -14.933,27.447 -14.933,27.447C-14.933,27.447 -12.95,25.808 -10.583,25.146C-8.21,24.484 -10.583,25.146 -8.527,24.355C-6.471,23.563 -7.271,24.874 -0.472,28.085C6.325,31.297 1.007,31.151 2.748,35.556C4.491,39.96 2.291,39.053 0,45.89M36.236,3.08C38.995,-4.318 41.966,-11.104 39.708,-14.672C37.446,-18.241 39.578,-26.681 32.616,-19.664C25.654,-12.646 27.972,-20.011 25.175,-9.955C22.378,0.096 21.728,-4.378 20.603,2.411C19.478,9.199 13.866,8.02 12.698,11.494C11.535,14.968 10.757,17.286 7.332,17.191C3.906,17.099 7.955,18.767 -1.662,14.803C-11.277,10.84 -7.347,11.142 -11.277,10.84C-15.211,10.536 -15.675,13.64 -15.675,13.64C-15.675,13.64 -23.658,11.669 -27.273,20.727C-30.886,29.785 -35.324,29.273 -33.994,39.051C-32.664,48.828 -32.119,52.351 -25.808,57.586C-19.5,62.824 -15.097,68.594 -8.872,67.207C-2.645,65.818 3.821,67.163 4.477,63.479C5.138,59.797 11.441,56.461 9.696,61.674L7.945,66.885C7.945,66.885 8.921,72.571 11.916,70.508C14.915,68.442 15.69,66.124 17.048,62.07C18.411,58.015 19.574,54.541 22.88,44.696C26.181,34.849 25.078,33.894 27.095,26.157C29.116,18.419 33.162,11.32 36.236,3.08" style="fill-rule:nonzero;"/>
                </g>
                <g transform="matrix(1,0,0,1,281.967,661.842)">
                    <path d="M0,-33.878L5.008,-37.574L11.541,-35.061C11.541,-35.061 15.214,-32.133 16.155,-28.313C17.091,-24.492 14.219,-26.548 11.365,-26.132C8.51,-25.717 0.732,-26.071 0.732,-26.071L-0.995,-28.292C-0.995,-28.292 -1.245,-31.717 0,-33.878M-0.062,-17.223C11.985,-18.723 31.139,-15.938 31.683,-22.692C32.229,-29.446 32.478,-32.517 25.47,-38.027C18.465,-43.538 22.959,-53.063 8.244,-46.218C-6.47,-39.373 -7.16,-40.046 -12.348,-31.195C-17.534,-22.344 -18.375,-21.175 -18.772,-16.263C-19.168,-11.35 -18.931,4.118 -14.834,8.775C-10.739,13.432 -0.768,19.185 3.083,17.641C6.935,16.099 10.836,13.94 13.305,11.05C15.776,8.157 20.516,4.833 20.765,1.766C21.012,-1.306 25.559,-11.444 17.806,-7.745C10.053,-4.046 12.324,-4.48 6.303,-3.73L0.279,-2.981L-6.681,-9.107L-9.937,-14.932C-9.937,-14.932 -12.109,-15.725 -0.062,-17.223" style="fill-rule:nonzero;"/>
                </g>
                <g transform="matrix(1,0,0,1,362.398,548.814)">
                    <path d="M0,-18.677C-5.359,-13.211 -10.866,-13.097 -5.256,-7.271C0.352,-1.445 4.413,3.061 9.183,-1.863C13.952,-6.787 17.052,-4.145 15.31,-10.228C13.569,-16.313 14.467,-20.978 10.097,-21.359C5.728,-21.738 0,-18.677 0,-18.677" style="fill-rule:nonzero;"/>
                </g>
                <g transform="matrix(1,0,0,1,361.453,611.512)">
                    <path d="M0,-54.51C-0.177,-30.206 -5.625,-23.561 -4.518,-16.346C-3.411,-9.131 -18.292,-8.646 -3.411,-9.131C11.473,-9.617 13.14,4.763 14.556,-14.096C15.974,-32.954 13.26,-26.072 12.682,-40.358C12.107,-54.644 19.474,-57.564 9.642,-58.418C-0.192,-59.273 0,-54.51 0,-54.51" style="fill-rule:nonzero;"/>
                </g>
                <g transform="matrix(1,0,0,1,355.129,465.183)">
                    <path d="M0,71.1C-1.121,64.082 7.357,46.379 9.201,42.367C11.04,38.354 11.146,36.082 10.599,33.597C10.051,31.111 9.755,29.956 9.172,28.226C8.588,26.498 8.212,26.567 6.255,21.503C4.293,16.44 3.934,19.303 6.514,12.359C9.092,5.418 8.105,4.806 10.673,3.916C13.241,3.026 15.162,0 18.479,1.182C21.801,2.366 26.243,7.473 25.357,8.721C24.472,9.969 22.413,9.681 20.577,9.56C18.739,9.439 17.945,7.832 16.754,9.847C15.563,11.86 14.67,15.028 14.67,15.028C14.67,15.028 19.189,16.7 20.145,16.148C21.103,15.595 19.628,17.036 25.133,12.684C30.635,8.332 25.662,5.745 34.215,7.005C42.77,8.267 45.798,8.584 47.267,11.277C48.737,13.968 49.824,18.649 48.272,19.103C46.717,19.556 45.376,17.676 43.249,16.69C41.119,15.705 39.999,13.993 37.766,15.281C35.533,16.569 35.418,14.128 32.823,18.277C30.229,22.427 29.812,25.175 29.812,25.175C29.812,25.175 28.847,27.647 31.384,25.593C33.926,23.54 34.677,23.403 35.627,22.561C36.577,21.717 35.86,21.097 37.959,20.919C40.056,20.742 39.442,19.77 42.604,21.189C45.767,22.61 48.194,22.539 49.622,25.697C51.049,28.857 54.773,33.344 51.256,32.864C47.737,32.386 47.178,31.531 44.843,30.959C42.51,30.387 44.935,28.105 41.262,30.076C37.587,32.045 38.174,29.642 36.205,32.843C34.234,36.044 33.83,34.949 34.325,35.4C34.822,35.852 33.57,37.459 35.76,36.638C37.953,35.817 34.731,36.494 40.192,34.821C45.653,33.146 46.328,34.233 46.886,35.09C47.449,35.945 50.904,38.23 51.315,39.614C51.729,40.998 51.453,42.927 49.714,42.454C47.977,41.982 48.267,38.424 45.23,40.025C42.193,41.627 39.079,40.031 37.302,42.238C35.521,44.444 38.443,44.823 40.075,45.356C41.706,45.891 42.503,47.497 43.416,47.411C44.331,47.325 46.744,51.094 46.619,54.707C46.492,58.32 44.77,58.429 43.038,58.246C41.309,58.065 42.448,54.016 42.057,53.503C41.669,52.991 38.773,51.563 37.467,51.136C36.163,50.709 32.56,51.165 31.141,52.72C29.724,54.274 26.525,53.611 23.702,52.88C20.877,52.149 20.63,50.818 19.454,51.201C18.273,51.585 17.042,54.065 16.099,55.198C15.156,56.331 21.844,63.61 20.425,65.164C19.008,66.719 10.561,68.045 9.795,67.602C9.029,67.158 2.064,70.489 2.064,70.489L0,71.1Z" style="fill-rule:nonzero;"/>
                </g>
                <g transform="matrix(1,0,0,1,134.164,722.579)">
                    <path d="M0,-33.38C1.022,-31.464 1.939,-29.492 2.747,-27.477C3.801,-24.85 4.68,-22.061 4.463,-19.238C4.246,-16.416 2.72,-13.543 0.116,-12.434C-3.587,-10.857 -7.952,-13.419 -9.993,-16.887C-12.033,-20.356 -12.444,-24.503 -13.286,-28.439C-13.873,-31.184 -14.998,-34.232 -17.616,-35.246C-17.939,-35.371 -18.317,-35.455 -18.618,-35.285C-18.838,-35.161 -18.969,-34.927 -19.089,-34.705C-21.164,-30.857 -23.239,-27.01 -25.314,-23.162C-25.75,-22.355 -26.199,-21.446 -25.967,-20.558C-25.773,-19.82 -25.155,-19.287 -24.693,-18.68C-22.877,-16.288 -23.564,-12.914 -23.08,-9.949C-22.368,-5.59 -18.94,-2.024 -14.933,-0.166C-10.925,1.692 -6.394,2.075 -1.977,2.045C0.126,2.03 2.236,1.927 4.303,1.537C10.537,0.361 16.207,-3.541 19.533,-8.944C22.858,-14.347 23.787,-21.167 22.029,-27.263" style="fill-rule:nonzero;"/>
                </g>
            </g>
        </g>
    </g>
</svg>
