<?xml version="1.0" standalone="no"?>
<!DOCTYPE svg PUBLIC "-//W3C//DTD SVG 1.1//EN" "http://www.w3.org/Graphics/SVG/1.1/DTD/svg11.dtd" >
<svg xmlns="http://www.w3.org/2000/svg">
<metadata>Generated by IcoMoon</metadata>
<defs>
<font id="icomoon" horiz-adv-x="512">
<font-face units-per-em="512" ascent="480" descent="-32" />
<missing-glyph horiz-adv-x="512" />
<glyph unicode="&#x20;" d="" horiz-adv-x="256" />
<glyph unicode="&#xe600;" d="M435.859 243.58c-0.562 8.484-1.219 18.234-1.219 29.406 0 12.148-6.734 22.172-18.469 27.492-9.338 4.229-21.255 5.038-31.986 2.904l-0.107 4.502c-0.041 1.697-0.389 3.312-0.965 4.813 0.844 2.157 1.178 4.548 0.871 7.007-3.001 23.994-18.373 62.296-55.022 85.010l15.022 26.865c3.891 6.945 1.406 15.719-5.531 19.602-7 3.883-15.734 1.391-19.594-5.539l-16.144-28.872c-13.006 4.168-27.854 6.591-44.754 6.591-17.317 0-32.474-2.528-45.703-6.854l-16.281 29.127c-3.883 6.938-12.648 9.422-19.594 5.547-6.945-3.883-9.43-12.656-5.547-19.594l15.253-27.288c-36.237-22.775-51.33-60.789-54.199-84.657-0.211-1.759-0.080-3.475 0.314-5.099-0.212-0.875-0.348-1.782-0.393-2.714-0.006-0.119-0.146-3.111-0.356-8.254-8.955 1.684-18.77 1.26-27.628-0.918-16.969-4.164-27.094-14.281-27.094-27.055 0-2.766-0.195-7.797-0.43-14.25-0.438-12.102-1.055-28.977-1.055-45.57 0-29.031 1.438-56.766 1.484-57.172 0-12.578 7.109-22.766 19.508-27.969 5.875-2.469 12.609-3.641 19.383-3.641 5.447 0 10.917 0.763 15.98 2.214 0.118-3.341 0.191-5.808 0.191-7.198 0-26.161 27.061-38.69 46.344-39.284v-56.169c0-9.859 3.867-18.469 10.891-24.25 5.766-4.719 13.453-7.328 21.664-7.328 18.914 0 33.727 12.734 33.727 28.984v59.093c9.481-0.003 18.086-0.012 28.391-0.038v-56.461c0-9.859 3.875-18.469 10.891-24.234 5.766-4.734 13.453-7.344 21.656-7.344 18.922 0 33.734 12.734 33.734 28.984v58.761l10.062-0.026c22.609 0 33.953 19.75 34.922 38.5l0.163 6.631c3.235-0.591 6.551-0.881 9.853-0.881 7.375 0 14.672 1.391 20.781 3.828 12.375 4.938 19.766 14.344 19.766 25.172 0 11.516 0.359 16.469 0.781 22.125 0.625 8.25 1.328 17.609 1.328 46.57 0.002 5.54-0.404 11.829-0.889 18.931zM257.961 394.564c73.018 0 91.979-54.246 96.305-72.596-63.782 0.238-95.868 1.927-115.594 2.971-15.008 0.781-24.070 1.273-34.281 0.602h-41.906c5.711 20.899 26.366 69.023 95.476 69.023zM113.336 155.893c-5.266 0.422-7.555 2.062-7.82 3.469-0.016 0.281-1.469 28.141-1.469 56.422 0 16.21 0.609 32.695 1.039 44.515 0.188 5.141 0.344 9.445 0.414 12.531 2.641 1.43 8.555 3.25 15.688 2.922 4.354-0.129 7.461-0.965 9.249-1.735-0.485-16.899-0.913-37.625-0.913-58.233 0-19.432 0.464-38.871 0.972-55.067-0.756-0.5-1.479-1.072-2.151-1.729-1.447-1.424-7.751-3.658-15.009-3.095zM355.312 122.314c-0.016-0.109-0.984-10.797-6.062-10.797l-24.219 0.062c-7.609 0-13.829-5.911-14.354-13.387-0.25-1.062-0.396-2.163-0.396-3.301l0.453-69.5c-0.938-1.062-5.172-2.266-8.047-1.188-0.75 0.281-1.062 0.406-1.062 2.359v68.328c0 7.156-5.23 13.081-12.071 14.2-2.353 1.695-5.229 2.709-8.351 2.722-19.703 0.062-32.227 0.062-51.18 0.062-7.953 0-14.398-6.453-14.398-14.406 0-0.436 0.027-0.863 0.065-1.289-0.038-0.426-0.065-0.854-0.065-1.289l0.453-69.5c-0.945-1.062-5.188-2.266-8.062-1.188-0.766 0.297-1.078 0.406-1.078 2.359v68.328c0 2.419-0.603 4.695-1.657 6.697-1.848 5.834-7.302 10.053-13.718 10.053-0.070 0-0.141 0-0.211 0l-11.906-0.125c-7.414 0-18.852 4.5-18.852 10.5 0 2.531-0.203 8.344-0.508 16.453-0.656 17.828-1.766 47.688-1.766 77.312 0 31.562 1.023 63.437 1.688 80.968l45.273 0.016c9.445 0.594 17.422 0.164 31.875-0.594 20.148-1.062 53-2.789 118.469-3.008l1.938-80-2.251-90.847zM406.703 180.221c-0.438-5.797-0.812-10.938-0.859-21.938-2.016-1.125-6.547-2.25-11.953-2.5-4.344 0.037-7.4 0.991-8.915 1.852l1.368 55.516-1.447 60.516c2.932 1.347 8.277 2.503 13.869 1.937 4.344-0.461 6.703-1.82 7.062-2.617 0-11.898 0.688-22.289 1.297-31.328 0.422-6.383 0.812-12.031 0.812-17.008 0.001-27.883-0.656-36.665-1.234-44.43zM305.938 349.416c6.625 0 12.031 5.391 12.031 12.078 0 6.609-5.406 12-12.031 12-6.656 0-12-5.391-12-12 0-6.688 5.343-12.078 12-12.078zM206.305 349.416c6.719 0 12.016 5.391 12.016 12.078 0 6.609-5.297 12-12.016 12-6.688 0-12.031-5.391-12.031-12-0.001-6.688 5.343-12.078 12.031-12.078z" />
<glyph unicode="&#xe601;" d="M270.637 308.367c-25.938 13.602-45.781 15.898-58.977 6.773l-0.008-0.008c-2.43-1.68-4.172-2.906-5.281-7.586-0.305-1.008-0.492-1.984-0.562-3.031-2.023-14.125-0.734-50.633 3.297-157.914 0.016-0.359 0.195-0.641 0.234-0.984 0.109-0.969 0.359-1.859 0.656-2.797 0.281-0.875 0.555-1.703 0.984-2.484 0.422-0.766 0.945-1.422 1.508-2.125 0.633-0.781 1.273-1.484 2.055-2.109 0.305-0.25 0.469-0.609 0.797-0.828 0.57-0.391 1.234-0.562 1.828-0.891 0.453-0.234 0.875-0.484 1.359-0.656 2.297-1.016 4.742-1.719 7.609-1.719 11.484 0 28.391 8.438 58.031 27.906l9.688 6.312c44.766 29.094 63 42.516 63 58.375 0 24.922-56.953 68.407-86.218 83.766zM278.168 190.383l-9.797-6.391c-14.961-9.828-24.703-15.406-31.125-18.672-1.625 45.094-3.438 103.25-3.5 126.219 2.266-0.289 5.062-0.836 9.164-2.281 32.789-11.523 75.367-49.859 83.977-63.672-7.344-8.266-32.813-24.859-48.719-35.203zM487.371 242.781c-1.562 56.344-12.297 151.859-62.109 147.984l-282.727 2.242c-2.32-0.070-4.703-0.094-7.125-0.094l-10.781 0.039c-21.25 0-60.805 0-81.508-42.469-18.492-38.109-30.242-218.773-0.586-271.711 7.961-14.203 17.969-18 24.953-18.688 34.133-3.391 82.344-5.094 143.289-5.094 96.812 0 197.594 4.312 228.281 5.984 52.61 2.893 48.501 174.503 48.313 181.807zM436.34 89.664c-31.75-1.688-130.562-5.875-225.562-5.875-60 0-107.258 1.672-139.836 4.781-24.852 13.875-21.719 208.516-1.922 249.32 11.859 24.328 31.359 26.266 55.609 26.266l10.781-0.039c2.742 0 5.438 0.023 7.477 0.102l282.859-2.258c0.594 0.008 1.719 0.055 2.25 0.109 4.891 0 12.641-9.43 18.891-30.5 24.422-82.273 7.39-227.672-10.547-241.906z" />
<glyph unicode="&#xe602;" d="M476.85 356.339l-6.844 34.977c-0.125 0.617-0.5 1.086-0.688 1.664-0.203 0.609-0.188 1.234-0.469 1.82-0.156 0.336-0.453 0.531-0.641 0.852-0.484 0.844-1.094 1.555-1.734 2.281-0.609 0.695-1.203 1.375-1.938 1.93-0.719 0.547-1.484 0.93-2.281 1.344-0.859 0.422-1.656 0.828-2.578 1.086-0.844 0.234-1.703 0.297-2.594 0.375-0.984 0.086-1.938 0.133-2.938 0.008-0.359-0.039-0.688 0.078-1.031 0.008-0.641-0.125-1.141-0.516-1.734-0.719-0.578-0.195-1.188-0.18-1.75-0.453l-44.484-21.453c-28.094 20.148-81.547 41.867-124.594 7.078-33.078-26.703-40.477-57.375-38.766-79.859-36.32 5.938-112.828 24.094-147.484 74.695-2.086 3.086-5.453 6.555-8.75 9.633-0.906 1.445-2 2.805-3.438 3.891-0.938 0.711-1.93 1.102-2.891 1.688-1.977 1.641-3.391 2.75-3.43 2.781-5.219 3.984-12.172 3.664-17.211-0.062-1.203-0.422-2.438-0.68-3.602-1.312-21.984-12.039-20.891-57.18-19.398-76.023 5.133-64.922 36.242-148.368 106.133-190.696-31.5-6.797-74.195-9.828-92.969-10.516-0.625-0.016-1.156-0.328-1.758-0.422-1.008-0.156-1.984-0.328-2.945-0.703-0.914-0.375-1.688-0.875-2.5-1.406-0.539-0.359-1.164-0.5-1.664-0.938-0.219-0.188-0.297-0.453-0.5-0.641-0.719-0.688-1.234-1.484-1.797-2.312-0.508-0.75-1.047-1.438-1.406-2.25-0.344-0.797-0.484-1.656-0.688-2.516-0.227-0.984-0.461-1.922-0.484-2.938 0-0.281-0.133-0.516-0.125-0.781 0.023-0.672 0.328-1.234 0.438-1.875 0.164-0.938 0.297-1.828 0.648-2.734 0.383-1 0.938-1.844 1.523-2.719 0.328-0.5 0.461-1.078 0.867-1.547 2.289-2.672 48.672-55.078 143.312-55.078 18.859 0 39.633 2.078 62.352 7.047 187.359 41.125 191.828 217.883 190.594 255.532l38.297 38.32c3.393 3.389 4.861 8.24 3.94 12.943zM409.709 320.902c-3.031-3.039-4.547-7.289-4.141-11.562 0.734-7.797 16-191.344-167.711-231.672-72.93-15.938-122.188 1.156-150.047 17.422 32.812 3.016 77.703 9.359 99.203 22.344 4.766 2.875 7.438 8.234 6.883 13.766s-4.25 10.25-9.484 12.125c-79.125 28.264-106.25 110.444-114.242 144.46-9.625 40.977-6.695 70.172-2.867 81.406 1.445-1.406 2.695-2.688 3.195-3.422 53.836-78.617 183.477-89.391 188.977-89.812 0.359-0.023 0.734-0.039 1.094-0.039 4.734 0 9.203 2.336 11.891 6.281 2.906 4.258 3.312 9.742 1.078 14.375-0.172 0.344-16.156 34.844 25.109 68.156 40.547 32.75 93.219-10.664 95.438-12.508 4.312-3.672 10.438-4.445 15.547-1.977l35.703 17.227 1.781-9.141-37.407-37.429z" />
<glyph unicode="&#xe603;" d="M483.345 238.78c-6.406 67.047-40.125 128.336-92.516 168.156-48.734 37.047-109.594 52.43-167 42.281-3.734-0.664-6.875-2.711-8.984-5.516-72.64-0.46-137.765-50.475-169.32-131.96-33.602-86.742-25.031-205 69.828-273.641 38.867-28.172 85.547-42.375 133.195-42.375 41.921 0.016 84.609 11.016 123.359 33.172 78.094 44.688 119.75 123.157 111.438 209.883zM357.595 53.897c-50.422-28.859-108.25-36.328-160.257-22.922 0.836 1.359 1.477 2.875 1.836 4.531l21.773 100.802c17.898-16.328 39.968-25.308 63.21-25.308 0.156 0 0.297 0 0.453 0 38.688 0 72.641 24.012 93.219 68.246 21.375 45.953 13.531 103.692-19.062 142.138-18.422 21.742-60.703 55.022-136.445 33.976-67.344-18.711-95.539-70.012-99.461-111.793-4.867-52.093 27.711-79.716 29.102-80.873 6.070-5 15.016-4.164 20.133 1.867 5.102 6.031 4.328 15.185-1.656 20.341-0.914 0.781-22.305 19.842-18.906 56.264 1.469 15.641 11.477 68.437 78.492 87.062 44.742 12.438 82.648 4.242 106.773-24.235 25.172-29.688 31.453-75.465 14.906-110.996-15.642-33.657-40.095-49.997-67.11-49.997-0.094 0-0.203 0-0.297 0-21.148 0-41.195 10.34-55.468 29.715l19.977 92.192c1.68 7.773-3.258 15.382-11.031 17.062-7.82 1.695-15.438-3.286-17.117-11.051l-16.297-75.287c-1.562-0.297-3.148-0.695-4.664-1.383-7.242-3.281-10.461-11.253-7.18-18.503 1.609-3.562 3.5-6.814 5.352-10.127l-26.844-124.017c-0.133-0.625 0.023-1.204-0.023-1.829-13.617 5.656-26.633 12.875-38.758 21.656-82.438 59.656-89.469 163.484-59.867 239.914 27.272 70.399 82.608 113.548 143.694 113.548 4.875 0 9.789-0.273 14.727-0.836 6.539-0.602 12.633 3.070 14.984 8.938 44.39 3.414 90.062-10.438 127.625-38.984 46-34.969 75.625-88.898 81.281-147.969 7.203-75.157-29.094-143.235-97.094-182.142z" />
<glyph unicode="&#xe604;" d="M482.262 392.601c1.062 17.156-4.125 33.586-13.859 43.945-6.453 6.852-14.5 10.625-22.766 10.625-48.328-0.273-95.562 0.508-141.344 1.273-27.359 0.461-53.344 0.891-77.109 1.039-1.883 0.719-3.93 1.031-6.062 0.891-43.375-2.945-102.281-3.086-141.266-3.18l-6.992-0.023c-0.055 0-0.117 0-0.18 0-9.977 0-21.227-5.547-30.141-14.875-8.375-8.766-12.719-18.875-12.234-27.359-1.352-53.922-0.406-276.844-0.086-350.109l0.086-22.469c0-32.25 23.336-34.766 30.492-34.766h391.102c7.688 0 14.547 2.812 19.812 8.094 10.141 10.203 10.594 25.984 10.578 28.984-0.094 120.734-0.203 351.016-0.031 357.93zM453.48 34.687c-0.031-3.219-1.125-7.609-1.578-8.281h-391.101c-0.375 0-0.672 0.016-0.883 0.016-0.047 0-0.086 0-0.125-0.016-0.266 0.797-0.688 2.578-0.688 5.953l-0.086 22.594c-0.312 73.156-1.266 295.766 0.070 350.367-0.055 4.008 9.117 12.789 13.719 13.055l7.117 0.016c35.344 0.086 86.906 0.219 129.148 2.414 0.453-0.039 0.922-0.062 1.391-0.062 27.938 0 59.594-0.531 93.344-1.094 43.797-0.734 93.5-1.562 141.547-1.234 2.609-0.773 9.062-9.336 8.156-24.086-0.249-4.369-0.077-276.408-0.031-359.642zM148.832 249.749c-7.953 0-14.398-6.445-14.398-14.398v-160.664c0-7.953 6.445-14.406 14.398-14.406s14.398 6.453 14.398 14.406v160.664c0 7.953-6.445 14.398-14.398 14.398zM279.84 247.64l-4.219-0.023c-21.75 0-39.422-17.070-53.031-35.195v22.922c0 7.953-6.445 14.398-14.398 14.398s-14.398-6.445-14.398-14.398v-160.672c0-7.953 6.445-14.406 14.398-14.406s14.398 6.453 14.398 14.406v85.547c0.219 0.312 0.43 0.609 0.641 0.922 0.008 0.016 0.008 0.016 0.016 0.031 1.789 2.578 3.992 6.109 6.562 10.266 9.516 15.391 29.305 47.383 45.812 47.383l4.438 0.023c22.281 0.125 28.969 0.211 31.125-31.016 3.141-46.078 0.016-111.797-0.031-112.453-0.375-7.953 5.75-14.703 13.688-15.078 0.234-0.016 0.484-0.031 0.719-0.031 7.625 0 13.984 6 14.375 13.703 0.125 2.766 3.25 68.047-0.031 115.828-3.97 58.241-37.502 58.030-60.064 57.843zM148.66 317.538c-11.453 0-20.836-9.375-20.836-21.023 0-11.633 9.383-21.039 20.836-21.039 11.555 0 20.867 9.406 20.867 21.039 0 11.648-9.312 21.023-20.867 21.023z" />
<glyph unicode="&#xe605;" d="M268.68 199.812c-13.125 10.141-32.454 19.938-48.844 21.484-0.398 1.609-0.602 3.219-0.562 4.812 0.051 1.702 0.194 6.66 6.887 12.838 17.918 8.055 40.778 25.388 50.020 48.302 8.641 21.617 1.438 47.469-13.164 68.273l39.008 9.008c7.75 1.789 12.594 9.523 10.797 17.273-1.781 7.75-9.672 12.555-17.266 10.789l-40.79-9.422h-20.242c-0.055 0.031-0.102 0.062-0.148 0.094-4.914 3.094-10.961 2.867-15.539-0.094h-20.578c-22.719 0-69.625-18.070-69.625-73.922 0-24.211 10.867-46.422 29.812-60.938 9.976-7.648 21.37-12.496 32.852-14.265-0.513-2.568-0.751-4.971-0.812-7.134-0.227-8.102 1.797-15.586 4.656-22.008-33.398-4.766-86.695-18.75-86.078-59.484 0.273-18.969 7.836-35.297 21.883-47.25 15.883-13.531 39.836-20.844 66.641-20.844 7.367 0 14.945 0.547 22.633 1.672 39.836 5.891 80.993 35.656 78.024 73.438-1.284 16.816-11.784 33.644-29.565 47.378zM157.429 309.25c0 43.188 40.422 45.125 40.828 45.125h26.992c17.414-14.305 30.899-39.633 24.203-56.398-5.925-14.685-22.717-27.378-35.111-32.832-0.874-0.261-1.728-0.611-2.553-1.045-1.112-0.419-2.18-0.776-3.18-1.053-10.094-2.688-22.57 0.406-32.648 8.125-6.921 5.305-18.531 17.297-18.531 38.078zM216.023 107.5c-27.148-3.984-52.586 0.844-66.406 12.594-7.758 6.609-11.602 15.016-11.758 25.75-0.305 19.984 49.727 31.312 83.633 32.672 5.586 0.219 10.516 3.656 12.68 8.766 5.375-2.484 11.234-5.875 16.891-10.25 11.086-8.562 17.821-18.328 18.461-26.812 1.421-18.017-24.087-38.376-53.501-42.72zM482.273 399.453c1 17.195-4.219 33.625-13.953 43.953-6.422 6.812-14.453 10.562-22.688 10.562-48.266-0.297-95.656 0.508-141.469 1.273-27.328 0.461-53.266 0.891-76.977 1.039-1.883 0.711-3.922 1.039-6.062 0.891-43.328-2.945-102.305-3.086-141.336-3.18l-7-0.023c-0.055 0-0.117 0-0.18 0-9.883 0-21.055-5.492-29.914-14.719-8.43-8.773-12.82-18.914-12.383-27.516-1.352-53.922-0.406-276.844-0.086-350.109l0.086-22.469c0-32.234 23.305-34.75 30.445-34.75h391.157c7.672 0 14.5 2.797 19.766 8.078 10.156 10.172 10.625 25.969 10.625 29-0.109 120.47-0.249 350.376-0.031 357.97zM453.539 401.336c-0.312-4.352-0.141-253.117-0.047-359.914 0.016-2.438-1-7.375-1.578-8.203h-391.157c-0.352 0-0.641 0.016-0.852 0.016-0.039 0-0.078 0-0.117-0.016-0.266 0.812-0.68 2.594-0.68 5.938l-0.086 22.594c-0.312 73.156-1.266 295.766 0.070 350.297-0.086 4.023 9.031 12.852 13.641 13.125l7.125 0.016c35.375 0.086 86.992 0.219 129.211 2.414 0.453-0.039 0.914-0.062 1.383-0.062 27.883 0 59.493-0.531 93.227-1.086 43.828-0.734 93.5-1.555 141.672-1.242 2.594-0.783 9.032-9.361 8.188-23.877zM388.477 256.547h-23.391v19.961c0 7.953-6.453 14.398-14.406 14.398s-14.406-6.445-14.406-14.398v-19.961h-23.438c-7.953 0-14.406-6.445-14.406-14.398s6.453-14.398 14.406-14.398h23.438v-27.719c0-7.953 6.453-14.406 14.406-14.406s14.406 6.453 14.406 14.406v27.718h23.391c7.953 0 14.406 6.445 14.406 14.398s-6.453 14.399-14.406 14.399z" />
<glyph unicode="&#xe606;" d="M482.245 393.301c1.141 17.148-3.984 33.609-13.719 44.023-6.469 6.914-14.578 10.727-22.906 10.727l-22.219-0.070c-41.203 0-82.031 0.695-120.141 1.336-33.516 0.57-65.055 1.062-93.672 1.070-30.203-2.078-62.172-2.367-92.219-2.367l-44.711 0.032c-10.008 0-21.305-5.609-30.219-15-8.328-8.773-12.633-18.898-12.141-27.391-1.344-53.938-0.398-277.359-0.086-350.781l0.086-22.484c0-32.266 23.258-34.781 30.383-34.781h391.157c7.719 0 14.594 2.812 19.875 8.141 10.172 10.219 10.578 26.047 10.562 29.031-0.077 121.186-0.171 352.201-0.030 358.514zM453.464 34.676c0.016-2.453-0.969-7.406-1.422-8.25l-135.766-0.188c-0.156 30.531-1.703 61.453-3.281 91.422-1.234 23.344-2.438 47.109-2.984 70.844 13.703-0.375 26.625-0.688 38.359-0.688 9.062 0 17.531 0.172 25.422 0.641 7.938 0.469 13.984 7.297 13.516 15.234s-7.344 13.812-15.234 13.516c-17.203-1.047-38.266-0.562-62.391 0.109 0.062 10.688 0.312 21.344 0.844 31.898l0.281 5.531c0.953 19.641 2.375 49.32 15.719 60.797 12.406 10.633 45.844 14.977 58.297 9.742 7.375-3.055 15.781 0.375 18.859 7.711s-0.375 15.773-7.703 18.852c-23.297 9.75-68.625 2.336-88.219-14.461-22.75-19.562-24.531-56.688-25.719-81.25l-0.266-5.414c-0.547-10.867-0.812-21.773-0.875-32.688-11.984 0.266-24.289 0.484-37.157 0.484-7.953 0-14.398-6.453-14.398-14.406s6.445-14.406 14.398-14.406c12.993 0 25.391-0.219 37.454-0.5 0.547-24.562 1.766-49.031 3.031-73.062 1.562-29.594 3.078-60.125 3.234-89.953l-227.446-0.312c-0.008 0.016-0.922 1.547-0.922 6.516l-0.086 22.609c-0.312 73.312-1.25 296.414 0.070 351.055-0.139 3.921 9.158 12.921 13.673 13.195l10.297 0.016 34.32-0.047c30.562 0 63.125 0.297 93.203 2.398 27.609 0 58.86-0.531 92.204-1.094 38.266-0.656 79.25-1.344 120.625-1.344l21.984 0.102c2.625-0.758 9.109-9.312 8.094-24.344-0.203-4.296-0.062-276.765-0.015-360.265z" />
<glyph unicode="&#xe607;" d="M376.53 342.688c-33.094 0-124.266-131.852-155.109-196.141-15.656 25.203-41.75 66.875-83.391 74.406-7.766 1.406-15.32-3.781-16.734-11.609s3.781-15.312 11.609-16.734c29.281-5.297 51.211-40.594 64.312-61.688 9.773-15.734 15.914-25.609 26.727-25.609 0.719 0 1.453 0.047 2.219 0.125 3.188 0.375 10.977 2.359 14.5 12.781 19.508 58.281 115.336 185.976 137.477 195.758 7.203 0.805 12.797 6.906 12.797 14.312 0 7.953-6.454 14.399-14.407 14.399z" />
<glyph unicode="&#xe608;" d="M367.562 240.812c-38.641 5.414-85.594 3.328-130.992 1.32-31.711-1.398-61.664-2.703-84.875-1.211-7.867 0.508-14.789-5.484-15.312-13.422s5.492-14.797 13.422-15.312c8.023-0.531 16.648-0.734 25.758-0.734 19.086 0 40.273 0.93 62.281 1.906 44.109 1.969 89.719 3.977 125.719-1.062 8.062-1.172 15.156 4.398 16.266 12.266 1.093 7.875-4.391 15.148-12.267 16.249z" />
<glyph unicode="&#xe609;" d="M362.87 326.352l-213.766 0.555-106.898 1.5c-15.469 0.219-27.82 12.93-27.609 28.391 0.219 15.461 12.781 27.148 28.391 27.609l106.594-1.5 213.118-0.555 106.469 0.875c15.969 0.078 28.109-12.305 28.234-27.773 0.125-15.461-12.312-28.102-27.766-28.227l-106.767-0.875zM362.745 195.406l-213.704 0.641-106.734 1.109c-15.469 0.156-27.867 12.828-27.711 28.289 0.156 15.469 12.367 27.719 28.289 27.711l213.141-1.688 106.625-0.062 106.641 0.422c0.031 0 0.078 0 0.109 0 15.422 0 27.938-12.461 28-27.891 0.062-15.469-12.422-28.047-27.891-28.109l-106.765-0.422zM363.167 63.594l-214.133 1.781-106.508 0.266c-15.461 0.031-27.969 12.609-27.93 28.062s12.57 27.938 28 27.938c0.023 0 0.047 0 0.070 0l213.367-0.859 106.915-1.188 105.922 2.047c0.172 0 0.359 0 0.547 0 15.203 0 27.688-12.188 27.984-27.469 0.297-15.453-12-28.234-27.469-28.531l-106.765-2.047z" />
<glyph unicode="&#xe60a;" d="M454.446 236.109c-12.906 66.586-57.688 122.203-119.797 148.773-9.172 3.938-19.703-0.336-23.625-9.469-3.906-9.141 0.328-19.719 9.469-23.625 51.109-21.867 87.984-67.672 98.609-122.516 14.5-75.039-27.859-120.758-54.406-141.336-56.062-43.469-136.898-52.234-201.016-21.797-46.805 22.203-73.648 69.109-73.641 128.703 0.008 65.219 32.914 126.367 80.023 148.711 1.359 0.641 2.344 1.672 3.461 2.586 0.578 0.188 1.18 0.117 1.75 0.367 1.805 0.781 3.641 1.523 5.5 2.211 9.328 3.438 14.094 13.789 10.648 23.117-3.438 9.328-13.773 14.094-23.117 10.648-2.5-0.922-4.977-1.914-7.406-2.977-1.617-0.703-2.867-1.828-4.156-2.898-0.695-0.234-1.422-0.203-2.102-0.523-60.162-28.529-100.592-101.365-100.6-181.24-0.008-72.969 35.211-133.234 94.203-161.234 30.242-14.344 63.586-21.344 96.977-21.344 50.664 0 101.43 16.125 141.539 47.219 56.281 43.624 80.953 107.999 67.687 176.624zM234.735 241.922c0.367-9.695 8.344-16.312 17.969-16.312 0.234 0 0.469 0 0.703 0 9.93 0 17.68 7.758 17.305 17.695-0.297 7.539-2.844 73.039-4.078 85.461-2.547 25.461-2.578 88.273-2.578 88.906 0 9.938-8.062 18.062-18 18.062s-18-7.938-18-17.875c0-2.648 0.031-64.961 2.75-92.203 0.961-9.578 3.156-63.547 3.929-83.734z" />
<glyph unicode="&#xe60b;" d="M430.12 402.939c-6.781 4.195-15.641 2.086-19.828-4.664-4.188-6.766-2.094-15.641 4.672-19.82 15.766-9.758 25.203-26.711 25.234-45.352 0.062-26.398-19.859-38.453-28.422-42.406-20.609-9.516-45.172-6.695-61.172 6.945-13.641 11.688-16.188 26.461-15.922 36.805 0.422 16.562 8.547 33.32 20.688 42.672 6.297 4.852 7.469 13.898 2.609 20.195s-13.875 7.461-20.203 2.617c-19.016-14.664-31.234-39.469-31.891-64.742-0.594-23.453 8.625-44.555 26-59.43 15.094-12.898 34.375-19.578 54.188-19.578 12.703 0 25.625 2.75 37.781 8.367 28.344 13.094 45.219 38.742 45.156 68.609-0.062 28.665-14.593 54.751-38.89 69.782zM383.745 341c0.031 0 0.078 0 0.109 0 7.953 0 14.359 8.153 14.297 16.106l-0.5 65.543c-0.062 7.945-6.703 14.649-14.516 14.118-7.953-0.062-14.359-6.948-14.297-14.901l0.5-64.884c0.063-7.913 6.501-15.982 14.407-15.982zM257.659 207.212c17.086 17.094 26.992 40.407 26.992 65.547 0 51.32-41.718 93.070-92.984 93.070-51.312 0-93.055-41.75-93.055-93.070 0-23.156 8.398-44.891 23.5-61.75-65-30.828-77.75-167.438-79.078-184.281-0.32-4.016 1.047-8.060 3.773-11.013 2.727-2.938 6.562-4.715 10.578-4.715h269.156c0.109 0 0.234 0.074 0.312 0.090 7.953 0 14.406 6.499 14.406 14.452 0 1.266-0.156 2.507-0.469 3.663-1.123 21.797-10.639 140.976-83.131 178.007zM73.402 40c6.328 49 27.311 143.121 71.959 148.137 7.281 0.812 12.639 6.981 12.639 14.31v7.938c0 4.484-1.936 8.719-5.498 11.438-16.039 12.266-25.167 30.836-25.167 50.938 0 35.438 28.866 64.273 64.295 64.273 35.391 0 64.199-28.836 64.199-64.273 0-24.508-13.647-46.5-35.616-57.422-5.594-2.766-8.753-8.812-7.839-14.984 0.906-6.172 5.69-11.060 11.838-12.106 66.594-11.3 82.971-110.249 86.814-148.249h-237.624z" />
<glyph unicode="&#xe60c;" d="M494.495 291.266l-229.969 156.578c-4.969 3.398-11.507 3.344-16.421-0.102l-126.361-88.832-1.326 57.684c-0.18 7.961-6.984 13.656-14.727 14.070-7.953-0.188-14.25-6.781-14.070-14.727l1.77-76.96-26.562-18.673c-0.4-0.244-0.786-0.507-1.159-0.787l-42.89-28.447-5.397-3.421c-6.477-4.422-8.203-13.188-3.953-19.727 0.062-0.102 0.125-0.195 0.188-0.289 4.236-6.188 12.417-8.226 18.84-4.673l0.015-0.022 0.594 0.395c0.179 0.111 0.363 0.209 0.539 0.329l0.625 0.443 26.675 17.713 8.028-210.239c0.266-4.672 0.211-9.188 0.164-13.469-0.242-21.328-0.562-50.531 46.758-55.734 20.453-2.266 53.016-3.859 91.688-4.469 0.078-0.016 0.156-0.016 0.234-0.016 7.844 0 14.266 6.297 14.391 14.172 0.042 2.643-0.643 5.121-1.851 7.27 0.013 0.32 0.032 0.64 0.023 0.965-1.703 63.266-2.469 133.078-1.203 156.562 15.117 1.328 49.843 1.359 82.828 0.531l0.562-156.531c0.003-0.813 0.091-1.596 0.225-2.358-0.612-1.679-0.929-3.497-0.865-5.392 0.266-7.969 7.75-14.047 14.859-13.922 16.078 0.516 34.859-0.109 53-0.719 13.422-0.438 24.938-0.828 34.703-0.828 27.688 0 41.344 3.109 44.516 16.656 8.478 36.124 2.846 202.945 0.047 272.718l29.484-19.702c6.594-4.414 15.578-2.633 19.969 3.977 4.42 6.608 2.638 15.554-3.971 19.976zM422.011 27.141c-10.391-1.234-33.609-0.469-51.297 0.125-13.156 0.431-26.626 0.875-39.401 0.906l-0.599 163.25c-0.031 7.75-6.188 14.094-13.922 14.344-112.914 3.766-117.296-2.234-122.039-8.562-3.385-4.524-7.581-10.126-3.41-170.178-30.391 0.748-55.686 2.13-72.325 3.975-21.398 2.359-21.359 5.609-21.125 26.781 0.055 4.922 0.102 10.094-0.195 15.172l-8.693 227.771 167.49 117.713 162.851-111.499c3.109-71.204 8.551-235.256 2.665-279.798z" />
<glyph unicode="&#xe60d;" d="M173.403 252.327c-9.109 0-17.734 0.219-25.758 0.742-7.93 0.516-13.945 7.375-13.422 15.312 0.523 7.93 7.445 14.039 15.312 13.422 23.211-1.492 53.164-0.188 84.875 1.211 45.398 2 92.352 4.094 130.992-1.32 7.875-1.102 13.359-8.375 12.266-16.25-1.109-7.867-8.203-13.461-16.266-12.266-36 5.039-81.609 3.016-125.719 1.062-22.006-0.976-43.194-1.913-62.28-1.913zM173.442 162.858c-9.125 0-17.766 0.219-25.789 0.734-7.938 0.531-13.953 7.375-13.43 15.312 0.516 7.953 7.445 13.797 15.305 13.438 23.258-1.531 53.203-0.219 84.922 1.203 45.375 2 92.297 4.047 130.938-1.312 7.875-1.094 13.375-8.375 12.281-16.25-1.094-7.859-8.359-13.375-16.25-12.281-36.047 5.016-81.625 3.016-125.695 1.062-22.008-0.968-43.196-1.906-62.282-1.906z" />
<glyph unicode="&#xe60e;" d="M353.25 284.296c-6.719 7.312-18.094 7.788-25.438 1.068-21.312-19.594-37.203-43.555-49.97-62.812-6.562-9.905-15.25-23-20.344-27.702-10.742 6.891-33.056 37.209-46.772 55.857-8.367 11.366-16.728 22.719-24.672 32.647-6.211 7.758-17.531 9.017-25.297 2.812-7.767-6.211-9.023-17.539-2.812-25.297 7.664-9.586 15.711-20.531 23.781-31.5 33.594-45.646 53.703-71.476 76.43-71.476 20.031 0 32.47 18.78 49.703 44.767 12.281 18.547 26.219 39.568 44.328 56.201 7.313 6.73 7.798 18.114 1.063 25.435z" horiz-adv-x="480" />
<glyph unicode="&#xe60f;" d="M410.891 366.992c-9.297 12.398-26.844 14.875-39.203 5.594-45.828-34.398-76.703-68.523-106.562-101.531-6.891-7.602-13.75-14.977-20.641-22.367-10.203 11.188-20.336 22.281-30.242 33.102-26.992 29.484-52.492 57.344-73.141 80.859-10.203 11.625-27.898 12.758-39.508 2.57-11.625-10.195-12.773-27.891-2.57-39.508 21.031-23.961 46.719-52.023 73.914-81.734 10.992-12.008 22.281-24.359 33.625-36.82-11.719-13.391-23.484-27.281-35.047-40.984-26.062-30.891-53.016-62.828-78.086-86.922-11.148-10.719-11.5-28.438-0.781-39.594 5.5-5.719 12.836-8.594 20.188-8.594 6.984 0 13.977 2.594 19.406 7.812 27.172 26.125 55.078 59.188 82.070 91.188 10.281 12.172 20.266 23.984 30.062 35.281 40.281-45 79.375-90.328 109.734-130.578 5.516-7.297 13.891-11.141 22.375-11.141 5.875 0 11.797 1.844 16.844 5.641 12.344 9.312 14.812 26.875 5.5 39.219-32.516 43.109-74.141 91.188-116.609 138.523 8.188 8.719 16.281 17.492 24.422 26.477 28.094 31.039 57.125 63.141 98.672 94.305 12.359 9.28 14.859 26.835 5.578 39.202z" />
<glyph unicode="&#xe610;" d="M364.734 126.895c-6.938 7.406-13.484 16.125-20.422 25.344-10.297 13.703-21 27.641-33.922 38.719 1.078 1.719 2.234 3.359 3.203 5.188 16.312 30.766 14.562 74.703-4.078 102.195-19.297 28.562-52.625 47.016-84.891 47.016-28.617 0-53.023-14.469-68.719-40.742-16.125-26.961-16.711-62.344-1.578-94.633 13.93-29.711 38.383-49.977 65.445-54.211 6.852-1.062 13.547-1.594 19.891-1.594 0.008 0 0.008 0 0.008 0 19.954 0 37.313 5.453 51.157 15.562 10.844-9.047 20.469-21.5 30.469-34.797 7.078-9.438 14.406-19.188 22.406-27.734 2.844-3.031 6.672-4.562 10.516-4.562 3.531 0 7.062 1.297 9.844 3.891 5.796 5.436 6.109 14.545 0.671 20.358zM224.203 184.238c-17.562 2.734-33.938 16.938-43.797 37.969-10.898 23.258-10.82 49.172 0.219 67.633 10.445 17.477 25.656 26.719 44 26.719 22.617 0 47.157-13.805 61.047-34.359 11.047-16.305 15.141-48.688 2.484-72.562-11.39-21.478-33.43-30.212-63.953-25.4z" />
<glyph unicode="&#xe611;" d="M360.388 191.75c34.224 61.132 33.013 128.818-3.208 181.057-25.524 36.856-63.219 60.040-106.128 65.273-48.918 6.004-100.229-11.028-140.776-46.722-5.966-5.25-6.545-14.351-1.292-20.325 0.52-0.592 1.079-1.131 1.668-1.617-56.96-41.628-72.685-113.014-61.75-167.411 13.616-67.717 64.574-112.133 132.98-115.926 23.193-1.307 46.349 2.338 68.353 10.25 14.982 5.389 29.345 12.912 42.889 22.049l104.099-105.383c3.548-3.588 8.751-5.039 13.657-3.855 0 0 1.927 0.461 5.003 1.418 0.19 0.068 0.388 0.121 0.579 0.191l0.014 0.004c1.143 0.379 2.38 0.773 3.718 1.254 16.453 5.918 45.593 20.697 46.151 51.234 0.472 24.594-56.769 79.412-108.736 124.004 0.892 1.536 1.911 2.947 2.779 4.505zM183.489 114.834c-55.521 3.082-95.274 37.785-106.348 92.843-10.256 51.007 7.473 119.866 70.615 150.543 7.15 3.477 10.13 12.094 6.659 19.249-1.438 2.96-3.756 5.208-6.49 6.574 30.66 20.365 65.944 29.575 99.64 25.452 35.134-4.293 64.849-22.649 85.958-53.091 29.806-42.989 30.455-99.285 1.733-150.594-32.297-57.71-93.262-94.279-151.767-90.976zM437.557 63.783c-0.241-12.857-17.33-20.977-26.065-24.252l-95.512 96.697c9.065 8.174 17.527 17.193 25.259 27.049 46.37-40.294 93.624-87.478 96.318-99.494z" />
<glyph unicode="&#xe612;" d="M338.645 248.906c27.047 23.516 42.969 57.672 42.969 94.758 0 69.57-56.547 126.164-126.040 126.164-69.547 0-126.125-56.594-126.125-126.164 0-34.32 13.633-66.336 37.859-89.938-97.93-35.445-116.062-250.336-116.82-260.008-0.32-4.016 1.047-7.969 3.773-10.922 2.727-2.938 6.562-4.625 10.578-4.625h382.321c3.891 0 7.625 1.578 10.328 4.375 2.719 2.797 4.188 6.578 4.062 10.469-0.265 9.047-7.624 206.313-122.905 255.891zM80.707 6.984c8.078 71.391 38.586 214.648 108.641 222.516 7.281 0.82 12.789 6.984 12.789 14.312v11.266c0 4.484-2.086 8.719-5.656 11.438-24.297 18.578-38.234 46.695-38.234 77.148 0 53.688 43.664 97.367 97.328 97.367 53.618 0 97.227-43.68 97.227-97.367 0-37.117-20.672-70.438-53.969-86.953-5.594-2.766-8.766-8.82-7.859-14.992s5.688-11.062 11.844-12.102c102.906-17.477 124.641-173.367 128.938-222.633h-351.049z" />
<glyph unicode="&#xe613;" d="M365.47 241.815c-29.297 4.078-63.422 3.867-98.016 2.656-0.172 4.18-0.297 8.344-0.5 12.57-1.156 23.25-2.359 47.289 1.703 75.93 1.109 7.867-4.359 15.156-12.234 16.273-7.875 1.070-15.164-4.367-16.281-12.242-4.438-31.352-3.18-56.789-1.961-81.391 0.211-4.148 0.328-8.219 0.5-12.32-1.383-0.062-2.766-0.109-4.141-0.172-31.781-1.398-61.812-2.711-85.086-1.203-7.883 0.562-14.789-5.477-15.312-13.422-0.523-7.938 5.484-14.789 13.422-15.312 8.062-0.531 16.742-0.75 25.906-0.75 19.109 0 40.312 0.938 62.336 1.914 1.383 0.062 2.781 0.109 4.164 0.172 0.68-11.961 1.594-24.242 2.625-36.461 1.898-22.344 3.852-45.453 3.477-64.75-0.156-7.953 6.164-14.531 14.117-14.672 0.094-0.016 0.188-0.016 0.281-0.016 7.828 0 14.25 6.266 14.391 14.125 0.406 20.797-1.609 44.672-3.562 67.75-1.047 12.344-1.906 23.969-2.562 35.211 33.188 1.156 65.672 1.352 92.766-2.422 7.922-1.102 15.156 4.414 16.25 12.281 1.092 7.876-4.408 15.15-12.283 16.251z" />
<glyph unicode="&#xe614;" d="M196.369 325.957c-8.062 0-15.055-1.852-20.883-5.562-9-5.828-9.539-6.18-2.289-183.711 0.195-4.688 2.656-8.984 6.609-11.516 3.211-2.078 7.031-3.125 11.352-3.125 8.602 0 23.266 3.578 66.813 30l11.812 7.078c53.719 32.141 74.016 45.891 74.016 62.961 0 31.063-103.344 103.875-147.43 103.875zM254.994 183.84l-11.938-7.156c-21.156-12.844-34.062-19.297-41.734-22.547-1.992 50.891-4.289 118.664-4.242 143.016 33.016-0.781 104.75-54.766 116.75-74.109-8.687-9.204-39.656-27.735-58.836-39.204z" />
<glyph unicode="&#xe615;" d="M255.996 117.635c-7.953 0-14.398-6.453-14.398-14.406v-5.219c0-7.953 6.445-14.406 14.398-14.406s14.406 6.453 14.406 14.406v5.219c0 7.953-6.453 14.406-14.406 14.406zM237.767 240.424c-48.172-6.305-88.867-31.836-114.57-71.899-4.297-6.703-2.352-15.609 4.344-19.906 2.406-1.547 5.094-2.281 7.758-2.281 4.742 0 9.383 2.344 12.133 6.625 21.047 32.797 54.461 53.719 94.078 58.906 45.157 5.945 92.079-8.781 125.532-39.297 5.844-5.359 14.969-4.938 20.344 0.938 5.359 5.875 4.938 14.984-0.938 20.344-39.641 36.172-95.235 53.602-148.681 46.57zM484.291 280.456c-69.172 63.101-166.156 93.476-259.649 81.296-83.82-10.961-154.617-55.312-199.344-124.898-4.297-6.695-2.359-15.602 4.328-19.907 2.414-1.547 5.109-2.281 7.773-2.281 4.742 0 9.375 2.328 12.133 6.609 40.055 62.336 103.57 102.079 178.844 111.922 85.133 11.078 173.524-16.555 236.508-74.023 5.891-5.352 14.984-4.945 20.344 0.938 5.36 5.875 4.938 14.984-0.937 20.344z" />
<glyph unicode="&#xe616;" d="M264.17 291.428c-3.594 2.5-7.891 2.953-11.812 1.906-3.289-0.375-6.492-1.711-8.914-4.336-7.516-8.078-14.75-16.922-13.508-28.297 0.906-8.273 6.188-14.477 12.398-19.656 0.82-16.266 2.242-37.532 3.805-60.875 3.305-49.281 7.414-110.625 7.414-149.719 0-7.953 6.445-14.406 14.398-14.406s14.406 6.453 14.406 14.406c0 40.062-4.156 101.938-7.484 151.656-1.422 21.219-2.719 40.633-3.547 55.954 7.359 7.922 14.266 16.578 13.078 27.703-1.265 11.672-11.109 19.367-20.234 25.664zM317.936 361.717c-7 3.766-15.719 1.172-19.516-5.828-3.781-7-1.172-15.734 5.828-19.516 24.266-13.109 39.297-33.703 42.328-58 3.219-25.82-7.359-52.727-28.297-71.954-5.859-5.391-6.25-14.5-0.875-20.344 2.844-3.094 6.719-4.672 10.609-4.672 3.484 0 6.969 1.266 9.75 3.797 27.766 25.531 41.75 61.688 37.391 96.735-4.203 33.79-24.531 62.126-57.218 79.782zM466.873 288.249c-7.156 57.25-41.75 105.344-97.406 135.43-6.984 3.789-15.734 1.172-19.516-5.812-3.781-7-1.172-15.734 5.828-19.516 47.234-25.547 76.547-65.914 82.516-113.68 6.312-50.43-14.125-102.844-54.672-140.204-5.844-5.391-6.219-14.5-0.828-20.359 2.844-3.078 6.719-4.641 10.594-4.641 3.484 0 6.984 1.266 9.766 3.812 47.359 43.657 71.187 105.329 63.718 164.97zM197.217 353.381c-33.461-17.281-56.461-48.445-61.516-83.367-4.875-33.695 7.203-66.407 34.008-92.094 2.789-2.688 6.375-4.016 9.961-4.016 3.789 0 7.57 1.484 10.398 4.438 5.5 5.75 5.305 14.859-0.438 20.359-19.906 19.094-28.938 42.946-25.422 67.188 3.727 25.734 21.008 48.875 46.227 61.898 7.062 3.648 9.836 12.336 6.188 19.406-3.656 7.056-12.305 9.829-19.406 6.188zM74.061 284.006c7.273 50.312 40.867 95.461 89.867 120.758 7.062 3.648 9.836 12.336 6.188 19.406-3.648 7.062-12.305 9.812-19.406 6.188-57.235-29.563-96.548-82.727-105.149-142.227-8.258-57.078 12.336-112.602 57.992-156.336 2.789-2.672 6.375-4 9.961-4 3.789 0 7.57 1.5 10.398 4.438 5.5 5.75 5.305 14.859-0.438 20.375-38.749 37.109-56.296 83.781-49.413 131.398z" />
<glyph unicode="&#xe617;" d="M476.553 224.883c-15.422 4.891-40.266 15.078-47.219 22.445-5.453 5.797-14.578 6.055-20.359 0.586-5.781-5.461-6.047-14.57-0.578-20.352 0.281-0.289 0.672-0.57 0.969-0.859-33.156 1.234-76.766 0.602-122.594-0.109-41.906-0.633-87.070-1.305-122.070-0.242 12.852 32.977 40.078 80.547 60.672 87.516 19.141 6.492 27.797 6.195 41.992 5.727 6.25-0.227 13.312-0.422 22.078-0.148 0.484-0.688 0.812-1.438 1.344-2.102 6.688-8.414 16.031-13.234 25.625-13.234 4.875 0 9.547 1.219 13.844 3.594 10.047 5.508 15.828 15.086 15.828 26.281 0 8.195-3.109 16.633-8.734 23.766-5.859 7.422-14.781 11.68-24.469 11.68-13.688 0-25.219-8.703-28.891-21.234-5.812-0.062-11.109 0.023-15.641 0.18-15.718 0.523-28.117 0.953-52.226-7.234-36.414-12.32-69.352-77.977-81.477-113.156-9.461 0.828-17.234 1.93-22.539 3.406-1.219 0.344-2.43 0.258-3.641 0.273-6.961 17.203-27.242 27.461-42.758 27.461-0.383 0-2.289-0.070-2.672-0.102-12.43-0.984-23.461-6.633-30.266-15.508-6.32-8.227-8.695-18.742-6.695-29.594 6.773-36.914 32.078-39.789 39.672-39.789 0.008 0 0.008 0 0.008 0 11.047 0 22.398 4.828 31.141 13.234 4.695 4.516 8.289 9.844 10.719 15.516 15.633-3.656 41.43-5.219 72.93-5.719 16.203-63.156 60.633-97.109 132.32-101.141 1.016-4.469 3.281-9.203 8.234-12.906 5.359-4.078 12.141-4.547 16.766-4.547 5.719 0 12.016 0.828 17.578 1.547 3 0.391 5.625 0.781 7.266 0.797 4.531 0.047 8.766 2.297 11.453 5.953 2.688 3.641 3.469 8.422 2.156 12.766-0.969 3.25-1.594 16.891-1.312 29.188 0.094 3.953-1.453 7.781-4.266 10.562-2.828 2.797-6.797 4.109-10.625 4.156l-33.219-1.141c-7.25-0.25-13.188-5.859-13.844-13.094-0.031-0.453-0.188-2.203-0.359-4.547-55.047 3.469-88.226 26.688-102.421 72.219 24.109 0.031 50.25 0.422 76.937 0.828 44.359 0.656 89.781 1.328 122.75 0.047-3.703-3.016-6-7.609-5.391-12.688 0.875-7.312 7.094-12.703 14.281-12.703 0.562 0 1.141 0.031 1.719 0.109 11.234 1.344 41.438 16.797 58.438 25.891 5.109 2.727 8.078 8.258 7.547 14.023-0.548 5.765-4.486 10.648-10.001 12.398zM312.881 340.633c0.391 0 1.359-0.070 1.859-0.719 1.531-1.938 2.531-4.25 1.531-6.977-0.547 0.156-1.906 0.906-3.203 2.664-1.422 1.946-1.812 3.899-0.187 5.032zM76.928 208.117c-3.328-3.195-7.602-5.18-11.172-5.18-7.297 0-10.242 10.141-11.352 16.195-0.531 2.859-0.133 5.102 1.211 6.852 1.828 2.375 5.453 3.992 10.094 4.344 6.414 0 16.625-6.039 16.625-11.055 0-3.781-1.968-7.851-5.406-11.156zM346.49 108.008c-1.5-0.188-3-0.312-4.469-0.422 0.109 0.688 0.406 1.297 0.406 2.016 0 1.594-0.438 3.062-0.922 4.484l4.734 0.156c0.064-2.031 0.142-4.14 0.251-6.234z" />
<glyph unicode="&#xe618;" d="M454.809 300.082l-1.562 8.094c-1.5 7.82-9.047 12.945-16.875 11.414-0.281-0.055-0.5-0.25-0.766-0.32-15.562 3.414-47.297 4.281-118.062 3.195l53.311 116.585c3.312 7.234 0.125 15.781-7.109 19.086-7.25 3.336-15.781 0.133-19.078-7.102l-49.906-109.141-49.876 105.798c-3.391 7.195-11.984 10.297-19.164 6.883-7.195-3.391-10.273-11.969-6.883-19.164l53.625-113.789c-7.328-0.148-14.859-0.312-22.821-0.492-28.070-0.641-56.156-1.273-81.812-1.609-4.117-0.031-8.836 0-13.984 0.055-29.773 0.273-70.562 0.734-92.875-15.617-0.203-0.148-0.289-0.375-0.484-0.531-1.367-0.992-2.695-1.977-3.242-2.469-2.977-2.688-4.695-6.484-4.75-10.492l-2.75-204.469c0-9.922-0.758-20.203-1.555-31.094-1.203-16.469-2.445-33.5-0.969-49.844 0-0.031 0.016-0.047 0.023-0.062 0.102-1.219 0.227-2.453 0.398-3.688 1-7.328 7.258-12.422 14.758-12.438 24.070 0.812 102.883 0.453 179.086 0.078 41.977-0.203 82.618-0.406 113.68-0.406 23.062 0 40.859 0.109 50.016 0.406 3.953 0.109 7.25 0.062 10.156 0.047 6.047-0.016 11.688 0.125 17.297 1.688 0.641 0.156 1.25 0.391 1.859 0.641 3.766 1.312 7.531 3.141 11.422 6.562 0.828 0.734 1.297 1.672 1.922 2.531l1.438 1.047c0.859 0.641 1.656 1.359 2.359 2.156 25.766 29.562 8.61 270.398 3.173 296.461zM404.293 17.729c-21-0.672-93.016-0.312-162.665 0.016-65.227 0.312-132.281 0.609-165.914 0.203-0.211 11.094 0.305 22.609 1.203 34.844 0.797 10.938 1.625 22.234 1.625 33.016l2.648 196.641c16.258 8.805 50.961 8.594 72.359 8.32 5.375-0.055 10.32-0.102 14.656-0.047 25.742 0.336 53.922 0.977 82.086 1.609 14.133 0.32 29.313 0.664 44.672 0.961v0 0c55.953 1.094 114.031 1.625 132.125-1.617 8.844-48.719 14.766-244.165 3.203-268.415l-7.219-5.281c-1.469-0.141-3.562-0.188-7.469-0.188-3.154 0.032-6.841 0.063-11.31-0.062z" />
<glyph unicode="&#xe619;" d="M237.729 389.32c-0.008 0.492-1.281 49.727-26.414 61.055-9.43 4.273-20.781 6.445-33.734 6.445-9.898 0-18.125-1.312-21.352-1.906-20.133-1.016-53.82-20.883-53.812-59.883 0.367-11.789 0.18-49.555 0.008-86.070-0.172-35.586-0.336-69.195-0.008-80.086 0.062-1.852 0.047-3.414 0.039-4.766-0.062-8.398 0.625-15.445 9.828-23.539 5.094-4.406 14.117-8.484 44.742-8.547-0.211-0.984-0.594-1.891-0.594-2.938v-169.312c0-7.953 6.445-14.406 14.398-14.406s14.398 6.453 14.398 14.406v169.313c0 1.359-0.422 2.594-0.773 3.844 17.984 1.016 39.523 3.156 45.797 7.641 8.781 6.25 10.609 7.562 8.102 149.188-0.258 14.827-0.5 28.514-0.625 39.561zM209.697 224.203c-10.852-1.562-32.234-3.398-51.93-3.398-17.055 0-24.227 1.367-26.531 1.992 0.008 0.352 0.016 0.719 0.016 1.117 0.016 1.672 0.023 3.609-0.055 5.875-0.312 10.344-0.141 45.266 0.023 79.031 0.18 36.773 0.367 74.797-0.016 86.664 0 22.664 21.203 30.672 26.625 30.672 1 0 2.039 0.109 3.016 0.32 0.070 0.016 7.43 1.547 16.734 1.547 8.695 0 16.25-1.344 21.562-3.727 3.953-2.867 9.625-21.203 9.789-35.305 0.117-11.086 0.367-24.844 0.625-39.75 0.705-39.78 1.83-103.241 0.142-125.038zM353.455 97.727c1.094 2.031 1.875 4.234 1.875 6.703v219.968c0 2.391-0.719 4.547-1.75 6.531 31.078 13.305 56.625 51.734 56.188 90.445-0.094 7.898-6.531 14.234-14.406 14.234-0.047 0-0.109 0-0.172 0-7.938-0.094-14.312-6.609-14.234-14.562 0.391-33.797-27.766-65.945-49.875-66.203-0.078-0.008-0.156-0.008-0.234-0.008-18.266 0-29.469 25.578-29.984 68.5-0.109 7.961-6.359 13.992-14.578 14.227-7.953-0.094-14.328-6.617-14.234-14.57 0.984-81.219 35.703-95.234 54.844-96.781-0.094-0.617-0.375-1.172-0.375-1.812v-219.969c0-0.781 0.328-1.453 0.438-2.188-19.656-1.797-53.516-15.547-54.891-96.406-0.141-7.953 6.188-14.516 14.141-14.641 0.094-0.016 0.172-0.016 0.25-0.016 7.844 0 14.266 6.297 14.391 14.156 0.734 42.875 12.031 68.375 30.25 68.375 0.094 0 0.203 0 0.312 0 22.094-0.359 50.094-32.656 49.562-66.453-0.141-7.953 6.203-14.5 14.156-14.625 0.078-0.016 0.156-0.016 0.234-0.016 7.844 0 14.266 6.297 14.391 14.172 0.623 38.939-25.033 77.704-56.299 90.939z" />
<glyph unicode="&#xe61a;" d="M428.203 426.434c-0.594 9.148-2.172 33.461-189.664 33.461-162.117 0-162.117-23.078-162.117-35.445l-0.594-319.328c0.18-4.094 0.18-8.359 0.188-12.75 0.039-28.281 0.094-67.031 45.82-87.531 24.625-10.984 95.047-16.734 151.882-16.734 153.312 0 156.703 33.672 157.812 44.75 10.736 108.514-0.077 341.655-3.327 393.577zM403.078 36.465c-2.906-5.078-32.891-19.547-129.359-19.547-66.859 0-124.804 7.391-140.125 14.219-26.781 12-28.734 31.156-28.781 61.266-0.008 4.828-0.016 9.516-0.203 13.328l0.602 313.734c11.703 5.117 53.453 11.633 133.328 11.633 83.96 0 144.679-7.055 161.289-12.695 3.593-61.594 13.218-279.891 3.249-381.938zM261.281 70.934c-10.304 0-18.64-8.359-18.64-18.688 0-10.281 8.336-18.625 18.64-18.625 10.289 0 18.672 8.344 18.672 18.625 0 10.328-8.383 18.688-18.672 18.688zM364.266 120.699l-2.25 251.422c0.891 1.414 1.641 2.953 2 4.688 1.594 7.781-3.406 15.398-11.203 17.008-29.703 6.141-152.46 9.82-200.632 0.008-7.789-1.586-12.82-9.188-11.234-16.984 0.383-1.875 1.164-3.539 2.164-5.039v-251.898c-0.992-1.5-1.75-3.188-2.133-5.062-1.586-7.797 3.445-15.406 11.234-16.984 21.234-4.328 57.953-6 94.812-6 46.179 0 92.57 2.641 108.882 6 7.797 1.609 12.812 9.234 11.203 17.016-0.468 2.231-1.515 4.138-2.843 5.825zM171.907 123.996v243.719c43.852 5.219 124.609 3.562 161.343-0.195l2.172-243.414c-37.594-3.672-119.734-5.251-163.515-0.11z" />
<glyph unicode="&#xe61b;" d="M264.552 0.582c-0.922 0-1.828 0.016-2.734 0.016-104.64 1.469-173.585 41.359-216.968 125.562-51.047 99.188 1.047 214.133 78.898 276.407 6.211 4.969 15.266 3.953 20.234-2.25s3.961-15.266-2.25-20.234c-68.703-54.969-115.242-155.305-71.274-240.735 38.492-74.719 97.641-108.641 191.765-109.938 47.406-1.219 97.859 20.812 135.11 57.516 39.547 38.984 61.328 91.422 61.328 147.649 0 52.742-23.375 101.453-65.844 137.148-6.094 5.117-6.875 14.203-1.75 20.289 5.125 6.109 14.203 6.844 20.281 1.758 49.094-41.266 76.125-97.797 76.125-159.195 0-63.993-24.844-123.711-69.922-168.149-42.561-41.938-98.171-65.844-152.999-65.844zM211.787 78.16c-2.305 0-4.633 0.562-6.766 1.703-5.734 3.047-8.711 9.562-7.266 15.906 7.57 33.281 22.266 98.938 28.852 128.383l-75.961 12.289c-3.938 0.633-7.438 2.875-9.664 6.188-2.227 3.305-2.977 7.391-2.078 11.281 16.094 69.492 42.555 120.938 78.18 186.031 2.844 5.195 8.594 8.086 14.461 7.367l120.398-15.406c4.812-0.609 8.984-3.602 11.109-7.961 2.125-4.352 1.922-9.484-0.547-13.648-13.953-23.602-38.359-69.633-51.812-95.227l77.173-9.945c5.266-0.68 9.734-4.195 11.609-9.164 1.891-4.961 0.891-10.555-2.578-14.562-6.141-7.055-150.415-173.047-174.625-198.704-2.798-2.968-6.61-4.531-10.485-4.531zM170.677 262.379l75.625-12.242c3.914-0.633 7.391-2.852 9.609-6.141 2.218-3.281 3-7.336 2.125-11.211 0 0-10.281-46.079-20-89.329 37.468 42.453 91.781 104.743 119.468 136.54l-70.984 9.148c-4.656 0.602-8.734 3.438-10.922 7.609-2.172 4.164-2.188 9.133-0.016 13.305 1.438 2.758 30.188 58.148 51.344 96.016l-89.281 11.422c-29.546-54.281-52.194-99.351-66.968-155.117z" />
<glyph unicode="&#xe61c;" d="M456.643 266.095c3.172 7.289-0.156 15.773-7.438 18.953-7.219 3.148-15.766-0.133-18.969-7.438-6.219-14.242-14-28.531-22.438-43.273-6.453 14.188-13.375 28.734-21.609 44.258-3.703 7.031-12.422 9.703-19.469 5.977-7.016-3.719-9.703-12.438-5.969-19.461 11.656-21.984 21-42.062 29.281-61.445-11.094-19.281-21.891-39.047-29.938-59.281-2.938-7.391 0.656-15.766 8.047-18.703 1.75-0.703 3.547-1.031 5.328-1.031 5.719 0 11.141 3.438 13.375 9.078 4.734 11.906 10.672 23.891 17.094 35.828 3.078-7.812 6.109-15.609 9.172-23.516l9.203-23.656c2.234-5.656 7.672-9.125 13.406-9.125 1.766 0 3.547 0.328 5.281 1 7.391 2.922 11.031 11.281 8.125 18.688l-9.141 23.484c-5.672 14.672-11.594 29.688-17.938 45.062 0.406 0.688 0.812 1.406 1.219 2.094 11.909 20.429 24.221 41.554 33.378 62.507zM308.158 396.041c-35.078-10.672-131.25-74.070-157.421-92.648-8.453 0.555-16 1.211-22.734 1.797-10.312 0.898-19.211 1.672-26.727 1.672-41.125 0-44.867-28.406-45.891-71.742-0.164-7.219-0.398-13.968-0.625-20.257-1.219-34.711-2.023-57.648 12.547-72.742 9.273-9.609 22.727-13.891 43.617-13.891 10.875 0 24.227 1.156 41.609 3.609 26.031-24.234 110.187-80.516 141.046-80.516 5.281 0 9.828 1.328 13.516 3.953 10.203 7.25 13.016 17.391 16.734 217.25 0.844 44.945 1.641 87.406 2.891 108.898 0.281 4.703-1.766 9.242-5.469 12.156-3.687 2.921-8.608 3.859-13.093 2.461zM295.033 273.056c-1.219-66.218-3.023-162.921-7.125-191.984-28.211 7.781-109.023 61.156-118.398 74.391-2.727 3.844-7.133 6.094-11.766 6.094-0.711 0-1.438-0.062-2.156-0.172-41.055-6.219-61.328-5.703-67.562 0.734-6.078 6.297-5.375 26.344-4.477 51.734 0.219 6.398 0.461 13.257 0.633 20.601 1.023 43.602 4.109 43.602 17.094 43.602 6.266 0 14.195-0.688 24.227-1.562 8.305-0.719 17.805-1.539 28.664-2.172 3.43-0.25 6.766 0.812 9.484 2.859 17.578 13.203 91.953 62.031 133.335 82.859-0.75-22.703-1.312-53.195-1.953-86.984z" />
<glyph unicode="&#xe61d;" d="M258.511 51.322c-30.859 0-115.016 56.281-141.047 80.516-17.383-2.453-30.734-3.609-41.609-3.609-20.891 0-34.344 4.281-43.617 13.891-14.57 15.094-13.766 38.031-12.547 72.742 0.227 6.289 0.461 13.039 0.625 20.257 1.023 43.336 4.766 71.742 45.891 71.742 7.516 0 16.414-0.773 26.727-1.672 6.734-0.586 14.281-1.242 22.734-1.797 26.172 18.578 122.344 81.977 157.422 92.648 4.484 1.398 9.406 0.461 13.094-2.461 3.703-2.914 5.75-7.453 5.469-12.156-1.25-21.492-2.047-63.953-2.891-108.898-3.719-199.859-6.531-210-16.734-217.25-3.689-2.625-8.236-3.953-13.517-3.953zM122.675 161.557c4.633 0 9.039-2.25 11.766-6.094 9.375-13.234 90.188-66.609 118.398-74.391 4.102 29.062 5.906 125.766 7.125 191.984 0.641 33.789 1.203 64.281 1.953 86.984-41.383-20.828-115.758-69.656-133.336-82.859-2.719-2.047-6.055-3.109-9.484-2.859-10.859 0.633-20.359 1.453-28.664 2.172-10.031 0.875-17.961 1.562-24.227 1.562-12.984 0-16.070 0-17.094-43.602-0.172-7.344-0.414-14.203-0.633-20.601-0.898-25.391-1.602-45.438 4.477-51.734 6.234-6.438 26.508-6.953 67.562-0.734 0.719 0.109 1.446 0.172 2.157 0.172zM337.542 174.119c-3.125 0-6.281 1.031-8.938 3.125-6.219 4.938-7.266 14-2.328 20.234 5.891 7.438 5.406 24.102-0.875 29.234-6.156 5.031-7.062 14.102-2.016 20.258 5.031 6.148 14.078 7.070 20.266 2.023 20.234-16.562 19.391-51.515 5.188-69.421-2.844-3.578-7.047-5.453-11.297-5.453zM386.933 143.291c-3.469 0-6.953 1.25-9.719 3.781-5.875 5.359-6.281 14.469-0.906 20.344 15.25 16.672 22.891 41.055 19.953 63.609-2.594 19.859-13.062 36.609-29.484 47.148-6.688 4.297-8.641 13.203-4.344 19.898 4.297 6.672 13.203 8.648 19.906 4.336 23.688-15.203 38.766-39.234 42.484-67.664 4.062-31.203-6.125-63.64-27.266-86.765-2.843-3.109-6.734-4.687-10.624-4.687zM434.479 89.635c-3.469 0-6.938 1.25-9.703 3.766-5.875 5.359-6.297 14.469-0.938 20.344 30.297 33.203 44.875 79.797 39.016 124.625-5.156 39.352-25.922 72.555-58.484 93.477-6.688 4.305-8.625 13.211-4.328 19.898s13.203 8.641 19.891 4.336c39.828-25.594 65.203-66.070 71.469-113.977 6.953-53.14-10.344-108.375-46.281-147.765-2.845-3.11-6.735-4.704-10.642-4.704z" />
<glyph unicode="&#xe61e;" d="M292.116 51.322c-30.859 0-115.015 56.281-141.046 80.516-17.383-2.453-30.734-3.609-41.609-3.609-20.891 0-34.344 4.281-43.617 13.891-14.57 15.094-13.766 38.031-12.547 72.742 0.227 6.289 0.461 13.039 0.625 20.257 1.023 43.336 4.766 71.742 45.891 71.742 7.516 0 16.414-0.773 26.727-1.672 6.734-0.586 14.281-1.242 22.734-1.797 26.172 18.578 122.343 81.977 157.421 92.648 4.484 1.398 9.406 0.461 13.094-2.461 3.703-2.914 5.75-7.453 5.469-12.156-1.25-21.492-2.047-63.953-2.891-108.898-3.719-199.859-6.531-210-16.734-217.25-3.689-2.625-8.236-3.953-13.517-3.953zM156.281 161.557c4.633 0 9.039-2.25 11.766-6.094 9.375-13.234 90.187-66.609 118.398-74.391 4.102 29.062 5.906 125.766 7.125 191.984 0.641 33.789 1.203 64.281 1.953 86.984-41.382-20.828-115.757-69.656-133.335-82.859-2.719-2.047-6.055-3.109-9.484-2.859-10.859 0.633-20.359 1.453-28.664 2.172-10.031 0.875-17.961 1.562-24.227 1.562-12.984 0-16.070 0-17.094-43.602-0.172-7.344-0.414-14.203-0.633-20.601-0.898-25.391-1.602-45.438 4.477-51.734 6.234-6.438 26.508-6.953 67.562-0.734 0.718 0.109 1.445 0.172 2.156 0.172zM371.147 174.119c-3.125 0-6.281 1.031-8.938 3.125-6.219 4.938-7.266 14-2.328 20.234 5.891 7.438 5.406 24.102-0.875 29.234-6.156 5.031-7.062 14.102-2.016 20.258 5.031 6.148 14.078 7.070 20.266 2.023 20.234-16.562 19.391-51.515 5.188-69.421-2.843-3.578-7.047-5.453-11.297-5.453zM420.538 143.291c-3.469 0-6.953 1.25-9.719 3.781-5.875 5.359-6.281 14.469-0.906 20.344 15.25 16.672 22.891 41.055 19.953 63.609-2.594 19.859-13.062 36.609-29.484 47.148-6.688 4.297-8.641 13.203-4.344 19.898 4.297 6.672 13.203 8.648 19.906 4.336 23.688-15.203 38.766-39.234 42.484-67.664 4.062-31.203-6.125-63.64-27.266-86.765-2.843-3.109-6.733-4.687-10.624-4.687z" />
<glyph unicode="&#xe61f;" d="M325.362 51.322c-30.859 0-115.016 56.281-141.047 80.516-17.383-2.453-30.734-3.609-41.609-3.609-20.891 0-34.344 4.281-43.617 13.891-14.57 15.094-13.766 38.031-12.547 72.742 0.227 6.289 0.461 13.039 0.625 20.257 1.023 43.336 4.766 71.742 45.891 71.742 7.516 0 16.414-0.773 26.727-1.672 6.734-0.586 14.281-1.242 22.734-1.797 26.171 18.578 122.343 81.977 157.421 92.649 4.484 1.398 9.406 0.461 13.094-2.461 3.703-2.914 5.75-7.453 5.469-12.156-1.25-21.492-2.047-63.953-2.891-108.898-3.719-199.859-6.531-210-16.734-217.25-3.688-2.626-8.234-3.954-13.516-3.954zM189.526 161.557c4.633 0 9.039-2.25 11.766-6.094 9.375-13.234 90.188-66.609 118.399-74.391 4.102 29.062 5.906 125.766 7.125 191.984 0.641 33.789 1.203 64.281 1.953 86.984-41.383-20.828-115.758-69.656-133.336-82.859-2.719-2.047-6.055-3.109-9.484-2.859-10.859 0.633-20.359 1.453-28.664 2.172-10.031 0.875-17.961 1.562-24.227 1.562-12.984 0-16.070 0-17.094-43.602-0.172-7.344-0.414-14.203-0.633-20.601-0.898-25.391-1.602-45.438 4.477-51.734 6.234-6.438 26.508-6.953 67.562-0.734 0.718 0.109 1.445 0.172 2.156 0.172zM404.394 174.119c-3.125 0-6.281 1.031-8.938 3.125-6.219 4.938-7.266 14-2.328 20.234 5.891 7.438 5.406 24.102-0.875 29.234-6.156 5.031-7.062 14.102-2.016 20.258 5.031 6.148 14.078 7.070 20.266 2.023 20.234-16.562 19.391-51.515 5.188-69.421-2.844-3.578-7.047-5.453-11.297-5.453z" />
<glyph unicode="&#xe620;" d="M287.314-9.969c-11.547 0-20.625 5.484-25.539 15.453-6.476 13.125-11.031 26.875-15.437 40.172l-0.18 0.547c-1.367-0.109-2.68-0.312-4.062-0.516l-4.617-0.594c-10.336-1.172-20.789-0.906-31.164 0.719-1.312-1.594-2.633-3.328-4-5.094-2.406-3.141-4.812-6.25-7.328-9.031l-3.578-4.156c-7.266-8.547-16.312-19.188-27.625-22.734-2.258-0.719-4.648-1.078-7.109-1.078-15.711 0-31.18 14.422-48.328 31.828-2.875 2.922-5.312 5.438-7.102 7-0.922 0.797-2.477 2.031-4.422 3.594-25.234 20.172-45.414 38.328-36.805 56.156 6.117 12.656 16.352 23.281 25.383 32.656 0.617 0.641 1.227 1.281 1.836 1.906-1.383 3.203-3.617 7.453-5.008 10.125-2.32 4.406-4.312 8.406-5.211 10.984-3.828 11.047-6.305 22.438-7.359 33.859-1.070 11.688-0.688 23.5 1.148 35.125 0.445 2.766 1.547 6.523 2.82 10.562 0.641 2.055 1.664 5.289 2.266 7.805-15.68 11.648-31.289 23.508-45.438 37.391-21.492 21.109 3.891 49.047 17.523 64.055 2.367 2.602 4.461 4.883 5.867 6.688 2.102 2.688 4.43 6.039 6.969 9.656 10.711 15.312 24.039 34.367 41.281 40.117 1.469 0.484 4.453 0.953 6 0.953 11.156 0 22.602-9.516 35.336-21.008 1.453-1.312 2.625-2.391 3.406-3.023 5.258-4.258 10.453-8.578 15.57-12.992l4.578-3.898c1.352-1.156 2.695-2.312 4.055-3.453 0.547 0.344 1.102 0.68 1.68 1.016 23.008 13.211 47.289 22.094 72.164 26.391 1.016 0.172 1.797 0.328 2.391 0.453 0.211 0.758 0.469 1.82 0.805 3.297 0.836 3.766 2.188 7.555 3.562 11.273l0.945 2.602c3.843 10.93 8.117 21.211 13.054 31.375l0.594 1.414c2.594 6.086 8.641 20.344 24.562 20.344 0.641 0 2.703-0.141 3.344-0.227 12.234-1.492 23.219-5.773 33.844-9.914 6.344-2.477 12.828-4.742 19.344-7.016 15.781-5.531 32.109-11.242 47.125-19.906 21-12.125 12.203-33.977 8.438-43.305-0.594-1.484-1.188-2.938-1.688-4.344-2.938-8.258-6.141-16.445-9.422-24.602l-0.984-2.344c0.203-0.195 0.391-0.391 0.609-0.609 16.734-17.188 29.922-35.57 39.156-54.641 0.031-0.039 0.047-0.078 0.062-0.117l2 0.055c3.641 0.133 7.359 0.211 11-0.195 2.766-0.297 5.578-0.344 8.391-0.414 2.891-0.070 5.781-0.141 8.641-0.375 29.266-2.352 28.016-37.977 27.422-55.094-0.078-2.047-0.141-3.945-0.172-5.625 0.234-1.031 0.359-2.102 0.359-3.203 0-0.852-0.078-1.688-0.219-2.5l0.062-1.641c0-0.023 0-0.047 0-0.062l0.422-12.75c0.031-1.312 0.188-3.25 0.359-5.625 1.594-21.828 4.016-54.844-18.531-60.094-11.594-2.719-23.438-2.953-34.578-2.953l-7.266 0.016-3.234-0.016c-0.203-0.016-0.75 0.016-1.109 0.016-2.5-4.344-4.953-8.266-7.547-12.094-6.406-9.5-13.797-18.688-21.953-27.266-1.859-1.953-3.828-3.656-5.703-5.266-0.297-0.266-0.594-0.5-0.891-0.75 2.328-6.016 4.609-12.031 6.562-18.156l1.625-4.75c4.016-11.422 12.375-35.172-10.75-47.844-15.984-8.75-33.672-14.562-50.781-20.172-4.406-1.453-8.766-2.875-13.031-4.344-1.891-0.641-4.016-1.516-6.297-2.438-8.092-3.28-18.17-7.374-28.092-7.374zM247.901 75.109c12.257 0 21.21-6.641 25.226-18.719l0.547-1.672c4.094-12.375 8.328-25.156 13.922-36.484l-0.281 0.594c4.297 0 11.797 3.047 17.281 5.266 2.812 1.141 5.453 2.203 7.781 3 4.375 1.5 8.859 2.969 13.391 4.453 15.859 5.203 32.266 10.594 45.906 18.062 1.203 2.312-1.25 9.297-2.578 13.047-0.656 1.875-1.297 3.719-1.875 5.516-2.094 6.5-4.578 12.922-7.078 19.297-6.328 16.234 5.203 26.078 10.125 30.281 1.156 1 2.391 2.016 3.531 3.219 7.062 7.422 13.438 15.344 18.969 23.531 2.766 4.109 5.344 8.312 7.734 12.625 2.922 5.281 8.094 12.312 19.281 12.312l16-0.172c8.125 0 16.625 0.125 24.328 1.453 1.172 4.938 1.188 15.234 0.062 30.703-0.219 2.922-0.391 5.328-0.422 6.945l-0.469 13.945c-0.297 2.734-0.297 5.391-0.297 7.547 0 0.797 0.062 1.57 0.188 2.328 0.031 1.195 0.078 2.445 0.125 3.742 0.219 6.141 0.781 22.453-2.141 26.086-1.109-0.508-3.406-0.477-5.828-0.414-3.625 0.086-7.25 0.188-10.828 0.578-0.984 0.102-1.969 0.133-2.969 0.133l-10.188-0.234c-14.688 0-18.672 8.164-22.516 16.055-8.062 16.656-19.469 32.5-34.062 47.484-10.266 10.555-12.859 16.805-6.922 30.883l1.234 2.953c3.141 7.766 6.188 15.578 9 23.477 0.625 1.773 1.359 3.594 2.094 5.438 0.938 2.328 2.391 5.922 2.891 8.148-12.594 7.078-26.531 11.953-41.25 17.109-6.844 2.398-13.641 4.781-20.25 7.359-8.25 3.211-16.078 6.258-23.812 7.688-0.359-0.805-0.719-1.656-1-2.305l-1.016-2.336c-4.641-9.57-8.5-18.859-12-28.789l-1.078-2.977c-0.922-2.508-1.906-5.039-2.469-7.609-3.406-15.039-8.219-22.727-26.429-25.828-21.516-3.719-42.617-11.453-62.688-22.977-1.117-0.641-1.992-1.305-2.766-1.867-2.844-2.070-7.133-5.195-13.516-5.195-6.477 0-11.297 3.281-14.367 5.75-2.75 2.203-5.469 4.531-8.18 6.859l-4.484 3.805c-5.062 4.367-10.039 8.5-15.055 12.578-1.039 0.836-2.633 2.258-4.57 4.008-2.922 2.641-10.953 9.891-15.695 12.766-7.906-4.906-17.828-19.094-24.031-27.953-2.844-4.070-5.484-7.828-7.852-10.867-1.758-2.25-4.32-5.102-7.266-8.336-4.484-4.945-18.148-19.977-18.094-25.516 13.43-12.352 29.055-23.938 45.586-36.211 12.891-9.57 7.727-25.969 4.312-36.812-0.781-2.469-1.57-4.727-1.844-6.414-1.461-9.258-1.766-18.68-0.914-27.977 0.836-9.094 2.82-18.203 5.891-27.047 0.578-1.672 2-4.203 3.5-7.062 6.891-13.125 14.688-28.016 4.742-38.734-2.016-2.172-4.148-4.391-6.328-6.656-6.789-7.047-13.781-14.297-18.219-21.609 2.711-3.828 9.812-11.078 26.883-24.734 2.367-1.891 4.242-3.406 5.367-4.375 2.18-1.906 5.188-4.938 8.695-8.484 5.727-5.828 20.539-20.875 27.258-23.047 3.719 2.156 10.352 9.953 13.336 13.469 1.453 1.703 2.828 3.328 4.102 4.734 2.047 2.281 3.969 4.812 5.914 7.344 3.617 4.703 7.359 9.562 12.039 13.828 3.5 3.188 8.336 4.453 12.922 3.391 9.875-2.266 19.906-2.906 29.812-1.766l3.906 0.5c3.527 0.483 6.793 0.889 9.746 0.889zM257.088 113.781c-25.398 0-49.929 10.109-71.304 29.328l-0.094-0.094-3.805 3.734c-2.125 1.859-4.227 3.906-6.141 6l-3.992 3.906 0.391 0.406c-1.234 1.641-2.297 3.25-3.109 4.766-15.891 23.172-18.844 50.688-7.797 77.773 17.367 42.586 64.57 74.703 109.812 74.703 23.172 0 44.047-8.438 60.359-24.398 41.125-40.32 43.281-97.156 5.281-138.219-22.593-24.436-50.859-37.905-79.601-37.905zM206.581 163.172c34.211-29.578 77.109-26.438 108.968 8.078 27.25 29.438 25.516 68.844-4.281 98.078-10.984 10.727-24.516 16.18-40.219 16.18-33.085 0-70.382-25.477-83.14-56.781-6.328-15.516-9.117-38.664 13.555-60.836 1.086-1.062 2.188-2.109 3.297-3.109 0.648-0.485 1.257-1.016 1.82-1.61z" />
<glyph unicode="&#xe621;" d="M111.845 153.504c-0.008 0 0 0-0.008 0-15.555 0-29.875 0.109-42.43 0.344-19.844 0.375-35.523 13.062-43.039 34.828-9.305 26.969-5.922 69.875 12.391 84.789 19.164 15.508 51.383 16 79.82 16.43 4.359 0.070 8.617 0.133 12.68 0.25l292.977 4.266c0.703 0.047 1.953 0.086 3.188 0.086 40.594 0 62.531-36.469 63.203-72.492 0.672-35.156-17.109-60.406-43.234-61.391-51.705-1.891-227.236-7.11-335.548-7.11zM427.423 265.691l-2.203-0.062-293.32-4.273c-3.977-0.117-8.375-0.188-12.883-0.258-22.594-0.344-50.711-0.766-62.102-9.992-4.844-4.406-10.938-32.828-2.891-54.211 5.281-14.062 13.008-14.203 15.922-14.266 12.391-0.219 26.531-0.328 41.891-0.328 107.914 0 282.93 5.203 334.477 7.094 10.078 0.375 15.812 16.609 15.531 32.070-0.313 16.422-7.922 44.226-34.422 44.226zM250.876 207.566h-2.977c-7.953 0-14.398 6.445-14.398 14.398s6.445 14.398 14.398 14.398h2.977c7.953 0 14.406-6.445 14.406-14.398s-6.453-14.398-14.406-14.398zM151.688 209.59h-2.914c-7.953 0-14.398 6.445-14.398 14.398s6.445 14.398 14.398 14.398h2.914c7.953 0 14.398-6.445 14.398-14.398s-6.444-14.398-14.398-14.398zM347.063 209.59h-2.922c-7.953 0-14.406 6.445-14.406 14.398s6.453 14.398 14.406 14.398h2.922c7.953 0 14.406-6.445 14.406-14.398s-6.452-14.398-14.406-14.398z" />
<glyph unicode="&#xe622;" d="M380.835 409.223c-2.172 43.375-101.562 45.578-121.469 45.578-21.703 0-94.672-2.352-122.406-32.57-8.008-8.734-11.742-19.211-10.836-29.031l-0.492-280.359c0-0.047-0.023-0.078-0.023-0.109s0.023-0.062 0.023-0.109l-0.016-7.578c0.125-3.875 0.125-7.922 0.133-12.078 0.031-26.594 0.070-62.984 33.109-82.984 19-11.531 70.070-16.781 109.477-16.781 0 0 0 0 0.016 0 50.891 0 112.125 7.547 114.781 43.484 7.469 102.169 0.094 319.787-2.297 372.537zM154.78 339.395h199.742c1.781-59.234 3.562-142.008 2.859-212.258h-202.944l0.343 212.258zM158.187 402.754c12.75 13.906 53.414 23.242 101.18 23.242 55.469 0 89.438-12.148 92.703-18.141 0.391-8.539 0.938-22.328 1.531-39.664h-198.774l0.039 26.219c-0.172 2.016 0.047 4.781 3.321 8.344zM268.351 21.996c-0.016 0-0.016 0-0.016 0-44.125 0.016-84.508 6.531-94.555 12.609-17.844 10.812-19.203 30.141-19.234 58.391 0 1.828-0.008 3.594-0.023 5.328h202.406c-0.484-22.328-1.281-42.672-2.516-59.531-0.281-3.703-21.562-16.797-86.062-16.797zM257.46 79.574c-10.336 0-18.656-8.328-18.656-18.656 0-10.25 8.32-18.594 18.656-18.594 10.266 0 18.656 8.344 18.656 18.594 0 10.328-8.39 18.656-18.656 18.656z" />
<glyph unicode="&#xe623;" d="M376.963-17.918c-0.141 0-0.281 0.016-0.438 0.016l-251.953 7.625c-7.883 0.234-14.109 6.781-13.961 14.656l6.766 359.898c0.062 3.258 1.227 6.406 3.312 8.914l68.094 82.156c2.211 2.672 5.305 4.453 8.727 5.016 21.234 3.531 50.688 5.555 80.812 5.555 30.375 0 83.906-1.977 101.234-15.219 32.828-25.094 21.469-295.898 11.781-455.086-0.468-7.625-6.78-13.531-14.374-13.531zM139.674 18.082l223.742-6.781c11.125 190.578 13.297 395.516-2.344 417.469-4.328 2.898-33.844 8.352-82.75 8.352-26.172 0-51.594-1.578-70.852-4.352l-61.391-74.078-6.405-340.61zM195.932 58.441c-16.039 0-17.336 17.781-18.844 38.359-4.469 61-4.695 134.445 19.555 137.992 2.695 0.391 7.914 0.898 22.414 0.898 24.031 0 58.703-1.406 71.938-2.164 18.266-1.133 26.234-23.086 27.578-75.758 2.438-96.375-15.266-98.375-22.812-99.234-0.547-0.062-1.078-0.094-1.625-0.094h-98.18c-0.009 0.001-0.017 0.001-0.024 0.001zM206.689 87.254h78.992c5.547 23.562 5.906 98.812-1.422 117.797-15.234 0.75-44.352 1.844-65.203 1.844-5.023 0-8.727-0.062-11.453-0.156-4.539-21.829-4.367-93.157-0.914-119.485z" />
<glyph unicode="&#xe624;" d="M421.66 458.125c-1.203 3.883-4 7.062-7.688 8.766-3.703 1.695-7.938 1.781-11.672 0.188-2.438-1.031-44.516-19.32-91.875-60.062-0.234-0.188-0.531-0.242-0.766-0.453-0.203-0.172-0.266-0.422-0.453-0.609-18.484-16.023-37.711-35.359-55.695-58.586-35.742-46.203-53.648-84.82-61.812-118.586-8.57 1.312-17.383 0.508-26.195-3.023-44.305-17.79-77.336-93.946-83.734-118.18-1.289-4.891 0.078-10.094 3.602-13.719 2.742-2.812 6.477-4.359 10.32-4.359 1.094 0 2.195 0.125 3.289 0.391 21.188 4.969 40.617 15.375 59.406 25.453 10.695 5.734 20.984 11.156 31.312 15.594 0.547-3.859 1.117-7.688 1.68-11.469 0.633-4.266 3.156-8.031 6.867-10.25l12.828-7.656c-7.977-16.516-16.227-33.562-26.32-47.891-4.578-6.5-3.023-15.484 3.484-20.062 2.516-1.781 5.414-2.641 8.273-2.641 4.531 0 8.984 2.141 11.789 6.109 10.953 15.562 19.453 32.828 27.594 49.688l16.594-9.891c2.234-1.328 4.781-2.031 7.375-2.031 0.32 0 0.648 0.016 0.969 0.031 5.961 0.406 13.898 3.422 23 8.703 4.953-23.469 12.375-63.844 17.312-91.891 1.062-6.031 5.844-10.734 11.891-11.719 0.781-0.125 1.547-0.188 2.297-0.188 5.234 0 10.141 2.859 12.688 7.578 8.844 16.438 37.969 71.156 41.484 85.266 5.078 20.062 2.109 57.359-17.453 76.531 20.484 27.531 40.234 62.328 55.141 103.985 41.578 115.709 15.593 201.397 14.468 204.983zM400.52 356.921c-19.297 9.562-41.875 22.289-59.547 37.844 22.844 18.156 43.531 30.711 56.906 37.961 2.734-15.844 5.344-42.383 2.641-75.805zM144.785 140.733c-8.32-4.469-16.422-8.812-24.469-12.594 12.906 27.781 34.523 62.297 55.922 70.891 3.812 1.547 7.273 2.016 10.641 1.578-1.43-14.094-1.336-27.328-0.445-39.984-14.5-5.484-28.282-12.734-41.649-19.891zM341.582 79.655c-1.156-4.641-9.266-21.562-19.531-41.656-4.297 23.188-9.453 49.875-12.891 64.078 7.953 6.906 16.266 15.25 24.672 24.703 8.375-10.515 11.109-33.843 7.75-47.125zM262.191 104.624l-13.344 7.953c0.945 1.797 1.789 3.703 2.758 5.469 3.094 5.703 6.734 11.406 10.398 17.156 7.625 11.969 15.508 24.344 20.086 38.172 2.492 7.562-1.594 15.703-9.148 18.203-7.547 2.516-15.688-1.594-18.195-9.141-3.453-10.438-10.047-20.797-17.039-31.766-4.023-6.328-8-12.594-11.383-18.828-0.789-1.438-1.484-3.016-2.258-4.484l-5.203 3.109c-7.727 52.812-12.641 108.696 57.422 199.274 13.703 17.688 28.266 32.82 42.641 46.039 23.516-21.609 54.328-37.867 77.797-49.031-3.344-19.781-8.453-41.094-16.641-63.891-36.609-102.296-99.867-150.718-117.891-158.234zM290.129 310.89c-15.32-4.688-25.805-17.328-28.773-34.68-3.562-20.891 4.883-43.547 20.57-55.118 7.344-5.398 15.922-8.258 24.812-8.258 24.531 0 48.141 21.649 51.547 47.219 1.688 12.281-2.016 24.352-10.422 33.992-13.437 15.408-38.422 22.775-57.734 16.845zM306.738 241.632c-2.781 0-5.312 0.875-7.734 2.648-6.906 5.102-10.984 16.992-9.25 27.078 0.766 4.477 2.906 10.188 8.812 12 1.891 0.578 4.016 0.875 6.281 0.875 7.984 0 16.562-3.664 21.312-9.125 2.984-3.414 4.156-7.055 3.578-11.195-1.499-11.242-12.889-22.281-22.999-22.281z" />
<glyph unicode="&#xe625;" d="M415.241 166.133c-4.719 3.219-9.672 6.625-13.344 9.219 10.047 33.516 3.688 175.539-2.391 186.297-4.766 8.078-6.375 10.797-81.672 10.797-38.531 0-85.039-0.898-118.992-1.555l-29.766-0.531-11.156 0.094c-17.016 0-35.883-1.656-46.75-13.945-2.289-2.594-3.57-5.922-3.609-9.383l-1.328-124.477c0-3.641-0.336-8-0.672-12.547-0.922-12.516-1.773-24.484 1.461-33.734-0.594-0.391-1.32-0.594-1.883-1.031-18.32-8.562-69.953-34.531-80.109-59.234-3.969-9.781-3.148-20.359 2.195-28.297 5.242-7.781 14.039-12.078 25.523-12.078 0.016 0 0.023 0 0.039 0 11.984 0.391 110.18 0.203 206.531 0.016 53.359-0.094 106.25-0.188 143.922-0.188 28.797 0 48.781 0.062 53.375 0.219l2.188 0.016 4.594-0.031c8.156 0 14.656 1.656 21.75 9.875 3.328 3.828 4.812 8.766 4.156 13.953-1.734 13.654-17.656 27.967-74.062 66.545zM134.28 207.992c0.391 5.297 0.75 10.406 0.75 14.5l1.25 116.891c3.398 1.156 9.758 2.273 21.641 2.273l11.156-0.094 30.328 0.531c33.836 0.656 80.18 1.555 118.43 1.555 33.031 0 49.031-0.703 56.75-1.336 3.516-32.648 6.188-141.289 1.5-155.508-0.344 0-0.578 0-0.578 0l-2.531 0.016-3.266-0.047c-10.203-0.406-61.969 0.609-116.281 1.672-46.781 0.922-95.148 1.875-117.031 1.875-1 0-1.953 0-2.828-0.016-0.204 5.173 0.367 12.923 0.71 17.688zM259.382 104.555c-54.312 0.094-109.117 0.203-148.867 0.203-31.297 0-53.352-0.078-58.492-0.25-0.203 0-0.383 0.016-0.547 0.016 0.055 0.219 0.125 0.453 0.219 0.688 4.164 10.125 38.125 31.328 67.227 44.766 1.352 0.625 2.602 1.453 3.695 2.453 0.953 0.875 5.703 3.734 26.609 3.734l14.57-0.109 25.992 0.422c35.078 0.578 85.047 1.391 125.844 1.391 43.844 0 58.672-0.984 63.641-1.594 3.266-2.625 8.875-6.516 19.703-13.922 11.578-7.906 37.266-25.469 51.953-37.875-22.672-0.267-106.61-0.095-191.547 0.077z" />
<glyph unicode="&#xe626;" d="M490.223 238.901c-6.578 66.586-39.375 125.492-92.359 165.875-50.766 38.68-114.563 54.914-175.024 44.539-3.758-0.648-6.922-2.695-9.055-5.516-76.758-0.195-144.765-52.070-176.633-136.679-32.219-85.563-21.844-201.938 73.945-269.063 40.25-28.25 88.188-42.438 137.086-42.438 44.977 0 90.773 12.016 132.102 36.172 77.219 45.125 118.313 122.547 109.938 207.11zM437.113 315.893c-0.125-1.43-0.25-2.867 0.078-4.344 3.797-17.453-3.797-43.258-19.844-67.344-5.359-8.039-11.656-15.5-18.359-22.649-0.422 3.774-0.891 7.493-1.531 10.907-13.422 71.539-44.953 144.578-86.812 183.898 24.766-6.82 48.547-18.336 69.75-34.492 23.812-18.14 42.906-40.585 56.718-65.976zM303.754 34.041c-2.219-0.719-4.016-2.031-5.562-3.578-1.859-0.406-3.719-0.859-5.578-1.219-57.828 5.141-99.438 33.766-123.57 85.234-1.336 2.844-2.391 5.859-3.594 8.781 10.68-1.016 21.773-1.688 33.633-1.688 25.43 0 53.555 2.469 84.359 8.062 31.156 5.688 60.188 16.734 85.844 31.875-7.282-56.029-31.016-116.217-65.532-127.467zM229.98 414.135c4.867-0.586 9.312 1.367 12.289 4.727 1.859-1.039 3.898-1.789 6.172-1.914 47.406-2.555 101.547-87.695 120.703-189.789 1.656-8.883 2.406-19.040 2.469-29.79-26.422-19.234-58.344-33.016-93.328-39.391-48.586-8.844-89.578-9.359-123-4.75-23.977 92.782 2.859 206.297 30.648 245.704 7.602 10.773 13 13.555 15 13.133 3.602-0.273 6.945 0.867 9.68 2.812 1.039 0.023 2.031 0.156 3.078 0.156 5.305 0.001 10.743-0.288 16.289-0.898zM153.746 401.174c-28.359-52.789-47.211-154.289-29.164-241.79-28.461 7.719-49.234 19.562-62.102 32.422-10.305 10.297-11.617 17.609-11.406 18.797 1.141 3.953 0.461 7.953-1.469 11.234 0.594 26.211 5.773 51.946 14.5 75.125 15.055 39.986 45.493 82.83 89.641 104.212zM57.77 158.666c18.242-12.984 43.312-23.938 75.141-30.5 2.938-8.891 6.164-17.609 10.055-25.906 14.641-31.234 35.312-55.609 61.125-72.828-27.508 5.547-53.656 16.203-76.453 32.203-36.837 25.812-59.009 60.203-69.868 97.031zM366.613 57.182c20.297 36.188 31.172 84.516 33.25 125.781 16.047 13.281 30.172 28.375 41.438 45.274 6.922 10.391 12.375 20.914 16.562 31.289 1.625-7.688 2.922-15.5 3.703-23.461 7.204-72.743-28.312-139.524-94.953-178.883z" />
<glyph unicode="&#xe627;" d="M391.681 132.375c-4.016 5.25-8.266 10.797-12.703 16.703-4.906 6.562-12.844 10.375-21.469 12.875-2.234 2.25-5.078 3.922-8.484 4.297-10 1.094-20.109-0.875-29.891-2.766-27.375-5.297-53.234-10.266-85.141 43.781-35.016 59.398-21.188 73.32-5.18 89.438 4.055 4.078 8.047 8.477 11.633 13.375 1.586 1.117 2.984 2.539 4.047 4.305 2.914 4.828 4.5 9.953 5.469 15.234 0.25 1.125 0.547 2.219 0.531 3.336 0.922 8.828-0.438 18.25-4.727 28.594l-1.625 3.922c-16.664 40.039-37.398 89.883-79.992 81.625-1.516-0.289-2.922-0.812-4.203-1.516-7.859-1.852-15.227-4.219-20.531-7.766-70.047-46.492-75.648-150.554-14.273-265.109 48.695-90.891 133.148-172.703 209.304-172.703 13.062 0 25.906 2.422 38.281 7.609 34.047 14.297 50.562 27.875 55.234 45.406 6.313 23.782-10.624 45.891-36.28 79.36zM400.118 60.422c-1.375-5.172-9.172-13.922-38.547-26.25-65.266-27.438-160.383 57.594-211.039 152.125-40.906 76.344-64.188 181.734 4.852 227.547 1.539 1.031 5.82 2.727 18.266 5.203 17.617-1.453 31.523-34.891 43.898-64.641l1.625-3.906c2.586-6.258 3.164-10.617 2.969-13.875l-3.766-8.289c-2.352-3.641-6.070-7.383-9.992-11.336-23.977-24.141-41.961-51.82 0.805-124.359 29.68-50.281 60.227-61.047 85.883-61.047 10.859 0 20.859 1.938 29.531 3.609 3.688 0.719 7.219 1.359 10.562 1.844 16.453-1.953 20.328-4.844 20.781-5.25 4.5-6 8.812-11.625 12.875-16.938 18.235-23.797 33.985-44.343 31.297-54.437z" />
<glyph unicode="&#xe628;" d="M492.784 380.066c-6.844 3.867-15.625 1.328-19.609-5.422-1.125-1.914-3.5-4.641-6.734-7.914-1.109 11.219-2.203 18.641-3.172 20.484-4.797 9.359-7.453 14.516-122.438 14.516-60.703 0-134.062-1.602-187.633-2.781-17.516-0.383-32.844-0.719-44.805-0.93l-2.75-0.023-18.117 0.18c-24.773 0-51.977-2.555-67.141-20.656-0.156-0.164-0.375-0.234-0.531-0.414-0.078-0.094-0.094-0.211-0.172-0.305-0.047-0.062-0.102-0.102-0.148-0.156-1.016-1.281-1.773-2.719-2.297-4.234-0.25-0.711-0.258-1.438-0.383-2.172-0.148-0.797-0.414-1.562-0.422-2.383l-2.156-218.477c0-11-0.609-22.391-1.211-33.812-0.969-18.516-1.977-37.641-0.531-55.703 0.617-7.75 7.117-13.297 15.055-13.25 7.359 0.375 28.938 0.547 64.141 0.547 40.812 0 94.875-0.234 147.633-0.453 50.312-0.219 99.438-0.438 134.781-0.438 27.938 0 43.969 0.125 50.438 0.406 1.734 0.078 3.312 0.094 4.75 0.094l5.172-0.031c11.734 0 20.297 2.797 29.359 17.109 14.25 22.672 10.828 180.336 5.359 267.008 15.344 13.352 26.078 24.156 29.25 30.023 3.75 6.906 1.14 15.328-5.688 19.187zM105.644 369.199l3.258 0.023c12 0.219 27.367 0.555 44.93 0.938 53.43 1.172 126.609 2.773 187 2.773 63.641 0 87.969-1.875 97.234-3.219 0.828-5.906 1.641-14.828 2.406-25.859-56.656-46.258-168.062-123.055-196.094-123.055-0.25 0-0.484 0.016-0.719 0.016-12.344 0.672-53.414 20.484-189.391 145.062 11.359 3.469 26.281 3.5 33.258 3.5l18.118-0.179zM439.519 79.223c-1.5-2.359-2.375-3.391-2.359-3.594-0.406-0.047-1.188-0.094-2.656-0.094l-5.172 0.047c-1.812 0-3.797-0.031-6-0.125-5.953-0.266-22.047-0.391-49.188-0.391-35.312 0-84.391 0.219-134.656 0.438-52.805 0.219-106.914 0.453-147.758 0.453-23.023 0-39.797-0.062-51.094-0.219-0.172 12.422 0.516 25.516 1.195 38.312 0.625 11.938 1.242 23.844 1.242 35.188l1.844 186.203c107.023-97.367 168.164-141.828 197.234-143.375 0.453-0.031 0.906-0.047 1.375-0.047 35.867 0 135.086 66.039 198.93 116.688 3.813-82.719 5.031-212.281-2.937-229.484z" />
<glyph unicode="&#xe629;" d="M478.945 80.020l-90.859 60.062c-2.359 1.547-5.109 2.391-7.938 2.391h-56.406l-10.047 19.156c11.875-0.031 23.188-0.062 32.906-0.062 19.922 0 34.391 0.094 39.391 0.297l2.547 0.031 4.906-0.047c8.781 0 16.172 2.141 23.578 12.484 15.047 20.672 7.141 196.625-0.094 208.836-4.812 8.172-6.609 11.234-90.734 11.234-43.047 0-95.203-0.984-133.289-1.695l-34.977-0.602-13.008 0.109c-18.797 0-39.602-1.766-51.367-14.844-2.336-2.602-3.648-5.961-3.688-9.461l-1.539-136.547c0-6.75-0.445-13.734-0.875-20.766-0.727-11.781-1.484-23.984-0.391-35.719 0.711-7.641 7.242-13.141 14.93-13.062 9.609 0.391 47.672 0.359 92.883 0.219l-10.281-19.562h-52.742c-2.82 0-5.586-0.844-7.938-2.391l-90.866-60.061c-5.305-3.5-7.68-10.078-5.852-16.156 1.828-6.094 7.43-10.266 13.789-10.266h430.023c6.359 0 11.953 4.172 13.797 10.266 1.829 6.077-0.546 12.64-5.859 16.156zM144.945 190.926c-11.742 0-21.844-0.016-29.609-0.078 0.109 5.75 0.477 11.766 0.859 17.984 0.469 7.625 0.93 15.219 0.93 22.375l1.461 129.133c3.977 1.578 11.633 3.078 26.336 3.078l13.008-0.117 35.523 0.609c37.969 0.711 89.961 1.695 132.742 1.695 39.625 0 57.719-0.883 65.969-1.633 4.188-34.68 7.391-157.875 1.516-172.766-0.141-0.203-0.266-0.375-0.406-0.547l-4.734 0.031-3.578-0.047c-8.859-0.359-46.141-0.328-90.875-0.172-1.5 0.516-3.047 0.875-4.688 0.875h-70.414c-1.375 0-2.719-0.203-4-0.578-25.727 0.080-50.274 0.158-70.040 0.158zM227.367 161.926c6.773-0.031 13.586-0.047 20.391-0.078 11.297-0.047 22.422-0.094 33.359-0.125l10.109-19.25h-74.094l10.235 19.453zM88.883 82.41l47.297 31.25h55.062c0.641-0.094 1.266-0.25 1.922-0.25h122c0.656 0 1.281 0.156 1.922 0.25h58.734l47.297-31.25h-334.234z" />
<glyph unicode="&#xe62a;" d="M379.747 270.325c-5.781 65.539-61.578 102.445-110.969 108.992-57.632 7.695-107.21-21.016-126.312-73.055-15.164-41.438-1.016-70.281 13.953-100.813 10.016-20.422 21.203-43.516 25.875-74.609-0.594-1.578-1.016-3.25-1.016-5.047 0-7.953 6.445-14.406 14.398-14.406h120.914c0.25 0 0.453 0.125 0.688 0.141 0.188-0.016 0.328-0.109 0.5-0.125 7.625 0.094 14.688 5.75 15.094 13.688 1.328 27.391 12.219 46.625 23.75 66.984 12.766 22.546 25.969 45.867 23.125 78.25zM331.56 206.262c-10.406-18.375-21.969-38.891-26.062-66.062h-95.484c-5.75 32.969-17.797 57.688-27.734 77.93-14.273 29.11-23.711 48.344-12.773 78.227 17.328 47.164 60.742 58.984 95.492 54.414 38.375-5.094 81.672-33.227 86.062-82.969 2.061-23.454-7.939-41.11-19.501-61.54zM161.263 373.95c3.055 0 6.133 0.969 8.742 2.961 6.32 4.836 7.516 13.875 2.688 20.188l-14.992 19.586c-4.836 6.312-13.883 7.5-20.188 2.688-6.32-4.836-7.516-13.875-2.688-20.188l14.992-19.586c2.837-3.704 7.118-5.649 11.446-5.649zM255.505 403.942c0.211-0.016 0.422-0.016 0.632-0.016 7.672 0 14.047 6.039 14.375 13.773l1.078 24.609c0.344 7.945-5.812 14.664-13.766 15.008-7.75 0.359-14.656-5.82-15.007-13.758l-1.070-24.609c-0.351-7.945 5.813-14.663 13.758-15.007zM337.216 383.973c2.406-1.531 5.094-2.266 7.75-2.266 4.75 0 9.391 2.344 12.141 6.641l13.328 20.828c4.297 6.695 2.328 15.602-4.359 19.891-6.703 4.281-15.609 2.32-19.891-4.375l-13.328-20.828c-4.297-6.696-2.329-15.602 4.359-19.891zM325.497 73.652c-0.109 0.984-0.266 1.906-0.562 2.828-0.297 0.875-0.656 1.672-1.094 2.484-0.453 0.797-0.922 1.531-1.516 2.234-0.609 0.719-1.25 1.344-1.984 1.938-0.688 0.562-1.391 1.031-2.172 1.453-0.891 0.5-1.812 0.828-2.797 1.125-0.5 0.141-0.875 0.453-1.391 0.547-0.406 0.078-0.797-0.062-1.219-0.031-0.469 0.047-0.875 0.281-1.359 0.281h-107.546c-0.102 0-0.188-0.062-0.297-0.062-0.086 0-0.156 0.047-0.242 0.047-0.867-0.031-1.602-0.406-2.414-0.578-0.984-0.219-1.992-0.297-2.891-0.703-0.859-0.375-1.531-1.016-2.297-1.547-0.742-0.531-1.555-0.938-2.188-1.594-0.68-0.703-1.094-1.578-1.625-2.406-0.461-0.734-1.031-1.375-1.359-2.203-0.391-0.938-0.445-2.016-0.617-3.047-0.133-0.781-0.469-1.484-0.469-2.312 0-0.078 0.047-0.156 0.047-0.234 0-0.109-0.055-0.188-0.047-0.297 1.156-31.547 22.008-80.906 72.914-80.906 0.641 0 1.281 0.016 1.922 0.031 45.859 1.094 59.828 70.875 61.281 78.844 0.078 0.438-0.062 0.844-0.031 1.281 0.047 0.438 0.266 0.828 0.266 1.281 0 0.546-0.25 1.015-0.313 1.546zM263.606 19.48c-0.391 0-0.766-0.016-1.141-0.016-26.468 0-37.187 22.5-41.468 38.234h71.781c-5.797-17.733-16.031-37.905-29.172-38.218z" />
<glyph unicode="&#xe62b;" d="M262.657 290.359c-5.375-0.289-9.891-3.484-12.125-7.984-48.297-5.984-79.906-40.125-79.906-88.055 0.016-26.609 12.672-51.625 34.727-68.625 17.367-13.375 38.531-20.484 59.586-20.484 7.797 0 15.562 0.969 23.125 2.969 29.297 7.688 54 28.469 66.062 55.562 11.016 24.734 10.359 51.398-1.859 75.070-16.907 32.844-52.922 53.532-89.61 51.547zM327.813 175.461c-8.547-19.188-26.141-33.938-47.062-39.438-19.141-5-41.29-0.234-57.821 12.484-15.148 11.688-23.492 27.953-23.508 45.828 0 43.227 33.148 59.414 64.172 60.148 5.016 0.117 9.359 2.789 11.844 6.734 21.438-2.648 41.172-16.039 51.234-35.594 8.126-15.756 8.532-33.568 1.141-50.162zM485.657 186.68c-2 148.5-30.453 148.836-39.781 148.945l-82.578 1.078-19.344 45.953c-2.203 5.266-7.328 8.727-13.047 8.812l-115.040 1.773c-5.164-0.156-10.047-2.656-12.656-7.148l-27.359-46.922-36.953 0.422-5-0.055-15.453 0.109c-19.969 0-57.141 0-76.844-35.328-18.086-32.609-23.516-173.938 2.18-222.438 8.875-16.75 20.227-21.125 28.195-21.844 39.477-3.516 99.406-5.281 178.125-5.281 89.805 0 176.649 2.344 204.618 3.469 9.765 0.377 32.656 1.267 30.937 128.455zM448.688 86.82c-32.031-1.188-113.938-3.266-198.586-3.266-77.875 0-136.945 1.734-175.562 5.172-0.305 0.031-2.477 1.297-5.312 6.641-21.868 41.281-14.782 172.735-2.454 194.953 9.57 17.172 26.195 20.531 51.672 20.531l15.453-0.109 5.156 0.055 44.852-0.516c5.023-0.016 9.992 2.672 12.602 7.148l27.336 46.883 97.219-1.492 19.359-45.977c2.219-5.281 7.359-8.734 13.078-8.812l88.234-1.156c16.078-25.805 21.125-189.508 6.953-220.055z" />
<glyph unicode="&#xe62c;" d="M485.065 188.646c-1.363 27.21-12.824 54.25-31.851 73.801-17.86 18.353-42.643 26.273-67.028 22.098-5.521 30.1-17.879 59.564-42.546 78.824-24.382 19.038-54.47 24.907-84.688 20.058-45.687-7.333-85.718-41.804-97.797-85.798-5.648 2.806-12.018 4.583-18.976 5.275-18.816 1.869-38.575-5.541-54.84-14.277-18.12-9.732-34.139-23.717-45.815-40.653-12.078-17.52-16.739-40.345-13.892-61.269 6.297-46.265 56.457-65.469 97.404-67.889 17.028-1.006 34.874 2.369 47.903 13.965 1.322 1.176 2.644 2.56 3.896 4.076 4.961-2.398 9.923-4.798 14.885-7.196 10.396-5.026 20.722-10.915 31.771-14.375 10.537-3.298 21.306-6.176 32.249-7.51-0.124-10.414-0.088-20.823 0.266-31.22 0.25-7.349 5.828-13.551 13.405-13.601 7.127-0.048 13.851 6.052 13.601 13.405-0.359 10.577-0.391 21.167-0.259 31.763 18.137 2.688 35.371 9.69 51.812 17.799 26.473-15.331 60.916-19.145 90.32-13.282 16.117 3.213 32.12 10.949 43.189 23.304 12.922 14.422 17.947 33.635 16.991 52.702zM457.792 176.29c-0.070-0.536-0.182-1.402-0.229-1.672-0.174-0.996-0.396-1.981-0.619-2.967-0.43-1.9-1.001-3.766-1.622-5.61-0.118-0.354-0.249-0.703-0.379-1.052-0.023-0.010-0.59-1.356-0.792-1.776-0.907-1.89-1.98-3.694-3.115-5.454-0.189-0.293-0.388-0.58-0.587-0.867-0.255-0.336-0.768-1.016-1.003-1.298-1.113-1.332-2.328-2.576-3.57-3.787-0.495-0.482-2.594-2.236-2.996-2.622-1.265-0.916-2.562-1.788-3.889-2.61-1.499-0.929-3.056-1.761-4.626-2.562-0.793-0.405-1.602-0.777-2.409-1.15-0.089-0.041-0.145-0.067-0.217-0.102-3.605-1.432-7.34-2.529-11.107-3.439-1.821-0.439-3.661-0.795-5.505-1.126-0.908-0.163-1.822-0.301-2.735-0.437-0.077-0.009-0.157-0.018-0.248-0.028-3.826-0.435-7.678-0.616-11.526-0.665-3.885-0.049-7.771 0.132-11.643 0.438-1.538 0.122-3.073 0.29-4.606 0.472 0.56-0.045-3.594 0.54-4.394 0.681-7.364 1.291-14.607 3.271-21.621 5.854-0.8 0.295-1.592 0.607-2.384 0.922-0.061 0.027-0.104 0.047-0.177 0.078-1.575 0.687-3.122 1.433-4.657 2.202-3.151 1.578-6.185 3.384-9.097 5.367-4.049 2.758-9.497 2.066-13.586-0.046-10.631-5.492-19.973-9.888-30.595-13.518-4.582-1.565-9.256-2.847-13.983-3.889-0.173-0.038-0.348-0.067-0.521-0.104 0.853 30.427 1.916 60.864-0.598 91.174 1.209-1.487 2.384-2.989 3.52-4.491 9.206-12.165 17.683-24.835 27.167-36.798 4.575-5.77 14.397-4.654 19.095 0.103 5.627 5.698 4.47 13.328-0.103 19.095-17.346 21.877-31.172 50.254-56.768 63.827-5.496 2.914-11.827 2.136-16.349-2.195-19.853-19.019-40.252-37.581-54.46-61.437-8.922-14.979 14.472-28.46 23.383-13.5 7.56 12.693 17.254 23.708 27.631 34.151 2.387-30.15 1.292-60.426 0.45-90.688-0.038 0.006-0.076 0.012-0.103 0.016-1.033 0.166-2.061 0.362-3.088 0.558-8.024 1.523-15.871 3.916-23.655 6.354-2.234 0.699-3.040 1.095-0.487-0.14-0.463 0.224-0.927 0.448-1.39 0.672-1.829 0.884-3.658 1.769-5.486 2.652-5.93 2.867-11.86 5.734-17.79 8.602-8.882 4.294-17.764 8.589-26.646 12.883-7.091 3.429-18.279 1.047-19.773-8.127-0.065-0.401-0.175-0.797-0.286-1.188-0.055-0.195-0.128-0.385-0.192-0.577-0.358-0.707-0.765-1.387-1.187-2.056-0.049-0.077-0.078-0.126-0.119-0.192-0.616-0.719-1.275-1.4-1.956-2.057-0.291-0.28-0.6-0.541-0.905-0.805-0.057-0.039-0.098-0.066-0.163-0.111-1.151-0.797-2.375-1.483-3.612-2.134-0.259-0.136-0.522-0.263-0.786-0.389-0.345-0.146-0.73-0.306-0.978-0.395-1.701-0.613-3.453-1.074-5.209-1.494-0.963-0.229-1.939-0.408-2.913-0.587-0.363-0.063-0.727-0.115-1.091-0.172-0.174-0.018-0.381-0.039-0.657-0.069-11.845-1.181-22.72 0.443-33.927 3.027-5.469 1.262-10.839 2.926-16.090 4.903-0.391 0.147-0.684 0.256-0.9 0.334-0.192 0.086-0.435 0.193-0.751 0.331-1.165 0.508-2.31 1.061-3.453 1.613-2.564 1.24-5.040 2.652-7.465 4.143-1.001 0.614-1.973 1.274-2.943 1.935-0.173 0.117-1.057 0.78-1.549 1.144-1.521 1.228-2.979 2.53-4.388 3.883-1.286 1.234-2.477 2.561-3.635 3.914-0.33 0.415-0.962 1.201-1.133 1.44-0.811 1.135-1.543 2.322-2.263 3.516-0.798 1.323-1.507 2.696-2.17 4.091-0.001 0.048-0.66 1.583-0.812 2.005-0.356 0.989-0.654 1.998-0.951 3.007-0.604 2.048-1.028 4.146-1.394 6.248-0.013 0.072-0.023 0.134-0.035 0.197-0.014 0.15-0.030 0.33-0.052 0.547-0.147 1.485-0.201 2.979-0.243 4.469-0.065 2.317 0.051 4.636 0.217 6.946 0.073 1.013 0.189 2.021 0.309 3.028-0.196-1.755 0.311 1.707 0.357 1.965 0.86 4.75 2.155 9.463 3.826 13.999 0.18 0.372 0.975 2.274 1.169 2.677 0.756 1.568 1.608 3.088 2.478 4.596 0.71 1.23 1.479 2.425 2.254 3.614 0.335 0.514 2.461 3.452 2.312 3.318 3.984 5.086 8.545 9.71 13.365 14 1.154 1.027 2.342 2.016 3.533 2.999 0.328 0.268 0.661 0.531 0.992 0.795-0.597-0.492 1.513 1.133 1.774 1.326 2.816 2.075 5.74 3.998 8.712 5.841 2.945 1.827 5.985 3.497 9.066 5.081 1.687 0.867 3.405 1.672 5.129 2.461 0.253 0.114 0.509 0.223 0.764 0.336-0.191-0.095 1.713 0.708 2.086 0.854 5.924 2.304 12.078 4.016 18.344 5.079 0.24 0.036 0.421 0.063 0.575 0.087 0.247 0.025 0.494 0.056 0.741 0.079 1.586 0.158 3.18 0.223 4.773 0.26 1.235 0.028 2.469-0.014 3.703-0.068 0.603-0.032 1.206-0.075 1.807-0.129 0.131-0.010 0.223-0.017 0.323-0.024 1.867-0.313 3.701-0.79 5.496-1.386 0.388-0.178 1.695-0.72 2.159-0.964 0.53-0.28 2.149-1.385 2.583-1.632 0.411-0.368 0.811-0.747 1.208-1.129 0.393-0.39 0.774-0.791 1.144-1.203 0.049-0.053 0.079-0.084 0.122-0.129 0.791-1.12 1.477-2.311 2.122-3.519 0.041-0.079 0.076-0.161 0.116-0.24 0.185-0.43 0.548-1.267 0.675-1.633 0.172-0.496 0.371-0.975 0.584-1.445 1.607-3.986 4.949-7.078 9.183-8.147 0.053-0.014 0.105-0.029 0.159-0.043 0.242-0.058 0.488-0.105 0.736-0.15 0.254-0.048 0.509-0.091 0.767-0.124 0.107-0.013 0.214-0.021 0.322-0.031 0.363-0.037 0.729-0.059 1.101-0.063 0.030 0 0.060-0.005 0.090-0.005 0.049 0 0.097 0.006 0.146 0.007 0.364 0.002 0.73 0.018 1.102 0.051 0.078 0.007 0.155 0.017 0.232 0.026 0.388 0.042 0.777 0.1 1.171 0.177 0.001 0 0.003 0.001 0.004 0.001 0.312 0.062 0.622 0.117 0.937 0.202 1.341 0.359 2.618 0.965 3.792 1.746 0.278 0.18 0.545 0.375 0.81 0.573 0.024 0.019 0.050 0.035 0.075 0.054 2.036 1.544 3.644 3.625 4.541 6.015 0.805 2 1.114 4.168 0.769 6.319-0.024 2.885 0.063 5.765 0.282 8.646 0.050 0.66 0.358 3.216 0.417 3.861 0.235 1.449 0.499 2.894 0.795 4.332 0.667 3.228 1.551 6.408 2.561 9.544 0.5 1.552 1.061 3.083 1.641 4.606 0.057 0.148 0.145 0.37 0.239 0.603 0.318 0.726 0.638 1.452 0.971 2.172 2.583 5.584 5.777 10.873 9.369 15.865 0.168 0.184 1.897 2.438 2.356 2.99 1.024 1.234 2.090 2.434 3.169 3.62 2.339 2.573 4.832 5.004 7.406 7.34 1.189 1.080 2.414 2.12 3.648 3.147 0.386 0.321 0.779 0.633 1.171 0.946 0.188 0.146 0.366 0.284 0.49 0.377 2.785 2.093 5.686 4.028 8.647 5.861 2.734 1.691 5.553 3.241 8.416 4.702 1.43 0.73 2.882 1.416 4.341 2.086 0.636 0.292 1.278 0.572 1.92 0.852 0.174 0.067 0.377 0.147 0.645 0.253 6.184 2.444 12.596 4.295 19.107 5.63 1.554 0.318 3.117 0.587 4.683 0.838 0.329 0.053 0.659 0.096 0.988 0.144 0.332 0.042 0.682 0.085 0.908 0.11 3.392 0.368 6.803 0.534 10.213 0.566 2.612 0.025 5.224-0.082 7.829-0.263 1.3-0.090 2.597-0.222 3.892-0.365 0.174-0.019 0.319-0.035 0.453-0.049 0.182-0.031 0.414-0.070 0.72-0.119 5.402-0.869 10.707-2.286 15.858-4.123 0.502-0.179 2.057-0.8 2.652-1.029 0.717-0.323 1.432-0.652 2.142-0.99 2.638-1.254 5.19-2.681 7.684-4.201 1.147-0.7 2.267-1.443 3.38-2.197 0.447-0.304 1.912-1.384 2.413-1.74 1.979-1.586 3.881-3.27 5.721-5.017 2.075-1.97 4.024-4.069 5.9-6.227 0.366-0.421 1.712-2.096 2.075-2.525 0.604-0.813 1.196-1.634 1.779-2.461 3.856-5.485 7.073-11.4 9.85-17.496 0.074-0.164 0.145-0.33 0.218-0.495 0.176-0.417 0.639-1.498 0.771-1.832 0.649-1.637 1.246-3.294 1.829-4.956 1.344-3.829 2.472-7.731 3.49-11.658 0.985-3.803 1.787-7.653 2.5-11.516 0.374-2.023 0.691-4.056 0.997-6.091 0.024-0.162 0.204-1.548 0.291-2.19 0.121-1.041 0.236-2.082 0.345-3.125 0.817-7.851 8.016-16.551 16.997-13.137 2.744 1.043 5.511 1.956 8.342 2.732 1.341 0.368 2.701 0.655 4.061 0.942 0.129 0.027 2.682 0.433 2.662 0.472 2.234 0.23 4.482 0.302 6.727 0.296 1.242-0.003 2.483-0.086 3.722-0.17 0.546-0.043 1.091-0.105 1.635-0.164 0.197-0.035 0.495-0.085 0.917-0.154 2.343-0.415 4.641-1.051 6.91-1.756 0.858-0.267 1.701-0.576 2.542-0.892-1.128 0.409 1.593-0.698 1.889-0.838 2.117-1.001 4.144-2.183 6.132-3.413 0.998-0.617 1.962-1.288 2.925-1.957 0.241-0.177 0.423-0.309 0.573-0.417 0.449-0.36 0.899-0.72 1.341-1.090 3.676-3.040 6.978-6.514 10.049-10.156 0.229-0.272 0.39-0.459 0.521-0.611 0.091-0.122 0.187-0.25 0.311-0.414 0.729-0.965 1.42-1.959 2.11-2.952 1.618-2.325 3.089-4.749 4.501-7.203 1.212-2.106 2.311-4.274 3.372-6.459 0.529-1.090 1.021-2.197 1.514-3.305 0.027-0.062 0.051-0.113 0.075-0.169 0.071-0.193 0.188-0.498 0.366-0.954 1.875-4.786 3.328-9.73 4.487-14.735 0.519-2.24 0.923-4.506 1.283-6.775 0.016-0.1 0.030-0.188 0.044-0.273 0.016-0.159 0.036-0.354 0.062-0.594 0.124-1.141 0.204-2.286 0.292-3.43 0.348-4.584 0.256-9.191-0.193-13.763z" />
<glyph unicode="&#xe62d;" d="M443.593 309.357c-7.688 5.133-20 9.531-36.875 5.703 1.078 29.117-5.578 59.688-39.094 89.109-58.391 51.352-154.265 66.797-224.523-2.938-36.727-36.43-42.898-58.891-41.258-88.742-14.109-1.031-28.625-5.070-40.758-15.852-15.047-13.367-22.945-34.5-23.469-62.836-0.477-27.195-1.133-64.429 20.781-84.21 8.781-7.922 19.922-11.906 33.211-11.906 2.844 0 5.789 0.188 8.828 0.547 4.383 0.531 8.234 1.547 11.859 2.781 16.703-33.781 54.781-104.016 92.734-127.656 1.328-2.094 2.844-4.094 4.742-5.859 11.891-10.938 30.609-10.156 41.633 1.672 11.015 11.953 10.312 30.516-1.633 41.672-11.953 10.984-30.414 10.406-41.508-1.625-0.406-0.438-0.688-0.938-1.062-1.406-22.438 22.312-51.094 68.375-72.367 112.75 8.602 17.531 6.234 43.703 2.219 86.195-0.82 8.719-1.711 18.141-2.578 28.289-0.32 3.781-0.68 7.383-1.055 10.844 3.266 2.328 5.609 5.891 6.039 10.211 0.633 6.375-3.078 12.016-8.633 14.453-1.969 24.516 1.719 39.633 32.562 70.234 57.688 57.297 136.859 44.281 185.234 1.75 29.609-26 31.719-50.891 28.266-80.023-2.969-3.727-4.234-8.703-2.562-13.547 0.125-0.359 0.406-0.602 0.562-0.945-0.25-1.641-0.5-3.281-0.766-4.953-2.219-14.406-4.531-29.305-4.531-44.945 0-28.875 2.812-51.375 8.25-67.531-0.922-4.016-0.328-8.344 2.344-11.891 6.672-8.844 16.078-14.125 27.969-15.703 4.75-0.625 9.219-0.938 13.438-0.938 14.625 0 26.109 3.781 34.875 11.422 15.703 13.703 17.938 36.469 18.062 56.969 0.189 52.499-9.936 84.858-30.936 98.905zM96.992 166.826c-12.945-1.578-17.727 2.734-19.297 4.156-12.188 10.984-11.617 43.125-11.281 62.304 0.367 19.945 5.008 34.016 13.797 41.82 6.523 5.789 15.383 8.023 24.477 8.633 0.383-3.547 0.766-7.219 1.094-11.133 0.875-10.258 1.773-19.766 2.602-28.562 3.438-36.406 6.156-65.171-0.789-73.156-0.008-0.016-0.008-0.031-0.023-0.031-0.682-0.781-2.721-3.078-10.58-4.031zM437.53 175.186c-4.625-4.031-13.203-5.266-25.609-3.625-1.469 0.188-2.656 0.5-3.688 0.875-6.172 10.625-9.828 34.625-9.828 65.687 0 13.43 2.125 27.219 4.188 40.555 0.266 1.695 0.516 3.414 0.781 5.133l1.703 0.594c14.766 6.195 20.594 2.289 22.5 1.008 5.531-3.695 18.359-18.383 18.141-74.835-0.063-13.221-1.063-29.189-8.188-35.392z" />
<glyph unicode="&#xe62e;" d="M251.35 42.754c-2.539 0-5.070 0.672-7.328 2.016-123.305 72.859-250.876 160.937-203.258 284.351 18.664 48.375 56.219 76.125 103.039 76.125 41.023 0 83.664-22.203 113.016-57.797 29.328 31.844 71.25 51.664 111.359 51.664 51.328 0 90.328-31.234 106.984-85.703 29.297-95.438-43.906-186.031-217.594-269.234-1.968-0.953-4.093-1.422-6.218-1.422zM143.803 376.441c-34.766 0-61.82-20.484-76.164-57.688-35.117-91.008 44.141-161.672 184.406-245.266 153.898 75.062 219.695 152.93 195.586 231.484-12.891 42.141-41.109 65.344-79.453 65.344-36.562 0-76.844-22.008-100.25-54.758-2.766-3.867-6.922-6.039-12.055-6.023-4.766 0.109-9.164 2.578-11.758 6.578-23.695 36.65-63.078 60.329-100.312 60.329z" />
<glyph unicode="&#xe62f;" d="M448.811 304.461c-2.641 20.859-27.203 20.109-55.547 19.25-11.406-0.344-23.969-0.398-36.5 0.195-2.172 43.086-14.719 94.477-44.938 123.148-17.078 16.227-38.031 23.734-61.875 22.57-65.109-3.477-102.203-55.32-105.438-146.273-8.891-0.734-17.367-1.156-24.914-1.359-22.82-0.617-42.523-1.156-57.82-15.711-2.969-2.828-4.594-6.797-4.461-10.898l7.93-242.109c0.25-4.797 0.211-9.438 0.172-13.859-0.164-21.469-0.391-50.875 42.5-56.422 21.555-2.781 77.516-4.734 136.477-4.734 77.883 0 161.008 3.406 176.93 12.828 51.905 30.827 27.843 310.679 27.484 313.374zM406.998 16.055c-21.297-9.594-231.125-12.781-295.391-4.5-17.578 2.266-17.555 5.656-17.383 27.641 0.031 4.953 0.070 10.172-0.203 15.297l-7.671 234.226c7.070 3.562 17.492 4.031 34.031 4.484 11.664 0.312 24.891 0.672 40.148 2.75 0.648 0.086 1.164 0.445 1.781 0.617 0.953 0.258 1.859 0.508 2.727 0.945 0.828 0.422 1.523 0.953 2.242 1.516 0.734 0.57 1.43 1.117 2.039 1.82 0.609 0.695 1.062 1.453 1.523 2.258 0.469 0.789 0.898 1.562 1.203 2.445 0.32 0.898 0.438 1.828 0.57 2.797 0.086 0.641 0.375 1.203 0.375 1.867 0 57.688 13.617 127.188 78.477 130.641 15.891 0.789 29.25-3.969 40.531-14.688 26.875-25.516 36.406-78.414 36.406-115.953 0-0.734 0.312-1.367 0.422-2.078 0.141-0.945 0.234-1.875 0.562-2.766 0.312-0.875 0.781-1.617 1.266-2.406 0.469-0.805 0.906-1.586 1.531-2.281 0.609-0.68 1.328-1.188 2.047-1.742 0.75-0.562 1.453-1.125 2.297-1.547 0.859-0.414 1.766-0.609 2.703-0.859 0.688-0.18 1.281-0.555 2-0.633 18.469-2.039 37.562-1.445 52.891-0.984 8.953 0.273 20.531 0.617 26.844-0.031 8.079-71.883 8.454-262.868-13.968-278.836zM255.982 229.555c-21.758 0-39.406-17.656-39.406-39.406 0-16.672 10.391-30.844 25.008-36.594v-45.953c0-7.953 6.445-14.406 14.398-14.406s14.406 6.453 14.406 14.406v45.953c14.625 5.75 25 19.922 25 36.594 0.001 21.749-17.64 39.406-39.406 39.406z" />
<glyph unicode="&#xe630;" d="M493.623 370.649c-2.859 28.023-16.562 52.211-38.562 68.109-25.031 18.078-58.344 24.281-91.344 16.984-5.672-1.25-9.375-6.602-8.703-12.25-37.578-6.117-69.828-33.906-82.094-72.82-6.688-21.211-6.047-42 1-60.352-32.023 11.383-68.101 13.703-104.070 5.688-7.758-1.727-12.648-9.422-10.922-17.188 0.156-0.703 0.359-1.383 0.617-2.039-69.648-8.977-117.633-63.617-134.234-116.25-20.672-65.547 2.383-128.781 60.188-165.016 28.008-17.531 60.82-26.25 94.602-26.25 37.812 0 76.828 10.922 111.648 32.578 59.219 36.812 90.734 96.406 84.344 159.406-2.688 26.047-11.406 49.89-25.078 70.328 6.406-1.055 12.891-1.773 19.469-1.773 23.75 0 48.25 6.852 70.109 20.445 37.249 23.173 57.077 60.705 53.030 100.4zM276.545 46.298c-55.796-34.688-126.421-37.266-175.757-6.375-46.859 29.375-64.805 78.703-48.016 131.938 15.047 47.703 60.898 97.398 126.992 97.398 2.25 0 4.523-0.062 6.82-0.18 8.031-0.344 14.711 5.695 15.117 13.648 0.164 3.211-0.742 6.234-2.398 8.719 36.352 3.078 71.367-5.867 98.679-25.562 28.578-20.602 45.688-50.882 49.453-87.554 5.266-51.798-21.234-101.157-70.89-132.032zM428.748 289.274c-33.672-20.945-76.234-22.516-105.875-3.977-27.906 17.516-38.609 46.914-28.594 78.633 9.016 28.617 36.531 58.43 76.156 58.43 1.328 0 2.688-0.031 4.062-0.102 5.625-0.273 11.422 4.43 11.75 10.617 0.062 1.156-0.062 2.273-0.328 3.336 20.547 1.031 40.484-4.367 56.031-15.609 16.984-12.281 27.156-30.344 29.391-52.227 3.157-30.984-12.765-60.554-42.593-79.101zM356.748 368.586c6.547 0 11.703 5.18 11.703 11.68 0 6.672-5.156 11.859-11.703 11.859-6.578 0-11.812-5.188-11.812-11.859 0-6.5 5.234-11.68 11.812-11.68zM413.029 368.586c6.453 0 11.75 5.18 11.75 11.68 0 6.672-5.297 11.859-11.75 11.859-6.594 0-11.875-5.188-11.875-11.859 0-6.5 5.282-11.68 11.875-11.68zM412.248 332.891c-8.953-11.438-61.219-6.977-72.094-0.492-3.625 4.055-9.781 4.945-14.484 1.852-5.156-3.406-6.578-10.352-3.172-15.516 8.531-12.961 47.938-14.93 52.406-15.109 2.172-0.086 4.422-0.141 6.734-0.141 17.766 0 38.422 3.055 48.234 15.594 3.812 4.875 2.969 11.914-1.906 15.727-4.843 3.78-11.905 2.968-15.718-1.915zM145.967 178.188c10.625 0 19.102 8.516 19.102 19.047 0 10.625-8.477 19.125-19.102 19.125-10.578 0-19.156-8.5-19.156-19.125 0-10.531 8.578-19.047 19.156-19.047zM248.952 178.188c10.625 0 19.078 8.516 19.078 19.047 0 10.625-8.453 19.125-19.078 19.125-10.578 0-19.109-8.5-19.109-19.125-0.001-10.531 8.531-19.047 19.109-19.047zM266.607 121.392c-12.453-14.391-120.015-18.188-138.046-4.984-4.742 5.891-13.312 7.109-19.555 2.688-6.477-4.609-7.992-13.609-3.383-20.078 2.883-4.047 11.641-16.359 65.586-18.922 0.93-0.047 6.953-0.312 15.883-0.312 27.828 0 83.828 2.609 101.296 22.766 5.203 6 4.547 15.094-1.469 20.297-5.983 5.201-15.077 4.576-20.312-1.455z" />
<glyph unicode="&#xe631;" d="M442.26 431.681c-30.609 21.758-71.828 22.531-107.578 2.008-38.438-22.070-59.891-62.633-55.984-105.867 2.75-30.344 16.609-55.836 39.031-71.758 15.469-10.984 34.109-16.703 53.375-16.703 8.031 0.008 16.188 1 24.25 3.023 5.859 1.469 9.766 6.758 9.688 12.547 30.344 6.594 56.594 30.883 68.734 65.414 15.203 43.195 2.828 86.898-31.516 111.336zM449.635 328.845c-9.234-26.219-32.844-51.859-64.297-50.016-7.469 0.453-13.109-4.984-13.531-12.039-0.031-0.617-0.031-1.227 0.031-1.82-14.344 0.062-27.984 3.953-39.281 11.969-16.234 11.523-26.297 30.414-28.359 53.188-3.578 39.633 19.984 68.016 43.234 81.359 13.281 7.633 27.469 11.445 41.109 11.445 14.047 0 27.531-4.039 38.875-12.109 30.109-21.423 31.219-56.391 22.219-81.977zM379.213 399.188c-7.75 0-14.062-6.25-14.062-14 0-7.766 6.312-14.016 14.062-14.016 7.781 0 14 6.25 14 14.016 0 7.75-6.219 14-14 14zM379.197 355.438c-7.062 0-12.797-5.727-12.797-12.797v-30.812c0-7.070 5.734-12.797 12.797-12.797s12.797 5.727 12.797 12.797v30.812c0 7.071-5.734 12.797-12.797 12.797zM246.487 195.485c17.085 17.094 26.992 40.414 26.992 65.555 0 51.32-41.718 93.070-92.992 93.070-51.312 0-93.055-41.75-93.055-93.070 0-23.164 8.406-44.898 23.508-61.758-65-30.844-77.75-167.438-79.078-184.281-0.32-4.016 1.047-7.969 3.773-10.922 2.727-2.938 6.562-4.625 10.578-4.625h269.156c0.109-0.016 0.234-0.016 0.312 0 7.953 0 14.406 6.453 14.406 14.406 0 1.266-0.156 2.484-0.469 3.641-1.124 21.797-10.639 140.953-83.131 177.984zM62.229 28.267c6.328 49.078 27.461 143.125 72.109 148.141 7.281 0.812 12.789 6.984 12.789 14.312v7.938c0 4.484-2.086 8.719-5.656 11.438-16.039 12.266-25.242 30.836-25.242 50.945 0 35.438 28.828 64.273 64.258 64.273 35.398 0 64.195-28.836 64.195-64.273 0-24.508-13.656-46.508-35.641-57.43-5.586-2.766-8.75-8.828-7.836-14.984 0.906-6.172 5.688-11.062 11.836-12.109 66.593-11.297 82.968-110.172 86.812-148.25h-237.624z" />
<glyph unicode="&#xe632;" d="M499.014 263.793c-2.484 9.125-8.188 29.656-65 31.445-11.406 25.812-29 48.43-51.984 66.008-42.422 32.445-98.844 45.758-154.765 36.477-7.844-1.297-13.156-8.711-11.852-16.555 0.219-1.352 0.625-2.625 1.18-3.797-63.633-5.141-120.125-47.633-143.219-110.766-6.672-18.234-10.461-38.883-9.969-60.219-34.094-21.266-57.883-46.766-50.266-74.891 6.82-24.844 38.242-37.781 93.57-38.469h12.742c4.953-4.156 10.156-8.219 15.875-12.094 32.914-22.344 72.695-33.547 113.172-33.547 38.812 0 78.25 10.312 112.859 30.984 43.672 26.078 72.578 64.891 83.062 109.062 42.563 27.096 61.11 52.807 54.595 76.362zM40.92 139.074c-2.047 7.531 5.344 20.156 26.586 35.453 4.273-17.781 12.039-35.438 24.172-52.078-36.679 2.453-49.383 11.594-50.758 16.625zM346.592 103.090c-61.281-36.578-139.687-35.953-195.093 1.688-35.789 24.266-52.727 55.328-57.672 85.953 21.984 11.906 51.523 24.75 90.602 37.727 7.547 2.508 11.633 10.656 9.125 18.203s-10.648 11.664-18.203 9.125c-24.492-8.133-54.719-19.43-82.523-33.188 1.102 12.023 3.734 23.578 7.594 34.117 17.383 47.516 63.070 92.453 127.945 92.453 4.984 0 10.094-0.266 15.305-0.82 7.945-0.938 15 4.891 15.828 12.805 0.422 3.953-0.797 7.703-3.109 10.57 39.812 1.266 78.141-10.406 108.156-33.359 16-12.234 28.734-27.008 37.969-43.836-30.094-2.016-69.828-7.922-122.297-19.633 0.375 0.805 0.719 1.617 1.094 2.43 3.922 8.398 7.984 17.078 11.922 27.656 2.766 7.453-1.031 15.742-8.484 18.516-7.438 2.758-15.75-1.023-18.516-8.484-3.516-9.469-7.328-17.609-11.015-25.477-4.312-9.227-8.781-18.773-12.758-30.32-0.156-0.461-0.133-0.938-0.242-1.398-0.148-0.617-0.258-1.211-0.32-1.852-0.133-1.266-0.062-2.5 0.141-3.742 0.055-0.359-0.047-0.711 0.039-1.078 0.031-0.133 0.133-0.227 0.172-0.359 0.453-1.68 1.164-3.258 2.195-4.688 0.203-0.281 0.484-0.469 0.711-0.727 0.711-0.852 1.406-1.711 2.32-2.391 0.273-0.203 0.602-0.328 0.883-0.523 0.203-0.133 0.398-0.242 0.609-0.367 9.984-6.844 22.718-9.695 35.109-12.344 8.922-1.914 18.172-3.883 22.656-6.898 2.453-1.648 5.25-2.438 8-2.438 4.641 0 9.203 2.234 11.969 6.375 4.438 6.602 2.672 15.555-3.938 19.984-3.328 2.242-7.141 3.898-11.109 5.352 45.047 9.102 78.359 13.156 102.422 14.18 2.5-8.648 4.328-17.633 5.281-26.992 1.391-13.594 0.797-26.812-1.562-39.516-0.016-0.078 0-0.156-0.031-0.234-7.347-39.095-32.019-73.080-71.175-96.47zM448.795 225.637c-0.016 5.492-0.203 11.016-0.781 16.594-0.812 8.055-2.344 15.883-4.188 23.578 18.859-1.734 26.484-6.203 27.422-9.633 1.156-4.188-3.016-14.914-22.453-30.539z" />
<glyph unicode="&#xe633;" d="M463.196 238.943c-21.891 52.133-39.781 53.727-88.297 50.742-14.078-0.875-30.766-1.906-51.938-1.812 16.125 33.406 41.953 97.406 25.812 137.078-6.266 15.43-18.359 26.164-34.938 31.031-16.938 4.969-30.516 4.406-41.625-1.68-17.391-9.547-23.040-29.055-29.016-49.703-7.664-26.461-14.898-51.453-44.414-61.594-41.031-14.031-61.43-35.367-76.32-50.938-16.203-16.945-23.625-24.703-47.906-19.188-7.711 1.711-15.469-3.117-17.219-10.875-1.75-7.766 3.117-15.469 10.883-17.219 7.477-1.688 14.148-2.445 20.172-2.445 26.367 0 40.297 14.562 54.883 29.82 14.273 14.922 30.445 31.828 64.852 43.602 43.672 15 54.688 53.047 62.735 80.82 4.266 14.75 8.297 28.68 15.211 32.469 3.984 2.188 10.594 1.961 19.656-0.711 8.188-2.406 13.391-6.93 16.375-14.234 13.688-33.602-20.672-107.438-35.062-133.055-0.078-0.148-0.078-0.312-0.141-0.461-0.453-0.852-0.625-1.805-0.906-2.75-0.266-0.93-0.609-1.82-0.672-2.766-0.016-0.18-0.125-0.32-0.125-0.5-0.031-0.719 0.25-1.352 0.328-2.047 0.109-1.016 0.156-2.008 0.484-2.977 0.297-0.898 0.781-1.664 1.234-2.477 0.453-0.789 0.828-1.586 1.422-2.297 0.672-0.797 1.516-1.383 2.344-2.023 0.547-0.414 0.906-0.961 1.516-1.305 0.156-0.086 0.312-0.078 0.469-0.156 0.859-0.445 1.828-0.625 2.781-0.898 0.922-0.258 1.812-0.602 2.75-0.672 0.172-0.008 0.312-0.109 0.484-0.117 34.031-1.359 59.234 0.188 77.672 1.336 43.156 2.672 44.875 2.781 59.953-33.141 5.609-13.367 1.375-22.726-7.922-40.976-8.484-16.609-19.031-37.281-19.594-67.078-0.766-36.75-49.844-101.656-77.234-102.141-125.696-2.203-199.672 20.719-263.54 81.719-5.742 5.5-14.859 5.281-20.359-0.453-5.492-5.75-5.281-14.875 0.469-20.359 67.055-64.078 142.914-89.844 267.196-89.844 5.484 0 11.062 0.047 16.734 0.156 46.703 0.812 104.5 80.734 105.516 130.359 0.438 23.172 8.578 39.125 16.453 54.547 9.766 19.143 19.876 38.924 8.844 65.213z" />
<glyph unicode="&#xe634;" d="M457.071 240.745c-11.516 7.711-25.188 9.312-40.203 5.523 1.422 31.516-5.312 64.641-41.562 96.484-62.422 54.867-164.844 71.398-239.899-3.125-40.773-40.461-46.070-65.672-44.086-95.648-15.266-0.984-31.031-5.18-44.133-16.805-15.953-14.156-24.32-36.617-24.883-66.766-0.508-29.016-1.211-68.75 21.984-89.703 9.25-8.344 21-12.547 35.023-12.547 3 0 6.102 0.188 9.312 0.578 13.406 1.578 23.344 6.312 30.383 14.422 0.008 0.016 0.016 0.016 0.016 0.016v0c0.016 0.016 0.023 0.016 0.031 0.031 0.016 0.016 0.023 0.047 0.047 0.078 15.773 18.25 13 47.703 7.945 101.094-0.883 9.336-1.836 19.422-2.766 30.281-0.367 4.359-0.789 8.469-1.219 12.43 3.516 2.297 6.125 5.906 6.578 10.406 0.664 6.602-3.367 12.383-9.289 14.648-2.281 27.141 1.5 43.461 35.344 77.047 62.531 62.055 148.219 47.969 200.594 1.93 32.328-28.391 34.5-55.492 30.703-87.227-3.125-3.75-4.484-8.867-2.766-13.82 0.156-0.453 0.5-0.758 0.688-1.18-0.281-1.875-0.562-3.75-0.859-5.664-2.391-15.445-4.859-31.43-4.859-48.164 0-44.641 6.109-75.312 18.125-91.141 0.719-0.953 1.734-1.438 2.625-2.156 4.125-4.719 10.078-9.609 19.703-10.922 4.594-0.594 8.969-0.906 13.125-0.906 15.344 0 27.781 4.094 37.078 12.203 17.391 15.172 19.859 40.422 20 63.156 0.205 56.072-10.514 90.564-32.78 105.447zM85.211 87.331c-9.719-1.156-16.789 0.391-21.617 4.75-13.477 12.172-12.859 47-12.492 67.812 0.406 21.758 5.523 37.148 15.203 45.742 7.484 6.656 17.648 9.078 27.984 9.633 0.453-4.148 0.906-8.438 1.297-13.055 0.938-10.969 1.898-21.141 2.789-30.555 3.883-41.016 6.688-70.641-1.086-79.578-0.008-0.016-0.008-0.031-0.023-0.031-0.789-0.921-3.18-3.671-12.055-4.718zM450.915 93.847c-5.312-4.641-14.562-6.172-27.453-4.453-0.984 0.141-1.344 0.188-4.547 4.766l-1.516 2.109c-5.938 12.641-9.391 37.5-9.391 68.797 0 14.523 2.297 29.391 4.516 43.773 0.312 2.031 0.625 4.086 0.938 6.141l2.391 0.836c16.422 6.844 23.031 2.43 25.203 0.992 12.859-8.602 20.156-38.273 19.984-81.383-0.078-15.313-1.312-33.891-10.125-41.578z" />
</font>
</defs>
</svg>
