<?xml version="1.0" standalone="no"?>
<!DOCTYPE svg PUBLIC "-//W3C//DTD SVG 1.1//EN" "http://www.w3.org/Graphics/SVG/1.1/DTD/svg11.dtd" >
<svg xmlns="http://www.w3.org/2000/svg" width="100%" height="100%">
<metadata>
Created by FontXChange 20110222 at Fri Sep 27 15:31:39 2013
 By Agius, Candice
Copyright (c) 2007 Linotype GmbH, www.linotype.com. All rights reserved. This font software may not be reproduced, modified, disclosed or transferred without the express written approval of Linotype GmbH. Trade Gothic is either a registered trademark or a trademark of Adrian Williams Design Ltd.. This typeface is original artwork of Jackson Burke. The design may be protected in certain jurisdictions. The digitally encoded machine readable software for producing the Typefaces licensed to you is copyrighted (c) 1989 Adobe Systems. All rights reserved. This software is the property of Adobe Systems Incorporated and its licensors, and may not be reproduced, used, displayed, modified, disclosed, or transferred without the express written approval of Adobe.
</metadata>
<defs>
<font id="TradeGothicLTPro-BdCn20" horiz-adv-x="444" >
  <font-face 
    font-family="TradeGothicLTPro"
    font-weight="700"
    font-stretch="condensed"
    units-per-em="1000"
    panose-1="2 11 8 6 4 3 3 2 0 4"
    ascent="722"
    descent="-278"
    x-height="538"
    cap-height="722"
    bbox="-167 -236 1000 964"
    underline-thickness="50"
    underline-position="-50"
    stemh="92"
    stemv="96"
    unicode-range="U+000D-FB02"
  />
<missing-glyph horiz-adv-x="512" 
d="M278 117h-56v67h56v-67zM271 234h-46l-2 17c0 37 4 64 13 81s24 37 46 59c43 41 50 58 50 83c0 48 -35 85 -76 85s-74 -27 -82 -95l-50 8c9 95 63 137 135 137c71 0 124 -52 124 -131c0 -43 -12 -73 -63 -120c-25 -22 -39 -39 -43 -52s-6 -37 -6 -72zM50 50h412v617h-412
v-617zM0 718h512v-718h-512v718z" />
    <glyph glyph-name="fi" unicode="fi" 
d="M62 0v446h-66v92h66v67c0 87 46 127 125 127h56v-92h-32c-27 0 -37 -10 -37 -36v-66h64v-92h-64v-446h-112zM389 0h-112v538h112v-538zM389 620h-112v102h112v-102z" />
    <glyph glyph-name="fl" unicode="fl" 
d="M62 0v446h-66v92h66v67c0 87 46 127 125 127h56v-92h-32c-27 0 -37 -10 -37 -36v-66h64v-92h-64v-446h-112zM389 0h-112v722h112v-722z" />
    <glyph glyph-name="napostrophe" unicode="&#x22;n" horiz-adv-x="529" 
d="M251 0h-112v538h106v-54c47 40 71 64 136 64c59 0 94 -43 94 -113v-435h-112v417c0 27 -16 39 -40 39s-46 -15 -72 -34v-422zM118 722v-118l-69 -124h-53l49 124h-45v118h118z" />
    <glyph glyph-name="IJ" unicode="IJ" horiz-adv-x="544" 
d="M201 0h-124v722h124v-722zM269 -10v108h26c48 0 65 20 65 60v564h124v-578c0 -92 -37 -154 -174 -154h-41z" />
    <glyph glyph-name="ij" unicode="ij" horiz-adv-x="436" 
d="M167 0h-112v538h112v-538zM167 620h-112v102h112v-102zM214 -170v102h19c31 0 42 18 42 42v563h112v-568c0 -107 -61 -139 -130 -139h-43zM387 620h-112v102h112v-102z" />
    <glyph glyph-name=".notdef" horiz-adv-x="512" 
d="M278 117h-56v67h56v-67zM271 234h-46l-2 17c0 37 4 64 13 81s24 37 46 59c43 41 50 58 50 83c0 48 -35 85 -76 85s-74 -27 -82 -95l-50 8c9 95 63 137 135 137c71 0 124 -52 124 -131c0 -43 -12 -73 -63 -120c-25 -22 -39 -39 -43 -52s-6 -37 -6 -72zM50 50h412v617h-412
v-617zM0 718h512v-718h-512v718z" />
    <glyph glyph-name="space" unicode=" " horiz-adv-x="222" 
 />
    <glyph glyph-name="exclam" unicode="!" horiz-adv-x="278" 
d="M98 212l-22 510h126l-22 -510h-82zM198 0h-118v118h118v-118z" />
    <glyph glyph-name="quotedbl" unicode="&#x22;" horiz-adv-x="333" 
d="M40 448v274h94v-274h-94zM199 448v274h94v-274h-94z" />
    <glyph glyph-name="numbersign" unicode="#" 
d="M408 292v-78h-72l-24 -214h-90l25 214h-81l-24 -214h-91l25 214h-66v78h76l15 138h-66v78h76l25 214h89l-25 -214h81l25 214h89l-25 -214h64v-78h-72l-16 -138h62zM272 430h-80l-16 -138h80z" />
    <glyph glyph-name="dollar" unicode="$" 
d="M192 722v88h60v-88c56 -11 106 -44 139 -91l-76 -65c-15 25 -32 51 -63 58v-207c85 -54 162 -111 162 -223c0 -100 -57 -185 -162 -194v-116h-60v116c-69 7 -126 57 -162 113l83 63c13 -35 40 -69 79 -80v235c-77 47 -152 109 -152 206c0 93 54 172 152 185zM192 450v174
c-31 -10 -50 -40 -50 -74c0 -44 19 -72 50 -100zM252 293v-197c41 16 56 47 56 93c0 49 -23 74 -56 104z" />
    <glyph glyph-name="percent" unicode="%" horiz-adv-x="778" 
d="M50 558c0 91 73 164 164 164s164 -73 164 -164s-73 -164 -164 -164s-164 73 -164 164zM130 558c0 -46 38 -84 84 -84s84 38 84 84s-38 84 -84 84s-84 -38 -84 -84zM480 164c0 -46 38 -84 84 -84s84 38 84 84s-38 84 -84 84s-84 -38 -84 -84zM400 164c0 91 73 164 164 164
s164 -73 164 -164s-73 -164 -164 -164s-164 73 -164 164zM557 732h75l-409 -742h-75z" />
    <glyph glyph-name="ampersand" unicode="&#x26;" horiz-adv-x="556" 
d="M192 589c0 -46 17 -97 34 -139c29 38 60 82 60 132c0 56 -16 78 -45 78c-31 0 -49 -26 -49 -71zM404 350l102 -27c-14 -66 -42 -127 -68 -189c19 -17 44 -30 69 -34v-110c-53 1 -102 20 -140 55c-40 -38 -80 -55 -142 -55c-105 0 -173 69 -173 169c0 75 45 150 95 204
c-26 58 -57 136 -57 199c0 98 53 170 157 170c91 0 147 -60 147 -150s-68 -157 -124 -219c25 -52 55 -102 90 -147c17 44 34 88 44 134zM166 175c0 -42 30 -77 73 -77c24 0 38 5 57 21c-38 45 -73 92 -99 145c-21 -32 -31 -51 -31 -89z" />
    <glyph glyph-name="quoteright" unicode="&#x2019;" horiz-adv-x="222" 
d="M170 722v-118l-69 -124h-53l49 124h-45v118h118z" />
    <glyph glyph-name="parenleft" unicode="(" horiz-adv-x="278" 
d="M150 732h96c-75 -116 -118 -260 -118 -409s43 -293 118 -409h-96c-73 114 -118 262 -118 409s45 295 118 409z" />
    <glyph glyph-name="parenright" unicode=")" horiz-adv-x="278" 
d="M32 732h96c73 -114 118 -262 118 -409s-45 -295 -118 -409h-96c75 116 118 260 118 409s-43 293 -118 409z" />
    <glyph glyph-name="asterisk" unicode="*" 
d="M372 645l30 -89c-51 -2 -101 -11 -151 -17c35 -38 71 -75 111 -107l-79 -55c-17 48 -40 94 -61 140c-21 -46 -44 -92 -61 -140l-79 55c40 32 76 69 111 107c-50 6 -100 15 -151 17l30 89c41 -25 83 -47 127 -67c-4 49 -13 97 -24 144h94c-11 -47 -20 -95 -24 -144
c44 20 86 42 127 67z" />
    <glyph glyph-name="plus" unicode="+" horiz-adv-x="600" 
d="M251 302v204h98v-204h204v-98h-204v-204h-98v204h-204v98h204z" />
    <glyph glyph-name="comma" unicode="," horiz-adv-x="222" 
d="M170 118v-118l-69 -124h-53l49 124h-45v118h118z" />
    <glyph glyph-name="hyphen" unicode="-" horiz-adv-x="333" 
d="M289 223h-245v92h245v-92z" />
    <glyph glyph-name="period" unicode="." horiz-adv-x="222" 
d="M170 0h-118v118h118v-118z" />
    <glyph glyph-name="slash" unicode="/" horiz-adv-x="278" 
d="M-21 -10l222 742h98l-222 -742h-98z" />
    <glyph glyph-name="zero" unicode="0" 
d="M280 157v408c0 47 -21 69 -58 69s-58 -22 -58 -69v-408c0 -47 21 -69 58 -69s58 22 58 69zM46 188v346c0 136 52 198 176 198s176 -62 176 -198v-346c0 -136 -52 -198 -176 -198s-176 62 -176 198z" />
    <glyph glyph-name="one" unicode="1" 
d="M177 0v572h-98v67c55 28 106 58 147 93h63v-732h-112z" />
    <glyph glyph-name="two" unicode="2" 
d="M389 0h-345v97c154 225 238 349 238 455c0 57 -22 82 -56 82c-40 0 -60 -31 -60 -75v-49h-118v34c0 106 68 188 184 188c102 0 168 -76 168 -160c0 -114 -36 -198 -230 -470h219v-102z" />
    <glyph glyph-name="three" unicode="3" 
d="M46 209h112v-49c0 -45 18 -72 56 -72c36 0 59 25 59 85v55c0 78 -30 102 -106 102v98c73 0 101 24 101 110c0 68 -13 96 -50 96c-35 0 -56 -17 -56 -74v-30h-112v34c0 98 61 168 169 168c107 0 161 -89 161 -185c0 -84 -14 -131 -78 -166c73 -38 89 -81 89 -179
c0 -144 -57 -212 -180 -212c-103 0 -165 52 -165 176v43z" />
    <glyph glyph-name="four" unicode="4" 
d="M111 266h123v282h-2zM232 0v174h-216v92l210 456h120v-456h66v-92h-66v-174h-114z" />
    <glyph glyph-name="five" unicode="5" 
d="M50 209h112v-58c0 -39 22 -63 55 -63c39 0 61 23 61 88v164c0 47 -24 66 -52 66c-38 0 -56 -25 -67 -55h-96c4 112 9 200 9 371h301l-4 -102h-195l-7 -156l2 -2c31 37 57 42 95 42c95 0 132 -69 132 -190v-100c0 -152 -48 -224 -168 -224c-100 0 -178 44 -178 164v55z
" />
    <glyph glyph-name="six" unicode="6" 
d="M383 528h-108v37c0 47 -16 69 -53 69s-58 -22 -58 -69v-169c32 32 52 48 102 48c72 0 132 -42 132 -148v-86c0 -152 -52 -220 -176 -220s-176 62 -176 198v346c0 136 52 198 176 198c98 2 161 -68 161 -160v-44zM164 313v-156c0 -47 21 -69 58 -69s58 22 58 69v120
c0 47 -21 69 -52 69c-22 0 -49 -21 -64 -33z" />
    <glyph glyph-name="seven" unicode="7" 
d="M263 620h-207v102h326v-70l-147 -652h-117z" />
    <glyph glyph-name="eight" unicode="8" 
d="M46 200c0 88 14 146 75 185c-44 32 -65 88 -65 144c0 140 64 203 166 203s166 -63 166 -203c0 -56 -21 -112 -65 -144c61 -39 75 -97 75 -185c0 -136 -60 -210 -176 -210s-176 74 -176 210zM222 88c48 0 64 45 64 120s-16 120 -64 120s-64 -45 -64 -120s16 -120 64 -120z
M222 436c38 0 54 29 54 99s-16 99 -54 99s-54 -29 -54 -99s16 -99 54 -99z" />
    <glyph glyph-name="nine" unicode="9" 
d="M61 194h108v-37c0 -47 16 -69 53 -69s58 22 58 69v169c-32 -32 -52 -48 -102 -48c-72 0 -132 42 -132 148v86c0 152 52 220 176 220s176 -62 176 -198v-346c0 -136 -52 -198 -176 -198c-98 -2 -161 68 -161 160v44zM280 409v156c0 47 -21 69 -58 69s-58 -22 -58 -69v-120
c0 -47 21 -69 52 -69c22 0 49 21 64 33z" />
    <glyph glyph-name="colon" unicode=":" horiz-adv-x="222" 
d="M170 0h-118v118h118v-118zM170 278h-118v118h118v-118z" />
    <glyph glyph-name="semicolon" unicode=";" horiz-adv-x="222" 
d="M170 118v-118l-69 -124h-53l49 124h-45v118h118zM170 278h-118v118h118v-118z" />
    <glyph glyph-name="less" unicode="&#x3c;" horiz-adv-x="600" 
d="M553 104v-104l-506 211v84l506 211v-104l-365 -149z" />
    <glyph glyph-name="equal" unicode="=" horiz-adv-x="600" 
d="M553 406v-98h-506v98h506zM553 198v-98h-506v98h506z" />
    <glyph glyph-name="greater" unicode="&#x3e;" horiz-adv-x="600" 
d="M47 0v104l365 149l-365 149v104l506 -211v-84z" />
    <glyph glyph-name="question" unicode="?" horiz-adv-x="389" 
d="M233 212h-96v84c0 69 26 125 52 173s52 89 52 126c0 24 -17 45 -42 45c-42 0 -62 -41 -71 -76l-96 36c31 88 86 132 181 132c75 0 144 -57 144 -134c0 -74 -31 -112 -62 -155c-31 -42 -62 -88 -62 -177v-54zM242 0h-118v118h118v-118z" />
    <glyph glyph-name="at" unicode="@" horiz-adv-x="800" 
d="M369 233c73 0 123 83 123 151c0 49 -32 87 -77 87c-73 0 -124 -83 -124 -149c0 -50 31 -89 78 -89zM523 496l16 52h81l-63 -257c-3 -12 -7 -26 -7 -39c0 -15 3 -27 16 -27c56 0 116 77 116 183c0 160 -118 246 -267 246c-171 0 -285 -126 -285 -295
c0 -171 125 -291 297 -291c83 0 160 30 213 83h83c-68 -103 -178 -161 -302 -161c-212 0 -381 148 -381 371c0 215 169 371 376 371c179 0 344 -121 344 -303c0 -205 -175 -286 -247 -286c-30 0 -55 17 -57 54l-2 1c-27 -30 -68 -55 -108 -55c-85 0 -155 75 -155 166
c0 126 85 252 215 252c49 0 90 -21 117 -65z" />
    <glyph glyph-name="A" unicode="A" 
d="M221 578l-49 -310h100l-49 310h-2zM154 160l-22 -160h-120l133 722h154l133 -722h-120l-22 160h-136z" />
    <glyph glyph-name="B" unicode="B" horiz-adv-x="500" 
d="M184 324v-222h52c66 0 90 38 90 111c0 74 -28 111 -102 111h-40zM184 620v-194h45c47 0 83 32 83 92c0 67 -26 102 -81 102h-47zM60 0v722h184c133 0 192 -68 192 -191c0 -62 -26 -127 -86 -151c63 -28 100 -78 100 -171c0 -119 -53 -209 -194 -209h-196z" />
    <glyph glyph-name="C" unicode="C" horiz-adv-x="500" 
d="M434 481h-124v56c0 61 -28 87 -60 87c-50 0 -66 -26 -66 -80v-366c0 -54 16 -80 66 -80c45 0 60 26 60 73v87h124v-83c0 -102 -60 -185 -184 -185c-130 0 -190 83 -190 185v372c0 102 60 185 190 185c124 0 184 -90 184 -198v-53z" />
    <glyph glyph-name="D" unicode="D" horiz-adv-x="500" 
d="M184 620v-518h43c66 0 89 25 89 101v316c0 76 -23 101 -89 101h-43zM60 0v722h184c128 0 196 -70 196 -218v-286c0 -148 -68 -218 -196 -218h-184z" />
    <glyph glyph-name="E" unicode="E" 
d="M406 0h-346v722h332v-108h-208v-186h160v-108h-160v-212h222v-108z" />
    <glyph glyph-name="F" unicode="F" 
d="M184 0h-124v722h346v-108h-222v-186h166v-108h-166v-320z" />
    <glyph glyph-name="G" unicode="G" horiz-adv-x="500" 
d="M231 268v98h203v-366h-60l-23 54c-37 -44 -67 -64 -125 -64c-98 0 -166 70 -166 185v372c0 102 60 185 182 185c124 0 186 -90 186 -198v-46h-118c0 108 -22 136 -71 136c-30 0 -55 -18 -55 -79v-371c0 -46 15 -76 58 -76c50 0 68 28 68 100v70h-79z" />
    <glyph glyph-name="H" unicode="H" horiz-adv-x="500" 
d="M184 0h-124v722h124v-294h132v294h124v-722h-124v320h-132v-320z" />
    <glyph glyph-name="I" unicode="I" horiz-adv-x="278" 
d="M201 0h-124v722h124v-722z" />
    <glyph glyph-name="J" unicode="J" horiz-adv-x="278" 
d="M3 -10v108h26c48 0 65 20 65 60v564h124v-578c0 -92 -37 -154 -174 -154h-41z" />
    <glyph glyph-name="K" unicode="K" 
d="M178 0h-124v722h124v-267h2l130 267h124l-134 -269l151 -453h-126l-101 336h-2l-44 -80v-256z" />
    <glyph glyph-name="L" unicode="L" horiz-adv-x="389" 
d="M373 0h-319v722h124v-614h195v-108z" />
    <glyph glyph-name="M" unicode="M" horiz-adv-x="611" 
d="M394 722h163v-722h-108v564h-2l-112 -564h-60l-112 564h-2v-564h-108v722h163l88 -422h2z" />
    <glyph glyph-name="N" unicode="N" horiz-adv-x="500" 
d="M172 0h-112v722h115l151 -413h2v413h112v-722h-108l-158 451h-2v-451z" />
    <glyph glyph-name="O" unicode="O" horiz-adv-x="500" 
d="M60 175v372c0 102 60 185 190 185s190 -83 190 -185v-372c0 -102 -60 -185 -190 -185s-190 83 -190 185zM184 544v-366c0 -54 16 -80 66 -80s66 26 66 80v366c0 54 -16 80 -66 80s-66 -26 -66 -80z" />
    <glyph glyph-name="P" unicode="P" horiz-adv-x="500" 
d="M184 620v-222h48c81 0 106 25 106 111s-25 111 -106 111h-48zM184 0h-124v722h178c153 0 224 -59 224 -213s-71 -213 -224 -213h-54v-296z" />
    <glyph glyph-name="Q" unicode="Q" horiz-adv-x="500" 
d="M477 54v-108c-46 0 -82 8 -126 67c-27 -15 -61 -23 -101 -23c-130 0 -190 83 -190 185v372c0 102 60 185 190 185s190 -83 190 -185v-372c0 -34 -7 -66 -21 -93c28 -24 45 -27 58 -28zM259 148v110c13 -7 33 -17 57 -44v330c0 54 -16 80 -66 80s-66 -26 -66 -80v-366
c0 -54 16 -80 66 -80c19 0 33 4 42 11c-14 26 -25 33 -33 39z" />
    <glyph glyph-name="R" unicode="R" horiz-adv-x="500" 
d="M184 620v-222h44c67 0 92 25 92 111s-25 111 -92 111h-44zM184 296v-296h-124v722h174c139 0 210 -59 210 -213c0 -116 -45 -163 -87 -182l105 -327h-126l-88 299c-16 -2 -42 -3 -64 -3z" />
    <glyph glyph-name="S" unicode="S" 
d="M404 557l-118 -13c-5 62 -38 80 -66 80c-40 0 -62 -26 -62 -71c0 -123 252 -182 252 -378c0 -119 -80 -185 -196 -185c-115 0 -181 92 -186 200l118 17c5 -73 34 -109 74 -109c43 0 72 23 72 66c0 143 -252 181 -252 388c0 115 70 180 192 180c101 0 161 -73 172 -175z
" />
    <glyph glyph-name="T" unicode="T" horiz-adv-x="389" 
d="M132 0v614h-120v108h364v-108h-120v-614h-124z" />
    <glyph glyph-name="U" unicode="U" horiz-adv-x="500" 
d="M60 182v540h124v-545c0 -53 21 -79 66 -79s66 26 66 79v545h124v-540c0 -124 -72 -192 -190 -192s-190 68 -190 192z" />
    <glyph glyph-name="V" unicode="V" 
d="M223 221l90 501h122l-151 -722h-124l-151 722h122l90 -501h2z" />
    <glyph glyph-name="W" unicode="W" horiz-adv-x="667" 
d="M194 262l81 460h102l84 -460h2l69 460h116l-127 -722h-104l-90 477h-2l-84 -477h-104l-137 722h116l76 -460h2z" />
    <glyph glyph-name="X" unicode="X" 
d="M14 0l142 378l-132 344h122l76 -229h2l69 229h122l-125 -344l140 -378h-122l-84 263h-2l-86 -263h-122z" />
    <glyph glyph-name="Y" unicode="Y" 
d="M284 300v-300h-124v300l-150 422h126l87 -275h2l83 275h126z" />
    <glyph glyph-name="Z" unicode="Z" 
d="M275 614h-203v108h328v-118l-228 -496h228v-108h-356v118z" />
    <glyph glyph-name="bracketleft" unicode="[" horiz-adv-x="278" 
d="M250 722v-48h-118v-702h118v-48h-214v798h214z" />
    <glyph glyph-name="backslash" unicode="\" horiz-adv-x="278" 
d="M77 732l222 -742h-98l-222 742h98z" />
    <glyph glyph-name="bracketright" unicode="]" horiz-adv-x="278" 
d="M28 674v48h214v-798h-214v48h118v702h-118z" />
    <glyph glyph-name="asciicircum" unicode="^" horiz-adv-x="600" 
d="M163 302h-107l190 420h108l190 -420h-109l-136 302z" />
    <glyph glyph-name="underscore" unicode="_" horiz-adv-x="500" 
d="M500 -125h-500v50h500v-50z" />
    <glyph glyph-name="quoteleft" unicode="&#x2018;" horiz-adv-x="222" 
d="M52 490v118l69 124h53l-49 -124h45v-118h-118z" />
    <glyph glyph-name="a" unicode="a" 
d="M154 380h-112c6 109 75 168 180 168c104 0 163 -48 163 -146v-345c0 -17 4 -39 7 -57h-107c-1 15 -5 29 -6 42c-42 -34 -77 -52 -131 -52c-76 0 -114 52 -114 121c0 118 78 183 239 244v32c0 45 -18 69 -55 69c-51 0 -62 -30 -64 -76zM273 132v141
c-102 -58 -127 -95 -127 -142c0 -35 18 -49 52 -49c31 0 56 23 75 50z" />
    <glyph glyph-name="b" unicode="b" 
d="M160 0h-106v722h112v-230c44 36 67 56 116 56c70 0 114 -52 114 -150v-258c0 -98 -44 -150 -114 -150c-56 0 -83 19 -120 66h-2v-56zM166 428v-318c22 -16 42 -28 64 -28c30 0 54 16 54 87v200c0 71 -24 87 -54 87c-22 0 -42 -12 -64 -28z" />
    <glyph glyph-name="c" unicode="c" 
d="M396 354h-112v14c0 62 -22 88 -62 88s-62 -26 -62 -88v-198c0 -62 22 -88 62 -88s62 26 62 88v34h112v-14c0 -118 -46 -200 -174 -200s-174 82 -174 200v158c0 118 46 200 174 200c126 0 172 -79 174 -194z" />
    <glyph glyph-name="d" unicode="d" 
d="M390 0h-106v56h-2c-37 -47 -64 -66 -120 -66c-70 0 -114 52 -114 150v258c0 98 44 150 114 150c49 0 72 -20 116 -56v230h112v-722zM278 110v318c-22 16 -42 28 -64 28c-30 0 -54 -16 -54 -87v-200c0 -71 24 -87 54 -87c22 0 42 12 64 28z" />
    <glyph glyph-name="e" unicode="e" 
d="M160 340h124v28c0 62 -22 88 -62 88s-62 -26 -62 -88v-28zM396 348v-100h-236v-78c0 -62 22 -88 62 -88s62 26 62 88v12h112c-2 -114 -49 -192 -174 -192c-128 0 -174 82 -174 200v158c0 118 46 200 174 200s174 -82 174 -200z" />
    <glyph glyph-name="f" unicode="f" horiz-adv-x="278" 
d="M76 0v446h-66v92h66v67c0 87 46 127 125 127h56v-92h-32c-27 0 -37 -10 -37 -36v-66h64v-92h-64v-446h-112z" />
    <glyph glyph-name="g" unicode="g" 
d="M426 548v-93c-6 1 -12 1 -18 1c-20 0 -38 -4 -54 -17c8 -28 12 -63 12 -85c0 -164 -56 -216 -170 -216h-36c-12 -3 -22 -12 -22 -25c0 -73 288 35 288 -155c0 -92 -86 -128 -230 -128c-112 0 -178 30 -178 86c0 42 34 75 73 84v2c-30 12 -51 33 -51 68c0 37 38 70 68 87
c-56 39 -72 67 -72 193c0 148 48 198 174 198c48 0 89 -17 124 -58c30 44 45 58 92 58zM231 -90c75 0 95 12 95 40s-20 40 -95 40s-95 -12 -95 -40s20 -40 95 -40zM198 230c44 0 56 22 56 113s-12 113 -56 113c-36 0 -56 -22 -56 -113s20 -113 56 -113z" />
    <glyph glyph-name="h" unicode="h" 
d="M166 0h-112v722h112v-234c41 36 65 60 130 60c59 0 94 -43 94 -113v-435h-112v417c0 27 -16 39 -40 39s-46 -15 -72 -34v-422z" />
    <glyph glyph-name="i" unicode="i" horiz-adv-x="222" 
d="M167 0h-112v538h112v-538zM167 620h-112v102h112v-102z" />
    <glyph glyph-name="j" unicode="j" horiz-adv-x="222" 
d="M0 -170v102h19c31 0 42 18 42 42v563h112v-568c0 -107 -61 -139 -130 -139h-43zM173 620h-112v102h112v-102z" />
    <glyph glyph-name="k" unicode="k" 
d="M411 538l-117 -170l130 -368h-113l-90 267h-2l-53 -79v-188h-112v722h112v-374h2l123 190h120z" />
    <glyph glyph-name="l" unicode="l" horiz-adv-x="222" 
d="M167 0h-112v722h112v-722z" />
    <glyph glyph-name="m" unicode="m" horiz-adv-x="667" 
d="M389 0h-112v417c0 27 -17 39 -39 39c-24 0 -46 -15 -72 -34v-422h-112v538h106v-54c47 40 71 64 124 64c56 0 74 -20 98 -64c54 52 84 64 125 64c70 0 105 -43 105 -113v-435h-112v417c0 27 -18 39 -40 39c-24 0 -46 -15 -71 -34v-422z" />
    <glyph glyph-name="n" unicode="n" 
d="M166 0h-112v538h106v-54c47 40 71 64 136 64c59 0 94 -43 94 -113v-435h-112v417c0 27 -16 39 -40 39s-46 -15 -72 -34v-422z" />
    <glyph glyph-name="o" unicode="o" 
d="M284 170v198c0 62 -22 88 -62 88s-62 -26 -62 -88v-198c0 -62 22 -88 62 -88s62 26 62 88zM48 190v158c0 118 46 200 174 200s174 -82 174 -200v-158c0 -118 -46 -200 -174 -200s-174 82 -174 200z" />
    <glyph glyph-name="p" unicode="p" 
d="M54 538h106v-56h2c37 47 64 66 120 66c70 0 114 -52 114 -150v-258c0 -98 -44 -150 -114 -150c-49 0 -72 20 -116 56v-216h-112v708zM166 428v-318c22 -16 42 -28 64 -28c30 0 54 16 54 87v200c0 71 -24 87 -54 87c-22 0 -42 -12 -64 -28z" />
    <glyph glyph-name="q" unicode="q" 
d="M284 538h106v-708h-112v216c-44 -36 -67 -56 -116 -56c-70 0 -114 52 -114 150v258c0 98 44 150 114 150c56 0 83 -19 120 -66h2v56zM278 110v318c-22 16 -42 28 -64 28c-30 0 -54 -16 -54 -87v-200c0 -71 24 -87 54 -87c22 0 42 12 64 28z" />
    <glyph glyph-name="r" unicode="r" horiz-adv-x="333" 
d="M166 0h-112v538h107v-63h2c27 46 74 73 127 73h23v-117c-20 5 -39 11 -72 11c-38 0 -75 -24 -75 -72v-370z" />
    <glyph glyph-name="s" unicode="s" horiz-adv-x="389" 
d="M353 405l-95 -16c-8 43 -28 67 -64 67c-29 0 -49 -15 -49 -43c0 -84 210 -118 210 -278c0 -96 -66 -145 -157 -145c-98 0 -154 56 -171 150l98 27c7 -45 23 -85 74 -85c29 0 50 17 50 47c0 93 -210 128 -210 275c0 85 66 144 150 144c88 0 147 -59 164 -143z" />
    <glyph glyph-name="t" unicode="t" horiz-adv-x="278" 
d="M72 446h-62v92h62v145h112v-145h75v-92h-75v-310c0 -28 12 -44 38 -44h37v-96c-15 -4 -28 -6 -56 -6c-84 0 -131 39 -131 121v335z" />
    <glyph glyph-name="u" unicode="u" 
d="M278 538h112v-538h-106v54c-47 -40 -71 -64 -136 -64c-59 0 -94 43 -94 113v435h112v-417c0 -27 16 -39 40 -39s46 15 72 34v422z" />
    <glyph glyph-name="v" unicode="v" horiz-adv-x="389" 
d="M195 178l70 360h114l-130 -538h-109l-130 538h114l69 -360h2z" />
    <glyph glyph-name="w" unicode="w" horiz-adv-x="556" 
d="M165 202l71 335h83l60 -335h2l61 336h108l-124 -538h-90l-61 340h-2l-73 -340h-90l-104 538h108l49 -336h2z" />
    <glyph glyph-name="x" unicode="x" horiz-adv-x="389" 
d="M12 0l120 285l-111 253h116l57 -150l60 150h116l-116 -251l122 -287h-116l-65 182h-2l-65 -182h-116z" />
    <glyph glyph-name="y" unicode="y" horiz-adv-x="389" 
d="M198 194l68 344h113l-141 -578c-24 -98 -69 -129 -153 -129h-47v92h27c56 0 74 30 74 87c0 22 -5 45 -12 71l-117 457h114l72 -344h2z" />
    <glyph glyph-name="z" unicode="z" horiz-adv-x="389" 
d="M235 446h-191v92h315v-92l-209 -354h209v-92h-329v92z" />
    <glyph glyph-name="braceleft" unicode="{" horiz-adv-x="278" 
d="M0 296v58c29 0 56 24 56 80v202c0 64 24 96 104 96h110v-48h-82c-27 0 -36 -20 -36 -50v-194c0 -81 -52 -111 -76 -114v-3c24 -4 76 -30 76 -117v-194c0 -30 9 -50 36 -50h82v-48h-110c-80 0 -104 32 -104 96v206c0 56 -27 80 -56 80z" />
    <glyph glyph-name="bar" unicode="|" horiz-adv-x="222" 
d="M62 -10v742h98v-742h-98z" />
    <glyph glyph-name="braceright" unicode="}" horiz-adv-x="278" 
d="M278 350v-58c-29 0 -56 -24 -56 -80v-202c0 -64 -24 -96 -104 -96h-110v48h82c27 0 36 20 36 50v194c0 81 52 111 76 114v3c-24 4 -76 30 -76 117v194c0 30 -9 50 -36 50h-82v48h110c80 0 104 -32 104 -96v-206c0 -56 27 -80 56 -80z" />
    <glyph glyph-name="asciitilde" unicode="~" horiz-adv-x="600" 
d="M495 335l44 -86c-38 -34 -71 -78 -133 -78c-37 0 -69 15 -102 33c-28 16 -69 31 -115 31c-44 0 -68 -33 -84 -64l-44 86c30 34 66 78 133 78c34 0 73 -15 111 -32c37 -16 67 -32 102 -32c40 0 65 33 88 64z" />
    <glyph glyph-name="exclamdown" unicode="&#xa1;" horiz-adv-x="278" 
d="M180 326l22 -510h-126l22 510h82zM80 538h118v-118h-118v118z" />
    <glyph glyph-name="cent" unicode="&#xa2;" 
d="M158 148l81 317c-5 1 -10 1 -16 1c-42 0 -73 -26 -73 -88v-198c0 -12 4 -23 6 -32h2zM401 364h-104v14c0 26 -5 45 -15 59l-91 -337c9 -6 20 -8 32 -8c43 0 71 26 71 88v34h112v-14c0 -118 -47 -200 -183 -200c-16 0 -30 1 -43 4l-33 -120h-75l40 145
c-53 33 -74 94 -74 171v158c0 118 50 200 185 200c12 0 22 -1 32 -2l35 128h74l-41 -150c54 -32 77 -92 78 -170z" />
    <glyph glyph-name="sterling" unicode="&#xa3;" 
d="M35 -10v107c63 21 77 77 77 222h-77v84h63c-14 61 -28 123 -28 164c0 103 52 165 165 165c109 0 161 -64 161 -202h-102c-4 88 -20 110 -62 110c-34 0 -50 -20 -50 -64c0 -58 18 -109 29 -173h99v-84h-90c-2 -89 -4 -149 -35 -203c20 -14 45 -24 70 -24
c43 0 51 50 51 107h100v-59c0 -94 -48 -150 -133 -150c-51 0 -93 20 -128 48c-35 -24 -69 -44 -110 -48z" />
    <glyph glyph-name="fraction" unicode="&#x2044;" horiz-adv-x="167" 
d="M-76 -10h-91l410 742h91z" />
    <glyph glyph-name="yen" unicode="&#xa5;" 
d="M418 468v-84h-121l-27 -80h148v-84h-148v-220h-96v220h-148v84h148l-27 80h-121v84h87l-91 254h100l101 -299h2l97 299h100l-91 -254h87z" />
    <glyph glyph-name="florin" unicode="&#x192;" 
d="M34 -165v92c8 -4 19 -5 29 -5c71 0 79 64 104 440h-93v84h100c12 214 90 286 189 286c16 0 31 -3 47 -5v-94c-16 9 -32 13 -51 13c-43 0 -75 -40 -79 -200h102v-84h-106c-20 -338 -46 -532 -203 -532c-13 0 -27 2 -39 5z" />
    <glyph glyph-name="section" unicode="&#xa7;" horiz-adv-x="500" 
d="M402 652l-69 -50c-20 22 -43 52 -76 52c-34 0 -52 -15 -52 -46c0 -86 243 -193 243 -328c0 -65 -39 -116 -108 -118c31 -30 50 -58 50 -108c0 -79 -55 -134 -132 -134c-73 0 -119 32 -170 81l73 57c16 -30 39 -60 79 -60c34 0 58 16 58 50c0 87 -246 212 -246 343
c0 67 46 107 111 114c-33 25 -50 63 -50 105c0 70 47 122 144 122c61 0 114 -36 145 -80zM144 399c0 -31 128 -173 166 -173c26 0 46 21 46 44c0 28 -124 171 -168 171c-28 0 -44 -20 -44 -42z" />
    <glyph glyph-name="currency" unicode="&#xa4;" 
d="M436 199l-50 -53l-48 48c-32 -22 -73 -36 -116 -36c-44 0 -85 14 -117 36l-47 -48l-50 53l47 46c-23 32 -37 73 -37 116s14 84 37 116l-47 46l50 53l47 -48c32 22 73 36 117 36c43 0 84 -14 116 -36l48 48l50 -53l-47 -46c23 -32 37 -73 37 -116s-14 -84 -37 -116z
M110 361c0 -66 50 -117 112 -117s112 51 112 117s-50 117 -112 117s-112 -51 -112 -117z" />
    <glyph glyph-name="quotesingle" unicode="'" horiz-adv-x="222" 
d="M64 448v274h94v-274h-94z" />
    <glyph glyph-name="quotedblleft" unicode="&#x201c;" 
d="M70 490v118l69 124h53l-49 -124h45v-118h-118zM255 490v118l69 124h53l-49 -124h45v-118h-118z" />
    <glyph glyph-name="guillemotleft" unicode="&#xab;" horiz-adv-x="500" 
d="M160 269l114 -154h-96l-115 155l115 153h99zM327 269l114 -154h-96l-115 155l115 153h99z" />
    <glyph glyph-name="guilsinglleft" unicode="&#x2039;" horiz-adv-x="333" 
d="M160 269l114 -154h-96l-115 155l115 153h99z" />
    <glyph glyph-name="guilsinglright" unicode="&#x203a;" horiz-adv-x="333" 
d="M59 115l114 154l-117 154h99l115 -153l-115 -155h-96z" />
    <glyph glyph-name="endash" unicode="&#x2013;" horiz-adv-x="500" 
d="M500 233h-500v72h500v-72z" />
    <glyph glyph-name="dagger" unicode="&#x2020;" horiz-adv-x="500" 
d="M434 574v-124l-167 42l45 -169c-20 -67 -30 -207 -43 -403h-38c-13 196 -23 336 -43 403l45 169l-167 -42v124l163 -42l-39 200h120l-39 -200z" />
    <glyph glyph-name="daggerdbl" unicode="&#x2021;" horiz-adv-x="500" 
d="M434 574v-124l-167 42l45 -166l-45 -166l167 42v-124l-163 42l39 -200h-120l39 200l-163 -42v124l167 -42l-45 166l45 166l-167 -42v124l163 -42l-39 200h120l-39 -200z" />
    <glyph glyph-name="periodcentered" unicode="&#xb7;" horiz-adv-x="222" 
d="M44 253c0 37 29 67 67 67c37 0 67 -30 67 -67c0 -38 -30 -67 -67 -67c-38 0 -67 29 -67 67z" />
    <glyph glyph-name="paragraph" unicode="&#xb6;" horiz-adv-x="500" 
d="M195 -80v432c-117 0 -189 77 -189 182c0 134 81 188 208 188h288v-64h-56v-738h-82v738h-87v-738h-82z" />
    <glyph glyph-name="bullet" unicode="&#x2022;" horiz-adv-x="500" 
d="M69 361c0 100 80 180 180 180s181 -80 181 -180s-81 -181 -181 -181s-180 81 -180 181z" />
    <glyph glyph-name="quotesinglbase" unicode="&#x201a;" horiz-adv-x="222" 
d="M170 118v-118l-69 -124h-53l49 124h-45v118h118z" />
    <glyph glyph-name="quotedblbase" unicode="&#x201e;" 
d="M374 118v-118l-69 -124h-53l49 124h-45v118h118zM189 118v-118l-69 -124h-53l49 124h-45v118h118z" />
    <glyph glyph-name="quotedblright" unicode="&#x201d;" 
d="M374 722v-118l-69 -124h-53l49 124h-45v118h118zM189 722v-118l-69 -124h-53l49 124h-45v118h118z" />
    <glyph glyph-name="guillemotright" unicode="&#xbb;" horiz-adv-x="500" 
d="M226 115l114 154l-117 154h99l115 -153l-115 -155h-96zM59 115l114 154l-117 154h99l115 -153l-115 -155h-96z" />
    <glyph glyph-name="ellipsis" unicode="&#x2026;" horiz-adv-x="1000" 
d="M224 0h-114v118h114v-118zM557 0h-114v118h114v-118zM890 0h-114v118h114v-118z" />
    <glyph glyph-name="perthousand" unicode="&#x2030;" horiz-adv-x="1000" 
d="M14 572c0 83 67 150 150 150s150 -67 150 -150s-67 -150 -150 -150s-150 67 -150 150zM94 572c0 -39 31 -70 70 -70s70 31 70 70s-31 70 -70 70s-70 -31 -70 -70zM332 150c0 83 67 150 150 150s150 -67 150 -150s-67 -150 -150 -150s-150 67 -150 150zM412 150
c0 -39 31 -70 70 -70s70 31 70 70s-31 70 -70 70s-70 -31 -70 -70zM686 150c0 83 67 150 150 150s150 -67 150 -150s-67 -150 -150 -150s-150 67 -150 150zM766 150c0 -39 31 -70 70 -70s70 31 70 70s-31 70 -70 70s-70 -31 -70 -70zM96 -10l411 742h70l-411 -742h-70z" />
    <glyph glyph-name="questiondown" unicode="&#xbf;" horiz-adv-x="389" 
d="M156 326h96v-84c0 -69 -26 -125 -52 -173s-52 -89 -52 -126c0 -24 17 -45 42 -45c42 0 62 41 71 76l96 -36c-31 -88 -86 -132 -181 -132c-75 0 -144 57 -144 134c0 74 31 112 62 155c31 42 62 88 62 177v54zM147 538h118v-118h-118v118z" />
    <glyph glyph-name="grave" unicode="`" horiz-adv-x="222" 
d="M99 602l-131 144h135l79 -144h-83z" />
    <glyph glyph-name="acute" unicode="&#xb4;" horiz-adv-x="222" 
d="M254 746l-131 -144h-83l79 144h135z" />
    <glyph glyph-name="circumflex" unicode="&#x2c6;" horiz-adv-x="222" 
d="M-40 602l96 144h110l96 -144h-92l-59 89l-59 -89h-92z" />
    <glyph glyph-name="tilde" unicode="&#x2dc;" horiz-adv-x="222" 
d="M218 733h56c-11 -57 -36 -118 -103 -118c-24 0 -45 10 -65 20s-39 19 -60 19c-31 0 -41 -15 -42 -44h-56c11 57 36 118 103 118c24 0 45 -10 65 -19s39 -20 60 -20c31 0 41 15 42 44z" />
    <glyph glyph-name="macron" unicode="&#xaf;" horiz-adv-x="222" 
d="M-36 637v64h294v-64h-294z" />
    <glyph glyph-name="breve" unicode="&#x2d8;" horiz-adv-x="222" 
d="M200 749h58c-5 -76 -50 -142 -147 -142s-142 66 -147 142h58c7 -52 36 -74 89 -74s82 22 89 74z" />
    <glyph glyph-name="dotaccent" unicode="&#x2d9;" horiz-adv-x="222" 
d="M57 722h108v-108h-108v108z" />
    <glyph glyph-name="dieresis" unicode="&#xa8;" horiz-adv-x="222" 
d="M244 614h-108v108h108v-108zM-22 722h108v-108h-108v108z" />
    <glyph glyph-name="ring" unicode="&#x2da;" horiz-adv-x="222" 
d="M59 704c0 -29 23 -52 52 -52s52 23 52 52s-23 52 -52 52s-52 -23 -52 -52zM9 704c0 56 46 102 102 102s102 -46 102 -102s-46 -102 -102 -102s-102 46 -102 102z" />
    <glyph glyph-name="cedilla" unicode="&#xb8;" horiz-adv-x="222" 
d="M-9 -213l17 50c16 -8 47 -17 65 -17c35 0 59 18 59 41c0 41 -56 40 -83 29l-22 18l68 92h48l-41 -60c7 1 14 2 21 2c44 -2 91 -26 91 -76c0 -64 -60 -102 -124 -102c-48 0 -84 16 -99 23z" />
    <glyph glyph-name="hungarumlaut" unicode="&#x2dd;" horiz-adv-x="222" 
d="M158 746l-125 -144h-79l69 144h135zM334 746l-131 -144h-83l79 144h135z" />
    <glyph glyph-name="ogonek" unicode="&#x2db;" horiz-adv-x="222" 
d="M243 21v-12c-51 -21 -133 -57 -133 -125c0 -31 22 -47 49 -47c31 0 66 23 90 40l19 -36c-43 -31 -89 -60 -142 -60c-55 0 -98 32 -98 92c0 105 140 135 215 148z" />
    <glyph glyph-name="caron" unicode="&#x2c7;" horiz-adv-x="222" 
d="M262 746l-96 -144h-110l-96 144h92l59 -89l59 89h92z" />
    <glyph glyph-name="emdash" unicode="&#x2014;" horiz-adv-x="1000" 
d="M1000 233h-1000v72h1000v-72z" />
    <glyph glyph-name="AE" unicode="&#xc6;" horiz-adv-x="722" 
d="M224 278h110v354h-2zM12 0l233 722h425v-108h-212v-186h164v-108h-164v-212h226v-108h-350v170h-144l-52 -170h-126z" />
    <glyph glyph-name="ordfeminine" unicode="&#xaa;" horiz-adv-x="266" 
d="M92 631h-78c2 33 15 58 36 75s50 26 86 26c68 0 106 -29 106 -88v-208c0 -10 3 -23 5 -34h-70c0 7 -3 13 -4 21c-27 -20 -50 -27 -85 -27c-49 0 -74 31 -74 73c0 71 51 110 150 147v19c0 27 -10 37 -34 37c-29 0 -37 -17 -38 -41zM164 486v73c-61 -31 -72 -49 -72 -77
c0 -19 11 -26 29 -26c20 0 36 14 43 30z" />
    <glyph glyph-name="Lslash" unicode="&#x141;" horiz-adv-x="389" 
d="M178 339v-231h195v-108h-319v290l-54 -22v82l54 22v350h124v-301l116 47v-82z" />
    <glyph glyph-name="Oslash" unicode="&#xd8;" horiz-adv-x="500" 
d="M186 257l126 325c-7 28 -25 42 -62 42c-50 0 -66 -26 -66 -80v-287h2zM314 424l-117 -303c8 -15 26 -23 53 -23c50 0 66 26 66 80v246h-2zM160 7l-50 -127h-82l69 176c-25 32 -37 73 -37 119v372c0 102 60 185 190 185c41 0 75 -8 103 -24l38 96h81l-59 -152
c18 -29 27 -66 27 -105v-372c0 -102 -60 -185 -190 -185c-35 0 -65 6 -90 17z" />
    <glyph glyph-name="OE" unicode="&#x152;" horiz-adv-x="722" 
d="M330 185v355c0 54 -28 75 -69 75c-55 0 -77 -39 -77 -95v-315c0 -56 22 -95 77 -95c41 0 69 21 69 75zM684 0h-414c-138 0 -210 78 -210 220v282c0 142 72 220 210 220h400v-108h-216v-186h168v-108h-168v-212h230v-108z" />
    <glyph glyph-name="ordmasculine" unicode="&#xba;" horiz-adv-x="266" 
d="M164 509v110c0 33 -11 49 -31 49s-31 -16 -31 -49v-110c0 -33 11 -49 31 -49s31 16 31 49zM20 517v95c0 71 30 120 113 120c84 0 113 -49 113 -120v-95c0 -71 -29 -121 -113 -121c-83 0 -113 50 -113 121z" />
    <glyph glyph-name="ae" unicode="&#xe6;" horiz-adv-x="667" 
d="M272 132v141c-101 -58 -126 -95 -126 -142c0 -35 18 -49 52 -49c31 0 56 23 74 50zM384 340h123v28c0 62 -22 88 -62 88s-61 -26 -61 -88v-28zM619 248h-235v-78c0 -62 21 -88 61 -88s62 26 62 88v12h112c-2 -114 -49 -192 -174 -192c-66 0 -111 28 -136 70
c-73 -65 -116 -70 -149 -70c-88 0 -126 52 -126 121c0 118 78 183 238 244v32c0 45 -17 69 -54 69c-51 0 -62 -30 -64 -76h-112c6 109 75 168 164 168c58 0 102 -18 129 -50c27 35 68 50 119 50c119 0 165 -82 165 -200v-100z" />
    <glyph glyph-name="dotlessi" unicode="&#x131;" horiz-adv-x="222" 
d="M167 0h-112v538h112v-538z" />
    <glyph glyph-name="lslash" unicode="&#x142;" horiz-adv-x="222" 
d="M167 390v-390h-112v333l-70 -36v74l70 36v315h112v-258l70 36v-74z" />
    <glyph glyph-name="oslash" unicode="&#xf8;" 
d="M282 353l-98 -259c11 -8 23 -12 38 -12c40 0 62 26 62 88v183h-2zM153 1l-45 -121h-66l58 153c-37 36 -52 91 -52 157v158c0 118 46 200 174 200c27 0 50 -4 71 -11l41 109h68l-54 -143c34 -36 48 -90 48 -155v-158c0 -118 -46 -200 -174 -200c-27 0 -50 4 -69 11z
M162 173l100 269c-10 10 -24 14 -40 14c-40 0 -62 -26 -62 -88v-195h2z" />
    <glyph glyph-name="oe" unicode="&#x153;" horiz-adv-x="667" 
d="M278 170v198c0 62 -22 88 -56 88c-40 0 -62 -26 -62 -88v-198c0 -62 22 -88 62 -88c34 0 56 26 56 88zM390 340h117v28c0 62 -22 88 -62 88s-55 -26 -55 -88v-28zM619 248h-229v-78c0 -62 15 -88 55 -88s62 26 62 88v12h112c-2 -114 -49 -192 -162 -192
c-61 0 -99 23 -121 62c-21 -39 -59 -62 -126 -62c-116 0 -162 82 -162 200v158c0 118 46 200 162 200c69 0 107 -20 128 -61c24 41 63 61 119 61c116 0 162 -82 162 -200v-100z" />
    <glyph glyph-name="germandbls" unicode="&#xdf;" 
d="M166 0h-112v540c0 125 58 188 159 188c134 0 170 -87 170 -197c0 -79 -21 -127 -73 -134v-2c63 -20 92 -76 92 -191c0 -158 -42 -204 -116 -204h-66v95c8 -2 17 -3 27 -3c30 0 39 22 39 67v101c0 54 -22 78 -62 78v92c39 6 47 18 47 72v70c0 46 -17 64 -52 64
c-38 0 -53 -22 -53 -74v-562z" />
    <glyph glyph-name="onesuperior" unicode="&#xb9;" horiz-adv-x="266" 
d="M94 292v335h-52v48c39 15 72 35 99 57h49v-440h-96z" />
    <glyph glyph-name="logicalnot" unicode="&#xac;" horiz-adv-x="600" 
d="M455 99v209h-408v98h506v-307h-98z" />
    <glyph glyph-name="mu" unicode="&#xb5;" 
d="M278 538h112v-538h-106v54c-42 -36 -66 -59 -118 -64v-160h-112v708h112v-417c0 -27 16 -39 40 -39s46 15 72 34v422z" />
    <glyph glyph-name="trademark" unicode="&#x2122;" horiz-adv-x="990" 
d="M559 722l103 -271l103 271h135v-412h-92v302h-2l-110 -302h-69l-110 302h-2v-302h-92v412h136zM370 722v-75h-120v-337h-96v337h-120v75h336z" />
    <glyph glyph-name="Eth" unicode="&#xd0;" horiz-adv-x="500" 
d="M20 320v108h40v294h184c128 0 196 -70 196 -218v-286c0 -148 -68 -218 -196 -218h-184v320h-40zM258 428v-108h-74v-218h43c66 0 89 25 89 101v316c0 76 -23 101 -89 101h-43v-192h74z" />
    <glyph glyph-name="onehalf" unicode="&#xbd;" horiz-adv-x="666" 
d="M157 -10h-91l410 742h91zM100 292v335h-52v48c39 15 72 35 99 57h49v-440h-96zM633 0h-235v81c99 113 146 188 146 251c0 18 -9 28 -28 28s-32 -16 -32 -34v-19h-86v20c0 64 53 113 129 113c66 0 109 -45 109 -96c0 -72 -17 -137 -129 -264h126v-80z" />
    <glyph glyph-name="plusminus" unicode="&#xb1;" horiz-adv-x="600" 
d="M251 369v137h98v-137h204v-98h-204v-137h-98v137h-204v98h204zM47 0v98h506v-98h-506z" />
    <glyph glyph-name="Thorn" unicode="&#xde;" horiz-adv-x="500" 
d="M184 722v-140h54c153 0 224 -59 224 -213s-71 -213 -224 -213h-54v-156h-124v722h124zM184 480v-222h48c81 0 106 25 106 111s-25 111 -106 111h-48z" />
    <glyph glyph-name="onequarter" unicode="&#xbc;" horiz-adv-x="666" 
d="M448 176h64v133h-2zM512 0v100h-142v80l129 253h95v-257h38v-76h-38v-100h-82zM165 -10h-91l410 742h91zM102 292v335h-52v48c39 15 72 35 99 56h49v-439h-96z" />
    <glyph glyph-name="divide" unicode="&#xf7;" horiz-adv-x="600" 
d="M553 204h-506v98h506v-98zM220 460c0 44 36 80 80 80s80 -36 80 -80s-36 -80 -80 -80s-80 36 -80 80zM220 46c0 44 36 80 80 80s80 -36 80 -80s-36 -80 -80 -80s-80 36 -80 80z" />
    <glyph glyph-name="brokenbar" unicode="&#xa6;" horiz-adv-x="222" 
d="M160 296v-306h-98v306h98zM160 732v-306h-98v306h98z" />
    <glyph glyph-name="degree" unicode="&#xb0;" horiz-adv-x="400" 
d="M200 502c48 0 82 39 82 87s-34 87 -82 87s-82 -39 -82 -87s34 -87 82 -87zM200 446c-81 0 -144 63 -144 143s63 143 144 143s144 -63 144 -143s-63 -143 -144 -143z" />
    <glyph glyph-name="thorn" unicode="&#xfe;" 
d="M54 722h112v-235h2c31 42 58 61 114 61c70 0 114 -52 114 -150v-258c0 -98 -44 -150 -114 -150c-49 0 -72 20 -116 56v-216h-112v892zM166 428v-318c22 -16 42 -28 64 -28c30 0 54 16 54 87v200c0 71 -24 87 -54 87c-22 0 -42 -12 -64 -28z" />
    <glyph glyph-name="threequarters" unicode="&#xbe;" horiz-adv-x="666" 
d="M448 176h64v133h-2zM512 0v100h-142v80l129 253h95v-257h38v-76h-38v-100h-82zM184 -10h-91l410 742h91zM30 418h86v-21c0 -19 8 -31 27 -31c18 0 27 11 27 39v25c0 47 -18 54 -57 54v74c37 0 55 9 55 58c0 24 -8 40 -26 40c-17 0 -25 -13 -25 -28v-17h-84v20
c0 59 43 101 113 101c78 0 114 -53 114 -111c0 -50 -9 -78 -47 -99c44 -23 53 -49 53 -108c0 -86 -37 -128 -125 -128c-67 0 -111 32 -111 107v25z" />
    <glyph glyph-name="twosuperior" unicode="&#xb2;" horiz-adv-x="266" 
d="M249 292h-235v81c99 113 146 188 146 251c0 18 -9 28 -28 28s-32 -16 -32 -34v-19h-86v20c0 64 53 113 129 113c66 0 109 -45 109 -96c0 -72 -17 -137 -129 -264h126v-80z" />
    <glyph glyph-name="registered" unicode="&#xae;" horiz-adv-x="800" 
d="M334 331v-177h-82v415h157c104 0 161 -33 161 -123c0 -76 -46 -106 -100 -111l100 -181h-91l-93 177h-52zM334 505v-110h71c60 0 81 19 81 58s-25 52 -85 52h-67zM400 -10c-201 0 -380 145 -380 371c0 225 179 371 380 371s380 -146 380 -371c0 -226 -179 -371 -380 -371
zM682 361c0 171 -126 293 -282 293c-158 0 -282 -122 -282 -293s124 -293 282 -293c156 0 282 122 282 293z" />
    <glyph glyph-name="minus" unicode="&#x2212;" horiz-adv-x="600" 
d="M553 204h-506v98h506v-98z" />
    <glyph glyph-name="eth" unicode="&#xf0;" 
d="M284 163v162c0 57 -22 81 -62 81s-62 -24 -62 -81v-162c0 -57 22 -81 62 -81s62 24 62 81zM386 718l30 -70l-95 -37c44 -78 75 -183 75 -297v-140c0 -109 -46 -184 -174 -184s-174 75 -174 184v140c0 109 46 184 174 184c12 0 23 -1 37 -2c-3 30 -17 58 -29 80l-105 -40
l-27 72l93 35c-13 19 -29 39 -47 55l86 24c17 -12 33 -28 47 -46z" />
    <glyph glyph-name="multiply" unicode="&#xd7;" horiz-adv-x="600" 
d="M553 437l-183 -184l183 -183l-69 -70l-184 184l-184 -184l-69 70l184 183l-184 184l69 69l184 -184l184 184z" />
    <glyph glyph-name="threesuperior" unicode="&#xb3;" horiz-adv-x="266" 
d="M20 418h86v-21c0 -19 8 -31 27 -31c18 0 27 11 27 39v25c0 47 -18 54 -57 54v74c37 0 55 9 55 58c0 24 -8 40 -26 40c-17 0 -25 -13 -25 -28v-17h-84v20c0 59 43 101 113 101c78 0 114 -53 114 -111c0 -50 -9 -78 -47 -99c44 -23 53 -49 53 -108
c0 -86 -37 -128 -125 -128c-67 0 -111 32 -111 107v25z" />
    <glyph glyph-name="copyright" unicode="&#xa9;" horiz-adv-x="800" 
d="M400 -10c-201 0 -380 145 -380 371c0 225 179 371 380 371s380 -146 380 -371c0 -226 -179 -371 -380 -371zM682 361c0 171 -126 293 -282 293c-158 0 -282 -122 -282 -293s124 -293 282 -293c156 0 282 122 282 293zM514 299h81c-17 -99 -93 -157 -181 -157
c-128 0 -212 97 -212 221c0 127 79 221 210 221c91 0 165 -53 180 -154h-78c-10 50 -51 76 -102 76c-75 0 -116 -58 -116 -141c0 -80 47 -145 118 -145c55 0 94 29 100 79z" />
    <glyph glyph-name="Aacute" unicode="&#xc1;" 
d="M221 578l-49 -310h100l-49 310h-2zM154 160l-22 -160h-120l133 722h154l133 -722h-120l-22 160h-136zM365 903l-131 -144h-83l79 144h135z" />
    <glyph glyph-name="Acircumflex" unicode="&#xc2;" 
d="M221 578l-49 -310h100l-49 310h-2zM154 160l-22 -160h-120l133 722h154l133 -722h-120l-22 160h-136zM71 759l96 144h110l96 -144h-92l-59 89l-59 -89h-92z" />
    <glyph glyph-name="Adieresis" unicode="&#xc4;" 
d="M221 578l-49 -310h100l-49 310h-2zM154 160l-22 -160h-120l133 722h154l133 -722h-120l-22 160h-136zM355 771h-108v108h108v-108zM89 879h108v-108h-108v108z" />
    <glyph glyph-name="Agrave" unicode="&#xc0;" 
d="M221 578l-49 -310h100l-49 310h-2zM154 160l-22 -160h-120l133 722h154l133 -722h-120l-22 160h-136zM210 759l-131 144h135l79 -144h-83z" />
    <glyph glyph-name="Aring" unicode="&#xc5;" 
d="M221 578l-49 -310h100l-49 310h-2zM154 160l-22 -160h-120l133 722h154l133 -722h-120l-22 160h-136zM170 862c0 -29 23 -52 52 -52s52 23 52 52s-23 52 -52 52s-52 -23 -52 -52zM120 862c0 56 46 102 102 102s102 -46 102 -102s-46 -102 -102 -102s-102 46 -102 102z
" />
    <glyph glyph-name="Atilde" unicode="&#xc3;" 
d="M221 578l-49 -310h100l-49 310h-2zM154 160l-22 -160h-120l133 722h154l133 -722h-120l-22 160h-136zM329 891h56c-11 -57 -36 -118 -103 -118c-24 0 -45 10 -65 20s-39 19 -60 19c-31 0 -41 -15 -42 -44h-56c11 57 36 118 103 118c24 0 45 -10 65 -19s39 -20 60 -20
c31 0 41 15 42 44z" />
    <glyph glyph-name="Ccedilla" unicode="&#xc7;" horiz-adv-x="500" 
d="M434 481h-124v56c0 61 -28 87 -60 87c-50 0 -66 -26 -66 -80v-366c0 -54 16 -80 66 -80c45 0 60 26 60 73v87h124v-83c0 -95 -52 -173 -158 -184l-35 -51c7 1 14 2 21 2c44 -2 91 -26 91 -76c0 -64 -60 -102 -124 -102c-48 0 -84 16 -99 23l17 50c16 -8 47 -17 65 -17
c35 0 59 18 59 41c0 41 -56 40 -83 29l-22 18l61 83c-114 9 -167 88 -167 184v372c0 102 60 185 190 185c124 0 184 -90 184 -198v-53z" />
    <glyph glyph-name="Eacute" unicode="&#xc9;" 
d="M406 0h-346v722h332v-108h-208v-186h160v-108h-160v-212h222v-108zM377 904l-131 -144h-83l79 144h135z" />
    <glyph glyph-name="Ecircumflex" unicode="&#xca;" 
d="M406 0h-346v722h332v-108h-208v-186h160v-108h-160v-212h222v-108zM83 759l96 144h110l96 -144h-92l-59 89l-59 -89h-92z" />
    <glyph glyph-name="Edieresis" unicode="&#xcb;" 
d="M406 0h-346v722h332v-108h-208v-186h160v-108h-160v-212h222v-108zM367 771h-108v108h108v-108zM101 879h108v-108h-108v108z" />
    <glyph glyph-name="Egrave" unicode="&#xc8;" 
d="M406 0h-346v722h332v-108h-208v-186h160v-108h-160v-212h222v-108zM222 759l-131 144h135l79 -144h-83z" />
    <glyph glyph-name="Iacute" unicode="&#xcd;" horiz-adv-x="278" 
d="M201 0h-124v722h124v-722zM281 903l-131 -144h-83l79 144h135z" />
    <glyph glyph-name="Icircumflex" unicode="&#xce;" horiz-adv-x="278" 
d="M201 0h-124v722h124v-722zM-12 759l96 144h110l96 -144h-92l-59 89l-59 -89h-92z" />
    <glyph glyph-name="Idieresis" unicode="&#xcf;" horiz-adv-x="278" 
d="M201 0h-124v722h124v-722zM272 772h-108v108h108v-108zM6 880h108v-108h-108v108z" />
    <glyph glyph-name="Igrave" unicode="&#xcc;" horiz-adv-x="278" 
d="M201 0h-124v722h124v-722zM127 760l-131 144h135l79 -144h-83z" />
    <glyph glyph-name="Ntilde" unicode="&#xd1;" horiz-adv-x="500" 
d="M172 0h-112v722h115l151 -413h2v413h112v-722h-108l-158 451h-2v-451zM357 891h56c-11 -57 -36 -118 -103 -118c-24 0 -45 10 -65 20s-39 19 -60 19c-31 0 -41 -15 -42 -44h-56c11 57 36 118 103 118c24 0 45 -10 65 -19s39 -20 60 -20c31 0 41 15 42 44z" />
    <glyph glyph-name="Oacute" unicode="&#xd3;" horiz-adv-x="500" 
d="M60 175v372c0 102 60 185 190 185s190 -83 190 -185v-372c0 -102 -60 -185 -190 -185s-190 83 -190 185zM184 544v-366c0 -54 16 -80 66 -80s66 26 66 80v366c0 54 -16 80 -66 80s-66 -26 -66 -80zM392 903l-131 -144h-83l79 144h135z" />
    <glyph glyph-name="Ocircumflex" unicode="&#xd4;" horiz-adv-x="500" 
d="M60 175v372c0 102 60 185 190 185s190 -83 190 -185v-372c0 -102 -60 -185 -190 -185s-190 83 -190 185zM184 544v-366c0 -54 16 -80 66 -80s66 26 66 80v366c0 54 -16 80 -66 80s-66 -26 -66 -80zM99 759l96 144h110l96 -144h-92l-59 89l-59 -89h-92z" />
    <glyph glyph-name="Odieresis" unicode="&#xd6;" horiz-adv-x="500" 
d="M60 175v372c0 102 60 185 190 185s190 -83 190 -185v-372c0 -102 -60 -185 -190 -185s-190 83 -190 185zM184 544v-366c0 -54 16 -80 66 -80s66 26 66 80v366c0 54 -16 80 -66 80s-66 -26 -66 -80zM383 771h-108v108h108v-108zM117 879h108v-108h-108v108z" />
    <glyph glyph-name="Ograve" unicode="&#xd2;" horiz-adv-x="500" 
d="M60 175v372c0 102 60 185 190 185s190 -83 190 -185v-372c0 -102 -60 -185 -190 -185s-190 83 -190 185zM184 544v-366c0 -54 16 -80 66 -80s66 26 66 80v366c0 54 -16 80 -66 80s-66 -26 -66 -80zM238 760l-131 144h135l79 -144h-83z" />
    <glyph glyph-name="Otilde" unicode="&#xd5;" horiz-adv-x="500" 
d="M60 175v372c0 102 60 185 190 185s190 -83 190 -185v-372c0 -102 -60 -185 -190 -185s-190 83 -190 185zM184 544v-366c0 -54 16 -80 66 -80s66 26 66 80v366c0 54 -16 80 -66 80s-66 -26 -66 -80zM357 891h56c-11 -57 -36 -118 -103 -118c-24 0 -45 10 -65 20
s-39 19 -60 19c-31 0 -41 -15 -42 -44h-56c11 57 36 118 103 118c24 0 45 -10 65 -19s39 -20 60 -20c31 0 41 15 42 44z" />
    <glyph glyph-name="Scaron" unicode="&#x160;" 
d="M404 557l-118 -13c-5 62 -38 80 -66 80c-40 0 -62 -26 -62 -71c0 -123 252 -182 252 -378c0 -119 -80 -185 -196 -185c-115 0 -181 92 -186 200l118 17c5 -73 34 -109 74 -109c43 0 72 23 72 66c0 143 -252 181 -252 388c0 115 70 180 192 180c101 0 161 -73 172 -175z
M373 904l-96 -144h-110l-96 144h92l59 -89l59 89h92z" />
    <glyph glyph-name="Uacute" unicode="&#xda;" horiz-adv-x="500" 
d="M60 182v540h124v-545c0 -53 21 -79 66 -79s66 26 66 79v545h124v-540c0 -124 -72 -192 -190 -192s-190 68 -190 192zM393 904l-131 -144h-83l79 144h135z" />
    <glyph glyph-name="Ucircumflex" unicode="&#xdb;" horiz-adv-x="500" 
d="M60 182v540h124v-545c0 -53 21 -79 66 -79s66 26 66 79v545h124v-540c0 -124 -72 -192 -190 -192s-190 68 -190 192zM99 759l96 144h110l96 -144h-92l-59 89l-59 -89h-92z" />
    <glyph glyph-name="Udieresis" unicode="&#xdc;" horiz-adv-x="500" 
d="M60 182v540h124v-545c0 -53 21 -79 66 -79s66 26 66 79v545h124v-540c0 -124 -72 -192 -190 -192s-190 68 -190 192zM383 771h-108v108h108v-108zM117 879h108v-108h-108v108z" />
    <glyph glyph-name="Ugrave" unicode="&#xd9;" horiz-adv-x="500" 
d="M60 182v540h124v-545c0 -53 21 -79 66 -79s66 26 66 79v545h124v-540c0 -124 -72 -192 -190 -192s-190 68 -190 192zM238 760l-131 144h135l79 -144h-83z" />
    <glyph glyph-name="Yacute" unicode="&#xdd;" 
d="M284 300v-300h-124v300l-150 422h126l87 -275h2l83 275h126zM364 903l-131 -144h-83l79 144h135z" />
    <glyph glyph-name="Ydieresis" unicode="&#x178;" 
d="M284 300v-300h-124v300l-150 422h126l87 -275h2l83 275h126zM355 772h-108v108h108v-108zM89 880h108v-108h-108v108z" />
    <glyph glyph-name="Zcaron" unicode="&#x17d;" 
d="M275 614h-203v108h328v-118l-228 -496h228v-108h-356v118zM373 904l-96 -144h-110l-96 144h92l59 -89l59 89h92z" />
    <glyph glyph-name="aacute" unicode="&#xe1;" 
d="M154 380h-112c6 109 75 168 180 168c104 0 163 -48 163 -146v-345c0 -17 4 -39 7 -57h-107c-1 15 -5 29 -6 42c-42 -34 -77 -52 -131 -52c-76 0 -114 52 -114 121c0 118 78 183 239 244v32c0 45 -18 69 -55 69c-51 0 -62 -30 -64 -76zM273 132v141
c-102 -58 -127 -95 -127 -142c0 -35 18 -49 52 -49c31 0 56 23 75 50zM365 746l-131 -144h-83l79 144h135z" />
    <glyph glyph-name="acircumflex" unicode="&#xe2;" 
d="M154 380h-112c6 109 75 168 180 168c104 0 163 -48 163 -146v-345c0 -17 4 -39 7 -57h-107c-1 15 -5 29 -6 42c-42 -34 -77 -52 -131 -52c-76 0 -114 52 -114 121c0 118 78 183 239 244v32c0 45 -18 69 -55 69c-51 0 -62 -30 -64 -76zM273 132v141
c-102 -58 -127 -95 -127 -142c0 -35 18 -49 52 -49c31 0 56 23 75 50zM71 602l96 144h110l96 -144h-92l-59 89l-59 -89h-92z" />
    <glyph glyph-name="adieresis" unicode="&#xe4;" 
d="M154 380h-112c6 109 75 168 180 168c104 0 163 -48 163 -146v-345c0 -17 4 -39 7 -57h-107c-1 15 -5 29 -6 42c-42 -34 -77 -52 -131 -52c-76 0 -114 52 -114 121c0 118 78 183 239 244v32c0 45 -18 69 -55 69c-51 0 -62 -30 -64 -76zM273 132v141
c-102 -58 -127 -95 -127 -142c0 -35 18 -49 52 -49c31 0 56 23 75 50zM355 614h-108v108h108v-108zM89 722h108v-108h-108v108z" />
    <glyph glyph-name="agrave" unicode="&#xe0;" 
d="M154 380h-112c6 109 75 168 180 168c104 0 163 -48 163 -146v-345c0 -17 4 -39 7 -57h-107c-1 15 -5 29 -6 42c-42 -34 -77 -52 -131 -52c-76 0 -114 52 -114 121c0 118 78 183 239 244v32c0 45 -18 69 -55 69c-51 0 -62 -30 -64 -76zM273 132v141
c-102 -58 -127 -95 -127 -142c0 -35 18 -49 52 -49c31 0 56 23 75 50zM210 602l-131 144h135l79 -144h-83z" />
    <glyph glyph-name="aring" unicode="&#xe5;" 
d="M154 380h-112c6 109 75 168 180 168c104 0 163 -48 163 -146v-345c0 -17 4 -39 7 -57h-107c-1 15 -5 29 -6 42c-42 -34 -77 -52 -131 -52c-76 0 -114 52 -114 121c0 118 78 183 239 244v32c0 45 -18 69 -55 69c-51 0 -62 -30 -64 -76zM273 132v141
c-102 -58 -127 -95 -127 -142c0 -35 18 -49 52 -49c31 0 56 23 75 50zM170 704c0 -29 23 -52 52 -52s52 23 52 52s-23 52 -52 52s-52 -23 -52 -52zM120 704c0 56 46 102 102 102s102 -46 102 -102s-46 -102 -102 -102s-102 46 -102 102z" />
    <glyph glyph-name="atilde" unicode="&#xe3;" 
d="M154 380h-112c6 109 75 168 180 168c104 0 163 -48 163 -146v-345c0 -17 4 -39 7 -57h-107c-1 15 -5 29 -6 42c-42 -34 -77 -52 -131 -52c-76 0 -114 52 -114 121c0 118 78 183 239 244v32c0 45 -18 69 -55 69c-51 0 -62 -30 -64 -76zM273 132v141
c-102 -58 -127 -95 -127 -142c0 -35 18 -49 52 -49c31 0 56 23 75 50zM329 733h56c-11 -57 -36 -118 -103 -118c-24 0 -45 10 -65 20s-39 19 -60 19c-31 0 -41 -15 -42 -44h-56c11 57 36 118 103 118c24 0 45 -10 65 -19s39 -20 60 -20c31 0 41 15 42 44z" />
    <glyph glyph-name="ccedilla" unicode="&#xe7;" 
d="M396 354h-112v14c0 62 -22 88 -62 88s-62 -26 -62 -88v-198c0 -62 22 -88 62 -88s62 26 62 88v34h112v-14c0 -110 -40 -188 -148 -199l-35 -51c7 1 14 2 21 2c44 -2 91 -26 91 -76c0 -64 -60 -102 -124 -102c-48 0 -84 16 -99 23l17 50c16 -8 47 -17 65 -17
c35 0 59 18 59 41c0 41 -56 40 -83 29l-22 18l61 83c-111 9 -151 88 -151 199v158c0 118 46 200 174 200c126 0 172 -79 174 -194z" />
    <glyph glyph-name="eacute" unicode="&#xe9;" 
d="M160 340h124v28c0 62 -22 88 -62 88s-62 -26 -62 -88v-28zM396 348v-100h-236v-78c0 -62 22 -88 62 -88s62 26 62 88v12h112c-2 -114 -49 -192 -174 -192c-128 0 -174 82 -174 200v158c0 118 46 200 174 200s174 -82 174 -200zM365 746l-131 -144h-83l79 144h135z" />
    <glyph glyph-name="ecircumflex" unicode="&#xea;" 
d="M160 340h124v28c0 62 -22 88 -62 88s-62 -26 -62 -88v-28zM396 348v-100h-236v-78c0 -62 22 -88 62 -88s62 26 62 88v12h112c-2 -114 -49 -192 -174 -192c-128 0 -174 82 -174 200v158c0 118 46 200 174 200s174 -82 174 -200zM71 602l96 144h110l96 -144h-92l-59 89
l-59 -89h-92z" />
    <glyph glyph-name="edieresis" unicode="&#xeb;" 
d="M160 340h124v28c0 62 -22 88 -62 88s-62 -26 -62 -88v-28zM396 348v-100h-236v-78c0 -62 22 -88 62 -88s62 26 62 88v12h112c-2 -114 -49 -192 -174 -192c-128 0 -174 82 -174 200v158c0 118 46 200 174 200s174 -82 174 -200zM355 614h-108v108h108v-108zM89 722h108
v-108h-108v108z" />
    <glyph glyph-name="egrave" unicode="&#xe8;" 
d="M160 340h124v28c0 62 -22 88 -62 88s-62 -26 -62 -88v-28zM396 348v-100h-236v-78c0 -62 22 -88 62 -88s62 26 62 88v12h112c-2 -114 -49 -192 -174 -192c-128 0 -174 82 -174 200v158c0 118 46 200 174 200s174 -82 174 -200zM210 602l-131 144h135l79 -144h-83z" />
    <glyph glyph-name="iacute" unicode="&#xed;" horiz-adv-x="222" 
d="M167 0h-112v538h112v-538zM254 746l-131 -144h-83l79 144h135z" />
    <glyph glyph-name="icircumflex" unicode="&#xee;" horiz-adv-x="222" 
d="M167 0h-112v538h112v-538zM-40 602l96 144h110l96 -144h-92l-59 89l-59 -89h-92z" />
    <glyph glyph-name="idieresis" unicode="&#xef;" horiz-adv-x="222" 
d="M167 0h-112v538h112v-538zM244 614h-108v108h108v-108zM-22 722h108v-108h-108v108z" />
    <glyph glyph-name="igrave" unicode="&#xec;" horiz-adv-x="222" 
d="M167 0h-112v538h112v-538zM99 602l-131 144h135l79 -144h-83z" />
    <glyph glyph-name="ntilde" unicode="&#xf1;" 
d="M166 0h-112v538h106v-54c47 40 71 64 136 64c59 0 94 -43 94 -113v-435h-112v417c0 27 -16 39 -40 39s-46 -15 -72 -34v-422zM329 733h56c-11 -57 -36 -118 -103 -118c-24 0 -45 10 -65 20s-39 19 -60 19c-31 0 -41 -15 -42 -44h-56c11 57 36 118 103 118
c24 0 45 -10 65 -19s39 -20 60 -20c31 0 41 15 42 44z" />
    <glyph glyph-name="oacute" unicode="&#xf3;" 
d="M284 170v198c0 62 -22 88 -62 88s-62 -26 -62 -88v-198c0 -62 22 -88 62 -88s62 26 62 88zM48 190v158c0 118 46 200 174 200s174 -82 174 -200v-158c0 -118 -46 -200 -174 -200s-174 82 -174 200zM365 746l-131 -144h-83l79 144h135z" />
    <glyph glyph-name="ocircumflex" unicode="&#xf4;" 
d="M284 170v198c0 62 -22 88 -62 88s-62 -26 -62 -88v-198c0 -62 22 -88 62 -88s62 26 62 88zM48 190v158c0 118 46 200 174 200s174 -82 174 -200v-158c0 -118 -46 -200 -174 -200s-174 82 -174 200zM71 602l96 144h110l96 -144h-92l-59 89l-59 -89h-92z" />
    <glyph glyph-name="odieresis" unicode="&#xf6;" 
d="M284 170v198c0 62 -22 88 -62 88s-62 -26 -62 -88v-198c0 -62 22 -88 62 -88s62 26 62 88zM48 190v158c0 118 46 200 174 200s174 -82 174 -200v-158c0 -118 -46 -200 -174 -200s-174 82 -174 200zM355 614h-108v108h108v-108zM89 722h108v-108h-108v108z" />
    <glyph glyph-name="ograve" unicode="&#xf2;" 
d="M284 170v198c0 62 -22 88 -62 88s-62 -26 -62 -88v-198c0 -62 22 -88 62 -88s62 26 62 88zM48 190v158c0 118 46 200 174 200s174 -82 174 -200v-158c0 -118 -46 -200 -174 -200s-174 82 -174 200zM210 602l-131 144h135l79 -144h-83z" />
    <glyph glyph-name="otilde" unicode="&#xf5;" 
d="M284 170v198c0 62 -22 88 -62 88s-62 -26 -62 -88v-198c0 -62 22 -88 62 -88s62 26 62 88zM48 190v158c0 118 46 200 174 200s174 -82 174 -200v-158c0 -118 -46 -200 -174 -200s-174 82 -174 200zM329 733h56c-11 -57 -36 -118 -103 -118c-24 0 -45 10 -65 20
s-39 19 -60 19c-31 0 -41 -15 -42 -44h-56c11 57 36 118 103 118c24 0 45 -10 65 -19s39 -20 60 -20c31 0 41 15 42 44z" />
    <glyph glyph-name="scaron" unicode="&#x161;" horiz-adv-x="389" 
d="M353 405l-95 -16c-8 43 -28 67 -64 67c-29 0 -49 -15 -49 -43c0 -84 210 -118 210 -278c0 -96 -66 -145 -157 -145c-98 0 -154 56 -171 150l98 27c7 -45 23 -85 74 -85c29 0 50 17 50 47c0 93 -210 128 -210 275c0 85 66 144 150 144c88 0 147 -59 164 -143zM346 746
l-96 -144h-110l-96 144h92l59 -89l59 89h92z" />
    <glyph glyph-name="uacute" unicode="&#xfa;" 
d="M278 538h112v-538h-106v54c-47 -40 -71 -64 -136 -64c-59 0 -94 43 -94 113v435h112v-417c0 -27 16 -39 40 -39s46 15 72 34v422zM365 746l-131 -144h-83l79 144h135z" />
    <glyph glyph-name="ucircumflex" unicode="&#xfb;" 
d="M278 538h112v-538h-106v54c-47 -40 -71 -64 -136 -64c-59 0 -94 43 -94 113v435h112v-417c0 -27 16 -39 40 -39s46 15 72 34v422zM71 602l96 144h110l96 -144h-92l-59 89l-59 -89h-92z" />
    <glyph glyph-name="udieresis" unicode="&#xfc;" 
d="M278 538h112v-538h-106v54c-47 -40 -71 -64 -136 -64c-59 0 -94 43 -94 113v435h112v-417c0 -27 16 -39 40 -39s46 15 72 34v422zM355 614h-108v108h108v-108zM89 722h108v-108h-108v108z" />
    <glyph glyph-name="ugrave" unicode="&#xf9;" 
d="M278 538h112v-538h-106v54c-47 -40 -71 -64 -136 -64c-59 0 -94 43 -94 113v435h112v-417c0 -27 16 -39 40 -39s46 15 72 34v422zM210 602l-131 144h135l79 -144h-83z" />
    <glyph glyph-name="yacute" unicode="&#xfd;" horiz-adv-x="389" 
d="M198 194l68 344h113l-141 -578c-24 -98 -69 -129 -153 -129h-47v92h27c56 0 74 30 74 87c0 22 -5 45 -12 71l-117 457h114l72 -344h2zM338 746l-131 -144h-83l79 144h135z" />
    <glyph glyph-name="ydieresis" unicode="&#xff;" horiz-adv-x="389" 
d="M198 194l68 344h113l-141 -578c-24 -98 -69 -129 -153 -129h-47v92h27c56 0 74 30 74 87c0 22 -5 45 -12 71l-117 457h114l72 -344h2zM328 614h-108v108h108v-108zM62 722h108v-108h-108v108z" />
    <glyph glyph-name="zcaron" unicode="&#x17e;" horiz-adv-x="389" 
d="M235 446h-191v92h315v-92l-209 -354h209v-92h-329v92zM346 746l-96 -144h-110l-96 144h92l59 -89l59 89h92z" />
    <glyph glyph-name=".null" horiz-adv-x="0" 
 />
    <glyph glyph-name="CR" unicode="&#xd;" horiz-adv-x="278" 
 />
    <glyph glyph-name="uni00A0" unicode="&#xa0;" horiz-adv-x="222" 
 />
    <glyph glyph-name="Amacron" unicode="&#x100;" 
d="M221 578l-49 -310h100l-49 310h-2zM154 160l-22 -160h-120l133 722h154l133 -722h-120l-22 160h-136zM77 794v64h294v-64h-294z" />
    <glyph glyph-name="Abreve" unicode="&#x102;" 
d="M221 578l-49 -310h100l-49 310h-2zM154 160l-22 -160h-120l133 722h154l133 -722h-120l-22 160h-136zM312 906h58c-5 -76 -50 -142 -147 -142s-142 66 -147 142h58c7 -52 36 -74 89 -74s82 22 89 74z" />
    <glyph glyph-name="Aogonek" unicode="&#x104;" 
d="M154 160l-22 -160h-120l133 722h154l133 -722h-31c-6 -3 -13 -7 -20 -10c-45 -22 -91 -56 -91 -106c0 -31 22 -47 49 -47c31 0 66 23 90 40l19 -36c-43 -31 -89 -60 -142 -60c-55 0 -98 32 -98 92c0 52 35 86 79 109c15 7 30 13 45 18h-20l-22 160h-136zM221 578
l-49 -310h100l-49 310h-2z" />
    <glyph glyph-name="Cacute" unicode="&#x106;" horiz-adv-x="500" 
d="M434 481h-124v56c0 61 -28 87 -60 87c-50 0 -66 -26 -66 -80v-366c0 -54 16 -80 66 -80c45 0 60 26 60 73v87h124v-83c0 -102 -60 -185 -184 -185c-130 0 -190 83 -190 185v372c0 102 60 185 190 185c124 0 184 -90 184 -198v-53zM393 903l-131 -144h-83l79 144h135z" />
    <glyph glyph-name="Ccircumflex" unicode="&#x108;" horiz-adv-x="500" 
d="M434 481h-124v56c0 61 -28 87 -60 87c-50 0 -66 -26 -66 -80v-366c0 -54 16 -80 66 -80c45 0 60 26 60 73v87h124v-83c0 -102 -60 -185 -184 -185c-130 0 -190 83 -190 185v372c0 102 60 185 190 185c124 0 184 -90 184 -198v-53zM97 759l96 144h110l96 -144h-92l-59 89
l-59 -89h-92z" />
    <glyph glyph-name="Ccaron" unicode="&#x10c;" horiz-adv-x="500" 
d="M434 481h-124v56c0 61 -28 87 -60 87c-50 0 -66 -26 -66 -80v-366c0 -54 16 -80 66 -80c45 0 60 26 60 73v87h124v-83c0 -102 -60 -185 -184 -185c-130 0 -190 83 -190 185v372c0 102 60 185 190 185c124 0 184 -90 184 -198v-53zM398 903l-96 -144h-110l-96 144h92
l59 -89l59 89h92z" />
    <glyph glyph-name="Cdotaccent" unicode="&#x10a;" horiz-adv-x="500" 
d="M434 481h-124v56c0 61 -28 87 -60 87c-50 0 -66 -26 -66 -80v-366c0 -54 16 -80 66 -80c45 0 60 26 60 73v87h124v-83c0 -102 -60 -185 -184 -185c-130 0 -190 83 -190 185v372c0 102 60 185 190 185c124 0 184 -90 184 -198v-53zM194 879h108v-108h-108v108z" />
    <glyph glyph-name="Dcaron" unicode="&#x10e;" horiz-adv-x="500" 
d="M184 620v-518h43c66 0 89 25 89 101v316c0 76 -23 101 -89 101h-43zM60 0v722h184c128 0 196 -70 196 -218v-286c0 -148 -68 -218 -196 -218h-184zM375 903l-96 -144h-110l-96 144h92l59 -89l59 89h92z" />
    <glyph glyph-name="Dcroat" unicode="&#x110;" horiz-adv-x="500" 
d="M258 428v-108h-74v-218h43c67 0 89 25 89 101v316c0 76 -22 101 -89 101h-43v-192h74zM20 320v108h40v294h184c129 0 196 -69 196 -218v-286c0 -149 -67 -218 -196 -218h-184v320h-40z" />
    <glyph glyph-name="Ecaron" unicode="&#x11a;" 
d="M406 0h-346v722h332v-108h-208v-186h160v-108h-160v-212h222v-108zM386 903l-96 -144h-110l-96 144h92l59 -89l59 89h92z" />
    <glyph glyph-name="Emacron" unicode="&#x112;" 
d="M406 0h-346v722h332v-108h-208v-186h160v-108h-160v-212h222v-108zM87 794v64h294v-64h-294z" />
    <glyph glyph-name="Ebreve" unicode="&#x114;" 
d="M406 0h-346v722h332v-108h-208v-186h160v-108h-160v-212h222v-108zM323 906h58c-5 -76 -50 -142 -147 -142s-142 66 -147 142h58c7 -52 36 -74 89 -74s82 22 89 74z" />
    <glyph glyph-name="Edotaccent" unicode="&#x116;" 
d="M406 0h-346v722h332v-108h-208v-186h160v-108h-160v-212h222v-108zM178 879h108v-108h-108v108z" />
    <glyph glyph-name="Eogonek" unicode="&#x118;" 
d="M297 0h-237v722h332v-108h-208v-186h160v-108h-160v-212h222v-108h-40c-6 -3 -13 -7 -20 -10c-45 -22 -91 -56 -91 -106c0 -31 22 -47 49 -47c31 0 66 23 90 40l19 -36c-43 -31 -89 -60 -142 -60c-55 0 -98 32 -98 92c0 52 35 86 79 109c15 7 30 13 45 18z" />
    <glyph glyph-name="Gcircumflex" unicode="&#x11c;" horiz-adv-x="500" 
d="M231 268v98h203v-366h-60l-23 54c-37 -44 -67 -64 -125 -64c-98 0 -166 70 -166 185v372c0 102 60 185 182 185c124 0 186 -90 186 -198v-46h-118c0 108 -22 136 -71 136c-30 0 -55 -18 -55 -79v-371c0 -46 15 -76 58 -76c50 0 68 28 68 100v70h-79zM93 759l96 144h110
l96 -144h-92l-59 89l-59 -89h-92z" />
    <glyph glyph-name="Gbreve" unicode="&#x11e;" horiz-adv-x="500" 
d="M231 268v98h203v-366h-60l-23 54c-37 -44 -67 -64 -125 -64c-98 0 -166 70 -166 185v372c0 102 60 185 182 185c124 0 186 -90 186 -198v-46h-118c0 108 -22 136 -71 136c-30 0 -55 -18 -55 -79v-371c0 -46 15 -76 58 -76c50 0 68 28 68 100v70h-79zM333 906h58
c-5 -76 -50 -142 -147 -142s-142 66 -147 142h58c7 -52 36 -74 89 -74s82 22 89 74z" />
    <glyph glyph-name="Gdotaccent" unicode="&#x120;" horiz-adv-x="500" 
d="M231 268v98h203v-366h-60l-23 54c-37 -44 -67 -64 -125 -64c-98 0 -166 70 -166 185v372c0 102 60 185 182 185c124 0 186 -90 186 -198v-46h-118c0 108 -22 136 -71 136c-30 0 -55 -18 -55 -79v-371c0 -46 15 -76 58 -76c50 0 68 28 68 100v70h-79zM190 879h108v-108
h-108v108z" />
    <glyph glyph-name="Gcommaaccent" unicode="&#x122;" horiz-adv-x="500" 
d="M231 268v98h203v-366h-60l-23 54c-37 -44 -67 -64 -125 -64c-98 0 -166 70 -166 185v372c0 102 60 185 182 185c124 0 186 -90 186 -198v-46h-118c0 108 -22 136 -71 136c-30 0 -55 -18 -55 -79v-371c0 -46 15 -76 58 -76c50 0 68 28 68 100v70h-79zM210 -228l29 82h-41
v96h93v-94l-35 -84h-46z" />
    <glyph glyph-name="Hcircumflex" unicode="&#x124;" horiz-adv-x="500" 
d="M184 0h-124v722h124v-294h132v294h124v-722h-124v320h-132v-320zM101 759l96 144h110l96 -144h-92l-59 89l-59 -89h-92z" />
    <glyph glyph-name="Hbar" unicode="&#x126;" horiz-adv-x="500" 
d="M184 0h-124v722h124v-131h132v131h124v-722h-124v268h-132v-268zM184 505v-135h132v135h-132z" />
    <glyph glyph-name="Itilde" unicode="&#x128;" horiz-adv-x="278" 
d="M201 0h-124v722h124v-722zM247 890h56c-11 -57 -37 -118 -103 -118c-24 0 -45 9 -65 20s-39 19 -60 19c-31 0 -41 -15 -42 -44h-56c11 57 35 118 103 118c24 0 45 -10 65 -19s39 -20 60 -20c31 0 41 15 42 44z" />
    <glyph glyph-name="Imacron" unicode="&#x12a;" horiz-adv-x="278" 
d="M201 0h-124v722h124v-722zM-9 794v64h294v-64h-294z" />
    <glyph glyph-name="Idotaccent" unicode="&#x130;" horiz-adv-x="278" 
d="M201 0h-124v722h124v-722zM85 879h108v-108h-108v108z" />
    <glyph glyph-name="Iogonek" unicode="&#x12e;" horiz-adv-x="278" 
d="M119 0h-42v722h124v-722h-23c-6 -3 -11 -7 -16 -10c-28 -22 -70 -55 -70 -106c0 -31 22 -47 49 -47c31 0 63 20 87 37l19 -36c-43 -32 -84 -57 -137 -57c-55 0 -100 33 -100 92c0 51 33 86 72 109c13 7 25 13 37 18z" />
    <glyph glyph-name="Jcircumflex" unicode="&#x134;" horiz-adv-x="278" 
d="M3 -10v108h26c48 0 65 20 65 60v564h124v-578c0 -92 -37 -154 -174 -154h-41zM1 759l96 144h110l96 -144h-92l-59 89l-59 -89h-92z" />
    <glyph glyph-name="Kcommaaccent" unicode="&#x136;" 
d="M178 0h-124v722h124v-267h2l130 267h124l-134 -269l151 -453h-126l-101 336h-2l-44 -80v-256zM205 -228l29 82h-41v96h93v-94l-35 -84h-46z" />
    <glyph glyph-name="Lacute" unicode="&#x139;" horiz-adv-x="389" 
d="M373 0h-319v722h124v-614h195v-108zM283 903l-131 -144h-83l79 144h135z" />
    <glyph glyph-name="Lcaron" unicode="&#x13d;" horiz-adv-x="389" 
d="M373 0h-319v722h124v-614h195v-108zM231 544l28 85h-38v93h86v-91l-35 -87h-41z" />
    <glyph glyph-name="Lcommaaccent" unicode="&#x13b;" horiz-adv-x="389" 
d="M373 0h-319v722h124v-614h195v-108zM176 -228l29 82h-41v96h93v-94l-35 -84h-46z" />
    <glyph glyph-name="Ldot" unicode="&#x13f;" horiz-adv-x="389" 
d="M373 0h-319v722h124v-614h195v-108zM234 420h108v-108h-108v108z" />
    <glyph glyph-name="Nacute" unicode="&#x143;" horiz-adv-x="500" 
d="M172 0h-112v722h115l151 -413h2v413h112v-722h-108l-158 451h-2v-451zM403 903l-131 -144h-83l79 144h135z" />
    <glyph glyph-name="Ncaron" unicode="&#x147;" horiz-adv-x="500" 
d="M172 0h-112v722h115l151 -413h2v413h112v-722h-108l-158 451h-2v-451zM403 903l-96 -144h-110l-96 144h92l59 -89l59 89h92z" />
    <glyph glyph-name="Ncommaaccent" unicode="&#x145;" horiz-adv-x="500" 
d="M172 0h-112v722h115l151 -413h2v413h112v-722h-108l-158 451h-2v-451zM216 -228l29 82h-41v96h93v-94l-35 -84h-46z" />
    <glyph glyph-name="Omacron" unicode="&#x14c;" horiz-adv-x="500" 
d="M60 175v372c0 102 60 185 190 185s190 -83 190 -185v-372c0 -102 -60 -185 -190 -185s-190 83 -190 185zM184 544v-366c0 -54 16 -80 66 -80s66 26 66 80v366c0 54 -16 80 -66 80s-66 -26 -66 -80zM104 794v64h294v-64h-294z" />
    <glyph glyph-name="Obreve" unicode="&#x14e;" horiz-adv-x="500" 
d="M60 175v372c0 102 60 185 190 185s190 -83 190 -185v-372c0 -102 -60 -185 -190 -185s-190 83 -190 185zM184 544v-366c0 -54 16 -80 66 -80s66 26 66 80v366c0 54 -16 80 -66 80s-66 -26 -66 -80zM338 906h58c-5 -76 -50 -142 -147 -142s-142 66 -147 142h58
c7 -52 36 -74 89 -74s82 22 89 74z" />
    <glyph glyph-name="Ohungarumlaut" unicode="&#x150;" horiz-adv-x="500" 
d="M60 175v372c0 102 60 185 190 185s190 -83 190 -185v-372c0 -102 -60 -185 -190 -185s-190 83 -190 185zM184 544v-366c0 -54 16 -80 66 -80s66 26 66 80v366c0 54 -16 80 -66 80s-66 -26 -66 -80zM308 903l-125 -144h-79l69 144h135zM484 903l-131 -144h-83l79 144h135z
" />
    <glyph glyph-name="Racute" unicode="&#x154;" horiz-adv-x="500" 
d="M184 620v-222h44c67 0 92 25 92 111s-25 111 -92 111h-44zM184 296v-296h-124v722h174c139 0 210 -59 210 -213c0 -116 -45 -163 -87 -182l105 -327h-126l-88 299c-16 -2 -42 -3 -64 -3zM380 903l-131 -144h-83l79 144h135z" />
    <glyph glyph-name="Rcaron" unicode="&#x158;" horiz-adv-x="500" 
d="M184 620v-222h44c67 0 92 25 92 111s-25 111 -92 111h-44zM184 296v-296h-124v722h174c139 0 210 -59 210 -213c0 -116 -45 -163 -87 -182l105 -327h-126l-88 299c-16 -2 -42 -3 -64 -3zM386 903l-96 -144h-110l-96 144h92l59 -89l59 89h92z" />
    <glyph glyph-name="Rcommaaccent" unicode="&#x156;" horiz-adv-x="500" 
d="M184 620v-222h44c67 0 92 25 92 111s-25 111 -92 111h-44zM184 296v-296h-124v722h174c139 0 210 -59 210 -213c0 -116 -45 -163 -87 -182l105 -327h-126l-88 299c-16 -2 -42 -3 -64 -3zM213 -228l29 82h-41v96h93v-94l-35 -84h-46z" />
    <glyph glyph-name="Sacute" unicode="&#x15a;" 
d="M404 557l-118 -13c-5 62 -38 80 -66 80c-40 0 -62 -26 -62 -71c0 -123 252 -182 252 -378c0 -119 -80 -185 -196 -185c-115 0 -181 92 -186 200l118 17c5 -73 34 -109 74 -109c43 0 72 23 72 66c0 143 -252 181 -252 388c0 115 70 180 192 180c101 0 161 -73 172 -175z
M371 903l-131 -144h-83l79 144h135z" />
    <glyph glyph-name="Scircumflex" unicode="&#x15c;" 
d="M404 557l-118 -13c-5 62 -38 80 -66 80c-40 0 -62 -26 -62 -71c0 -123 252 -182 252 -378c0 -119 -80 -185 -196 -185c-115 0 -181 92 -186 200l118 17c5 -73 34 -109 74 -109c43 0 72 23 72 66c0 143 -252 181 -252 388c0 115 70 180 192 180c101 0 161 -73 172 -175z
M73 759l96 144h110l96 -144h-92l-59 89l-59 -89h-92z" />
    <glyph glyph-name="Scedilla" unicode="&#x15e;" 
d="M103 -213l17 50c16 -8 46 -17 65 -17c35 0 59 18 59 41c0 41 -55 40 -83 29l-22 18l61 83c-23 1 -44 6 -63 15c-68 32 -105 102 -109 184l118 17c5 -73 34 -109 74 -109c43 0 72 23 72 66c0 143 -252 180 -252 388c0 116 69 180 192 180c100 0 161 -74 172 -175l-118 -13
c-5 61 -38 80 -66 80c-40 0 -62 -26 -62 -71c0 -123 252 -182 252 -378c0 -90 -45 -150 -117 -173c-14 -5 -29 -8 -44 -10l-35 -52c7 1 14 2 21 2c44 -3 91 -25 91 -76c0 -64 -60 -102 -124 -102c-48 0 -84 16 -99 23z" />
    <glyph glyph-name="Scommaaccent" unicode="&#x218;" 
d="M404 557l-118 -13c-5 62 -38 80 -66 80c-40 0 -62 -26 -62 -71c0 -123 252 -182 252 -378c0 -119 -80 -185 -196 -185c-115 0 -181 92 -186 200l118 17c5 -73 34 -109 74 -109c43 0 72 23 72 66c0 143 -252 181 -252 388c0 115 70 180 192 180c101 0 161 -73 172 -175z
M184 -228l29 82h-41v96h93v-94l-35 -84h-46z" />
    <glyph glyph-name="Tcaron" unicode="&#x164;" horiz-adv-x="389" 
d="M132 0v614h-120v108h364v-108h-120v-614h-124zM345 903l-96 -144h-110l-96 144h92l59 -89l59 89h92z" />
    <glyph glyph-name="Tcommaaccent" unicode="&#x162;" horiz-adv-x="389" 
d="M132 0v614h-120v108h364v-108h-120v-614h-124zM159 -228l29 82h-41v96h93v-94l-35 -84h-46z" />
    <glyph glyph-name="uni021A" unicode="&#x21a;" horiz-adv-x="389" 
d="M132 0v614h-120v108h364v-108h-120v-614h-124zM159 -228l29 82h-41v96h93v-94l-35 -84h-46z" />
    <glyph glyph-name="Tbar" unicode="&#x166;" horiz-adv-x="389" 
d="M132 478v136h-120v108h364v-108h-120v-136h94v-106h-94v-372h-124v372h-92v106h92z" />
    <glyph glyph-name="Utilde" unicode="&#x168;" horiz-adv-x="500" 
d="M60 182v540h124v-545c0 -53 21 -79 66 -79s66 26 66 79v545h124v-540c0 -124 -72 -192 -190 -192s-190 68 -190 192zM358 890h56c-11 -57 -37 -118 -103 -118c-24 0 -45 9 -65 20s-39 19 -60 19c-31 0 -41 -15 -42 -44h-56c11 57 35 118 103 118c24 0 45 -10 65 -19
s39 -20 60 -20c31 0 41 15 42 44z" />
    <glyph glyph-name="Umacron" unicode="&#x16a;" horiz-adv-x="500" 
d="M60 182v540h124v-545c0 -53 21 -79 66 -79s66 26 66 79v545h124v-540c0 -124 -72 -192 -190 -192s-190 68 -190 192zM104 794v64h294v-64h-294z" />
    <glyph glyph-name="Ubreve" unicode="&#x16c;" horiz-adv-x="500" 
d="M60 182v540h124v-545c0 -53 21 -79 66 -79s66 26 66 79v545h124v-540c0 -124 -72 -192 -190 -192s-190 68 -190 192zM342 906h58c-5 -76 -50 -142 -147 -142s-142 66 -147 142h58c7 -52 36 -74 89 -74s82 22 89 74z" />
    <glyph glyph-name="Uring" unicode="&#x16e;" horiz-adv-x="500" 
d="M60 182v540h124v-545c0 -53 21 -79 66 -79s66 26 66 79v545h124v-540c0 -124 -72 -192 -190 -192s-190 68 -190 192zM199 860c0 -29 23 -52 52 -52s52 23 52 52s-23 52 -52 52s-52 -23 -52 -52zM149 860c0 56 46 102 102 102s102 -46 102 -102s-46 -102 -102 -102
s-102 46 -102 102z" />
    <glyph glyph-name="Uhungarumlaut" unicode="&#x170;" horiz-adv-x="500" 
d="M60 182v540h124v-545c0 -53 21 -79 66 -79s66 26 66 79v545h124v-540c0 -124 -72 -192 -190 -192s-190 68 -190 192zM309 903l-125 -144h-79l69 144h135zM485 903l-131 -144h-83l79 144h135z" />
    <glyph glyph-name="Uogonek" unicode="&#x172;" horiz-adv-x="500" 
d="M60 182v540h124v-545c0 -53 22 -79 66 -79s66 26 66 79v545h124v-540c0 -63 -17 -110 -51 -143c-20 -19 -44 -33 -73 -41c-2 -1 -4 -3 -7 -4c-34 -21 -84 -59 -84 -110c0 -31 22 -47 49 -47c31 0 66 23 90 40l19 -36c-43 -31 -89 -60 -142 -60c-55 0 -98 32 -98 92
c0 52 35 86 79 110c5 3 9 5 14 8c-53 2 -95 18 -126 48c-33 33 -50 80 -50 143z" />
    <glyph glyph-name="Wcircumflex" unicode="&#x174;" horiz-adv-x="667" 
d="M194 262l81 460h102l84 -460h2l69 460h116l-127 -722h-104l-90 477h-2l-84 -477h-104l-137 722h116l76 -460h2zM178 759l96 144h110l96 -144h-92l-59 89l-59 -89h-92z" />
    <glyph glyph-name="Ycircumflex" unicode="&#x176;" 
d="M284 300v-300h-124v300l-150 422h126l87 -275h2l83 275h126zM72 759l96 144h110l96 -144h-92l-59 89l-59 -89h-92z" />
    <glyph glyph-name="Zacute" unicode="&#x179;" 
d="M275 614h-203v108h328v-118l-228 -496h228v-108h-356v118zM395 903l-131 -144h-83l79 144h135z" />
    <glyph glyph-name="Zdotaccent" unicode="&#x17b;" 
d="M275 614h-203v108h328v-118l-228 -496h228v-108h-356v118zM186 879h108v-108h-108v108z" />
    <glyph glyph-name="amacron" unicode="&#x101;" 
d="M154 380h-112c6 109 75 168 180 168c104 0 163 -48 163 -146v-345c0 -17 4 -39 7 -57h-107c-1 15 -5 29 -6 42c-42 -34 -77 -52 -131 -52c-76 0 -114 52 -114 121c0 118 78 183 239 244v32c0 45 -18 69 -55 69c-51 0 -62 -30 -64 -76zM273 132v141
c-102 -58 -127 -95 -127 -142c0 -35 18 -49 52 -49c31 0 56 23 75 50zM75 637v64h294v-64h-294z" />
    <glyph glyph-name="abreve" unicode="&#x103;" 
d="M154 380h-112c6 109 75 168 180 168c104 0 163 -48 163 -146v-345c0 -17 4 -39 7 -57h-107c-1 15 -5 29 -6 42c-42 -34 -77 -52 -131 -52c-76 0 -114 52 -114 121c0 118 78 183 239 244v32c0 45 -18 69 -55 69c-51 0 -62 -30 -64 -76zM273 132v141
c-102 -58 -127 -95 -127 -142c0 -35 18 -49 52 -49c31 0 56 23 75 50zM311 749h58c-5 -76 -50 -142 -147 -142s-142 66 -147 142h58c7 -52 36 -74 89 -74s82 22 89 74z" />
    <glyph glyph-name="aogonek" unicode="&#x105;" 
d="M154 380h-112c7 109 75 168 180 168c104 0 163 -47 163 -146v-345c0 -17 4 -38 7 -57h-35c-5 -3 -12 -7 -19 -10c-32 -23 -83 -54 -83 -106c0 -31 22 -47 49 -47c31 0 62 21 86 38l19 -36c-43 -31 -85 -58 -138 -58c-55 0 -98 32 -98 92c0 52 35 86 79 109
c14 7 27 12 40 17c-3 9 -5 17 -6 24c-1 9 -2 17 -2 25c-49 -40 -83 -58 -136 -58c-76 0 -114 52 -114 121c0 118 78 182 239 244v32c0 46 -18 69 -55 69c-51 0 -61 -29 -64 -76zM273 132v141c-102 -59 -127 -94 -127 -142c0 -35 17 -49 52 -49c31 0 56 23 75 50z" />
    <glyph glyph-name="cacute" unicode="&#x107;" 
d="M396 354h-112v14c0 62 -22 88 -62 88s-62 -26 -62 -88v-198c0 -62 22 -88 62 -88s62 26 62 88v34h112v-14c0 -118 -46 -200 -174 -200s-174 82 -174 200v158c0 118 46 200 174 200c126 0 172 -79 174 -194zM368 746l-131 -144h-83l79 144h135z" />
    <glyph glyph-name="ccircumflex" unicode="&#x109;" 
d="M396 354h-112v14c0 62 -22 88 -62 88s-62 -26 -62 -88v-198c0 -62 22 -88 62 -88s62 26 62 88v34h112v-14c0 -118 -46 -200 -174 -200s-174 82 -174 200v158c0 118 46 200 174 200c126 0 172 -79 174 -194zM71 602l96 144h110l96 -144h-92l-59 89l-59 -89h-92z" />
    <glyph glyph-name="ccaron" unicode="&#x10d;" 
d="M396 354h-112v14c0 62 -22 88 -62 88s-62 -26 -62 -88v-198c0 -62 22 -88 62 -88s62 26 62 88v34h112v-14c0 -118 -46 -200 -174 -200s-174 82 -174 200v158c0 118 46 200 174 200c126 0 172 -79 174 -194zM373 746l-96 -144h-110l-96 144h92l59 -89l59 89h92z" />
    <glyph glyph-name="cdotaccent" unicode="&#x10b;" 
d="M396 354h-112v14c0 62 -22 88 -62 88s-62 -26 -62 -88v-198c0 -62 22 -88 62 -88s62 26 62 88v34h112v-14c0 -118 -46 -200 -174 -200s-174 82 -174 200v158c0 118 46 200 174 200c126 0 172 -79 174 -194zM169 722h108v-108h-108v108z" />
    <glyph glyph-name="dcaron" unicode="&#x10f;" 
d="M390 0h-106v56h-2c-37 -47 -64 -66 -120 -66c-70 0 -114 52 -114 150v258c0 98 44 150 114 150c49 0 72 -20 116 -56v230h112v-722zM278 110v318c-22 16 -42 28 -64 28c-30 0 -54 -16 -54 -87v-200c0 -71 24 -87 54 -87c22 0 42 12 64 28zM433 544l28 85h-38v93h86v-91
l-35 -87h-41z" />
    <glyph glyph-name="dcroat" unicode="&#x111;" 
d="M390 0h-106v56h-2c-37 -47 -64 -66 -120 -66c-71 0 -114 51 -114 150v248c0 99 43 148 114 148c49 0 69 -20 117 -54v107h-108v78h108v55h111v-55h54v-78h-54v-589zM278 110v308c-23 16 -41 28 -64 28c-31 0 -54 -16 -54 -87v-190c0 -71 23 -87 54 -87c23 0 41 12 64 28z
" />
    <glyph glyph-name="ecaron" unicode="&#x11b;" 
d="M160 340h124v28c0 62 -22 88 -62 88s-62 -26 -62 -88v-28zM396 348v-100h-236v-78c0 -62 22 -88 62 -88s62 26 62 88v12h112c-2 -114 -49 -192 -174 -192c-128 0 -174 82 -174 200v158c0 118 46 200 174 200s174 -82 174 -200zM373 746l-96 -144h-110l-96 144h92l59 -89
l59 89h92z" />
    <glyph glyph-name="emacron" unicode="&#x113;" 
d="M160 340h124v28c0 62 -22 88 -62 88s-62 -26 -62 -88v-28zM396 348v-100h-236v-78c0 -62 22 -88 62 -88s62 26 62 88v12h112c-2 -114 -49 -192 -174 -192c-128 0 -174 82 -174 200v158c0 118 46 200 174 200s174 -82 174 -200zM75 637v64h294v-64h-294z" />
    <glyph glyph-name="ebreve" unicode="&#x115;" 
d="M160 340h124v28c0 62 -22 88 -62 88s-62 -26 -62 -88v-28zM396 348v-100h-236v-78c0 -62 22 -88 62 -88s62 26 62 88v12h112c-2 -114 -49 -192 -174 -192c-128 0 -174 82 -174 200v158c0 118 46 200 174 200s174 -82 174 -200zM311 749h58c-5 -76 -50 -142 -147 -142
s-142 66 -147 142h58c7 -52 36 -74 89 -74s82 22 89 74z" />
    <glyph glyph-name="edotaccent" unicode="&#x117;" 
d="M160 340h124v28c0 62 -22 88 -62 88s-62 -26 -62 -88v-28zM396 348v-100h-236v-78c0 -62 22 -88 62 -88s62 26 62 88v12h112c-2 -114 -49 -192 -174 -192c-128 0 -174 82 -174 200v158c0 118 46 200 174 200s174 -82 174 -200zM168 722h108v-108h-108v108z" />
    <glyph glyph-name="eogonek" unicode="&#x119;" 
d="M396 348v-100h-236v-78c0 -63 22 -88 62 -88s62 25 62 88v12h112c-2 -86 -29 -149 -94 -178l-9 -6c-31 -23 -79 -68 -79 -114c0 -31 22 -47 49 -47c31 0 66 23 90 40l19 -36c-43 -31 -89 -60 -142 -60c-55 0 -98 32 -98 92c0 52 35 88 79 115l3 2c-29 1 -53 5 -73 14
c-67 31 -93 97 -93 186v158c0 118 46 200 174 200s174 -82 174 -200zM160 340h124v28c0 63 -22 88 -62 88s-62 -25 -62 -88v-28z" />
    <glyph glyph-name="gcircumflex" unicode="&#x11d;" 
d="M426 548v-93c-6 1 -12 1 -18 1c-20 0 -38 -4 -54 -17c8 -28 12 -63 12 -85c0 -164 -56 -216 -170 -216h-36c-12 -3 -22 -12 -22 -25c0 -73 288 35 288 -155c0 -92 -86 -128 -230 -128c-112 0 -178 30 -178 86c0 42 34 75 73 84v2c-30 12 -51 33 -51 68c0 37 38 70 68 87
c-56 39 -72 67 -72 193c0 148 48 198 174 198c48 0 89 -17 124 -58c30 44 45 58 92 58zM231 -90c75 0 95 12 95 40s-20 40 -95 40s-95 -12 -95 -40s20 -40 95 -40zM198 230c44 0 56 22 56 113s-12 113 -56 113c-36 0 -56 -22 -56 -113s20 -113 56 -113zM56 602l96 144h110
l96 -144h-92l-59 89l-59 -89h-92z" />
    <glyph glyph-name="gbreve" unicode="&#x11f;" 
d="M426 548v-93c-6 1 -12 1 -18 1c-20 0 -38 -4 -54 -17c8 -28 12 -63 12 -85c0 -164 -56 -216 -170 -216h-36c-12 -3 -22 -12 -22 -25c0 -73 288 35 288 -155c0 -92 -86 -128 -230 -128c-112 0 -178 30 -178 86c0 42 34 75 73 84v2c-30 12 -51 33 -51 68c0 37 38 70 68 87
c-56 39 -72 67 -72 193c0 148 48 198 174 198c48 0 89 -17 124 -58c30 44 45 58 92 58zM231 -90c75 0 95 12 95 40s-20 40 -95 40s-95 -12 -95 -40s20 -40 95 -40zM198 230c44 0 56 22 56 113s-12 113 -56 113c-36 0 -56 -22 -56 -113s20 -113 56 -113zM296 749h58
c-5 -76 -50 -142 -147 -142s-142 66 -147 142h58c7 -52 36 -74 89 -74s82 22 89 74z" />
    <glyph glyph-name="gdotaccent" unicode="&#x121;" 
d="M426 548v-93c-6 1 -12 1 -18 1c-20 0 -38 -4 -54 -17c8 -28 12 -63 12 -85c0 -164 -56 -216 -170 -216h-36c-12 -3 -22 -12 -22 -25c0 -73 288 35 288 -155c0 -92 -86 -128 -230 -128c-112 0 -178 30 -178 86c0 42 34 75 73 84v2c-30 12 -51 33 -51 68c0 37 38 70 68 87
c-56 39 -72 67 -72 193c0 148 48 198 174 198c48 0 89 -17 124 -58c30 44 45 58 92 58zM231 -90c75 0 95 12 95 40s-20 40 -95 40s-95 -12 -95 -40s20 -40 95 -40zM198 230c44 0 56 22 56 113s-12 113 -56 113c-36 0 -56 -22 -56 -113s20 -113 56 -113zM153 722h108v-108
h-108v108z" />
    <glyph glyph-name="gcommaaccent" unicode="&#x123;" 
d="M426 548v-93c-6 1 -12 1 -18 1c-20 0 -38 -4 -54 -17c8 -28 12 -63 12 -85c0 -164 -56 -216 -170 -216h-36c-12 -3 -22 -12 -22 -25c0 -73 288 35 288 -155c0 -92 -86 -128 -230 -128c-112 0 -178 30 -178 86c0 42 34 75 73 84v2c-30 12 -51 33 -51 68c0 37 38 70 68 87
c-56 39 -72 67 -72 193c0 148 48 198 174 198c48 0 89 -17 124 -58c30 44 45 58 92 58zM231 -90c75 0 95 12 95 40s-20 40 -95 40s-95 -12 -95 -40s20 -40 95 -40zM198 230c44 0 56 22 56 113s-12 113 -56 113c-36 0 -56 -22 -56 -113s20 -113 56 -113zM235 746l-26 -73h37
v-84h-85v83l32 74h42z" />
    <glyph glyph-name="hcircumflex" unicode="&#x125;" 
d="M166 0h-112v722h112v-234c41 36 65 60 130 60c59 0 94 -43 94 -113v-435h-112v417c0 27 -16 39 -40 39s-46 -15 -72 -34v-422zM66 759l96 144h110l96 -144h-92l-59 89l-59 -89h-92z" />
    <glyph glyph-name="hbar" unicode="&#x127;" 
d="M166 0h-112v589h-53v78h53v55h112v-55h112v-78h-112v-107c41 36 65 60 130 60c60 0 94 -42 94 -113v-429h-112v411c0 27 -16 39 -40 39s-45 -15 -72 -34v-416z" />
    <glyph glyph-name="itilde" unicode="&#x129;" horiz-adv-x="222" 
d="M167 0h-112v538h112v-538zM220 733h56c-11 -57 -36 -118 -103 -118c-24 0 -45 10 -65 20s-39 19 -60 19c-31 0 -41 -15 -42 -44h-56c11 57 36 118 103 118c24 0 45 -10 65 -19s39 -20 60 -20c31 0 41 15 42 44z" />
    <glyph glyph-name="imacron" unicode="&#x12b;" horiz-adv-x="222" 
d="M167 0h-112v538h112v-538zM-35 637v64h294v-64h-294z" />
    <glyph glyph-name="iogonek" unicode="&#x12f;" horiz-adv-x="222" 
d="M91 0h-36v538h112v-538h-17c-6 -3 -11 -7 -16 -10c-28 -22 -70 -55 -70 -106c0 -31 22 -47 49 -47c31 0 63 20 87 37l19 -36c-43 -32 -84 -57 -137 -57c-55 0 -100 33 -100 92c0 51 33 86 72 109c13 7 25 13 37 18zM167 620h-112v102h112v-102z" />
    <glyph glyph-name="dotlessj" unicode="&#x237;" horiz-adv-x="222" 
d="M0 -170v102h19c31 0 42 18 42 42v563h112v-568c0 -108 -61 -139 -130 -139h-43z" />
    <glyph glyph-name="jcircumflex" unicode="&#x135;" horiz-adv-x="222" 
d="M0 -170v102h19c31 0 42 18 42 42v563h112v-568c0 -108 -61 -139 -130 -139h-43zM-38 602l96 144h110l96 -144h-92l-59 89l-59 -89h-92z" />
    <glyph glyph-name="kcommaaccent" unicode="&#x137;" 
d="M411 538l-117 -170l130 -368h-113l-90 267h-2l-53 -79v-188h-112v722h112v-374h2l123 190h120zM195 -228l29 82h-41v96h93v-94l-35 -84h-46z" />
    <glyph glyph-name="lacute" unicode="&#x13a;" horiz-adv-x="222" 
d="M167 0h-112v722h112v-722zM256 903l-131 -144h-83l79 144h135z" />
    <glyph glyph-name="lcaron" unicode="&#x13e;" horiz-adv-x="222" 
d="M167 0h-112v722h112v-722zM210 544l28 85h-38v93h86v-91l-35 -87h-41z" />
    <glyph glyph-name="lcommaaccent" unicode="&#x13c;" horiz-adv-x="222" 
d="M167 0h-112v722h112v-722zM75 -228l29 82h-41v96h93v-94l-35 -84h-46z" />
    <glyph glyph-name="ldot" unicode="&#x140;" horiz-adv-x="379" 
d="M167 0h-112v722h112v-722zM240 420h108v-108h-108v108z" />
    <glyph glyph-name="nacute" unicode="&#x144;" 
d="M166 0h-112v538h106v-54c47 40 71 64 136 64c59 0 94 -43 94 -113v-435h-112v417c0 27 -16 39 -40 39s-46 -15 -72 -34v-422zM378 746l-131 -144h-83l79 144h135z" />
    <glyph glyph-name="ncaron" unicode="&#x148;" 
d="M166 0h-112v538h106v-54c47 40 71 64 136 64c59 0 94 -43 94 -113v-435h-112v417c0 27 -16 39 -40 39s-46 -15 -72 -34v-422zM375 746l-96 -144h-110l-96 144h92l59 -89l59 89h92z" />
    <glyph glyph-name="ncommaaccent" unicode="&#x146;" 
d="M166 0h-112v538h106v-54c47 40 71 64 136 64c59 0 94 -43 94 -113v-435h-112v417c0 27 -16 39 -40 39s-46 -15 -72 -34v-422zM185 -228l29 82h-41v96h93v-94l-35 -84h-46z" />
    <glyph glyph-name="omacron" unicode="&#x14d;" 
d="M284 170v198c0 62 -22 88 -62 88s-62 -26 -62 -88v-198c0 -62 22 -88 62 -88s62 26 62 88zM48 190v158c0 118 46 200 174 200s174 -82 174 -200v-158c0 -118 -46 -200 -174 -200s-174 82 -174 200zM76 637v64h294v-64h-294z" />
    <glyph glyph-name="obreve" unicode="&#x14f;" 
d="M284 170v198c0 62 -22 88 -62 88s-62 -26 -62 -88v-198c0 -62 22 -88 62 -88s62 26 62 88zM48 190v158c0 118 46 200 174 200s174 -82 174 -200v-158c0 -118 -46 -200 -174 -200s-174 82 -174 200zM312 749h58c-5 -76 -50 -142 -147 -142s-142 66 -147 142h58
c7 -52 36 -74 89 -74s82 22 89 74z" />
    <glyph glyph-name="ohungarumlaut" unicode="&#x151;" 
d="M284 170v198c0 62 -22 88 -62 88s-62 -26 -62 -88v-198c0 -62 22 -88 62 -88s62 26 62 88zM48 190v158c0 118 46 200 174 200s174 -82 174 -200v-158c0 -118 -46 -200 -174 -200s-174 82 -174 200zM278 746l-125 -144h-79l69 144h135zM454 746l-131 -144h-83l79 144h135z
" />
    <glyph glyph-name="racute" unicode="&#x155;" horiz-adv-x="333" 
d="M166 0h-112v538h107v-63h2c27 46 74 73 127 73h23v-117c-20 5 -39 11 -72 11c-38 0 -75 -24 -75 -72v-370zM341 746l-131 -144h-83l79 144h135z" />
    <glyph glyph-name="rcaron" unicode="&#x159;" horiz-adv-x="333" 
d="M166 0h-112v538h107v-63h2c27 46 74 73 127 73h23v-117c-20 5 -39 11 -72 11c-38 0 -75 -24 -75 -72v-370zM339 746l-96 -144h-110l-96 144h92l59 -89l59 89h92z" />
    <glyph glyph-name="rcommaaccent" unicode="&#x157;" horiz-adv-x="333" 
d="M166 0h-112v538h107v-63h2c27 46 74 73 127 73h23v-117c-20 5 -39 11 -72 11c-38 0 -75 -24 -75 -72v-370zM75 -228l29 82h-41v96h93v-94l-35 -84h-46z" />
    <glyph glyph-name="sacute" unicode="&#x15b;" horiz-adv-x="389" 
d="M353 405l-95 -16c-8 43 -28 67 -64 67c-29 0 -49 -15 -49 -43c0 -84 210 -118 210 -278c0 -96 -66 -145 -157 -145c-98 0 -154 56 -171 150l98 27c7 -45 23 -85 74 -85c29 0 50 17 50 47c0 93 -210 128 -210 275c0 85 66 144 150 144c88 0 147 -59 164 -143zM347 746
l-131 -144h-83l79 144h135z" />
    <glyph glyph-name="scircumflex" unicode="&#x15d;" horiz-adv-x="389" 
d="M353 405l-95 -16c-8 43 -28 67 -64 67c-29 0 -49 -15 -49 -43c0 -84 210 -118 210 -278c0 -96 -66 -145 -157 -145c-98 0 -154 56 -171 150l98 27c7 -45 23 -85 74 -85c29 0 50 17 50 47c0 93 -210 128 -210 275c0 85 66 144 150 144c88 0 147 -59 164 -143zM43 602
l96 144h110l96 -144h-92l-59 89l-59 -89h-92z" />
    <glyph glyph-name="scedilla" unicode="&#x15f;" horiz-adv-x="389" 
d="M76 -213l17 50c16 -8 46 -17 65 -17c35 0 59 18 59 41c0 41 -55 40 -83 29l-22 18l61 83c-37 4 -68 17 -91 38c-28 27 -46 64 -55 111l98 27c7 -45 23 -85 74 -85c29 0 50 16 50 47c0 93 -210 128 -210 275c0 85 66 144 150 144c88 0 147 -59 164 -143l-95 -16
c-8 45 -29 67 -64 67c-29 0 -49 -15 -49 -43c0 -84 210 -118 210 -278c0 -71 -36 -118 -94 -136c-13 -3 -26 -6 -39 -8l-35 -51c7 1 14 2 21 2c44 -3 91 -25 91 -76c0 -64 -60 -102 -124 -102c-48 0 -84 16 -99 23z" />
    <glyph glyph-name="scommaaccent" unicode="&#x219;" horiz-adv-x="389" 
d="M353 405l-95 -16c-8 43 -28 67 -64 67c-29 0 -49 -15 -49 -43c0 -84 210 -118 210 -278c0 -96 -66 -145 -157 -145c-98 0 -154 56 -171 150l98 27c7 -45 23 -85 74 -85c29 0 50 17 50 47c0 93 -210 128 -210 275c0 85 66 144 150 144c88 0 147 -59 164 -143zM156 -228
l29 82h-41v96h93v-94l-35 -84h-46z" />
    <glyph glyph-name="tcaron" unicode="&#x165;" horiz-adv-x="278" 
d="M225 571l26 73h-35v78h81v-77l-31 -74h-41zM72 446h-62v92h62v145h112v-145h75v-92h-75v-310c0 -29 13 -44 38 -44h37v-96c-15 -4 -28 -6 -56 -6c-84 0 -131 38 -131 121v335z" />
    <glyph glyph-name="tcommaaccent" unicode="&#x163;" horiz-adv-x="278" 
d="M72 446h-62v92h62v145h112v-145h75v-92h-75v-310c0 -28 12 -44 38 -44h37v-96c-15 -4 -28 -6 -56 -6c-84 0 -131 39 -131 121v335zM123 -228l29 82h-41v96h93v-94l-35 -84h-46z" />
    <glyph glyph-name="uni021B" unicode="&#x21b;" horiz-adv-x="278" 
d="M72 446h-62v92h62v145h112v-145h75v-92h-75v-310c0 -28 12 -44 38 -44h37v-96c-15 -4 -28 -6 -56 -6c-84 0 -131 39 -131 121v335zM123 -228l29 82h-41v96h93v-94l-35 -84h-46z" />
    <glyph glyph-name="tbar" unicode="&#x167;" horiz-adv-x="278" 
d="M72 446h-62v92h62v145h112v-145h75v-92h-75v-88h63v-83h-63v-139c0 -29 13 -44 38 -44h37v-96c-15 -4 -28 -6 -56 -6c-84 0 -131 38 -131 121v164h-54v83h54v88z" />
    <glyph glyph-name="utilde" unicode="&#x169;" 
d="M278 538h112v-538h-106v54c-47 -40 -71 -64 -136 -64c-59 0 -94 43 -94 113v435h112v-417c0 -27 16 -39 40 -39s46 15 72 34v422zM330 733h56c-11 -57 -36 -118 -103 -118c-24 0 -45 10 -65 20s-39 19 -60 19c-31 0 -41 -15 -42 -44h-56c11 57 36 118 103 118
c24 0 45 -10 65 -19s39 -20 60 -20c31 0 41 15 42 44z" />
    <glyph glyph-name="umacron" unicode="&#x16b;" 
d="M278 538h112v-538h-106v54c-47 -40 -71 -64 -136 -64c-59 0 -94 43 -94 113v435h112v-417c0 -27 16 -39 40 -39s46 15 72 34v422zM76 637v64h294v-64h-294z" />
    <glyph glyph-name="ubreve" unicode="&#x16d;" 
d="M278 538h112v-538h-106v54c-47 -40 -71 -64 -136 -64c-59 0 -94 43 -94 113v435h112v-417c0 -27 16 -39 40 -39s46 15 72 34v422zM311 749h58c-5 -76 -50 -142 -147 -142s-142 66 -147 142h58c7 -52 36 -74 89 -74s82 22 89 74z" />
    <glyph glyph-name="uring" unicode="&#x16f;" 
d="M278 538h112v-538h-106v54c-47 -40 -71 -64 -136 -64c-59 0 -94 43 -94 113v435h112v-417c0 -27 16 -39 40 -39s46 15 72 34v422zM167 704c0 -29 23 -52 52 -52s52 23 52 52s-23 52 -52 52s-52 -23 -52 -52zM117 704c0 56 46 102 102 102s102 -46 102 -102
s-46 -102 -102 -102s-102 46 -102 102z" />
    <glyph glyph-name="uhungarumlaut" unicode="&#x171;" 
d="M278 538h112v-538h-106v54c-47 -40 -71 -64 -136 -64c-59 0 -94 43 -94 113v435h112v-417c0 -27 16 -39 40 -39s46 15 72 34v422zM280 746l-125 -144h-79l69 144h135zM456 746l-131 -144h-83l79 144h135z" />
    <glyph glyph-name="uogonek" unicode="&#x173;" 
d="M278 538h112v-538h-35c-6 -3 -12 -6 -18 -10c-32 -23 -83 -54 -83 -106c0 -31 22 -47 49 -47c31 0 63 21 87 38l19 -36c-43 -31 -86 -58 -139 -58c-55 0 -98 32 -98 92c0 52 35 86 79 109c13 6 25 11 36 16v57c-54 -41 -72 -65 -139 -65c-60 0 -94 42 -94 113v435h112
v-417c0 -27 16 -39 40 -39s45 15 72 34v422z" />
    <glyph glyph-name="wcircumflex" unicode="&#x175;" horiz-adv-x="556" 
d="M165 202l71 335h83l60 -335h2l61 336h108l-124 -538h-90l-61 340h-2l-73 -340h-90l-104 538h108l49 -336h2zM127 602l96 144h110l96 -144h-92l-59 89l-59 -89h-92z" />
    <glyph glyph-name="ycircumflex" unicode="&#x177;" horiz-adv-x="389" 
d="M198 194l68 344h113l-141 -578c-24 -98 -69 -129 -153 -129h-47v92h27c56 0 74 30 74 87c0 22 -5 45 -12 71l-117 457h114l72 -344h2zM47 602l96 144h110l96 -144h-92l-59 89l-59 -89h-92z" />
    <glyph glyph-name="zacute" unicode="&#x17a;" horiz-adv-x="389" 
d="M235 446h-191v92h315v-92l-209 -354h209v-92h-329v92zM359 746l-131 -144h-83l79 144h135z" />
    <glyph glyph-name="zdotaccent" unicode="&#x17c;" horiz-adv-x="389" 
d="M235 446h-191v92h315v-92l-209 -354h209v-92h-329v92zM153 722h108v-108h-108v108z" />
    <glyph glyph-name="grave.cap" unicode="&#xe300;" horiz-adv-x="222" 
d="M99 759l-131 144h135l79 -144h-83z" />
    <glyph glyph-name="acute.cap" unicode="&#xe301;" horiz-adv-x="222" 
d="M254 903l-131 -144h-83l79 144h135z" />
    <glyph glyph-name="circumflex.cap" unicode="&#xe302;" horiz-adv-x="222" 
d="M-40 759l96 144h110l96 -144h-92l-59 89l-59 -89h-92z" />
    <glyph glyph-name="caron.cap" unicode="&#xe303;" horiz-adv-x="222" 
d="M262 903l-96 -144h-110l-96 144h92l59 -89l59 89h92z" />
    <glyph glyph-name="caron.alt" unicode="&#xe30b;" horiz-adv-x="222" 
d="M73 544l28 85h-38v93h86v-91l-35 -87h-41z" />
    <glyph glyph-name="tilde.cap" unicode="&#xe304;" horiz-adv-x="222" 
d="M218 890h56c-11 -57 -37 -118 -103 -118c-24 0 -45 9 -65 20s-39 19 -60 19c-31 0 -41 -15 -42 -44h-56c11 57 35 118 103 118c24 0 45 -10 65 -19s39 -20 60 -20c31 0 41 15 42 44z" />
    <glyph glyph-name="dieresis.cap" unicode="&#xe305;" horiz-adv-x="222" 
d="M-22 879h108v-108h-108v108zM244 771h-108v108h108v-108z" />
    <glyph glyph-name="macron.cap" unicode="&#xe306;" horiz-adv-x="222" 
d="M-36 794v64h294v-64h-294z" />
    <glyph glyph-name="uni02C9" unicode="&#x2c9;" horiz-adv-x="222" 
d="M-36 637v64h294v-64h-294z" />
    <glyph glyph-name="breve.cap" unicode="&#xe307;" horiz-adv-x="222" 
d="M200 906h58c-5 -76 -50 -142 -147 -142s-142 66 -147 142h58c7 -52 36 -74 89 -74s82 22 89 74z" />
    <glyph glyph-name="ring.cap" unicode="&#xe308;" horiz-adv-x="222" 
d="M59 860c0 -29 23 -52 52 -52s52 23 52 52s-23 52 -52 52s-52 -23 -52 -52zM9 860c0 56 46 102 102 102s102 -46 102 -102s-46 -102 -102 -102s-102 46 -102 102z" />
    <glyph glyph-name="hungarumlaut.cap" unicode="&#xe309;" horiz-adv-x="222" 
d="M158 903l-125 -144h-79l69 144h135zM334 903l-131 -144h-83l79 144h135z" />
    <glyph glyph-name="dotaccent.cap" unicode="&#xe30a;" horiz-adv-x="222" 
d="M57 879h108v-108h-108v108z" />
    <glyph glyph-name="commaaccent" unicode="&#xe30c;" horiz-adv-x="222" 
d="M75 -228l29 82h-41v96h93v-94l-35 -84h-46z" />
    <glyph glyph-name="commaaccent.alt" unicode="&#xe30d;" horiz-adv-x="222" 
d="M142 746l-26 -73h37v-84h-85v83l32 74h42z" />
    <glyph glyph-name="uni00AD" unicode="&#xad;" horiz-adv-x="333" 
d="M289 223h-245v92h245v-92z" />
    <glyph glyph-name="uni2219" unicode="&#x2219;" horiz-adv-x="222" 
d="M44 253c0 37 28 67 67 67c37 0 67 -30 67 -67c0 -39 -30 -67 -67 -67c-39 0 -67 28 -67 67z" />
    <glyph glyph-name="Euro" unicode="&#x20ac;" 
d="M37 315h37v80h-60l23 84h37v68c0 117 99 185 203 185c56 0 113 -18 156 -57l-31 -114c-32 43 -77 63 -120 63c-45 0 -84 -24 -84 -80v-65h181l-23 -84h-158v-80h138l-23 -84h-115v-48c0 -61 39 -86 86 -86c45 0 82 11 118 44v-116c-43 -25 -88 -35 -132 -35
c-104 0 -196 69 -196 185v56h-60z" />
    <glyph glyph-name="uni2215" unicode="&#x2215;" horiz-adv-x="167" 
d="M-76 -10h-91l410 742h91z" />
    <glyph glyph-name="notequal" unicode="&#x2260;" horiz-adv-x="600" 
d="M562 94h-286l-78 -155l-98 50l52 105h-115v113h173l56 112h-229v113h286l78 153l99 -49l-53 -104h115v-113h-172l-56 -112h228v-113z" />
    <glyph glyph-name="approxequal" unicode="&#x2248;" horiz-adv-x="600" 
d="M497 457h74c-8 -93 -50 -176 -156 -176c-75 0 -186 66 -247 66c-37 0 -57 -33 -62 -66h-75c8 88 49 175 151 175c79 0 178 -63 253 -63c39 0 55 29 62 64zM495 244h74c-8 -92 -48 -176 -151 -176c-77 0 -195 67 -252 67c-36 0 -57 -35 -62 -67h-75c8 88 50 177 151 177
c83 0 171 -64 254 -64c37 0 54 28 61 63z" />
    <glyph glyph-name="lessequal" unicode="&#x2264;" horiz-adv-x="600" 
d="M562 106l-525 170v113l525 174v-118l-370 -112l370 -109v-118zM562 -38h-525v113h525v-113z" />
    <glyph glyph-name="greaterequal" unicode="&#x2265;" horiz-adv-x="600" 
d="M562 276l-525 -170v118l370 109l-370 112v118l525 -174v-113zM562 -38h-525v113h525v-113z" />
    <glyph glyph-name="Delta" unicode="&#x2206;" horiz-adv-x="689" 
d="M681 0h-672l267 712h122zM516 109l-180 467l-168 -467h348z" />
    <glyph glyph-name="uni0394" unicode="&#x394;" horiz-adv-x="689" 
d="M681 0h-672l267 712h122zM516 109l-180 467l-168 -467h348z" />
    <glyph glyph-name="Omega" unicode="&#x2126;" horiz-adv-x="761" 
d="M703 0h-278v192c103 24 153 102 153 205c0 117 -81 214 -202 214c-123 0 -204 -98 -204 -215c0 -104 51 -177 152 -204v-192h-277v102h180v39c-120 35 -181 144 -181 264c0 187 148 316 329 316c183 0 328 -125 328 -313c0 -120 -58 -235 -182 -267v-39h182v-102z" />
    <glyph glyph-name="uni03A9" unicode="&#x3a9;" horiz-adv-x="761" 
d="M703 0h-278v192c103 24 153 102 153 205c0 117 -81 214 -202 214c-123 0 -204 -98 -204 -215c0 -104 51 -177 152 -204v-192h-277v102h180v39c-120 35 -181 144 -181 264c0 187 148 316 329 316c183 0 328 -125 328 -313c0 -120 -58 -235 -182 -267v-39h182v-102z" />
    <glyph glyph-name="uni03BC" unicode="&#x3bc;" 
d="M278 538h112v-538h-106v54c-42 -36 -67 -59 -118 -64v-160h-112v708h112v-417c0 -27 16 -39 40 -39s45 15 72 34v422z" />
    <glyph glyph-name="pi" unicode="&#x3c0;" horiz-adv-x="597" 
d="M574 98v-84c-31 -15 -55 -22 -88 -22c-91 0 -107 57 -107 133v254h-196v-379h-112v379h-70v106h570v-106h-79v-228c0 -29 -1 -64 38 -64c15 0 29 4 44 11z" />
    <glyph glyph-name="afii61289" unicode="&#x2113;" horiz-adv-x="500" 
d="M406 117l43 -66c-50 -43 -105 -65 -165 -65c-100 0 -158 59 -158 144v53l-56 -51h-2l-45 70l102 85v241c0 112 72 193 172 193c87 0 145 -59 145 -147c0 -103 -62 -196 -189 -307v-117c0 -53 33 -70 63 -70c25 0 56 12 88 37h2zM337 567c0 39 -16 69 -40 69
s-44 -32 -44 -84v-177c59 64 84 131 84 192z" />
    <glyph glyph-name="estimated" unicode="&#x212e;" horiz-adv-x="600" 
d="M561 259h-404v-181c39 -39 88 -59 145 -59c84 0 142 36 193 120l35 -21c-61 -96 -123 -135 -228 -135c-157 0 -258 122 -258 276c0 155 101 276 258 276c154 0 259 -114 259 -276zM157 295h291v145c-42 40 -91 60 -147 60s-104 -20 -144 -60v-145z" />
    <glyph glyph-name="infinity" unicode="&#x221e;" horiz-adv-x="823" 
d="M778 265c0 -104 -65 -187 -173 -187c-83 0 -142 54 -193 113c-57 -60 -104 -112 -192 -112c-108 0 -175 80 -175 184c0 103 63 183 171 183c89 0 143 -55 196 -119c51 62 107 120 194 120c107 0 172 -79 172 -182zM684 262c0 47 -31 85 -80 85c-53 0 -99 -51 -132 -87
c35 -40 80 -81 135 -81c49 0 77 36 77 83zM352 260c-33 36 -85 86 -136 86c-47 0 -76 -41 -76 -85c0 -48 30 -81 79 -81c51 0 102 43 133 80z" />
    <glyph glyph-name="partialdiff" unicode="&#x2202;" horiz-adv-x="560" 
d="M518 359c0 -171 -46 -372 -256 -372c-133 0 -222 97 -222 229c0 127 89 222 217 222c55 0 98 -18 141 -53l1 26c3 92 -35 220 -149 220c-48 0 -85 -21 -121 -50l-62 72c56 43 105 68 178 68c207 0 273 -187 273 -362zM397 265l-1 24c-33 39 -70 62 -122 62
c-83 0 -120 -66 -120 -141c0 -70 34 -135 112 -135c94 0 134 112 131 190z" />
    <glyph glyph-name="integral" unicode="&#x222b;" horiz-adv-x="614" 
d="M493 708c0 -31 -23 -55 -54 -55c-64 0 -47 76 -75 76c-15 0 -18 -16 -18 -28c0 -48 4 -97 4 -145l1 -470c0 -114 16 -300 -150 -300c-46 0 -113 23 -113 79c0 31 23 53 54 53c64 0 46 -76 74 -76c17 0 18 21 18 33c0 37 -4 73 -4 112l-1 529c0 67 -5 168 43 222
c29 31 65 47 110 47s111 -22 111 -77z" />
    <glyph glyph-name="radical" unicode="&#x221a;" horiz-adv-x="545" 
d="M557 786l-213 -1000h-110l-151 313l-51 -24l-44 93l155 71l126 -269l166 816h122z" />
    <glyph glyph-name="summation" unicode="&#x2211;" horiz-adv-x="654" 
d="M629 -214h-604v95l301 411l-288 400v94h579v-109h-421l272 -384l-290 -398h451v-109z" />
    <glyph glyph-name="product" unicode="&#x220f;" horiz-adv-x="743" 
d="M683 -214h-119v891h-385v-891h-119v1000h623v-1000z" />
    <glyph glyph-name="lozenge" unicode="&#x25ca;" horiz-adv-x="593" 
d="M528 356l-180 -391h-105l-178 391l179 391h104zM413 356l-117 279l-116 -279l116 -280z" />
    <glyph glyph-name="uniF8FF" unicode="&#xf8ff;" horiz-adv-x="512" 
d="M278 117h-56v67h56v-67zM271 234h-46l-2 17c0 37 4 64 13 81s24 37 46 59c43 41 50 58 50 83c0 48 -35 85 -76 85s-74 -27 -82 -95l-50 8c9 95 63 137 135 137c71 0 124 -52 124 -131c0 -43 -12 -73 -63 -120c-25 -22 -39 -39 -43 -52s-6 -37 -6 -72zM50 50h412v617h-412
v-617zM0 718h512v-718h-512v718z" />
    </font>
</defs>
</svg>
