<?xml version="1.0" standalone="no"?>
<!DOCTYPE svg PUBLIC "-//W3C//DTD SVG 1.1//EN" "http://www.w3.org/Graphics/SVG/1.1/DTD/svg11.dtd" >
<svg xmlns="http://www.w3.org/2000/svg" width="100%" height="100%">
<metadata>
Created by FontXChange 20110222 at Fri Sep 27 15:31:39 2013
 By Agius, Candice
Copyright (c) 2007 Linotype GmbH, www.linotype.com. All rights reserved. This font software may not be reproduced, modified, disclosed or transferred without the express written approval of Linotype GmbH. Trade Gothic is either a registered trademark or a trademark of Adrian Williams Design Ltd.. This typeface is original artwork of Jackson Burke. The design may be protected in certain jurisdictions. The digitally encoded machine readable software for producing the Typefaces licensed to you is copyrighted (c) 1989, 1992 Adobe Systems. All Rights Reserved. This software is the property of Adobe Systems Incorporated and its licensors, and may not be reproduced, used, displayed, modified, disclosed or transferred without the express written approval of Adobe.
</metadata>
<defs>
<font id="TradeGothicLTPro-Bold" horiz-adv-x="500" >
  <font-face 
    font-family="TradeGothicLTPro"
    font-weight="700"
    font-stretch="normal"
    units-per-em="1000"
    panose-1="2 11 8 3 4 3 3 2 0 4"
    ascent="722"
    descent="-278"
    x-height="544"
    cap-height="722"
    bbox="-167 -228 1000 971"
    underline-thickness="50"
    underline-position="-50"
    stemh="110"
    stemv="90"
    unicode-range="U+000D-FB02"
  />
<missing-glyph horiz-adv-x="512" 
d="M278 117h-56v67h56v-67zM271 234h-46l-2 17c0 37 4 64 13 81s24 37 46 59c43 41 50 58 50 83c0 48 -35 85 -76 85s-74 -27 -82 -95l-50 8c9 95 63 137 135 137c71 0 124 -52 124 -131c0 -43 -12 -73 -63 -120c-25 -22 -39 -39 -43 -52s-6 -37 -6 -72zM50 50h412v617h-412
v-617zM0 718h512v-718h-512v718z" />
    <glyph glyph-name="fi" unicode="fi" 
d="M322 520h126v-520h-126v520zM448 614h-126v114h126v-114zM270 726v-104h-36c-30 0 -43 -19 -43 -46v-56h75v-102h-75v-418h-126v418h-57v102h57v52c0 126 53 160 145 160c18 0 39 -3 60 -6z" />
    <glyph glyph-name="fl" unicode="fl" 
d="M322 0v722h126v-722h-126zM270 726v-104h-36c-30 0 -43 -19 -43 -46v-56h75v-102h-75v-418h-126v418h-57v102h57v52c0 126 53 160 145 160c18 0 39 -3 60 -6z" />
    <glyph glyph-name="napostrophe" unicode="&#x22;n" horiz-adv-x="616" 
d="M302 0h-126v544h122v-62c46 40 89 72 141 72c77 0 117 -39 117 -140v-414h-126v400c0 36 -12 60 -46 60c-26 0 -55 -25 -82 -49v-411zM0 432l51 148h-60v142h142v-142l-63 -148h-70z" />
    <glyph glyph-name="IJ" unicode="IJ" horiz-adv-x="599" 
d="M208 0h-138v722h138v-722zM391 722h138v-569c0 -97 -65 -163 -185 -163c-30 0 -48 1 -68 3v122c14 -1 25 -3 37 -3c63 0 78 17 78 69v541z" />
    <glyph glyph-name="ij" unicode="ij" horiz-adv-x="538" 
d="M76 544h126v-544h-126v544zM202 638h-126v114h126v-114zM336 544h126v-588c0 -104 -70 -148 -154 -148c-16 0 -32 1 -46 3v111c54 0 74 16 74 50v572zM462 638h-126v114h126v-114z" />
    <glyph glyph-name=".notdef" horiz-adv-x="512" 
d="M278 117h-56v67h56v-67zM271 234h-46l-2 17c0 37 4 64 13 81s24 37 46 59c43 41 50 58 50 83c0 48 -35 85 -76 85s-74 -27 -82 -95l-50 8c9 95 63 137 135 137c71 0 124 -52 124 -131c0 -43 -12 -73 -63 -120c-25 -22 -39 -39 -43 -52s-6 -37 -6 -72zM50 50h412v617h-412
v-617zM0 718h512v-718h-512v718z" />
    <glyph glyph-name="space" unicode=" " horiz-adv-x="278" 
 />
    <glyph glyph-name="exclam" unicode="!" horiz-adv-x="278" 
d="M212 722l-28 -478h-90l-28 478h146zM210 0h-142v142h142v-142z" />
    <glyph glyph-name="quotedbl" unicode="&#x22;" horiz-adv-x="333" 
d="M199 452v270h110v-270h-110zM24 452v270h110v-270h-110z" />
    <glyph glyph-name="numbersign" unicode="#" horiz-adv-x="556" 
d="M506 300v-94h-99l-29 -206h-96l28 206h-99l-29 -206h-96l28 206h-94v94h107l18 122h-94v94h106l29 206h96l-28 -206h99l29 206h96l-28 -206h86v-94h-98l-18 -122h86zM341 422h-99l-18 -122h99z" />
    <glyph glyph-name="dollar" unicode="$" horiz-adv-x="556" 
d="M19 127l86 78c31 -43 76 -83 127 -93v206c-104 30 -200 98 -200 211c0 118 90 188 200 193v64h78v-64c84 -14 144 -55 190 -106l-78 -75c-29 35 -65 66 -112 71v-184c112 -40 212 -93 212 -228c0 -121 -95 -197 -212 -200v-114h-78v115c-69 0 -164 60 -213 126zM232 450
v168c-46 -1 -86 -29 -86 -79c0 -44 42 -76 86 -89zM310 295v-185c52 0 90 35 90 86c0 59 -43 78 -90 99z" />
    <glyph glyph-name="percent" unicode="%" horiz-adv-x="889" 
d="M214 722c101 0 180 -82 180 -180s-79 -180 -180 -180s-180 82 -180 180s79 180 180 180zM214 624c-45 0 -82 -39 -82 -82s37 -82 82 -82s82 39 82 82s-37 82 -82 82zM675 360c101 0 180 -82 180 -180s-79 -180 -180 -180s-180 82 -180 180s79 180 180 180zM675 262
c-45 0 -82 -39 -82 -82s37 -82 82 -82s82 39 82 82s-37 82 -82 82zM197 -10l415 742h85l-415 -742h-85z" />
    <glyph glyph-name="ampersand" unicode="&#x26;" horiz-adv-x="667" 
d="M274 648c-40 0 -63 -34 -63 -78c0 -42 17 -74 41 -114c38 34 86 67 86 125c0 31 -22 67 -64 67zM507 363l111 -31c-23 -60 -49 -121 -86 -180c29 -20 63 -36 100 -40v-122c-69 0 -114 16 -182 74c-47 -46 -110 -74 -181 -74c-139 0 -235 68 -235 200
c0 100 50 153 122 200c-38 57 -59 102 -59 162c0 124 87 180 185 180s170 -72 170 -163c0 -93 -72 -147 -139 -200c39 -53 82 -102 129 -147c26 47 51 91 65 141zM172 208c0 -70 50 -104 103 -104c37 0 73 17 93 40c-55 48 -102 100 -144 154c-31 -24 -52 -48 -52 -90z" />
    <glyph glyph-name="quoteright" unicode="&#x2019;" horiz-adv-x="222" 
d="M49 432l51 148h-60v142h142v-142l-63 -148h-70z" />
    <glyph glyph-name="parenleft" unicode="(" horiz-adv-x="333" 
d="M304 -84h-118c-81 114 -136 255 -136 408s55 294 136 408h118c-77 -108 -144 -233 -144 -408s67 -300 144 -408z" />
    <glyph glyph-name="parenright" unicode=")" horiz-adv-x="333" 
d="M147 -84h-118c77 108 144 233 144 408s-67 300 -144 408h118c81 -114 136 -255 136 -408s-55 -294 -136 -408z" />
    <glyph glyph-name="asterisk" unicode="*" 
d="M200 722h100l-29 -145l4 -5l133 68l26 -89l-146 -18l-2 -6l106 -104l-75 -57l-64 134h-6l-64 -134l-75 57l106 104l-2 6l-146 18l26 89l133 -68l4 5z" />
    <glyph glyph-name="plus" unicode="+" horiz-adv-x="600" 
d="M239 333v211h122v-211h211v-122h-211v-211h-122v211h-211v122h211z" />
    <glyph glyph-name="comma" unicode="," horiz-adv-x="278" 
d="M77 -148l51 148h-60v142h142v-142l-63 -148h-70z" />
    <glyph glyph-name="hyphen" unicode="-" horiz-adv-x="333" 
d="M289 217h-246v110h246v-110z" />
    <glyph glyph-name="period" unicode="." horiz-adv-x="278" 
d="M210 0h-142v142h142v-142z" />
    <glyph glyph-name="slash" unicode="/" horiz-adv-x="278" 
d="M336 732l-272 -742h-122l272 742h122z" />
    <glyph glyph-name="zero" unicode="0" horiz-adv-x="556" 
d="M36 240v242c0 154 86 250 242 250s242 -96 242 -250v-242c0 -154 -86 -250 -242 -250s-242 96 -242 250zM168 467v-212c0 -117 36 -151 110 -151s110 34 110 151v212c0 117 -36 151 -110 151s-110 -34 -110 -151z" />
    <glyph glyph-name="one" unicode="1" horiz-adv-x="556" 
d="M235 0v552h-111v79c106 21 124 57 158 101h79v-732h-126z" />
    <glyph glyph-name="two" unicode="2" horiz-adv-x="556" 
d="M495 0h-455v117c288 274 334 326 334 402c0 58 -32 99 -96 99c-67 0 -103 -41 -103 -95v-26h-132v34c0 106 85 201 225 201c141 0 238 -72 238 -210c0 -167 -195 -296 -299 -408h288v-114z" />
    <glyph glyph-name="three" unicode="3" horiz-adv-x="556" 
d="M34 212h132c0 -74 33 -108 107 -108c68 0 105 45 105 107c0 81 -46 112 -146 113v114c93 0 129 26 129 93c0 50 -33 87 -93 87c-49 0 -85 -35 -87 -84h-132c1 133 99 198 220 198c130 0 224 -68 224 -196c0 -63 -30 -128 -87 -157c77 -30 104 -93 104 -174
c0 -143 -105 -215 -235 -215c-162 0 -241 86 -241 222z" />
    <glyph glyph-name="four" unicode="4" horiz-adv-x="556" 
d="M110 292h207v282h-2zM0 306l306 416h137v-430h101v-102h-101v-190h-126v190h-317v116z" />
    <glyph glyph-name="five" unicode="5" horiz-adv-x="556" 
d="M35 207h132c-3 -67 38 -103 103 -103c86 0 112 56 112 157c0 89 -30 139 -105 139c-45 0 -81 -22 -106 -56h-109v378h417v-114h-303v-150c38 27 78 44 131 44c154 0 207 -96 207 -244c0 -167 -69 -268 -242 -268c-180 0 -237 108 -237 217z" />
    <glyph glyph-name="six" unicode="6" horiz-adv-x="556" 
d="M168 295v-40c0 -117 36 -151 110 -151c69 0 104 50 104 133c0 80 -43 117 -104 117c-42 0 -76 -28 -110 -59zM501 533h-132c-2 49 -42 85 -91 85c-74 0 -110 -34 -110 -151v-67c45 34 98 56 155 56c126 0 191 -98 191 -214c0 -148 -72 -252 -236 -252
c-156 0 -242 96 -242 250v242c0 154 86 250 242 250c125 0 213 -69 223 -199z" />
    <glyph glyph-name="seven" unicode="7" horiz-adv-x="556" 
d="M30 608v114h456v-66l-195 -656h-144l200 608h-317z" />
    <glyph glyph-name="eight" unicode="8" horiz-adv-x="556" 
d="M388 209c0 67 -43 111 -110 111s-110 -44 -110 -111c0 -62 29 -105 110 -105s110 43 110 105zM370 525c0 51 -38 93 -92 93s-92 -42 -92 -93s41 -91 92 -91s92 40 92 91zM520 205c0 -143 -105 -215 -242 -215s-242 72 -242 215c0 81 28 144 105 174
c-57 29 -87 94 -87 157c0 134 99 196 224 196s224 -62 224 -196c0 -63 -30 -128 -87 -157c77 -30 105 -93 105 -174z" />
    <glyph glyph-name="nine" unicode="9" horiz-adv-x="556" 
d="M388 427v40c0 117 -36 151 -110 151c-69 0 -104 -50 -104 -133c0 -80 43 -117 104 -117c42 0 76 28 110 59zM55 189h132c2 -49 42 -85 91 -85c74 0 110 34 110 151v67c-45 -34 -98 -56 -155 -56c-126 0 -191 98 -191 214c0 148 72 252 236 252c156 0 242 -96 242 -250
v-242c0 -154 -86 -250 -242 -250c-125 0 -213 69 -223 199z" />
    <glyph glyph-name="colon" unicode=":" horiz-adv-x="278" 
d="M210 0h-142v142h142v-142zM210 300h-142v142h142v-142z" />
    <glyph glyph-name="semicolon" unicode=";" horiz-adv-x="278" 
d="M77 -148l51 148h-60v142h142v-142l-63 -148h-70zM210 300h-142v142h142v-142z" />
    <glyph glyph-name="less" unicode="&#x3c;" horiz-adv-x="600" 
d="M572 108v-117l-544 233v96l544 233v-117l-389 -164z" />
    <glyph glyph-name="equal" unicode="=" horiz-adv-x="600" 
d="M572 455v-122h-544v122h544zM572 211v-122h-544v122h544z" />
    <glyph glyph-name="greater" unicode="&#x3e;" horiz-adv-x="600" 
d="M28 -9v117l389 164l-389 164v117l544 -233v-96z" />
    <glyph glyph-name="question" unicode="?" horiz-adv-x="444" 
d="M125 542l-115 32c25 99 99 158 201 158c95 0 187 -59 187 -170c0 -46 -36 -94 -72 -140c-36 -47 -72 -92 -72 -132v-50h-110v98c0 48 128 176 128 234c0 34 -31 58 -63 58c-41 0 -81 -44 -84 -88zM270 0h-142v142h142v-142z" />
    <glyph glyph-name="at" unicode="@" horiz-adv-x="800" 
d="M411 452c-62 0 -107 -60 -107 -117c0 -48 29 -83 77 -83c65 0 109 59 109 119c0 48 -32 81 -79 81zM518 492l12 50h90l-50 -244c-2 -11 -7 -26 -7 -39c0 -11 4 -19 15 -19c46 0 101 55 101 162c0 160 -113 246 -265 246c-167 0 -275 -123 -275 -288
c0 -175 121 -286 291 -286c77 0 147 28 197 70h92c-69 -99 -174 -154 -297 -154c-211 0 -385 156 -385 370c0 211 171 372 380 372c176 0 346 -118 346 -302c0 -220 -191 -288 -253 -288c-28 0 -53 18 -54 52l-2 1c-25 -28 -64 -53 -100 -53c-86 0 -160 82 -160 176
c0 120 80 236 205 236c49 0 91 -19 119 -62z" />
    <glyph glyph-name="A" unicode="A" horiz-adv-x="556" 
d="M278 566l-68 -292h137l-67 292h-2zM146 0h-133l179 722h177l174 -722h-132l-35 152h-191z" />
    <glyph glyph-name="B" unicode="B" horiz-adv-x="556" 
d="M62 0v722h194c148 0 233 -62 233 -186c0 -63 -31 -115 -89 -150c76 -48 106 -88 106 -178c0 -143 -96 -208 -242 -208h-202zM200 322v-208h58c72 0 110 42 110 105c0 69 -48 103 -120 103h-48zM200 608v-172h48c62 0 103 36 103 85c0 53 -31 87 -96 87h-55z" />
    <glyph glyph-name="C" unicode="C" horiz-adv-x="556" 
d="M188 508v-294c0 -80 35 -102 90 -102s90 22 90 102v48h138v-30c0 -178 -94 -242 -228 -242s-228 64 -228 242v258c0 178 94 242 228 242s228 -64 228 -242v-2h-138v20c0 80 -35 102 -90 102s-90 -22 -90 -102z" />
    <glyph glyph-name="D" unicode="D" horiz-adv-x="556" 
d="M62 0v722h192c158 0 246 -68 252 -250v-222c-6 -182 -94 -250 -252 -250h-192zM200 600v-478h48c76 0 120 36 120 144v190c0 102 -34 144 -120 144h-48z" />
    <glyph glyph-name="E" unicode="E" 
d="M450 0h-388v722h378v-122h-240v-166h183v-122h-183v-190h250v-122z" />
    <glyph glyph-name="F" unicode="F" horiz-adv-x="444" 
d="M200 0h-138v722h360v-122h-222v-166h174v-122h-174v-312z" />
    <glyph glyph-name="G" unicode="G" horiz-adv-x="556" 
d="M428 0l-21 60c-37 -42 -77 -70 -129 -70c-134 0 -228 64 -228 242v258c0 178 94 242 228 242c141 0 217 -81 222 -245h-138c0 93 -34 123 -84 123c-55 0 -90 -22 -90 -102v-294c0 -80 35 -102 90 -102c52 0 84 38 84 100v44h-97v114h235v-370h-72z" />
    <glyph glyph-name="H" unicode="H" horiz-adv-x="611" 
d="M208 0h-138v722h138v-288h195v288h138v-722h-138v312h-195v-312z" />
    <glyph glyph-name="I" unicode="I" horiz-adv-x="278" 
d="M208 0h-138v722h138v-722z" />
    <glyph glyph-name="J" unicode="J" horiz-adv-x="333" 
d="M125 722h138v-569c0 -97 -65 -163 -185 -163c-30 0 -48 1 -68 3v122c14 -1 25 -3 37 -3c63 0 78 17 78 69v541z" />
    <glyph glyph-name="K" unicode="K" horiz-adv-x="556" 
d="M200 0h-138v722h138v-298h2l179 298h151l-186 -291l207 -431h-155l-144 303l-54 -82v-221z" />
    <glyph glyph-name="L" unicode="L" horiz-adv-x="444" 
d="M422 0h-360v722h138v-600h222v-122z" />
    <glyph glyph-name="M" unicode="M" horiz-adv-x="778" 
d="M188 0h-118v722h193l125 -474h2l125 474h193v-722h-118v568h-2l-147 -568h-104l-147 568h-2v-568z" />
    <glyph glyph-name="N" unicode="N" horiz-adv-x="611" 
d="M196 0h-126v722h151l192 -428h2v428h126v-722h-132l-211 466h-2v-466z" />
    <glyph glyph-name="O" unicode="O" horiz-adv-x="556" 
d="M50 232v258c0 178 94 242 228 242s228 -64 228 -242v-258c0 -178 -94 -242 -228 -242s-228 64 -228 242zM188 508v-294c0 -80 35 -102 90 -102s90 22 90 102v294c0 80 -35 102 -90 102s-90 -22 -90 -102z" />
    <glyph glyph-name="P" unicode="P" horiz-adv-x="556" 
d="M208 0h-138v722h199c170 0 253 -80 253 -216s-83 -216 -253 -216h-61v-290zM208 608v-204h74c68 0 102 34 102 102s-34 102 -102 102h-74z" />
    <glyph glyph-name="Q" unicode="Q" horiz-adv-x="556" 
d="M549 67v-120c-67 0 -111 31 -145 71c-36 -20 -78 -28 -126 -28c-134 0 -228 64 -228 242v258c0 178 94 242 228 242s228 -64 228 -242v-258c0 -59 -10 -105 -29 -141c19 -14 42 -23 72 -24zM269 180v120c45 -6 74 -32 97 -66h2v274c0 80 -35 102 -90 102
s-90 -22 -90 -102v-294c0 -80 35 -102 90 -102c21 0 38 3 52 11c-19 27 -38 49 -61 57z" />
    <glyph glyph-name="R" unicode="R" horiz-adv-x="556" 
d="M534 0h-148l-120 294h-66v-294h-138v722h200c166 0 245 -80 245 -216c0 -90 -32 -155 -109 -184zM200 608v-200h71c61 0 98 30 98 100s-37 100 -98 100h-71z" />
    <glyph glyph-name="S" unicode="S" horiz-adv-x="556" 
d="M491 557l-124 -36c-23 68 -53 97 -101 97c-49 0 -76 -30 -76 -79c0 -109 308 -117 308 -343c0 -124 -85 -206 -230 -206c-112 0 -199 61 -236 203l136 29c16 -87 66 -118 107 -118c48 0 85 32 85 86c0 136 -308 138 -308 340c0 124 74 202 217 202
c123 0 198 -73 222 -175z" />
    <glyph glyph-name="T" unicode="T" 
d="M20 722h460v-122h-161v-600h-138v600h-161v122z" />
    <glyph glyph-name="U" unicode="U" horiz-adv-x="611" 
d="M70 722h138v-505c0 -69 30 -105 97 -105s98 36 98 105v505h138v-506c0 -159 -94 -226 -236 -226s-235 67 -235 226v506z" />
    <glyph glyph-name="V" unicode="V" horiz-adv-x="556" 
d="M200 0l-185 722h136l127 -516h2l126 516h135l-184 -722h-157z" />
    <glyph glyph-name="W" unicode="W" horiz-adv-x="833" 
d="M174 0l-151 722h128l97 -472h2l99 472h133l100 -472h2l96 472h129l-158 -722h-133l-101 494h-2l-109 -494h-132z" />
    <glyph glyph-name="X" unicode="X" horiz-adv-x="556" 
d="M174 722l104 -216l104 216h148l-175 -342l192 -380h-149l-120 255l-120 -255h-149l194 380l-177 342h148z" />
    <glyph glyph-name="Y" unicode="Y" horiz-adv-x="556" 
d="M159 722l121 -291l117 291h147l-197 -430v-292h-138v292l-197 430h147z" />
    <glyph glyph-name="Z" unicode="Z" 
d="M61 600v122h400v-116l-273 -484h279v-122h-434v117l273 483h-245z" />
    <glyph glyph-name="bracketleft" unicode="[" horiz-adv-x="333" 
d="M284 -74h-234v796h234v-60h-124v-676h124v-60z" />
    <glyph glyph-name="backslash" unicode="\" horiz-adv-x="278" 
d="M214 -10l-272 742h122l272 -742h-122z" />
    <glyph glyph-name="bracketright" unicode="]" horiz-adv-x="333" 
d="M49 722h234v-796h-234v60h124v676h-124v60z" />
    <glyph glyph-name="asciicircum" unicode="^" horiz-adv-x="600" 
d="M169 320h-117l194 402h108l194 -402h-119l-129 282z" />
    <glyph glyph-name="underscore" unicode="_" 
d="M500 -125h-500v50h500v-50z" />
    <glyph glyph-name="quoteleft" unicode="&#x2018;" horiz-adv-x="222" 
d="M173 732l-51 -148h60v-142h-142v142l63 148h70z" />
    <glyph glyph-name="a" unicode="a" 
d="M174 385h-126c5 61 30 103 67 130c36 27 85 39 135 39c134 0 185 -68 185 -165v-345c0 -15 3 -30 7 -44h-126c-3 14 -5 31 -9 53c-37 -37 -87 -63 -150 -63c-76 0 -125 42 -125 130c0 126 120 180 277 227v40c0 47 -29 65 -65 65c-38 0 -70 -28 -70 -67zM309 134v132
c-75 -26 -151 -68 -151 -125c0 -36 22 -57 56 -57c38 0 65 20 95 50z" />
    <glyph glyph-name="b" unicode="b" 
d="M186 421v-298c25 -27 48 -39 76 -39c34 0 62 22 62 130v116c0 108 -28 130 -62 130c-28 0 -51 -12 -76 -39zM176 0h-116v722h126v-228c60 44 92 60 126 60c98 0 138 -76 138 -216v-132c0 -140 -40 -216 -138 -216c-56 0 -112 42 -134 76h-2v-66z" />
    <glyph glyph-name="c" unicode="c" 
d="M449 356h-125v24c0 42 -30 64 -74 64s-74 -22 -74 -64v-216c0 -42 30 -64 74 -64s74 22 74 64v34h126v-2c0 -144 -74 -206 -200 -206s-200 62 -200 206v152c0 144 74 206 200 206c123 0 197 -60 199 -198z" />
    <glyph glyph-name="d" unicode="d" 
d="M314 123v298c-25 27 -48 39 -76 39c-34 0 -62 -22 -62 -130v-116c0 -108 28 -130 62 -130c28 0 51 12 76 39zM440 0h-116v66h-2c-22 -34 -78 -76 -134 -76c-98 0 -138 76 -138 216v132c0 140 40 216 138 216c34 0 66 -16 126 -60v228h126v-722z" />
    <glyph glyph-name="e" unicode="e" 
d="M450 242h-274v-72c0 -54 32 -78 74 -78c53 0 74 34 74 76h126c-6 -112 -73 -178 -200 -178c-120 0 -200 74 -200 193v178c0 119 80 193 200 193c117 0 200 -74 200 -185v-127zM176 344h148v30c0 48 -23 78 -74 78s-74 -30 -74 -78v-30z" />
    <glyph glyph-name="f" unicode="f" horiz-adv-x="278" 
d="M270 726v-104h-36c-30 0 -43 -19 -43 -46v-56h75v-102h-75v-418h-126v418h-57v102h57v52c0 126 53 160 145 160c18 0 39 -3 60 -6z" />
    <glyph glyph-name="g" unicode="g" 
d="M292 347c0 70 -22 105 -66 105c-48 0 -66 -33 -66 -118c0 -68 22 -102 60 -102c54 0 72 20 72 115zM478 554v-110c-10 2 -29 8 -39 8c-13 0 -26 -7 -43 -12c8 -36 16 -63 16 -96c0 -136 -58 -214 -182 -214c-18 0 -33 1 -52 7c-7 -10 -22 -19 -22 -32
c0 -68 316 37 316 -160c0 -93 -96 -137 -242 -137c-134 0 -208 38 -208 99c0 41 46 66 76 85c-30 18 -52 42 -52 77c0 43 45 72 76 91c-61 40 -82 98 -82 189c0 117 45 205 186 205c52 0 110 -24 142 -63c32 40 63 63 110 63zM306 -36l-138 12c-13 -13 -26 -24 -26 -44
c0 -28 41 -40 115 -40c60 0 95 15 95 43c0 18 -8 26 -46 29z" />
    <glyph glyph-name="h" unicode="h" 
d="M186 0h-126v722h126v-240c42 40 85 72 137 72c77 0 117 -39 117 -140v-414h-126v400c0 36 -12 60 -46 60c-26 0 -55 -25 -82 -49v-411z" />
    <glyph glyph-name="i" unicode="i" horiz-adv-x="278" 
d="M76 544h126v-544h-126v544zM202 638h-126v114h126v-114z" />
    <glyph glyph-name="j" unicode="j" horiz-adv-x="278" 
d="M76 544h126v-588c0 -104 -70 -148 -154 -148c-16 0 -32 1 -46 3v111c54 0 74 16 74 50v572zM202 638h-126v114h126v-114z" />
    <glyph glyph-name="k" unicode="k" 
d="M192 0h-126v722h126v-389h2l134 211h141l-125 -184l136 -360h-133l-92 255l-63 -89v-166z" />
    <glyph glyph-name="l" unicode="l" horiz-adv-x="278" 
d="M76 0v722h126v-722h-126z" />
    <glyph glyph-name="m" unicode="m" horiz-adv-x="722" 
d="M60 0v544h122v-62c41 37 82 72 135 72c47 0 81 -32 96 -82c39 43 79 82 134 82c76 0 115 -46 115 -144v-410h-126v414c0 36 -13 46 -33 46c-24 0 -63 -28 -79 -49v-411h-126v414c0 36 -14 46 -34 46c-27 0 -63 -28 -78 -49v-411h-126z" />
    <glyph glyph-name="n" unicode="n" 
d="M186 0h-126v544h122v-62c46 40 89 72 141 72c77 0 117 -39 117 -140v-414h-126v400c0 36 -12 60 -46 60c-26 0 -55 -25 -82 -49v-411z" />
    <glyph glyph-name="o" unicode="o" 
d="M50 196v152c0 144 74 206 200 206s200 -62 200 -206v-152c0 -144 -74 -206 -200 -206s-200 62 -200 206zM176 380v-216c0 -42 30 -64 74 -64s74 22 74 64v216c0 42 -30 64 -74 64s-74 -22 -74 -64z" />
    <glyph glyph-name="p" unicode="p" 
d="M186 421v-298c25 -27 48 -39 76 -39c34 0 62 22 62 130v116c0 108 -28 130 -62 130c-28 0 -51 -12 -76 -39zM60 544h116v-66h2c22 34 78 76 134 76c98 0 138 -76 138 -216v-132c0 -140 -40 -216 -138 -216c-34 0 -66 16 -126 60v-242h-126v736z" />
    <glyph glyph-name="q" unicode="q" 
d="M314 123v298c-25 27 -48 39 -76 39c-34 0 -62 -22 -62 -130v-116c0 -108 28 -130 62 -130c28 0 51 12 76 39zM324 544h116v-736h-126v242c-60 -44 -92 -60 -126 -60c-98 0 -138 76 -138 216v132c0 140 40 216 138 216c56 0 112 -42 134 -76h2v66z" />
    <glyph glyph-name="r" unicode="r" horiz-adv-x="333" 
d="M186 0h-126v544h123v-72h2c29 54 67 82 130 82v-136c-21 6 -45 14 -67 14c-41 0 -62 -31 -62 -60v-372z" />
    <glyph glyph-name="s" unicode="s" horiz-adv-x="444" 
d="M404 418l-104 -40c-17 50 -49 74 -87 74c-29 0 -51 -21 -51 -49c0 -84 246 -86 246 -248c0 -108 -76 -165 -181 -165c-76 0 -144 19 -205 155l113 31c11 -51 42 -84 92 -84c38 0 61 18 61 48c0 104 -246 79 -246 262c0 103 83 152 172 152c94 0 159 -54 190 -136z" />
    <glyph glyph-name="t" unicode="t" horiz-adv-x="278" 
d="M56 418h-50v102h50v148h126v-148h81v-102h-81v-278c0 -27 23 -40 57 -40c9 0 17 0 25 1v-106c-24 -4 -48 -5 -72 -5c-82 0 -136 30 -136 108v320z" />
    <glyph glyph-name="u" unicode="u" 
d="M314 544h126v-544h-122v62c-46 -40 -89 -72 -141 -72c-77 0 -117 39 -117 140v414h126v-400c0 -36 12 -60 46 -60c26 0 55 25 82 49v411z" />
    <glyph glyph-name="v" unicode="v" horiz-adv-x="444" 
d="M138 544l83 -350h2l83 350h126l-148 -544h-124l-148 544h126z" />
    <glyph glyph-name="w" unicode="w" horiz-adv-x="667" 
d="M143 0l-130 544h118l73 -340h2l73 340h108l77 -340h2l69 340h118l-128 -544h-118l-77 340h-2l-67 -340h-118z" />
    <glyph glyph-name="x" unicode="x" horiz-adv-x="444" 
d="M155 280l-138 264h134l71 -156l73 156h134l-138 -265l147 -279h-134l-82 176l-82 -176h-134z" />
    <glyph glyph-name="y" unicode="y" horiz-adv-x="444" 
d="M32 -190v110c12 -2 24 -2 37 -2c55 0 91 48 91 72c0 32 -10 69 -23 115l-126 439h128l85 -360h2l79 360h128l-145 -542c-39 -147 -90 -194 -216 -194c-12 0 -26 1 -40 2z" />
    <glyph glyph-name="z" unicode="z" horiz-adv-x="444" 
d="M51 434v110h362v-108l-231 -326h231v-110h-382v108l227 326h-207z" />
    <glyph glyph-name="braceleft" unicode="{" horiz-adv-x="333" 
d="M261 732v-60h-31c-36 0 -53 -17 -53 -61v-194c0 -57 -31 -83 -79 -91v-2c48 -8 79 -34 79 -91v-196c0 -44 17 -61 53 -61h31v-60h-79c-55 0 -115 37 -115 119v197c0 50 -31 63 -71 63v60c40 0 71 13 71 63v195c0 82 60 119 115 119h79z" />
    <glyph glyph-name="bar" unicode="|" horiz-adv-x="222" 
d="M50 -10v742h122v-742h-122z" />
    <glyph glyph-name="braceright" unicode="}" horiz-adv-x="333" 
d="M72 -84v60h31c36 0 53 17 53 61v194c0 57 31 83 79 91v2c-48 8 -79 34 -79 91v196c0 44 -17 61 -53 61h-31v60h79c55 0 115 -37 115 -119v-197c0 -50 31 -63 71 -63v-60c-40 0 -71 -13 -71 -63v-195c0 -82 -60 -119 -115 -119h-79z" />
    <glyph glyph-name="asciitilde" unicode="~" horiz-adv-x="600" 
d="M510 369l38 -98c-31 -45 -67 -92 -134 -92c-43 0 -76 18 -111 37c-36 18 -75 36 -127 36c-42 0 -68 -40 -85 -77l-39 96c24 46 63 93 135 93c75 0 174 -73 234 -73c38 0 64 40 89 78z" />
    <glyph glyph-name="exclamdown" unicode="&#xa1;" horiz-adv-x="278" 
d="M212 -178h-146l28 478h90zM68 544h142v-142h-142v142z" />
    <glyph glyph-name="cent" unicode="&#xa2;" horiz-adv-x="556" 
d="M193 135l77 309h-2c-52 0 -82 -22 -82 -64v-216c0 -10 2 -20 7 -29zM479 356h-125v24c0 17 -6 30 -16 40l-82 -319c4 -1 8 -1 12 -1c56 0 86 22 86 64v34h126v-2c0 -144 -74 -206 -212 -206c-11 0 -22 1 -34 2l-36 -132h-89l42 154c-58 31 -91 90 -91 182v152
c0 144 74 206 208 206c11 0 21 0 31 -2l34 124h89l-39 -144c61 -26 95 -84 96 -176z" />
    <glyph glyph-name="sterling" unicode="&#xa3;" horiz-adv-x="556" 
d="M112 318h-96v88h83c-8 43 -15 89 -15 131c0 129 95 195 204 195c162 0 233 -81 233 -214h-126c-5 62 -27 104 -95 104c-52 0 -84 -36 -84 -90c0 -45 8 -86 15 -126h132v-88h-120c0 -26 -6 -126 -25 -170c37 -24 74 -44 124 -44s67 41 71 114h120
c0 -118 -30 -228 -181 -228c-68 0 -100 10 -188 65c-52 -46 -84 -65 -141 -65v122c62 2 92 70 92 162c0 14 -1 28 -3 44z" />
    <glyph glyph-name="fraction" unicode="&#x2044;" horiz-adv-x="167" 
d="M-167 -10l405 742h96l-405 -742h-96z" />
    <glyph glyph-name="yen" unicode="&#xa5;" horiz-adv-x="556" 
d="M499 452v-88h-126l-32 -72h158v-88h-162v-204h-118v204h-162v88h158l-32 72h-126v88h86l-125 270h122l140 -322l136 322h122l-125 -270h86z" />
    <glyph glyph-name="florin" unicode="&#x192;" horiz-adv-x="556" 
d="M26 -181l16 103c12 -6 35 -12 52 -12c28 0 53 20 65 85l71 371h-98v88h119c35 204 81 278 195 278c27 0 51 -5 74 -12l-18 -100c-11 5 -28 10 -44 10c-44 -2 -66 -44 -85 -176h99v-88h-116l-64 -329c-22 -112 -57 -229 -193 -229c-24 0 -50 2 -73 11z" />
    <glyph glyph-name="section" unicode="&#xa7;" 
d="M402 652l-68 -54c-21 25 -47 50 -82 50c-27 0 -47 -18 -47 -42c0 -78 243 -196 243 -331c0 -66 -48 -103 -109 -114c30 -32 52 -72 52 -117c0 -83 -68 -128 -144 -128c-85 0 -120 37 -161 85l68 53c14 -28 46 -54 90 -54c27 0 51 18 51 48c0 84 -243 220 -243 326
c0 90 42 120 104 130c-30 36 -47 65 -47 112c0 64 57 116 134 116c69 0 115 -25 159 -80zM352 271c0 17 -13 34 -67 92c-46 50 -81 75 -98 75c-20 0 -38 -15 -39 -37c0 -19 12 -42 62 -94c54 -57 85 -80 103 -80c25 0 39 20 39 44z" />
    <glyph glyph-name="currency" unicode="&#xa4;" horiz-adv-x="556" 
d="M537 160l-58 -58l-57 58c-32 -31 -87 -49 -144 -49s-112 18 -144 49l-57 -58l-58 58l56 56c-29 35 -45 89 -45 145s16 110 45 145l-56 56l58 58l57 -58c32 31 87 49 144 49s112 -18 144 -49l57 58l58 -58l-56 -56c29 -35 45 -89 45 -145s-16 -110 -45 -145zM414 361
c0 82 -51 148 -136 148s-136 -66 -136 -148s51 -148 136 -148s136 66 136 148z" />
    <glyph glyph-name="quotesingle" unicode="'" horiz-adv-x="222" 
d="M56 452v270h110v-270h-110z" />
    <glyph glyph-name="quotedblleft" unicode="&#x201c;" horiz-adv-x="444" 
d="M173 732l-51 -148h60v-142h-142v142l63 148h70zM395 732l-51 -148h60v-142h-142v142l63 148h70z" />
    <glyph glyph-name="guillemotleft" unicode="&#xab;" horiz-adv-x="556" 
d="M386 112l-122 160l122 160h110l-122 -160l122 -160h-110zM182 112l-122 160l122 160h110l-122 -160l122 -160h-110z" />
    <glyph glyph-name="guilsinglleft" unicode="&#x2039;" horiz-adv-x="333" 
d="M38 272l122 160h110l-122 -160l122 -160h-110z" />
    <glyph glyph-name="guilsinglright" unicode="&#x203a;" horiz-adv-x="333" 
d="M295 272l-122 -160h-110l122 160l-122 160h110z" />
    <glyph glyph-name="endash" unicode="&#x2013;" 
d="M500 230h-500v84h500v-84z" />
    <glyph glyph-name="dagger" unicode="&#x2020;" 
d="M66 467v96l162 -27l-26 196h96l-26 -196l162 27v-96l-159 27l25 -170c-14 -114 -22 -268 -31 -398h-38c-9 130 -17 284 -31 398l25 170z" />
    <glyph glyph-name="daggerdbl" unicode="&#x2021;" 
d="M200 329l25 177l-159 -27v96l162 -27l-26 184h96l-26 -184l162 27v-96l-159 27l25 -177l-25 -177l159 27v-96l-162 27l26 -184h-96l26 184l-162 -27v96l159 -27z" />
    <glyph glyph-name="periodcentered" unicode="&#xb7;" horiz-adv-x="278" 
d="M139 348c45 0 76 -37 76 -76s-31 -76 -76 -76s-76 37 -76 76s31 76 76 76z" />
    <glyph glyph-name="paragraph" unicode="&#xb6;" horiz-adv-x="556" 
d="M190 -84v454c-112 0 -180 66 -180 173c0 119 62 179 214 179h322v-84h-68v-722h-110v722h-68v-722h-110z" />
    <glyph glyph-name="bullet" unicode="&#x2022;" 
d="M69 361c0 100 80 180 180 180s181 -80 181 -180s-81 -181 -181 -181s-180 81 -180 181z" />
    <glyph glyph-name="quotesinglbase" unicode="&#x201a;" horiz-adv-x="222" 
d="M49 -148l51 148h-60v142h142v-142l-63 -148h-70z" />
    <glyph glyph-name="quotedblbase" unicode="&#x201e;" horiz-adv-x="444" 
d="M49 -148l51 148h-60v142h142v-142l-63 -148h-70zM271 -148l51 148h-60v142h142v-142l-63 -148h-70z" />
    <glyph glyph-name="quotedblright" unicode="&#x201d;" horiz-adv-x="444" 
d="M49 432l51 148h-60v142h142v-142l-63 -148h-70zM271 432l51 148h-60v142h142v-142l-63 -148h-70z" />
    <glyph glyph-name="guillemotright" unicode="&#xbb;" horiz-adv-x="556" 
d="M292 272l-122 -160h-110l122 160l-122 160h110zM496 272l-122 -160h-110l122 160l-122 160h110z" />
    <glyph glyph-name="ellipsis" unicode="&#x2026;" horiz-adv-x="1000" 
d="M238 0h-142v142h142v-142zM904 0h-142v142h142v-142zM571 0h-142v142h142v-142z" />
    <glyph glyph-name="perthousand" unicode="&#x2030;" horiz-adv-x="1000" 
d="M162 722c82 0 148 -67 148 -148s-66 -148 -148 -148s-148 67 -148 148s66 148 148 148zM162 640c-38 0 -66 -29 -66 -66s28 -66 66 -66s66 29 66 66s-28 66 -66 66zM477 214c-38 0 -66 -29 -66 -66s28 -66 66 -66s66 29 66 66s-28 66 -66 66zM477 296
c82 0 148 -67 148 -148s-66 -148 -148 -148s-148 67 -148 148s66 148 148 148zM838 214c-38 0 -66 -29 -66 -66s28 -66 66 -66s66 29 66 66s-28 66 -66 66zM838 296c82 0 148 -67 148 -148s-66 -148 -148 -148s-148 67 -148 148s66 148 148 148zM76 -10l408 742h77
l-408 -742h-77z" />
    <glyph glyph-name="questiondown" unicode="&#xbf;" horiz-adv-x="444" 
d="M319 2l115 -32c-25 -99 -99 -158 -201 -158c-95 0 -187 59 -187 170c0 46 36 94 72 141c36 46 72 91 72 131v50h110v-98c0 -48 -128 -176 -128 -234c0 -34 31 -58 63 -58c41 0 81 44 84 88zM174 544h142v-142h-142v142z" />
    <glyph glyph-name="grave" unicode="`" horiz-adv-x="278" 
d="M-24 756h155l93 -146h-101z" />
    <glyph glyph-name="acute" unicode="&#xb4;" horiz-adv-x="278" 
d="M147 756h155l-147 -146h-101z" />
    <glyph glyph-name="circumflex" unicode="&#x2c6;" horiz-adv-x="278" 
d="M76 756h126l114 -146h-113l-64 82l-64 -82h-113z" />
    <glyph glyph-name="tilde" unicode="&#x2dc;" horiz-adv-x="278" 
d="M257 744h65c-13 -63 -39 -121 -111 -121c-54 0 -102 35 -147 35c-25 0 -40 -19 -45 -42h-63c10 63 44 122 115 122c53 0 107 -37 139 -37c24 0 42 19 47 43z" />
    <glyph glyph-name="macron" unicode="&#xaf;" horiz-adv-x="278" 
d="M313 640h-348v74h348v-74z" />
    <glyph glyph-name="breve" unicode="&#x2d8;" horiz-adv-x="278" 
d="M241 754h66c-13 -100 -75 -146 -175 -146c-96 0 -154 49 -161 146h64c5 -56 56 -70 104 -70c53 0 91 14 102 70z" />
    <glyph glyph-name="dotaccent" unicode="&#x2d9;" horiz-adv-x="278" 
d="M79 732h120v-114h-120v114z" />
    <glyph glyph-name="dieresis" unicode="&#xa8;" horiz-adv-x="278" 
d="M-16 732h120v-114h-120v114zM174 732h120v-114h-120v114z" />
    <glyph glyph-name="ring" unicode="&#x2da;" horiz-adv-x="278" 
d="M138 764c-31 0 -52 -24 -52 -53c0 -31 21 -53 52 -53c29 0 54 22 54 53c0 29 -25 53 -54 53zM138 604c-59 0 -106 48 -106 107s47 107 106 107s108 -48 108 -107s-49 -107 -108 -107z" />
    <glyph glyph-name="cedilla" unicode="&#xb8;" horiz-adv-x="278" 
d="M2 -203l19 42c24 -8 50 -17 75 -17c24 0 56 10 56 39c0 22 -19 37 -41 37c-16 0 -30 -4 -45 -8l-21 20l59 90h53l-42 -61l2 -2c9 6 20 7 31 7c45 0 90 -30 90 -78c0 -68 -69 -94 -127 -94c-38 0 -74 11 -109 25z" />
    <glyph glyph-name="hungarumlaut" unicode="&#x2dd;" horiz-adv-x="278" 
d="M59 756h151l-141 -146h-97zM239 756h155l-147 -146h-101z" />
    <glyph glyph-name="ogonek" unicode="&#x2db;" horiz-adv-x="278" 
d="M258 21v-12c-53 -21 -142 -57 -142 -125c0 -33 24 -52 53 -52c32 0 69 26 96 43l20 -34c-45 -31 -95 -59 -151 -59c-57 0 -104 31 -104 91c0 105 149 135 228 148z" />
    <glyph glyph-name="caron" unicode="&#x2c7;" horiz-adv-x="278" 
d="M202 610h-126l-114 146h113l64 -82l64 82h113z" />
    <glyph glyph-name="emdash" unicode="&#x2014;" horiz-adv-x="1000" 
d="M1000 230h-1000v84h1000v-84z" />
    <glyph glyph-name="AE" unicode="&#xc6;" horiz-adv-x="1000" 
d="M466 612l-156 -314h174v314h-18zM162 0h-148l370 722h532v-122h-294v-166h221v-122h-221v-190h306v-122h-444v176h-236z" />
    <glyph glyph-name="ordfeminine" unicode="&#xaa;" horiz-adv-x="300" 
d="M106 627h-90c3 41 20 66 44 82c27 18 57 23 91 23c88 0 121 -40 121 -99v-207c0 -9 2 -18 4 -26h-86c-2 8 -3 19 -5 32c-20 -22 -53 -38 -94 -38c-49 0 -81 25 -81 78c0 76 78 110 172 138v22c0 19 -11 30 -34 30c-25 0 -42 -16 -42 -35zM182 490v58
c-41 -16 -82 -33 -82 -63c0 -18 14 -25 28 -25c25 0 42 12 54 30z" />
    <glyph glyph-name="Lslash" unicode="&#x141;" horiz-adv-x="444" 
d="M200 316v-194h222v-122h-360v260l-62 -25v116l62 25v346h138v-290l163 66l-1 -116z" />
    <glyph glyph-name="Oslash" unicode="&#xd8;" horiz-adv-x="556" 
d="M190 262l162 316c-15 24 -41 32 -74 32c-55 0 -90 -22 -90 -102v-246h2zM366 433l-154 -299c14 -16 38 -22 66 -22c55 0 90 22 90 102v219h-2zM446 770h104l-73 -140c19 -36 29 -82 29 -140v-258c0 -178 -94 -242 -228 -242c-45 0 -86 7 -120 25l-48 -93h-104l81 156
c-24 37 -37 87 -37 154v258c0 178 94 242 228 242c50 0 95 -9 132 -30z" />
    <glyph glyph-name="OE" unicode="&#x152;" horiz-adv-x="944" 
d="M196 436v-150c0 -132 38 -174 142 -174c89 0 112 46 112 130v238c0 84 -23 130 -112 130c-104 0 -142 -42 -142 -174zM588 600v-166h223v-122h-223v-190h306v-122h-413c-35 0 -59 -2 -84 -5c-25 -2 -51 -5 -92 -5c-149 0 -247 105 -247 283v191c0 182 116 268 284 268
c48 0 81 -2 113 -5c31 -2 61 -5 103 -5h327v-122h-297z" />
    <glyph glyph-name="ordmasculine" unicode="&#xba;" horiz-adv-x="300" 
d="M20 518v91c0 86 48 123 130 123c81 0 130 -37 130 -123v-91c0 -87 -49 -124 -130 -124c-82 0 -130 37 -130 124zM110 620v-114c0 -25 11 -38 40 -38c28 0 40 13 40 38v114c0 25 -12 38 -40 38c-29 0 -41 -13 -40 -38z" />
    <glyph glyph-name="ae" unicode="&#xe6;" horiz-adv-x="778" 
d="M316 134v132c-68 -26 -144 -68 -144 -125c0 -36 22 -57 56 -57c38 0 65 20 88 50zM716 242h-274v-72c0 -54 32 -78 74 -78c53 0 74 34 74 76h126c-6 -112 -73 -178 -200 -178c-90 0 -144 45 -165 70c-84 -64 -131 -70 -180 -70c-76 0 -125 42 -125 130
c0 126 120 180 270 227v40c0 47 -22 65 -58 65c-38 0 -70 -28 -70 -67h-126c9 121 101 169 186 169c63 0 114 -24 144 -62c32 36 79 62 134 62c107 0 190 -74 190 -185v-127zM442 344h148v30c0 48 -23 78 -74 78s-74 -30 -74 -78v-30z" />
    <glyph glyph-name="dotlessi" unicode="&#x131;" horiz-adv-x="278" 
d="M202 0h-126v544h126v-544z" />
    <glyph glyph-name="lslash" unicode="&#x142;" horiz-adv-x="278" 
d="M202 377v-377h-126v313l-74 -37v94l74 37v315h126v-251l74 37v-94z" />
    <glyph glyph-name="oslash" unicode="&#xf8;" 
d="M178 209l118 223c-12 8 -28 12 -46 12c-44 0 -74 -22 -74 -64v-171h2zM322 317l-111 -209c10 -5 23 -8 39 -8c44 0 74 22 74 64v153h-2zM156 6l-63 -118h-89l88 164c-28 33 -42 80 -42 144v152c0 144 74 206 200 206c39 0 73 -6 102 -19l51 95h89l-78 -146
c24 -32 36 -77 36 -136v-152c0 -144 -74 -206 -200 -206c-36 0 -68 5 -94 16z" />
    <glyph glyph-name="oe" unicode="&#x153;" horiz-adv-x="778" 
d="M176 380v-216c0 -42 30 -64 74 -64s74 22 74 64v216c0 42 -30 64 -74 64s-74 -22 -74 -64zM728 242h-278v-72c0 -54 36 -78 78 -78c53 0 74 34 74 76h126c-6 -112 -73 -178 -200 -178c-62 0 -111 30 -140 72c-28 -42 -75 -72 -144 -72c-120 0 -194 62 -194 206v152
c0 144 74 206 194 206c69 0 116 -30 144 -72c29 42 78 72 146 72c111 0 194 -74 194 -185v-127zM450 344h152v30c0 48 -23 78 -74 78s-78 -30 -78 -78v-30z" />
    <glyph glyph-name="germandbls" unicode="&#xdf;" 
d="M186 0h-126v523c0 118 42 199 189 199c115 0 179 -71 179 -201c0 -48 -21 -104 -65 -128c73 -39 94 -101 94 -201c0 -133 -63 -202 -148 -202c-25 0 -50 5 -73 15v114c12 -6 26 -9 40 -9c38 0 55 29 55 99c0 76 -15 125 -94 125v102c45 2 71 34 71 88c0 51 -17 88 -66 88
c-39 0 -56 -28 -56 -59v-553z" />
    <glyph glyph-name="onesuperior" unicode="&#xb9;" horiz-adv-x="333" 
d="M143 292v330h-67v54c62 12 77 30 95 56h62v-440h-90z" />
    <glyph glyph-name="logicalnot" unicode="&#xac;" horiz-adv-x="600" 
d="M450 89v244h-422v122h544v-366h-122z" />
    <glyph glyph-name="mu" unicode="&#xb5;" 
d="M314 544h126v-544h-122v62c-43 -37 -83 -68 -132 -72v-182h-126v736h126v-400c0 -36 12 -60 46 -60c26 0 55 25 82 49v411z" />
    <glyph glyph-name="trademark" unicode="&#x2122;" horiz-adv-x="1000" 
d="M592 722l94 -250l93 250h153v-412h-106v280h-2l-98 -280h-81l-98 280h-2v-280h-106v412h153zM373 722v-84h-115v-328h-112v328h-114v84h341z" />
    <glyph glyph-name="Eth" unicode="&#xd0;" horiz-adv-x="556" 
d="M8 312v122h54v288h192c158 0 246 -68 252 -250v-222c-6 -182 -94 -250 -252 -250h-192v312h-54zM288 434v-122h-88v-190h48c76 0 120 36 120 144v190c0 102 -34 144 -120 144h-48v-166h88z" />
    <glyph glyph-name="onehalf" unicode="&#xbd;" horiz-adv-x="834" 
d="M147 292v330h-67v54c62 12 77 30 95 56h62v-440h-90zM791 0h-296v75c183 161 213 192 213 237c0 29 -17 54 -58 54c-44 0 -63 -25 -63 -51v-16h-90v21c0 63 55 120 146 120c92 0 155 -43 155 -126c0 -100 -119 -177 -186 -240h179v-74zM135 -10l405 742h96l-405 -742h-96
z" />
    <glyph glyph-name="plusminus" unicode="&#xb1;" horiz-adv-x="600" 
d="M239 410v134h122v-134h211v-122h-211v-134h-122v134h-211v122h211zM28 0v122h544v-122h-544z" />
    <glyph glyph-name="Thorn" unicode="&#xde;" horiz-adv-x="556" 
d="M208 0h-138v722h138v-132h61c170 0 253 -80 253 -216s-83 -216 -253 -216h-61v-158zM208 476v-204h74c68 0 102 34 102 102s-34 102 -102 102h-74z" />
    <glyph glyph-name="onequarter" unicode="&#xbc;" horiz-adv-x="834" 
d="M540 184h102v131h-2zM444 184l199 249h89v-249h66v-70h-66v-114h-90v114h-198v70zM147 292v330h-67v54c62 12 77 30 95 56h62v-440h-90zM153 -10l405 742h96l-405 -742h-96z" />
    <glyph glyph-name="divide" unicode="&#xf7;" horiz-adv-x="600" 
d="M572 211h-544v122h544v-122zM204 495c0 52 44 95 96 95c50 0 94 -44 94 -95c0 -48 -44 -95 -93 -95c-53 0 -97 43 -97 95zM204 49c0 53 44 95 96 95c50 0 94 -43 94 -95c0 -47 -44 -95 -93 -95c-53 0 -97 44 -97 95z" />
    <glyph glyph-name="brokenbar" unicode="&#xa6;" horiz-adv-x="222" 
d="M50 -10v284h122v-284h-122zM50 448v284h122v-284h-122z" />
    <glyph glyph-name="degree" unicode="&#xb0;" horiz-adv-x="400" 
d="M200 502c48 0 82 39 82 87s-34 87 -82 87s-82 -39 -82 -87s34 -87 82 -87zM200 446c-81 0 -144 63 -144 143s63 143 144 143s144 -63 144 -143s-63 -143 -144 -143z" />
    <glyph glyph-name="thorn" unicode="&#xfe;" 
d="M186 421v-298c25 -27 48 -39 76 -39c34 0 62 22 62 130v116c0 108 -28 130 -62 130c-28 0 -51 -12 -76 -39zM60 722h124v-234h2c14 24 70 66 126 66c98 0 138 -76 138 -216v-132c0 -140 -40 -216 -138 -216c-34 0 -66 16 -126 60v-242h-126v914z" />
    <glyph glyph-name="threequarters" unicode="&#xbe;" horiz-adv-x="834" 
d="M540 184h102v131h-2zM444 184l199 249h89v-249h66v-70h-66v-114h-90v114h-198v70zM36 420h90c0 -42 19 -60 65 -60c41 0 65 24 65 60c0 48 -30 64 -91 64v74c55 0 79 13 79 54c0 24 -21 46 -56 46c-30 0 -51 -21 -52 -49h-90c1 42 17 73 42 93c26 20 62 30 101 30
c84 0 145 -41 145 -117c0 -38 -19 -77 -56 -95c50 -18 68 -55 68 -104c0 -86 -69 -130 -153 -130c-106 0 -157 53 -157 134zM173 -10l405 742h96l-405 -742h-96z" />
    <glyph glyph-name="twosuperior" unicode="&#xb2;" horiz-adv-x="333" 
d="M311 292h-296v75c183 161 213 192 213 237c0 29 -17 54 -58 54c-44 0 -63 -25 -63 -51v-16h-90v21c0 63 55 120 146 120c92 0 155 -43 155 -126c0 -100 -119 -177 -186 -240h179v-74z" />
    <glyph glyph-name="registered" unicode="&#xae;" horiz-adv-x="800" 
d="M337 325v-167h-88v407h153c106 0 167 -30 167 -123c0 -75 -44 -104 -101 -108l94 -176h-97l-87 167h-41zM337 493v-96h77c49 0 63 13 63 54c0 31 -18 42 -78 42h-62zM400 -10c-200 0 -383 138 -383 371s183 371 383 371s383 -138 383 -371s-183 -371 -383 -371zM669 361
c0 168 -122 283 -269 283c-150 0 -269 -115 -269 -283s119 -283 269 -283c147 0 269 115 269 283z" />
    <glyph glyph-name="minus" unicode="&#x2212;" horiz-adv-x="600" 
d="M572 211h-544v122h544v-122z" />
    <glyph glyph-name="eth" unicode="&#xf0;" 
d="M176 350v-190c0 -39 30 -60 74 -60s74 21 74 60v190c0 40 -30 60 -74 60s-74 -20 -74 -60zM176 708l118 14c11 -12 21 -24 32 -37l108 37l30 -74l-91 -32c51 -87 77 -184 77 -290v-143c0 -135 -74 -193 -200 -193s-200 58 -200 193v143c0 135 74 194 200 194
c14 0 25 0 43 -4c-5 22 -14 43 -25 64l-110 -38l-30 74l95 33c-15 20 -31 39 -47 59z" />
    <glyph glyph-name="multiply" unicode="&#xd7;" horiz-adv-x="600" 
d="M214 273l-186 186l87 85l185 -185l186 185l86 -85l-186 -187l186 -186l-86 -86l-186 186l-185 -186l-87 86l186 186v1z" />
    <glyph glyph-name="threesuperior" unicode="&#xb3;" horiz-adv-x="333" 
d="M10 420h90c0 -42 19 -60 65 -60c41 0 65 24 65 60c0 48 -30 64 -91 64v74c55 0 79 13 79 54c0 24 -21 46 -56 46c-30 0 -51 -21 -52 -49h-90c1 42 17 73 42 93c26 20 62 30 101 30c84 0 145 -41 145 -117c0 -38 -19 -77 -56 -95c50 -18 68 -55 68 -104
c0 -86 -69 -130 -153 -130c-106 0 -157 53 -157 134z" />
    <glyph glyph-name="copyright" unicode="&#xa9;" horiz-adv-x="800" 
d="M400 -10c-200 0 -383 138 -383 371s183 371 383 371s383 -138 383 -371s-183 -371 -383 -371zM669 361c0 168 -122 283 -269 283c-150 0 -269 -115 -269 -283s119 -283 269 -283c147 0 269 115 269 283zM504 305h90c-16 -102 -93 -157 -179 -157c-126 0 -207 94 -207 216
c0 124 77 216 205 216c89 0 161 -52 177 -152h-86c-9 46 -48 64 -91 64c-65 0 -101 -49 -101 -126c0 -74 41 -130 103 -130c49 0 84 21 89 69z" />
    <glyph glyph-name="Aacute" unicode="&#xc1;" horiz-adv-x="556" 
d="M278 566l-68 -292h137l-67 292h-2zM146 0h-133l179 722h177l174 -722h-132l-35 152h-191zM286 909h155l-147 -146h-101z" />
    <glyph glyph-name="Acircumflex" unicode="&#xc2;" horiz-adv-x="556" 
d="M278 566l-68 -292h137l-67 292h-2zM146 0h-133l179 722h177l174 -722h-132l-35 152h-191zM215 909h126l114 -146h-113l-64 82l-64 -82h-113z" />
    <glyph glyph-name="Adieresis" unicode="&#xc4;" horiz-adv-x="556" 
d="M278 566l-68 -292h137l-67 292h-2zM146 0h-133l179 722h177l174 -722h-132l-35 152h-191zM123 885h120v-114h-120v114zM313 885h120v-114h-120v114z" />
    <glyph glyph-name="Agrave" unicode="&#xc0;" horiz-adv-x="556" 
d="M278 566l-68 -292h137l-67 292h-2zM146 0h-133l179 722h177l174 -722h-132l-35 152h-191zM115 909h155l93 -146h-101z" />
    <glyph glyph-name="Aring" unicode="&#xc5;" horiz-adv-x="556" 
d="M278 566l-68 -292h137l-67 292h-2zM146 0h-133l179 722h177l174 -722h-132l-35 152h-191zM277 917c-31 0 -52 -24 -52 -53c0 -31 21 -53 52 -53c29 0 54 22 54 53c0 29 -25 53 -54 53zM277 757c-59 0 -106 48 -106 107s47 107 106 107s108 -48 108 -107
s-49 -107 -108 -107z" />
    <glyph glyph-name="Atilde" unicode="&#xc3;" horiz-adv-x="556" 
d="M278 566l-68 -292h137l-67 292h-2zM146 0h-133l179 722h177l174 -722h-132l-35 152h-191zM396 897h65c-13 -63 -39 -121 -111 -121c-54 0 -102 35 -147 35c-25 0 -40 -19 -45 -42h-63c10 63 44 122 115 122c53 0 107 -37 139 -37c24 0 42 19 47 43z" />
    <glyph glyph-name="Ccedilla" unicode="&#xc7;" horiz-adv-x="556" 
d="M188 508v-294c0 -80 35 -102 90 -102s90 22 90 102v48h138v-30c0 -173 -89 -238 -217 -242l-35 -51l2 -2c9 6 20 7 31 7c45 0 90 -30 90 -78c0 -68 -69 -94 -127 -94c-38 0 -74 11 -109 25l19 42c24 -8 50 -17 75 -17c24 0 56 10 56 39c0 22 -19 37 -41 37
c-16 0 -30 -4 -45 -8l-21 20l54 82c-112 12 -188 80 -188 240v258c0 178 94 242 228 242s228 -64 228 -242v-2h-138v20c0 80 -35 102 -90 102s-90 -22 -90 -102z" />
    <glyph glyph-name="Eacute" unicode="&#xc9;" 
d="M450 0h-388v722h378v-122h-240v-166h183v-122h-183v-190h250v-122zM258 909h155l-147 -146h-101z" />
    <glyph glyph-name="Ecircumflex" unicode="&#xca;" 
d="M450 0h-388v722h378v-122h-240v-166h183v-122h-183v-190h250v-122zM187 909h126l114 -146h-113l-64 82l-64 -82h-113z" />
    <glyph glyph-name="Edieresis" unicode="&#xcb;" 
d="M450 0h-388v722h378v-122h-240v-166h183v-122h-183v-190h250v-122zM95 885h120v-114h-120v114zM285 885h120v-114h-120v114z" />
    <glyph glyph-name="Egrave" unicode="&#xc8;" 
d="M450 0h-388v722h378v-122h-240v-166h183v-122h-183v-190h250v-122zM87 909h155l93 -146h-101z" />
    <glyph glyph-name="Iacute" unicode="&#xcd;" horiz-adv-x="278" 
d="M208 0h-138v722h138v-722zM147 909h155l-147 -146h-101z" />
    <glyph glyph-name="Icircumflex" unicode="&#xce;" horiz-adv-x="278" 
d="M208 0h-138v722h138v-722zM76 909h126l114 -146h-113l-64 82l-64 -82h-113z" />
    <glyph glyph-name="Idieresis" unicode="&#xcf;" horiz-adv-x="278" 
d="M208 0h-138v722h138v-722zM-16 885h120v-114h-120v114zM174 885h120v-114h-120v114z" />
    <glyph glyph-name="Igrave" unicode="&#xcc;" horiz-adv-x="278" 
d="M208 0h-138v722h138v-722zM-24 909h155l93 -146h-101z" />
    <glyph glyph-name="Ntilde" unicode="&#xd1;" horiz-adv-x="611" 
d="M196 0h-126v722h151l192 -428h2v428h126v-722h-132l-211 466h-2v-466zM424 897h65c-13 -63 -39 -121 -111 -121c-54 0 -102 35 -147 35c-25 0 -40 -19 -45 -42h-63c10 63 44 122 115 122c53 0 107 -37 139 -37c24 0 42 19 47 43z" />
    <glyph glyph-name="Oacute" unicode="&#xd3;" horiz-adv-x="556" 
d="M50 232v258c0 178 94 242 228 242s228 -64 228 -242v-258c0 -178 -94 -242 -228 -242s-228 64 -228 242zM188 508v-294c0 -80 35 -102 90 -102s90 22 90 102v294c0 80 -35 102 -90 102s-90 -22 -90 -102zM286 909h155l-147 -146h-101z" />
    <glyph glyph-name="Ocircumflex" unicode="&#xd4;" horiz-adv-x="556" 
d="M50 232v258c0 178 94 242 228 242s228 -64 228 -242v-258c0 -178 -94 -242 -228 -242s-228 64 -228 242zM188 508v-294c0 -80 35 -102 90 -102s90 22 90 102v294c0 80 -35 102 -90 102s-90 -22 -90 -102zM215 909h126l114 -146h-113l-64 82l-64 -82h-113z" />
    <glyph glyph-name="Odieresis" unicode="&#xd6;" horiz-adv-x="556" 
d="M50 232v258c0 178 94 242 228 242s228 -64 228 -242v-258c0 -178 -94 -242 -228 -242s-228 64 -228 242zM188 508v-294c0 -80 35 -102 90 -102s90 22 90 102v294c0 80 -35 102 -90 102s-90 -22 -90 -102zM123 885h120v-114h-120v114zM313 885h120v-114h-120v114z" />
    <glyph glyph-name="Ograve" unicode="&#xd2;" horiz-adv-x="556" 
d="M50 232v258c0 178 94 242 228 242s228 -64 228 -242v-258c0 -178 -94 -242 -228 -242s-228 64 -228 242zM188 508v-294c0 -80 35 -102 90 -102s90 22 90 102v294c0 80 -35 102 -90 102s-90 -22 -90 -102zM115 909h155l93 -146h-101z" />
    <glyph glyph-name="Otilde" unicode="&#xd5;" horiz-adv-x="556" 
d="M50 232v258c0 178 94 242 228 242s228 -64 228 -242v-258c0 -178 -94 -242 -228 -242s-228 64 -228 242zM188 508v-294c0 -80 35 -102 90 -102s90 22 90 102v294c0 80 -35 102 -90 102s-90 -22 -90 -102zM396 897h65c-13 -63 -39 -121 -111 -121c-54 0 -102 35 -147 35
c-25 0 -40 -19 -45 -42h-63c10 63 44 122 115 122c53 0 107 -37 139 -37c24 0 42 19 47 43z" />
    <glyph glyph-name="Scaron" unicode="&#x160;" horiz-adv-x="556" 
d="M491 557l-124 -36c-23 68 -53 97 -101 97c-49 0 -76 -30 -76 -79c0 -109 308 -117 308 -343c0 -124 -85 -206 -230 -206c-112 0 -199 61 -236 203l136 29c16 -87 66 -118 107 -118c48 0 85 32 85 86c0 136 -308 138 -308 340c0 124 74 202 217 202
c123 0 198 -73 222 -175zM341 763h-126l-114 146h113l64 -82l64 82h113z" />
    <glyph glyph-name="Uacute" unicode="&#xda;" horiz-adv-x="611" 
d="M70 722h138v-505c0 -69 30 -105 97 -105s98 36 98 105v505h138v-506c0 -159 -94 -226 -236 -226s-235 67 -235 226v506zM314 909h155l-147 -146h-101z" />
    <glyph glyph-name="Ucircumflex" unicode="&#xdb;" horiz-adv-x="611" 
d="M70 722h138v-505c0 -69 30 -105 97 -105s98 36 98 105v505h138v-506c0 -159 -94 -226 -236 -226s-235 67 -235 226v506zM243 909h126l114 -146h-113l-64 82l-64 -82h-113z" />
    <glyph glyph-name="Udieresis" unicode="&#xdc;" horiz-adv-x="611" 
d="M70 722h138v-505c0 -69 30 -105 97 -105s98 36 98 105v505h138v-506c0 -159 -94 -226 -236 -226s-235 67 -235 226v506zM151 885h120v-114h-120v114zM341 885h120v-114h-120v114z" />
    <glyph glyph-name="Ugrave" unicode="&#xd9;" horiz-adv-x="611" 
d="M70 722h138v-505c0 -69 30 -105 97 -105s98 36 98 105v505h138v-506c0 -159 -94 -226 -236 -226s-235 67 -235 226v506zM143 909h155l93 -146h-101z" />
    <glyph glyph-name="Yacute" unicode="&#xdd;" horiz-adv-x="556" 
d="M159 722l121 -291l117 291h147l-197 -430v-292h-138v292l-197 430h147zM286 909h155l-147 -146h-101z" />
    <glyph glyph-name="Ydieresis" unicode="&#x178;" horiz-adv-x="556" 
d="M159 722l121 -291l117 291h147l-197 -430v-292h-138v292l-197 430h147zM123 885h120v-114h-120v114zM313 885h120v-114h-120v114z" />
    <glyph glyph-name="Zcaron" unicode="&#x17d;" 
d="M61 600v122h400v-116l-273 -484h279v-122h-434v117l273 483h-245zM313 763h-126l-114 146h113l64 -82l64 82h113z" />
    <glyph glyph-name="aacute" unicode="&#xe1;" 
d="M174 385h-126c5 61 30 103 67 130c36 27 85 39 135 39c134 0 185 -68 185 -165v-345c0 -15 3 -30 7 -44h-126c-3 14 -5 31 -9 53c-37 -37 -87 -63 -150 -63c-76 0 -125 42 -125 130c0 126 120 180 277 227v40c0 47 -29 65 -65 65c-38 0 -70 -28 -70 -67zM309 134v132
c-75 -26 -151 -68 -151 -125c0 -36 22 -57 56 -57c38 0 65 20 95 50zM258 756h155l-147 -146h-101z" />
    <glyph glyph-name="acircumflex" unicode="&#xe2;" 
d="M174 385h-126c5 61 30 103 67 130c36 27 85 39 135 39c134 0 185 -68 185 -165v-345c0 -15 3 -30 7 -44h-126c-3 14 -5 31 -9 53c-37 -37 -87 -63 -150 -63c-76 0 -125 42 -125 130c0 126 120 180 277 227v40c0 47 -29 65 -65 65c-38 0 -70 -28 -70 -67zM309 134v132
c-75 -26 -151 -68 -151 -125c0 -36 22 -57 56 -57c38 0 65 20 95 50zM187 756h126l114 -146h-113l-64 82l-64 -82h-113z" />
    <glyph glyph-name="adieresis" unicode="&#xe4;" 
d="M174 385h-126c5 61 30 103 67 130c36 27 85 39 135 39c134 0 185 -68 185 -165v-345c0 -15 3 -30 7 -44h-126c-3 14 -5 31 -9 53c-37 -37 -87 -63 -150 -63c-76 0 -125 42 -125 130c0 126 120 180 277 227v40c0 47 -29 65 -65 65c-38 0 -70 -28 -70 -67zM309 134v132
c-75 -26 -151 -68 -151 -125c0 -36 22 -57 56 -57c38 0 65 20 95 50zM95 732h120v-114h-120v114zM285 732h120v-114h-120v114z" />
    <glyph glyph-name="agrave" unicode="&#xe0;" 
d="M174 385h-126c5 61 30 103 67 130c36 27 85 39 135 39c134 0 185 -68 185 -165v-345c0 -15 3 -30 7 -44h-126c-3 14 -5 31 -9 53c-37 -37 -87 -63 -150 -63c-76 0 -125 42 -125 130c0 126 120 180 277 227v40c0 47 -29 65 -65 65c-38 0 -70 -28 -70 -67zM309 134v132
c-75 -26 -151 -68 -151 -125c0 -36 22 -57 56 -57c38 0 65 20 95 50zM87 756h155l93 -146h-101z" />
    <glyph glyph-name="aring" unicode="&#xe5;" 
d="M174 385h-126c5 61 30 103 67 130c36 27 85 39 135 39c134 0 185 -68 185 -165v-345c0 -15 3 -30 7 -44h-126c-3 14 -5 31 -9 53c-37 -37 -87 -63 -150 -63c-76 0 -125 42 -125 130c0 126 120 180 277 227v40c0 47 -29 65 -65 65c-38 0 -70 -28 -70 -67zM309 134v132
c-75 -26 -151 -68 -151 -125c0 -36 22 -57 56 -57c38 0 65 20 95 50zM249 764c-31 0 -52 -24 -52 -53c0 -31 21 -53 52 -53c29 0 54 22 54 53c0 29 -25 53 -54 53zM249 604c-59 0 -106 48 -106 107s47 107 106 107s108 -48 108 -107s-49 -107 -108 -107z" />
    <glyph glyph-name="atilde" unicode="&#xe3;" 
d="M174 385h-126c5 61 30 103 67 130c36 27 85 39 135 39c134 0 185 -68 185 -165v-345c0 -15 3 -30 7 -44h-126c-3 14 -5 31 -9 53c-37 -37 -87 -63 -150 -63c-76 0 -125 42 -125 130c0 126 120 180 277 227v40c0 47 -29 65 -65 65c-38 0 -70 -28 -70 -67zM309 134v132
c-75 -26 -151 -68 -151 -125c0 -36 22 -57 56 -57c38 0 65 20 95 50zM368 744h65c-13 -63 -39 -121 -111 -121c-54 0 -102 35 -147 35c-25 0 -40 -19 -45 -42h-63c10 63 44 122 115 122c53 0 107 -37 139 -37c24 0 42 19 47 43z" />
    <glyph glyph-name="ccedilla" unicode="&#xe7;" 
d="M449 356h-125v24c0 42 -30 64 -74 64s-74 -22 -74 -64v-216c0 -42 30 -64 74 -64s74 22 74 64v34h126v-2c0 -140 -70 -202 -189 -206l-35 -51l2 -2c9 6 20 7 31 7c45 0 90 -30 90 -78c0 -68 -69 -94 -127 -94c-38 0 -74 11 -109 25l19 42c24 -8 50 -17 75 -17
c24 0 56 10 56 39c0 22 -19 37 -41 37c-16 0 -30 -4 -45 -8l-21 20l54 82c-101 12 -160 76 -160 204v152c0 144 74 206 200 206c123 0 197 -60 199 -198z" />
    <glyph glyph-name="eacute" unicode="&#xe9;" 
d="M450 242h-274v-72c0 -54 32 -78 74 -78c53 0 74 34 74 76h126c-6 -112 -73 -178 -200 -178c-120 0 -200 74 -200 193v178c0 119 80 193 200 193c117 0 200 -74 200 -185v-127zM176 344h148v30c0 48 -23 78 -74 78s-74 -30 -74 -78v-30zM258 756h155l-147 -146h-101z" />
    <glyph glyph-name="ecircumflex" unicode="&#xea;" 
d="M450 242h-274v-72c0 -54 32 -78 74 -78c53 0 74 34 74 76h126c-6 -112 -73 -178 -200 -178c-120 0 -200 74 -200 193v178c0 119 80 193 200 193c117 0 200 -74 200 -185v-127zM176 344h148v30c0 48 -23 78 -74 78s-74 -30 -74 -78v-30zM187 756h126l114 -146h-113l-64 82
l-64 -82h-113z" />
    <glyph glyph-name="edieresis" unicode="&#xeb;" 
d="M450 242h-274v-72c0 -54 32 -78 74 -78c53 0 74 34 74 76h126c-6 -112 -73 -178 -200 -178c-120 0 -200 74 -200 193v178c0 119 80 193 200 193c117 0 200 -74 200 -185v-127zM176 344h148v30c0 48 -23 78 -74 78s-74 -30 -74 -78v-30zM95 732h120v-114h-120v114z
M285 732h120v-114h-120v114z" />
    <glyph glyph-name="egrave" unicode="&#xe8;" 
d="M450 242h-274v-72c0 -54 32 -78 74 -78c53 0 74 34 74 76h126c-6 -112 -73 -178 -200 -178c-120 0 -200 74 -200 193v178c0 119 80 193 200 193c117 0 200 -74 200 -185v-127zM176 344h148v30c0 48 -23 78 -74 78s-74 -30 -74 -78v-30zM87 756h155l93 -146h-101z" />
    <glyph glyph-name="iacute" unicode="&#xed;" horiz-adv-x="278" 
d="M202 0h-126v544h126v-544zM147 756h155l-147 -146h-101z" />
    <glyph glyph-name="icircumflex" unicode="&#xee;" horiz-adv-x="278" 
d="M202 0h-126v544h126v-544zM76 756h126l114 -146h-113l-64 82l-64 -82h-113z" />
    <glyph glyph-name="idieresis" unicode="&#xef;" horiz-adv-x="278" 
d="M202 0h-126v544h126v-544zM-16 732h120v-114h-120v114zM174 732h120v-114h-120v114z" />
    <glyph glyph-name="igrave" unicode="&#xec;" horiz-adv-x="278" 
d="M202 0h-126v544h126v-544zM-24 756h155l93 -146h-101z" />
    <glyph glyph-name="ntilde" unicode="&#xf1;" 
d="M186 0h-126v544h122v-62c46 40 89 72 141 72c77 0 117 -39 117 -140v-414h-126v400c0 36 -12 60 -46 60c-26 0 -55 -25 -82 -49v-411zM368 744h65c-13 -63 -39 -121 -111 -121c-54 0 -102 35 -147 35c-25 0 -40 -19 -45 -42h-63c10 63 44 122 115 122
c53 0 107 -37 139 -37c24 0 42 19 47 43z" />
    <glyph glyph-name="oacute" unicode="&#xf3;" 
d="M50 196v152c0 144 74 206 200 206s200 -62 200 -206v-152c0 -144 -74 -206 -200 -206s-200 62 -200 206zM176 380v-216c0 -42 30 -64 74 -64s74 22 74 64v216c0 42 -30 64 -74 64s-74 -22 -74 -64zM258 756h155l-147 -146h-101z" />
    <glyph glyph-name="ocircumflex" unicode="&#xf4;" 
d="M50 196v152c0 144 74 206 200 206s200 -62 200 -206v-152c0 -144 -74 -206 -200 -206s-200 62 -200 206zM176 380v-216c0 -42 30 -64 74 -64s74 22 74 64v216c0 42 -30 64 -74 64s-74 -22 -74 -64zM187 756h126l114 -146h-113l-64 82l-64 -82h-113z" />
    <glyph glyph-name="odieresis" unicode="&#xf6;" 
d="M50 196v152c0 144 74 206 200 206s200 -62 200 -206v-152c0 -144 -74 -206 -200 -206s-200 62 -200 206zM176 380v-216c0 -42 30 -64 74 -64s74 22 74 64v216c0 42 -30 64 -74 64s-74 -22 -74 -64zM95 732h120v-114h-120v114zM285 732h120v-114h-120v114z" />
    <glyph glyph-name="ograve" unicode="&#xf2;" 
d="M50 196v152c0 144 74 206 200 206s200 -62 200 -206v-152c0 -144 -74 -206 -200 -206s-200 62 -200 206zM176 380v-216c0 -42 30 -64 74 -64s74 22 74 64v216c0 42 -30 64 -74 64s-74 -22 -74 -64zM87 756h155l93 -146h-101z" />
    <glyph glyph-name="otilde" unicode="&#xf5;" 
d="M50 196v152c0 144 74 206 200 206s200 -62 200 -206v-152c0 -144 -74 -206 -200 -206s-200 62 -200 206zM176 380v-216c0 -42 30 -64 74 -64s74 22 74 64v216c0 42 -30 64 -74 64s-74 -22 -74 -64zM368 744h65c-13 -63 -39 -121 -111 -121c-54 0 -102 35 -147 35
c-25 0 -40 -19 -45 -42h-63c10 63 44 122 115 122c53 0 107 -37 139 -37c24 0 42 19 47 43z" />
    <glyph glyph-name="scaron" unicode="&#x161;" horiz-adv-x="444" 
d="M404 418l-104 -40c-17 50 -49 74 -87 74c-29 0 -51 -21 -51 -49c0 -84 246 -86 246 -248c0 -108 -76 -165 -181 -165c-76 0 -144 19 -205 155l113 31c11 -51 42 -84 92 -84c38 0 61 18 61 48c0 104 -246 79 -246 262c0 103 83 152 172 152c94 0 159 -54 190 -136z
M285 610h-126l-114 146h113l64 -82l64 82h113z" />
    <glyph glyph-name="uacute" unicode="&#xfa;" 
d="M314 544h126v-544h-122v62c-46 -40 -89 -72 -141 -72c-77 0 -117 39 -117 140v414h126v-400c0 -36 12 -60 46 -60c26 0 55 25 82 49v411zM249 756h155l-147 -146h-101z" />
    <glyph glyph-name="ucircumflex" unicode="&#xfb;" 
d="M314 544h126v-544h-122v62c-46 -40 -89 -72 -141 -72c-77 0 -117 39 -117 140v414h126v-400c0 -36 12 -60 46 -60c26 0 55 25 82 49v411zM178 756h126l114 -146h-113l-64 82l-64 -82h-113z" />
    <glyph glyph-name="udieresis" unicode="&#xfc;" 
d="M314 544h126v-544h-122v62c-46 -40 -89 -72 -141 -72c-77 0 -117 39 -117 140v414h126v-400c0 -36 12 -60 46 -60c26 0 55 25 82 49v411zM86 732h120v-114h-120v114zM276 732h120v-114h-120v114z" />
    <glyph glyph-name="ugrave" unicode="&#xf9;" 
d="M314 544h126v-544h-122v62c-46 -40 -89 -72 -141 -72c-77 0 -117 39 -117 140v414h126v-400c0 -36 12 -60 46 -60c26 0 55 25 82 49v411zM78 756h155l93 -146h-101z" />
    <glyph glyph-name="yacute" unicode="&#xfd;" horiz-adv-x="444" 
d="M32 -190v110c12 -2 24 -2 37 -2c55 0 91 48 91 72c0 32 -10 69 -23 115l-126 439h128l85 -360h2l79 360h128l-145 -542c-39 -147 -90 -194 -216 -194c-12 0 -26 1 -40 2zM230 756h155l-147 -146h-101z" />
    <glyph glyph-name="ydieresis" unicode="&#xff;" horiz-adv-x="444" 
d="M32 -190v110c12 -2 24 -2 37 -2c55 0 91 48 91 72c0 32 -10 69 -23 115l-126 439h128l85 -360h2l79 360h128l-145 -542c-39 -147 -90 -194 -216 -194c-12 0 -26 1 -40 2zM67 732h120v-114h-120v114zM257 732h120v-114h-120v114z" />
    <glyph glyph-name="zcaron" unicode="&#x17e;" horiz-adv-x="444" 
d="M51 434v110h362v-108l-231 -326h231v-110h-382v108l227 326h-207zM285 610h-126l-114 146h113l64 -82l64 82h113z" />
    <glyph glyph-name=".null" horiz-adv-x="0" 
 />
    <glyph glyph-name="CR" unicode="&#xd;" horiz-adv-x="278" 
 />
    <glyph glyph-name="uni00A0" unicode="&#xa0;" horiz-adv-x="278" 
 />
    <glyph glyph-name="Amacron" unicode="&#x100;" horiz-adv-x="556" 
d="M278 566l-68 -292h137l-67 292h-2zM146 0h-133l179 722h177l174 -722h-132l-35 152h-191zM454 793h-348v74h348v-74z" />
    <glyph glyph-name="Abreve" unicode="&#x102;" horiz-adv-x="556" 
d="M278 566l-68 -292h137l-67 292h-2zM146 0h-133l179 722h177l174 -722h-132l-35 152h-191zM382 907h66c-13 -100 -75 -146 -175 -146c-96 0 -154 49 -161 146h64c5 -56 56 -70 104 -70c53 0 91 14 102 70z" />
    <glyph glyph-name="Aogonek" unicode="&#x104;" horiz-adv-x="556" 
d="M146 0h-133l179 722h177l174 -722h-39c-7 -3 -14 -6 -22 -10c-47 -22 -97 -56 -97 -106c0 -33 24 -52 53 -52c32 0 69 26 96 43l20 -34c-45 -31 -95 -59 -151 -59c-57 0 -104 31 -104 91c0 52 37 86 84 109c15 7 31 13 48 18h-20l-35 152h-191zM278 566l-68 -292h137
l-67 292h-2z" />
    <glyph glyph-name="Cacute" unicode="&#x106;" horiz-adv-x="556" 
d="M188 508v-294c0 -80 35 -102 90 -102s90 22 90 102v48h138v-30c0 -178 -94 -242 -228 -242s-228 64 -228 242v258c0 178 94 242 228 242s228 -64 228 -242v-2h-138v20c0 80 -35 102 -90 102s-90 -22 -90 -102zM288 909h155l-147 -146h-101z" />
    <glyph glyph-name="Ccircumflex" unicode="&#x108;" horiz-adv-x="556" 
d="M188 508v-294c0 -80 35 -102 90 -102s90 22 90 102v48h138v-30c0 -178 -94 -242 -228 -242s-228 64 -228 242v258c0 178 94 242 228 242s228 -64 228 -242v-2h-138v20c0 80 -35 102 -90 102s-90 -22 -90 -102zM215 909h126l114 -146h-113l-64 82l-64 -82h-113z" />
    <glyph glyph-name="Ccaron" unicode="&#x10c;" horiz-adv-x="556" 
d="M188 508v-294c0 -80 35 -102 90 -102s90 22 90 102v48h138v-30c0 -178 -94 -242 -228 -242s-228 64 -228 242v258c0 178 94 242 228 242s228 -64 228 -242v-2h-138v20c0 80 -35 102 -90 102s-90 -22 -90 -102zM341 763h-126l-114 146h113l64 -82l64 82h113z" />
    <glyph glyph-name="Cdotaccent" unicode="&#x10a;" horiz-adv-x="556" 
d="M188 508v-294c0 -80 35 -102 90 -102s90 22 90 102v48h138v-30c0 -178 -94 -242 -228 -242s-228 64 -228 242v258c0 178 94 242 228 242s228 -64 228 -242v-2h-138v20c0 80 -35 102 -90 102s-90 -22 -90 -102zM218 885h120v-114h-120v114z" />
    <glyph glyph-name="Dcaron" unicode="&#x10e;" horiz-adv-x="556" 
d="M62 0v722h192c158 0 246 -68 252 -250v-222c-6 -182 -94 -250 -252 -250h-192zM200 600v-478h48c76 0 120 36 120 144v190c0 102 -34 144 -120 144h-48zM318 763h-126l-114 146h113l64 -82l64 82h113z" />
    <glyph glyph-name="Dcroat" unicode="&#x110;" horiz-adv-x="556" 
d="M288 434v-122h-88v-190h48c76 0 120 36 120 144v190c0 103 -33 144 -120 144h-48v-166h88zM8 312v122h54v288h192c157 0 247 -69 252 -250v-222c-5 -181 -95 -250 -252 -250h-192v312h-54z" />
    <glyph glyph-name="Ecaron" unicode="&#x11a;" 
d="M450 0h-388v722h378v-122h-240v-166h183v-122h-183v-190h250v-122zM315 763h-126l-114 146h113l64 -82l64 82h113z" />
    <glyph glyph-name="Emacron" unicode="&#x112;" 
d="M450 0h-388v722h378v-122h-240v-166h183v-122h-183v-190h250v-122zM424 793h-348v74h348v-74z" />
    <glyph glyph-name="Ebreve" unicode="&#x114;" 
d="M450 0h-388v722h378v-122h-240v-166h183v-122h-183v-190h250v-122zM354 907h66c-13 -100 -75 -146 -175 -146c-96 0 -154 49 -161 146h64c5 -56 56 -70 104 -70c53 0 91 14 102 70z" />
    <glyph glyph-name="Edotaccent" unicode="&#x116;" 
d="M450 0h-388v722h378v-122h-240v-166h183v-122h-183v-190h250v-122zM191 885h120v-114h-120v114z" />
    <glyph glyph-name="Eogonek" unicode="&#x118;" 
d="M335 0h-273v722h378v-122h-240v-166h183v-122h-183v-190h250v-122h-42c-7 -3 -14 -6 -22 -10c-47 -22 -97 -56 -97 -106c0 -33 24 -52 53 -52c32 0 69 26 96 43l20 -34c-45 -31 -95 -59 -151 -59c-57 0 -104 31 -104 91c0 52 37 86 84 109c15 7 31 13 48 18z" />
    <glyph glyph-name="Gcircumflex" unicode="&#x11c;" horiz-adv-x="556" 
d="M428 0l-21 60c-37 -42 -77 -70 -129 -70c-134 0 -228 64 -228 242v258c0 178 94 242 228 242c141 0 217 -81 222 -245h-138c0 93 -34 123 -84 123c-55 0 -90 -22 -90 -102v-294c0 -80 35 -102 90 -102c52 0 84 38 84 100v44h-97v114h235v-370h-72zM215 909h126l114 -146
h-113l-64 82l-64 -82h-113z" />
    <glyph glyph-name="Gbreve" unicode="&#x11e;" horiz-adv-x="556" 
d="M428 0l-21 60c-37 -42 -77 -70 -129 -70c-134 0 -228 64 -228 242v258c0 178 94 242 228 242c141 0 217 -81 222 -245h-138c0 93 -34 123 -84 123c-55 0 -90 -22 -90 -102v-294c0 -80 35 -102 90 -102c52 0 84 38 84 100v44h-97v114h235v-370h-72zM380 907h66
c-13 -100 -75 -146 -175 -146c-96 0 -154 49 -161 146h64c5 -56 56 -70 104 -70c53 0 91 14 102 70z" />
    <glyph glyph-name="Gdotaccent" unicode="&#x120;" horiz-adv-x="556" 
d="M428 0l-21 60c-37 -42 -77 -70 -129 -70c-134 0 -228 64 -228 242v258c0 178 94 242 228 242c141 0 217 -81 222 -245h-138c0 93 -34 123 -84 123c-55 0 -90 -22 -90 -102v-294c0 -80 35 -102 90 -102c52 0 84 38 84 100v44h-97v114h235v-370h-72zM218 885h120v-114h-120
v114z" />
    <glyph glyph-name="Gcommaaccent" unicode="&#x122;" horiz-adv-x="556" 
d="M428 0l-21 60c-37 -42 -77 -70 -129 -70c-134 0 -228 64 -228 242v258c0 178 94 242 228 242c141 0 217 -81 222 -245h-138c0 93 -34 123 -84 123c-55 0 -90 -22 -90 -102v-294c0 -80 35 -102 90 -102c52 0 84 38 84 100v44h-97v114h235v-370h-72zM241 -228l31 85h-44v98
h102v-96l-38 -87h-51z" />
    <glyph glyph-name="Hcircumflex" unicode="&#x124;" horiz-adv-x="611" 
d="M208 0h-138v722h138v-288h195v288h138v-722h-138v312h-195v-312zM243 909h126l114 -146h-113l-64 82l-64 -82h-113z" />
    <glyph glyph-name="Hbar" unicode="&#x126;" horiz-adv-x="611" 
d="M208 0h-138v722h138v-129h195v129h138v-722h-138v262h-195v-262zM208 500v-123h195v123h-195z" />
    <glyph glyph-name="Itilde" unicode="&#x128;" horiz-adv-x="278" 
d="M208 0h-138v722h138v-722zM258 897h65c-13 -63 -39 -121 -111 -121c-54 0 -102 35 -147 35c-25 0 -40 -19 -45 -42h-63c11 64 44 122 115 122c53 0 106 -37 139 -37c24 0 42 19 47 43z" />
    <glyph glyph-name="Imacron" unicode="&#x12a;" horiz-adv-x="278" 
d="M208 0h-138v722h138v-722zM313 793h-348v74h348v-74z" />
    <glyph glyph-name="Idotaccent" unicode="&#x130;" horiz-adv-x="278" 
d="M208 0h-138v722h138v-722zM80 885h120v-114h-120v114z" />
    <glyph glyph-name="Iogonek" unicode="&#x12e;" horiz-adv-x="278" 
d="M124 0h-54v722h138v-722h-21c-5 -3 -10 -6 -16 -10c-32 -20 -74 -57 -74 -106c0 -33 24 -52 53 -52c32 0 69 26 96 43l20 -34c-48 -35 -95 -59 -151 -59c-57 0 -103 31 -103 91c0 52 33 86 72 109c13 7 26 13 40 18z" />
    <glyph glyph-name="Jcircumflex" unicode="&#x134;" horiz-adv-x="333" 
d="M125 722h138v-569c0 -97 -65 -163 -185 -163c-30 0 -48 1 -68 3v122c14 -1 25 -3 37 -3c63 0 78 17 78 69v541zM128 909h126l114 -146h-113l-64 82l-64 -82h-113z" />
    <glyph glyph-name="Kcommaaccent" unicode="&#x136;" horiz-adv-x="556" 
d="M200 0h-138v722h138v-298h2l179 298h151l-186 -291l207 -431h-155l-144 303l-54 -82v-221zM250 -228l31 85h-44v98h102v-96l-38 -87h-51z" />
    <glyph glyph-name="Lacute" unicode="&#x139;" horiz-adv-x="444" 
d="M422 0h-360v722h138v-600h222v-122zM169 909h155l-147 -146h-101z" />
    <glyph glyph-name="Lcaron" unicode="&#x13d;" horiz-adv-x="444" 
d="M422 0h-360v722h138v-600h222v-122zM265 539l29 87h-42v96h99v-94l-38 -89h-48z" />
    <glyph glyph-name="Lcommaaccent" unicode="&#x13b;" horiz-adv-x="444" 
d="M422 0h-360v722h138v-600h222v-122zM201 -228l31 85h-44v98h102v-96l-38 -87h-51z" />
    <glyph glyph-name="Ldot" unicode="&#x13f;" horiz-adv-x="444" 
d="M422 0h-360v722h138v-600h222v-122zM263 426h120v-114h-120v114z" />
    <glyph glyph-name="Nacute" unicode="&#x143;" horiz-adv-x="611" 
d="M196 0h-126v722h151l192 -428h2v428h126v-722h-132l-211 466h-2v-466zM324 909h155l-147 -146h-101z" />
    <glyph glyph-name="Ncaron" unicode="&#x147;" horiz-adv-x="611" 
d="M196 0h-126v722h151l192 -428h2v428h126v-722h-132l-211 466h-2v-466zM370 763h-126l-114 146h113l64 -82l64 82h113z" />
    <glyph glyph-name="Ncommaaccent" unicode="&#x145;" horiz-adv-x="611" 
d="M196 0h-126v722h151l192 -428h2v428h126v-722h-132l-211 466h-2v-466zM267 -228l31 85h-44v98h102v-96l-38 -87h-51z" />
    <glyph glyph-name="Omacron" unicode="&#x14c;" horiz-adv-x="556" 
d="M50 232v258c0 178 94 242 228 242s228 -64 228 -242v-258c0 -178 -94 -242 -228 -242s-228 64 -228 242zM188 508v-294c0 -80 35 -102 90 -102s90 22 90 102v294c0 80 -35 102 -90 102s-90 -22 -90 -102zM454 793h-348v74h348v-74z" />
    <glyph glyph-name="Obreve" unicode="&#x14e;" horiz-adv-x="556" 
d="M50 232v258c0 178 94 242 228 242s228 -64 228 -242v-258c0 -178 -94 -242 -228 -242s-228 64 -228 242zM188 508v-294c0 -80 35 -102 90 -102s90 22 90 102v294c0 80 -35 102 -90 102s-90 -22 -90 -102zM380 907h66c-13 -100 -75 -146 -175 -146c-96 0 -154 49 -161 146
h64c5 -56 56 -70 104 -70c53 0 91 14 102 70z" />
    <glyph glyph-name="Ohungarumlaut" unicode="&#x150;" horiz-adv-x="556" 
d="M50 232v258c0 178 94 242 228 242s228 -64 228 -242v-258c0 -178 -94 -242 -228 -242s-228 64 -228 242zM188 508v-294c0 -80 35 -102 90 -102s90 22 90 102v294c0 80 -35 102 -90 102s-90 -22 -90 -102zM207 909h151l-141 -146h-97zM387 909h155l-147 -146h-101z" />
    <glyph glyph-name="Racute" unicode="&#x154;" horiz-adv-x="556" 
d="M534 0h-148l-120 294h-66v-294h-138v722h200c166 0 245 -80 245 -216c0 -90 -32 -155 -109 -184zM200 608v-200h71c61 0 98 30 98 100s-37 100 -98 100h-71zM275 909h155l-147 -146h-101z" />
    <glyph glyph-name="Rcaron" unicode="&#x158;" horiz-adv-x="556" 
d="M534 0h-148l-120 294h-66v-294h-138v722h200c166 0 245 -80 245 -216c0 -90 -32 -155 -109 -184zM200 608v-200h71c61 0 98 30 98 100s-37 100 -98 100h-71zM324 763h-126l-114 146h113l64 -82l64 82h113z" />
    <glyph glyph-name="Rcommaaccent" unicode="&#x156;" horiz-adv-x="556" 
d="M534 0h-148l-120 294h-66v-294h-138v722h200c166 0 245 -80 245 -216c0 -90 -32 -155 -109 -184zM200 608v-200h71c61 0 98 30 98 100s-37 100 -98 100h-71zM248 -228l31 85h-44v98h102v-96l-38 -87h-51z" />
    <glyph glyph-name="Sacute" unicode="&#x15a;" horiz-adv-x="556" 
d="M491 557l-124 -36c-23 68 -53 97 -101 97c-49 0 -76 -30 -76 -79c0 -109 308 -117 308 -343c0 -124 -85 -206 -230 -206c-112 0 -199 61 -236 203l136 29c16 -87 66 -118 107 -118c48 0 85 32 85 86c0 136 -308 138 -308 340c0 124 74 202 217 202
c123 0 198 -73 222 -175zM289 909h155l-147 -146h-101z" />
    <glyph glyph-name="Scircumflex" unicode="&#x15c;" horiz-adv-x="556" 
d="M491 557l-124 -36c-23 68 -53 97 -101 97c-49 0 -76 -30 -76 -79c0 -109 308 -117 308 -343c0 -124 -85 -206 -230 -206c-112 0 -199 61 -236 203l136 29c16 -87 66 -118 107 -118c48 0 85 32 85 86c0 136 -308 138 -308 340c0 124 74 202 217 202
c123 0 198 -73 222 -175zM207 909h126l114 -146h-113l-64 82l-64 -82h-113z" />
    <glyph glyph-name="Scedilla" unicode="&#x15e;" horiz-adv-x="556" 
d="M146 -203l19 42c24 -8 50 -17 75 -17c24 0 56 10 56 39c0 23 -18 37 -41 37c-16 0 -30 -4 -45 -8l-21 20l53 81c-46 5 -86 20 -121 47c-41 32 -70 84 -89 155l136 29c16 -88 66 -118 107 -118c48 0 85 31 85 86c0 137 -308 138 -308 340c0 125 73 202 217 202
c123 0 198 -74 222 -175l-124 -36c-23 68 -53 97 -101 97c-49 0 -76 -30 -76 -79c0 -108 308 -118 308 -343c0 -94 -48 -162 -133 -192c-21 -7 -45 -11 -71 -13l-35 -52l2 -2c9 7 20 7 31 7c45 0 90 -30 90 -78c0 -68 -68 -94 -127 -94c-39 0 -74 10 -109 25z" />
    <glyph glyph-name="Scommaaccent" unicode="&#x218;" horiz-adv-x="556" 
d="M491 557l-124 -36c-23 68 -53 97 -101 97c-49 0 -76 -30 -76 -79c0 -109 308 -117 308 -343c0 -124 -85 -206 -230 -206c-112 0 -199 61 -236 203l136 29c16 -87 66 -118 107 -118c48 0 85 32 85 86c0 136 -308 138 -308 340c0 124 74 202 217 202
c123 0 198 -73 222 -175zM232 -228l31 85h-44v98h102v-96l-38 -87h-51z" />
    <glyph glyph-name="Tcaron" unicode="&#x164;" 
d="M20 722h460v-122h-161v-600h-138v600h-161v122zM314 763h-126l-114 146h113l64 -82l64 82h113z" />
    <glyph glyph-name="Tcommaaccent" unicode="&#x162;" 
d="M20 722h460v-122h-161v-600h-138v600h-161v122zM211 -228l31 85h-44v98h102v-96l-38 -87h-51z" />
    <glyph glyph-name="uni021A" unicode="&#x21a;" 
d="M20 722h460v-122h-161v-600h-138v600h-161v122zM211 -228l31 85h-44v98h102v-96l-38 -87h-51z" />
    <glyph glyph-name="Tbar" unicode="&#x166;" 
d="M20 722h460v-120h-161v-129h133v-111h-133v-362h-138v362h-133v111h133v129h-161v120z" />
    <glyph glyph-name="Utilde" unicode="&#x168;" horiz-adv-x="611" 
d="M70 722h138v-505c0 -69 30 -105 97 -105s98 36 98 105v505h138v-506c0 -159 -94 -226 -236 -226s-235 67 -235 226v506zM426 897h65c-13 -63 -39 -121 -111 -121c-54 0 -102 35 -147 35c-25 0 -40 -19 -45 -42h-63c11 64 44 122 115 122c53 0 106 -37 139 -37
c24 0 42 19 47 43z" />
    <glyph glyph-name="Umacron" unicode="&#x16a;" horiz-adv-x="611" 
d="M70 722h138v-505c0 -69 30 -105 97 -105s98 36 98 105v505h138v-506c0 -159 -94 -226 -236 -226s-235 67 -235 226v506zM482 793h-348v74h348v-74z" />
    <glyph glyph-name="Ubreve" unicode="&#x16c;" horiz-adv-x="611" 
d="M70 722h138v-505c0 -69 30 -105 97 -105s98 36 98 105v505h138v-506c0 -159 -94 -226 -236 -226s-235 67 -235 226v506zM411 907h66c-13 -100 -75 -146 -175 -146c-96 0 -154 49 -161 146h64c5 -56 56 -70 104 -70c53 0 91 14 102 70z" />
    <glyph glyph-name="Uring" unicode="&#x16e;" horiz-adv-x="611" 
d="M70 722h138v-505c0 -69 30 -105 97 -105s98 36 98 105v505h138v-506c0 -159 -94 -226 -236 -226s-235 67 -235 226v506zM305 917c-31 0 -52 -24 -52 -53c0 -31 21 -53 52 -53c29 0 54 22 54 53c0 29 -25 53 -54 53zM305 757c-59 0 -106 48 -106 107s47 107 106 107
s108 -48 108 -107s-49 -107 -108 -107z" />
    <glyph glyph-name="Uhungarumlaut" unicode="&#x170;" horiz-adv-x="611" 
d="M70 722h138v-505c0 -69 30 -105 97 -105s98 36 98 105v505h138v-506c0 -159 -94 -226 -236 -226s-235 67 -235 226v506zM227 909h151l-141 -146h-97zM407 909h155l-147 -146h-101z" />
    <glyph glyph-name="Uogonek" unicode="&#x172;" horiz-adv-x="611" 
d="M70 722h138v-505c0 -69 29 -105 97 -105c65 0 98 35 98 105v505h138v-506c0 -119 -53 -187 -139 -213l-25 -12c-47 -24 -97 -56 -97 -107c0 -33 24 -52 53 -52c32 0 69 26 96 43l20 -34c-45 -31 -95 -59 -151 -59c-57 0 -104 31 -104 91c0 52 37 86 84 109c7 3 13 5 19 8
c-32 1 -62 5 -89 13c-86 26 -138 94 -138 213v506z" />
    <glyph glyph-name="Wcircumflex" unicode="&#x174;" horiz-adv-x="833" 
d="M174 0l-151 722h128l97 -472h2l99 472h133l100 -472h2l96 472h129l-158 -722h-133l-101 494h-2l-109 -494h-132zM358 909h126l114 -146h-113l-64 82l-64 -82h-113z" />
    <glyph glyph-name="Ycircumflex" unicode="&#x176;" horiz-adv-x="556" 
d="M159 722l121 -291l117 291h147l-197 -430v-292h-138v292l-197 430h147zM217 909h126l114 -146h-113l-64 82l-64 -82h-113z" />
    <glyph glyph-name="Zacute" unicode="&#x179;" 
d="M61 600v122h400v-116l-273 -484h279v-122h-434v117l273 483h-245zM299 909h155l-147 -146h-101z" />
    <glyph glyph-name="Zdotaccent" unicode="&#x17b;" 
d="M61 600v122h400v-116l-273 -484h279v-122h-434v117l273 483h-245zM208 885h120v-114h-120v114z" />
    <glyph glyph-name="amacron" unicode="&#x101;" 
d="M174 385h-126c5 61 30 103 67 130c36 27 85 39 135 39c134 0 185 -68 185 -165v-345c0 -15 3 -30 7 -44h-126c-3 14 -5 31 -9 53c-37 -37 -87 -63 -150 -63c-76 0 -125 42 -125 130c0 126 120 180 277 227v40c0 47 -29 65 -65 65c-38 0 -70 -28 -70 -67zM309 134v132
c-75 -26 -151 -68 -151 -125c0 -36 22 -57 56 -57c38 0 65 20 95 50zM423 640h-348v74h348v-74z" />
    <glyph glyph-name="abreve" unicode="&#x103;" 
d="M174 385h-126c5 61 30 103 67 130c36 27 85 39 135 39c134 0 185 -68 185 -165v-345c0 -15 3 -30 7 -44h-126c-3 14 -5 31 -9 53c-37 -37 -87 -63 -150 -63c-76 0 -125 42 -125 130c0 126 120 180 277 227v40c0 47 -29 65 -65 65c-38 0 -70 -28 -70 -67zM309 134v132
c-75 -26 -151 -68 -151 -125c0 -36 22 -57 56 -57c38 0 65 20 95 50zM351 754h66c-13 -100 -75 -146 -175 -146c-96 0 -154 49 -161 146h64c5 -56 56 -70 104 -70c53 0 91 14 102 70z" />
    <glyph glyph-name="aogonek" unicode="&#x105;" 
d="M174 385h-126c8 121 102 169 202 169c134 0 185 -68 185 -165v-345c0 -15 3 -29 7 -44l-45 -3c-4 -2 -9 -4 -14 -7c-47 -22 -97 -56 -97 -106c0 -33 24 -52 53 -52c32 0 69 26 96 43l20 -34c-45 -31 -95 -59 -151 -59c-57 0 -104 31 -104 91c0 52 37 86 84 109
c13 5 25 10 38 15c-3 11 -6 19 -7 26c-1 9 -3 19 -4 31c-43 -39 -90 -64 -154 -64c-76 0 -125 42 -125 130c0 126 120 179 277 227v40c0 47 -29 65 -65 65c-39 0 -70 -28 -70 -67zM309 134v132c-74 -27 -151 -68 -151 -125c0 -36 21 -57 56 -57c39 0 64 19 95 50z" />
    <glyph glyph-name="cacute" unicode="&#x107;" 
d="M449 356h-125v24c0 42 -30 64 -74 64s-74 -22 -74 -64v-216c0 -42 30 -64 74 -64s74 22 74 64v34h126v-2c0 -144 -74 -206 -200 -206s-200 62 -200 206v152c0 144 74 206 200 206c123 0 197 -60 199 -198zM260 756h155l-147 -146h-101z" />
    <glyph glyph-name="ccircumflex" unicode="&#x109;" 
d="M449 356h-125v24c0 42 -30 64 -74 64s-74 -22 -74 -64v-216c0 -42 30 -64 74 -64s74 22 74 64v34h126v-2c0 -144 -74 -206 -200 -206s-200 62 -200 206v152c0 144 74 206 200 206c123 0 197 -60 199 -198zM186 756h126l114 -146h-113l-64 82l-64 -82h-113z" />
    <glyph glyph-name="ccaron" unicode="&#x10d;" 
d="M449 356h-125v24c0 42 -30 64 -74 64s-74 -22 -74 -64v-216c0 -42 30 -64 74 -64s74 22 74 64v34h126v-2c0 -144 -74 -206 -200 -206s-200 62 -200 206v152c0 144 74 206 200 206c123 0 197 -60 199 -198zM313 610h-126l-114 146h113l64 -82l64 82h113z" />
    <glyph glyph-name="cdotaccent" unicode="&#x10b;" 
d="M449 356h-125v24c0 42 -30 64 -74 64s-74 -22 -74 -64v-216c0 -42 30 -64 74 -64s74 22 74 64v34h126v-2c0 -144 -74 -206 -200 -206s-200 62 -200 206v152c0 144 74 206 200 206c123 0 197 -60 199 -198zM190 732h120v-114h-120v114z" />
    <glyph glyph-name="dcaron" unicode="&#x10f;" 
d="M314 123v298c-25 27 -48 39 -76 39c-34 0 -62 -22 -62 -130v-116c0 -108 28 -130 62 -130c28 0 51 12 76 39zM440 0h-116v66h-2c-22 -34 -78 -76 -134 -76c-98 0 -138 76 -138 216v132c0 140 40 216 138 216c34 0 66 -16 126 -60v228h126v-722zM490 539l29 87h-42v96h99
v-94l-38 -89h-48z" />
    <glyph glyph-name="dcroat" unicode="&#x111;" 
d="M440 0h-116v66h-2c-21 -35 -78 -76 -134 -76c-99 0 -138 75 -138 216v122c0 141 39 212 138 212c35 0 66 -12 126 -56v102h-110v83h110v53h126v-53h55v-83h-55v-586zM314 123v288c-24 26 -49 39 -76 39c-34 0 -62 -22 -62 -130v-106c0 -108 28 -130 62 -130
c27 0 52 13 76 39z" />
    <glyph glyph-name="ecaron" unicode="&#x11b;" 
d="M450 242h-274v-72c0 -54 32 -78 74 -78c53 0 74 34 74 76h126c-6 -112 -73 -178 -200 -178c-120 0 -200 74 -200 193v178c0 119 80 193 200 193c117 0 200 -74 200 -185v-127zM176 344h148v30c0 48 -23 78 -74 78s-74 -30 -74 -78v-30zM313 610h-126l-114 146h113l64 -82
l64 82h113z" />
    <glyph glyph-name="emacron" unicode="&#x113;" 
d="M450 242h-274v-72c0 -54 32 -78 74 -78c53 0 74 34 74 76h126c-6 -112 -73 -178 -200 -178c-120 0 -200 74 -200 193v178c0 119 80 193 200 193c117 0 200 -74 200 -185v-127zM176 344h148v30c0 48 -23 78 -74 78s-74 -30 -74 -78v-30zM424 640h-348v74h348v-74z" />
    <glyph glyph-name="ebreve" unicode="&#x115;" 
d="M450 242h-274v-72c0 -54 32 -78 74 -78c53 0 74 34 74 76h126c-6 -112 -73 -178 -200 -178c-120 0 -200 74 -200 193v178c0 119 80 193 200 193c117 0 200 -74 200 -185v-127zM176 344h148v30c0 48 -23 78 -74 78s-74 -30 -74 -78v-30zM352 754h66
c-13 -100 -75 -146 -175 -146c-96 0 -154 49 -161 146h64c5 -56 56 -70 104 -70c53 0 91 14 102 70z" />
    <glyph glyph-name="edotaccent" unicode="&#x117;" 
d="M450 242h-274v-72c0 -54 32 -78 74 -78c53 0 74 34 74 76h126c-6 -112 -73 -178 -200 -178c-120 0 -200 74 -200 193v178c0 119 80 193 200 193c117 0 200 -74 200 -185v-127zM176 344h148v30c0 48 -23 78 -74 78s-74 -30 -74 -78v-30zM190 732h120v-114h-120v114z" />
    <glyph glyph-name="eogonek" unicode="&#x119;" 
d="M450 242h-274v-72c0 -55 31 -78 74 -78c53 0 74 33 74 76h126c-3 -57 -22 -101 -55 -132c-16 -15 -36 -27 -60 -34c-15 -10 -30 -21 -44 -34c-29 -25 -51 -51 -51 -84s24 -52 53 -52c32 0 69 26 96 43l20 -34c-45 -31 -95 -59 -151 -59c-57 0 -104 31 -104 91
c0 52 37 85 84 113c3 1 5 3 8 4c-29 1 -55 5 -78 13c-73 28 -118 90 -118 180v178c0 119 80 193 200 193c116 0 200 -74 200 -185v-127zM176 344h148v30c0 48 -23 78 -74 78s-74 -30 -74 -78v-30z" />
    <glyph glyph-name="gcircumflex" unicode="&#x11d;" 
d="M292 347c0 70 -22 105 -66 105c-48 0 -66 -33 -66 -118c0 -68 22 -102 60 -102c54 0 72 20 72 115zM478 554v-110c-10 2 -29 8 -39 8c-13 0 -26 -7 -43 -12c8 -36 16 -63 16 -96c0 -136 -58 -214 -182 -214c-18 0 -33 1 -52 7c-7 -10 -22 -19 -22 -32
c0 -68 316 37 316 -160c0 -93 -96 -137 -242 -137c-134 0 -208 38 -208 99c0 41 46 66 76 85c-30 18 -52 42 -52 77c0 43 45 72 76 91c-61 40 -82 98 -82 189c0 117 45 205 186 205c52 0 110 -24 142 -63c32 40 63 63 110 63zM306 -36l-138 12c-13 -13 -26 -24 -26 -44
c0 -28 41 -40 115 -40c60 0 95 15 95 43c0 18 -8 26 -46 29zM173 756h126l114 -146h-113l-64 82l-64 -82h-113z" />
    <glyph glyph-name="gbreve" unicode="&#x11f;" 
d="M292 347c0 70 -22 105 -66 105c-48 0 -66 -33 -66 -118c0 -68 22 -102 60 -102c54 0 72 20 72 115zM478 554v-110c-10 2 -29 8 -39 8c-13 0 -26 -7 -43 -12c8 -36 16 -63 16 -96c0 -136 -58 -214 -182 -214c-18 0 -33 1 -52 7c-7 -10 -22 -19 -22 -32
c0 -68 316 37 316 -160c0 -93 -96 -137 -242 -137c-134 0 -208 38 -208 99c0 41 46 66 76 85c-30 18 -52 42 -52 77c0 43 45 72 76 91c-61 40 -82 98 -82 189c0 117 45 205 186 205c52 0 110 -24 142 -63c32 40 63 63 110 63zM306 -36l-138 12c-13 -13 -26 -24 -26 -44
c0 -28 41 -40 115 -40c60 0 95 15 95 43c0 18 -8 26 -46 29zM338 754h66c-13 -100 -75 -146 -175 -146c-96 0 -154 49 -161 146h64c5 -56 56 -70 104 -70c53 0 91 14 102 70z" />
    <glyph glyph-name="gdotaccent" unicode="&#x121;" 
d="M292 347c0 70 -22 105 -66 105c-48 0 -66 -33 -66 -118c0 -68 22 -102 60 -102c54 0 72 20 72 115zM478 554v-110c-10 2 -29 8 -39 8c-13 0 -26 -7 -43 -12c8 -36 16 -63 16 -96c0 -136 -58 -214 -182 -214c-18 0 -33 1 -52 7c-7 -10 -22 -19 -22 -32
c0 -68 316 37 316 -160c0 -93 -96 -137 -242 -137c-134 0 -208 38 -208 99c0 41 46 66 76 85c-30 18 -52 42 -52 77c0 43 45 72 76 91c-61 40 -82 98 -82 189c0 117 45 205 186 205c52 0 110 -24 142 -63c32 40 63 63 110 63zM306 -36l-138 12c-13 -13 -26 -24 -26 -44
c0 -28 41 -40 115 -40c60 0 95 15 95 43c0 18 -8 26 -46 29zM176 732h120v-114h-120v114z" />
    <glyph glyph-name="gcommaaccent" unicode="&#x123;" 
d="M292 347c0 70 -22 105 -66 105c-48 0 -66 -33 -66 -118c0 -68 22 -102 60 -102c54 0 72 20 72 115zM478 554v-110c-10 2 -29 8 -39 8c-13 0 -26 -7 -43 -12c8 -36 16 -63 16 -96c0 -136 -58 -214 -182 -214c-18 0 -33 1 -52 7c-7 -10 -22 -19 -22 -32
c0 -68 316 37 316 -160c0 -93 -96 -137 -242 -137c-134 0 -208 38 -208 99c0 41 46 66 76 85c-30 18 -52 42 -52 77c0 43 45 72 76 91c-61 40 -82 98 -82 189c0 117 45 205 186 205c52 0 110 -24 142 -63c32 40 63 63 110 63zM306 -36l-138 12c-13 -13 -26 -24 -26 -44
c0 -28 41 -40 115 -40c60 0 95 15 95 43c0 18 -8 26 -46 29zM268 756l-28 -70h38v-82h-88v80l34 72h44z" />
    <glyph glyph-name="hcircumflex" unicode="&#x125;" 
d="M186 0h-126v722h126v-240c42 40 85 72 137 72c77 0 117 -39 117 -140v-414h-126v400c0 36 -12 60 -46 60c-26 0 -55 -25 -82 -49v-411zM180 909h126l114 -146h-113l-64 82l-64 -82h-113z" />
    <glyph glyph-name="hbar" unicode="&#x127;" 
d="M186 0h-126v586h-54v83h54v53h126v-53h115v-83h-115v-111c43 40 85 72 137 72c77 0 117 -39 117 -140v-407h-126v393c0 36 -11 60 -46 60c-27 0 -55 -25 -82 -49v-404z" />
    <glyph glyph-name="itilde" unicode="&#x129;" horiz-adv-x="278" 
d="M202 0h-126v544h126v-544zM259 744h65c-13 -63 -39 -121 -111 -121c-54 0 -102 35 -147 35c-25 0 -40 -19 -45 -42h-63c10 63 44 122 115 122c53 0 107 -37 139 -37c24 0 42 19 47 43z" />
    <glyph glyph-name="imacron" unicode="&#x12b;" horiz-adv-x="278" 
d="M202 0h-126v544h126v-544zM315 640h-348v74h348v-74z" />
    <glyph glyph-name="iogonek" unicode="&#x12f;" horiz-adv-x="278" 
d="M76 544h126v-544h-15c-5 -3 -10 -6 -16 -10c-32 -20 -74 -57 -74 -106c0 -33 24 -52 53 -52c32 0 69 26 96 43l20 -34c-48 -35 -95 -59 -151 -59c-57 0 -103 31 -103 91c0 52 33 86 72 109c13 7 26 13 40 18h-48v544zM202 638h-126v114h126v-114z" />
    <glyph glyph-name="dotlessj" unicode="&#x237;" horiz-adv-x="278" 
d="M76 544h126v-588c0 -104 -71 -148 -154 -148c-17 0 -32 1 -46 3v111c55 0 74 15 74 50v572z" />
    <glyph glyph-name="jcircumflex" unicode="&#x135;" horiz-adv-x="278" 
d="M76 544h126v-588c0 -104 -71 -148 -154 -148c-17 0 -32 1 -46 3v111c55 0 74 15 74 50v572zM74 756h126l114 -146h-113l-64 82l-64 -82h-113z" />
    <glyph glyph-name="kcommaaccent" unicode="&#x137;" 
d="M192 0h-126v722h126v-389h2l134 211h141l-125 -184l136 -360h-133l-92 255l-63 -89v-166zM221 -228l31 85h-44v98h102v-96l-38 -87h-51z" />
    <glyph glyph-name="lacute" unicode="&#x13a;" horiz-adv-x="278" 
d="M76 0v722h126v-722h-126zM150 909h155l-147 -146h-101z" />
    <glyph glyph-name="lcaron" unicode="&#x13e;" horiz-adv-x="278" 
d="M76 0v722h126v-722h-126zM252 539l29 87h-42v96h99v-94l-38 -89h-48z" />
    <glyph glyph-name="lcommaaccent" unicode="&#x13c;" horiz-adv-x="278" 
d="M76 0v722h126v-722h-126zM101 -228l31 85h-44v98h102v-96l-38 -87h-51z" />
    <glyph glyph-name="ldot" unicode="&#x140;" horiz-adv-x="411" 
d="M76 0v722h126v-722h-126zM275 426h120v-114h-120v114z" />
    <glyph glyph-name="nacute" unicode="&#x144;" 
d="M186 0h-126v544h122v-62c46 40 89 72 141 72c77 0 117 -39 117 -140v-414h-126v400c0 36 -12 60 -46 60c-26 0 -55 -25 -82 -49v-411zM274 756h155l-147 -146h-101z" />
    <glyph glyph-name="ncaron" unicode="&#x148;" 
d="M186 0h-126v544h122v-62c46 40 89 72 141 72c77 0 117 -39 117 -140v-414h-126v400c0 36 -12 60 -46 60c-26 0 -55 -25 -82 -49v-411zM318 610h-126l-114 146h113l64 -82l64 82h113z" />
    <glyph glyph-name="ncommaaccent" unicode="&#x146;" 
d="M186 0h-126v544h122v-62c46 40 89 72 141 72c77 0 117 -39 117 -140v-414h-126v400c0 36 -12 60 -46 60c-26 0 -55 -25 -82 -49v-411zM212 -228l31 85h-44v98h102v-96l-38 -87h-51z" />
    <glyph glyph-name="omacron" unicode="&#x14d;" 
d="M50 196v152c0 144 74 206 200 206s200 -62 200 -206v-152c0 -144 -74 -206 -200 -206s-200 62 -200 206zM176 380v-216c0 -42 30 -64 74 -64s74 22 74 64v216c0 42 -30 64 -74 64s-74 -22 -74 -64zM426 640h-348v74h348v-74z" />
    <glyph glyph-name="obreve" unicode="&#x14f;" 
d="M50 196v152c0 144 74 206 200 206s200 -62 200 -206v-152c0 -144 -74 -206 -200 -206s-200 62 -200 206zM176 380v-216c0 -42 30 -64 74 -64s74 22 74 64v216c0 42 -30 64 -74 64s-74 -22 -74 -64zM354 754h66c-13 -100 -75 -146 -175 -146c-96 0 -154 49 -161 146h64
c5 -56 56 -70 104 -70c53 0 91 14 102 70z" />
    <glyph glyph-name="ohungarumlaut" unicode="&#x151;" 
d="M50 196v152c0 144 74 206 200 206s200 -62 200 -206v-152c0 -144 -74 -206 -200 -206s-200 62 -200 206zM176 380v-216c0 -42 30 -64 74 -64s74 22 74 64v216c0 42 -30 64 -74 64s-74 -22 -74 -64zM177 756h151l-141 -146h-97zM357 756h155l-147 -146h-101z" />
    <glyph glyph-name="racute" unicode="&#x155;" horiz-adv-x="333" 
d="M186 0h-126v544h123v-72h2c29 54 67 82 130 82v-136c-21 6 -45 14 -67 14c-41 0 -62 -31 -62 -60v-372zM219 756h155l-147 -146h-101z" />
    <glyph glyph-name="rcaron" unicode="&#x159;" horiz-adv-x="333" 
d="M186 0h-126v544h123v-72h2c29 54 67 82 130 82v-136c-21 6 -45 14 -67 14c-41 0 -62 -31 -62 -60v-372zM253 610h-126l-114 146h113l64 -82l64 82h113z" />
    <glyph glyph-name="rcommaaccent" unicode="&#x157;" horiz-adv-x="333" 
d="M186 0h-126v544h123v-72h2c29 54 67 82 130 82v-136c-21 6 -45 14 -67 14c-41 0 -62 -31 -62 -60v-372zM86 -228l31 85h-44v98h102v-96l-38 -87h-51z" />
    <glyph glyph-name="sacute" unicode="&#x15b;" horiz-adv-x="444" 
d="M404 418l-104 -40c-17 50 -49 74 -87 74c-29 0 -51 -21 -51 -49c0 -84 246 -86 246 -248c0 -108 -76 -165 -181 -165c-76 0 -144 19 -205 155l113 31c11 -51 42 -84 92 -84c38 0 61 18 61 48c0 104 -246 79 -246 262c0 103 83 152 172 152c94 0 159 -54 190 -136z
M243 756h155l-147 -146h-101z" />
    <glyph glyph-name="scircumflex" unicode="&#x15d;" horiz-adv-x="444" 
d="M404 418l-104 -40c-17 50 -49 74 -87 74c-29 0 -51 -21 -51 -49c0 -84 246 -86 246 -248c0 -108 -76 -165 -181 -165c-76 0 -144 19 -205 155l113 31c11 -51 42 -84 92 -84c38 0 61 18 61 48c0 104 -246 79 -246 262c0 103 83 152 172 152c94 0 159 -54 190 -136z
M159 756h126l114 -146h-113l-64 82l-64 -82h-113z" />
    <glyph glyph-name="scedilla" unicode="&#x15f;" horiz-adv-x="444" 
d="M94 -203l19 42c24 -8 50 -17 75 -17c24 0 56 10 56 39c0 23 -18 37 -41 37c-16 0 -30 -4 -45 -8l-21 20l54 82c-7 1 -13 2 -20 3c-54 10 -104 50 -149 150l113 31c11 -51 41 -84 92 -84c39 0 61 17 61 48c0 105 -246 78 -246 262c0 103 84 152 172 152
c95 0 159 -53 190 -136l-104 -40c-17 51 -48 74 -87 74c-29 0 -51 -21 -51 -49c0 -85 246 -86 246 -248c0 -81 -42 -133 -109 -155c-17 -5 -36 -8 -57 -9l-35 -52l2 -2c9 7 20 7 31 7c45 0 90 -30 90 -78c0 -68 -68 -94 -127 -94c-39 0 -74 10 -109 25z" />
    <glyph glyph-name="scommaaccent" unicode="&#x219;" horiz-adv-x="444" 
d="M404 418l-104 -40c-17 50 -49 74 -87 74c-29 0 -51 -21 -51 -49c0 -84 246 -86 246 -248c0 -108 -76 -165 -181 -165c-76 0 -144 19 -205 155l113 31c11 -51 42 -84 92 -84c38 0 61 18 61 48c0 104 -246 79 -246 262c0 103 83 152 172 152c94 0 159 -54 190 -136z
M179 -228l31 85h-44v98h102v-96l-38 -87h-51z" />
    <glyph glyph-name="tcaron" unicode="&#x165;" horiz-adv-x="278" 
d="M225 555l29 78h-39v89h92v-87l-36 -80h-46zM56 418h-50v102h50v148h126v-148h81v-102h-81v-278c0 -27 22 -40 57 -40h13c4 0 8 0 12 1v-106c-24 -4 -48 -5 -72 -5c-83 0 -136 29 -136 108v320z" />
    <glyph glyph-name="tcommaaccent" unicode="&#x163;" horiz-adv-x="278" 
d="M56 418h-50v102h50v148h126v-148h81v-102h-81v-278c0 -27 23 -40 57 -40c9 0 17 0 25 1v-106c-24 -4 -48 -5 -72 -5c-82 0 -136 30 -136 108v320zM107 -228l31 85h-44v98h102v-96l-38 -87h-51z" />
    <glyph glyph-name="uni021B" unicode="&#x21b;" horiz-adv-x="278" 
d="M56 418h-50v102h50v148h126v-148h81v-102h-81v-278c0 -27 23 -40 57 -40c9 0 17 0 25 1v-106c-24 -4 -48 -5 -72 -5c-82 0 -136 30 -136 108v320zM107 -228l31 85h-44v98h102v-96l-38 -87h-51z" />
    <glyph glyph-name="tbar" unicode="&#x167;" horiz-adv-x="278" 
d="M56 422h-50v98h50v148h126v-148h81v-98h-81v-85h68v-89h-68v-108c0 -27 22 -40 57 -40h13c4 0 8 0 12 1v-106c-24 -4 -48 -5 -72 -5c-83 0 -136 29 -136 108v150h-45v89h45v85z" />
    <glyph glyph-name="utilde" unicode="&#x169;" 
d="M314 544h126v-544h-122v62c-46 -40 -89 -72 -141 -72c-77 0 -117 39 -117 140v414h126v-400c0 -36 12 -60 46 -60c26 0 55 25 82 49v411zM369 744h65c-13 -63 -39 -121 -111 -121c-54 0 -102 35 -147 35c-25 0 -40 -19 -45 -42h-63c10 63 44 122 115 122
c53 0 107 -37 139 -37c24 0 42 19 47 43z" />
    <glyph glyph-name="umacron" unicode="&#x16b;" 
d="M314 544h126v-544h-122v62c-46 -40 -89 -72 -141 -72c-77 0 -117 39 -117 140v414h126v-400c0 -36 12 -60 46 -60c26 0 55 25 82 49v411zM424 640h-348v74h348v-74z" />
    <glyph glyph-name="ubreve" unicode="&#x16d;" 
d="M314 544h126v-544h-122v62c-46 -40 -89 -72 -141 -72c-77 0 -117 39 -117 140v414h126v-400c0 -36 12 -60 46 -60c26 0 55 25 82 49v411zM353 754h66c-13 -100 -75 -146 -175 -146c-96 0 -154 49 -161 146h64c5 -56 56 -70 104 -70c53 0 91 14 102 70z" />
    <glyph glyph-name="uring" unicode="&#x16f;" 
d="M314 544h126v-544h-122v62c-46 -40 -89 -72 -141 -72c-77 0 -117 39 -117 140v414h126v-400c0 -36 12 -60 46 -60c26 0 55 25 82 49v411zM249 764c-31 0 -52 -24 -52 -53c0 -31 21 -53 52 -53c29 0 54 22 54 53c0 29 -25 53 -54 53zM249 604c-59 0 -106 48 -106 107
s47 107 106 107s108 -48 108 -107s-49 -107 -108 -107z" />
    <glyph glyph-name="uhungarumlaut" unicode="&#x171;" 
d="M314 544h126v-544h-122v62c-46 -40 -89 -72 -141 -72c-77 0 -117 39 -117 140v414h126v-400c0 -36 12 -60 46 -60c26 0 55 25 82 49v411zM176 756h151l-141 -146h-97zM356 756h155l-147 -146h-101z" />
    <glyph glyph-name="uogonek" unicode="&#x173;" 
d="M314 544h126v-544l-39 -1h-1c-5 -3 -11 -6 -18 -9c-47 -22 -97 -56 -97 -106c0 -33 24 -52 53 -52c32 0 69 26 96 43l20 -34c-45 -31 -95 -59 -151 -59c-57 0 -104 31 -104 91c0 52 37 86 84 109c13 5 25 10 37 15v67c-49 -43 -91 -74 -143 -74c-77 0 -117 39 -117 140
v414h126v-400c0 -36 11 -60 46 -60c27 0 55 25 82 49v411z" />
    <glyph glyph-name="wcircumflex" unicode="&#x175;" horiz-adv-x="667" 
d="M143 0l-130 544h118l73 -340h2l73 340h108l77 -340h2l69 340h118l-128 -544h-118l-77 340h-2l-67 -340h-118zM272 756h126l114 -146h-113l-64 82l-64 -82h-113z" />
    <glyph glyph-name="ycircumflex" unicode="&#x177;" horiz-adv-x="444" 
d="M32 -190v110c12 -2 24 -2 37 -2c55 0 91 48 91 72c0 32 -10 69 -23 115l-126 439h128l85 -360h2l79 360h128l-145 -542c-39 -147 -90 -194 -216 -194c-12 0 -26 1 -40 2zM161 756h126l114 -146h-113l-64 82l-64 -82h-113z" />
    <glyph glyph-name="zacute" unicode="&#x17a;" horiz-adv-x="444" 
d="M51 434v110h362v-108l-231 -326h231v-110h-382v108l227 326h-207zM264 756h155l-147 -146h-101z" />
    <glyph glyph-name="zdotaccent" unicode="&#x17c;" horiz-adv-x="444" 
d="M51 434v110h362v-108l-231 -326h231v-110h-382v108l227 326h-207zM180 732h120v-114h-120v114z" />
    <glyph glyph-name="grave.cap" unicode="&#xe300;" horiz-adv-x="278" 
d="M-24 909h155l93 -146h-101z" />
    <glyph glyph-name="acute.cap" unicode="&#xe301;" horiz-adv-x="278" 
d="M147 909h155l-147 -146h-101z" />
    <glyph glyph-name="circumflex.cap" unicode="&#xe302;" horiz-adv-x="278" 
d="M76 909h126l114 -146h-113l-64 82l-64 -82h-113z" />
    <glyph glyph-name="caron.cap" unicode="&#xe303;" horiz-adv-x="278" 
d="M202 763h-126l-114 146h113l64 -82l64 82h113z" />
    <glyph glyph-name="caron.alt" unicode="&#xe30b;" horiz-adv-x="222" 
d="M107 539l29 87h-42v96h99v-94l-38 -89h-48z" />
    <glyph glyph-name="tilde.cap" unicode="&#xe304;" horiz-adv-x="278" 
d="M257 897h65c-13 -63 -39 -121 -111 -121c-54 0 -102 35 -147 35c-25 0 -40 -19 -45 -42h-63c11 64 44 122 115 122c53 0 106 -37 139 -37c24 0 42 19 47 43z" />
    <glyph glyph-name="dieresis.cap" unicode="&#xe305;" horiz-adv-x="278" 
d="M174 885h120v-114h-120v114zM-16 885h120v-114h-120v114z" />
    <glyph glyph-name="macron.cap" unicode="&#xe306;" horiz-adv-x="278" 
d="M313 793h-348v74h348v-74z" />
    <glyph glyph-name="uni02C9" unicode="&#x2c9;" horiz-adv-x="278" 
d="M313 640h-348v74h348v-74z" />
    <glyph glyph-name="breve.cap" unicode="&#xe307;" horiz-adv-x="278" 
d="M241 907h66c-13 -100 -75 -146 -175 -146c-96 0 -154 49 -161 146h64c5 -56 56 -70 104 -70c53 0 91 14 102 70z" />
    <glyph glyph-name="ring.cap" unicode="&#xe308;" horiz-adv-x="278" 
d="M138 917c-31 0 -52 -24 -52 -53c0 -31 21 -53 52 -53c29 0 54 22 54 53c0 29 -25 53 -54 53zM138 757c-59 0 -106 48 -106 107s47 107 106 107s108 -48 108 -107s-49 -107 -108 -107z" />
    <glyph glyph-name="hungarumlaut.cap" unicode="&#xe309;" horiz-adv-x="278" 
d="M59 909h151l-141 -146h-97zM239 909h155l-147 -146h-101z" />
    <glyph glyph-name="dotaccent.cap" unicode="&#xe30a;" horiz-adv-x="278" 
d="M79 885h120v-114h-120v114z" />
    <glyph glyph-name="commaaccent" unicode="&#xe30c;" horiz-adv-x="278" 
d="M101 -228l31 85h-44v98h102v-96l-38 -87h-51z" />
    <glyph glyph-name="commaaccent.alt" unicode="&#xe30d;" horiz-adv-x="222" 
d="M173 756l-28 -70h38v-82h-88v80l34 72h44z" />
    <glyph glyph-name="uni00AD" unicode="&#xad;" horiz-adv-x="333" 
d="M289 217h-246v110h246v-110z" />
    <glyph glyph-name="uni2219" unicode="&#x2219;" horiz-adv-x="278" 
d="M139 348c45 0 76 -37 76 -76s-31 -76 -76 -76s-76 37 -76 76s31 76 76 76z" />
    <glyph glyph-name="Euro" unicode="&#x20ac;" horiz-adv-x="556" 
d="M446 391h-214v-72h190l-28 -88h-162v-5c0 -76 40 -122 116 -122c60 0 106 6 157 41v-118c-51 -27 -114 -35 -167 -35c-140 0 -229 86 -229 210v29h-79l28 88h51v72h-79l28 88h51v48c0 124 109 205 242 205c65 0 133 -19 185 -60l-36 -113c-43 39 -100 59 -155 59
c-73 0 -113 -54 -113 -112v-27h242z" />
    <glyph glyph-name="uni2215" unicode="&#x2215;" horiz-adv-x="167" 
d="M-167 -10l405 742h96l-405 -742h-96z" />
    <glyph glyph-name="notequal" unicode="&#x2260;" horiz-adv-x="600" 
d="M559 99h-285l-78 -152l-89 46l55 106h-122v102h173l61 117h-234v101h285l77 152l89 -45l-54 -107h122v-101h-174l-60 -117h234v-102z" />
    <glyph glyph-name="approxequal" unicode="&#x2248;" horiz-adv-x="600" 
d="M499 241h67c-8 -85 -47 -167 -145 -167c-81 0 -199 69 -257 69c-39 0 -60 -34 -65 -69h-68c8 83 48 168 143 168c85 0 181 -67 261 -67c39 0 57 31 64 66zM500 444h68c-8 -85 -47 -167 -145 -167c-81 0 -199 69 -257 69c-39 0 -58 -34 -65 -69h-68c8 83 47 168 143 168
c83 0 183 -67 261 -67c39 0 56 31 63 66z" />
    <glyph glyph-name="lessequal" unicode="&#x2264;" horiz-adv-x="600" 
d="M559 -35h-519v101h519v-101zM559 100l-519 172v103l519 179v-107l-381 -123l381 -117v-107z" />
    <glyph glyph-name="greaterequal" unicode="&#x2265;" horiz-adv-x="600" 
d="M559 -35h-519v101h519v-101zM559 272l-519 -172v107l380 117l-380 123v107l519 -179v-103z" />
    <glyph glyph-name="Delta" unicode="&#x2206;" horiz-adv-x="683" 
d="M524 98l-190 490l-180 -490h370zM675 0h-666l272 712h110z" />
    <glyph glyph-name="uni0394" unicode="&#x394;" horiz-adv-x="683" 
d="M524 98l-190 490l-180 -490h370zM675 0h-666l272 712h110z" />
    <glyph glyph-name="Omega" unicode="&#x2126;" horiz-adv-x="757" 
d="M698 0h-272v188c104 21 160 108 160 212c0 123 -87 222 -213 222c-127 0 -214 -100 -214 -224c0 -108 53 -185 158 -210v-188h-271v91h183v47c-122 40 -183 143 -183 268c0 184 146 315 326 315c181 0 326 -125 326 -312c0 -125 -59 -234 -184 -271v-47h184v-91z" />
    <glyph glyph-name="uni03A9" unicode="&#x3a9;" horiz-adv-x="757" 
d="M698 0h-272v188c104 21 160 108 160 212c0 123 -87 222 -213 222c-127 0 -214 -100 -214 -224c0 -108 53 -185 158 -210v-188h-271v91h183v47c-122 40 -183 143 -183 268c0 184 146 315 326 315c181 0 326 -125 326 -312c0 -125 -59 -234 -184 -271v-47h184v-91z" />
    <glyph glyph-name="uni03BC" unicode="&#x3bc;" 
d="M314 544h126v-544h-122v62c-43 -37 -83 -68 -132 -72v-182h-126v736h126v-400c0 -36 11 -60 46 -60c27 0 55 25 82 49v411z" />
    <glyph glyph-name="pi" unicode="&#x3c0;" horiz-adv-x="589" 
d="M566 89v-76c-28 -13 -52 -20 -83 -20c-89 0 -100 57 -100 130v264h-211v-387h-101v387h-70v96h562v-96h-79v-249c0 -29 1 -59 38 -59c14 0 29 3 44 10z" />
    <glyph glyph-name="afii61289" unicode="&#x2113;" 
d="M402 106l38 -58c-47 -41 -99 -62 -155 -62c-93 0 -150 54 -150 139v70l-57 -53h-2l-39 60l97 85v246c0 111 69 188 161 188c81 0 134 -55 134 -142c0 -101 -60 -198 -183 -310v-126c0 -59 35 -75 66 -75c27 0 57 13 88 38h2zM338 572c0 43 -17 74 -44 74s-48 -32 -48 -92
v-190c64 69 92 143 92 208z" />
    <glyph glyph-name="estimated" unicode="&#x212e;" horiz-adv-x="600" 
d="M561 259h-404v-181c39 -39 88 -59 145 -59c84 0 142 36 193 120l35 -21c-61 -96 -123 -135 -228 -135c-157 0 -258 122 -258 276c0 155 101 276 258 276c154 0 259 -114 259 -276zM157 295h291v145c-42 40 -91 60 -147 60s-104 -20 -144 -60v-145z" />
    <glyph glyph-name="infinity" unicode="&#x221e;" horiz-adv-x="806" 
d="M348 258c-34 34 -87 86 -140 86c-48 0 -78 -40 -78 -85c0 -49 30 -83 81 -83s105 44 137 82zM675 259c0 49 -29 86 -80 86c-54 0 -102 -53 -137 -88c35 -38 85 -82 140 -82c49 0 77 37 77 84zM761 262c0 -100 -61 -179 -165 -179c-81 0 -142 56 -193 112
c-56 -56 -105 -110 -192 -110c-102 0 -167 75 -167 175c0 99 63 176 164 176c87 0 143 -58 195 -118c51 59 111 119 194 119c101 0 164 -76 164 -175z" />
    <glyph glyph-name="partialdiff" unicode="&#x2202;" horiz-adv-x="548" 
d="M397 264l-1 23c-35 41 -73 67 -129 67c-84 0 -125 -69 -125 -145c0 -72 36 -141 117 -141c96 0 141 115 138 196zM507 359c0 -168 -44 -371 -252 -371c-131 0 -216 99 -216 227c0 125 84 219 212 219c57 0 104 -21 147 -58l1 30c3 98 -37 232 -157 232
c-45 0 -83 -21 -118 -48l-57 66c55 43 100 65 171 65c205 0 269 -189 269 -362z" />
    <glyph glyph-name="integral" unicode="&#x222b;" horiz-adv-x="600" 
d="M474 713c0 -28 -23 -49 -51 -49c-58 0 -46 65 -71 65c-17 0 -19 -19 -19 -32c0 -44 2 -89 2 -133l1 -524c0 -104 4 -254 -141 -254c-43 0 -102 21 -102 72c0 28 19 49 48 49c57 0 46 -67 70 -67s19 35 19 49c0 32 -3 65 -3 97v535c0 107 -11 265 142 265
c43 0 105 -21 105 -73z" />
    <glyph glyph-name="radical" unicode="&#x221a;" horiz-adv-x="531" 
d="M543 786l-211 -1000h-101l-153 319l-50 -23l-40 85l143 65l133 -281l170 835h109z" />
    <glyph glyph-name="summation" unicode="&#x2211;" horiz-adv-x="643" 
d="M618 -214h-593v86l306 419l-293 411v84h567v-98h-424l279 -396l-297 -409h455v-97z" />
    <glyph glyph-name="product" unicode="&#x220f;" horiz-adv-x="737" 
d="M674 -214h-108v902h-396v-902h-107v1000h611v-1000z" />
    <glyph glyph-name="lozenge" unicode="&#x25ca;" horiz-adv-x="593" 
d="M417 356l-122 290l-119 -290l119 -291zM520 356l-177 -391h-95l-176 391l176 391h95z" />
    <glyph glyph-name="uniF8FF" unicode="&#xf8ff;" horiz-adv-x="512" 
d="M278 117h-56v67h56v-67zM271 234h-46l-2 17c0 37 4 64 13 81s24 37 46 59c43 41 50 58 50 83c0 48 -35 85 -76 85s-74 -27 -82 -95l-50 8c9 95 63 137 135 137c71 0 124 -52 124 -131c0 -43 -12 -73 -63 -120c-25 -22 -39 -39 -43 -52s-6 -37 -6 -72zM50 50h412v617h-412
v-617zM0 718h512v-718h-512v718z" />
    </font>
</defs>
</svg>
