<?xml version="1.0" encoding="UTF-8" standalone="no"?>
<!DOCTYPE svg PUBLIC "-//W3C//DTD SVG 1.1//EN" "http://www.w3.org/Graphics/SVG/1.1/DTD/svg11.dtd">
<svg width="100%" height="100%" viewBox="0 0 1500 438" version="1.1" xmlns="http://www.w3.org/2000/svg" xmlns:xlink="http://www.w3.org/1999/xlink" xml:space="preserve" xmlns:serif="http://www.serif.com/" style="fill-rule:evenodd;clip-rule:evenodd;stroke-linejoin:round;stroke-miterlimit:1.41421;">
    <g transform="matrix(1,0,0,1,-451.742,-553.435)">
        <g id="logo-header" transform="matrix(1.8197,0,0,0.36483,2096.7,602.231)">
            <rect x="-903.972" y="-133.751" width="824.313" height="1198.68" style="fill:none;"/>
            <g>
                <g transform="matrix(0.996176,0,0,4.96873,-605.004,-677.924)">
                    <path d="M76.107,262.112L71.978,262.112C71.776,262.106 71.576,262.088 71.379,262.059C71.163,262.028 70.949,261.988 70.737,261.94C68.163,261.347 66.115,259.05 65.945,256.339C65.941,256.276 65.941,256.214 65.939,256.151L65.939,204.051C66.049,200.839 68.61,198.016 71.809,197.835C71.865,197.832 71.921,197.832 71.978,197.83L76.107,197.83C79.27,197.963 81.938,200.727 82.146,204.088L82.146,212.551C83.869,209.44 85.61,206.346 87.359,203.263C87.359,203.263 87.915,202.291 87.915,202.291C88.196,201.686 88.235,201.638 88.4,201.361C89.823,198.967 92.597,197.57 95.483,197.919C95.483,197.919 100.045,197.908 100.045,197.908C100.311,197.897 100.315,197.9 100.612,197.91C104.31,198.137 107.431,202.623 104.881,206.216C104.881,206.216 104.902,206.198 104.902,206.198C103.856,208.234 102.754,210.24 101.609,212.221C101.609,212.221 96.917,220.623 93.849,226.223C92.864,228.032 91.829,230.024 91.829,230.024C94.159,236.95 99.277,243.525 103.901,251.746C104.767,253.302 106.853,257.26 104.628,260.102C102.161,263.252 95.944,262.709 92.709,261.813C89.784,261.002 88.08,258.007 86.726,255.477C86.726,255.477 84.399,251.405 82.224,247.52L82.224,250.269C82.165,252.535 82.568,254.35 81.986,257.153C81.44,259.784 79.078,261.908 76.32,262.105C76.25,262.11 76.178,262.11 76.107,262.112ZM240.827,262.268L236.704,262.268C233.536,262.157 230.752,259.678 230.567,256.48C230.564,256.422 230.564,256.365 230.562,256.307L230.562,204.087C230.762,200.879 233.229,198.103 236.517,197.84C237.993,197.721 239.482,197.796 240.963,197.834C244.206,198.086 247.05,200.906 247.081,204.244L247.081,256.463C247.059,257.11 246.991,257.233 246.91,257.533C246.272,259.881 243.684,261.652 243.684,261.652C242.779,262.047 241.809,262.256 240.827,262.268ZM184.869,262.034L180.766,262.034C177.713,261.965 174.85,259.461 174.654,256.256C174.651,256.195 174.651,256.134 174.649,256.073L174.649,202.821C174.856,200.068 176.997,197.793 179.965,197.809C180.141,197.813 180.428,197.83 180.428,197.83L185.106,197.83C188.11,197.628 191.059,199.407 192.537,202.314C194.42,206.986 196.323,211.658 198.245,216.32C198.245,216.32 198.263,203.93 198.263,203.93C198.533,200.814 201.076,198.062 204.323,197.837C204.392,197.832 204.461,197.832 204.53,197.83L208.582,197.83C211.747,197.904 214.733,200.226 214.854,203.791L214.854,241.986C214.806,246.63 214.78,251.274 214.777,255.919C214.777,255.919 214.216,261.91 209.104,262.033C206.629,262.053 204.549,262.701 201.298,261.703C197.719,260.604 196.253,256.24 194.596,252.336C193.627,250.049 192.66,247.761 191.695,245.472L191.012,243.848L191.007,255.926C190.751,259.029 188.318,261.734 184.869,262.034ZM292.754,214.427C292.723,215.765 292.712,217.104 292.709,218.442L292.709,256.463C292.651,257.876 292.908,257.075 291.886,258.985C291.681,259.369 290.159,261.034 290.159,261.034C289.39,261.718 289.484,261.557 288.597,261.876C287.728,262.172 286.301,262.19 286.301,262.19L282.245,262.187C279.119,261.968 276.292,259.652 276.19,256.229L276.19,214.427L268.814,214.422C265.743,214.162 263.09,211.767 262.789,208.284L262.789,204.103C262.858,200.981 265.457,198.067 268.776,197.837C268.845,197.832 268.914,197.832 268.983,197.83L299.916,197.83C299.987,197.833 300.058,197.835 300.129,197.838C300.464,197.873 300.797,197.928 301.122,198.005C303.817,198.639 305.98,201.046 306.181,203.89C306.186,203.961 306.186,204.032 306.189,204.103L306.189,208.154C306.181,208.378 306.159,208.599 306.123,208.818C306.087,209.045 306.041,209.27 305.986,209.493C305.326,212.151 302.968,214.255 300.09,214.422C300.032,214.425 299.974,214.425 299.916,214.427L292.754,214.427ZM155.941,241.854L124.93,241.854C122.305,241.767 120.083,239.548 120.06,236.84L120.06,230.124C120.19,227.71 122.051,225.663 124.442,225.296C124.442,225.296 124.713,225.262 124.93,225.257C135.315,225.257 145.702,225.013 156.084,225.26C158.61,225.441 160.823,227.444 160.889,230.205L160.889,236.828C160.832,239.26 158.939,241.427 156.431,241.815C156.431,241.815 156.16,241.849 155.941,241.854Z" style="fill:rgb(61,61,61);"/>
                </g>
                <g>
                    <g transform="matrix(0.996176,0,0,4.96873,-755.32,-5045.76)">
                        <path d="M163.23,1140.41C153.902,1152.44 139.312,1160.18 122.927,1160.18C106.542,1160.18 91.952,1152.44 82.624,1140.41L163.23,1140.41Z" style="fill:rgb(255,224,0);"/>
                    </g>
                    <g transform="matrix(0.996176,0,0,4.96873,-755.32,-5045.76)">
                        <path d="M173.903,1109.15L173.904,1109.21C173.904,1116 172.573,1122.48 170.158,1128.41L137.099,1128.41L117.841,1109.15L173.903,1109.15Z" style="fill:rgb(81,205,210);"/>
                    </g>
                    <g transform="matrix(0.996176,0,0,4.96873,-755.32,-5045.76)">
                        <path d="M71.951,1109.15L100.87,1109.15L120.129,1128.41L75.696,1128.41C73.281,1122.48 71.95,1116 71.95,1109.21L71.951,1109.15Z" style="fill:rgb(81,205,210);"/>
                    </g>
                    <g transform="matrix(0.996176,0,0,4.96873,-755.32,-5045.76)">
                        <path d="M149.367,1065.62C160.764,1072.56 169.233,1083.84 172.467,1097.15L117.841,1097.15L149.367,1065.62Z" style="fill:rgb(255,36,64);"/>
                    </g>
                    <g transform="matrix(0.996176,0,0,4.96873,-755.32,-5045.76)">
                        <path d="M73.387,1097.15C78.809,1074.83 98.945,1058.23 122.927,1058.23C128.039,1058.23 132.976,1058.99 137.633,1060.39L100.87,1097.15L73.387,1097.15Z" style="fill:rgb(255,36,64);"/>
                    </g>
                </g>
            </g>
        </g>
    </g>
</svg>
