<?xml version="1.0" encoding="UTF-8" standalone="no"?>
<!DOCTYPE svg PUBLIC "-//W3C//DTD SVG 1.1//EN" "http://www.w3.org/Graphics/SVG/1.1/DTD/svg11.dtd">
<svg width="100%" height="100%" viewBox="0 0 800 800" version="1.1" xmlns="http://www.w3.org/2000/svg" xmlns:xlink="http://www.w3.org/1999/xlink" xml:space="preserve" xmlns:serif="http://www.serif.com/" style="fill-rule:evenodd;clip-rule:evenodd;stroke-linejoin:round;stroke-miterlimit:1.41421;">
    <g id="Artboard1" transform="matrix(0.625,0,0,1,0,0)">
        <rect x="0" y="0" width="1280" height="800" style="fill:rgb(72,162,190);"/>
        <g transform="matrix(1.2997,0,0,0.81231,-3915.89,-490.683)">
            <path d="M3884.32,1232.96L3126.39,1232.96C3123.77,1232.77 3121.94,1230.02 3123.1,1227.43L3226.09,1036.53C3227.41,1034.45 3227.65,1034.28 3230.19,1034.65C3232.1,1035.21 3232.13,1035.65 3232.69,1036.53L3276.94,1118.56L3294.67,998.622C3295.28,995.903 3295.78,995.431 3298.66,995.431C3301.24,995.82 3301.56,996.256 3302.09,998.622L3319.82,1118.56L3364.07,1036.53C3365.39,1034.45 3365.64,1034.28 3368.17,1034.65C3370.09,1035.21 3370.11,1035.65 3370.67,1036.53L3409.93,1109.3L3430.65,922.757L3431.14,921.282L3432.18,920.131L3433.6,919.502L3435.16,919.502C3435.63,919.712 3436.1,919.921 3436.58,920.131L3437.62,921.282L3438.11,922.757L3459.51,1115.39L3502.06,1036.53C3503.38,1034.45 3503.62,1034.28 3506.16,1034.65C3508.07,1035.21 3508.1,1035.65 3508.66,1036.53L3550.33,1113.77L3569.33,968.162L3569.83,966.715L3570.87,965.59L3572.28,964.977L3573.81,964.977C3574.28,965.181 3574.75,965.386 3575.22,965.59L3576.26,966.715L3576.76,968.162L3596.27,1117.66L3640.04,1036.53C3641.36,1034.45 3641.61,1034.28 3644.14,1034.65C3646.06,1035.21 3646.08,1035.65 3646.64,1036.53L3696.36,1128.68L3710.69,1055.92C3711.37,1053.38 3711.84,1052.9 3714.62,1052.9C3717.07,1053.23 3717.45,1053.66 3718.05,1055.92L3731.3,1123.14L3778.02,1036.53C3779.35,1034.45 3779.59,1034.28 3782.12,1034.65C3783.08,1034.93 3783.66,1035.02 3784.62,1036.53L3887.62,1227.43C3888.69,1229.84 3887.14,1232.75 3884.32,1232.96ZM3597.93,1130.38L3610.26,1224.85L3610.59,1225.46L3676.1,1225.46L3677.97,1221.98L3694.08,1140.25L3643.34,1046.21L3597.93,1130.38ZM3460.96,1128.49L3471.51,1223.44L3472.6,1225.46L3535.75,1225.46L3548.67,1126.49L3505.36,1046.21L3460.96,1128.49ZM3321.65,1130.96L3335.62,1225.46L3397.02,1225.46L3408.47,1122.39L3367.37,1046.21L3321.65,1130.96ZM3733.58,1134.71L3751.45,1225.46L3878.03,1225.46L3781.33,1046.21L3733.58,1134.71ZM3275.11,1130.96L3229.39,1046.21C3197.15,1105.96 3164.91,1165.71 3132.68,1225.46L3261.14,1225.46L3275.11,1130.96ZM3270.66,1225.46L3326.1,1225.46L3298.38,1174.09L3270.66,1225.46ZM3408.65,1225.46L3464.08,1225.46L3436.36,1174.09L3408.65,1225.46ZM3546.63,1225.46L3602.06,1225.46L3574.35,1174.09L3546.63,1225.46ZM3740.05,1225.46L3712.33,1174.09L3685.11,1224.54L3684.93,1225.46L3740.05,1225.46ZM3405.72,1215.09L3432.1,1166.19L3414.73,1133.99L3405.72,1215.09ZM3544.97,1212.74L3570.09,1166.19L3554.76,1137.78L3544.97,1212.74ZM3716.59,1166.19L3741.07,1211.57L3727.98,1145.09L3716.59,1166.19ZM3271.21,1208.66L3294.12,1166.19L3281.06,1141.99L3271.21,1208.66ZM3302.64,1166.19L3325.55,1208.66L3315.7,1141.99L3302.64,1166.19ZM3578.61,1166.19L3600.28,1206.36L3591.84,1141.67L3578.61,1166.19ZM3440.62,1166.19L3462.01,1205.83L3454.7,1140.09L3440.62,1166.19ZM3690.02,1199.66L3708.07,1166.19L3699.68,1150.63L3690.02,1199.66ZM3416.19,1120.89L3436.36,1158.29L3453.25,1126.99L3434.38,957.133L3416.19,1120.89ZM3282.89,1129.59L3298.38,1158.29L3313.87,1129.59L3298.38,1024.82L3282.89,1129.59ZM3701.96,1139.06L3712.33,1158.29L3725.7,1133.52L3714.37,1076.05L3701.96,1139.06ZM3556.42,1125.06L3574.35,1158.29L3590.18,1128.95L3573.04,997.63L3556.42,1125.06ZM3392.49,978.746L3340.51,978.746C3338.69,978.68 3338.55,978.27 3338.02,977.799C3336.78,976.705 3336.3,975.185 3337.15,973.319L3363.14,921.319C3363.86,920.009 3365.21,919.198 3366.78,919.256C3368.08,919.401 3369.21,920.146 3369.85,921.319L3395.85,973.319C3396.6,974.978 3396.3,975.286 3396.11,975.971C3395.68,977.561 3394.54,978.671 3392.49,978.746Z" style="fill:white;fill-opacity:0.921733;"/>
        </g>
    </g>
</svg>
