<?xml version="1.0" encoding="UTF-8" standalone="no"?>
<!DOCTYPE svg PUBLIC "-//W3C//DTD SVG 1.1//EN" "http://www.w3.org/Graphics/SVG/1.1/DTD/svg11.dtd">
<svg width="100%" height="100%" viewBox="0 0 321 321" version="1.1" xmlns="http://www.w3.org/2000/svg" xmlns:xlink="http://www.w3.org/1999/xlink" xml:space="preserve" xmlns:serif="http://www.serif.com/" style="fill-rule:evenodd;clip-rule:evenodd;stroke-linejoin:round;stroke-miterlimit:2;">
    <g id="Artboard1" transform="matrix(1.60094,0,0,6.72689,0,0)">
        <rect x="0" y="0" width="200" height="47.6" style="fill:rgb(99,0,255);"/>
        <g transform="matrix(0.354058,0,0,0.0842627,-196.372,-69.2899)">
            <g transform="matrix(0.999999,0,0,1,506.869,853.046)">
                <g transform="matrix(0.0274626,0,0,0.0274626,128.489,179.721)">
                    <path d="M13797,1046C13656,1070 13642,1075 13626,1117C13555,1296 13492,1628 13508,1737C13523,1833 13554,1862 13627,1848C13654,1843 13681,1824 13725,1778C13779,1723 13786,1718 13786,1739C13786,1783 13738,1946 13629,2274C13494,2678 13462,2810 13454,2999C13448,3128 13450,3149 13472,3224C13523,3394 13619,3515 13752,3578C13817,3609 13834,3613 13944,3616C14092,3620 14163,3599 14233,3529C14331,3431 14395,3198 14395,2943C14396,2803 14391,2797 14329,2851C14310,2868 14282,2886 14268,2892C14232,2905 14186,2895 14186,2872C14186,2853 14246,2610 14333,2284C14469,1769 14521,1524 14521,1395C14522,1240 14425,1117 14260,1065C14204,1047 14158,1042 14023,1039C13930,1037 13829,1040 13797,1046Z" style="fill:rgb(0,255,168);fill-rule:nonzero;"/>
                </g>
                <g transform="matrix(0.0274626,0,0,0.0274626,128.489,195.814)">
                    <path d="M9147,1105C9050,1147 8943,1286 8867,1470C8843,1528 8818,1578 8811,1580C8802,1583 8799,1558 8799,1491C8799,1359 8779,1300 8712,1231C8625,1143 8571,1127 8358,1126C8249,1126 8165,1131 8132,1139L8080,1153L8083,1309C8088,1503 8074,1598 7985,1976C7873,2455 7847,2602 7858,2726C7870,2869 7938,2959 8063,2997C8109,3012 8160,3016 8295,3016C8390,3016 8486,3012 8508,3007L8547,2999L8547,2883C8547,2729 8578,2522 8643,2252C8679,2103 8701,2062 8788,1993C8884,1918 9021,1882 9121,1907C9149,1914 9194,1936 9221,1956C9249,1976 9275,1992 9280,1992C9292,1992 9369,1850 9395,1782C9456,1616 9474,1385 9434,1262C9390,1125 9263,1055 9147,1105Z" style="fill:rgb(0,255,168);fill-rule:nonzero;"/>
                </g>
                <g transform="matrix(0.0274626,0,0,0.0274626,128.489,197.956)">
                    <path d="M10241,1047C9904,1111 9661,1293 9511,1594C9395,1826 9345,2166 9396,2380C9469,2683 9715,2898 10056,2954C10095,2961 10194,2966 10275,2966C10619,2965 10839,2900 10984,2755C11058,2681 11090,2629 11122,2528C11143,2460 11160,2246 11145,2237C11139,2234 11081,2252 11014,2277C10856,2336 10723,2363 10512,2378C10336,2391 10165,2381 10097,2355L10068,2344L10071,2240C10073,2183 10078,2133 10081,2129C10085,2126 10105,2130 10125,2138C10287,2206 10686,2207 10883,2139C11058,2080 11160,1970 11214,1782C11244,1678 11249,1603 11231,1517C11209,1412 11170,1345 11078,1251C11014,1187 10980,1162 10899,1123C10844,1096 10771,1066 10736,1057C10650,1034 10345,1027 10241,1047ZM10578,1637C10590,1642 10594,1658 10594,1702C10594,1806 10539,1864 10427,1878C10369,1886 10158,1869 10145,1857C10141,1853 10152,1824 10168,1792C10202,1728 10266,1670 10328,1647C10369,1632 10546,1625 10578,1637Z" style="fill:rgb(0,255,168);fill-rule:nonzero;"/>
                </g>
                <g transform="matrix(0.0274626,0,0,0.0274626,128.489,197.956)">
                    <path d="M12257,1047C11920,1111 11677,1293 11527,1594C11411,1826 11361,2166 11412,2380C11485,2683 11731,2898 12072,2954C12111,2961 12210,2966 12291,2966C12635,2965 12855,2900 13000,2755C13074,2681 13106,2629 13138,2528C13159,2460 13176,2246 13161,2237C13155,2234 13097,2252 13030,2277C12872,2336 12739,2363 12528,2378C12352,2391 12181,2381 12113,2355L12084,2344L12087,2240C12089,2183 12094,2133 12097,2129C12101,2126 12121,2130 12141,2138C12303,2206 12702,2207 12899,2139C13074,2080 13176,1970 13230,1782C13260,1678 13265,1603 13247,1517C13225,1412 13186,1345 13094,1251C13030,1187 12996,1162 12915,1123C12860,1096 12787,1066 12752,1057C12666,1034 12361,1027 12257,1047ZM12594,1637C12606,1642 12610,1658 12610,1702C12610,1806 12555,1864 12443,1878C12385,1886 12174,1869 12161,1857C12157,1853 12168,1824 12184,1792C12218,1728 12282,1670 12344,1647C12385,1632 12562,1625 12594,1637Z" style="fill:rgb(0,255,168);fill-rule:nonzero;"/>
                </g>
            </g>
            <g transform="matrix(0.999999,0,0,1,506.869,853.046)">
                <g transform="matrix(0.0274626,0,0,0.0274626,128.489,185.324)">
                    <path d="M238,1059C195,1145 163,1313 170,1425C177,1565 252,1663 383,1708C413,1718 484,1728 549,1731L662,1736L662,1770C662,1823 624,2011 556,2306C438,2811 419,2918 418,3062C417,3249 494,3352 668,3397C768,3423 968,3418 1124,3387L1150,3382L1146,3248C1141,3050 1173,2849 1280,2418C1383,2004 1395,1886 1345,1801C1332,1779 1324,1756 1327,1748C1332,1737 1395,1733 1640,1731L1948,1728L1981,1661C2052,1516 2070,1255 2016,1156C1983,1097 1921,1054 1849,1041C1814,1034 1495,1030 1023,1030L253,1030L238,1059Z" style="fill:white;fill-rule:nonzero;"/>
                </g>
                <g transform="matrix(0.0274626,0,0,0.0274626,128.489,214.928)">
                    <path d="M5280,425C5191,440 5106,494 4998,604C4943,659 4879,736 4856,775C4798,871 4781,868 4776,758C4766,577 4679,474 4503,435C4434,420 4154,426 4094,445L4056,456L4061,600C4070,845 4018,1155 3870,1740C3734,2278 3713,2389 3719,2556C3723,2675 3727,2694 3756,2755C3819,2893 3933,2962 4111,2973C4203,2978 4398,2961 4412,2947C4416,2943 4424,2865 4430,2774C4442,2599 4448,2550 4490,2299C4525,2091 4536,2041 4547,2041C4552,2041 4569,2064 4585,2091C4630,2171 4678,2225 4738,2264C4815,2315 4883,2335 4976,2335C5138,2336 5270,2282 5393,2165C5579,1989 5686,1739 5781,1259C5842,951 5819,774 5698,600C5605,466 5440,397 5280,425ZM5058,1111C5062,1115 5057,1169 5046,1231C4995,1540 4933,1684 4832,1729C4793,1746 4771,1749 4711,1744C4610,1736 4606,1729 4629,1632C4651,1542 4675,1440 4699,1329C4715,1258 4721,1247 4781,1187C4818,1150 4862,1116 4883,1109C4919,1097 5046,1099 5058,1111Z" style="fill:white;fill-rule:nonzero;"/>
                </g>
                <g transform="matrix(0.0274626,0,0,0.0274626,128.489,198.561)">
                    <path d="M6778,1026C6451,1086 6197,1275 6053,1565C5945,1783 5887,2109 5922,2297C5950,2449 6002,2560 6092,2665C6279,2880 6542,2966 6934,2941C7131,2928 7249,2901 7367,2842C7584,2736 7686,2562 7686,2302C7686,2250 7684,2207 7683,2207C7681,2207 7628,2226 7566,2250C7354,2329 7195,2357 6930,2358C6822,2359 6730,2354 6686,2345C6618,2331 6615,2330 6609,2294C6605,2274 6606,2224 6611,2182C6621,2097 6614,2100 6725,2133C6825,2163 6994,2175 7152,2164C7520,2138 7692,2015 7761,1726C7811,1518 7748,1329 7583,1193C7504,1128 7376,1062 7277,1036C7182,1011 6893,1005 6778,1026ZM7118,1615C7141,1622 7142,1625 7135,1685C7131,1720 7121,1762 7113,1778C7078,1845 6957,1872 6783,1851C6729,1844 6682,1837 6680,1835C6672,1827 6723,1742 6759,1702C6797,1660 6837,1634 6888,1618C6920,1608 7084,1606 7118,1615Z" style="fill:white;fill-rule:nonzero;"/>
                </g>
                <g transform="matrix(0.0274626,0,0,0.0274626,128.489,215.368)">
                    <path d="M2121,421C2084,426 2052,432 2050,434C2047,437 2051,472 2057,512C2079,651 2068,808 2022,1012C2005,1092 1995,1125 1938,1319C1840,1651 1840,1789 1939,1954C2026,2099 2191,2187 2342,2166C2500,2145 2729,2009 2840,1870C2869,1834 2894,1809 2896,1815C2901,1830 2850,2022 2817,2114C2790,2188 2747,2267 2732,2267C2728,2267 2696,2272 2662,2278C2576,2293 2290,2292 2200,2277C2098,2261 1981,2229 1904,2197C1868,2182 1832,2173 1823,2176C1794,2187 1740,2326 1716,2452C1678,2653 1737,2797 1890,2880C1987,2933 2104,2953 2331,2954C2552,2955 2635,2945 2774,2901C3093,2801 3347,2576 3459,2294C3540,2091 3686,1532 3750,1181C3781,1010 3812,770 3811,704C3811,562 3706,459 3532,429C3451,414 3194,421 3147,439C3120,449 3119,453 3119,519C3119,645 3081,940 3028,1236L3000,1386L2957,1422C2890,1480 2809,1514 2725,1519C2650,1524 2562,1508 2562,1490C2562,1484 2585,1438 2614,1388C2762,1127 2829,824 2777,653C2744,542 2650,457 2527,426C2450,407 2239,404 2121,421Z" style="fill:white;fill-rule:nonzero;"/>
                </g>
            </g>
        </g>
    </g>
</svg>
