<?xml version="1.0" encoding="UTF-8" standalone="no"?><!DOCTYPE svg PUBLIC "-//W3C//DTD SVG 1.1//EN" "http://www.w3.org/Graphics/SVG/1.1/DTD/svg11.dtd"><svg width="100%" height="100%" viewBox="0 0 1200 357" version="1.1" xmlns="http://www.w3.org/2000/svg" xmlns:xlink="http://www.w3.org/1999/xlink" xml:space="preserve" xmlns:serif="http://www.serif.com/" style="fill-rule:evenodd;clip-rule:evenodd;stroke-linejoin:round;stroke-miterlimit:2;"><rect id="Artboard1" x="0" y="0" width="1200" height="357" style="fill:#1f2b6c;"/><path d="M639.2,261.726c-3.367,0 -5.805,-1.03 -7.313,-3.09c-1.507,-2.061 -2.261,-4.976 -2.261,-8.745l0,-42.064l10.252,0l0,42.516c0,1.056 0.201,1.822 0.603,2.3c0.402,0.477 0.855,0.716 1.357,0.716c0.503,0 0.955,-0.05 1.357,-0.151l1.282,7.689c-1.458,0.553 -3.217,0.829 -5.277,0.829Zm18.996,-16.584c0.503,2.965 1.722,5.151 3.657,6.558c1.934,1.408 4.183,2.111 6.746,2.111c2.664,0 5.428,-0.829 8.293,-2.488l3.392,6.257c-1.86,1.307 -3.933,2.325 -6.219,3.053c-2.287,0.729 -4.561,1.093 -6.823,1.093c-3.517,0 -6.696,-0.779 -9.536,-2.336c-2.839,-1.558 -5.075,-3.82 -6.709,-6.785c-1.633,-2.965 -2.45,-6.433 -2.45,-10.403c0,-3.92 0.817,-7.362 2.45,-10.328c1.634,-2.965 3.782,-5.251 6.446,-6.859c2.663,-1.609 5.503,-2.413 8.518,-2.413c5.076,0 8.971,1.646 11.684,4.938c2.714,3.292 4.071,7.601 4.071,12.928c0,1.91 -0.151,3.468 -0.452,4.674l-23.068,0Zm-111.718,16.584c-3.217,0 -6.194,-0.779 -8.933,-2.336c-2.739,-1.558 -4.938,-3.82 -6.596,-6.785c-1.659,-2.965 -2.488,-6.433 -2.488,-10.403c0,-4.02 0.829,-7.513 2.488,-10.478c1.658,-2.965 3.857,-5.227 6.596,-6.785c2.739,-1.558 5.716,-2.337 8.933,-2.337c3.166,0 6.131,0.779 8.895,2.337c2.764,1.558 4.975,3.832 6.634,6.822c1.658,2.991 2.487,6.471 2.487,10.441c0,3.97 -0.829,7.438 -2.487,10.403c-1.659,2.965 -3.87,5.227 -6.634,6.785c-2.764,1.557 -5.729,2.336 -8.895,2.336Zm-42.517,-0.904l-17.866,0l0,-49.226l16.509,0c11.961,0 17.942,4.071 17.942,12.212c0,2.312 -0.603,4.473 -1.809,6.483c-1.207,2.011 -2.815,3.393 -4.825,4.146l0,0.302c2.764,0.704 4.975,2.023 6.634,3.958c1.658,1.935 2.487,4.485 2.487,7.651c0,4.774 -1.759,8.38 -5.276,10.818c-3.518,2.437 -8.117,3.656 -13.796,3.656Zm195.847,0l-10.252,0l0,-37.315l8.368,0l0.753,6.558l0.302,0c1.307,-2.412 2.902,-4.259 4.787,-5.54c1.884,-1.282 3.807,-1.923 5.767,-1.923c1.759,0 3.216,0.252 4.372,0.754l-1.734,8.895c-0.151,-0.05 -0.603,-0.163 -1.357,-0.339c-0.754,-0.176 -1.608,-0.264 -2.563,-0.264c-1.608,0 -3.166,0.578 -4.674,1.734c-1.507,1.156 -2.764,2.965 -3.769,5.428l0,22.012Zm-109.985,0l-11.835,0l-9.498,-37.315l10.252,0l3.92,17.941c0.05,0.251 0.427,2.563 1.131,6.935c0.1,0.905 0.301,2.262 0.603,4.071l0.301,0c0.855,-4.875 1.608,-8.543 2.262,-11.006l4.372,-17.941l9.046,0l4.448,17.941c0.804,3.418 1.482,6.584 2.035,9.499l0.302,1.507l0.301,0l0.905,-5.352c0.1,-0.603 0.213,-1.382 0.339,-2.337c0.126,-0.955 0.314,-2.06 0.565,-3.317l3.845,-17.941l9.574,0l-9.122,37.315l-12.061,0l-3.769,-15.755c-0.955,-4.976 -1.634,-8.594 -2.036,-10.856l-0.301,0c-0.804,4.775 -1.483,8.418 -2.036,10.931l-3.543,15.68Zm-43.345,-7.463c2.362,0 4.196,-0.993 5.503,-2.978c1.306,-1.985 1.96,-4.711 1.96,-8.179c0,-3.468 -0.654,-6.207 -1.96,-8.217c-1.307,-2.01 -3.141,-3.015 -5.503,-3.015c-2.413,0 -4.259,1.005 -5.541,3.015c-1.282,2.01 -1.922,4.749 -1.922,8.217c0,3.468 0.64,6.194 1.922,8.179c1.282,1.985 3.128,2.978 5.541,2.978Zm-43.421,-14.172l-6.634,0l0,13.644l6.634,0c6.583,0 9.875,-2.387 9.875,-7.161c0,-2.262 -0.817,-3.908 -2.45,-4.938c-1.633,-1.03 -4.108,-1.545 -7.425,-1.545Zm169.839,-0.905c0,-2.412 -0.553,-4.309 -1.658,-5.691c-1.106,-1.382 -2.789,-2.073 -5.051,-2.073c-1.859,0 -3.505,0.64 -4.938,1.922c-1.432,1.281 -2.399,3.229 -2.902,5.842l14.549,0Zm-170.819,-18.695l-5.654,0l0,11.911l5.578,0c2.865,0 4.988,-0.541 6.37,-1.621c1.382,-1.081 2.073,-2.601 2.073,-4.561c0,-2.01 -0.678,-3.468 -2.035,-4.372c-1.357,-0.905 -3.468,-1.357 -6.332,-1.357Z" style="fill:#fff;fill-rule:nonzero;"/><path d="M543.524,140.173c-0.012,-0.467 -0.017,-0.936 -0.017,-1.406c0,-31.18 25.313,-56.493 56.493,-56.493c31.18,0 56.494,25.313 56.494,56.493c0,0.47 -0.006,0.939 -0.018,1.406c4.902,-0.769 8.301,-1.069 10.803,0.441c8.217,4.962 21.264,31.899 -67.279,31.022l-0.517,0.005c-87.975,0.767 -74.963,-26.075 -66.762,-31.027c2.502,-1.51 5.902,-1.21 10.803,-0.441Zm0.008,-0.059c0.316,-0.042 0.476,-0.004 0.66,0.001c1.917,0.249 3.815,0.644 5.731,0.937c30.206,4.605 61.487,4.604 91.317,1.174c4.493,-0.516 8.971,-1.145 13.434,-1.93l0.684,-0.123l0.45,-0.058l0.661,0.004c-0.07,3.212 -0.412,6.359 -1.041,9.424c-24.46,4.247 -49.2,4.807 -73.849,3.717c-12.395,-0.547 -24.82,-1.615 -37.007,-3.722c-0.624,-3.056 -0.972,-6.199 -1.04,-9.424Z" style="fill:#ffe6fb;"/></svg>