<?xml version="1.0" encoding="UTF-8" standalone="no"?>
<!DOCTYPE svg PUBLIC "-//W3C//DTD SVG 1.1//EN" "http://www.w3.org/Graphics/SVG/1.1/DTD/svg11.dtd">
<svg width="100%" height="100%" viewBox="0 0 1461 1038" version="1.1" xmlns="http://www.w3.org/2000/svg" xmlns:xlink="http://www.w3.org/1999/xlink" xml:space="preserve" xmlns:serif="http://www.serif.com/" style="fill-rule:evenodd;clip-rule:evenodd;stroke-linejoin:round;stroke-miterlimit:2;">
    <g transform="matrix(1,0,0,1,-1406,-1140)">
        <g id="Mandeville-006" transform="matrix(7.94297e-17,-1.29719,1.14141,6.9891e-17,1406,2177.84)">
            <rect x="0" y="0" width="800" height="1280" style="fill:url(#_Linear1);"/>
            <g transform="matrix(4.7204e-17,0.876112,-0.7709,5.36464e-17,1670.42,-1223.93)">
                <path d="M2241.49,1718.11C2323.28,1718.18 2404.23,1721.63 2485.93,1728.03C2492.68,1728.56 2497.94,1732.96 2497.47,1738.97C2497.14,1743.22 2493.86,1746.94 2489.84,1747.91C2486.23,1748.78 2483.04,1747.87 2479.69,1747.61C2305.7,1734.27 2131.66,1733.91 1959.18,1753.08C1949.81,1754.12 1940.44,1755.22 1931.08,1756.38L1927.95,1756.27C1925.38,1755.34 1924.48,1755.35 1922.54,1753.28C1919.02,1749.51 1919.12,1742.79 1923.03,1739.14C1924.86,1737.43 1926.24,1737.06 1928.63,1736.53C1928.65,1736.52 1932.64,1736.04 1932.66,1736.03C2032.66,1723.83 2133.06,1718.41 2232.65,1718.11C2235.59,1718.11 2238.54,1718.11 2241.49,1718.11ZM1984.98,1608.44L1988.76,1599.13C1990.08,1596.94 1990.23,1596.11 1992.49,1594.7C1997.42,1591.62 2005.09,1594.47 2006.56,1600.4C2007.2,1602.99 2006.73,1603.69 2006.15,1606.18L1998.25,1625.66C2007.42,1615.96 2016.4,1605.9 2026.05,1596.94C2029.08,1594.13 2033.63,1592.47 2036.37,1593.73C2038.93,1594.91 2038.95,1594.92 2041.04,1596.81C2042.24,1597.9 2042.57,1599.58 2043,1601.03C2043,1601.03 2043.16,1602.39 2043.16,1602.39C2043.2,1603.5 2043.17,1603.57 2043.14,1603.99C2042.83,1608.25 2041.27,1612.35 2039.87,1616.49C2037.37,1623.92 2034.59,1631.25 2031.86,1638.58L2031.75,1638.86C2044.94,1625.39 2057.14,1611.28 2070.83,1597.75C2074,1594.63 2078.61,1592.05 2082.26,1593.53C2084.15,1594.3 2085.91,1595.57 2087.37,1597.22C2088.33,1598.3 2088.84,1600.61 2088.84,1600.61L2089.03,1602.08C2089.33,1614.43 2086.34,1626.52 2084.7,1638.96L2084.68,1639.19C2085.07,1638.64 2085.47,1638.1 2085.87,1637.55C2086.23,1637.07 2086.59,1636.59 2086.95,1636.1C2099.7,1619.1 2117.26,1602.86 2129.77,1597.23C2141.13,1592.13 2155.45,1591.47 2164.22,1599.68C2174.29,1578.02 2186.72,1556.94 2202.45,1539.12C2207.87,1532.97 2213.76,1525.91 2222.3,1526.69C2227.17,1527.13 2231.38,1531.16 2232.18,1536.1C2233.57,1544.64 2228.39,1553.25 2224.28,1561.29C2209.45,1590.26 2190.54,1617.35 2170.06,1642.24C2170.06,1642.24 2168.15,1652.3 2172.3,1656.33C2175.99,1659.92 2181.82,1659.05 2186.17,1658.12C2190.54,1657.18 2194.71,1655.43 2198.71,1653.38C2198.71,1653.38 2198.37,1650.93 2198.26,1648.84C2197.62,1636.98 2200.91,1624.88 2206.84,1614.8C2214.26,1602.18 2227.75,1591.85 2243.74,1593.52C2251.81,1594.36 2259.41,1599.97 2259.82,1609.31C2260.29,1620.2 2253.13,1630.09 2245.81,1638.81C2239.81,1645.95 2233.01,1652.37 2225.66,1658.14L2225.36,1658.38C2239.41,1657.56 2251.7,1646.74 2262.55,1635.32C2273.33,1623.98 2282.75,1611.21 2290.61,1597.95L2292.55,1595.42C2294.88,1593.82 2297.47,1592.62 2300.19,1592.99C2301.99,1593.23 2303.59,1594.24 2305.14,1595.25C2305.73,1595.94 2306.43,1596.57 2306.92,1597.35C2308.23,1599.46 2308.05,1600.21 2308.32,1602.61L2307.04,1640.29L2342.1,1596.38L2344.15,1594.48C2346.66,1593.28 2346.68,1593.27 2349.44,1592.86L2387.95,1592.87C2390.28,1593.2 2391.01,1593.05 2393.04,1594.37C2396.74,1596.76 2398.37,1602.1 2396.46,1606.21C2395.57,1608.11 2394.03,1609.55 2392.67,1611.15C2383.01,1622.56 2373.64,1634.47 2367.24,1647.69C2365.57,1651.15 2363.8,1654.82 2363.84,1658.42C2363.84,1658.42 2368.4,1659.05 2372.24,1657.81C2384.91,1653.69 2395.32,1643.97 2405.45,1634.26C2408.22,1631.6 2410.93,1628.89 2413.57,1626.11C2419.17,1604.43 2429.2,1583.26 2442.79,1565.45C2450.07,1555.91 2459.53,1545.93 2470.34,1546.84C2475.24,1547.25 2479.58,1551.16 2480.53,1556.04C2482,1563.55 2477.54,1571.25 2473.62,1578.24C2462.01,1598.97 2446.85,1617.81 2430.68,1635.32C2429.22,1642.23 2428.04,1649.76 2430.15,1655.86C2430.94,1658.12 2432.82,1660.21 2435.89,1659.68C2443.22,1658.42 2449.2,1652.87 2454.69,1647.97C2463.82,1639.82 2471.87,1630.51 2479.48,1621.05C2481.18,1618.93 2481.5,1616.24 2482.38,1613.71C2489.93,1592.01 2500.04,1569.52 2517.66,1556.04C2521.64,1552.98 2526.28,1550.59 2531.29,1549.93L2532.63,1549.85C2535.71,1549.89 2540.78,1552.33 2541.62,1556.87C2542.09,1559.42 2542.01,1560.04 2541.68,1561.5C2540.67,1565.79 2537.83,1569.48 2535.44,1573.44C2523.89,1592.61 2511.15,1611.09 2497.34,1628.73L2497.28,1628.81C2494.62,1638.19 2492.17,1648.12 2493.77,1657.45C2494.1,1659.41 2494.12,1661.99 2496.81,1661.93C2504.51,1661.76 2512.01,1658.29 2518.86,1654.54C2518.86,1654.54 2518.65,1651.8 2518.61,1649.53C2518.41,1635.54 2523.68,1621.44 2532.43,1610.8C2539.36,1602.37 2549.38,1595.99 2560.96,1596.29C2568.14,1596.47 2576.06,1599.57 2578.86,1606.99C2581.3,1613.43 2578.93,1621.01 2575.68,1626.92C2568.24,1640.41 2556.37,1651.24 2543.9,1660.61C2544.05,1660.63 2544.19,1660.66 2544.34,1660.68C2556.32,1662.31 2567.07,1650.83 2573.04,1642.67L2573.07,1642.64C2574.88,1640.82 2575.22,1640.05 2577.75,1639.21C2583.27,1637.4 2590.04,1641.98 2590.06,1648.1C2590.07,1650.96 2589.74,1651.67 2587.92,1654.12C2577.52,1667.99 2563.08,1680 2545.4,1679.56C2538.45,1679.39 2531.57,1676.83 2526.66,1671.77C2526.66,1671.77 2521.89,1674.16 2517.97,1675.79C2507.1,1680.3 2494.02,1684.91 2483.45,1676.2C2477.47,1671.29 2475.06,1662.99 2474.68,1654.95C2474.68,1654.95 2469.85,1659.67 2465.76,1663.22C2455.3,1672.28 2443.12,1681.34 2429.14,1677.92C2419.17,1675.48 2412.27,1665.68 2410.79,1654.99C2410.79,1654.99 2409.55,1655.91 2408.18,1657.07C2395.51,1667.74 2380.98,1678.28 2365.14,1677.48C2357.26,1677.08 2348.82,1673.06 2346.09,1664.92C2342.82,1655.14 2347.7,1644 2352.96,1634.51C2357.35,1626.57 2362.57,1619.12 2368.05,1611.86L2368.23,1611.63L2353.95,1611.62L2304.03,1674.12C2302.14,1675.85 2301.76,1676.6 2299.21,1677.31C2295.47,1678.35 2291.11,1676.79 2288.91,1673.5C2287.43,1671.3 2287.63,1670.49 2287.32,1667.95L2288.47,1633.96C2288.12,1634.41 2287.77,1634.85 2287.42,1635.3C2275.39,1650.26 2261.98,1664.37 2244.62,1672.33C2233.28,1677.54 2219.28,1681.25 2208.08,1671.72C2207.47,1671.2 2206.66,1670.4 2206.66,1670.4C2206.28,1670.59 2205.89,1670.78 2205.51,1670.97C2193.07,1677 2178.43,1680.53 2165.74,1674.34C2160.18,1671.63 2155.76,1666.84 2153.38,1661.01C2153.38,1661.01 2148.08,1666.06 2143.55,1669.65C2136.98,1674.86 2129.5,1679.1 2120.84,1678.29C2112.79,1677.54 2105.1,1672.81 2102.04,1665.29C2099.97,1660.19 2099.92,1654.47 2100.82,1649L2100.84,1648.88C2095.51,1656.11 2090.61,1663.62 2085.83,1671.29C2085.83,1671.29 2078.01,1683.05 2069.1,1677.15C2062.98,1673.11 2063.4,1663.52 2064.01,1655.55C2064.66,1646.96 2065.83,1638.4 2066.99,1629.84L2067.12,1628.93C2053.75,1643.19 2040.75,1657.8 2026.08,1670.36C2021.14,1674.6 2015.4,1679.46 2008.95,1677.01C2005.5,1675.7 2002.62,1671.51 2002.79,1667.12C2003.04,1660.78 2005.95,1654.68 2008.22,1648.39C2009.31,1645.37 2010.42,1642.36 2011.54,1639.34L2011.8,1638.64C2000.57,1650.53 1989.38,1662.45 1978.22,1674.41L1977.52,1675.16C1975.53,1676.72 1975.11,1677.42 1972.55,1677.95C1967.89,1678.91 1962.66,1675.71 1961.52,1670.92C1960.92,1668.37 1961.38,1667.69 1961.96,1665.24L1963.07,1662.51C1961.18,1664.6 1959.25,1666.62 1957.25,1668.56C1950.76,1674.87 1943.32,1680.35 1933.33,1679.42C1923.23,1678.48 1914.29,1670.75 1912.97,1660.32C1912.64,1657.67 1912.63,1655.03 1912.88,1652.4C1909.8,1656.07 1906.77,1659.76 1903.74,1663.44C1884.75,1686.55 1866.54,1710.28 1850.44,1735.62L1848.62,1737.72C1846.55,1739.02 1846.07,1739.64 1843.56,1739.91C1839.9,1740.32 1835.99,1738.3 1834.24,1734.99C1832.72,1732.13 1832.93,1731.12 1833.53,1726.96C1835.17,1715.39 1838.48,1704.1 1841.76,1692.83C1851.33,1659.85 1862.9,1627.52 1871.62,1594.38L1871.7,1594.06C1843.74,1623.37 1819.59,1656.35 1797.5,1689.77C1794.84,1693.78 1792.17,1697.78 1789.45,1701.75C1787.36,1705.39 1787.01,1710.1 1782.75,1712.41C1779.27,1714.3 1775.24,1714.15 1771.67,1711.66C1771.63,1711.63 1769.85,1709.74 1769.01,1708.05C1769.01,1708.05 1768.15,1704.98 1768.38,1702.07C1770.27,1678.63 1777.63,1655.77 1786.93,1633.92C1766.11,1660.11 1745.85,1687.48 1720.04,1709.44C1710.83,1717.27 1700.33,1725.44 1688.67,1724.07C1681.54,1723.23 1675.27,1717.91 1672.72,1710.9C1668.33,1698.84 1672.65,1685.1 1677.23,1674.66L1678.81,1672.18C1680.8,1670.56 1681.22,1669.83 1683.82,1669.26C1688.51,1668.23 1693.92,1671.54 1694.99,1676.42C1695.6,1679.21 1695.35,1679.94 1694.18,1682.75C1691.62,1688.96 1689.4,1695.62 1689.9,1702.12C1690.02,1703.53 1690.36,1705.5 1691.22,1705.42C1693.75,1705.14 1696.12,1703.66 1698.39,1702.25C1709.27,1695.48 1718.24,1685.91 1727.06,1676.34C1736.91,1665.65 1746.07,1654.36 1755.23,1643.07C1770.49,1624.37 1785.7,1605.36 1799.79,1585.31C1800.12,1584.85 1800.44,1584.39 1800.77,1583.93C1806.58,1575.75 1812.97,1567.79 1820.64,1561.4C1822.69,1559.68 1825.09,1558.26 1827.73,1557.94C1829.03,1557.79 1829.15,1557.88 1829.5,1557.89C1830.24,1557.95 1829.93,1557.83 1831.27,1558.15C1831.96,1558.31 1832.63,1558.55 1833.27,1558.86C1838.93,1561.6 1839.66,1569.59 1837.92,1576.54C1834.7,1589.43 1824.49,1599.75 1818.28,1611.66C1811.33,1625.1 1804.87,1638.81 1799.45,1653.01L1799.29,1653.45C1799.63,1652.96 1799.97,1652.48 1800.31,1651.99C1820.04,1624.07 1841.59,1597.33 1866.02,1573.04C1867.21,1571.85 1868.54,1570.62 1868.64,1570.54C1869.08,1570.15 1869.53,1569.77 1869.98,1569.38C1874.31,1565.67 1878.39,1560.53 1883.16,1559.38C1883.7,1559.25 1884.77,1558.93 1885.4,1558.96C1887.54,1559.03 1887.54,1559.1 1889.61,1559.65C1889.61,1559.65 1891.45,1560.66 1891.45,1560.66C1894.67,1563.02 1894.53,1563.86 1895.06,1565.17C1896.04,1567.58 1896.01,1570.34 1895.1,1572.79C1893.81,1586.21 1889.89,1599.26 1886.12,1612.33C1879.3,1636.01 1871.52,1659.45 1864.3,1682.96L1864.05,1683.77C1864.45,1683.24 1864.85,1682.7 1865.25,1682.17C1884.81,1656.14 1904.4,1630.4 1928.8,1609.09C1938.71,1600.44 1949.97,1591.09 1962.6,1593.53L1965.36,1594.53C1965.46,1594.61 1965.56,1594.68 1965.65,1594.75C1971.91,1597.4 1977.08,1603.28 1980.27,1609.54C1980.27,1609.54 1980.13,1609.91 1981.46,1609.26C1982.57,1608.71 1983.77,1608.45 1984.98,1608.44ZM1958.68,1612.04C1955.76,1612.08 1952.61,1616.29 1949.97,1619.41C1941.56,1629.34 1934.05,1640.99 1931.88,1652.82C1931.13,1656.92 1930.91,1660.6 1935.85,1660.79C1939.22,1660.92 1942.37,1657.03 1945.94,1653.33C1953.64,1645.33 1960.23,1636.29 1966.88,1627.33C1966.88,1627.33 1965.1,1620.69 1962.79,1616.64C1961.75,1614.84 1960.59,1612.74 1958.84,1612.08C1958.79,1612.06 1958.73,1612.04 1958.68,1612.04ZM2143.86,1613.48C2143.03,1613.49 2141.8,1613.64 2141.8,1613.64C2130.73,1623.5 2122.24,1638.18 2119.56,1650.85C2118.8,1654.47 2116.78,1659.44 2123.46,1659.66C2126.39,1659.76 2129.36,1657.01 2132.5,1654.46C2139.79,1648.53 2146.12,1641.46 2152.25,1634.29C2153.15,1629.63 2154.41,1625.06 2155.88,1620.56L2155.97,1620.27C2155.71,1619.92 2155.43,1619.59 2155.15,1619.26C2152.32,1615.97 2148.32,1613.46 2143.86,1613.48ZM2559.93,1615.04C2553.03,1615.1 2547.78,1620.97 2544.47,1626.08C2541.53,1630.62 2539.46,1635.71 2538.28,1641L2538.24,1641.17C2547.14,1633.74 2556.4,1625.69 2560.57,1615.08C2560.57,1615.08 2560.18,1615.04 2559.93,1615.04ZM2240.23,1612.12C2232.03,1612.24 2225.44,1619.59 2222.08,1626C2221.49,1627.11 2220.96,1628.25 2220.47,1629.41C2218.95,1633.03 2217.91,1636.84 2217.35,1640.73C2217.58,1640.54 2217.81,1640.34 2218.04,1640.14C2226.62,1632.8 2234.91,1624.66 2239.66,1614.59C2240.2,1613.43 2241.15,1612.11 2240.23,1612.12ZM2412.83,1553.59C2419.47,1553.84 2424.54,1562.03 2420.31,1568.31L2410.82,1582.04C2407.52,1586.69 2399.98,1587.33 2396.08,1582.91C2393.33,1579.81 2393.01,1574.89 2395.39,1571.36L2404.88,1557.64C2406.6,1555.21 2409.39,1553.7 2412.38,1553.59C2412.61,1553.59 2412.6,1553.59 2412.83,1553.59Z" style="fill:rgb(111,111,111);"/>
            </g>
            <g transform="matrix(4.7204e-17,0.876112,-0.7709,5.36464e-17,1678.9,-1231.81)">
                <path d="M2243.41,1713.36C2321.96,1713.51 2399.94,1716.71 2478.64,1722.7C2483.14,1723.05 2487.76,1722.98 2491.89,1724.51C2498.66,1727.01 2503.71,1734.24 2501.82,1741.7C2499.97,1748.99 2492.64,1753.78 2483.88,1752.88C2468.8,1751.33 2453.69,1750.44 2438.6,1749.46C2278.98,1739.12 2118.59,1740.15 1959.7,1757.8C1950.35,1758.84 1941,1759.94 1931.65,1761.09C1931.65,1761.09 1927.1,1761 1924.56,1760.13C1921.49,1759.05 1918.86,1756.86 1917.21,1754C1912.75,1746.24 1916.49,1734.6 1926.44,1732.16C1932.06,1730.78 1937.99,1730.6 1943.83,1729.92C2039.84,1718.71 2135.82,1713.62 2232.63,1713.36C2236.23,1713.36 2239.82,1713.35 2243.41,1713.36ZM2243.3,1733.33C2319.51,1733.46 2396.28,1736.64 2471.88,1742.25C2476.21,1742.58 2480.54,1742.97 2484.84,1743.42C2487.08,1743.64 2489.48,1743.52 2491.11,1741.92C2492.71,1740.35 2493.34,1737.59 2491.88,1735.68C2489.42,1732.45 2484.53,1732.68 2479.83,1732.32C2306.84,1719.11 2132.19,1718.63 1958.97,1737.76C1949.26,1738.83 1939.56,1739.97 1929.84,1741.16C1929.84,1741.16 1925.73,1741.89 1924.93,1744.95C1924.32,1747.3 1925.11,1750.23 1927.54,1751.11C1928.07,1751.29 1928.84,1751.55 1928.84,1751.55L1930.87,1751.62C1933.09,1751.35 1935.31,1751.08 1937.53,1750.81C2037.76,1738.76 2138.22,1733.37 2239.22,1733.33C2240.58,1733.33 2241.94,1733.33 2243.3,1733.33ZM2240.83,1588.59C2254.2,1588.81 2266.97,1599.1 2264.15,1615.4C2262.52,1624.82 2256.83,1632.86 2250.85,1640.17L2250.79,1640.25C2264.93,1627.43 2276.75,1611.97 2286.53,1595.52L2286.84,1595.06C2288.35,1593.09 2288.22,1592.98 2289.88,1591.49C2293.25,1588.47 2300.08,1586.87 2305.69,1590.01C2306.38,1590.4 2307.05,1590.82 2307.72,1591.26L2308.74,1592.15C2308.83,1592.24 2308.91,1592.34 2308.99,1592.43C2311.29,1594.92 2312.62,1597.92 2313,1601.7C2313,1601.7 2313.07,1602.77 2313.07,1602.77L2312.27,1626.12L2338.39,1593.42L2338.87,1592.9L2340.92,1591C2343.38,1589.33 2346.41,1588.33 2349.44,1588.11L2387.96,1588.12C2391.73,1588.38 2395.44,1589.62 2398.08,1592.44C2403.04,1597.71 2403.18,1606.36 2397.94,1612.36C2386.92,1624.99 2376.14,1638.22 2369.81,1653.47C2369.81,1653.47 2372.07,1652.91 2374.17,1652.01C2388.1,1646.09 2399.25,1634.1 2409.16,1623.85C2409.16,1623.85 2410.81,1618.11 2412.34,1613.5C2418.7,1594.28 2428.16,1576.12 2440.82,1560.25C2447.89,1551.4 2456.49,1542.13 2468.79,1542.03C2478.36,1541.95 2486.7,1550.75 2485.41,1561.72C2484.25,1571.53 2478.34,1579.94 2473.45,1587.93C2462.52,1605.81 2449.23,1622.14 2435.06,1637.57C2433.96,1643.07 2432.81,1648.86 2434.6,1654.2C2434.97,1655.27 2435.97,1654.83 2436.61,1654.65C2443.06,1652.81 2448.17,1647.53 2453.17,1642.93C2461.42,1635.34 2468.98,1626.97 2475.84,1618C2477.45,1615.81 2477.62,1612.89 2478.62,1610.09C2486.09,1589.07 2495.78,1567.99 2512.59,1554C2517.86,1549.62 2523.92,1546.14 2530.83,1545.2L2532.53,1545.1C2541.14,1545.26 2549.08,1553.09 2546.03,1563.62C2544.24,1569.8 2540.03,1575.09 2536.76,1580.41C2525.99,1597.86 2514.33,1614.65 2501.74,1630.82L2501.6,1631C2499.22,1639.48 2497.05,1648.15 2498.49,1656.88L2498.52,1657.07C2503.87,1656.52 2508.93,1654.34 2513.76,1651.87C2513.76,1651.87 2513.72,1646.97 2514.19,1642.48C2516.86,1616.97 2534.63,1590.9 2561.08,1591.54C2562.08,1591.57 2563.08,1591.64 2564.08,1591.76C2571.73,1592.7 2579.55,1596.89 2582.84,1604.18C2587.33,1614.14 2582.07,1626.14 2576.86,1634.15C2576.86,1634.15 2576.16,1634.72 2576.89,1634.51C2586.1,1632.09 2596.82,1640.66 2594.53,1651.51C2593.97,1654.18 2592.18,1656.41 2590.42,1658.66C2578.41,1674.02 2561.09,1687.31 2540.41,1683.84C2535.13,1682.96 2530.06,1680.8 2525.87,1677.45C2525.87,1677.45 2521.5,1679.51 2517.68,1681.04C2516.58,1681.48 2515.48,1681.91 2514.37,1682.32C2503.86,1686.18 2491.51,1688.29 2481.33,1680.58C2476.26,1676.74 2472.99,1670.92 2471.36,1664.75C2471.36,1664.75 2468.15,1667.48 2465.55,1669.63C2454.76,1678.54 2441.57,1686.2 2427.44,1682.39C2418.48,1679.97 2411.43,1672.35 2408.06,1663.47C2408.06,1663.47 2406.76,1664.4 2405.35,1665.51C2391.96,1676.01 2375.8,1686.08 2358.12,1681.12C2348.22,1678.34 2340.48,1669.35 2340.29,1658.66C2340.02,1643.56 2349.64,1629.48 2358.63,1616.69L2358.85,1616.37L2356.23,1616.37L2307.74,1677.09C2305.05,1679.97 2301.6,1682.22 2297.32,1682.37C2290.48,1682.61 2283.61,1677.61 2282.78,1670.26C2282.66,1669.04 2282.57,1667.79 2282.57,1667.79L2283.26,1647.63C2270.88,1661.65 2256.46,1674.02 2238.33,1679.93C2227.64,1683.41 2215.48,1683.56 2205.94,1676.1C2205.94,1676.1 2202.89,1677.41 2200.28,1678.38C2183.88,1684.52 2163.34,1684.68 2152.2,1668.73C2152.2,1668.73 2148.38,1671.97 2145.18,1674.4C2137.35,1680.34 2127.63,1684.5 2117.72,1682.65C2107.96,1680.82 2099.13,1673.75 2096.48,1663.53L2096.47,1663.48C2093.15,1668.51 2091.03,1673.79 2085.58,1678.67C2080.91,1682.86 2073.81,1685.09 2067.81,1681.91C2061.22,1678.41 2058.88,1669.96 2058.93,1662.08C2058.97,1656.22 2059.64,1650.38 2060.31,1644.55L2060.49,1643.02C2049.62,1654.67 2038.61,1666.53 2026.18,1676.47C2020.5,1681.01 2012.88,1684.28 2006.21,1680.99C2000.6,1678.23 1997.52,1671.55 1998.17,1665.16C1998.39,1662.99 1998.86,1660.86 1999.45,1658.76L1999.49,1658.64C1993.55,1664.97 1987.62,1671.31 1981.69,1677.65L1980.99,1678.4C1977.9,1681.25 1973.97,1683.23 1969.56,1682.81C1964.56,1682.33 1959.93,1679.1 1957.78,1674.55C1952.61,1679.13 1946.57,1682.86 1939.87,1683.93C1926.86,1686.01 1912.8,1677.68 1909.03,1664.71L1908.99,1664.55C1889.87,1687.8 1871.41,1711.66 1855.2,1736.99L1854.03,1738.73C1851.48,1741.67 1847.91,1745.3 1841.28,1744.65C1834.25,1743.96 1827.86,1737.56 1828.36,1730.02C1829.3,1715.94 1834.16,1701.78 1838.1,1688.39C1845.63,1662.82 1854.29,1637.49 1861.8,1611.92C1836.61,1640.62 1792.02,1708.31 1790.43,1711.15C1786.47,1718.19 1776.3,1720.56 1769.07,1715.63C1769.07,1715.63 1766.31,1713.17 1764.81,1710.27C1764.81,1710.27 1763.35,1705.26 1763.69,1701.12C1764.87,1687.41 1767.83,1673.89 1771.92,1660.67L1771.99,1660.48C1755.9,1680.58 1739.04,1700.29 1719.07,1716.43C1709.32,1724.31 1697.6,1731.7 1684.77,1728.12C1674.98,1725.39 1668,1715.96 1666.52,1705.52C1664.99,1694.63 1668.19,1683.69 1672.43,1673.78C1672.46,1673.71 1672.81,1672.88 1673.23,1672.09L1674.81,1669.62C1677.89,1666.16 1681.58,1664.26 1685.79,1664.32C1694.7,1664.47 1703.03,1673.51 1698.88,1683.8C1696.88,1688.7 1694.95,1693.69 1694.62,1698.89C1694.62,1698.89 1697.49,1697.24 1699.63,1695.72C1712.09,1686.84 1722.24,1674.95 1732.07,1663.57C1754.91,1637.13 1776.67,1609.77 1796.89,1581.18C1803.55,1571.85 1810.36,1562.37 1819.82,1556.08C1822.74,1554.15 1826.12,1552.9 1829.77,1553.14C1830.66,1553.2 1830.72,1553.2 1831.06,1553.25C1834.97,1553.86 1838.62,1556.05 1840.8,1559.5C1845.07,1566.26 1843.75,1575.02 1841.2,1582.02C1836.74,1594.24 1827.44,1604.2 1821.53,1615.72C1821.53,1615.72 1822.54,1614.51 1823.14,1613.77C1836.27,1597.49 1849.57,1581.66 1865.35,1567.11C1865.35,1567.11 1869.75,1562.98 1873.05,1560.05C1877.64,1555.98 1883.45,1553.05 1890.48,1554.97L1890.84,1555.06C1892.34,1555.67 1892.32,1555.72 1893.74,1556.5C1893.74,1556.5 1897.91,1559.36 1899.1,1562.39C1900.54,1566.05 1900.97,1570.02 1899.78,1573.79C1899.78,1573.79 1899.32,1577.95 1898.75,1581.39C1896.1,1597.31 1891.04,1612.83 1886.41,1628.11C1883.38,1638.08 1880.25,1648.02 1877.11,1657.95L1876.68,1659.29C1894.14,1636.83 1912.25,1614.61 1935.42,1597.52C1943.52,1591.54 1953.18,1586.98 1963.33,1588.83L1964.23,1589.06L1966.99,1590.07C1966.99,1590.07 1968.09,1590.63 1968.09,1590.63C1973.66,1593.17 1978.25,1597.61 1981.73,1602.7L1982.01,1603.12L1984.36,1597.35C1986.41,1593.22 1989.98,1589.46 1995.31,1588.8C2003.59,1587.78 2012.79,1594.69 2011.52,1603.97C2011.47,1604.31 2011.38,1604.76 2011.38,1604.76C2011.89,1604.24 2012.39,1603.72 2012.9,1603.2C2016.13,1599.88 2019.43,1596.61 2022.83,1593.45C2022.83,1593.45 2027.39,1589.95 2030.58,1589.07C2036.46,1587.45 2044.09,1590.27 2046.74,1597.06C2047.15,1598.12 2047.56,1599.69 2047.56,1599.69C2047.9,1601.34 2048.58,1599.47 2047.7,1606.01C2047.12,1610.37 2045.55,1614.52 2044.13,1618.72L2044.06,1618.93C2051.77,1610.63 2059.45,1602.33 2067.5,1594.37C2068.6,1593.29 2068.9,1593.06 2069.64,1592.48C2070.13,1592.09 2070.63,1591.72 2071.15,1591.38C2076.73,1587.64 2084.78,1587.22 2090.94,1594.08C2090.94,1594.08 2092.71,1596.5 2093.43,1599.4C2093.43,1599.4 2093.74,1601.45 2093.74,1601.45C2093.89,1603.38 2093.81,1603.39 2093.8,1604.13C2093.78,1610.19 2093.05,1616.24 2092.13,1622.25C2105.2,1607.5 2119.31,1592.7 2139.66,1589.29C2147.32,1588.01 2155.43,1588.67 2162.28,1592.44C2162.28,1592.44 2166.4,1584.27 2169.95,1577.83C2178.85,1561.66 2189.48,1546.23 2201.78,1532.72C2208.4,1525.45 2217.6,1518.37 2227.97,1523.43C2234.48,1526.6 2237.94,1534.08 2236.97,1542.08C2235.87,1551.08 2230.85,1559.01 2226.72,1566.88C2212.24,1594.39 2194.41,1619.95 2174.7,1644.08C2174.7,1644.08 2170.89,1654.79 2180.77,1654.15C2185.12,1653.87 2189.34,1652.48 2193.35,1650.7C2193.35,1650.7 2193.67,1651.69 2193.52,1649.1C2192.67,1632.54 2198.2,1615.59 2209.51,1603.23C2217.31,1594.69 2228.27,1588.67 2240.2,1588.59C2240.41,1588.59 2240.62,1588.59 2240.83,1588.59ZM2038.36,1602.06C2037.99,1600.78 2037.46,1599.48 2035.21,1598.43C2035.17,1598.41 2033.77,1597.95 2032.47,1598.44C2029.14,1599.69 2026.72,1602.8 2024.03,1605.46C2016.65,1612.76 2009.7,1620.43 2002.57,1628.01C2001.5,1629.14 2001.46,1629.1 2000.18,1630L1998.36,1630.41L1996.52,1630.08L1994.95,1629.08L1993.89,1627.54L1993.5,1625.71L1993.85,1623.88C1993.85,1623.88 2001.58,1604.85 2001.58,1604.85C2002.25,1602.11 2001.04,1598.16 1997.01,1598.19C1995.3,1598.21 1993.98,1599.62 1992.96,1601.36C1992.96,1601.36 1989.39,1610.23 1989.39,1610.23C1989.05,1610.74 1988.81,1611.33 1988.38,1611.77C1987.12,1613.04 1986.56,1613.08 1984.77,1613.2C1982.49,1613.38 1980.1,1616.03 1976.7,1612.73C1975.68,1611.74 1975.35,1610.36 1974.6,1609.15C1971.95,1604.9 1968.37,1601.08 1963.78,1599.12L1961.36,1598.13C1960.34,1597.95 1959.31,1597.87 1958.28,1597.88C1948.91,1598 1941.29,1604.64 1934.71,1610.26C1909.17,1632.06 1888.68,1658.81 1868.45,1685.82L1867.85,1686.61L1866.45,1687.87L1864.66,1688.48L1862.78,1688.35L1861.1,1687.49L1859.89,1686.06L1859.33,1684.26C1859.77,1679.71 1861.73,1675.17 1863.18,1670.52C1871.47,1644.06 1880.59,1617.74 1887.07,1590.95C1888.53,1584.93 1889.72,1578.82 1890.34,1572.64L1890.64,1571.16C1891.25,1569.48 1890.93,1567.69 1890.28,1565.91L1888.88,1564.67C1888.88,1564.67 1888,1564.14 1888,1564.14C1884.23,1563.11 1883.07,1564.28 1881.44,1565.46C1874.78,1570.29 1869.09,1576.58 1863.19,1582.66C1841.15,1605.4 1821.38,1630.24 1803.17,1656.18L1801.75,1657.51L1799.92,1658.16L1797.97,1658.02L1796.25,1657.1L1795.04,1655.58L1794.54,1653.69L1794.84,1651.77C1800.78,1636.08 1807.48,1620.55 1815.86,1606.22C1822.11,1595.52 1831.51,1586.36 1833.69,1573.6C1834.46,1569.09 1834.03,1563.65 1829.8,1562.68C1829.8,1562.68 1824.7,1563.82 1819.75,1568.58C1810.36,1577.6 1803.35,1588.74 1795.58,1599.3C1782.51,1617.09 1768.54,1634.25 1754.62,1651.36C1745.12,1663.01 1735.42,1674.52 1725.1,1685.41C1717.22,1693.74 1708.86,1701.75 1698.83,1707.54C1694.86,1709.83 1689.78,1711.65 1686.94,1708.09C1683.91,1704.27 1684.85,1698.93 1685.57,1694.61C1685.78,1693.34 1686.05,1692.08 1686.37,1690.84C1686.8,1689.17 1687.31,1687.53 1687.88,1685.91C1688.71,1683.53 1690.27,1681.26 1690.56,1678.85C1690.86,1676.33 1687.51,1672.93 1684.1,1674.09C1683.3,1674.37 1682.42,1675.36 1682.42,1675.36C1678.54,1681.41 1676.47,1689.14 1675.79,1696.72C1675.28,1702.41 1675.82,1708.49 1679.32,1713.27C1682.88,1718.13 1689.49,1720.37 1695.61,1718.96C1703.52,1717.14 1710.09,1711.64 1716.54,1706.18C1741.69,1684.86 1761.87,1657.89 1782.23,1632.19C1783.32,1630.82 1783.35,1630.85 1784.7,1629.73L1786.55,1629.18L1788.47,1629.43L1790.14,1630.41L1791.27,1631.99L1791.68,1633.88C1791.24,1636.07 1790.29,1638.16 1789.39,1640.34C1781.25,1660.27 1774.66,1680.97 1773.11,1702.52C1773.01,1704.12 1773.48,1706.31 1773.48,1706.31C1776.37,1710.99 1781.21,1708.78 1782.73,1705.31C1786.77,1696.09 1793.03,1687.84 1798.77,1679.3C1819.07,1649.15 1840.93,1619.88 1865.63,1593.57C1866.99,1592.12 1868.33,1590.74 1869.98,1589.63L1872.03,1589.32L1874.01,1589.91L1875.56,1591.29L1876.37,1593.2L1876.3,1595.27C1867.37,1629.35 1855.41,1662.81 1845.7,1696.26C1842.46,1707.45 1839.07,1718.71 1837.88,1730.19C1837.59,1733.01 1840.66,1735.88 1843.84,1735.06C1846.37,1734.4 1847.55,1731.3 1849.51,1728.3C1867.21,1701.11 1887.26,1675.68 1908.08,1650.73L1908.66,1650.04C1909.59,1648.93 1909.67,1649.01 1910.82,1648.12L1912.75,1647.65L1914.71,1648.02L1916.35,1649.16L1917.38,1650.87L1917.61,1652.85C1917.16,1657.66 1917.62,1662.71 1920.32,1666.74C1924.63,1673.18 1933.27,1676.29 1940.81,1673.98C1948.41,1671.66 1953.91,1665.53 1959.55,1659.32L1961.06,1658.21L1962.89,1657.77L1964.75,1658.07L1966.34,1659.07L1967.42,1660.61L1967.81,1662.45L1967.47,1664.3C1967.47,1664.3 1966.52,1666.58 1966.52,1666.58C1966.09,1668.36 1965.92,1670.38 1967.23,1671.75C1969.01,1673.61 1971.65,1673.78 1974.38,1671.59L1974.29,1671.66C1982.12,1663.27 1989.96,1654.9 1997.82,1646.54C1999.93,1644.31 2002.03,1642.07 2004.14,1639.84C2004.15,1639.82 2008.33,1635.4 2008.35,1635.38C2012.43,1631.65 2017.98,1635.64 2016,1641C2012.87,1649.42 2008.38,1657.69 2007.6,1666.36C2007.31,1669.56 2009.37,1673.02 2012.64,1672.91C2017.29,1672.77 2021.09,1668.46 2025.33,1664.72C2038.08,1653.47 2049.51,1640.84 2061.14,1628.37L2062.4,1627.02C2063.7,1625.63 2063.72,1625.64 2065.28,1624.55L2067.23,1624.18L2069.16,1624.64L2070.73,1625.85L2071.68,1627.6L2071.82,1629.57C2070.46,1639.55 2068.98,1649.58 2068.51,1659.6C2068.22,1665.51 2068.27,1673.31 2073.79,1674.03C2077.72,1674.54 2080.64,1670.62 2082.26,1668.05C2085.87,1662.27 2089.59,1656.53 2093.51,1650.94C2094.33,1649.77 2095.16,1648.6 2096,1647.45C2099.41,1642.75 2104.66,1644.1 2105.48,1647.87C2105.83,1649.48 2105.24,1651.27 2105.11,1652.98C2104.76,1657.49 2105.26,1662.23 2107.75,1665.98C2112.93,1673.78 2124.1,1675.63 2133.22,1670.86C2139.47,1667.59 2144.71,1662.64 2149.88,1657.78C2149.88,1657.78 2151.63,1656.23 2153.46,1656.26C2155.28,1656.29 2156.73,1657.58 2157.77,1659.19C2158.62,1660.52 2159.55,1662.85 2160.93,1664.55C2167.43,1672.59 2179.71,1674.21 2190.6,1671.48C2195.33,1670.29 2199.88,1668.46 2204.24,1666.29L2206.4,1665.65L2208.33,1665.95C2209.42,1666.64 2210.11,1667.37 2212.25,1668.97C2220.82,1675.37 2233.56,1672.08 2241.88,1668.36C2259.06,1660.68 2272.39,1646.51 2284.23,1631.67L2284.75,1631.02L2286.26,1629.76L2288.16,1629.22L2290.11,1629.5L2291.78,1630.55L2292.88,1632.18L2293.22,1634.12C2293.22,1634.12 2292.06,1667.64 2292.06,1667.64C2292.21,1668.95 2292.23,1670.3 2293.3,1671.41C2294.91,1673.07 2297.8,1673.5 2299.57,1671.81C2299.92,1671.47 2300.54,1670.88 2300.54,1670.88L2350.24,1608.66L2351.27,1607.7C2352.54,1607.09 2352.55,1607.08 2353.95,1606.87L2368.23,1606.88C2369.99,1607.21 2371.73,1608 2372.49,1609.52C2373.78,1612.13 2371.59,1615.04 2369.83,1617.42C2361.9,1628.16 2353.82,1639.46 2350.67,1651.76C2349.38,1656.79 2349.01,1662.5 2352.48,1666.88C2356.64,1672.13 2364.14,1673.31 2370.45,1672.55C2384.78,1670.84 2396.74,1659.64 2407.88,1651.23C2407.88,1651.23 2409.71,1650.36 2409.71,1650.36L2411.66,1650.32L2413.47,1651.07L2414.82,1652.48C2415.48,1654.29 2415.8,1656.39 2416.29,1658.12C2418.86,1667.07 2426.42,1674.68 2436.9,1673.84C2447.82,1672.97 2456.76,1664.92 2464.15,1658.31C2466.53,1656.17 2468.86,1653.98 2471.15,1651.75C2471.15,1651.75 2472.82,1650.22 2474.63,1650.2C2477.46,1650.17 2479.22,1652.79 2479.54,1656.42C2480.3,1664.79 2483.82,1673.81 2493.35,1675.93C2501.82,1677.82 2510.53,1673.88 2517.57,1670.8C2519.77,1669.84 2521.94,1668.8 2524.09,1667.74L2526.46,1667.02L2528.41,1667.35L2530.06,1668.45C2538.66,1677.24 2554.28,1675.84 2565.24,1669.2C2573.09,1664.45 2579.83,1657.93 2584.93,1650.12C2586.79,1647.29 2582.2,1641.73 2578.32,1644.1C2576.93,1644.95 2576.09,1646.56 2575.13,1647.78C2567.18,1657.85 2556.6,1667.52 2543.21,1665.31C2543.21,1665.31 2541.08,1664.82 2540.04,1663.38C2538.28,1660.94 2539.42,1658.08 2543.33,1655.08C2554.95,1646.08 2566.04,1636.1 2572.43,1622.86C2575.03,1617.47 2576.78,1610.8 2572.88,1605.98C2567.94,1599.89 2558.22,1600.16 2551.46,1602.55C2533.66,1608.85 2523.2,1630.11 2523.36,1649.16C2523.37,1650.8 2523.47,1652.43 2523.59,1654.07L2523.6,1654.18C2523.42,1655.74 2523.58,1656.29 2522.53,1657.56C2521.74,1658.52 2520.48,1659.07 2520.47,1659.07C2513.22,1662.99 2505.54,1666.38 2497.34,1666.67C2493.66,1666.8 2490.28,1664.15 2489.46,1660.5C2487.1,1649.88 2489.58,1638.64 2492.46,1628.4C2493.08,1626.22 2494.74,1624.35 2496.16,1622.51C2508.97,1605.85 2520.74,1588.52 2531.62,1570.59C2533.75,1567.13 2536.37,1563.89 2537.16,1559.94C2537.66,1557.41 2535.43,1554.44 2531.76,1554.66C2527.04,1555.31 2522.76,1557.96 2519.03,1561C2502.44,1574.57 2493.54,1595.39 2486.8,1615.45C2486.28,1617.06 2486.34,1617.08 2485.85,1618.7C2484.24,1623.83 2480.16,1627.82 2476.56,1632.05C2469.48,1640.37 2461.93,1648.18 2453.54,1655.31C2448.5,1659.59 2442.83,1663.71 2436.05,1664.45C2428.08,1665.33 2423.3,1655.1 2424.51,1643.42C2424.79,1640.71 2425.27,1638.02 2425.82,1635.34C2426.33,1632.87 2428.23,1630.97 2430.18,1628.83C2445.7,1611.69 2459.92,1593.23 2470.95,1573.29C2474.48,1566.9 2479.15,1558.94 2474.14,1553.68C2470.01,1549.34 2461.92,1552.45 2455.87,1557.9C2451.64,1561.7 2448.09,1566.19 2444.73,1570.79C2432.39,1587.66 2423.44,1607.01 2418.17,1627.31L2417.72,1628.43C2417.48,1628.75 2417.26,1629.09 2417.01,1629.4C2416.99,1629.42 2416.02,1630.43 2416,1630.45C2410.68,1635.96 2405.18,1641.28 2399.44,1646.33C2391.41,1653.4 2382.82,1660.4 2371.98,1662.79C2369.14,1663.41 2366.2,1663.48 2363.3,1663.14C2363.3,1663.14 2360.21,1662.25 2359.4,1660.1C2358.7,1658.26 2359.09,1657.01 2359.3,1655.64C2360.09,1650.7 2362.55,1646.23 2364.93,1641.77C2371.47,1629.51 2380.01,1618.63 2389.2,1607.9C2391.56,1605.18 2395.1,1600.86 2389.98,1598.06C2389.19,1597.64 2387.62,1597.62 2387.62,1597.62L2349.79,1597.61C2348.42,1597.81 2346.85,1598.46 2346.85,1598.46L2345.59,1599.63L2310.75,1643.25L2309.23,1644.5L2307.34,1645.03L2305.39,1644.74L2303.73,1643.69L2302.63,1642.06L2302.29,1640.13C2302.29,1640.13 2303.57,1602.89 2303.57,1602.89C2303.43,1601.51 2303.29,1600.25 2302.12,1598.99C2302.05,1598.91 2301.97,1598.85 2301.88,1598.8C2299.89,1597.55 2297.68,1597.79 2295.85,1598.93C2295.85,1598.93 2294.26,1601.12 2293.17,1602.9C2281.57,1621.85 2267.85,1639.86 2250.3,1652.98C2243.1,1658.36 2234.79,1662.51 2225.83,1663.11C2225.83,1663.11 2223.68,1662.83 2223.68,1662.83L2222,1661.74L2220.92,1660.07L2220.62,1658.09L2221.16,1656.17L2222.44,1654.64C2222.76,1654.39 2223.08,1654.14 2223.4,1653.88C2232.76,1646.41 2241.23,1637.91 2248.05,1628.22C2252.33,1622.15 2256.31,1615.11 2254.86,1607.7C2253.76,1602.13 2247.78,1598.51 2242.13,1598.15C2228.68,1597.28 2216.09,1607.62 2209.93,1618.98C2204.39,1629.2 2201.89,1641.09 2203.41,1652.65C2203.41,1652.65 2203.28,1654.69 2203.28,1654.69L2202.38,1656.4C2197.38,1660.42 2190.5,1662.33 2184.33,1663.3C2177.7,1664.34 2169.49,1662.9 2166.43,1655.99C2164.43,1651.47 2164.54,1646.11 2165.39,1641.39L2165.75,1640.25C2167.03,1638.22 2168.67,1636.45 2170.18,1634.57C2190.2,1609.68 2207.79,1582.81 2222.43,1554.53C2225.29,1548.97 2228.36,1543.13 2227.53,1537.15C2227.01,1533.41 2223.4,1530.6 2219,1531.61C2213.08,1532.97 2209.08,1538.71 2204.94,1543.49C2190,1560.73 2178.26,1580.78 2168.53,1601.68L2167.49,1603.13C2165.92,1604.13 2164.14,1604.75 2162.49,1604.11C2160.6,1603.37 2159.38,1601.65 2157.39,1600.59C2147.97,1595.59 2136.34,1598.65 2127.88,1603.56C2111.99,1612.77 2099.15,1627.35 2088.52,1641.98L2086.96,1643.35L2084.97,1643.93L2082.92,1643.6L2081.21,1642.43L2080.16,1640.64C2079.94,1638.27 2080.32,1635.92 2080.68,1633.59C2081.15,1630.49 2081.68,1627.41 2082.18,1624.32C2083.35,1617.08 2084.42,1609.78 2084.29,1602.47C2084.29,1602.47 2084.06,1600.59 2083.43,1599.96C2083.02,1599.54 2082.57,1599.16 2082.09,1598.82C2081.72,1598.56 2081.32,1598.32 2080.91,1598.12C2078.45,1596.94 2075.48,1599.83 2072.91,1602.38C2060.19,1615.09 2048.3,1628.67 2035.77,1641.55C2035.77,1641.55 2034.89,1642.68 2033.63,1643.22C2031.33,1644.22 2028.41,1643.02 2027.42,1640.81C2026.73,1639.27 2027.04,1638.77 2027.3,1637.2C2029.38,1631.63 2031.48,1626.07 2033.47,1620.46C2035.46,1614.86 2037.95,1609.53 2038.4,1603.62C2038.48,1602.59 2038.2,1601.54 2038.4,1602.22C2038.42,1602.27 2038.37,1602.11 2038.36,1602.06ZM1959.01,1607.3C1959.8,1607.38 1959.94,1607.44 1960.27,1607.55C1965.74,1609.32 1968.32,1616.43 1970.2,1621.98C1970.76,1623.63 1971.47,1626.09 1971.47,1626.09C1971.75,1628.61 1971.13,1629.34 1970.69,1630.16C1962.69,1640.96 1954.62,1651.99 1945.03,1661.09C1941.25,1664.68 1935.14,1667.6 1929.99,1663.7C1925.85,1660.56 1926.63,1653.97 1927.8,1649.2C1931.38,1634.62 1940.55,1621.08 1951.07,1611C1953.14,1609.03 1955.71,1607.36 1958.69,1607.29C1958.79,1607.3 1958.9,1607.3 1959.01,1607.3ZM2144.14,1608.73C2150.17,1608.84 2155.78,1612.37 2159.61,1617.2C2159.61,1617.2 2160.97,1619.08 2160.49,1621.75C2159.81,1625.5 2157.87,1630.29 2156.91,1635.2L2156.52,1636.36C2154.92,1638.81 2152.82,1640.92 2150.85,1643.13C2144.82,1649.89 2138.43,1656.5 2131.05,1661.66C2127.47,1664.15 2122.69,1665.47 2118.33,1663.27C2115.06,1661.63 2113.48,1657.79 2114.08,1653.75C2116.56,1637.09 2125.9,1621.5 2138.63,1610.1L2139.85,1609.31C2141.32,1608.9 2142.45,1608.72 2144.14,1608.73ZM1957.85,1617.67C1955,1620.32 1952.65,1623.5 1950.24,1626.61C1943.45,1635.34 1937.02,1645.17 1936.24,1655.91C1936.24,1655.91 1940.57,1652.08 1943.21,1649.31C1949.92,1642.19 1955.81,1634.29 1961.65,1626.4C1961.58,1626.19 1961.52,1625.97 1961.45,1625.76C1960.55,1623.03 1959.48,1620.34 1958.01,1617.88C1958.01,1617.88 1957.95,1617.58 1957.85,1617.67ZM2143.91,1618.23L2143.82,1618.23C2133.65,1627.75 2126.84,1640.34 2123.7,1654.03C2123.6,1654.48 2122.77,1655.47 2124.44,1654.59C2129.05,1652.18 2132.97,1647.99 2136.99,1643.99C2140.66,1640.34 2144.11,1636.46 2147.49,1632.54C2147.49,1632.54 2148.49,1629.04 2149.26,1626.14C2149.86,1623.91 2150.64,1621.38 2150.64,1621.38C2150.55,1621.3 2150.46,1621.21 2150.37,1621.13C2148.63,1619.55 2146.43,1618.28 2144,1618.23C2143.97,1618.23 2143.94,1618.23 2143.91,1618.23ZM2560.06,1610.29C2562.84,1610.36 2563.36,1611.08 2564.09,1611.89C2566.82,1614.89 2563.83,1620.1 2561.16,1624.26C2556.19,1632.03 2549.19,1638.19 2542.13,1644.11C2541.34,1644.77 2540.46,1645.26 2539.57,1645.73L2537.63,1645.88L2535.79,1645.23L2534.36,1643.9L2533.59,1642.11L2533.6,1640.16C2535.34,1632.16 2538.89,1624.51 2544.38,1618.34C2548.22,1614.03 2553.3,1610.55 2559.45,1610.3C2559.65,1610.3 2559.86,1610.29 2560.06,1610.29ZM2240.46,1607.37C2244.17,1607.61 2244.23,1608.72 2245.04,1610.64C2245.04,1610.64 2244.88,1614.84 2243.19,1618.16C2237.82,1628.58 2229.21,1636.93 2220.41,1644.36L2218.74,1645.27L2216.85,1645.46L2215.04,1644.88L2213.59,1643.64L2212.75,1641.94C2212.62,1639.53 2212.84,1638.69 2213.13,1637.26C2215.97,1623.07 2224.97,1608.59 2238.88,1607.43C2239.41,1607.39 2239.93,1607.36 2240.46,1607.37ZM1984.83,1610.84C1985.17,1609.66 1985.06,1609.64 1984.99,1609.09C1984.94,1609.67 1984.88,1610.26 1984.83,1610.84ZM1984.98,1609.03C1984.86,1608.06 1984.5,1607.41 1984.5,1607.41C1984.66,1607.95 1984.82,1608.49 1984.98,1609.03ZM1968.27,1590.78C1968.15,1590.68 1968.13,1590.65 1967.72,1590.47C1967.9,1590.57 1968.09,1590.67 1968.27,1590.78ZM2412.74,1548.84C2413.71,1548.85 2414.68,1548.98 2415.63,1549.21C2416.46,1549.41 2417.27,1549.7 2418.05,1550.06C2425.48,1553.45 2429.14,1563.61 2424.24,1570.98L2414.7,1584.78C2409.21,1592.39 2395.6,1592.54 2390.74,1583.5C2388.28,1578.93 2388.57,1573.02 2391.46,1568.69L2401,1554.89C2403.69,1551.17 2408.1,1548.81 2412.74,1548.84ZM2412.55,1558.34C2411.11,1558.36 2409.68,1559.14 2408.79,1560.33C2405.53,1564.85 2402.32,1569.42 2399.28,1574.09C2397.52,1576.87 2399.41,1581.16 2403,1581.15C2404.49,1581.14 2406.02,1580.53 2406.91,1579.33C2410.17,1574.81 2413.37,1570.24 2416.42,1565.58C2418.14,1562.89 2415.92,1558.49 2412.69,1558.34C2412.64,1558.34 2412.6,1558.34 2412.55,1558.34Z" style="fill:rgb(218,218,218);"/>
            </g>
            <g transform="matrix(4.7204e-17,0.876112,-0.7709,5.36464e-17,1678.9,-1231.81)">
                <path d="M2241.49,1718.11C2323.28,1718.18 2404.23,1721.63 2485.93,1728.03C2492.68,1728.56 2497.94,1732.96 2497.47,1738.97C2497.14,1743.22 2493.86,1746.94 2489.84,1747.91C2486.23,1748.78 2483.04,1747.87 2479.69,1747.61C2305.7,1734.27 2131.66,1733.91 1959.18,1753.08C1949.81,1754.12 1940.44,1755.22 1931.08,1756.38L1927.95,1756.27C1925.38,1755.34 1924.48,1755.35 1922.54,1753.28C1919.02,1749.51 1919.12,1742.79 1923.03,1739.14C1924.86,1737.43 1926.24,1737.06 1928.63,1736.53C1928.65,1736.52 1932.64,1736.04 1932.66,1736.03C2032.66,1723.83 2133.06,1718.41 2232.65,1718.11C2235.59,1718.11 2238.54,1718.11 2241.49,1718.11ZM1984.98,1608.44L1988.76,1599.13C1990.08,1596.94 1990.23,1596.11 1992.49,1594.7C1997.42,1591.62 2005.09,1594.47 2006.56,1600.4C2007.2,1602.99 2006.73,1603.69 2006.15,1606.18L1998.25,1625.66C2007.42,1615.96 2016.4,1605.9 2026.05,1596.94C2029.08,1594.13 2033.63,1592.47 2036.37,1593.73C2038.93,1594.91 2038.95,1594.92 2041.04,1596.81C2042.24,1597.9 2042.57,1599.58 2043,1601.03C2043,1601.03 2043.16,1602.39 2043.16,1602.39C2043.2,1603.5 2043.17,1603.57 2043.14,1603.99C2042.83,1608.25 2041.27,1612.35 2039.87,1616.49C2037.37,1623.92 2034.59,1631.25 2031.86,1638.58L2031.75,1638.86C2044.94,1625.39 2057.14,1611.28 2070.83,1597.75C2074,1594.63 2078.61,1592.05 2082.26,1593.53C2084.15,1594.3 2085.91,1595.57 2087.37,1597.22C2088.33,1598.3 2088.84,1600.61 2088.84,1600.61L2089.03,1602.08C2089.33,1614.43 2086.34,1626.52 2084.7,1638.96L2084.68,1639.19C2085.07,1638.64 2085.47,1638.1 2085.87,1637.55C2086.23,1637.07 2086.59,1636.59 2086.95,1636.1C2099.7,1619.1 2117.26,1602.86 2129.77,1597.23C2141.13,1592.13 2155.45,1591.47 2164.22,1599.68C2174.29,1578.02 2186.72,1556.94 2202.45,1539.12C2207.87,1532.97 2213.76,1525.91 2222.3,1526.69C2227.17,1527.13 2231.38,1531.16 2232.18,1536.1C2233.57,1544.64 2228.39,1553.25 2224.28,1561.29C2209.45,1590.26 2190.54,1617.35 2170.06,1642.24C2170.06,1642.24 2168.15,1652.3 2172.3,1656.33C2175.99,1659.92 2181.82,1659.05 2186.17,1658.12C2190.54,1657.18 2194.71,1655.43 2198.71,1653.38C2198.71,1653.38 2198.37,1650.93 2198.26,1648.84C2197.62,1636.98 2200.91,1624.88 2206.84,1614.8C2214.26,1602.18 2227.75,1591.85 2243.74,1593.52C2251.81,1594.36 2259.41,1599.97 2259.82,1609.31C2260.29,1620.2 2253.13,1630.09 2245.81,1638.81C2239.81,1645.95 2233.01,1652.37 2225.66,1658.14L2225.36,1658.38C2239.41,1657.56 2251.7,1646.74 2262.55,1635.32C2273.33,1623.98 2282.75,1611.21 2290.61,1597.95L2292.55,1595.42C2294.88,1593.82 2297.47,1592.62 2300.19,1592.99C2301.99,1593.23 2303.59,1594.24 2305.14,1595.25C2305.73,1595.94 2306.43,1596.57 2306.92,1597.35C2308.23,1599.46 2308.05,1600.21 2308.32,1602.61L2307.04,1640.29L2342.1,1596.38L2344.15,1594.48C2346.66,1593.28 2346.68,1593.27 2349.44,1592.86L2387.95,1592.87C2390.28,1593.2 2391.01,1593.05 2393.04,1594.37C2396.74,1596.76 2398.37,1602.1 2396.46,1606.21C2395.57,1608.11 2394.03,1609.55 2392.67,1611.15C2383.01,1622.56 2373.64,1634.47 2367.24,1647.69C2365.57,1651.15 2363.8,1654.82 2363.84,1658.42C2363.84,1658.42 2368.4,1659.05 2372.24,1657.81C2384.91,1653.69 2395.32,1643.97 2405.45,1634.26C2408.22,1631.6 2410.93,1628.89 2413.57,1626.11C2419.17,1604.43 2429.2,1583.26 2442.79,1565.45C2450.07,1555.91 2459.53,1545.93 2470.34,1546.84C2475.24,1547.25 2479.58,1551.16 2480.53,1556.04C2482,1563.55 2477.54,1571.25 2473.62,1578.24C2462.01,1598.97 2446.85,1617.81 2430.68,1635.32C2429.22,1642.23 2428.04,1649.76 2430.15,1655.86C2430.94,1658.12 2432.82,1660.21 2435.89,1659.68C2443.22,1658.42 2449.2,1652.87 2454.69,1647.97C2463.82,1639.82 2471.87,1630.51 2479.48,1621.05C2481.18,1618.93 2481.5,1616.24 2482.38,1613.71C2489.93,1592.01 2500.04,1569.52 2517.66,1556.04C2521.64,1552.98 2526.28,1550.59 2531.29,1549.93L2532.63,1549.85C2535.71,1549.89 2540.78,1552.33 2541.62,1556.87C2542.09,1559.42 2542.01,1560.04 2541.68,1561.5C2540.67,1565.79 2537.83,1569.48 2535.44,1573.44C2523.89,1592.61 2511.15,1611.09 2497.34,1628.73L2497.28,1628.81C2494.62,1638.19 2492.17,1648.12 2493.77,1657.45C2494.1,1659.41 2494.12,1661.99 2496.81,1661.93C2504.51,1661.76 2512.01,1658.29 2518.86,1654.54C2518.86,1654.54 2518.65,1651.8 2518.61,1649.53C2518.41,1635.54 2523.68,1621.44 2532.43,1610.8C2539.36,1602.37 2549.38,1595.99 2560.96,1596.29C2568.14,1596.47 2576.06,1599.57 2578.86,1606.99C2581.3,1613.43 2578.93,1621.01 2575.68,1626.92C2568.24,1640.41 2556.37,1651.24 2543.9,1660.61C2544.05,1660.63 2544.19,1660.66 2544.34,1660.68C2556.32,1662.31 2567.07,1650.83 2573.04,1642.67L2573.07,1642.64C2574.88,1640.82 2575.22,1640.05 2577.75,1639.21C2583.27,1637.4 2590.04,1641.98 2590.06,1648.1C2590.07,1650.96 2589.74,1651.67 2587.92,1654.12C2577.52,1667.99 2563.08,1680 2545.4,1679.56C2538.45,1679.39 2531.57,1676.83 2526.66,1671.77C2526.66,1671.77 2521.89,1674.16 2517.97,1675.79C2507.1,1680.3 2494.02,1684.91 2483.45,1676.2C2477.47,1671.29 2475.06,1662.99 2474.68,1654.95C2474.68,1654.95 2469.85,1659.67 2465.76,1663.22C2455.3,1672.28 2443.12,1681.34 2429.14,1677.92C2419.17,1675.48 2412.27,1665.68 2410.79,1654.99C2410.79,1654.99 2409.55,1655.91 2408.18,1657.07C2395.51,1667.74 2380.98,1678.28 2365.14,1677.48C2357.26,1677.08 2348.82,1673.06 2346.09,1664.92C2342.82,1655.14 2347.7,1644 2352.96,1634.51C2357.35,1626.57 2362.57,1619.12 2368.05,1611.86L2368.23,1611.63L2353.95,1611.62L2304.03,1674.12C2302.14,1675.85 2301.76,1676.6 2299.21,1677.31C2295.47,1678.35 2291.11,1676.79 2288.91,1673.5C2287.43,1671.3 2287.63,1670.49 2287.32,1667.95L2288.47,1633.96C2288.12,1634.41 2287.77,1634.85 2287.42,1635.3C2275.39,1650.26 2261.98,1664.37 2244.62,1672.33C2233.28,1677.54 2219.28,1681.25 2208.08,1671.72C2207.47,1671.2 2206.66,1670.4 2206.66,1670.4C2206.28,1670.59 2205.89,1670.78 2205.51,1670.97C2193.07,1677 2178.43,1680.53 2165.74,1674.34C2160.18,1671.63 2155.76,1666.84 2153.38,1661.01C2153.38,1661.01 2148.08,1666.06 2143.55,1669.65C2136.98,1674.86 2129.5,1679.1 2120.84,1678.29C2112.79,1677.54 2105.1,1672.81 2102.04,1665.29C2099.97,1660.19 2099.92,1654.47 2100.82,1649L2100.84,1648.88C2095.51,1656.11 2090.61,1663.62 2085.83,1671.29C2085.83,1671.29 2078.01,1683.05 2069.1,1677.15C2062.98,1673.11 2063.4,1663.52 2064.01,1655.55C2064.66,1646.96 2065.83,1638.4 2066.99,1629.84L2067.12,1628.93C2053.75,1643.19 2040.75,1657.8 2026.08,1670.36C2021.14,1674.6 2015.4,1679.46 2008.95,1677.01C2005.5,1675.7 2002.62,1671.51 2002.79,1667.12C2003.04,1660.78 2005.95,1654.68 2008.22,1648.39C2009.31,1645.37 2010.42,1642.36 2011.54,1639.34L2011.8,1638.64C2000.57,1650.53 1989.38,1662.45 1978.22,1674.41L1977.52,1675.16C1975.53,1676.72 1975.11,1677.42 1972.55,1677.95C1967.89,1678.91 1962.66,1675.71 1961.52,1670.92C1960.92,1668.37 1961.38,1667.69 1961.96,1665.24L1963.07,1662.51C1961.18,1664.6 1959.25,1666.62 1957.25,1668.56C1950.76,1674.87 1943.32,1680.35 1933.33,1679.42C1923.23,1678.48 1914.29,1670.75 1912.97,1660.32C1912.64,1657.67 1912.63,1655.03 1912.88,1652.4C1909.8,1656.07 1906.77,1659.76 1903.74,1663.44C1884.75,1686.55 1866.54,1710.28 1850.44,1735.62L1848.62,1737.72C1846.55,1739.02 1846.07,1739.64 1843.56,1739.91C1839.9,1740.32 1835.99,1738.3 1834.24,1734.99C1832.72,1732.13 1832.93,1731.12 1833.53,1726.96C1835.17,1715.39 1838.48,1704.1 1841.76,1692.83C1851.33,1659.85 1862.9,1627.52 1871.62,1594.38L1871.7,1594.06C1843.74,1623.37 1787.01,1710.1 1782.75,1712.41C1779.27,1714.3 1775.24,1714.15 1771.67,1711.66C1771.63,1711.63 1769.85,1709.74 1769.01,1708.05C1769.01,1708.05 1768.15,1704.98 1768.38,1702.07C1770.27,1678.63 1777.63,1655.77 1786.93,1633.92C1766.11,1660.11 1745.85,1687.48 1720.04,1709.44C1710.83,1717.27 1700.33,1725.44 1688.67,1724.07C1681.54,1723.23 1675.27,1717.91 1672.72,1710.9C1668.33,1698.84 1672.65,1685.1 1677.23,1674.66L1678.81,1672.18C1680.8,1670.56 1681.22,1669.83 1683.82,1669.26C1688.51,1668.23 1693.92,1671.54 1694.99,1676.42C1695.6,1679.21 1695.35,1679.94 1694.18,1682.75C1691.62,1688.96 1689.4,1695.62 1689.9,1702.12C1690.02,1703.53 1690.36,1705.5 1691.22,1705.42C1693.75,1705.14 1696.12,1703.66 1698.39,1702.25C1709.27,1695.48 1718.24,1685.91 1727.06,1676.34C1736.91,1665.65 1746.07,1654.36 1755.23,1643.07C1770.49,1624.37 1785.7,1605.36 1799.79,1585.31C1800.12,1584.85 1800.44,1584.39 1800.77,1583.93C1806.58,1575.75 1812.97,1567.79 1820.64,1561.4C1822.69,1559.68 1825.09,1558.26 1827.73,1557.94C1829.03,1557.79 1829.15,1557.88 1829.5,1557.89C1830.24,1557.95 1829.93,1557.83 1831.27,1558.15C1831.96,1558.31 1832.63,1558.55 1833.27,1558.86C1838.93,1561.6 1839.66,1569.59 1837.92,1576.54C1834.7,1589.43 1824.49,1599.75 1818.28,1611.66C1811.33,1625.1 1804.87,1638.81 1799.45,1653.01L1799.29,1653.45C1799.63,1652.96 1799.97,1652.48 1800.31,1651.99C1820.04,1624.07 1841.59,1597.33 1866.02,1573.04C1867.21,1571.85 1868.54,1570.62 1868.64,1570.54C1869.08,1570.15 1869.53,1569.77 1869.98,1569.38C1874.31,1565.67 1878.39,1560.53 1883.16,1559.38C1883.7,1559.25 1884.77,1558.93 1885.4,1558.96C1887.54,1559.03 1887.54,1559.1 1889.61,1559.65C1889.61,1559.65 1891.45,1560.66 1891.45,1560.66C1894.67,1563.02 1894.53,1563.86 1895.06,1565.17C1896.04,1567.58 1896.01,1570.34 1895.1,1572.79C1893.81,1586.21 1889.89,1599.26 1886.12,1612.33C1879.3,1636.01 1871.52,1659.45 1864.3,1682.96L1864.05,1683.77C1864.45,1683.24 1864.85,1682.7 1865.25,1682.17C1884.81,1656.14 1904.4,1630.4 1928.8,1609.09C1938.71,1600.44 1949.97,1591.09 1962.6,1593.53L1965.36,1594.53C1965.46,1594.61 1965.56,1594.68 1965.65,1594.75C1971.91,1597.4 1977.08,1603.28 1980.27,1609.54C1980.27,1609.54 1980.13,1609.91 1981.46,1609.26C1982.57,1608.71 1983.77,1608.45 1984.98,1608.44ZM1958.68,1612.04C1955.76,1612.08 1952.61,1616.29 1949.97,1619.41C1941.56,1629.34 1934.05,1640.99 1931.88,1652.82C1931.13,1656.92 1930.91,1660.6 1935.85,1660.79C1939.22,1660.92 1942.37,1657.03 1945.94,1653.33C1953.64,1645.33 1960.23,1636.29 1966.88,1627.33C1966.88,1627.33 1965.1,1620.69 1962.79,1616.64C1961.75,1614.84 1960.59,1612.74 1958.84,1612.08C1958.79,1612.06 1958.73,1612.04 1958.68,1612.04ZM2143.86,1613.48C2143.03,1613.49 2141.8,1613.64 2141.8,1613.64C2130.73,1623.5 2122.24,1638.18 2119.56,1650.85C2118.8,1654.47 2116.78,1659.44 2123.46,1659.66C2126.39,1659.76 2129.36,1657.01 2132.5,1654.46C2139.79,1648.53 2146.12,1641.46 2152.25,1634.29C2153.15,1629.63 2154.41,1625.06 2155.88,1620.56L2155.97,1620.27C2155.71,1619.92 2155.43,1619.59 2155.15,1619.26C2152.32,1615.97 2148.32,1613.46 2143.86,1613.48ZM2559.93,1615.04C2553.03,1615.1 2547.78,1620.97 2544.47,1626.08C2541.53,1630.62 2539.46,1635.71 2538.28,1641L2538.24,1641.17C2547.14,1633.74 2556.4,1625.69 2560.57,1615.08C2560.57,1615.08 2560.18,1615.04 2559.93,1615.04ZM2240.23,1612.12C2232.03,1612.24 2225.44,1619.59 2222.08,1626C2221.49,1627.11 2220.96,1628.25 2220.47,1629.41C2218.95,1633.03 2217.91,1636.84 2217.35,1640.73C2217.58,1640.54 2217.81,1640.34 2218.04,1640.14C2226.62,1632.8 2234.91,1624.66 2239.66,1614.59C2240.2,1613.43 2241.15,1612.11 2240.23,1612.12ZM2412.83,1553.59C2419.47,1553.84 2424.54,1562.03 2420.31,1568.31L2410.82,1582.04C2407.52,1586.69 2399.98,1587.33 2396.08,1582.91C2393.33,1579.81 2393.01,1574.89 2395.39,1571.36L2404.88,1557.64C2406.6,1555.21 2409.39,1553.7 2412.38,1553.59C2412.61,1553.59 2412.6,1553.59 2412.83,1553.59Z" style="fill:rgb(56,56,56);"/>
            </g>
        </g>
    </g>
    <defs>
        <linearGradient id="_Linear1" x1="0" y1="0" x2="1" y2="0" gradientUnits="userSpaceOnUse" gradientTransform="matrix(-657.577,9.15208e-14,-8.053e-14,-747.324,752.975,688.144)"><stop offset="0" style="stop-color:rgb(220,220,220);stop-opacity:1"/><stop offset="1" style="stop-color:rgb(205,205,205);stop-opacity:1"/></linearGradient>
    </defs>
</svg>
