<?xml version="1.0" encoding="UTF-8" standalone="no"?>
<!DOCTYPE svg PUBLIC "-//W3C//DTD SVG 1.1//EN" "http://www.w3.org/Graphics/SVG/1.1/DTD/svg11.dtd">
<svg width="500px" viewBox="0 0 1992 635" version="1.1" xmlns="http://www.w3.org/2000/svg" xmlns:xlink="http://www.w3.org/1999/xlink" xml:space="preserve" xmlns:serif="http://www.serif.com/" style="fill-rule:evenodd;clip-rule:evenodd;stroke-linejoin:round;stroke-miterlimit:1.41421;">
    <g transform="matrix(1,0,0,1,-1538.17,-844.219)">
        <g id="Artboard2" transform="matrix(1.13116,0,0,0.717012,1094.84,-16.4804)">
            <rect x="391.923" y="1200.4" width="1760.78" height="885.031" style="fill:none;"/>
            <g transform="matrix(1.18778,0,0,1,-73.016,-32.7711)">
                <g transform="matrix(1.56327,0,0,2.92931,-1116.89,273.003)">
                    <path d="M1192.5,435.916C1198.64,444.587 1203.63,454.121 1208.33,463.528C1217.19,481.228 1224.31,500.343 1237.92,514.658C1239.82,516.652 1241.92,518.48 1244.24,520.012C1244.64,524.889 1244.88,529.779 1245.02,534.649C1245.1,537.276 1244.87,539.909 1245.31,542.489C1246.48,549.37 1252.96,554.851 1259.9,554.897L1261,554.851C1258.82,555.046 1256.6,554.845 1254.38,554.638C1243.07,553.579 1232.24,548.909 1223.41,541.756C1210.15,531.015 1201.36,515.949 1193.71,501.122C1185.92,486.028 1179.64,470.153 1170.02,455.865C1174.61,448.836 1180.04,441.866 1187.59,437.88C1189.16,437.05 1190.82,436.395 1192.5,435.916Z" style="fill:rgb(0,224,255);"/>
                </g>
                <g transform="matrix(1.56327,0,0,2.92931,-1116.89,273.003)">
                    <path d="M1067.88,548.497C1066.63,546.779 1065.74,544.806 1065.35,542.695C1064.84,539.953 1065.1,537.201 1065.18,534.447C1065.9,507.331 1069.44,480.128 1079.33,454.865C1085.47,439.164 1094.4,424.251 1108.57,414.64C1117.72,408.439 1128.74,405.168 1139.77,405.103C1139.92,405.103 1140.08,405.103 1140.24,405.103C1150.7,405.164 1160.99,408.238 1169.94,413.708C1160.97,419.352 1153.6,427.333 1147.54,435.932C1146.47,435.613 1145.36,435.366 1144.21,435.197C1136.48,434.056 1128.42,436.279 1122.37,441.56C1114.87,448.104 1110.2,457.422 1106.62,466.904C1100.23,483.798 1097.05,501.806 1095.71,519.963C1091.91,522.604 1087.67,524.483 1083.06,524.951C1081.17,525.143 1079.25,525.001 1077.38,525.334C1072.25,526.25 1067.76,530.032 1065.99,534.932C1064.36,539.429 1065.23,544.583 1067.88,548.497Z" style="fill:rgb(0,224,255);"/>
                </g>
                <g transform="matrix(-1.56327,0,0,2.92931,2541.16,273.003)">
                    <path d="M1192.45,435.932C1184.59,438.237 1178.54,444.233 1173.63,450.719C1172.35,452.406 1171.13,454.122 1169.98,455.865L1170.41,456.526C1184.99,479.068 1193.39,505.6 1209.15,526.641C1218.34,538.901 1230.77,549.386 1245.86,553.181C1250.41,554.327 1255.11,554.875 1259.8,554.892C1252.86,554.804 1246.46,549.295 1245.31,542.479C1245.16,541.625 1245.17,540.753 1245.1,539.89L1245.1,539.833C1245.11,538.663 1245.09,537.493 1245.06,536.324C1244.95,530.874 1244.71,525.411 1244.28,519.963C1239.45,516.611 1235.33,512.03 1232.11,507.57C1216.04,485.313 1207.97,457.993 1192.51,436.005L1192.45,435.932Z" style="fill:rgb(255,0,86);"/>
                </g>
                <g transform="matrix(-1.56327,0,0,2.92931,2541.16,273.003)">
                    <path d="M1170.06,413.708C1167.88,412.328 1165.59,411.089 1163.21,410.014C1156.02,406.765 1148.17,405.149 1140.24,405.103C1140.08,405.103 1139.92,405.103 1139.77,405.103C1124.67,405.191 1110.1,411.344 1099.04,422.652C1087.76,434.182 1080.8,449.199 1076,464.295C1068.79,486.973 1065.77,511.014 1065.17,534.77C1065.12,536.509 1065.1,538.248 1065.1,539.988L1065.1,540.002C1065.11,533.025 1070.57,526.55 1077.38,525.334C1078.5,525.134 1080.13,525.102 1080.13,525.102C1085.99,525.072 1091.26,523.093 1095.76,520.012C1097.1,501.869 1100.23,483.783 1106.62,466.904C1110.66,456.227 1116.06,445.456 1125.46,439.189C1131.8,434.961 1140.07,433.794 1147.5,435.916C1151.65,430.018 1156.34,424.518 1161.82,419.738C1164.4,417.49 1167.16,415.472 1170.06,413.708Z" style="fill:rgb(255,0,86);"/>
                </g>
                <g transform="matrix(-1.56327,0,0,2.92931,2541.16,273.003)">
                    <path d="M1095.76,520.012C1091.26,523.093 1085.99,525.072 1080.13,525.102C1080.13,525.102 1078.5,525.134 1077.38,525.334C1070.57,526.55 1065.11,533.025 1065.1,540.002L1065.1,540.061L1065.11,540.177L1065.2,541.396L1065.27,542.057C1065.74,545.15 1067.25,548.056 1069.44,550.317L1069.61,550.497L1069.63,550.515C1071.96,552.791 1075.01,554.359 1078.24,554.766L1079,554.851L1080.1,554.897C1087.04,554.851 1093.52,549.37 1094.69,542.489C1095.12,539.909 1094.9,537.276 1094.98,534.649C1095.12,529.779 1095.36,524.889 1095.76,520.012Z" style="fill:rgb(0,119,135);"/>
                </g>
                <g transform="matrix(-1.56327,0,0,2.92931,2541.16,273.003)">
                    <path d="M1244.28,519.963C1244.71,525.411 1244.95,530.874 1245.06,536.324C1245.09,537.493 1245.11,538.663 1245.1,539.833L1245.1,539.89C1245.17,540.753 1245.16,541.625 1245.31,542.479C1246.46,549.295 1252.86,554.804 1259.8,554.892L1259.92,554.896L1260.06,554.89L1262.16,554.71L1262.46,554.669L1263.06,554.531L1264.75,554.041C1267.65,553.001 1270.23,551.063 1272.05,548.594L1272.07,548.562L1272.12,548.497C1274.77,544.583 1275.64,539.429 1274.01,534.932C1272.24,530.032 1267.75,526.25 1262.62,525.334C1260.75,525.001 1258.83,525.143 1256.94,524.951C1252.33,524.483 1248.09,522.604 1244.28,519.963Z" style="fill:rgb(0,119,135);"/>
                </g>
                <g transform="matrix(-1.56327,0,0,2.92931,2541.16,273.003)">
                    <path d="M1170.06,413.708C1167.16,415.472 1164.4,417.49 1161.82,419.738C1156.34,424.518 1151.65,430.018 1147.5,435.916C1149.18,436.395 1150.83,437.05 1152.4,437.88C1159.96,441.866 1165.39,448.836 1169.98,455.865C1171.13,454.122 1172.35,452.406 1173.63,450.719C1178.54,444.233 1184.59,438.237 1192.45,435.932C1186.4,427.33 1179.02,419.345 1170.06,413.708Z" style="fill:rgb(0,119,135);"/>
                </g>
            </g>
            <g transform="matrix(27.6267,0,0,43.5838,-31189.2,-28004.8)">
                <path d="M1171.72,677.653C1172.05,677.653 1172.37,677.699 1172.69,677.791C1173,677.883 1173.28,678.021 1173.51,678.205C1173.75,678.045 1174.02,677.913 1174.32,677.809C1174.62,677.705 1174.98,677.653 1175.41,677.653C1175.71,677.653 1176.01,677.693 1176.3,677.773C1176.59,677.853 1176.85,677.979 1177.08,678.151C1177.31,678.323 1177.49,678.551 1177.63,678.835C1177.76,679.119 1177.83,679.465 1177.83,679.873L1177.83,683.653C1177.75,683.677 1177.62,683.701 1177.45,683.725C1177.28,683.749 1177.1,683.761 1176.92,683.761C1176.74,683.761 1176.58,683.749 1176.44,683.725C1176.3,683.701 1176.19,683.653 1176.09,683.581C1175.99,683.509 1175.92,683.411 1175.87,683.287C1175.82,683.163 1175.79,683.001 1175.79,682.801L1175.79,679.933C1175.79,679.693 1175.72,679.519 1175.59,679.411C1175.45,679.303 1175.27,679.249 1175.03,679.249C1174.92,679.249 1174.8,679.275 1174.67,679.327C1174.55,679.379 1174.45,679.433 1174.39,679.489C1174.39,679.521 1174.4,679.551 1174.4,679.579L1174.4,683.653C1174.31,683.677 1174.18,683.701 1174.01,683.725C1173.84,683.749 1173.66,683.761 1173.49,683.761C1173.31,683.761 1173.15,683.749 1173.01,683.725C1172.87,683.701 1172.75,683.653 1172.66,683.581C1172.56,683.509 1172.49,683.411 1172.44,683.287C1172.38,683.163 1172.36,683.001 1172.36,682.801L1172.36,679.933C1172.36,679.693 1172.28,679.519 1172.14,679.411C1171.99,679.303 1171.81,679.249 1171.6,679.249C1171.46,679.249 1171.33,679.271 1171.23,679.315C1171.13,679.359 1171.04,679.401 1170.97,679.441L1170.97,683.653C1170.89,683.677 1170.76,683.701 1170.59,683.725C1170.42,683.749 1170.24,683.761 1170.05,683.761C1169.88,683.761 1169.72,683.749 1169.58,683.725C1169.44,683.701 1169.32,683.653 1169.23,683.581C1169.13,683.509 1169.06,683.411 1169,683.287C1168.95,683.163 1168.93,683.001 1168.93,682.801L1168.93,679.177C1168.93,678.961 1168.97,678.789 1169.06,678.661C1169.16,678.533 1169.28,678.413 1169.44,678.301C1169.71,678.109 1170.05,677.953 1170.46,677.833C1170.86,677.713 1171.28,677.653 1171.72,677.653Z" style="fill:rgb(28,72,78);fill-rule:nonzero;"/>
                <path d="M1184.81,680.749C1184.81,681.245 1184.74,681.687 1184.59,682.075C1184.43,682.463 1184.22,682.789 1183.94,683.053C1183.67,683.317 1183.34,683.517 1182.95,683.653C1182.57,683.789 1182.14,683.857 1181.67,683.857C1181.2,683.857 1180.77,683.785 1180.39,683.641C1180,683.497 1179.67,683.291 1179.4,683.023C1179.12,682.755 1178.91,682.429 1178.75,682.045C1178.6,681.661 1178.53,681.229 1178.53,680.749C1178.53,680.277 1178.6,679.849 1178.75,679.465C1178.91,679.081 1179.12,678.755 1179.4,678.487C1179.67,678.219 1180,678.013 1180.39,677.869C1180.77,677.725 1181.2,677.653 1181.67,677.653C1182.14,677.653 1182.57,677.727 1182.95,677.875C1183.34,678.023 1183.67,678.231 1183.94,678.499C1184.22,678.767 1184.43,679.093 1184.59,679.477C1184.74,679.861 1184.81,680.285 1184.81,680.749ZM1180.61,680.749C1180.61,681.237 1180.71,681.611 1180.9,681.871C1181.08,682.131 1181.35,682.261 1181.68,682.261C1182.02,682.261 1182.28,682.129 1182.46,681.865C1182.64,681.601 1182.73,681.229 1182.73,680.749C1182.73,680.269 1182.63,679.899 1182.45,679.639C1182.27,679.379 1182.01,679.249 1181.67,679.249C1181.33,679.249 1181.07,679.379 1180.89,679.639C1180.71,679.899 1180.61,680.269 1180.61,680.749Z" style="fill:rgb(28,72,78);fill-rule:nonzero;"/>
                <path d="M1189.21,679.969C1189.21,679.721 1189.14,679.539 1189,679.423C1188.86,679.307 1188.67,679.249 1188.43,679.249C1188.27,679.249 1188.11,679.269 1187.95,679.309C1187.8,679.349 1187.66,679.409 1187.55,679.489L1187.55,683.653C1187.47,683.677 1187.34,683.701 1187.17,683.725C1187,683.749 1186.82,683.761 1186.64,683.761C1186.46,683.761 1186.3,683.749 1186.16,683.725C1186.02,683.701 1185.91,683.653 1185.81,683.581C1185.71,683.509 1185.64,683.411 1185.59,683.287C1185.54,683.163 1185.51,683.001 1185.51,682.801L1185.51,679.201C1185.51,678.985 1185.56,678.809 1185.65,678.673C1185.74,678.537 1185.87,678.413 1186.03,678.301C1186.3,678.109 1186.64,677.953 1187.05,677.833C1187.46,677.713 1187.92,677.653 1188.43,677.653C1189.33,677.653 1190.03,677.851 1190.51,678.247C1191,678.643 1191.25,679.193 1191.25,679.897L1191.25,683.653C1191.17,683.677 1191.04,683.701 1190.87,683.725C1190.7,683.749 1190.52,683.761 1190.33,683.761C1190.16,683.761 1190,683.749 1189.86,683.725C1189.72,683.701 1189.6,683.653 1189.51,683.581C1189.41,683.509 1189.34,683.411 1189.28,683.287C1189.23,683.163 1189.21,683.001 1189.21,682.801L1189.21,679.969Z" style="fill:rgb(28,72,78);fill-rule:nonzero;"/>
                <path d="M1192.16,676.213C1192.16,675.909 1192.26,675.653 1192.46,675.445C1192.67,675.237 1192.94,675.133 1193.27,675.133C1193.61,675.133 1193.88,675.237 1194.08,675.445C1194.29,675.653 1194.39,675.909 1194.39,676.213C1194.39,676.517 1194.29,676.773 1194.08,676.981C1193.88,677.189 1193.61,677.293 1193.27,677.293C1192.94,677.293 1192.67,677.189 1192.46,676.981C1192.26,676.773 1192.16,676.517 1192.16,676.213ZM1194.29,683.653C1194.21,683.669 1194.08,683.691 1193.9,683.719C1193.73,683.747 1193.56,683.761 1193.38,683.761C1193.21,683.761 1193.05,683.749 1192.91,683.725C1192.77,683.701 1192.65,683.653 1192.55,683.581C1192.46,683.509 1192.38,683.411 1192.33,683.287C1192.28,683.163 1192.25,683.001 1192.25,682.801L1192.25,677.917C1192.34,677.901 1192.47,677.879 1192.64,677.851C1192.82,677.823 1192.99,677.809 1193.17,677.809C1193.34,677.809 1193.5,677.821 1193.64,677.845C1193.78,677.869 1193.9,677.917 1193.99,677.989C1194.09,678.061 1194.16,678.159 1194.22,678.283C1194.27,678.407 1194.29,678.569 1194.29,678.769L1194.29,683.653Z" style="fill:rgb(28,72,78);fill-rule:nonzero;"/>
                <path d="M1198.58,679.261C1198.38,679.261 1198.19,679.293 1198.01,679.357C1197.83,679.421 1197.67,679.515 1197.54,679.639C1197.41,679.763 1197.3,679.917 1197.22,680.101C1197.14,680.285 1197.1,680.501 1197.1,680.749C1197.1,681.245 1197.24,681.617 1197.53,681.865C1197.81,682.113 1198.16,682.237 1198.57,682.237C1198.81,682.237 1199.01,682.209 1199.19,682.153C1199.37,682.097 1199.52,682.037 1199.66,681.973C1199.82,682.085 1199.94,682.207 1200.02,682.339C1200.1,682.471 1200.14,682.629 1200.14,682.813C1200.14,683.141 1199.98,683.395 1199.67,683.575C1199.36,683.755 1198.93,683.845 1198.37,683.845C1197.87,683.845 1197.41,683.771 1197.01,683.623C1196.6,683.475 1196.25,683.267 1195.96,682.999C1195.66,682.731 1195.44,682.409 1195.28,682.033C1195.12,681.657 1195.04,681.241 1195.04,680.785C1195.04,680.257 1195.12,679.795 1195.3,679.399C1195.47,679.003 1195.7,678.677 1196,678.421C1196.29,678.165 1196.64,677.973 1197.02,677.845C1197.41,677.717 1197.82,677.653 1198.25,677.653C1198.83,677.653 1199.27,677.757 1199.59,677.965C1199.9,678.173 1200.05,678.441 1200.05,678.769C1200.05,678.921 1200.02,679.063 1199.95,679.195C1199.87,679.327 1199.79,679.441 1199.69,679.537C1199.56,679.473 1199.39,679.411 1199.2,679.351C1199.01,679.291 1198.8,679.261 1198.58,679.261Z" style="fill:rgb(28,72,78);fill-rule:nonzero;"/>
            </g>
        </g>
    </g>
</svg>
