<?xml version="1.0" encoding="UTF-8" standalone="no"?>
<!DOCTYPE svg PUBLIC "-//W3C//DTD SVG 1.1//EN" "http://www.w3.org/Graphics/SVG/1.1/DTD/svg11.dtd">
<svg width="100%" height="100%" viewBox="0 0 1000 525" version="1.1" xmlns="http://www.w3.org/2000/svg" xmlns:xlink="http://www.w3.org/1999/xlink" xml:space="preserve" xmlns:serif="http://www.serif.com/" style="fill-rule:evenodd;clip-rule:evenodd;stroke-linejoin:round;stroke-miterlimit:1.41421;">
    <g transform="matrix(1,0,0,1,-457.892,-637.899)">
        <g id="Artboard1" transform="matrix(2.17141,0,0,1.13996,-532.475,1090.13)">
            <rect x="456.094" y="-396.708" width="460.366" height="460.366" style="fill:rgb(255,36,64);"/>
            <clipPath id="_clip1">
                <rect x="456.094" y="-396.708" width="460.366" height="460.366"/>
            </clipPath>
            <g clip-path="url(#_clip1)">
                <g transform="matrix(0.836893,0,0,1.20211,19.4179,-428.056)">
                    <rect x="521.782" y="26.077" width="275.036" height="382.965" style="fill:rgb(235,96,173);"/>
                </g>
                <g transform="matrix(0.836893,0,0,1.20211,249.609,-428.056)">
                    <rect x="521.782" y="26.077" width="275.036" height="382.965" style="fill:rgb(42,83,183);"/>
                </g>
                <g transform="matrix(0.46053,0,0,0.877224,267.181,-396.708)">
                    <g transform="matrix(0.9,0,0,1,62.3362,0)">
                        <path d="M640.061,74.909C640.976,75.033 641.521,75.528 641.694,76.394L641.694,78.323C641.521,79.264 640.964,79.783 640.024,79.882L626.961,79.882C626.021,79.783 625.502,79.264 625.403,78.323L625.403,76.394C625.403,76.122 625.477,75.874 625.625,75.652C629.312,71.001 632.899,66.213 636.387,61.29C636.387,60.746 636.399,60.214 636.424,59.695C636.053,58.012 635.026,57.109 633.344,56.986C631.39,57.159 630.338,58.223 630.19,60.177L630.19,61.587C630.066,62.527 629.534,63.047 628.594,63.146L626.702,63.146C625.737,63.022 625.242,62.49 625.217,61.55L625.217,59.991C625.613,54.994 628.322,52.248 633.344,51.753C638.317,52.273 641.038,55.019 641.508,59.991C641.483,60.684 641.434,61.364 641.36,62.032C641.013,62.973 640.519,63.814 639.875,64.556C637.377,68.019 634.853,71.471 632.305,74.909L640.061,74.909Z" style="fill:white;fill-rule:nonzero;"/>
                    </g>
                    <g transform="matrix(0.9,0,0,1,62.3362,0)">
                        <path d="M655.469,51.753C660.441,52.273 663.175,55.019 663.67,59.991L663.67,72.052C663.175,77.025 660.441,79.721 655.469,80.142C650.471,79.696 647.75,77 647.305,72.052L647.305,59.991C647.75,55.019 650.471,52.273 655.469,51.753ZM658.66,72.089L658.66,60.214C658.462,58.26 657.398,57.183 655.469,56.986C653.514,57.208 652.451,58.284 652.277,60.214L652.277,72.089C652.475,74.019 653.539,75.07 655.469,75.243C657.398,75.07 658.462,74.019 658.66,72.089Z" style="fill:white;fill-rule:nonzero;"/>
                    </g>
                    <g transform="matrix(0.9,0,0,1,62.3362,0)">
                        <path d="M680.302,53.386L680.302,54.907C680.253,58.965 680.228,63.022 680.228,67.079C680.228,70.84 680.228,74.588 680.228,78.323C680.129,79.239 679.634,79.758 678.744,79.882L676.777,79.882C675.886,79.783 675.379,79.301 675.255,78.435L675.255,58.507C674.068,59.274 672.856,60.016 671.619,60.734C671.248,61.03 670.852,61.204 670.431,61.253C669.763,61.08 669.429,60.635 669.429,59.917L669.429,57.542C669.33,56.553 669.751,55.823 670.691,55.353C671.136,55.081 671.582,54.796 672.027,54.499C672.942,53.955 673.845,53.386 674.736,52.792C675.082,52.57 675.429,52.372 675.775,52.198C676.072,51.926 676.443,51.79 676.888,51.79L678.744,51.79C679.634,51.939 680.154,52.471 680.302,53.386Z" style="fill:white;fill-rule:nonzero;"/>
                    </g>
                    <g transform="matrix(0.9,0,0,1,62.3362,0)">
                        <path d="M703.169,53.683L703.169,55.575C703.169,55.823 703.095,56.045 702.947,56.243C702.6,57.183 702.254,58.124 701.907,59.064C701.042,61.315 700.188,63.566 699.347,65.818C697.739,70.172 696.106,74.526 694.448,78.88C694.003,79.795 693.286,80.204 692.296,80.105L691.925,80.105L690.441,80.105L689.921,80.105C688.758,80.03 688.387,79.474 688.808,78.435C689.797,75.713 690.787,72.98 691.777,70.234C693.36,65.904 694.956,61.538 696.564,57.134L690.7,57.134L688.4,57.134C687.46,57.06 686.94,56.54 686.841,55.575L686.841,53.683C686.94,52.767 687.46,52.236 688.4,52.087L701.722,52.087C701.796,52.137 701.858,52.174 701.907,52.198C702.65,52.421 703.07,52.916 703.169,53.683Z" style="fill:white;fill-rule:nonzero;"/>
                    </g>
                </g>
                <g transform="matrix(0.46053,0,0,0.877224,495.022,-396.708)">
                    <g transform="matrix(0.9,0,0,1,62.3362,0)">
                        <path d="M640.061,74.909C640.976,75.033 641.521,75.528 641.694,76.394L641.694,78.323C641.521,79.264 640.964,79.783 640.024,79.882L626.961,79.882C626.021,79.783 625.502,79.264 625.403,78.323L625.403,76.394C625.403,76.122 625.477,75.874 625.625,75.652C629.312,71.001 632.899,66.213 636.387,61.29C636.387,60.746 636.399,60.214 636.424,59.695C636.053,58.012 635.026,57.109 633.344,56.986C631.39,57.159 630.338,58.223 630.19,60.177L630.19,61.587C630.066,62.527 629.534,63.047 628.594,63.146L626.702,63.146C625.737,63.022 625.242,62.49 625.217,61.55L625.217,59.991C625.613,54.994 628.322,52.248 633.344,51.753C638.317,52.273 641.038,55.019 641.508,59.991C641.483,60.684 641.434,61.364 641.36,62.032C641.013,62.973 640.519,63.814 639.875,64.556C637.377,68.019 634.853,71.471 632.305,74.909L640.061,74.909Z" style="fill:white;fill-rule:nonzero;"/>
                    </g>
                    <g transform="matrix(0.9,0,0,1,62.3362,0)">
                        <path d="M655.469,51.753C660.441,52.273 663.175,55.019 663.67,59.991L663.67,72.052C663.175,77.025 660.441,79.721 655.469,80.142C650.471,79.696 647.75,77 647.305,72.052L647.305,59.991C647.75,55.019 650.471,52.273 655.469,51.753ZM658.66,72.089L658.66,60.214C658.462,58.26 657.398,57.183 655.469,56.986C653.514,57.208 652.451,58.284 652.277,60.214L652.277,72.089C652.475,74.019 653.539,75.07 655.469,75.243C657.398,75.07 658.462,74.019 658.66,72.089Z" style="fill:white;fill-rule:nonzero;"/>
                    </g>
                    <g transform="matrix(0.9,0,0,1,62.3362,0)">
                        <path d="M680.302,53.386L680.302,54.907C680.253,58.965 680.228,63.022 680.228,67.079C680.228,70.84 680.228,74.588 680.228,78.323C680.129,79.239 679.634,79.758 678.744,79.882L676.777,79.882C675.886,79.783 675.379,79.301 675.255,78.435L675.255,58.507C674.068,59.274 672.856,60.016 671.619,60.734C671.248,61.03 670.852,61.204 670.431,61.253C669.763,61.08 669.429,60.635 669.429,59.917L669.429,57.542C669.33,56.553 669.751,55.823 670.691,55.353C671.136,55.081 671.582,54.796 672.027,54.499C672.942,53.955 673.845,53.386 674.736,52.792C675.082,52.57 675.429,52.372 675.775,52.198C676.072,51.926 676.443,51.79 676.888,51.79L678.744,51.79C679.634,51.939 680.154,52.471 680.302,53.386Z" style="fill:white;fill-rule:nonzero;"/>
                    </g>
                    <g transform="matrix(0.9,0,0,1,62.3362,0)">
                        <path d="M703.095,59.954L703.095,59.991C703.021,62.416 702.254,64.543 700.794,66.374C702.279,67.958 703.045,69.85 703.095,72.052C702.6,77 699.891,79.709 694.968,80.179C689.971,79.709 687.262,77 686.841,72.052C686.841,69.85 687.596,67.958 689.105,66.374C687.596,64.543 686.841,62.416 686.841,59.991L686.841,59.954C687.237,55.006 689.946,52.26 694.968,51.716C699.916,52.26 702.625,55.006 703.095,59.954ZM694.968,56.8C693.162,57.122 692.185,58.173 692.036,59.954C692.185,61.785 693.162,62.836 694.968,63.109C696.774,62.861 697.739,61.81 697.863,59.954C697.689,58.148 696.724,57.097 694.968,56.8ZM692.036,72.052C692.185,73.858 693.162,74.897 694.968,75.169C696.724,74.897 697.689,73.858 697.863,72.052C697.739,70.221 696.774,69.17 694.968,68.898C693.162,69.195 692.185,70.246 692.036,72.052Z" style="fill:white;fill-rule:nonzero;"/>
                    </g>
                </g>
                <g transform="matrix(0.545372,0,0,1.03883,699.898,-397.109)">
                    <path d="M76.107,262.112L71.978,262.112C71.776,262.106 71.576,262.088 71.379,262.059C71.163,262.028 70.949,261.988 70.737,261.94C68.163,261.347 66.115,259.05 65.945,256.339C65.941,256.276 65.941,256.214 65.939,256.151L65.939,204.051C66.049,200.839 68.61,198.016 71.809,197.835C71.865,197.832 71.921,197.832 71.978,197.83L76.107,197.83C79.27,197.963 81.938,200.727 82.146,204.088L82.146,212.551C83.869,209.44 85.61,206.346 87.359,203.263C87.359,203.263 87.915,202.291 87.915,202.291C88.196,201.686 88.235,201.638 88.4,201.361C89.823,198.967 92.597,197.57 95.483,197.919C95.483,197.919 100.045,197.908 100.045,197.908C100.311,197.897 100.315,197.9 100.612,197.91C104.31,198.137 107.431,202.623 104.881,206.216C104.881,206.216 104.902,206.198 104.902,206.198C103.856,208.234 102.754,210.24 101.609,212.221C101.609,212.221 96.917,220.623 93.849,226.223C92.864,228.032 91.829,230.024 91.829,230.024C94.159,236.95 99.277,243.525 103.901,251.746C104.767,253.302 106.853,257.26 104.628,260.102C102.161,263.252 95.944,262.709 92.709,261.813C89.784,261.002 88.08,258.007 86.726,255.477C86.726,255.477 84.399,251.405 82.224,247.52L82.224,250.269C82.165,252.535 82.568,254.35 81.986,257.153C81.44,259.784 79.078,261.908 76.32,262.105C76.25,262.11 76.178,262.11 76.107,262.112ZM240.827,262.268L236.704,262.268C233.536,262.157 230.752,259.678 230.567,256.48C230.564,256.422 230.564,256.365 230.562,256.307L230.562,204.087C230.762,200.879 233.229,198.103 236.517,197.84C237.993,197.721 239.482,197.796 240.963,197.834C244.206,198.086 247.05,200.906 247.081,204.244L247.081,256.463C247.059,257.11 246.991,257.233 246.91,257.533C246.272,259.881 243.684,261.652 243.684,261.652C242.779,262.047 241.809,262.256 240.827,262.268ZM184.869,262.034L180.766,262.034C177.713,261.965 174.85,259.461 174.654,256.256C174.651,256.195 174.651,256.134 174.649,256.073L174.649,202.821C174.856,200.068 176.997,197.793 179.965,197.809C180.141,197.813 180.428,197.83 180.428,197.83L185.106,197.83C188.11,197.628 191.059,199.407 192.537,202.314C194.42,206.986 196.323,211.658 198.245,216.32C198.245,216.32 198.263,203.93 198.263,203.93C198.533,200.814 201.076,198.062 204.323,197.837C204.392,197.832 204.461,197.832 204.53,197.83L208.582,197.83C211.747,197.904 214.733,200.226 214.854,203.791L214.854,241.986C214.806,246.63 214.78,251.274 214.777,255.919C214.777,255.919 214.216,261.91 209.104,262.033C206.629,262.053 204.549,262.701 201.298,261.703C197.719,260.604 196.253,256.24 194.596,252.336C193.627,250.049 192.66,247.761 191.695,245.472L191.012,243.848L191.007,255.926C190.751,259.029 188.318,261.734 184.869,262.034ZM292.754,214.427C292.723,215.765 292.712,217.104 292.709,218.442L292.709,256.463C292.651,257.876 292.908,257.075 291.886,258.985C291.681,259.369 290.159,261.034 290.159,261.034C289.39,261.718 289.484,261.557 288.597,261.876C287.728,262.172 286.301,262.19 286.301,262.19L282.245,262.187C279.119,261.968 276.292,259.652 276.19,256.229L276.19,214.427L268.814,214.422C265.743,214.162 263.09,211.767 262.789,208.284L262.789,204.103C262.858,200.981 265.457,198.067 268.776,197.837C268.845,197.832 268.914,197.832 268.983,197.83L299.916,197.83C299.987,197.833 300.058,197.835 300.129,197.838C300.464,197.873 300.797,197.928 301.122,198.005C303.817,198.639 305.98,201.046 306.181,203.89C306.186,203.961 306.186,204.032 306.189,204.103L306.189,208.154C306.181,208.378 306.159,208.599 306.123,208.818C306.087,209.045 306.041,209.27 305.986,209.493C305.326,212.151 302.968,214.255 300.09,214.422C300.032,214.425 299.974,214.425 299.916,214.427L292.754,214.427ZM155.941,241.854L124.93,241.854C122.305,241.767 120.083,239.548 120.06,236.84L120.06,230.124C120.19,227.71 122.051,225.663 124.442,225.296C124.442,225.296 124.713,225.262 124.93,225.257C135.315,225.257 145.702,225.013 156.084,225.26C158.61,225.441 160.823,227.444 160.889,230.205L160.889,236.828C160.832,239.26 158.939,241.427 156.431,241.815C156.431,241.815 156.16,241.849 155.941,241.854Z" style="fill:white;"/>
                </g>
                <g transform="matrix(0.129993,0,0,0.247613,513.412,-213.124)">
                    <g>
                        <g>
                            <g transform="matrix(1,0,0,1,21.2328,4.54747e-13)">
                                <path d="M0,23.079C0,9.075 8.215,0.387 21.245,0.387C34.285,0.387 42.487,9.075 42.487,23.079L42.487,204.121L135.182,126.396C143.876,118.67 152.079,113.357 159.319,113.357C170.421,113.357 177.182,121.566 177.182,132.186C177.182,138.462 174.77,144.257 166.559,150.531L70.011,226.804L182.011,337.369C190.222,345.58 192.15,350.883 192.15,359.09C192.15,368.747 183.456,376 174.287,376C164.147,376 159.803,373.096 149.667,362.96L42.487,250.957L42.487,353.304C42.487,367.301 34.285,376 21.245,376C8.215,376 0,367.301 0,353.304L0,23.079Z" style="fill:white;fill-rule:nonzero;"/>
                            </g>
                            <g transform="matrix(1,0,0,1,21.2328,4.54747e-13)">
                                <path d="M230.776,262.055C220.632,262.055 212.425,253.848 212.425,243.709C212.425,233.573 220.632,225.362 230.776,225.362L330.228,225.362C340.367,225.362 348.574,233.573 348.574,243.709C348.574,253.848 340.367,262.055 330.228,262.055L230.776,262.055Z" style="fill:white;fill-rule:nonzero;"/>
                            </g>
                            <g transform="matrix(1,0,0,1,21.2328,4.54747e-13)">
                                <path d="M393.474,136.05C393.474,122.049 401.681,113.357 414.72,113.357C427.751,113.357 435.957,122.049 435.957,136.05L435.957,146.188L436.923,147.152C455.753,123.013 482.306,113.357 507.893,113.357C547.486,113.357 597.209,138.462 597.209,210.882L597.209,353.304C597.209,367.301 588.994,376 575.963,376C562.928,376 554.721,367.301 554.721,353.304L554.721,213.293C554.721,168.396 523.344,150.047 495.337,150.047C467.343,150.047 435.957,168.396 435.957,213.293L435.957,353.304C435.957,367.301 427.751,376 414.72,376C401.681,376 393.474,367.301 393.474,353.304L393.474,136.05Z" style="fill:white;fill-rule:nonzero;"/>
                            </g>
                            <g transform="matrix(1,0,0,1,21.2328,4.54747e-13)">
                                <path d="M674.457,26.455C688.938,26.455 700.531,38.045 700.531,52.525C700.531,67.014 688.938,78.6 674.457,78.6C659.964,78.6 648.383,67.014 648.383,52.525C648.383,38.045 659.964,26.455 674.457,26.455Z" style="fill:white;fill-rule:nonzero;"/>
                            </g>
                            <g transform="matrix(1,0,0,1,21.2328,4.54747e-13)">
                                <path d="M695.699,353.304C695.699,367.301 687.488,376 674.457,376C661.422,376 653.211,367.301 653.211,353.304L653.211,136.05C653.211,122.049 661.422,113.357 674.457,113.357C687.488,113.357 695.699,122.049 695.699,136.05L695.699,353.304Z" style="fill:white;fill-rule:nonzero;"/>
                            </g>
                            <g transform="matrix(1,0,0,1,21.2328,4.54747e-13)">
                                <path d="M765.214,60.736C765.214,46.735 773.429,38.045 786.464,38.045C799.491,38.045 807.706,46.735 807.706,60.736L807.706,116.252L825.082,116.252C839.083,116.252 846.332,123.013 846.332,134.6C846.332,146.188 839.083,152.949 825.082,152.949L807.706,152.949L807.706,353.304C807.706,367.301 799.491,376 786.464,376C773.429,376 765.214,367.301 765.214,353.304L765.214,152.949L747.834,152.949C733.837,152.949 726.597,146.188 726.597,134.6C726.597,123.013 733.837,116.252 747.834,116.252L765.214,116.252L765.214,60.736Z" style="fill:white;fill-rule:nonzero;"/>
                            </g>
                        </g>
                    </g>
                </g>
            </g>
        </g>
    </g>
</svg>
