<?xml version="1.0" encoding="UTF-8" standalone="no"?>
<!DOCTYPE svg PUBLIC "-//W3C//DTD SVG 1.1//EN" "http://www.w3.org/Graphics/SVG/1.1/DTD/svg11.dtd">
<svg width="100%" height="100%" viewBox="0 0 1095 1095" version="1.1" xmlns="http://www.w3.org/2000/svg" xmlns:xlink="http://www.w3.org/1999/xlink" xml:space="preserve" xmlns:serif="http://www.serif.com/" style="fill-rule:evenodd;clip-rule:evenodd;stroke-linejoin:round;stroke-miterlimit:1.41421;">
    <g transform="matrix(1,0,0,1,-1298.37,-2658.49)">
        <g id="Artful" transform="matrix(1.35708,0,0,1.72695,-646.245,2545.6)">
            <rect x="1432.94" y="65.373" width="806.82" height="634.008" style="fill:rgb(52,0,116);"/>
            <g transform="matrix(3.37862,0,0,2.34394,-300.289,-177.673)">
                <path d="M594.334,284.502C596.05,284.522 597.929,285.092 598.708,286.777C599.18,287.797 599.039,289.1 598.267,290.038C597.323,291.184 595.81,291.568 594.401,291.597L594.36,291.597C594.36,291.597 594.359,293.733 594.359,293.733C594.346,293.882 594.333,293.906 594.31,293.969C594.21,294.242 594.029,294.418 593.702,294.43L593.342,294.43C593.209,294.425 593.187,294.412 593.13,294.39C592.87,294.29 592.694,294.071 592.683,293.684L592.683,285.284C592.687,285.134 592.699,285.109 592.718,285.044C592.895,284.455 593.721,284.5 594.334,284.502ZM594.36,289.745C595.479,289.732 596.859,289.502 597.254,288.399C597.459,287.827 596.986,287.187 596.568,286.915C595.919,286.492 595.135,286.37 594.372,286.355L594.36,286.355C594.36,287.485 594.36,288.615 594.36,289.745Z" style="fill:white;fill-rule:nonzero;"/>
            </g>
            <g transform="matrix(3.37862,0,0,2.34394,-300.289,-177.673)">
                <path d="M612.766,284.502C614.453,284.522 616.293,285.071 617.101,286.694C617.46,287.416 617.522,288.317 617.243,289.092C616.968,289.856 616.407,290.452 615.763,290.851C615.763,290.851 617.445,293.089 617.445,293.089C617.445,293.089 617.82,293.787 617.309,294.198L617.021,294.414C616.908,294.493 616.884,294.496 616.825,294.513C616.589,294.584 616.327,294.486 616.159,294.279L614.032,291.487C613.752,291.539 613.281,291.589 612.815,291.597C612.815,291.597 612.791,293.733 612.791,293.733C612.778,293.882 612.765,293.906 612.742,293.969C612.642,294.242 612.461,294.418 612.134,294.43L611.774,294.43C611.641,294.425 611.619,294.412 611.562,294.39C611.302,294.29 611.126,294.071 611.115,293.684L611.115,285.284C611.119,285.134 611.131,285.109 611.15,285.044C611.326,284.456 612.152,284.5 612.766,284.502ZM612.792,289.745C613.919,289.733 615.297,289.484 615.686,288.399C615.89,287.829 615.424,287.191 615,286.915C614.347,286.489 613.56,286.37 612.804,286.355L612.792,286.355C612.792,287.485 612.792,288.615 612.792,289.745Z" style="fill:white;fill-rule:nonzero;"/>
            </g>
            <g transform="matrix(3.37862,0,0,2.34394,-300.289,-177.673)">
                <path d="M635.121,284.54C635.253,284.554 635.274,284.569 635.33,284.595C635.57,284.708 635.726,284.914 635.736,285.284L635.736,285.644C635.732,285.794 635.721,285.819 635.701,285.884C635.613,286.178 635.419,286.377 635.078,286.39L631.344,286.39L631.344,288.066L634.286,288.066C634.418,288.071 634.44,288.084 634.497,288.106C634.758,288.206 634.933,288.425 634.944,288.812L634.944,289.172C634.94,289.322 634.929,289.347 634.909,289.412C634.821,289.706 634.627,289.905 634.286,289.918L631.344,289.918L631.344,292.578L635.078,292.578C635.21,292.583 635.232,292.596 635.289,292.618C635.55,292.718 635.725,292.937 635.736,293.324L635.736,293.684C635.732,293.834 635.721,293.859 635.701,293.924C635.613,294.218 635.419,294.417 635.078,294.43L630.326,294.43C630.193,294.425 630.171,294.412 630.114,294.39C629.854,294.29 629.678,294.071 629.667,293.684L629.667,285.284C629.671,285.134 629.683,285.109 629.702,285.044C629.79,284.749 629.984,284.551 630.326,284.538L635.078,284.538C635.092,284.539 635.106,284.539 635.121,284.54Z" style="fill:white;fill-rule:nonzero;"/>
            </g>
            <g transform="matrix(3.37862,0,0,2.34394,-300.289,-177.673)">
                <path d="M650.921,284.394C652.028,284.404 653.186,284.927 653.749,286.086C653.953,286.508 653.927,287.03 653.455,287.254L653.119,287.398C652.618,287.591 652.263,286.869 652.026,286.642C651.153,285.803 649.299,286.189 649.418,287.482C649.503,288.411 651.515,288.668 652.394,289.173C653.2,289.636 653.942,290.474 653.928,291.566C653.9,293.837 651.08,295.439 648.961,294.071C648.077,293.5 647.314,292.138 648.213,291.714L648.549,291.57C649.048,291.377 649.399,292.093 649.642,292.326C650.516,293.167 652.346,292.793 652.25,291.493C652.181,290.561 650.142,290.294 649.274,289.795C648.495,289.348 647.757,288.554 647.739,287.487C647.726,286.682 648.038,285.882 648.575,285.33C649.204,284.682 650.078,284.39 650.921,284.394Z" style="fill:white;fill-rule:nonzero;"/>
            </g>
            <g transform="matrix(3.37862,0,0,2.34394,-300.289,-177.673)">
                <path d="M669.113,284.394C670.22,284.404 671.378,284.926 671.941,286.086C672.145,286.507 672.119,287.03 671.647,287.254L671.311,287.398C670.81,287.591 670.458,286.869 670.209,286.633C669.328,285.803 667.496,286.245 667.61,287.482C667.695,288.407 669.707,288.668 670.586,289.173C671.391,289.636 672.134,290.475 672.12,291.567C672.091,293.858 669.241,295.481 667.105,294.04C666.252,293.464 665.528,292.128 666.405,291.714L666.741,291.57C667.235,291.379 667.588,292.09 667.834,292.326C668.715,293.173 670.555,292.724 670.441,291.485C670.357,290.566 668.334,290.294 667.466,289.795C666.685,289.346 665.949,288.547 665.931,287.487C665.918,286.682 666.23,285.881 666.766,285.33C667.396,284.682 668.269,284.39 669.113,284.394Z" style="fill:white;fill-rule:nonzero;"/>
            </g>
            <g transform="matrix(0.602617,0,0,0.473551,724.024,-1047.67)">
                <path d="M1743.84,2793.36L1741.82,2793.36C1741.08,2793.34 1740.96,2793.27 1740.63,2793.16C1739.17,2792.67 1738.19,2791.58 1738.13,2789.67L1738.13,2753.57C1738.13,2753.57 1726.91,2753.56 1726.91,2753.56C1726.17,2753.48 1726.06,2753.41 1725.74,2753.28C1724.39,2752.72 1723.52,2751.71 1723.46,2749.87L1723.46,2748.09C1723.49,2747.35 1723.55,2747.23 1723.66,2746.9C1724.15,2745.45 1725.24,2744.46 1727.15,2744.4L1758.51,2744.4C1758.59,2744.4 1758.67,2744.4 1758.75,2744.41C1759.49,2744.48 1759.61,2744.55 1759.92,2744.68C1761.27,2745.24 1762.14,2746.26 1762.2,2748.09L1762.2,2749.87C1762.17,2750.62 1762.11,2750.74 1762,2751.06C1761.51,2752.52 1760.42,2753.5 1758.51,2753.57L1747.53,2753.57L1747.53,2789.67C1747.53,2789.67 1747.04,2793.26 1743.84,2793.36ZM1964.51,2793.36L1937.87,2793.36C1937.13,2793.34 1937.01,2793.27 1936.68,2793.16C1935.23,2792.67 1934.24,2791.58 1934.18,2789.67L1934.18,2748.09C1934.2,2747.35 1934.27,2747.23 1934.38,2746.9C1934.87,2745.45 1935.96,2744.46 1937.87,2744.4L1964.51,2744.4C1964.6,2744.4 1964.67,2744.4 1964.76,2744.41C1965.5,2744.48 1965.61,2744.55 1965.93,2744.68C1967.28,2745.24 1968.15,2746.26 1968.21,2748.09L1968.21,2749.87C1968.18,2750.62 1968.12,2750.74 1968.01,2751.06C1967.52,2752.52 1966.43,2753.5 1964.51,2753.57L1943.58,2753.57L1943.58,2761.86L1960.07,2761.86C1960.82,2761.89 1960.94,2761.95 1961.26,2762.06C1962.72,2762.55 1963.7,2763.64 1963.77,2765.55L1963.77,2767.34C1963.74,2768.08 1963.68,2768.2 1963.57,2768.52C1963.08,2769.98 1961.99,2770.96 1960.07,2771.03L1943.58,2771.03L1943.58,2784.19L1964.51,2784.19C1965.26,2784.22 1965.38,2784.28 1965.7,2784.39C1967.16,2784.89 1968.14,2785.97 1968.21,2787.89L1968.21,2789.67C1968.18,2790.41 1968.12,2790.53 1968.01,2790.86C1967.52,2792.31 1966.43,2793.3 1964.51,2793.36ZM1835.88,2793.36L1833.86,2793.36C1833.12,2793.34 1832.99,2793.27 1832.67,2793.16C1831.21,2792.67 1830.23,2791.58 1830.17,2789.67L1830.17,2748.09C1830.19,2747.35 1830.25,2747.23 1830.36,2746.9C1830.86,2745.45 1831.94,2744.46 1833.86,2744.4L1835.88,2744.4C1836.62,2744.42 1836.74,2744.49 1837.06,2744.59C1838.52,2745.09 1839.51,2746.18 1839.57,2748.09L1839.57,2761.86L1855.46,2761.86L1855.46,2748.09C1855.49,2747.35 1855.55,2747.23 1855.66,2746.9C1856.15,2745.45 1857.24,2744.46 1859.16,2744.4C1859.16,2744.4 1861.41,2744.41 1861.41,2744.41C1861.5,2744.41 1861.58,2744.42 1861.66,2744.43C1863.46,2744.73 1864.8,2745.95 1864.87,2748.09L1864.87,2789.67C1864.84,2790.41 1864.78,2790.53 1864.67,2790.86C1864.17,2792.31 1863.09,2793.3 1861.17,2793.36L1859.16,2793.36C1858.41,2793.34 1858.29,2793.27 1857.97,2793.16C1856.51,2792.67 1855.53,2791.58 1855.46,2789.67L1855.46,2771.03L1839.57,2771.03L1839.57,2789.67C1839.55,2790.41 1839.48,2790.53 1839.37,2790.86C1838.88,2792.31 1837.79,2793.3 1835.88,2793.36Z" style="fill:white;fill-rule:nonzero;"/>
            </g>
            <g transform="matrix(17.9988,0,0,14.3441,-8115.21,-1656.86)">
                <path d="M543.716,144.557C543.344,144.557 543.236,144.377 543.236,144.041L543.236,139.973L541.856,139.973L541.856,140.597C541.664,140.441 541.148,139.901 540.188,139.901C538.928,139.901 537.788,140.729 537.788,142.877C537.788,144.929 538.964,145.829 540.092,145.829C541.316,145.829 541.748,145.085 541.856,144.857L541.856,144.869C541.856,145.337 542.204,145.817 543.032,145.817C543.464,145.817 543.716,145.733 543.716,145.733L543.716,144.557ZM541.664,143.477C541.652,143.429 541.508,144.461 540.524,144.461C539.936,144.461 539.336,143.993 539.336,142.865C539.336,141.785 539.84,141.269 540.512,141.269C541.376,141.269 541.652,142.037 541.664,142.253L541.664,143.477Z" style="fill:rgb(255,172,252);fill-rule:nonzero;"/>
            </g>
            <g transform="matrix(17.9988,0,0,14.3441,-8115.21,-1656.86)">
                <path d="M546.512,145.757L546.512,142.445C546.536,141.977 546.812,141.329 547.544,141.329C548.048,141.329 548.288,141.509 548.288,141.509L548.924,140.129C548.924,140.129 548.612,139.901 548.012,139.901C546.908,139.901 546.452,140.453 546.296,140.945L546.296,140.909C546.296,140.645 546.128,139.913 545.12,139.913C544.676,139.913 544.472,139.997 544.472,139.997L544.472,141.173C544.844,141.173 544.952,141.365 544.952,141.689L544.952,145.757L546.512,145.757Z" style="fill:rgb(0,216,193);fill-rule:nonzero;"/>
            </g>
            <g transform="matrix(17.9988,0,0,14.3441,-8115.21,-1656.86)">
                <path d="M553.472,144.113C553.472,144.113 553.136,144.449 552.572,144.449C551.924,144.449 551.636,144.053 551.636,143.225L551.636,141.209L553.628,141.209L553.628,139.973L551.636,139.973L551.636,138.161L550.064,138.161L550.064,139.973L549.188,139.973L549.188,141.209L550.064,141.209L550.064,143.297C550.064,144.917 550.712,145.829 552.404,145.829C553.34,145.829 553.94,145.241 553.94,145.241L553.472,144.113Z" style="fill:rgb(96,232,255);fill-rule:nonzero;"/>
            </g>
            <g transform="matrix(17.9988,0,0,14.3441,-8115.21,-1656.86)">
                <path d="M556.712,145.757L556.712,141.209L558.548,141.209L558.548,139.973L556.712,139.973L556.712,139.481C556.712,138.773 557,138.365 557.588,138.365C558.14,138.365 558.404,138.653 558.404,138.653L558.896,137.501C558.896,137.501 558.404,136.985 557.42,136.985C555.836,136.985 555.14,137.981 555.14,139.409L555.14,139.973L554.3,139.973L554.3,141.209L555.14,141.209L555.14,145.757L556.712,145.757Z" style="fill:rgb(255,172,252);fill-rule:nonzero;"/>
            </g>
            <g transform="matrix(17.9988,0,0,14.3441,-8115.21,-1656.86)">
                <path d="M564.944,144.557C564.572,144.557 564.464,144.365 564.464,144.041L564.464,139.973L562.892,139.973L562.892,143.213C562.892,143.453 562.688,144.449 561.74,144.449C561.26,144.449 560.924,144.149 560.924,143.393L560.924,139.973L559.352,139.973L559.352,143.741C559.352,144.989 559.856,145.829 561.188,145.829C562.316,145.829 562.856,145.301 563.072,144.845L563.072,144.857C563.072,145.049 563.192,145.817 564.26,145.817C564.704,145.817 564.944,145.733 564.944,145.733L564.944,144.557Z" style="fill:rgb(0,216,193);fill-rule:nonzero;"/>
            </g>
            <g transform="matrix(17.9988,0,0,14.3441,-8115.21,-1656.86)">
                <path d="M568.016,144.557C567.656,144.557 567.536,144.377 567.536,144.041L567.536,137.045L565.964,137.045L565.964,144.293C565.964,145.337 566.444,145.817 567.32,145.817C567.764,145.817 568.016,145.733 568.016,145.733L568.016,144.557Z" style="fill:rgb(96,232,255);fill-rule:nonzero;"/>
            </g>
            <g transform="matrix(0.842227,0,0,0.77707,1368.33,-1313.73)">
                <rect x="550.845" y="2142.22" width="34.733" height="22.816" style="fill:rgb(0,216,193);"/>
            </g>
        </g>
    </g>
</svg>
